<?xml version="1.0" encoding="utf-8"?>
<!-- Generator: Adobe Illustrator 15.0.0, SVG Export Plug-In . SVG Version: 6.00 Build 0)  -->
<!DOCTYPE svg PUBLIC "-//W3C//DTD SVG 1.1//EN" "http://www.w3.org/Graphics/SVG/1.1/DTD/svg11.dtd">
<svg version="1.1" id="Layer_1" xmlns="http://www.w3.org/2000/svg" xmlns:xlink="http://www.w3.org/1999/xlink" x="0px" y="0px"
	 width="323px" height="344.529px" viewBox="0 0 323 344.529" enable-background="new 0 0 323 344.529" xml:space="preserve">
<g>
	<path fill="#F01616" d="M227.536,10.893l-44.88,26.213l0.396,98.1l34.157-59.972c-5.163-4.767-6.354-12.312-2.78-18.667
		c4.369-7.149,13.503-9.93,20.652-5.561c7.547,3.972,9.93,13.504,5.958,20.654c-3.575,6.354-11.519,9.134-18.271,6.751
		l-34.156,59.972v0.398l59.179-35.348l25.021-14.695l-0.397-52.03L227.536,10.893z"/>
	<path fill="#515151" d="M302.998,152.682l-45.277-25.816l-84.597,49.249l69.106-0.398c1.59-6.752,7.547-11.517,14.696-11.517
		c8.341,0,15.489,6.752,15.489,15.092c0,8.341-6.752,15.093-15.092,15.489c-7.547,0-13.901-5.561-15.094-12.709l-69.106,0.396
		l59.973,34.156l25.021,14.299l44.88-26.213V152.682z"/>
	<path fill="#515151" d="M254.94,288.911v-52.029l-84.597-49.248l34.554,59.973c6.752-1.986,13.901,0.794,17.476,6.751
		c4.369,7.546,1.588,16.682-5.561,21.05c-7.148,4.369-16.682,1.589-21.05-5.561c-3.575-6.354-1.986-14.695,3.573-19.063
		l-34.553-59.973v69.107l0.397,28.993l44.88,25.816L254.94,288.911z"/>
	<path fill="#515151" d="M113.151,315.124l45.277-26.213l0.398-97.703l-34.951,59.575c5.163,4.767,6.354,12.71,2.78,18.667
		c-4.369,7.148-13.504,9.93-21.05,5.561c-7.149-4.369-9.532-13.504-5.56-20.653c3.971-6.751,11.517-9.135,18.269-6.751
		l34.951-59.973l-59.576,34.552l-25.418,14.696v52.029L113.151,315.124z"/>
	<path fill="#515151" d="M19.816,204.711l44.881,26.213l85.39-48.455H80.98c-1.588,6.355-7.943,11.518-15.092,11.518
		c-8.341,0-15.093-7.148-15.093-15.488c0-8.342,7.15-15.094,15.49-15.094c7.149,0,13.504,5.561,14.695,12.313l69.107,0.397
		l-59.575-34.553l-25.021-14.298l-45.278,25.815L19.816,204.711z"/>
	<path fill="#515151" d="M69.065,69.276l-0.397,52.029l84.2,49.647l-34.157-59.973c-6.354,1.589-13.901-1.191-17.078-7.148
		c-4.369-7.547-1.589-16.682,5.56-21.051c7.149-3.971,16.682-1.588,20.653,5.958c3.972,6.354,2.383,14.298-3.177,19.063
		l34.157,59.973v-68.71V70.071l-44.484-26.61L69.065,69.276z"/>
</g>
</svg>
