<?xml version="1.0" encoding="utf-8"?>
<!-- Generator: Adobe Illustrator 16.0.0, SVG Export Plug-In . SVG Version: 6.00 Build 0)  -->
<!DOCTYPE svg PUBLIC "-//W3C//DTD SVG 1.1//EN" "http://www.w3.org/Graphics/SVG/1.1/DTD/svg11.dtd">
<svg version="1.1" id="Layer_1" xmlns="http://www.w3.org/2000/svg" xmlns:xlink="http://www.w3.org/1999/xlink" x="0px" y="0px"
	 width="841.89px" height="595.28px" viewBox="0 0 841.89 595.28" enable-background="new 0 0 841.89 595.28" xml:space="preserve">
<path fill="none" stroke="#000000" stroke-miterlimit="10" d="M278.001,324.998c43,2,82-10,92-28c9-15,3-26-13-26
	c-64,0-98,105.999-139,105.999c-19,0-16-25,7-58c18-27,13-46.999-10-46.999c-43,0-101,104.999-101,104.999l31-52l69-111.999"/>
<path fill="none" stroke="#000000" stroke-miterlimit="10" d="M418.479,301.057c-37,46-86.478,78.941-117.478,78.941
	c-38,0-46-26-18-61"/>
<path fill="none" stroke="#000000" stroke-miterlimit="10" d="M471.003,213.999c0,0-43.001,71-62.001,102.999c-20,35-20,60,0,60
	c29,0,82.606-71.086,82.606-71.086"/>
<path fill="none" stroke="#000000" stroke-miterlimit="10" d="M547.003,213.999c0,0-43,71-62,102.999c-20,35-19,60,1,60
	c28,0,83.124-70.456,83.124-70.456"/>
<path fill="none" stroke="#000000" stroke-miterlimit="10" d="M626.003,271.999c-18,0-44,17-62,40.999c-27,38-21,66,14,66
	c22,0,49-20,64-46C664.003,297.999,657.003,271.999,626.003,271.999z"/>
<path fill="none" stroke="#000000" stroke-miterlimit="10" d="M651.732,283.999c17,27.999,46,34.999,67,16.999"/>
</svg>
