<?xml version="1.0" encoding="utf-8"?>
<!-- Generator: Adobe Illustrator 16.0.0, SVG Export Plug-In . SVG Version: 6.00 Build 0)  -->
<!DOCTYPE svg PUBLIC "-//W3C//DTD SVG 1.1//EN" "http://www.w3.org/Graphics/SVG/1.1/DTD/svg11.dtd">
<svg version="1.1" id="Layer_1" xmlns="http://www.w3.org/2000/svg" xmlns:xlink="http://www.w3.org/1999/xlink" x="0px" y="0px"
	 width="83.333px" height="79px" viewBox="0 0 83.333 79" enable-background="new 0 0 83.333 79" xml:space="preserve">
<g>
	<path fill="#ED1C24" d="M54.188,17.861c-0.266-0.466-0.338-1.008-0.201-1.528c0.146-0.529,0.482-0.963,0.949-1.226
		c0.297-0.174,0.645-0.268,1-0.268c0.723,0,1.393,0.389,1.75,1.015c0.268,0.465,0.338,1.008,0.197,1.528
		c-0.139,0.521-0.475,0.955-0.941,1.223c-0.449,0.257-0.994,0.33-1.484,0.208l-9.07,15.669l15.441-8.915l4.5-19.688l-6.145-3.546
		L45.39,16.073v17.839l9.074-15.679C54.356,18.118,54.265,17.994,54.188,17.861z"/>
	<path d="M21.797,41.795c-0.045,0.15-0.107,0.293-0.188,0.429c-0.532,0.921-1.816,1.269-2.754,0.729
		c-0.959-0.557-1.289-1.791-0.733-2.754c0.542-0.935,1.849-1.271,2.762-0.732c0.452,0.264,0.776,0.685,0.919,1.18l18.101,0.02
		l-15.437-8.911l-19.3,5.945v7.094l19.299,5.943l15.449-8.919L21.797,41.795z"/>
	<path d="M52.876,58.323c1.113,0.004,2.018,0.91,2.016,2.02c-0.006,1.111-0.91,2.014-2.016,2.014l0,0
		c-0.543-0.002-1.051-0.213-1.43-0.596c-0.381-0.377-0.59-0.887-0.588-1.428c0-0.52,0.201-1.012,0.561-1.385l-9.031-15.689v17.826
		l14.797,13.742l6.145-3.547l-4.5-19.686l-15.449-8.92l9.039,15.701C52.567,58.34,52.72,58.323,52.876,58.323z"/>
	<path d="M61.985,40.709c0.045-0.152,0.107-0.299,0.188-0.438c0.535-0.926,1.832-1.275,2.758-0.73
		c0.959,0.558,1.289,1.793,0.732,2.754c-0.357,0.619-1.025,1.002-1.748,1.002c-0.354,0-0.703-0.094-1.008-0.27
		c-0.451-0.26-0.775-0.676-0.922-1.169H43.942l14.287,8.249l1.094,0.631l19.295-5.945v-7.092l-19.295-5.945l-0.154,0.089
		l-15.354,8.865H61.985z"/>
	<path d="M31.37,24.118c-0.148,0.035-0.301,0.052-0.456,0.052c-1.116-0.003-2.019-0.91-2.017-2.021c0-1.11,0.903-2.013,2.014-2.013
		c0.544,0.002,1.051,0.214,1.43,0.595c0.379,0.378,0.59,0.885,0.59,1.425c0,0.526-0.203,1.019-0.562,1.39l9.031,15.667V21.406
		L26.601,7.665l-6.144,3.549L24.961,30.9l4.444,2.567l11.002,6.351L31.37,24.118z"/>
	<path d="M32.599,59.295c0.553,0.965,0.219,2.201-0.744,2.756c-0.31,0.176-0.655,0.268-1.002,0.268
		c-0.725,0-1.396-0.387-1.752-1.012c-0.269-0.469-0.338-1.014-0.197-1.535c0.142-0.52,0.476-0.951,0.941-1.217
		c0.452-0.258,0.996-0.33,1.487-0.211l9.067-15.664l-15.438,8.916l-4.504,19.686l6.144,3.545l14.801-13.742v-17.84l-9.08,15.682
		C32.427,59.04,32.521,59.163,32.599,59.295z"/>
</g>
</svg>
