<?xml version="1.0" encoding="utf-8"?>
<!-- Generator: Adobe Illustrator 16.0.0, SVG Export Plug-In . SVG Version: 6.00 Build 0)  -->
<!DOCTYPE svg PUBLIC "-//W3C//DTD SVG 1.1//EN" "http://www.w3.org/Graphics/SVG/1.1/DTD/svg11.dtd" [
	<!ENTITY ns_extend "http://ns.adobe.com/Extensibility/1.0/">
	<!ENTITY ns_ai "http://ns.adobe.com/AdobeIllustrator/10.0/">
	<!ENTITY ns_graphs "http://ns.adobe.com/Graphs/1.0/">
	<!ENTITY ns_vars "http://ns.adobe.com/Variables/1.0/">
	<!ENTITY ns_imrep "http://ns.adobe.com/ImageReplacement/1.0/">
	<!ENTITY ns_sfw "http://ns.adobe.com/SaveForWeb/1.0/">
	<!ENTITY ns_custom "http://ns.adobe.com/GenericCustomNamespace/1.0/">
	<!ENTITY ns_adobe_xpath "http://ns.adobe.com/XPath/1.0/">
]>
<svg version="1.1" id="Layer_1" xmlns:x="&ns_extend;" xmlns:i="&ns_ai;" xmlns:graph="&ns_graphs;"
	 xmlns="http://www.w3.org/2000/svg" xmlns:xlink="http://www.w3.org/1999/xlink" x="0px" y="0px" width="800px" height="600px"
	 viewBox="0 0 800 600" enable-background="new 0 0 800 600" xml:space="preserve">
<metadata>
	<sfw  xmlns="&ns_sfw;">
		<slices></slices>
		<sliceSourceBounds  y="-2307.479" x="-1883.604" bottomLeftOrigin="true" height="2904.979" width="4293.121">
			</sliceSourceBounds>
	</sfw>
</metadata>
<g id="BG" display="none">
	<rect x="-1904.103" y="0" display="inline" fill="#5D5D5D" width="4293.121" height="2904.979"/>
</g>
<g id="Outline_Text">
</g>
<g id="Live_Text">
	<g>
		<path fill="none" stroke="#F3ECE9" stroke-width="1.5" stroke-linecap="round" stroke-linejoin="round" d="M139.07,333.096
			c-13.396,23.343-33.82,37.932-55.042,37.932c-30.238,0-45.625-15.649-45.625-42.707c0-27.984,23.21-43.768,62.071-43.768h39.656
			v16.977H99.679c-22.812,0-36.739,12.334-36.739,27.322c0,13.263,8.225,21.088,24.669,21.088c22.282,0,34.086-10.743,47.349-31.433
			L139.07,333.096z M131.112,368.375c-1.724-7.691-2.918-19.099-2.918-28.912v-69.499c0-17.507-11.141-27.852-31.168-27.852
			c-18.567,0-31.034,9.947-31.034,22.547H41.455c0-22.148,23.077-42.441,56.897-42.441c33.024,0,54.378,16.579,54.378,48.013v69.232
			c0,10.212,0.929,19.363,3.713,28.912H131.112L131.112,368.375z"/>
		<path fill="none" stroke="#F3ECE9" stroke-width="1.5" stroke-linecap="round" stroke-linejoin="round" d="M215.988,255.641
			v112.735h-24.669V255.641v-30.771h22.149L215.988,255.641z M208.825,258.956c11.805-28.382,32.494-36.738,49.604-36.738
			c31.3,0,48.41,16.845,48.41,55.572v90.587H282.17V278.32c0-26.394-9.683-35.677-31.035-35.677
			c-16.977,0-29.709,9.946-35.147,22.414L208.825,258.956z"/>
		<path fill="none" stroke="#F3ECE9" stroke-width="1.5" stroke-linecap="round" stroke-linejoin="round" d="M466.914,296.888
			c0,45.227-23.607,74.14-64.06,74.14c-40.585,0-64.192-28.913-64.192-74.14c0-45.359,23.74-74.67,63.927-74.67
			C442.908,222.219,466.914,250.999,466.914,296.888z M442.379,296.888c0-32.76-13.132-54.776-39.789-54.776
			c-26.394,0-39.258,22.017-39.258,54.776c0,33.024,12.732,54.378,39.523,54.378C428.983,351.266,442.379,330.311,442.379,296.888z"
			/>
		<path fill="none" stroke="#F3ECE9" stroke-width="1.5" stroke-linecap="round" stroke-linejoin="round" d="M597.945,334.953
			c-10.212,25.067-26.524,36.075-49.205,36.075c-35.545,0-55.704-25.995-55.704-70.426c0-48.277,19.364-78.384,55.971-78.384
			c21.617,0,35.146,8.62,47.879,31.433l-7.958,9.417c-7.029-12.732-17.772-20.425-33.82-20.425
			c-25.995,0-37.534,21.751-37.534,57.959c0,31.698,11.142,50.001,37.271,50.001c16.578,0,26.791-7.56,34.085-20.955
			L597.945,334.953z M588.927,329.648V161.474h24.536v206.902h-21.354L588.927,329.648z"/>
		<path fill="none" stroke="#F3ECE9" stroke-width="1.5" stroke-linecap="round" stroke-linejoin="round" d="M742.902,290.124
			c0-27.587-6.896-48.012-35.015-48.012c-21.088,0-37.137,22.017-37.137,54.511c0,35.678,14.722,54.644,41.115,54.644
			c17.904,0,30.238-5.172,40.717-14.191l9.683,16.313c-10.479,10.213-26.394,17.64-50.398,17.64
			c-40.585,0-65.254-27.321-65.254-74.405c0-45.358,26.924-74.405,61.274-74.405c38.859,0,58.488,24.271,58.488,60.215
			L742.902,290.124z M766.377,302.193H659.346v-19.762h107.031V302.193z"/>
	</g>
</g>
<g id="Anchors">
	<g>
		<g opacity="0.25">
			
				<line fill="none" stroke="#F3ECE9" stroke-width="2" stroke-linecap="round" stroke-linejoin="round" x1="742.902" y1="290.124" x2="742.902" y2="262.537"/>
			
				<line fill="none" stroke="#F3ECE9" stroke-width="2" stroke-linecap="round" stroke-linejoin="round" x1="707.888" y1="242.112" x2="736.005" y2="242.112"/>
			
				<line fill="none" stroke="#F3ECE9" stroke-width="2" stroke-linecap="round" stroke-linejoin="round" x1="707.888" y1="242.112" x2="686.8" y2="242.112"/>
			
				<line fill="none" stroke="#F3ECE9" stroke-width="2" stroke-linecap="round" stroke-linejoin="round" x1="670.752" y1="296.623" x2="670.752" y2="264.129"/>
			
				<line fill="none" stroke="#F3ECE9" stroke-width="2" stroke-linecap="round" stroke-linejoin="round" x1="670.752" y1="296.623" x2="670.752" y2="332.301"/>
			
				<line fill="none" stroke="#F3ECE9" stroke-width="2" stroke-linecap="round" stroke-linejoin="round" x1="711.866" y1="351.267" x2="685.473" y2="351.267"/>
			
				<line fill="none" stroke="#F3ECE9" stroke-width="2" stroke-linecap="round" stroke-linejoin="round" x1="711.866" y1="351.267" x2="729.771" y2="351.267"/>
			
				<line fill="none" stroke="#F3ECE9" stroke-width="2" stroke-linecap="round" stroke-linejoin="round" x1="752.584" y1="337.075" x2="742.105" y2="346.094"/>
			
				<line fill="none" stroke="#F3ECE9" stroke-width="2" stroke-linecap="round" stroke-linejoin="round" x1="762.266" y1="353.388" x2="751.787" y2="363.601"/>
			
				<line fill="none" stroke="#F3ECE9" stroke-width="2" stroke-linecap="round" stroke-linejoin="round" x1="711.866" y1="371.028" x2="735.872" y2="371.028"/>
			
				<line fill="none" stroke="#F3ECE9" stroke-width="2" stroke-linecap="round" stroke-linejoin="round" x1="711.866" y1="371.028" x2="671.281" y2="371.028"/>
			
				<line fill="none" stroke="#F3ECE9" stroke-width="2" stroke-linecap="round" stroke-linejoin="round" x1="646.613" y1="296.623" x2="646.613" y2="343.706"/>
			
				<line fill="none" stroke="#F3ECE9" stroke-width="2" stroke-linecap="round" stroke-linejoin="round" x1="646.613" y1="296.623" x2="646.613" y2="251.264"/>
			
				<line fill="none" stroke="#F3ECE9" stroke-width="2" stroke-linecap="round" stroke-linejoin="round" x1="707.888" y1="222.219" x2="673.536" y2="222.219"/>
			
				<line fill="none" stroke="#F3ECE9" stroke-width="2" stroke-linecap="round" stroke-linejoin="round" x1="707.888" y1="222.219" x2="746.747" y2="222.219"/>
			
				<line fill="none" stroke="#F3ECE9" stroke-width="2" stroke-linecap="round" stroke-linejoin="round" x1="766.377" y1="282.432" x2="766.377" y2="246.489"/>
			
				<line fill="none" stroke="#F3ECE9" stroke-width="2" stroke-linecap="round" stroke-linejoin="round" x1="597.945" y1="334.952" x2="587.733" y2="360.021"/>
			
				<line fill="none" stroke="#F3ECE9" stroke-width="2" stroke-linecap="round" stroke-linejoin="round" x1="548.74" y1="371.028" x2="571.42" y2="371.028"/>
			
				<line fill="none" stroke="#F3ECE9" stroke-width="2" stroke-linecap="round" stroke-linejoin="round" x1="548.74" y1="371.028" x2="513.195" y2="371.028"/>
			
				<line fill="none" stroke="#F3ECE9" stroke-width="2" stroke-linecap="round" stroke-linejoin="round" x1="493.035" y1="300.603" x2="493.035" y2="345.032"/>
			
				<line fill="none" stroke="#F3ECE9" stroke-width="2" stroke-linecap="round" stroke-linejoin="round" x1="493.035" y1="300.603" x2="493.035" y2="252.325"/>
			
				<line fill="none" stroke="#F3ECE9" stroke-width="2" stroke-linecap="round" stroke-linejoin="round" x1="549.006" y1="222.219" x2="512.4" y2="222.219"/>
			
				<line fill="none" stroke="#F3ECE9" stroke-width="2" stroke-linecap="round" stroke-linejoin="round" x1="549.006" y1="222.219" x2="570.623" y2="222.219"/>
			
				<line fill="none" stroke="#F3ECE9" stroke-width="2" stroke-linecap="round" stroke-linejoin="round" x1="596.885" y1="253.651" x2="584.152" y2="230.839"/>
			
				<line fill="none" stroke="#F3ECE9" stroke-width="2" stroke-linecap="round" stroke-linejoin="round" x1="588.927" y1="263.067" x2="581.897" y2="250.335"/>
			
				<line fill="none" stroke="#F3ECE9" stroke-width="2" stroke-linecap="round" stroke-linejoin="round" x1="555.106" y1="242.644" x2="571.154" y2="242.644"/>
			
				<line fill="none" stroke="#F3ECE9" stroke-width="2" stroke-linecap="round" stroke-linejoin="round" x1="555.106" y1="242.644" x2="529.111" y2="242.644"/>
			
				<line fill="none" stroke="#F3ECE9" stroke-width="2" stroke-linecap="round" stroke-linejoin="round" x1="517.572" y1="300.603" x2="517.572" y2="264.394"/>
			
				<line fill="none" stroke="#F3ECE9" stroke-width="2" stroke-linecap="round" stroke-linejoin="round" x1="517.572" y1="300.603" x2="517.572" y2="332.301"/>
			
				<line fill="none" stroke="#F3ECE9" stroke-width="2" stroke-linecap="round" stroke-linejoin="round" x1="554.842" y1="350.603" x2="528.713" y2="350.603"/>
			
				<line fill="none" stroke="#F3ECE9" stroke-width="2" stroke-linecap="round" stroke-linejoin="round" x1="554.842" y1="350.603" x2="571.42" y2="350.603"/>
			
				<line fill="none" stroke="#F3ECE9" stroke-width="2" stroke-linecap="round" stroke-linejoin="round" x1="588.927" y1="329.647" x2="581.633" y2="343.045"/>
			
				<line fill="none" stroke="#F3ECE9" stroke-width="2" stroke-linecap="round" stroke-linejoin="round" x1="442.379" y1="296.888" x2="442.379" y2="264.129"/>
			
				<line fill="none" stroke="#F3ECE9" stroke-width="2" stroke-linecap="round" stroke-linejoin="round" x1="402.59" y1="242.112" x2="429.247" y2="242.112"/>
			
				<line fill="none" stroke="#F3ECE9" stroke-width="2" stroke-linecap="round" stroke-linejoin="round" x1="402.59" y1="242.112" x2="376.197" y2="242.112"/>
			
				<line fill="none" stroke="#F3ECE9" stroke-width="2" stroke-linecap="round" stroke-linejoin="round" x1="363.332" y1="296.888" x2="363.332" y2="264.129"/>
			
				<line fill="none" stroke="#F3ECE9" stroke-width="2" stroke-linecap="round" stroke-linejoin="round" x1="363.332" y1="296.888" x2="363.332" y2="329.913"/>
			
				<line fill="none" stroke="#F3ECE9" stroke-width="2" stroke-linecap="round" stroke-linejoin="round" x1="402.855" y1="351.267" x2="376.064" y2="351.267"/>
			
				<line fill="none" stroke="#F3ECE9" stroke-width="2" stroke-linecap="round" stroke-linejoin="round" x1="402.855" y1="351.267" x2="428.983" y2="351.267"/>
			
				<line fill="none" stroke="#F3ECE9" stroke-width="2" stroke-linecap="round" stroke-linejoin="round" x1="442.379" y1="296.888" x2="442.379" y2="330.312"/>
			
				<line fill="none" stroke="#F3ECE9" stroke-width="2" stroke-linecap="round" stroke-linejoin="round" x1="466.914" y1="296.888" x2="466.914" y2="342.114"/>
			
				<line fill="none" stroke="#F3ECE9" stroke-width="2" stroke-linecap="round" stroke-linejoin="round" x1="402.855" y1="371.028" x2="443.307" y2="371.028"/>
			
				<line fill="none" stroke="#F3ECE9" stroke-width="2" stroke-linecap="round" stroke-linejoin="round" x1="402.855" y1="371.028" x2="362.271" y2="371.028"/>
			
				<line fill="none" stroke="#F3ECE9" stroke-width="2" stroke-linecap="round" stroke-linejoin="round" x1="338.663" y1="296.888" x2="338.663" y2="342.114"/>
			
				<line fill="none" stroke="#F3ECE9" stroke-width="2" stroke-linecap="round" stroke-linejoin="round" x1="338.663" y1="296.888" x2="338.663" y2="251.528"/>
			
				<line fill="none" stroke="#F3ECE9" stroke-width="2" stroke-linecap="round" stroke-linejoin="round" x1="402.59" y1="222.219" x2="362.403" y2="222.219"/>
			
				<line fill="none" stroke="#F3ECE9" stroke-width="2" stroke-linecap="round" stroke-linejoin="round" x1="402.59" y1="222.219" x2="442.908" y2="222.219"/>
			
				<line fill="none" stroke="#F3ECE9" stroke-width="2" stroke-linecap="round" stroke-linejoin="round" x1="466.914" y1="296.888" x2="466.914" y2="250.999"/>
			
				<line fill="none" stroke="#F3ECE9" stroke-width="2" stroke-linecap="round" stroke-linejoin="round" x1="208.825" y1="258.956" x2="220.63" y2="230.573"/>
			
				<line fill="none" stroke="#F3ECE9" stroke-width="2" stroke-linecap="round" stroke-linejoin="round" x1="258.429" y1="222.219" x2="241.32" y2="222.219"/>
			
				<line fill="none" stroke="#F3ECE9" stroke-width="2" stroke-linecap="round" stroke-linejoin="round" x1="258.429" y1="222.219" x2="289.729" y2="222.219"/>
			
				<line fill="none" stroke="#F3ECE9" stroke-width="2" stroke-linecap="round" stroke-linejoin="round" x1="306.839" y1="277.79" x2="306.839" y2="239.062"/>
			
				<line fill="none" stroke="#F3ECE9" stroke-width="2" stroke-linecap="round" stroke-linejoin="round" x1="282.17" y1="278.32" x2="282.17" y2="251.927"/>
			
				<line fill="none" stroke="#F3ECE9" stroke-width="2" stroke-linecap="round" stroke-linejoin="round" x1="251.135" y1="242.644" x2="272.488" y2="242.644"/>
			
				<line fill="none" stroke="#F3ECE9" stroke-width="2" stroke-linecap="round" stroke-linejoin="round" x1="251.135" y1="242.644" x2="234.158" y2="242.644"/>
			
				<line fill="none" stroke="#F3ECE9" stroke-width="2" stroke-linecap="round" stroke-linejoin="round" x1="215.988" y1="265.058" x2="221.426" y2="252.59"/>
			
				<line fill="none" stroke="#F3ECE9" stroke-width="2" stroke-linecap="round" stroke-linejoin="round" x1="131.112" y1="368.377" x2="129.388" y2="360.683"/>
			
				<line fill="none" stroke="#F3ECE9" stroke-width="2" stroke-linecap="round" stroke-linejoin="round" x1="128.194" y1="339.463" x2="128.194" y2="349.276"/>
			
				<line fill="none" stroke="#F3ECE9" stroke-width="2" stroke-linecap="round" stroke-linejoin="round" x1="128.194" y1="269.964" x2="128.194" y2="252.458"/>
			
				<line fill="none" stroke="#F3ECE9" stroke-width="2" stroke-linecap="round" stroke-linejoin="round" x1="97.026" y1="242.112" x2="117.054" y2="242.112"/>
			
				<line fill="none" stroke="#F3ECE9" stroke-width="2" stroke-linecap="round" stroke-linejoin="round" x1="97.026" y1="242.112" x2="78.458" y2="242.112"/>
			
				<line fill="none" stroke="#F3ECE9" stroke-width="2" stroke-linecap="round" stroke-linejoin="round" x1="65.991" y1="264.659" x2="65.991" y2="252.06"/>
			
				<line fill="none" stroke="#F3ECE9" stroke-width="2" stroke-linecap="round" stroke-linejoin="round" x1="41.455" y1="264.659" x2="41.455" y2="242.511"/>
			
				<line fill="none" stroke="#F3ECE9" stroke-width="2" stroke-linecap="round" stroke-linejoin="round" x1="98.353" y1="222.219" x2="64.532" y2="222.219"/>
			
				<line fill="none" stroke="#F3ECE9" stroke-width="2" stroke-linecap="round" stroke-linejoin="round" x1="98.353" y1="222.219" x2="131.377" y2="222.219"/>
			
				<line fill="none" stroke="#F3ECE9" stroke-width="2" stroke-linecap="round" stroke-linejoin="round" x1="152.731" y1="270.229" x2="152.731" y2="238.796"/>
			
				<line fill="none" stroke="#F3ECE9" stroke-width="2" stroke-linecap="round" stroke-linejoin="round" x1="152.731" y1="339.463" x2="152.731" y2="349.676"/>
			
				<line fill="none" stroke="#F3ECE9" stroke-width="2" stroke-linecap="round" stroke-linejoin="round" x1="156.444" y1="368.377" x2="153.659" y2="358.826"/>
			
				<line fill="none" stroke="#F3ECE9" stroke-width="2" stroke-linecap="round" stroke-linejoin="round" x1="139.07" y1="333.097" x2="125.675" y2="356.438"/>
			
				<line fill="none" stroke="#F3ECE9" stroke-width="2" stroke-linecap="round" stroke-linejoin="round" x1="84.029" y1="371.028" x2="105.25" y2="371.028"/>
			
				<line fill="none" stroke="#F3ECE9" stroke-width="2" stroke-linecap="round" stroke-linejoin="round" x1="84.029" y1="371.028" x2="53.79" y2="371.028"/>
			
				<line fill="none" stroke="#F3ECE9" stroke-width="2" stroke-linecap="round" stroke-linejoin="round" x1="38.404" y1="328.321" x2="38.404" y2="355.379"/>
			
				<line fill="none" stroke="#F3ECE9" stroke-width="2" stroke-linecap="round" stroke-linejoin="round" x1="38.404" y1="328.321" x2="38.404" y2="300.338"/>
			
				<line fill="none" stroke="#F3ECE9" stroke-width="2" stroke-linecap="round" stroke-linejoin="round" x1="100.475" y1="284.554" x2="61.615" y2="284.554"/>
			
				<line fill="none" stroke="#F3ECE9" stroke-width="2" stroke-linecap="round" stroke-linejoin="round" x1="99.679" y1="301.53" x2="76.867" y2="301.53"/>
			
				<line fill="none" stroke="#F3ECE9" stroke-width="2" stroke-linecap="round" stroke-linejoin="round" x1="62.94" y1="328.853" x2="62.94" y2="313.864"/>
			
				<line fill="none" stroke="#F3ECE9" stroke-width="2" stroke-linecap="round" stroke-linejoin="round" x1="62.94" y1="328.853" x2="62.94" y2="342.114"/>
			
				<line fill="none" stroke="#F3ECE9" stroke-width="2" stroke-linecap="round" stroke-linejoin="round" x1="87.61" y1="349.94" x2="71.164" y2="349.94"/>
			
				<line fill="none" stroke="#F3ECE9" stroke-width="2" stroke-linecap="round" stroke-linejoin="round" x1="87.61" y1="349.94" x2="109.892" y2="349.94"/>
			
				<line fill="none" stroke="#F3ECE9" stroke-width="2" stroke-linecap="round" stroke-linejoin="round" x1="134.958" y1="318.508" x2="121.696" y2="339.196"/>
		</g>
		<rect x="764.218" y="300.034" fill="#E84E1B" width="4.318" height="4.319"/>
		<rect x="657.186" y="300.034" fill="#E84E1B" width="4.319" height="4.319"/>
		<rect x="657.186" y="300.034" fill="#E84E1B" width="4.319" height="4.319"/>
		<rect x="657.186" y="280.272" fill="#E84E1B" width="4.319" height="4.318"/>
		<rect x="657.186" y="280.272" fill="#E84E1B" width="4.319" height="4.318"/>
		<rect x="764.218" y="280.272" fill="#E84E1B" width="4.318" height="4.318"/>
		<rect x="764.218" y="280.272" fill="#E84E1B" width="4.318" height="4.318"/>
		<rect x="764.218" y="300.034" fill="#E84E1B" width="4.318" height="4.319"/>
		<rect x="740.741" y="287.964" fill="#E84E1B" width="4.319" height="4.32"/>
		<rect x="705.728" y="239.952" fill="#E84E1B" width="4.32" height="4.32"/>
		<rect x="705.728" y="239.952" fill="#E84E1B" width="4.32" height="4.32"/>
		<rect x="668.592" y="294.463" fill="#E84E1B" width="4.318" height="4.319"/>
		<rect x="668.592" y="294.463" fill="#E84E1B" width="4.318" height="4.319"/>
		<rect x="709.706" y="349.106" fill="#E84E1B" width="4.319" height="4.32"/>
		<rect x="709.706" y="349.106" fill="#E84E1B" width="4.319" height="4.32"/>
		<rect x="750.424" y="334.915" fill="#E84E1B" width="4.319" height="4.32"/>
		<rect x="750.424" y="334.915" fill="#E84E1B" width="4.319" height="4.32"/>
		<rect x="760.105" y="351.228" fill="#E84E1B" width="4.32" height="4.32"/>
		<rect x="760.105" y="351.228" fill="#E84E1B" width="4.32" height="4.32"/>
		<rect x="709.706" y="368.868" fill="#E84E1B" width="4.319" height="4.32"/>
		<rect x="709.706" y="368.868" fill="#E84E1B" width="4.319" height="4.32"/>
		<rect x="644.452" y="294.463" fill="#E84E1B" width="4.319" height="4.319"/>
		<rect x="644.452" y="294.463" fill="#E84E1B" width="4.319" height="4.319"/>
		<rect x="705.728" y="220.058" fill="#E84E1B" width="4.32" height="4.319"/>
		<rect x="705.728" y="220.058" fill="#E84E1B" width="4.32" height="4.319"/>
		<rect x="764.218" y="280.272" fill="#E84E1B" width="4.318" height="4.318"/>
		<rect x="764.218" y="280.272" fill="#E84E1B" width="4.318" height="4.318"/>
		<rect x="740.741" y="287.964" fill="#E84E1B" width="4.319" height="4.32"/>
		<rect x="586.767" y="327.487" fill="#E84E1B" width="4.32" height="4.32"/>
		<rect x="586.767" y="159.313" fill="#E84E1B" width="4.32" height="4.319"/>
		<rect x="586.767" y="159.313" fill="#E84E1B" width="4.32" height="4.319"/>
		<rect x="611.304" y="159.313" fill="#E84E1B" width="4.318" height="4.319"/>
		<rect x="611.304" y="159.313" fill="#E84E1B" width="4.318" height="4.319"/>
		<rect x="611.304" y="366.217" fill="#E84E1B" width="4.318" height="4.319"/>
		<rect x="611.304" y="366.217" fill="#E84E1B" width="4.318" height="4.319"/>
		<rect x="589.949" y="366.217" fill="#E84E1B" width="4.319" height="4.319"/>
		<rect x="589.949" y="366.217" fill="#E84E1B" width="4.319" height="4.319"/>
		<rect x="586.767" y="327.487" fill="#E84E1B" width="4.32" height="4.32"/>
		<rect x="595.785" y="332.793" fill="#E84E1B" width="4.319" height="4.319"/>
		<rect x="546.579" y="368.868" fill="#E84E1B" width="4.32" height="4.32"/>
		<rect x="546.579" y="368.868" fill="#E84E1B" width="4.32" height="4.32"/>
		<rect x="490.876" y="298.442" fill="#E84E1B" width="4.319" height="4.32"/>
		<rect x="490.876" y="298.442" fill="#E84E1B" width="4.319" height="4.32"/>
		<rect x="546.846" y="220.058" fill="#E84E1B" width="4.318" height="4.319"/>
		<rect x="546.846" y="220.058" fill="#E84E1B" width="4.318" height="4.319"/>
		<rect x="594.725" y="251.491" fill="#E84E1B" width="4.32" height="4.32"/>
		<rect x="594.725" y="251.491" fill="#E84E1B" width="4.32" height="4.32"/>
		<rect x="586.767" y="260.907" fill="#E84E1B" width="4.32" height="4.32"/>
		<rect x="586.767" y="260.907" fill="#E84E1B" width="4.32" height="4.32"/>
		<rect x="552.946" y="240.483" fill="#E84E1B" width="4.32" height="4.32"/>
		<rect x="552.946" y="240.483" fill="#E84E1B" width="4.32" height="4.32"/>
		<rect x="515.411" y="298.442" fill="#E84E1B" width="4.32" height="4.32"/>
		<rect x="515.411" y="298.442" fill="#E84E1B" width="4.32" height="4.32"/>
		<rect x="552.682" y="348.442" fill="#E84E1B" width="4.318" height="4.32"/>
		<rect x="552.682" y="348.442" fill="#E84E1B" width="4.318" height="4.32"/>
		<rect x="586.767" y="327.487" fill="#E84E1B" width="4.32" height="4.32"/>
		<rect x="586.767" y="327.487" fill="#E84E1B" width="4.32" height="4.32"/>
		<rect x="611.625" y="327.487" fill="#E84E1B" width="4.32" height="4.32"/>
		<rect x="595.785" y="332.793" fill="#E84E1B" width="4.319" height="4.319"/>
		<rect x="440.219" y="294.728" fill="#E84E1B" width="4.319" height="4.32"/>
		<rect x="400.43" y="239.952" fill="#E84E1B" width="4.32" height="4.32"/>
		<rect x="400.43" y="239.952" fill="#E84E1B" width="4.32" height="4.32"/>
		<rect x="361.172" y="294.728" fill="#E84E1B" width="4.319" height="4.32"/>
		<rect x="361.172" y="294.728" fill="#E84E1B" width="4.319" height="4.32"/>
		<rect x="400.696" y="349.106" fill="#E84E1B" width="4.32" height="4.32"/>
		<rect x="400.696" y="349.106" fill="#E84E1B" width="4.32" height="4.32"/>
		<rect x="440.219" y="294.728" fill="#E84E1B" width="4.319" height="4.32"/>
		<rect x="464.755" y="294.728" fill="#E84E1B" width="4.319" height="4.32"/>
		<rect x="400.696" y="368.868" fill="#E84E1B" width="4.32" height="4.32"/>
		<rect x="400.696" y="368.868" fill="#E84E1B" width="4.32" height="4.32"/>
		<rect x="336.503" y="294.728" fill="#E84E1B" width="4.318" height="4.32"/>
		<rect x="336.503" y="294.728" fill="#E84E1B" width="4.318" height="4.32"/>
		<rect x="400.43" y="220.058" fill="#E84E1B" width="4.32" height="4.319"/>
		<rect x="400.43" y="220.058" fill="#E84E1B" width="4.32" height="4.319"/>
		<rect x="464.755" y="294.728" fill="#E84E1B" width="4.319" height="4.32"/>
		<rect x="206.666" y="256.796" fill="#E84E1B" width="4.318" height="4.32"/>
		<rect x="256.27" y="220.058" fill="#E84E1B" width="4.319" height="4.319"/>
		<rect x="256.27" y="220.058" fill="#E84E1B" width="4.319" height="4.319"/>
		<rect x="304.679" y="275.63" fill="#E84E1B" width="4.32" height="4.32"/>
		<rect x="304.679" y="275.63" fill="#E84E1B" width="4.32" height="4.32"/>
		<rect x="304.679" y="366.217" fill="#E84E1B" width="4.32" height="4.319"/>
		<rect x="304.679" y="366.217" fill="#E84E1B" width="4.32" height="4.319"/>
		<rect x="280.01" y="366.217" fill="#E84E1B" width="4.32" height="4.319"/>
		<rect x="280.01" y="366.217" fill="#E84E1B" width="4.32" height="4.319"/>
		<rect x="280.01" y="276.161" fill="#E84E1B" width="4.32" height="4.319"/>
		<rect x="280.01" y="276.161" fill="#E84E1B" width="4.32" height="4.319"/>
		<rect x="248.975" y="240.483" fill="#E84E1B" width="4.32" height="4.32"/>
		<rect x="248.975" y="240.483" fill="#E84E1B" width="4.32" height="4.32"/>
		<rect x="213.828" y="262.897" fill="#E84E1B" width="4.318" height="4.319"/>
		<rect x="213.828" y="262.897" fill="#E84E1B" width="4.318" height="4.319"/>
		<rect x="206.666" y="256.796" fill="#E84E1B" width="4.318" height="4.32"/>
		<rect x="213.828" y="253.481" fill="#E84E1B" width="4.318" height="4.318"/>
		<rect x="213.828" y="366.217" fill="#E84E1B" width="4.318" height="4.319"/>
		<rect x="213.828" y="366.217" fill="#E84E1B" width="4.318" height="4.319"/>
		<rect x="189.159" y="366.217" fill="#E84E1B" width="4.318" height="4.319"/>
		<rect x="189.159" y="366.217" fill="#E84E1B" width="4.318" height="4.319"/>
		<rect x="189.159" y="253.481" fill="#E84E1B" width="4.318" height="4.318"/>
		<rect x="189.159" y="253.481" fill="#E84E1B" width="4.318" height="4.318"/>
		<rect x="189.159" y="222.71" fill="#E84E1B" width="4.318" height="4.32"/>
		<rect x="189.159" y="222.71" fill="#E84E1B" width="4.318" height="4.32"/>
		<rect x="211.308" y="222.71" fill="#E84E1B" width="4.32" height="4.32"/>
		<rect x="211.308" y="222.71" fill="#E84E1B" width="4.32" height="4.32"/>
		<rect x="213.828" y="253.481" fill="#E84E1B" width="4.318" height="4.318"/>
		<rect x="128.952" y="366.217" fill="#E84E1B" width="4.319" height="4.319"/>
		<rect x="126.034" y="337.302" fill="#E84E1B" width="4.319" height="4.319"/>
		<rect x="126.034" y="337.302" fill="#E84E1B" width="4.319" height="4.319"/>
		<rect x="126.034" y="267.804" fill="#E84E1B" width="4.319" height="4.319"/>
		<rect x="126.034" y="267.804" fill="#E84E1B" width="4.319" height="4.319"/>
		<rect x="94.866" y="239.952" fill="#E84E1B" width="4.319" height="4.32"/>
		<rect x="94.866" y="239.952" fill="#E84E1B" width="4.319" height="4.32"/>
		<rect x="63.831" y="262.499" fill="#E84E1B" width="4.319" height="4.32"/>
		<rect x="63.831" y="262.499" fill="#E84E1B" width="4.319" height="4.32"/>
		<rect x="39.295" y="262.499" fill="#E84E1B" width="4.32" height="4.32"/>
		<rect x="39.295" y="262.499" fill="#E84E1B" width="4.32" height="4.32"/>
		<rect x="96.193" y="220.058" fill="#E84E1B" width="4.319" height="4.319"/>
		<rect x="96.193" y="220.058" fill="#E84E1B" width="4.319" height="4.319"/>
		<rect x="150.571" y="268.069" fill="#E84E1B" width="4.319" height="4.32"/>
		<rect x="150.571" y="268.069" fill="#E84E1B" width="4.319" height="4.32"/>
		<rect x="150.571" y="337.302" fill="#E84E1B" width="4.319" height="4.319"/>
		<rect x="150.571" y="337.302" fill="#E84E1B" width="4.319" height="4.319"/>
		<rect x="154.284" y="366.217" fill="#E84E1B" width="4.319" height="4.319"/>
		<rect x="154.284" y="366.217" fill="#E84E1B" width="4.319" height="4.319"/>
		<rect x="128.952" y="366.217" fill="#E84E1B" width="4.319" height="4.319"/>
		<rect x="136.91" y="330.937" fill="#E84E1B" width="4.319" height="4.32"/>
		<rect x="81.869" y="368.868" fill="#E84E1B" width="4.318" height="4.32"/>
		<rect x="81.869" y="368.868" fill="#E84E1B" width="4.318" height="4.32"/>
		<rect x="36.244" y="326.161" fill="#E84E1B" width="4.319" height="4.32"/>
		<rect x="36.244" y="326.161" fill="#E84E1B" width="4.319" height="4.32"/>
		<rect x="98.315" y="282.394" fill="#E84E1B" width="4.319" height="4.319"/>
		<rect x="98.315" y="282.394" fill="#E84E1B" width="4.319" height="4.319"/>
		<rect x="137.972" y="282.394" fill="#E84E1B" width="4.319" height="4.319"/>
		<rect x="137.972" y="282.394" fill="#E84E1B" width="4.319" height="4.319"/>
		<rect x="137.972" y="299.37" fill="#E84E1B" width="4.319" height="4.32"/>
		<rect x="137.972" y="299.37" fill="#E84E1B" width="4.319" height="4.32"/>
		<rect x="97.52" y="299.37" fill="#E84E1B" width="4.319" height="4.32"/>
		<rect x="97.52" y="299.37" fill="#E84E1B" width="4.319" height="4.32"/>
		<rect x="60.781" y="326.692" fill="#E84E1B" width="4.319" height="4.32"/>
		<rect x="60.781" y="326.692" fill="#E84E1B" width="4.319" height="4.32"/>
		<rect x="85.45" y="347.78" fill="#E84E1B" width="4.318" height="4.32"/>
		<rect x="85.45" y="347.78" fill="#E84E1B" width="4.318" height="4.32"/>
		<rect x="132.799" y="316.347" fill="#E84E1B" width="4.319" height="4.32"/>
		<rect x="132.799" y="316.347" fill="#E84E1B" width="4.319" height="4.32"/>
		<rect x="136.91" y="330.937" fill="#E84E1B" width="4.319" height="4.32"/>
		<g>
			<circle fill="#FCEA0D" cx="742.902" cy="262.537" r="2.1"/>
			<circle fill="#FCEA0D" cx="736.005" cy="242.112" r="2.101"/>
			<circle fill="#FCEA0D" cx="686.8" cy="242.112" r="2.101"/>
			<circle fill="#FCEA0D" cx="670.75" cy="264.129" r="2.1"/>
			<circle fill="#FCEA0D" cx="670.75" cy="332.3" r="2.1"/>
			<circle fill="#FCEA0D" cx="685.473" cy="351.267" r="2.1"/>
			<circle fill="#FCEA0D" cx="729.771" cy="351.267" r="2.1"/>
			<circle fill="#FCEA0D" cx="742.106" cy="346.094" r="2.1"/>
			<circle fill="#FCEA0D" cx="751.787" cy="363.601" r="2.101"/>
			<circle fill="#FCEA0D" cx="735.872" cy="371.029" r="2.1"/>
			<circle fill="#FCEA0D" cx="671.281" cy="371.029" r="2.101"/>
			<circle fill="#FCEA0D" cx="646.613" cy="343.706" r="2.1"/>
			<circle fill="#FCEA0D" cx="646.613" cy="251.264" r="2.1"/>
			<circle fill="#FCEA0D" cx="673.536" cy="222.218" r="2.1"/>
			<circle fill="#FCEA0D" cx="746.747" cy="222.218" r="2.1"/>
			<circle fill="#FCEA0D" cx="766.377" cy="246.489" r="2.1"/>
			<circle fill="#FCEA0D" cx="587.733" cy="360.021" r="2.101"/>
			<circle fill="#FCEA0D" cx="571.42" cy="371.029" r="2.1"/>
			<circle fill="#FCEA0D" cx="513.195" cy="371.029" r="2.1"/>
			<circle fill="#FCEA0D" cx="493.035" cy="345.032" r="2.101"/>
			<circle fill="#FCEA0D" cx="493.035" cy="252.325" r="2.101"/>
			<circle fill="#FCEA0D" cx="512.4" cy="222.218" r="2.1"/>
			<circle fill="#FCEA0D" cx="570.623" cy="222.218" r="2.101"/>
			<circle fill="#FCEA0D" cx="584.152" cy="230.839" r="2.1"/>
			<circle fill="#FCEA0D" cx="581.897" cy="250.335" r="2.101"/>
			<circle fill="#FCEA0D" cx="571.155" cy="242.644" r="2.1"/>
			<circle fill="#FCEA0D" cx="529.111" cy="242.644" r="2.1"/>
			<circle fill="#FCEA0D" cx="517.572" cy="264.394" r="2.1"/>
			<circle fill="#FCEA0D" cx="517.572" cy="332.3" r="2.1"/>
			<circle fill="#FCEA0D" cx="528.713" cy="350.603" r="2.1"/>
			<circle fill="#FCEA0D" cx="571.42" cy="350.603" r="2.1"/>
			<circle fill="#FCEA0D" cx="581.632" cy="343.044" r="2.1"/>
			<circle fill="#FCEA0D" cx="442.379" cy="264.129" r="2.1"/>
			<circle fill="#FCEA0D" cx="429.248" cy="242.112" r="2.1"/>
			<circle fill="#FCEA0D" cx="376.197" cy="242.112" r="2.1"/>
			<circle fill="#FCEA0D" cx="363.332" cy="264.129" r="2.1"/>
			<circle fill="#FCEA0D" cx="363.332" cy="329.913" r="2.1"/>
			<circle fill="#FCEA0D" cx="376.064" cy="351.267" r="2.1"/>
			<circle fill="#FCEA0D" cx="428.983" cy="351.267" r="2.101"/>
			<circle fill="#FCEA0D" cx="442.379" cy="330.312" r="2.1"/>
			<circle fill="#FCEA0D" cx="466.914" cy="342.115" r="2.101"/>
			<circle fill="#FCEA0D" cx="443.307" cy="371.029" r="2.1"/>
			<circle fill="#FCEA0D" cx="362.271" cy="371.029" r="2.1"/>
			<circle fill="#FCEA0D" cx="338.663" cy="342.115" r="2.1"/>
			<circle fill="#FCEA0D" cx="338.663" cy="251.528" r="2.1"/>
			<circle fill="#FCEA0D" cx="362.403" cy="222.218" r="2.1"/>
			<circle fill="#FCEA0D" cx="442.908" cy="222.218" r="2.101"/>
			<circle fill="#FCEA0D" cx="466.914" cy="250.999" r="2.101"/>
			<circle fill="#FCEA0D" cx="220.63" cy="230.573" r="2.1"/>
			<circle fill="#FCEA0D" cx="241.32" cy="222.218" r="2.1"/>
			<circle fill="#FCEA0D" cx="289.729" cy="222.218" r="2.1"/>
			<circle fill="#FCEA0D" cx="306.839" cy="239.062" r="2.1"/>
			<circle fill="#FCEA0D" cx="282.17" cy="251.927" r="2.1"/>
			<circle fill="#FCEA0D" cx="272.488" cy="242.644" r="2.1"/>
			<circle fill="#FCEA0D" cx="234.158" cy="242.644" r="2.1"/>
			<circle fill="#FCEA0D" cx="221.426" cy="252.59" r="2.1"/>
			<circle fill="#FCEA0D" cx="129.388" cy="360.683" r="2.1"/>
			<circle fill="#FCEA0D" cx="128.194" cy="349.277" r="2.1"/>
			<circle fill="#FCEA0D" cx="128.194" cy="252.458" r="2.1"/>
			<circle fill="#FCEA0D" cx="117.054" cy="242.112" r="2.1"/>
			<circle fill="#FCEA0D" cx="78.458" cy="242.112" r="2.1"/>
			<circle fill="#FCEA0D" cx="65.991" cy="252.06" r="2.1"/>
			<circle fill="#FCEA0D" cx="41.455" cy="242.511" r="2.1"/>
			<circle fill="#FCEA0D" cx="64.532" cy="222.218" r="2.1"/>
			<circle fill="#FCEA0D" cx="131.377" cy="222.218" r="2.1"/>
			<circle fill="#FCEA0D" cx="152.731" cy="238.796" r="2.1"/>
			<circle fill="#FCEA0D" cx="152.731" cy="349.675" r="2.1"/>
			<circle fill="#FCEA0D" cx="153.659" cy="358.826" r="2.1"/>
			<circle fill="#FCEA0D" cx="125.675" cy="356.438" r="2.1"/>
			<circle fill="#FCEA0D" cx="105.25" cy="371.029" r="2.1"/>
			<circle fill="#FCEA0D" cx="53.79" cy="371.029" r="2.1"/>
			<circle fill="#FCEA0D" cx="38.404" cy="355.378" r="2.1"/>
			<circle fill="#FCEA0D" cx="38.404" cy="300.337" r="2.1"/>
			<circle fill="#FCEA0D" cx="61.615" cy="284.554" r="2.1"/>
			<circle fill="#FCEA0D" cx="76.867" cy="301.531" r="2.1"/>
			<circle fill="#FCEA0D" cx="62.941" cy="313.865" r="2.1"/>
			<circle fill="#FCEA0D" cx="62.941" cy="342.115" r="2.1"/>
			<circle fill="#FCEA0D" cx="71.164" cy="349.94" r="2.1"/>
			<circle fill="#FCEA0D" cx="109.891" cy="349.94" r="2.1"/>
			<circle fill="#FCEA0D" cx="121.696" cy="339.197" r="2.1"/>
		</g>
	</g>
</g>
<g id="Parameters">
</g>
<g id="Commentary" display="none">
</g>
<rect x="-208.5" y="171.5" fill="#F3ECE9" width="66" height="314"/>
</svg>
