<?xml version="1.0" encoding="utf-8"?>
<!-- Generator: Adobe Illustrator 16.0.0, SVG Export Plug-In . SVG Version: 6.00 Build 0)  -->
<!DOCTYPE svg PUBLIC "-//W3C//DTD SVG 1.1//EN" "http://www.w3.org/Graphics/SVG/1.1/DTD/svg11.dtd" [
	<!ENTITY ns_extend "http://ns.adobe.com/Extensibility/1.0/">
	<!ENTITY ns_ai "http://ns.adobe.com/AdobeIllustrator/10.0/">
	<!ENTITY ns_graphs "http://ns.adobe.com/Graphs/1.0/">
	<!ENTITY ns_vars "http://ns.adobe.com/Variables/1.0/">
	<!ENTITY ns_imrep "http://ns.adobe.com/ImageReplacement/1.0/">
	<!ENTITY ns_sfw "http://ns.adobe.com/SaveForWeb/1.0/">
	<!ENTITY ns_custom "http://ns.adobe.com/GenericCustomNamespace/1.0/">
	<!ENTITY ns_adobe_xpath "http://ns.adobe.com/XPath/1.0/">
]>
<svg version="1.1" id="Layer_1" xmlns:x="&ns_extend;" xmlns:i="&ns_ai;" xmlns:graph="&ns_graphs;"
	 xmlns="http://www.w3.org/2000/svg" xmlns:xlink="http://www.w3.org/1999/xlink" x="0px" y="0px" width="800px" height="600px"
	 viewBox="0 0 800 600" enable-background="new 0 0 800 600" xml:space="preserve">
<metadata>
	<sfw  xmlns="&ns_sfw;">
		<slices></slices>
		<sliceSourceBounds  y="-2307.479" x="-2758.604" bottomLeftOrigin="true" height="2904.979" width="4293.121">
			</sliceSourceBounds>
	</sfw>
</metadata>
<g id="BG" display="none">
	<rect x="-2779.103" y="0" display="inline" fill="#5D5D5D" width="4293.121" height="2904.979"/>
</g>
<g id="Outline_Text">
</g>
<g id="Live_Text">
	<g>
		<path fill="none" stroke="#F3ECE9" stroke-width="1.5" stroke-linecap="round" stroke-linejoin="round" d="M139.07,333.096
			c-13.396,23.343-33.819,37.932-55.041,37.932c-30.239,0-45.625-15.649-45.625-42.707c0-27.984,23.212-43.768,62.07-43.768h39.656
			v16.977H99.68c-22.812,0-36.738,12.334-36.738,27.322c0,13.263,8.224,21.088,24.668,21.088c22.282,0,34.086-10.743,47.351-31.433
			L139.07,333.096z M131.112,368.375c-1.724-7.691-2.918-19.099-2.918-28.912v-69.499c0-17.507-11.141-27.852-31.168-27.852
			c-18.566,0-31.034,9.947-31.034,22.547H41.455c0-22.148,23.077-42.441,56.897-42.441c33.023,0,54.377,16.579,54.377,48.013v69.232
			c0,10.212,0.93,19.363,3.714,28.912H131.112L131.112,368.375z"/>
		<path fill="none" stroke="#F3ECE9" stroke-width="1.5" stroke-linecap="round" stroke-linejoin="round" d="M215.988,255.641
			v112.735h-24.67V255.641v-30.771h22.149L215.988,255.641z M208.826,258.956c11.804-28.382,32.493-36.738,49.604-36.738
			c31.3,0,48.409,16.845,48.409,55.572v90.587H282.17V278.32c0-26.394-9.683-35.677-31.035-35.677
			c-16.977,0-29.709,9.946-35.146,22.414L208.826,258.956z"/>
		<path fill="none" stroke="#F3ECE9" stroke-width="1.5" stroke-linecap="round" stroke-linejoin="round" d="M466.914,296.888
			c0,45.227-23.607,74.14-64.06,74.14c-40.585,0-64.192-28.913-64.192-74.14c0-45.359,23.74-74.67,63.928-74.67
			C442.908,222.219,466.914,250.999,466.914,296.888z M442.379,296.888c0-32.76-13.132-54.776-39.789-54.776
			c-26.394,0-39.258,22.017-39.258,54.776c0,33.024,12.731,54.378,39.522,54.378C428.983,351.266,442.379,330.311,442.379,296.888z"
			/>
		<path fill="none" stroke="#F3ECE9" stroke-width="1.5" stroke-linecap="round" stroke-linejoin="round" d="M597.945,334.953
			c-10.212,25.067-26.524,36.075-49.205,36.075c-35.545,0-55.704-25.995-55.704-70.426c0-48.277,19.364-78.384,55.971-78.384
			c21.617,0,35.146,8.62,47.879,31.433l-7.958,9.417c-7.029-12.732-17.772-20.425-33.82-20.425
			c-25.995,0-37.534,21.751-37.534,57.959c0,31.698,11.142,50.001,37.271,50.001c16.578,0,26.791-7.56,34.085-20.955
			L597.945,334.953z M588.927,329.648V161.474h24.536v206.902h-21.354L588.927,329.648z"/>
		<path fill="none" stroke="#F3ECE9" stroke-width="1.5" stroke-linecap="round" stroke-linejoin="round" d="M742.902,290.124
			c0-27.587-6.896-48.012-35.015-48.012c-21.088,0-37.137,22.017-37.137,54.511c0,35.678,14.722,54.644,41.115,54.644
			c17.904,0,30.238-5.172,40.717-14.191l9.683,16.313c-10.479,10.213-26.394,17.64-50.398,17.64
			c-40.585,0-65.254-27.321-65.254-74.405c0-45.358,26.924-74.405,61.274-74.405c38.859,0,58.488,24.271,58.488,60.215
			L742.902,290.124z M766.377,302.193H659.346v-19.762h107.031V302.193z"/>
	</g>
</g>
<g id="Anchors">
	<g>
		<rect x="764.758" y="300.574" fill="#F3A68D" width="3.238" height="3.239"/>
		<rect x="657.726" y="300.574" fill="#F3A68D" width="3.239" height="3.239"/>
		<rect x="657.726" y="300.574" fill="#F3A68D" width="3.239" height="3.239"/>
		<rect x="657.726" y="280.812" fill="#F3A68D" width="3.239" height="3.239"/>
		<rect x="657.726" y="280.812" fill="#F3A68D" width="3.239" height="3.239"/>
		<rect x="764.758" y="280.812" fill="#F3A68D" width="3.238" height="3.239"/>
		<rect x="764.758" y="280.812" fill="#F3A68D" width="3.238" height="3.239"/>
		<rect x="764.758" y="300.574" fill="#F3A68D" width="3.238" height="3.239"/>
		<rect x="741.281" y="288.504" fill="#F3A68D" width="3.239" height="3.24"/>
		<rect x="706.268" y="240.492" fill="#F3A68D" width="3.24" height="3.24"/>
		<rect x="706.268" y="240.492" fill="#F3A68D" width="3.24" height="3.24"/>
		<rect x="669.132" y="295.003" fill="#F3A68D" width="3.238" height="3.239"/>
		<rect x="669.132" y="295.003" fill="#F3A68D" width="3.238" height="3.239"/>
		<rect x="710.246" y="349.646" fill="#F3A68D" width="3.239" height="3.24"/>
		<rect x="710.246" y="349.646" fill="#F3A68D" width="3.239" height="3.24"/>
		<rect x="750.964" y="335.455" fill="#F3A68D" width="3.239" height="3.24"/>
		<rect x="750.964" y="335.455" fill="#F3A68D" width="3.239" height="3.24"/>
		<rect x="760.646" y="351.768" fill="#F3A68D" width="3.24" height="3.24"/>
		<rect x="760.646" y="351.768" fill="#F3A68D" width="3.24" height="3.24"/>
		<rect x="710.246" y="369.408" fill="#F3A68D" width="3.239" height="3.24"/>
		<rect x="710.246" y="369.408" fill="#F3A68D" width="3.239" height="3.24"/>
		<rect x="644.992" y="295.003" fill="#F3A68D" width="3.239" height="3.239"/>
		<rect x="644.992" y="295.003" fill="#F3A68D" width="3.239" height="3.239"/>
		<rect x="706.268" y="220.598" fill="#F3A68D" width="3.24" height="3.239"/>
		<rect x="706.268" y="220.598" fill="#F3A68D" width="3.24" height="3.239"/>
		<rect x="764.758" y="280.812" fill="#F3A68D" width="3.238" height="3.239"/>
		<rect x="764.758" y="280.812" fill="#F3A68D" width="3.238" height="3.239"/>
		<rect x="741.281" y="288.504" fill="#F3A68D" width="3.239" height="3.24"/>
		<rect x="587.307" y="328.027" fill="#F3A68D" width="3.24" height="3.24"/>
		<rect x="587.307" y="159.854" fill="#F3A68D" width="3.24" height="3.24"/>
		<rect x="587.307" y="159.854" fill="#F3A68D" width="3.24" height="3.24"/>
		<rect x="611.844" y="159.854" fill="#F3A68D" width="3.238" height="3.24"/>
		<rect x="611.844" y="159.854" fill="#F3A68D" width="3.238" height="3.24"/>
		<rect x="611.844" y="366.757" fill="#F3A68D" width="3.238" height="3.239"/>
		<rect x="611.844" y="366.757" fill="#F3A68D" width="3.238" height="3.239"/>
		<rect x="590.49" y="366.757" fill="#F3A68D" width="3.239" height="3.239"/>
		<rect x="590.49" y="366.757" fill="#F3A68D" width="3.239" height="3.239"/>
		<rect x="587.307" y="328.027" fill="#F3A68D" width="3.24" height="3.24"/>
		<rect x="596.325" y="333.332" fill="#F3A68D" width="3.239" height="3.24"/>
		<rect x="547.119" y="369.408" fill="#F3A68D" width="3.24" height="3.24"/>
		<rect x="547.119" y="369.408" fill="#F3A68D" width="3.24" height="3.24"/>
		<rect x="491.415" y="298.982" fill="#F3A68D" width="3.24" height="3.24"/>
		<rect x="491.415" y="298.982" fill="#F3A68D" width="3.24" height="3.24"/>
		<rect x="547.386" y="220.598" fill="#F3A68D" width="3.239" height="3.239"/>
		<rect x="547.386" y="220.598" fill="#F3A68D" width="3.239" height="3.239"/>
		<rect x="595.265" y="252.031" fill="#F3A68D" width="3.24" height="3.24"/>
		<rect x="595.265" y="252.031" fill="#F3A68D" width="3.24" height="3.24"/>
		<rect x="587.307" y="261.447" fill="#F3A68D" width="3.24" height="3.24"/>
		<rect x="587.307" y="261.447" fill="#F3A68D" width="3.24" height="3.24"/>
		<rect x="553.486" y="241.023" fill="#F3A68D" width="3.24" height="3.24"/>
		<rect x="553.486" y="241.023" fill="#F3A68D" width="3.24" height="3.24"/>
		<rect x="515.951" y="298.982" fill="#F3A68D" width="3.24" height="3.24"/>
		<rect x="515.951" y="298.982" fill="#F3A68D" width="3.24" height="3.24"/>
		<rect x="553.222" y="348.982" fill="#F3A68D" width="3.239" height="3.24"/>
		<rect x="553.222" y="348.982" fill="#F3A68D" width="3.239" height="3.24"/>
		<rect x="587.307" y="328.027" fill="#F3A68D" width="3.24" height="3.24"/>
		<rect x="587.307" y="328.027" fill="#F3A68D" width="3.24" height="3.24"/>
		<rect x="611.991" y="328.027" fill="#F3A68D" width="3.24" height="3.24"/>
		<rect x="596.325" y="333.332" fill="#F3A68D" width="3.239" height="3.24"/>
		<rect x="440.759" y="295.268" fill="#F3A68D" width="3.239" height="3.24"/>
		<rect x="400.97" y="240.492" fill="#F3A68D" width="3.24" height="3.24"/>
		<rect x="400.97" y="240.492" fill="#F3A68D" width="3.24" height="3.24"/>
		<rect x="361.712" y="295.268" fill="#F3A68D" width="3.239" height="3.24"/>
		<rect x="361.712" y="295.268" fill="#F3A68D" width="3.239" height="3.24"/>
		<rect x="401.236" y="349.646" fill="#F3A68D" width="3.239" height="3.24"/>
		<rect x="401.236" y="349.646" fill="#F3A68D" width="3.239" height="3.24"/>
		<rect x="440.759" y="295.268" fill="#F3A68D" width="3.239" height="3.24"/>
		<rect x="465.295" y="295.268" fill="#F3A68D" width="3.239" height="3.24"/>
		<rect x="401.236" y="369.408" fill="#F3A68D" width="3.239" height="3.24"/>
		<rect x="401.236" y="369.408" fill="#F3A68D" width="3.239" height="3.24"/>
		<rect x="337.043" y="295.268" fill="#F3A68D" width="3.239" height="3.24"/>
		<rect x="337.043" y="295.268" fill="#F3A68D" width="3.239" height="3.24"/>
		<rect x="400.97" y="220.598" fill="#F3A68D" width="3.24" height="3.239"/>
		<rect x="400.97" y="220.598" fill="#F3A68D" width="3.24" height="3.239"/>
		<rect x="465.295" y="295.268" fill="#F3A68D" width="3.239" height="3.24"/>
		<rect x="207.206" y="257.336" fill="#F3A68D" width="3.238" height="3.24"/>
		<rect x="256.81" y="220.598" fill="#F3A68D" width="3.239" height="3.239"/>
		<rect x="256.81" y="220.598" fill="#F3A68D" width="3.239" height="3.239"/>
		<rect x="305.219" y="276.17" fill="#F3A68D" width="3.24" height="3.24"/>
		<rect x="305.219" y="276.17" fill="#F3A68D" width="3.24" height="3.24"/>
		<rect x="305.219" y="366.757" fill="#F3A68D" width="3.24" height="3.239"/>
		<rect x="305.219" y="366.757" fill="#F3A68D" width="3.24" height="3.239"/>
		<rect x="280.55" y="366.757" fill="#F3A68D" width="3.24" height="3.239"/>
		<rect x="280.55" y="366.757" fill="#F3A68D" width="3.24" height="3.239"/>
		<rect x="280.55" y="276.701" fill="#F3A68D" width="3.24" height="3.239"/>
		<rect x="280.55" y="276.701" fill="#F3A68D" width="3.24" height="3.239"/>
		<rect x="249.515" y="241.023" fill="#F3A68D" width="3.24" height="3.24"/>
		<rect x="249.515" y="241.023" fill="#F3A68D" width="3.24" height="3.24"/>
		<rect x="214.368" y="263.438" fill="#F3A68D" width="3.238" height="3.24"/>
		<rect x="214.368" y="263.438" fill="#F3A68D" width="3.238" height="3.24"/>
		<rect x="207.206" y="257.336" fill="#F3A68D" width="3.238" height="3.24"/>
		<rect x="214.368" y="254.021" fill="#F3A68D" width="3.238" height="3.237"/>
		<rect x="214.368" y="366.757" fill="#F3A68D" width="3.238" height="3.239"/>
		<rect x="214.368" y="366.757" fill="#F3A68D" width="3.238" height="3.239"/>
		<rect x="189.699" y="366.757" fill="#F3A68D" width="3.238" height="3.239"/>
		<rect x="189.699" y="366.757" fill="#F3A68D" width="3.238" height="3.239"/>
		<rect x="189.699" y="254.021" fill="#F3A68D" width="3.238" height="3.237"/>
		<rect x="189.699" y="254.021" fill="#F3A68D" width="3.238" height="3.237"/>
		<rect x="189.699" y="223.25" fill="#F3A68D" width="3.238" height="3.24"/>
		<rect x="189.699" y="223.25" fill="#F3A68D" width="3.238" height="3.24"/>
		<rect x="211.848" y="223.25" fill="#F3A68D" width="3.24" height="3.24"/>
		<rect x="211.848" y="223.25" fill="#F3A68D" width="3.24" height="3.24"/>
		<rect x="214.368" y="254.021" fill="#F3A68D" width="3.238" height="3.237"/>
		<rect x="129.492" y="366.757" fill="#F3A68D" width="3.239" height="3.239"/>
		<rect x="126.574" y="337.843" fill="#F3A68D" width="3.239" height="3.239"/>
		<rect x="126.574" y="337.843" fill="#F3A68D" width="3.239" height="3.239"/>
		<rect x="126.574" y="268.344" fill="#F3A68D" width="3.239" height="3.239"/>
		<rect x="126.574" y="268.344" fill="#F3A68D" width="3.239" height="3.239"/>
		<rect x="95.406" y="240.492" fill="#F3A68D" width="3.24" height="3.24"/>
		<rect x="95.406" y="240.492" fill="#F3A68D" width="3.24" height="3.24"/>
		<rect x="64.371" y="263.039" fill="#F3A68D" width="3.239" height="3.24"/>
		<rect x="64.371" y="263.039" fill="#F3A68D" width="3.239" height="3.24"/>
		<rect x="39.835" y="263.039" fill="#F3A68D" width="3.24" height="3.24"/>
		<rect x="39.835" y="263.039" fill="#F3A68D" width="3.24" height="3.24"/>
		<rect x="96.733" y="220.598" fill="#F3A68D" width="3.239" height="3.239"/>
		<rect x="96.733" y="220.598" fill="#F3A68D" width="3.239" height="3.239"/>
		<rect x="151.111" y="268.609" fill="#F3A68D" width="3.239" height="3.24"/>
		<rect x="151.111" y="268.609" fill="#F3A68D" width="3.239" height="3.24"/>
		<rect x="151.111" y="337.843" fill="#F3A68D" width="3.239" height="3.239"/>
		<rect x="151.111" y="337.843" fill="#F3A68D" width="3.239" height="3.239"/>
		<rect x="154.824" y="366.757" fill="#F3A68D" width="3.239" height="3.239"/>
		<rect x="154.824" y="366.757" fill="#F3A68D" width="3.239" height="3.239"/>
		<rect x="129.492" y="366.757" fill="#F3A68D" width="3.239" height="3.239"/>
		<rect x="137.45" y="331.477" fill="#F3A68D" width="3.239" height="3.24"/>
		<rect x="82.409" y="369.408" fill="#F3A68D" width="3.238" height="3.24"/>
		<rect x="82.409" y="369.408" fill="#F3A68D" width="3.238" height="3.24"/>
		<rect x="36.784" y="326.701" fill="#F3A68D" width="3.239" height="3.24"/>
		<rect x="36.784" y="326.701" fill="#F3A68D" width="3.239" height="3.24"/>
		<rect x="98.855" y="282.934" fill="#F3A68D" width="3.239" height="3.239"/>
		<rect x="98.855" y="282.934" fill="#F3A68D" width="3.239" height="3.239"/>
		<rect x="138.512" y="282.934" fill="#F3A68D" width="3.239" height="3.239"/>
		<rect x="138.512" y="282.934" fill="#F3A68D" width="3.239" height="3.239"/>
		<rect x="138.512" y="299.91" fill="#F3A68D" width="3.239" height="3.24"/>
		<rect x="138.512" y="299.91" fill="#F3A68D" width="3.239" height="3.24"/>
		<rect x="98.06" y="299.91" fill="#F3A68D" width="3.239" height="3.24"/>
		<rect x="98.06" y="299.91" fill="#F3A68D" width="3.239" height="3.24"/>
		<rect x="61.321" y="327.232" fill="#F3A68D" width="3.239" height="3.24"/>
		<rect x="61.321" y="327.232" fill="#F3A68D" width="3.239" height="3.24"/>
		<rect x="85.99" y="348.32" fill="#F3A68D" width="3.238" height="3.24"/>
		<rect x="85.99" y="348.32" fill="#F3A68D" width="3.238" height="3.24"/>
		<rect x="133.339" y="316.887" fill="#F3A68D" width="3.239" height="3.24"/>
		<rect x="133.339" y="316.887" fill="#F3A68D" width="3.239" height="3.24"/>
		<rect x="137.45" y="331.477" fill="#F3A68D" width="3.239" height="3.24"/>
	</g>
	<g>
		
			<line opacity="0.5" fill="none" stroke="#F3ECE9" stroke-miterlimit="10" enable-background="new    " x1="766.854" y1="292.373" x2="659.35" y2="292.373"/>
		<path opacity="0.5" fill="none" stroke="#F3ECE9" stroke-miterlimit="10" enable-background="new    " d="M755.321,286.421
			c0-16.042-6.503-54.681-47.241-54.681c-40.737,0-48.729,37.592-48.729,64.353c0,26.762,12.338,65.098,52.822,65.098
			c26.94,0,39.041-11.259,45.01-15.995"/>
		<path opacity="0.5" fill="none" stroke="#F3ECE9" stroke-miterlimit="10" enable-background="new    " d="M454.607,296.926
			c0-38.787-17.193-64.854-52.1-64.854c-34.56,0-51.404,26.067-51.404,64.854c0,39.102,16.672,64.383,51.752,64.383
			C437.066,361.308,454.607,336.497,454.607,296.926z"/>
		<path opacity="0.5" fill="none" stroke="#F3ECE9" stroke-miterlimit="10" enable-background="new    " d="M592.793,258.386
			c-7.672-15.604-23.891-26.315-40.453-26.315c-31.776,0-47.267,26.067-47.267,64.854c0,39.102,15.329,64.383,47.586,64.383
			c20.01,0,33.529-11.375,40.93-28.865"/>
		<path opacity="0.5" fill="none" stroke="#F3ECE9" stroke-miterlimit="10" enable-background="new    " d="M212.713,261.374
			c8.776-14.624,23.422-29.424,42.32-29.424c18.896,0,39.9,8.757,39.9,45.947s0,90.576,0,90.576"/>
		<path opacity="0.5" fill="none" stroke="#F3ECE9" stroke-miterlimit="10" enable-background="new    " d="M53.441,264.68
			c0-18.785,18.468-33.066,44.396-33.066s42.47,18.934,42.47,38.67s0,56.914,0,69.104c0,12.189,0.303,21.471,3.457,29.087"/>
		<path opacity="0.5" fill="none" stroke="#F3ECE9" stroke-miterlimit="10" enable-background="new    " d="M140.295,292.756
			c0,0-21.421,0.193-40.221,0.193c-18.801,0-49.395,9.813-49.395,35.311s14.099,32.561,34.604,32.561s39.881-15.761,51.438-34.292"
			/>
		<polyline opacity="0.5" fill="none" stroke="#F3ECE9" stroke-miterlimit="10" enable-background="new    " points="
			201.83,224.695 203.443,256.134 203.443,368.474 		"/>
		<polyline opacity="0.5" fill="none" stroke="#F3ECE9" stroke-miterlimit="10" enable-background="new    " points="
			601.057,161.417 601.057,329.586 603.456,368.181 		"/>
	</g>
	<g>
		<circle fill="#E84E1B" cx="97.837" cy="231.613" r="2.755"/>
		<circle fill="#E84E1B" cx="53.441" cy="264.68" r="2.756"/>
		<circle fill="#E84E1B" cx="140.307" cy="270.283" r="2.755"/>
		<circle fill="#E84E1B" cx="141.008" cy="339.387" r="2.756"/>
		<circle fill="#E84E1B" cx="136.721" cy="326.527" r="2.755"/>
		<circle fill="#E84E1B" cx="140.295" cy="292.756" r="2.755"/>
		<circle fill="#E84E1B" cx="100.074" cy="292.949" r="2.756"/>
		<circle fill="#E84E1B" cx="50.681" cy="328.26" r="2.755"/>
		<circle fill="#E84E1B" cx="143.763" cy="368.474" r="2.755"/>
		<circle fill="#E84E1B" cx="203.443" cy="368.474" r="2.755"/>
		<circle fill="#E84E1B" cx="203.443" cy="256.134" r="2.755"/>
		<circle fill="#E84E1B" cx="212.713" cy="261.374" r="2.756"/>
		<circle fill="#E84E1B" cx="255.033" cy="231.95" r="2.755"/>
		<circle fill="#E84E1B" cx="294.935" cy="277.897" r="2.755"/>
		<circle fill="#E84E1B" cx="201.831" cy="224.695" r="2.755"/>
		<circle fill="#E84E1B" cx="295.029" cy="368.374" r="2.756"/>
		<circle fill="#E84E1B" cx="402.951" cy="361.329" r="2.756"/>
		<circle fill="#E84E1B" cx="551.676" cy="360.927" r="2.756"/>
		<circle fill="#E84E1B" cx="593.189" cy="332.31" r="2.756"/>
		<circle fill="#E84E1B" cx="603.456" cy="368.181" r="2.755"/>
		<circle fill="#E84E1B" cx="601.056" cy="161.417" r="2.755"/>
		<circle fill="#E84E1B" cx="708.079" cy="231.74" r="2.755"/>
		<circle fill="#E84E1B" cx="755.321" cy="286.421" r="2.755"/>
		<circle fill="#E84E1B" cx="766.853" cy="292.373" r="2.755"/>
		<circle fill="#E84E1B" cx="659.35" cy="292.373" r="2.756"/>
		<circle fill="#E84E1B" cx="659.35" cy="296.093" r="2.756"/>
		<circle fill="#E84E1B" cx="712.171" cy="361.189" r="2.755"/>
		<circle fill="#E84E1B" cx="757.181" cy="345.194" r="2.755"/>
		<circle fill="#E84E1B" cx="601.056" cy="329.585" r="2.755"/>
		<circle fill="#E84E1B" cx="402.951" cy="232.354" r="2.756"/>
		<circle fill="#E84E1B" cx="551.675" cy="232.354" r="2.755"/>
		<circle fill="#E84E1B" cx="593.323" cy="258.651" r="2.755"/>
		<circle fill="#E84E1B" cx="351.427" cy="296.841" r="2.755"/>
		<circle fill="#E84E1B" cx="454.607" cy="296.841" r="2.755"/>
		<circle fill="#E84E1B" cx="505.324" cy="300.469" r="2.755"/>
		<circle fill="#E84E1B" cx="85.284" cy="360.819" r="2.755"/>
	</g>
</g>
<g id="Parameters">
	
		<text transform="matrix(1.0001 1.000120e-05 0 1 59.2664 411.7791)" fill="#F3ECE9" font-family="'HelveticaNeue-Bold'" font-size="12">skeleton</text>
	
		<text transform="matrix(1.0001 1.000120e-05 0 1 107.4373 188.5471)" fill="#F3ECE9" font-family="'HelveticaNeue-Bold'" font-size="12">outlines</text>
	
		<line fill="#F3ECE9" stroke="#F3ECE9" stroke-width="0.5" stroke-miterlimit="10" x1="50.319" y1="330.88" x2="50.319" y2="411.613"/>
	
		<line fill="#F3ECE9" stroke="#F3ECE9" stroke-width="0.5" stroke-miterlimit="10" x1="98.454" y1="220.523" x2="98.454" y2="178.5"/>
</g>
<g id="Commentary" display="none">
</g>
<rect x="-357.5" y="166.5" fill="#F3ECE9" width="66" height="314"/>
</svg>
