<?xml version="1.0" encoding="utf-8"?>
<!-- Generator: Adobe Illustrator 16.0.0, SVG Export Plug-In . SVG Version: 6.00 Build 0)  -->
<!DOCTYPE svg PUBLIC "-//W3C//DTD SVG 1.1//EN" "http://www.w3.org/Graphics/SVG/1.1/DTD/svg11.dtd" [
	<!ENTITY ns_extend "http://ns.adobe.com/Extensibility/1.0/">
	<!ENTITY ns_ai "http://ns.adobe.com/AdobeIllustrator/10.0/">
	<!ENTITY ns_graphs "http://ns.adobe.com/Graphs/1.0/">
	<!ENTITY ns_vars "http://ns.adobe.com/Variables/1.0/">
	<!ENTITY ns_imrep "http://ns.adobe.com/ImageReplacement/1.0/">
	<!ENTITY ns_sfw "http://ns.adobe.com/SaveForWeb/1.0/">
	<!ENTITY ns_custom "http://ns.adobe.com/GenericCustomNamespace/1.0/">
	<!ENTITY ns_adobe_xpath "http://ns.adobe.com/XPath/1.0/">
]>
<svg version="1.1" id="Layer_1" xmlns:x="&ns_extend;" xmlns:i="&ns_ai;" xmlns:graph="&ns_graphs;"
	 xmlns="http://www.w3.org/2000/svg" xmlns:xlink="http://www.w3.org/1999/xlink" x="0px" y="0px" width="800px" height="600px"
	 viewBox="0 0 800 600" enable-background="new 0 0 800 600" xml:space="preserve">
<metadata>
	<sfw  xmlns="&ns_sfw;">
		<slices></slices>
		<sliceSourceBounds  y="-2307.479" x="-3633.604" bottomLeftOrigin="true" height="2904.979" width="4423.711">
			</sliceSourceBounds>
	</sfw>
</metadata>
<g id="BG" display="none">
	<rect x="-3654.103" y="0" display="inline" fill="#5D5D5D" width="4293.121" height="2904.979"/>
</g>
<g id="Outline_Text">
</g>
<g id="Live_Text">
	<g>
		<path fill="none" stroke="#F3ECE9" stroke-width="1.5" stroke-linecap="round" stroke-linejoin="round" d="M139.07,333.096
			c-13.396,23.343-33.818,37.932-55.041,37.932c-30.238,0-45.625-15.648-45.625-42.707c0-27.983,23.213-43.768,62.07-43.768h39.656
			v16.977H99.68c-22.812,0-36.738,12.334-36.738,27.322c0,13.263,8.225,21.088,24.668,21.088c22.282,0,34.086-10.743,47.352-31.433
			L139.07,333.096z M131.112,368.375c-1.724-7.69-2.918-19.099-2.918-28.911v-69.5c0-17.507-11.141-27.852-31.168-27.852
			c-18.565,0-31.033,9.947-31.033,22.547H41.455c0-22.147,23.077-42.44,56.896-42.44c33.023,0,54.377,16.578,54.377,48.013v69.232
			c0,10.212,0.931,19.362,3.714,28.911H131.112L131.112,368.375z"/>
		<path fill="none" stroke="#F3ECE9" stroke-width="1.5" stroke-linecap="round" stroke-linejoin="round" d="M215.988,255.641
			v112.735h-24.67V255.641V224.87h22.149L215.988,255.641z M208.826,258.956c11.804-28.382,32.492-36.738,49.604-36.738
			c31.3,0,48.409,16.846,48.409,55.572v90.588H282.17V278.32c0-26.394-9.684-35.677-31.035-35.677
			c-16.977,0-29.709,9.945-35.146,22.414L208.826,258.956z"/>
		<path fill="none" stroke="#F3ECE9" stroke-width="1.5" stroke-linecap="round" stroke-linejoin="round" d="M466.913,296.888
			c0,45.227-23.606,74.14-64.06,74.14c-40.585,0-64.191-28.913-64.191-74.14c0-45.359,23.739-74.67,63.928-74.67
			C442.907,222.219,466.913,250.999,466.913,296.888z M442.379,296.888c0-32.761-13.133-54.776-39.789-54.776
			c-26.395,0-39.258,22.017-39.258,54.776c0,33.023,12.73,54.378,39.521,54.378C428.982,351.266,442.379,330.311,442.379,296.888z"
			/>
		<path fill="none" stroke="#F3ECE9" stroke-width="1.5" stroke-linecap="round" stroke-linejoin="round" d="M597.945,334.953
			c-10.212,25.067-26.523,36.075-49.205,36.075c-35.545,0-55.705-25.995-55.705-70.426c0-48.277,19.365-78.384,55.973-78.384
			c21.616,0,35.146,8.619,47.879,31.433l-7.958,9.417c-7.029-12.732-17.772-20.425-33.82-20.425
			c-25.995,0-37.534,21.751-37.534,57.959c0,31.698,11.143,50.001,37.271,50.001c16.578,0,26.791-7.56,34.085-20.955
			L597.945,334.953z M588.927,329.648V161.474h24.536v206.902h-21.354L588.927,329.648z"/>
		<path fill="none" stroke="#F3ECE9" stroke-width="1.5" stroke-linecap="round" stroke-linejoin="round" d="M742.902,290.124
			c0-27.587-6.896-48.012-35.015-48.012c-21.088,0-37.138,22.017-37.138,54.511c0,35.679,14.723,54.645,41.115,54.645
			c17.904,0,30.238-5.172,40.717-14.191l9.684,16.313c-10.479,10.213-26.395,17.64-50.398,17.64
			c-40.585,0-65.254-27.32-65.254-74.405c0-45.357,26.924-74.404,61.274-74.404c38.858,0,58.487,24.271,58.487,60.215
			L742.902,290.124z M766.377,302.193H659.346v-19.762h107.031V302.193z"/>
	</g>
</g>
<g id="Anchors">
	<g>
		
			<line opacity="0.5" fill="none" stroke="#F3ECE9" stroke-miterlimit="10" enable-background="new    " x1="766.854" y1="292.373" x2="659.35" y2="292.373"/>
		<path opacity="0.5" fill="none" stroke="#F3ECE9" stroke-miterlimit="10" enable-background="new    " d="M755.321,286.421
			c0-16.042-6.503-54.681-47.241-54.681c-40.736,0-48.729,37.592-48.729,64.353c0,26.763,12.338,65.099,52.822,65.099
			c26.939,0,39.041-11.259,45.01-15.995"/>
		<path opacity="0.5" fill="none" stroke="#F3ECE9" stroke-miterlimit="10" enable-background="new    " d="M454.607,296.926
			c0-38.786-17.193-64.854-52.1-64.854c-34.561,0-51.404,26.067-51.404,64.854c0,39.103,16.672,64.384,51.752,64.384
			C437.066,361.308,454.607,336.497,454.607,296.926z"/>
		<path opacity="0.5" fill="none" stroke="#F3ECE9" stroke-miterlimit="10" enable-background="new    " d="M592.793,258.386
			c-7.673-15.604-23.892-26.315-40.453-26.315c-31.776,0-47.268,26.067-47.268,64.854c0,39.103,15.329,64.384,47.586,64.384
			c20.01,0,33.529-11.375,40.931-28.865"/>
		<path opacity="0.5" fill="none" stroke="#F3ECE9" stroke-miterlimit="10" enable-background="new    " d="M212.713,261.374
			c8.775-14.624,23.422-29.424,42.32-29.424c18.896,0,39.898,8.757,39.898,45.947s0,90.576,0,90.576"/>
		<path opacity="0.5" fill="none" stroke="#F3ECE9" stroke-miterlimit="10" enable-background="new    " d="M53.441,264.68
			c0-18.785,18.469-33.066,44.396-33.066s42.47,18.934,42.47,38.67s0,56.914,0,69.104c0,12.188,0.303,21.471,3.457,29.087"/>
		<path opacity="0.5" fill="none" stroke="#F3ECE9" stroke-miterlimit="10" enable-background="new    " d="M140.295,292.756
			c0,0-21.421,0.193-40.221,0.193c-18.802,0-49.396,9.813-49.396,35.312s14.099,32.561,34.604,32.561
			c20.505,0,39.881-15.761,51.438-34.292"/>
		<polyline opacity="0.5" fill="none" stroke="#F3ECE9" stroke-miterlimit="10" enable-background="new    " points="
			201.83,224.695 203.443,256.134 203.443,368.474 		"/>
		<polyline opacity="0.5" fill="none" stroke="#F3ECE9" stroke-miterlimit="10" enable-background="new    " points="
			601.057,161.417 601.057,329.587 603.455,368.181 		"/>
	</g>
	<g>
		<circle fill="#E84E1B" cx="97.837" cy="231.613" r="2.755"/>
		<circle fill="#E84E1B" cx="53.441" cy="264.68" r="2.756"/>
		<circle fill="#E84E1B" cx="140.307" cy="270.283" r="2.755"/>
		<circle fill="#E84E1B" cx="141.008" cy="339.387" r="2.756"/>
		<circle fill="#E84E1B" cx="136.721" cy="326.527" r="2.755"/>
		<circle fill="#E84E1B" cx="140.295" cy="292.756" r="2.755"/>
		<circle fill="#E84E1B" cx="100.074" cy="292.949" r="2.756"/>
		<circle fill="#E84E1B" cx="50.681" cy="328.26" r="2.755"/>
		<circle fill="#E84E1B" cx="143.763" cy="368.474" r="2.755"/>
		<circle fill="#E84E1B" cx="203.443" cy="368.474" r="2.755"/>
		<circle fill="#E84E1B" cx="203.443" cy="256.134" r="2.755"/>
		<circle fill="#E84E1B" cx="212.713" cy="261.374" r="2.756"/>
		<circle fill="#E84E1B" cx="255.033" cy="231.95" r="2.755"/>
		<circle fill="#E84E1B" cx="294.935" cy="277.897" r="2.755"/>
		<circle fill="#E84E1B" cx="201.831" cy="224.695" r="2.755"/>
		<circle fill="#E84E1B" cx="295.029" cy="368.374" r="2.756"/>
		<circle fill="#E84E1B" cx="402.951" cy="361.329" r="2.756"/>
		<circle fill="#E84E1B" cx="551.676" cy="360.927" r="2.756"/>
		<circle fill="#E84E1B" cx="593.189" cy="332.31" r="2.756"/>
		<circle fill="#E84E1B" cx="603.455" cy="368.181" r="2.755"/>
		<circle fill="#E84E1B" cx="601.056" cy="161.417" r="2.755"/>
		<circle fill="#E84E1B" cx="708.078" cy="231.74" r="2.756"/>
		<circle fill="#E84E1B" cx="755.321" cy="286.421" r="2.755"/>
		<circle fill="#E84E1B" cx="766.853" cy="292.373" r="2.755"/>
		<circle fill="#E84E1B" cx="659.35" cy="292.373" r="2.756"/>
		<circle fill="#E84E1B" cx="659.35" cy="296.093" r="2.756"/>
		<circle fill="#E84E1B" cx="712.171" cy="361.189" r="2.755"/>
		<circle fill="#E84E1B" cx="757.181" cy="345.194" r="2.755"/>
		<circle fill="#E84E1B" cx="601.056" cy="329.585" r="2.755"/>
		<circle fill="#E84E1B" cx="402.951" cy="232.354" r="2.756"/>
		<circle fill="#E84E1B" cx="551.675" cy="232.354" r="2.755"/>
		<circle fill="#E84E1B" cx="593.323" cy="258.651" r="2.755"/>
		<circle fill="#E84E1B" cx="351.427" cy="296.841" r="2.755"/>
		<circle fill="#E84E1B" cx="454.607" cy="296.841" r="2.755"/>
		<circle fill="#E84E1B" cx="505.323" cy="300.469" r="2.755"/>
		<circle fill="#E84E1B" cx="85.284" cy="360.819" r="2.755"/>
	</g>
</g>
<g id="Parameters">
	<g>
		<g>
			<path fill="#FFFFFF" d="M759.022,255.971c0,1.1-0.899,2-2,2h-23.415c-1.1,0-2-0.9-2-2v-6.349c0-1.1,0.9-2,2-2h23.415
				c1.101,0,2,0.9,2,2V255.971z"/>
		</g>
		<text transform="matrix(1 0 0 1 734.2034 255.115)" fill="#1D1D1A" font-family="'HelveticaNeue-Bold'" font-size="6">tension</text>
		<g>
			<path fill="#FFFFFF" d="M685.176,255.971c0,1.1-0.9,2-2,2h-23.414c-1.102,0-2-0.9-2-2v-6.349c0-1.1,0.898-2,2-2h23.414
				c1.1,0,2,0.9,2,2V255.971z"/>
		</g>
		<text transform="matrix(1 0 0 1 660.3577 255.115)" fill="#1D1D1A" font-family="'HelveticaNeue-Bold'" font-size="6">tension</text>
		<g>
			<path fill="#FFFFFF" d="M685.945,339.817c0,1.102-0.898,2-2,2h-23.414c-1.1,0-2-0.898-2-2v-6.347c0-1.102,0.9-2,2-2h23.414
				c1.102,0,2,0.898,2,2V339.817z"/>
		</g>
		<text transform="matrix(1 0 0 1 661.1272 338.9607)" fill="#1D1D1A" font-family="'HelveticaNeue-Bold'" font-size="6">tension</text>
		<g>
			<path fill="#FFFFFF" d="M752.1,357.51c0,1.1-0.9,2-2,2h-23.414c-1.1,0-2-0.9-2-2v-6.348c0-1.1,0.9-2,2-2H750.1c1.1,0,2,0.9,2,2
				V357.51z"/>
		</g>
		<text transform="matrix(1 0 0 1 727.2815 356.6531)" fill="#1D1D1A" font-family="'HelveticaNeue-Bold'" font-size="6">tension</text>
		<g>
			<path fill="#FFFFFF" d="M593.398,354.189c0,1.1-0.896,2-2,2h-23.414c-1.1,0-2-0.9-2-2v-6.346c0-1.102,0.9-2,2-2h23.414
				c1.104,0,2,0.898,2,2V354.189z"/>
		</g>
		<text transform="matrix(1 0 0 1 568.5803 353.3337)" fill="#1D1D1A" font-family="'HelveticaNeue-Bold'" font-size="6">tension</text>
		<g>
			<path fill="#FFFFFF" d="M528.398,338.035c0,1.102-0.896,2-2,2h-23.414c-1.1,0-2-0.898-2-2v-6.347c0-1.1,0.9-2,2-2h23.414
				c1.104,0,2,0.9,2,2V338.035z"/>
		</g>
		<text transform="matrix(1 0 0 1 503.5803 337.1794)" fill="#1D1D1A" font-family="'HelveticaNeue-Bold'" font-size="6">tension</text>
		<g>
			<path fill="#FFFFFF" d="M528.398,259.574c0,1.1-0.896,2-2,2h-23.414c-1.1,0-2-0.9-2-2v-6.347c0-1.102,0.9-2,2-2h23.414
				c1.104,0,2,0.898,2,2V259.574z"/>
		</g>
		<text transform="matrix(1 0 0 1 503.5803 258.7185)" fill="#1D1D1A" font-family="'HelveticaNeue-Bold'" font-size="6">tension</text>
		<g>
			<path fill="#FFFFFF" d="M73.4,310.344c0,1.1-0.898,2-2,2H47.985c-1.101,0-2-0.9-2-2v-6.349c0-1.1,0.899-2,2-2H71.4
				c1.102,0,2,0.9,2,2V310.344z"/>
		</g>
		<text transform="matrix(1 0 0 1 48.5818 309.488)" fill="#1D1D1A" font-family="'HelveticaNeue-Bold'" font-size="6">tension</text>
		<g>
			<path fill="#FFFFFF" d="M73.4,354.962c0,1.1-0.898,2-2,2H47.985c-1.101,0-2-0.9-2-2v-6.349c0-1.1,0.899-2,2-2H71.4
				c1.102,0,2,0.9,2,2V354.962z"/>
		</g>
		<text transform="matrix(1 0 0 1 48.5818 354.1033)" fill="#1D1D1A" font-family="'HelveticaNeue-Bold'" font-size="6">tension</text>
		<g>
			<path fill="#FFFFFF" d="M128.016,354.962c0,1.1-0.898,2-2,2h-23.415c-1.101,0-2-0.9-2-2v-6.349c0-1.1,0.899-2,2-2h23.415
				c1.102,0,2,0.9,2,2V354.962z"/>
		</g>
		<text transform="matrix(1 0 0 1 103.1965 354.1033)" fill="#1D1D1A" font-family="'HelveticaNeue-Bold'" font-size="6">tension</text>
		<g>
			<path fill="#FFFFFF" d="M459.938,338.035c0,1.102-0.9,2-2,2h-23.414c-1.1,0-2-0.898-2-2v-6.347c0-1.1,0.9-2,2-2h23.414
				c1.1,0,2,0.9,2,2V338.035z"/>
		</g>
		<text transform="matrix(1 0 0 1 435.1194 337.1794)" fill="#1D1D1A" font-family="'HelveticaNeue-Bold'" font-size="6">tension</text>
		<g>
			<path fill="#FFFFFF" d="M459.938,259.574c0,1.1-0.9,2-2,2h-23.414c-1.1,0-2-0.9-2-2v-6.347c0-1.102,0.9-2,2-2h23.414
				c1.1,0,2,0.898,2,2V259.574z"/>
		</g>
		<text transform="matrix(1 0 0 1 435.1194 258.7185)" fill="#1D1D1A" font-family="'HelveticaNeue-Bold'" font-size="6">tension</text>
		<g>
			<path fill="#FFFFFF" d="M373.783,338.035c0,1.102-0.898,2-2,2h-23.414c-1.102,0-2-0.898-2-2v-6.347c0-1.1,0.898-2,2-2h23.414
				c1.102,0,2,0.9,2,2V338.035z"/>
		</g>
		<text transform="matrix(1 0 0 1 348.9656 337.1794)" fill="#1D1D1A" font-family="'HelveticaNeue-Bold'" font-size="6">tension</text>
		<g>
			<path fill="#FFFFFF" d="M373.783,259.574c0,1.1-0.898,2-2,2h-23.414c-1.102,0-2-0.9-2-2v-6.347c0-1.102,0.898-2,2-2h23.414
				c1.102,0,2,0.898,2,2V259.574z"/>
		</g>
		<text transform="matrix(1 0 0 1 348.9656 258.7185)" fill="#1D1D1A" font-family="'HelveticaNeue-Bold'" font-size="6">tension</text>
		<g>
			<path fill="#FFFFFF" d="M591.477,244.959c0,1.102-0.9,2-2,2h-23.415c-1.101,0-2-0.898-2-2v-6.347c0-1.1,0.899-2,2-2h23.415
				c1.1,0,2,0.9,2,2V244.959z"/>
		</g>
		<text transform="matrix(1 0 0 1 566.6584 244.1023)" fill="#1D1D1A" font-family="'HelveticaNeue-Bold'" font-size="6">tension</text>
		<g>
			<path fill="#FFFFFF" d="M301.092,244.959c0,1.102-0.9,2-2,2h-23.414c-1.1,0-2-0.898-2-2v-6.347c0-1.1,0.9-2,2-2h23.414
				c1.1,0,2,0.9,2,2V244.959z"/>
		</g>
		<text transform="matrix(1 0 0 1 276.2742 244.1023)" fill="#1D1D1A" font-family="'HelveticaNeue-Bold'" font-size="6">tension</text>
		<g>
			<path fill="#FFFFFF" d="M246.477,244.959c0,1.102-0.898,2-2,2h-23.414c-1.1,0-2-0.898-2-2v-6.347c0-1.1,0.9-2,2-2h23.414
				c1.102,0,2,0.9,2,2V244.959z"/>
		</g>
		<text transform="matrix(1 0 0 1 221.658 244.1023)" fill="#1D1D1A" font-family="'HelveticaNeue-Bold'" font-size="6">tension</text>
		<g>
			<path fill="#FFFFFF" d="M138.785,244.959c0,1.102-0.9,2-2,2H113.37c-1.103,0-2-0.898-2-2v-6.347c0-1.1,0.897-2,2-2h23.415
				c1.1,0,2,0.9,2,2V244.959z"/>
		</g>
		<text transform="matrix(1 0 0 1 113.9666 244.1023)" fill="#1D1D1A" font-family="'HelveticaNeue-Bold'" font-size="6">tension</text>
		<g>
			<path fill="#FFFFFF" d="M84.169,244.959c0,1.102-0.899,2-2,2H58.754c-1.102,0-2-0.898-2-2v-6.347c0-1.1,0.898-2,2-2h23.415
				c1.101,0,2,0.9,2,2V244.959z"/>
		</g>
		<text transform="matrix(1 0 0 1 59.3499 244.1023)" fill="#1D1D1A" font-family="'HelveticaNeue-Bold'" font-size="6">tension</text>
		<g>
			<path fill="#FFFFFF" d="M769.418,279.831c0,1.102-0.9,2-2,2h-25.094c-1.1,0-2-0.898-2-2v-6.347c0-1.102,0.9-2,2-2h25.094
				c1.1,0,2,0.898,2,2V279.831z"/>
		</g>
		<text transform="matrix(1 0 0 1 746.5432 278.9744)" fill="#1D1D1A" font-family="'HelveticaNeue-Bold'" font-size="6">angle</text>
		<g>
			<path fill="#FFFFFF" d="M67.545,276.831c0,1.102-0.9,2-2,2H40.453c-1.102,0-2-0.898-2-2v-6.347c0-1.102,0.898-2,2-2h25.092
				c1.1,0,2,0.898,2,2V276.831z"/>
		</g>
		<text transform="matrix(1 0 0 1 44.6711 275.9744)" fill="#1D1D1A" font-family="'HelveticaNeue-Bold'" font-size="6">angle</text>
		<g>
			<path fill="#FFFFFF" d="M274.221,212.971c0,1.1-0.9,2-2,2h-28.865c-1.1,0-2-0.9-2-2v-6.348c0-1.1,0.9-2,2-2h28.865
				c1.1,0,2,0.9,2,2V212.971z"/>
		</g>
		<text transform="matrix(1 0 0 1 242.7122 212.115)" fill="#1D1D1A" font-family="'HelveticaNeue-Bold'" font-size="6">overshoot</text>
		<g>
			<path fill="#FFFFFF" d="M114.27,212.971c0,1.1-0.898,2-2,2H83.404c-1.1,0-2-0.9-2-2v-6.348c0-1.1,0.9-2,2-2h28.865
				c1.102,0,2,0.9,2,2L114.27,212.971L114.27,212.971z"/>
		</g>
		<text transform="matrix(1 0 0 1 82.7615 212.115)" fill="#1D1D1A" font-family="'HelveticaNeue-Bold'" font-size="6">overshoot</text>
		<g>
			<path fill="#FFFFFF" d="M419.288,212.971c0,1.1-0.899,2-2,2h-28.866c-1.102,0-2-0.9-2-2v-6.348c0-1.1,0.898-2,2-2h28.866
				c1.101,0,2,0.9,2,2V212.971z"/>
		</g>
		<text transform="matrix(1 0 0 1 387.7795 212.115)" fill="#1D1D1A" font-family="'HelveticaNeue-Bold'" font-size="6">overshoot</text>
		<g>
			<path fill="#FFFFFF" d="M568.107,212.971c0,1.1-0.9,2-2,2h-28.865c-1.1,0-2-0.9-2-2v-6.348c0-1.1,0.9-2,2-2h28.865
				c1.1,0,2,0.9,2,2V212.971z"/>
		</g>
		<text transform="matrix(1 0 0 1 536.5999 212.115)" fill="#1D1D1A" font-family="'HelveticaNeue-Bold'" font-size="6">overshoot</text>
		<g>
			<path fill="#FFFFFF" d="M724.512,212.971c0,1.1-0.9,2-2,2h-28.865c-1.1,0-2-0.9-2-2v-6.348c0-1.1,0.9-2,2-2h28.865
				c1.1,0,2,0.9,2,2V212.971z"/>
		</g>
		<text transform="matrix(1 0 0 1 693.0042 212.115)" fill="#1D1D1A" font-family="'HelveticaNeue-Bold'" font-size="6">overshoot</text>
		<g>
			<path fill="#FFFFFF" d="M731.359,388.336c0,1.1-0.898,2-2,2h-28.865c-1.1,0-2-0.9-2-2v-6.348c0-1.1,0.9-2,2-2h28.865
				c1.102,0,2,0.9,2,2V388.336z"/>
		</g>
		<text transform="matrix(1 0 0 1 699.8518 387.4773)" fill="#1D1D1A" font-family="'HelveticaNeue-Bold'" font-size="6">overshoot</text>
		<g>
			<path fill="#FFFFFF" d="M568.109,388.336c0,1.1-0.898,2-2,2h-28.866c-1.101,0-2-0.9-2-2v-6.348c0-1.1,0.899-2,2-2h28.866
				c1.102,0,2,0.9,2,2V388.336z"/>
		</g>
		<text transform="matrix(1 0 0 1 536.6018 387.4773)" fill="#1D1D1A" font-family="'HelveticaNeue-Bold'" font-size="6">overshoot</text>
		<g>
			<path fill="#FFFFFF" d="M419.385,388.336c0,1.1-0.9,2-2,2h-28.867c-1.1,0-2-0.9-2-2v-6.348c0-1.1,0.9-2,2-2h28.867
				c1.1,0,2,0.9,2,2V388.336z"/>
		</g>
		<text transform="matrix(1 0 0 1 387.8762 387.4773)" fill="#1D1D1A" font-family="'HelveticaNeue-Bold'" font-size="6">overshoot</text>
		<g>
			<path fill="#FFFFFF" d="M101.717,388.336c0,1.1-0.9,2-2,2H70.851c-1.101,0-2-0.9-2-2v-6.348c0-1.1,0.899-2,2-2h28.866
				c1.1,0,2,0.9,2,2V388.336z"/>
		</g>
		<text transform="matrix(1 0 0 1 70.2083 387.4773)" fill="#1D1D1A" font-family="'HelveticaNeue-Bold'" font-size="6">overshoot</text>
	</g>
</g>
<g id="Commentary" display="none">
</g>
</svg>
