<?xml version="1.0" encoding="utf-8"?>
<!-- Generator: Adobe Illustrator 16.0.0, SVG Export Plug-In . SVG Version: 6.00 Build 0)  -->
<!DOCTYPE svg PUBLIC "-//W3C//DTD SVG 1.1//EN" "http://www.w3.org/Graphics/SVG/1.1/DTD/svg11.dtd" [
	<!ENTITY ns_extend "http://ns.adobe.com/Extensibility/1.0/">
	<!ENTITY ns_ai "http://ns.adobe.com/AdobeIllustrator/10.0/">
	<!ENTITY ns_graphs "http://ns.adobe.com/Graphs/1.0/">
	<!ENTITY ns_vars "http://ns.adobe.com/Variables/1.0/">
	<!ENTITY ns_imrep "http://ns.adobe.com/ImageReplacement/1.0/">
	<!ENTITY ns_sfw "http://ns.adobe.com/SaveForWeb/1.0/">
	<!ENTITY ns_custom "http://ns.adobe.com/GenericCustomNamespace/1.0/">
	<!ENTITY ns_adobe_xpath "http://ns.adobe.com/XPath/1.0/">
]>
<svg version="1.1" xmlns:x="&ns_extend;" xmlns:i="&ns_ai;" xmlns:graph="&ns_graphs;"
	 xmlns="http://www.w3.org/2000/svg" xmlns:xlink="http://www.w3.org/1999/xlink" x="0px" y="0px" width="800px" height="600px"
	 viewBox="0 0 800 600" enable-background="new 0 0 800 600" xml:space="preserve">
<metadata>
	<sfw  xmlns="&ns_sfw;">
		<slices></slices>
		<sliceSourceBounds  x="-853.454" y="-2888.979" width="8137.989" height="3446.979" bottomLeftOrigin="true"></sliceSourceBounds>
	</sfw>
</metadata>
<g id="BG" display="none">
	<rect x="-154.103" y="-675" display="inline" fill="#5D5D5D" width="4293.121" height="2904.979"/>
</g>
<g id="Outline_Text">
</g>
<g id="Live_Text">
	<g>
		<path fill="none" stroke="#FFFFFF" stroke-width="1.5" stroke-linecap="round" stroke-linejoin="round" d="M139.07,333.096
			c-13.396,23.343-33.821,37.932-55.042,37.932c-30.239,0-45.625-15.65-45.625-42.707c0-27.985,23.21-43.768,62.071-43.768h39.656
			v16.977H99.679c-22.812,0-36.738,12.334-36.738,27.322c0,13.263,8.223,21.088,24.669,21.088c22.282,0,34.086-10.743,47.349-31.433
			L139.07,333.096z M131.112,368.375c-1.724-7.692-2.918-19.099-2.918-28.913v-69.498c0-17.507-11.141-27.852-31.168-27.852
			c-18.568,0-31.035,9.947-31.035,22.547H41.455c0-22.149,23.077-42.441,56.898-42.441c33.024,0,54.378,16.579,54.378,48.012v69.232
			c0,10.212,0.928,19.364,3.713,28.913H131.112z"/>
		<path fill="none" stroke="#FFFFFF" stroke-width="1.5" stroke-linecap="round" stroke-linejoin="round" d="M215.988,255.641
			v112.735h-24.669V255.641v-30.77h22.149L215.988,255.641z M208.826,258.956c11.804-28.382,32.494-36.738,49.604-36.738
			c31.3,0,48.41,16.844,48.41,55.572v90.586H282.17V278.32c0-26.394-9.682-35.677-31.035-35.677
			c-16.977,0-29.709,9.947-35.147,22.414L208.826,258.956z"/>
		<path fill="none" stroke="#FFFFFF" stroke-width="1.5" stroke-linecap="round" stroke-linejoin="round" d="M466.915,296.888
			c0,45.227-23.608,74.14-64.06,74.14c-40.585,0-64.193-28.913-64.193-74.14c0-45.359,23.741-74.67,63.927-74.67
			C442.909,222.218,466.915,250.999,466.915,296.888z M442.379,296.888c0-32.759-13.13-54.776-39.789-54.776
			c-26.393,0-39.258,22.017-39.258,54.776c0,33.025,12.732,54.378,39.524,54.378C428.983,351.266,442.379,330.311,442.379,296.888z"
			/>
		<path fill="none" stroke="#FFFFFF" stroke-width="1.5" stroke-linecap="round" stroke-linejoin="round" d="M597.946,334.953
			c-10.212,25.067-26.526,36.075-49.206,36.075c-35.545,0-55.704-25.995-55.704-70.426c0-48.277,19.364-78.384,55.969-78.384
			c21.619,0,35.147,8.621,47.879,31.433l-7.958,9.417c-7.029-12.732-17.772-20.425-33.82-20.425
			c-25.995,0-37.534,21.751-37.534,57.959c0,31.698,11.141,50.001,37.269,50.001c16.579,0,26.791-7.56,34.085-20.955
			L597.946,334.953z M588.927,329.648V161.474h24.537v206.902H592.11L588.927,329.648z"/>
		<path fill="none" stroke="#FFFFFF" stroke-width="1.5" stroke-linecap="round" stroke-linejoin="round" d="M742.902,290.124
			c0-27.587-6.897-48.012-35.014-48.012c-21.088,0-37.136,22.017-37.136,54.511c0,35.677,14.722,54.643,41.115,54.643
			c17.905,0,30.239-5.172,40.717-14.191l9.682,16.313c-10.478,10.213-26.393,17.64-50.399,17.64
			c-40.584,0-65.254-27.321-65.254-74.405c0-45.359,26.924-74.405,61.275-74.405c38.86,0,58.49,24.271,58.49,60.214L742.902,290.124
			z M766.377,302.193H659.345v-19.762h107.032V302.193z"/>
	</g>
</g>
<g id="Anchors">
	<g>
		<line opacity="0.5" fill="none" stroke="#FFFFFF" stroke-miterlimit="10" x1="766.854" y1="292.373" x2="659.35" y2="292.373"/>
		<path opacity="0.5" fill="none" stroke="#FFFFFF" stroke-miterlimit="10" d="M755.321,286.421
			c0-16.042-6.503-54.681-47.241-54.681s-48.73,37.592-48.73,64.353s12.338,65.097,52.822,65.097
			c26.941,0,39.041-11.259,45.01-15.995"/>
		<path opacity="0.5" fill="none" stroke="#FFFFFF" stroke-miterlimit="10" d="M454.607,296.926c0-38.788-17.193-64.855-52.1-64.855
			c-34.559,0-51.404,26.067-51.404,64.855c0,39.101,16.672,64.382,51.752,64.382C437.066,361.308,454.607,336.497,454.607,296.926z"
			/>
		<path opacity="0.5" fill="none" stroke="#FFFFFF" stroke-miterlimit="10" d="M592.793,258.386
			c-7.671-15.604-23.89-26.315-40.453-26.315c-31.776,0-47.266,26.067-47.266,64.855c0,39.101,15.329,64.382,47.586,64.382
			c20.009,0,33.529-11.375,40.929-28.865"/>
		<path opacity="0.5" fill="none" stroke="#FFFFFF" stroke-miterlimit="10" d="M212.713,261.374
			c8.777-14.624,23.422-29.424,42.32-29.424c18.896,0,39.901,8.757,39.901,45.947s0,90.576,0,90.576"/>
		<path opacity="0.5" fill="none" stroke="#FFFFFF" stroke-miterlimit="10" d="M53.441,264.68c0-18.785,18.467-33.066,44.396-33.066
			s42.47,18.934,42.47,38.67s0,56.914,0,69.104s0.303,21.471,3.457,29.087"/>
		<path opacity="0.5" fill="none" stroke="#FFFFFF" stroke-miterlimit="10" d="M140.295,292.756c0,0-21.421,0.193-40.221,0.193
			s-49.394,9.813-49.394,35.31s14.099,32.561,34.603,32.561c20.505,0,39.881-15.761,51.438-34.292"/>
		<polyline opacity="0.5" fill="none" stroke="#FFFFFF" stroke-miterlimit="10" points="201.83,224.695 203.443,256.134 
			203.443,368.474 		"/>
		<polyline opacity="0.5" fill="none" stroke="#FFFFFF" stroke-miterlimit="10" points="601.057,161.417 601.057,329.585 
			603.457,368.181 		"/>
	</g>
	<g>
		<circle fill="#E84E1B" cx="97.837" cy="231.613" r="2.755"/>
		<circle fill="#E84E1B" cx="53.441" cy="264.68" r="2.756"/>
		<circle fill="#E84E1B" cx="140.307" cy="270.283" r="2.755"/>
		<circle fill="#E84E1B" cx="141.008" cy="339.387" r="2.756"/>
		<circle fill="#E84E1B" cx="136.721" cy="326.527" r="2.755"/>
		<circle fill="#E84E1B" cx="140.295" cy="292.756" r="2.755"/>
		<circle fill="#E84E1B" cx="100.074" cy="292.949" r="2.756"/>
		<circle fill="#E84E1B" cx="50.681" cy="328.259" r="2.755"/>
		<circle fill="#E84E1B" cx="143.763" cy="368.474" r="2.755"/>
		<circle fill="#E84E1B" cx="203.443" cy="368.474" r="2.755"/>
		<circle fill="#E84E1B" cx="203.443" cy="256.134" r="2.755"/>
		<circle fill="#E84E1B" cx="212.713" cy="261.374" r="2.756"/>
		<circle fill="#E84E1B" cx="255.033" cy="231.95" r="2.755"/>
		<circle fill="#E84E1B" cx="294.935" cy="277.897" r="2.755"/>
		<circle fill="#E84E1B" cx="201.831" cy="224.695" r="2.755"/>
		<circle fill="#E84E1B" cx="295.029" cy="368.374" r="2.756"/>
		<circle fill="#E84E1B" cx="402.951" cy="361.329" r="2.756"/>
		<circle fill="#E84E1B" cx="551.676" cy="360.927" r="2.756"/>
		<circle fill="#E84E1B" cx="593.189" cy="332.31" r="2.756"/>
		<circle fill="#E84E1B" cx="603.457" cy="368.181" r="2.755"/>
		<circle fill="#E84E1B" cx="601.056" cy="161.417" r="2.755"/>
		<circle fill="#E84E1B" cx="708.08" cy="231.74" r="2.755"/>
		<circle fill="#E84E1B" cx="755.321" cy="286.421" r="2.755"/>
		<circle fill="#E84E1B" cx="766.853" cy="292.373" r="2.755"/>
		<circle fill="#E84E1B" cx="659.35" cy="292.373" r="2.756"/>
		<circle fill="#E84E1B" cx="659.35" cy="296.093" r="2.756"/>
		<circle fill="#E84E1B" cx="712.171" cy="361.189" r="2.755"/>
		<circle fill="#E84E1B" cx="757.181" cy="345.194" r="2.755"/>
		<circle fill="#E84E1B" cx="601.056" cy="329.585" r="2.755"/>
		<circle fill="#E84E1B" cx="402.951" cy="232.354" r="2.756"/>
		<circle fill="#E84E1B" cx="551.675" cy="232.354" r="2.755"/>
		<circle fill="#E84E1B" cx="593.323" cy="258.651" r="2.755"/>
		<circle fill="#E84E1B" cx="351.427" cy="296.841" r="2.755"/>
		<circle fill="#E84E1B" cx="454.607" cy="296.841" r="2.755"/>
		<circle fill="#E84E1B" cx="505.325" cy="300.469" r="2.755"/>
		<circle fill="#E84E1B" cx="85.284" cy="360.819" r="2.755"/>
	</g>
</g>
<g id="Parameters">
	<g>
		<text transform="matrix(1 0 0 1 155.8135 213.6523)" fill="#FFFFFF" font-family="'HelveticaNeue-Bold'" font-size="12">x-height</text>
	</g>
	<g>
		<text transform="matrix(1 0 0 1 385.6016 213.6523)" fill="#FFFFFF" font-family="'HelveticaNeue-Bold'" font-size="12">contrast</text>
	</g>
	<g>
		<text transform="matrix(1 0 0 1 190.7656 393.3486)" fill="#FFFFFF" font-family="'HelveticaNeue-Bold'" font-size="12">weight</text>
	</g>
	<g>
		<text transform="matrix(1 0 0 1 619.5854 150.4121)" fill="#FFFFFF" font-family="'HelveticaNeue-Bold'" font-size="12">ascender</text>
	</g>
	<g opacity="0.5">
		<line fill="none" stroke="#E84E1B" stroke-miterlimit="10" x1="180.117" y1="224.695" x2="180.117" y2="368.181"/>
		<line fill="none" stroke="#E84E1B" stroke-miterlimit="10" x1="177.996" y1="368.474" x2="182.236" y2="368.474"/>
		<line fill="none" stroke="#E84E1B" stroke-miterlimit="10" x1="177.996" y1="224.694" x2="182.236" y2="224.694"/>
	</g>
	<g opacity="0.5">
		<line fill="none" stroke="#E84E1B" stroke-miterlimit="10" x1="625.056" y1="161.335" x2="625.056" y2="368.181"/>
		<line fill="none" stroke="#E84E1B" stroke-miterlimit="10" x1="622.936" y1="368.474" x2="627.176" y2="368.474"/>
		<line fill="none" stroke="#E84E1B" stroke-miterlimit="10" x1="622.936" y1="161.334" x2="627.176" y2="161.334"/>
	</g>
	<g opacity="0.5">
		<line fill="none" stroke="#E84E1B" stroke-miterlimit="10" x1="216.021" y1="377.288" x2="191.416" y2="377.288"/>
		<line fill="none" stroke="#E84E1B" stroke-miterlimit="10" x1="191.123" y1="375.168" x2="191.123" y2="379.408"/>
		<line fill="none" stroke="#E84E1B" stroke-miterlimit="10" x1="216.021" y1="375.168" x2="216.021" y2="379.408"/>
	</g>
	<text transform="matrix(1 0 0 1 306.7959 451.4014)" fill="#FFFFFF" font-family="'HelveticaNeue-Bold'" font-size="12">spacing</text>
	<g opacity="0.5">
		<line fill="none" stroke="#E84E1B" stroke-miterlimit="10" x1="337.553" y1="433.062" x2="308.437" y2="433.062"/>
		<line fill="none" stroke="#E84E1B" stroke-miterlimit="10" x1="308.144" y1="430.941" x2="308.144" y2="435.182"/>
		<line fill="none" stroke="#E84E1B" stroke-miterlimit="10" x1="337.553" y1="430.941" x2="337.553" y2="435.182"/>
	</g>
	<g>
		<text transform="matrix(1 0 0 1 698.8745 393.3486)" fill="#FFFFFF" font-family="'HelveticaNeue-Bold'" font-size="12">width</text>
	</g>
	<g opacity="0.5">
		<line fill="none" stroke="#E84E1B" stroke-miterlimit="10" x1="766.348" y1="377.288" x2="649.615" y2="377.288"/>
		<line fill="none" stroke="#E84E1B" stroke-miterlimit="10" x1="649.322" y1="375.168" x2="649.322" y2="379.408"/>
		<line fill="none" stroke="#E84E1B" stroke-miterlimit="10" x1="766.348" y1="375.168" x2="766.348" y2="379.408"/>
	</g>
	<g>
		<text transform="matrix(1 0 0 1 61.0889 388.376)" fill="#FFFFFF" font-family="'HelveticaNeue-Bold'" font-size="12">overshoot</text>
	</g>
	<rect x="308.144" y="161.334" opacity="0.25" fill="#FFFFFF" width="29.409" height="262.061"/>
</g>
<g id="Commentary" display="none">
	<text transform="matrix(1 0 0 1 43.6807 524.9468)" display="inline"><tspan x="0" y="0" fill="#FFFFFF" font-family="'HelveticaNeue-Bold'" font-size="20">Parameters that define the relationship between letters and the overall </tspan><tspan x="24.339" y="24" fill="#FFFFFF" font-family="'HelveticaNeue-Bold'" font-size="20">font are also applied. Each set of parameters is a master font that </tspan><tspan x="10.08" y="48" fill="#FFFFFF" font-family="'HelveticaNeue-Bold'" font-size="20">instances can be generated from by interpolating with other masters.</tspan></text>
</g>
</svg>
