<?xml version="1.0" encoding="utf-8"?>
<!-- Generator: Adobe Illustrator 16.0.0, SVG Export Plug-In . SVG Version: 6.00 Build 0)  -->
<!DOCTYPE svg PUBLIC "-//W3C//DTD SVG 1.1//EN" "http://www.w3.org/Graphics/SVG/1.1/DTD/svg11.dtd" [
	<!ENTITY ns_extend "http://ns.adobe.com/Extensibility/1.0/">
	<!ENTITY ns_ai "http://ns.adobe.com/AdobeIllustrator/10.0/">
	<!ENTITY ns_graphs "http://ns.adobe.com/Graphs/1.0/">
	<!ENTITY ns_vars "http://ns.adobe.com/Variables/1.0/">
	<!ENTITY ns_imrep "http://ns.adobe.com/ImageReplacement/1.0/">
	<!ENTITY ns_sfw "http://ns.adobe.com/SaveForWeb/1.0/">
	<!ENTITY ns_custom "http://ns.adobe.com/GenericCustomNamespace/1.0/">
	<!ENTITY ns_adobe_xpath "http://ns.adobe.com/XPath/1.0/">
]>
<svg version="1.1" id="Layer_1" xmlns:x="&ns_extend;" xmlns:i="&ns_ai;" xmlns:graph="&ns_graphs;"
	 xmlns="http://www.w3.org/2000/svg" xmlns:xlink="http://www.w3.org/1999/xlink" x="0px" y="0px" width="800px" height="600px"
	 viewBox="0 0 800 600" enable-background="new 0 0 800 600" xml:space="preserve">
<metadata>
	<sfw  xmlns="&ns_sfw;">
		<slices></slices>
		<sliceSourceBounds  y="-1632.479" x="-1008.604" bottomLeftOrigin="true" height="2904.979" width="4293.121">
			</sliceSourceBounds>
	</sfw>
</metadata>
<g id="BG" display="none">
	<rect x="-1029.103" y="-675" display="inline" fill="#5D5D5D" width="4293.121" height="2904.979"/>
</g>
<g id="Outline_Text">
</g>
<g id="Live_Text">
	<g>
		<path fill="#F3ECE9" d="M139.07,334.096c-13.396,23.343-33.82,37.932-55.042,37.932c-30.238,0-45.625-15.649-45.625-42.707
			c0-27.984,23.21-43.768,62.071-43.768h39.656v16.977H99.679c-22.812,0-36.738,12.334-36.738,27.322
			c0,13.263,8.224,21.088,24.669,21.088c22.282,0,34.086-10.743,47.35-31.433L139.07,334.096z M131.112,369.375
			c-1.724-7.691-2.918-19.099-2.918-28.912v-69.499c0-17.507-11.141-27.852-31.168-27.852c-18.567,0-31.034,9.947-31.034,22.547
			H41.455c0-22.148,23.077-42.441,56.897-42.441c33.024,0,54.378,16.579,54.378,48.013v69.232c0,10.212,0.929,19.363,3.713,28.912
			H131.112L131.112,369.375z"/>
		<path fill="#F3ECE9" d="M215.988,256.641v112.735h-24.669V256.641v-30.771h22.149L215.988,256.641z M208.826,259.956
			c11.804-28.382,32.493-36.738,49.604-36.738c31.3,0,48.41,16.845,48.41,55.572v90.587h-24.67V279.32
			c0-26.394-9.683-35.677-31.035-35.677c-16.977,0-29.709,9.946-35.147,22.414L208.826,259.956z"/>
		<path fill="#F3ECE9" d="M466.914,297.888c0,45.227-23.607,74.14-64.06,74.14c-40.585,0-64.192-28.913-64.192-74.14
			c0-45.359,23.74-74.67,63.927-74.67C442.908,223.219,466.914,251.999,466.914,297.888z M442.379,297.888
			c0-32.76-13.131-54.776-39.789-54.776c-26.394,0-39.258,22.017-39.258,54.776c0,33.024,12.731,54.378,39.523,54.378
			C428.983,352.266,442.379,331.311,442.379,297.888z"/>
		<path fill="#F3ECE9" d="M597.946,335.953c-10.212,25.067-26.525,36.075-49.206,36.075c-35.545,0-55.704-25.995-55.704-70.426
			c0-48.277,19.364-78.384,55.97-78.384c21.618,0,35.146,8.62,47.879,31.433l-7.958,9.417c-7.029-12.732-17.772-20.425-33.82-20.425
			c-25.995,0-37.534,21.751-37.534,57.959c0,31.698,11.142,50.001,37.27,50.001c16.579,0,26.791-7.56,34.085-20.955L597.946,335.953
			z M588.927,330.648V162.474h24.537v206.902H592.11L588.927,330.648z"/>
		<path fill="#F3ECE9" d="M742.902,291.124c0-27.587-6.896-48.012-35.014-48.012c-21.088,0-37.136,22.017-37.136,54.511
			c0,35.678,14.722,54.644,41.114,54.644c17.905,0,30.24-5.172,40.718-14.191l9.682,16.313
			c-10.479,10.213-26.394,17.64-50.399,17.64c-40.584,0-65.254-27.321-65.254-74.405c0-45.358,26.924-74.405,61.275-74.405
			c38.86,0,58.49,24.271,58.49,60.215L742.902,291.124z M766.377,303.193H659.345v-19.762h107.032V303.193L766.377,303.193z"/>
	</g>
</g>
<g id="Anchors">
</g>
<g id="Parameters">
</g>
<g id="Commentary" display="none">
	
		<text transform="matrix(1 0 0 1 166.4578 549.199)" display="inline" fill="#FFFFFF" font-family="'HelveticaNeue-Bold'" font-size="20">A whole typeface family with different weights,</text>
	
		<text transform="matrix(1 0 0 1 105.0686 573.199)" display="inline" fill="#FFFFFF" font-family="'HelveticaNeue-Bold'" font-size="20">widths and styles can be easily generated. From Regular    </text>
	
		<line display="inline" fill="none" stroke="#FFFFFF" stroke-width="1.5" stroke-miterlimit="10" x1="671.239" y1="568.189" x2="683.039" y2="568.189"/>
	<polyline display="inline" fill="none" stroke="#FFFFFF" stroke-width="1.5" stroke-miterlimit="10" points="678.742,563.893 
		683.039,568.189 678.742,572.486 	"/>
</g>
</svg>
