<?xml version="1.0" encoding="utf-8"?>
<!-- Generator: Adobe Illustrator 16.0.0, SVG Export Plug-In . SVG Version: 6.00 Build 0)  -->
<!DOCTYPE svg PUBLIC "-//W3C//DTD SVG 1.1//EN" "http://www.w3.org/Graphics/SVG/1.1/DTD/svg11.dtd" [
	<!ENTITY ns_extend "http://ns.adobe.com/Extensibility/1.0/">
	<!ENTITY ns_ai "http://ns.adobe.com/AdobeIllustrator/10.0/">
	<!ENTITY ns_graphs "http://ns.adobe.com/Graphs/1.0/">
	<!ENTITY ns_vars "http://ns.adobe.com/Variables/1.0/">
	<!ENTITY ns_imrep "http://ns.adobe.com/ImageReplacement/1.0/">
	<!ENTITY ns_sfw "http://ns.adobe.com/SaveForWeb/1.0/">
	<!ENTITY ns_custom "http://ns.adobe.com/GenericCustomNamespace/1.0/">
	<!ENTITY ns_adobe_xpath "http://ns.adobe.com/XPath/1.0/">
]>
<svg version="1.1" id="Layer_1" xmlns:x="&ns_extend;" xmlns:i="&ns_ai;" xmlns:graph="&ns_graphs;"
	 xmlns="http://www.w3.org/2000/svg" xmlns:xlink="http://www.w3.org/1999/xlink" x="0px" y="0px" width="800px" height="600px"
	 viewBox="0 0 800 600" enable-background="new 0 0 800 600" xml:space="preserve">
<metadata>
	<sfw  xmlns="&ns_sfw;">
		<slices></slices>
		<sliceSourceBounds  y="-1632.479" x="-1883.604" bottomLeftOrigin="true" height="2904.979" width="4293.121">
			</sliceSourceBounds>
	</sfw>
</metadata>
<g id="BG" display="none">
	<rect x="-1904.103" y="-675" display="inline" fill="#5D5D5D" width="4293.121" height="2904.979"/>
</g>
<g id="Outline_Text">
</g>
<g id="Live_Text">
	<g>
		<path fill="#F3ECE9" d="M124.277,369.375c-1.149-2.651-2.167-5.438-3.05-8.354c-0.885-2.917-1.591-5.922-2.122-9.018
			c-4.509,6.101-9.946,10.964-16.312,14.588c-6.366,3.625-13.882,5.438-22.546,5.438c-14.323,0-25.554-3.823-33.688-11.472
			c-8.135-7.646-12.201-18.19-12.201-31.631c0-14.323,5.306-25.285,15.915-32.891c10.609-7.603,26.524-11.406,47.744-11.406h19.761
			v-11.405c0-7.072-1.791-12.467-5.37-16.181c-3.581-3.713-8.998-5.569-16.247-5.569c-6.544,0-11.518,1.481-14.92,4.442
			c-3.405,2.963-5.106,7.186-5.106,12.666H37.542c0-12.818,5.547-23.584,16.644-32.293c11.095-8.708,25.928-13.062,44.495-13.062
			c17.506,0,31.542,4.267,42.108,12.798c10.563,8.534,15.848,21.021,15.848,37.466v59.282c0,6.896,0.508,13.242,1.525,19.031
			c1.015,5.792,2.629,11.649,4.841,17.573h-38.727V369.375z M90.723,343.514c5.922,0,11.25-1.237,15.981-3.713
			c4.729-2.476,8.422-5.657,11.073-9.549v-23.74h-19.76c-8.488,0-14.788,2.012-18.898,6.034c-4.112,4.023-6.167,9.042-6.167,15.053
			c0,4.864,1.568,8.731,4.708,11.604C80.797,342.078,85.153,343.514,90.723,343.514z"/>
		<path fill="#F3ECE9" d="M221.356,225.877l1.726,19.895l0.397,0.132c4.686-7.249,10.454-12.841,17.308-16.776
			c6.851-3.933,14.653-5.901,23.407-5.901c14.766,0,26.147,4.442,34.151,13.329c8,8.886,12.002,23.274,12.002,43.168v89.652h-38.858
			v-89.521c0-9.814-1.901-16.688-5.702-20.623c-3.804-3.934-9.728-5.901-17.771-5.901c-5.305,0-9.926,1.04-13.858,3.117
			c-3.936,2.078-7.317,5.019-10.146,8.819v104.109h-38.726V225.877H221.356z"/>
		<path fill="#F3ECE9" d="M333.29,296.3c0-21.837,5.879-39.476,17.639-52.917c11.758-13.438,28.381-20.158,49.866-20.158
			c21.661,0,38.394,6.72,50.197,20.158c11.805,13.44,17.706,31.079,17.706,52.917v2.786c0,22.015-5.882,39.677-17.64,52.982
			c-11.76,13.309-28.427,19.959-49.999,19.959c-21.663,0-38.374-6.652-50.131-19.959c-11.76-13.306-17.639-30.968-17.639-52.982
			V296.3z M371.884,299.086c0,13.351,2.254,23.895,6.764,31.63c4.51,7.737,11.979,11.604,22.413,11.604
			c10.166,0,17.527-3.89,22.082-11.671c4.553-7.779,6.83-18.302,6.83-31.563V296.3c0-12.996-2.301-23.451-6.896-31.364
			c-4.598-7.912-12.024-11.87-22.28-11.87c-10.168,0-17.529,3.979-22.082,11.937c-4.555,7.957-6.83,18.392-6.83,31.3V299.086z"/>
		<path fill="#F3ECE9" d="M486.603,298.82c0-23.077,4.795-41.445,14.39-55.105c9.593-13.659,23.451-20.489,41.577-20.489
			c7.338,0,13.793,1.48,19.362,4.442c5.57,2.963,10.479,7.273,14.722,12.932l0.397-0.134v-77.981h38.858v206.893h-33.687
			l-2.917-17.374c-4.601,6.631-9.904,11.627-15.916,14.985c-6.015,3.359-13.042,5.04-21.086,5.04
			c-17.95,0-31.722-6.343-41.312-19.031c-9.595-12.686-14.39-29.816-14.39-51.392L486.603,298.82L486.603,298.82z M525.195,301.605
			c0,12.732,2.076,22.635,6.234,29.708c4.153,7.075,11.094,10.61,20.821,10.61c5.745,0,10.652-1.104,14.722-3.315
			c4.063-2.209,7.426-5.523,10.078-9.947v-61.006c-2.652-4.596-6.015-8.134-10.078-10.61c-4.068-2.474-8.888-3.713-14.457-3.713
			c-9.637,0-16.601,4.134-20.888,12.4c-4.29,8.269-6.434,19.297-6.434,33.09L525.195,301.605L525.195,301.605z"/>
		<path fill="#F3ECE9" d="M709.409,372.028c-21.133,0-37.776-6.499-49.934-19.496s-18.235-29.927-18.235-50.794v-5.305
			c0-21.75,5.77-39.41,17.309-52.983c11.538-13.571,27.341-20.312,47.412-20.225c19.805,0,34.945,5.748,45.424,17.24
			c10.477,11.495,15.716,27.366,15.716,47.612v21.087h-86.735c1.148,10.08,4.509,18.126,10.079,24.139s13.263,9.018,23.077,9.018
			c8.752,0,15.891-0.839,21.418-2.52c5.524-1.68,11.691-4.377,18.501-8.09l8.487,25.596c-5.748,4.333-13.086,7.871-22.017,10.61
			C730.981,370.656,720.814,372.028,709.409,372.028z M705.961,253.065c-7.341,0-13.062,2.719-17.175,8.157
			c-4.11,5.438-6.786,12.887-8.023,22.347h48.407v-3.448c0-8.397-1.88-15.007-5.638-19.827
			C719.775,255.475,713.918,253.065,705.961,253.065z"/>
	</g>
</g>
<g id="Anchors">
</g>
<g id="Parameters">
</g>
<g id="Commentary" display="none">
	
		<text transform="matrix(1 0 0 1 364.3352 571.6775)" display="inline" fill="#FFFFFF" font-family="'HelveticaNeue-Bold'" font-size="20">to Bold</text>
</g>
</svg>
