<?xml version="1.0" encoding="utf-8"?>
<!-- Generator: Adobe Illustrator 16.0.0, SVG Export Plug-In . SVG Version: 6.00 Build 0)  -->
<!DOCTYPE svg PUBLIC "-//W3C//DTD SVG 1.1//EN" "http://www.w3.org/Graphics/SVG/1.1/DTD/svg11.dtd" [
	<!ENTITY ns_extend "http://ns.adobe.com/Extensibility/1.0/">
	<!ENTITY ns_ai "http://ns.adobe.com/AdobeIllustrator/10.0/">
	<!ENTITY ns_graphs "http://ns.adobe.com/Graphs/1.0/">
	<!ENTITY ns_vars "http://ns.adobe.com/Variables/1.0/">
	<!ENTITY ns_imrep "http://ns.adobe.com/ImageReplacement/1.0/">
	<!ENTITY ns_sfw "http://ns.adobe.com/SaveForWeb/1.0/">
	<!ENTITY ns_custom "http://ns.adobe.com/GenericCustomNamespace/1.0/">
	<!ENTITY ns_adobe_xpath "http://ns.adobe.com/XPath/1.0/">
]>
<svg version="1.1" id="Layer_1" xmlns:x="&ns_extend;" xmlns:i="&ns_ai;" xmlns:graph="&ns_graphs;"
	 xmlns="http://www.w3.org/2000/svg" xmlns:xlink="http://www.w3.org/1999/xlink" x="0px" y="0px" width="800px" height="600px"
	 viewBox="0 0 800 600" enable-background="new 0 0 800 600" xml:space="preserve">
<metadata>
	<sfw  xmlns="&ns_sfw;">
		<slices></slices>
		<sliceSourceBounds  y="-1632.479" x="-2758.604" bottomLeftOrigin="true" height="2904.979" width="4293.121">
			</sliceSourceBounds>
	</sfw>
</metadata>
<g id="BG" display="none">
	<rect x="-2779.103" y="-675" display="inline" fill="#5D5D5D" width="4293.121" height="2904.979"/>
</g>
<g id="Outline_Text">
</g>
<g id="Live_Text">
	<g>
		<path fill="#F3ECE9" d="M167.777,369.375c-0.975-2.474-1.836-5.039-2.586-7.691c-0.752-2.653-1.393-5.481-1.924-8.488
			c-3.361,5.749-7.359,10.324-12.002,13.728c-4.642,3.402-10.102,5.105-16.379,5.105c-11.494,0-20.602-3.8-27.32-11.405
			c-6.721-7.603-10.08-18.036-10.08-31.299c0-14.41,4.199-25.418,12.601-33.023c8.397-7.603,21.264-11.405,38.594-11.405h12.997
			v-11.671c0-7.072-1.084-12.467-3.249-16.181c-2.168-3.713-5.55-5.569-10.146-5.569c-3.979,0-6.854,1.459-8.62,4.376
			c-1.771,2.918-2.652,7.294-2.652,13.13h-37.002c0-13.173,4.553-24.092,13.66-32.758c9.104-8.664,21.438-12.997,37.002-12.997
			c14.499,0,26.126,4.267,34.88,12.798c8.753,8.534,13.129,21.021,13.129,37.466v58.089c0,7.074,0.465,13.595,1.393,19.562
			c0.93,5.968,2.408,12.048,4.443,18.236h-36.738V369.375z M145.629,343.779c3.358,0,6.433-0.928,9.218-2.785
			c2.784-1.855,5.061-4.331,6.83-7.427v-27.055H148.68c-5.219,0-8.908,1.946-11.074,5.835c-2.168,3.892-3.249,8.975-3.249,15.251
			c0,4.864,0.995,8.775,2.983,11.737C139.33,342.301,142.092,343.779,145.629,343.779z"/>
		<path fill="#F3ECE9" d="M255.972,225.877l1.459,17.374l0.397,0.133c3.625-6.365,8.09-11.315,13.395-14.854
			c5.306-3.535,11.273-5.305,17.904-5.305c11.672,0,20.711,4.487,27.122,13.461c6.409,8.975,9.613,23.497,9.613,43.566v89.124
			h-37.001v-89.124c0-9.989-1.261-16.953-3.779-20.888c-2.521-3.933-6.564-5.902-12.136-5.902c-3.007,0-5.702,0.752-8.09,2.256
			c-2.387,1.504-4.51,3.67-6.364,6.498v107.16H221.49v-143.5H255.972z"/>
		<path fill="#F3ECE9" d="M344.961,288.874c0-19.715,4.774-35.586,14.324-47.611c9.549-12.023,23.252-18.037,41.112-18.037
			c17.947,0,31.696,6.014,41.245,18.037c9.549,12.024,14.323,27.896,14.323,47.611v17.771c0,19.806-4.754,35.655-14.257,47.545
			c-9.506,11.894-23.188,17.838-41.047,17.838c-18.036,0-31.829-5.944-41.378-17.838c-9.55-11.89-14.324-27.739-14.324-47.545
			L344.961,288.874L344.961,288.874z M381.963,306.645c0,11.318,1.326,20.049,3.979,26.193c2.652,6.146,7.562,9.217,14.723,9.217
			c6.808,0,11.581-3.094,14.322-9.284c2.74-6.188,4.111-14.897,4.111-26.126v-17.771c0-11.051-1.371-19.715-4.111-25.994
			c-2.741-6.276-7.604-9.417-14.588-9.417c-6.985,0-11.805,3.141-14.457,9.417c-2.651,6.279-3.979,14.943-3.979,25.994V306.645
			L381.963,306.645z"/>
		<path fill="#F3ECE9" d="M471.219,298.423c0-22.987,3.889-41.268,11.67-54.841c7.779-13.57,19.009-20.356,33.687-20.356
			c5.216,0,9.858,1.216,13.927,3.646c4.064,2.434,7.691,5.902,10.875,10.411l0.396-0.133v-74.667h37.135v206.892h-32.095
			l-2.388-14.721h-0.397c-3.448,5.749-7.427,10.08-11.937,12.997c-4.51,2.918-9.771,4.376-15.781,4.376
			c-14.589,0-25.752-6.343-33.488-19.031c-7.736-12.686-11.604-29.949-11.604-51.789V298.423L471.219,298.423z M508.088,301.209
			c0,13.086,1.325,23.121,3.979,30.104c2.652,6.986,7.294,10.478,13.926,10.478c3.447,0,6.476-0.796,9.084-2.387
			c2.607-1.592,4.842-4.021,6.697-7.294v-66.975c-1.945-3.714-4.2-6.586-6.764-8.621c-2.565-2.033-5.482-3.051-8.753-3.051
			c-6.632,0-11.318,4.024-14.059,12.069c-2.741,8.046-4.11,19.011-4.11,32.892V301.209L508.088,301.209z"/>
		<path fill="#F3ECE9" d="M654.238,372.028c-16.889,0-30.194-5.835-39.92-17.506c-9.727-11.67-14.588-26.657-14.588-44.959v-20.159
			c0-19.804,4.553-35.785,13.66-47.943c9.104-12.154,22.147-18.234,39.123-18.234c16.444,0,28.979,5.525,37.6,16.578
			c8.62,11.053,12.93,26.438,12.93,46.152v23.077h-66.311v0.53c0,9.814,1.724,17.685,5.172,23.607
			c3.448,5.924,9.02,8.886,16.711,8.886c8.398,0,14.787-0.839,19.164-2.521c4.376-1.678,8.951-4.287,13.728-7.824l7.426,25.993
			c-4.688,4.423-10.897,7.914-18.633,10.478C672.561,370.745,663.873,372.028,654.238,372.028z M652.514,253.463
			c-5.57,0-9.505,2.653-11.803,7.958c-2.302,5.306-3.627,12.777-3.979,22.413h30.238v-5.305c0-8.134-1.128-14.344-3.383-18.634
			C661.334,255.608,657.641,253.463,652.514,253.463z"/>
	</g>
</g>
<g id="Anchors">
</g>
<g id="Parameters">
</g>
<g id="Commentary" display="none">
	
		<text transform="matrix(1 0 0 1 343.6355 571.6775)" display="inline" fill="#FFFFFF" font-family="'HelveticaNeue-Bold'" font-size="20">Condensed</text>
</g>
</svg>
