<?xml version="1.0" encoding="utf-8"?>
<!-- Generator: Adobe Illustrator 16.0.0, SVG Export Plug-In . SVG Version: 6.00 Build 0)  -->
<!DOCTYPE svg PUBLIC "-//W3C//DTD SVG 1.1//EN" "http://www.w3.org/Graphics/SVG/1.1/DTD/svg11.dtd" [
	<!ENTITY ns_extend "http://ns.adobe.com/Extensibility/1.0/">
	<!ENTITY ns_ai "http://ns.adobe.com/AdobeIllustrator/10.0/">
	<!ENTITY ns_graphs "http://ns.adobe.com/Graphs/1.0/">
	<!ENTITY ns_vars "http://ns.adobe.com/Variables/1.0/">
	<!ENTITY ns_imrep "http://ns.adobe.com/ImageReplacement/1.0/">
	<!ENTITY ns_sfw "http://ns.adobe.com/SaveForWeb/1.0/">
	<!ENTITY ns_custom "http://ns.adobe.com/GenericCustomNamespace/1.0/">
	<!ENTITY ns_adobe_xpath "http://ns.adobe.com/XPath/1.0/">
]>
<svg version="1.1" id="Layer_1" xmlns:x="&ns_extend;" xmlns:i="&ns_ai;" xmlns:graph="&ns_graphs;"
	 xmlns="http://www.w3.org/2000/svg" xmlns:xlink="http://www.w3.org/1999/xlink" x="0px" y="0px" width="800px" height="600px"
	 viewBox="0 0 800 600" enable-background="new 0 0 800 600" xml:space="preserve">
<metadata>
	<sfw  xmlns="&ns_sfw;">
		<slices></slices>
		<sliceSourceBounds  y="-1632.479" x="-3633.604" bottomLeftOrigin="true" height="2904.979" width="4357.146">
			</sliceSourceBounds>
	</sfw>
</metadata>
<g id="BG" display="none">
	<rect x="-3654.103" y="-675" display="inline" fill="#5D5D5D" width="4293.121" height="2904.979"/>
</g>
<g id="Outline_Text">
	<path fill="#F3ECE9" d="M167.777,369.377c-0.975-2.476-1.836-5.04-2.586-7.692c-0.752-2.653-1.393-5.481-1.924-8.488
		c-3.361,5.749-7.359,10.324-12.002,13.728c-4.642,3.402-10.102,5.105-16.379,5.105c-11.494,0-20.602-3.801-27.32-11.406
		c-6.721-7.603-10.08-16.754-10.08-29.438c0-13.781,4.199-24.309,12.601-31.583c8.397-7.271,21.264-10.907,38.594-10.907h12.997
		V267.54c0-8.719-1.084-15.369-3.249-19.946c-2.168-4.577-5.55-6.867-10.146-6.867c-3.979,0-6.854,1.799-8.62,5.396
		c-1.771,3.599-2.652,17.022-2.652,22.857h-37.002c0-13.173,4.553-24.092,13.66-32.758c9.104-8.664,21.438-12.996,37.002-12.996
		c14.499,0,26.126,4.266,34.88,12.797c8.752,8.534,13.129,21.021,13.129,37.467v58.089c0,7.074,0.465,13.595,1.393,19.562
		c0.93,5.969,2.408,12.049,4.443,18.236H167.777z M148.629,354.526c8.012,0,12.564-8.09,13.048-13.531v-38.069H148.68
		c-5.219,0-8.908,2.092-11.074,6.271c-2.168,4.183-3.249,9.646-3.249,16.392C134.356,341.801,139.626,354.526,148.629,354.526z"/>
	<path fill="#F3ECE9" d="M255.972,225.878l1.459,17.373l0.397,0.133c3.625-6.365,8.09-11.315,13.395-14.854
		c5.306-3.535,11.273-5.305,17.904-5.305c11.672,0,20.711,4.487,27.122,13.461c6.409,8.975,9.613,23.496,9.613,43.565v89.123
		h-37.001v-93.168c0-12.316-1.261-20.9-3.779-25.754c-2.521-4.848-6.564-7.274-12.136-7.274c-3.007,0-5.702,0.928-8.09,2.779
		c-2.387,1.854-4.51,4.524-6.364,8.012v115.405H221.49V225.878H255.972z"/>
	<path fill="#F3ECE9" d="M344.961,288.874c0-19.716,4.774-35.587,14.324-47.611c9.549-12.022,23.252-18.036,41.112-18.036
		c17.947,0,31.696,6.014,41.245,18.036c9.549,12.024,14.323,27.896,14.323,47.611v17.771c0,19.806-4.754,35.654-14.257,47.545
		c-9.506,11.894-23.188,17.838-41.047,17.838c-18.036,0-31.829-5.944-41.378-17.838c-9.55-11.891-14.324-27.739-14.324-47.545
		L344.961,288.874L344.961,288.874z M381.963,308.747c0,13.953,1.326,24.718,3.979,32.291c2.652,7.577,7.562,11.365,14.723,11.365
		c6.808,0,11.581-3.813,14.322-11.447c2.74-7.628,4.111-18.365,4.111-32.209v-21.91c0-13.625-1.371-24.307-4.111-32.048
		c-2.741-7.739-7.604-11.609-14.588-11.609c-6.985,0-11.805,3.87-14.457,11.609c-2.651,7.741-3.979,18.423-3.979,32.048V308.747
		L381.963,308.747z"/>
	<path fill="#F3ECE9" d="M471.219,298.424c0-22.988,3.889-41.269,11.67-54.841c7.779-13.57,19.009-20.356,33.687-20.356
		c5.216,0,9.858,1.216,13.927,3.646c4.064,2.435,7.691,5.902,10.875,10.411l0.396-0.133v-74.667h37.135v206.894h-32.095
		l-2.388-14.723h-0.397c-3.448,5.749-7.427,10.079-11.937,12.997s-9.771,4.377-15.781,4.377c-14.589,0-25.752-6.344-33.488-19.031
		c-7.735-12.687-11.604-29.95-11.604-51.788V298.424L471.219,298.424z M508.088,302.044c0,16.134,1.325,28.505,3.979,37.113
		c2.652,8.613,7.294,12.918,13.926,12.918c3.447,0,6.476-0.979,9.084-2.941c2.607-1.962,4.842-4.96,6.697-8.993v-82.572
		c-1.945-4.576-4.2-8.119-6.764-10.628c-2.565-2.505-5.482-3.761-8.753-3.761c-6.632,0-11.318,4.963-14.059,14.881
		c-2.741,9.92-4.11,23.436-4.11,40.55V302.044L508.088,302.044z"/>
	<path fill="#F3ECE9" d="M654.238,372.028c-16.889,0-30.194-5.836-39.92-17.507c-9.727-11.671-14.588-26.657-14.588-44.959v-20.159
		c0-19.804,4.553-35.785,13.66-47.943c9.104-12.153,22.147-18.233,39.123-18.233c16.444,0,28.979,5.524,37.6,16.577
		c8.62,11.054,12.93,26.438,12.93,46.152v23.076h-66.311v0.53c0,9.812,1.724,24.583,5.172,31.884
		c3.447,7.306,9.02,10.957,16.711,10.955c19.363,0,23.965-10.991,32.892-20.69l7.426,25.993
		c-4.688,4.424-10.897,7.914-18.633,10.479C672.561,370.745,663.873,372.028,654.238,372.028z M652.514,243.179
		c-5.57,0-9.505,3.271-11.803,9.812c-2.302,6.539-3.627,21.207-3.979,30.842h30.238v-5.305c0-8.133-1.128-22.131-3.383-27.42
		C661.334,245.823,657.641,243.179,652.514,243.179z"/>
</g>
<g id="Live_Text">
</g>
<g id="Anchors">
</g>
<g id="Parameters">
</g>
<g id="Commentary" display="none">
	
		<text transform="matrix(1 0 0 1 322.3259 571.6775)" display="inline" fill="#FFFFFF" font-family="'HelveticaNeue-Bold'" font-size="20">Higher contrast</text>
</g>
</svg>
