<?xml version="1.0" encoding="utf-8"?>
<!-- Generator: Adobe Illustrator 16.0.0, SVG Export Plug-In . SVG Version: 6.00 Build 0)  -->
<!DOCTYPE svg PUBLIC "-//W3C//DTD SVG 1.1//EN" "http://www.w3.org/Graphics/SVG/1.1/DTD/svg11.dtd" [
	<!ENTITY ns_extend "http://ns.adobe.com/Extensibility/1.0/">
	<!ENTITY ns_ai "http://ns.adobe.com/AdobeIllustrator/10.0/">
	<!ENTITY ns_graphs "http://ns.adobe.com/Graphs/1.0/">
	<!ENTITY ns_vars "http://ns.adobe.com/Variables/1.0/">
	<!ENTITY ns_imrep "http://ns.adobe.com/ImageReplacement/1.0/">
	<!ENTITY ns_sfw "http://ns.adobe.com/SaveForWeb/1.0/">
	<!ENTITY ns_custom "http://ns.adobe.com/GenericCustomNamespace/1.0/">
	<!ENTITY ns_adobe_xpath "http://ns.adobe.com/XPath/1.0/">
]>
<svg version="1.1" id="Layer_1" xmlns:x="&ns_extend;" xmlns:i="&ns_ai;" xmlns:graph="&ns_graphs;"
	 xmlns="http://www.w3.org/2000/svg" xmlns:xlink="http://www.w3.org/1999/xlink" x="0px" y="0px" width="800px" height="600px"
	 viewBox="0 0 800 600" enable-background="new 0 0 800 600" xml:space="preserve">
<metadata>
	<sfw  xmlns="&ns_sfw;">
		<slices></slices>
		<sliceSourceBounds  y="-957.479" x="-133.604" bottomLeftOrigin="true" height="2904.979" width="4293.121"></sliceSourceBounds>
	</sfw>
</metadata>
<g id="BG" display="none">
	<rect x="-154.103" y="-1350" display="inline" fill="#5D5D5D" width="4293.121" height="2904.979"/>
</g>
<g id="Outline_Text">
</g>
<g id="Live_Text">
	<g>
		<path fill="#F3ECE9" d="M230.512,268.444v72.15c0,10.212,0.663,19.23,2.653,28.779h-6.632c-1.592-13.395-1.989-16.844-2.388-26.26
			c-7.294,17.242-20.292,29.045-38.462,29.045c-18.701,0-29.576-15.385-29.576-38.991c0-26.262,16.845-43.769,44.432-43.769h23.873
			V268.18c0-24.804-10.346-38.464-29.179-38.464c-17.64,0-30.372,15.119-30.372,35.679l-6.101-0.398
			c0-23.078,15.252-41.777,36.605-41.777C217.117,223.219,230.512,238.735,230.512,268.444z M224.411,296.164h-23.608
			c-23.873,0-38.595,14.987-38.595,37.666c0,18.437,9.284,32.099,23.741,32.099c18.303,0,31.698-12.602,38.462-35.412V296.164z"/>
		<path fill="#F3ECE9" d="M333.163,281.973v87.401h-6.102v-87.401c0-39.523-9.284-52.521-27.188-52.521
			c-19.763,0-31.168,23.873-35.147,48.81v91.115h-6.101V225.871h5.703l0.397,33.023c6.631-21.222,18.966-35.678,35.942-35.678
			C322.287,223.219,333.163,240.459,333.163,281.973z"/>
		<path fill="#F3ECE9" d="M358.092,295.236c0-43.105,16.446-72.02,41.646-72.02c25.333,0,41.646,28.78,41.646,72.02v4.773
			c0,43.371-16.313,72.149-41.513,72.149c-25.466,0-41.778-28.778-41.778-72.149L358.092,295.236L358.092,295.236z M364.193,300.01
			c0,37.27,13.264,65.651,35.678,65.651c22.017,0,35.411-28.516,35.411-65.651v-4.773c0-36.474-13.527-65.652-35.545-65.652
			c-22.148,0-35.544,29.18-35.544,65.652V300.01z"/>
		<path fill="#F3ECE9" d="M540.32,162.474v206.9h-5.703l-0.397-22.547c-6.765,15.783-17.905,25.332-34.086,25.332
			c-24.403,0-38.064-26.791-38.064-72.018v-2.785c0-46.553,13.793-74.141,38.33-74.141c15.916,0,26.791,10.877,33.555,28.913h0.266
			v-89.656L540.32,162.474L540.32,162.474z M468.302,297.357v2.785c0,40.981,10.478,65.652,32.097,65.652
			c17.507,0,28.515-12.07,33.82-31.966v-66.977c-4.907-21.354-14.324-37.271-33.688-37.271
			C478.911,229.584,468.302,256.242,468.302,297.357z"/>
		<path fill="#F3ECE9" d="M646.284,281.707v10.611h-73.741c0,3.447,0,6.896,0,10.478c0,35.942,15.782,62.866,37.666,62.866
			c11.938,0,20.426-4.643,29.577-17.641l2.917,4.908c-7.824,12.334-17.64,19.229-32.626,19.229
			c-25.199,0-43.635-28.778-43.635-69.364v-7.824c0-42.31,17.772-71.754,41.778-71.754
			C631.298,223.219,646.284,245.234,646.284,281.707z M572.809,285.818h67.376v-4.376c0-30.372-12.467-51.858-31.964-51.858
			C588.591,229.584,575.063,252.795,572.809,285.818z"/>
	</g>
</g>
<g id="Anchors">
</g>
<g id="Parameters">
</g>
<g id="Commentary" display="none">
	
		<text transform="matrix(1 0 0 1 319.0559 571.6775)" display="inline" fill="#FFFFFF" font-family="'HelveticaNeue-Bold'" font-size="20">Condensed Thin</text>
</g>
</svg>
