<?xml version="1.0" encoding="utf-8"?>
<!-- Generator: Adobe Illustrator 16.0.0, SVG Export Plug-In . SVG Version: 6.00 Build 0)  -->
<!DOCTYPE svg PUBLIC "-//W3C//DTD SVG 1.1//EN" "http://www.w3.org/Graphics/SVG/1.1/DTD/svg11.dtd" [
	<!ENTITY ns_extend "http://ns.adobe.com/Extensibility/1.0/">
	<!ENTITY ns_ai "http://ns.adobe.com/AdobeIllustrator/10.0/">
	<!ENTITY ns_graphs "http://ns.adobe.com/Graphs/1.0/">
	<!ENTITY ns_vars "http://ns.adobe.com/Variables/1.0/">
	<!ENTITY ns_imrep "http://ns.adobe.com/ImageReplacement/1.0/">
	<!ENTITY ns_sfw "http://ns.adobe.com/SaveForWeb/1.0/">
	<!ENTITY ns_custom "http://ns.adobe.com/GenericCustomNamespace/1.0/">
	<!ENTITY ns_adobe_xpath "http://ns.adobe.com/XPath/1.0/">
]>
<svg version="1.1" id="Layer_1" xmlns:x="&ns_extend;" xmlns:i="&ns_ai;" xmlns:graph="&ns_graphs;"
	 xmlns="http://www.w3.org/2000/svg" xmlns:xlink="http://www.w3.org/1999/xlink" x="0px" y="0px" width="800px" height="600px"
	 viewBox="0 0 800 600" enable-background="new 0 0 800 600" xml:space="preserve">
<metadata>
	<sfw  xmlns="&ns_sfw;">
		<slices></slices>
		<sliceSourceBounds  y="-957.479" x="-1008.604" bottomLeftOrigin="true" height="2904.979" width="4293.121"></sliceSourceBounds>
	</sfw>
</metadata>
<g id="BG" display="none">
	<rect x="-1029.103" y="-1350" display="inline" fill="#5D5D5D" width="4293.121" height="2904.979"/>
</g>
<g id="Outline_Text">
</g>
<g id="Live_Text">
	<g>
		<path fill="#F3ECE9" d="M149.741,343.646l-0.398-0.133c-5.394,8.488-12.91,15.385-22.546,20.688
			c-9.638,5.306-21.265,7.957-34.88,7.957c-13.528,0-24.05-3.558-31.564-10.676c-7.516-7.116-11.272-16.599-11.272-28.447
			c0-13.174,5.79-23.761,17.374-31.764c11.582-8,27.453-12.002,47.611-12.002h35.677v-20.955c0-12.201-3.76-21.572-11.273-28.115
			c-7.516-6.543-18.348-9.813-32.493-9.813c-13.352,0-24.336,3.314-32.957,9.946c-8.621,6.631-12.931,14.986-12.931,25.064
			l-7.162-0.266c0-11.581,4.973-21.462,14.92-29.642c9.947-8.177,22.656-12.268,38.129-12.268c15.736,0,28.16,3.825,37.268,11.473
			c9.104,7.647,13.659,18.943,13.659,33.885v71.883c0,5.128,0.266,10.035,0.795,14.722c0.531,4.687,1.503,9.416,2.919,14.188h-7.958
			c-1.15-6.364-1.924-11.073-2.321-14.124c-0.398-3.05-0.598-6.433-0.598-10.146v-1.457H149.741z M91.917,365.132
			c13.793,0,25.596-2.983,35.41-8.951c9.813-5.969,17.284-14.478,22.414-25.53v-34.084h-35.278c-17.95,0-32.142,3.382-42.572,10.146
			c-10.434,6.764-15.649,15.716-15.649,26.855c0,9.107,3.227,16.645,9.682,22.612C72.376,362.147,81.042,365.132,91.917,365.132z"/>
		<path fill="#F3ECE9" d="M210.216,258.237l0.397,0.133c4.421-10.432,10.985-18.898,19.694-25.396
			c8.708-6.498,18.986-9.748,30.835-9.748c15.206,0,26.612,4.599,34.217,13.793c7.604,9.196,11.406,24.138,11.406,44.826v87.53
			h-7.162v-87.53c0-19.449-3.295-32.91-9.88-40.384c-6.588-7.471-16.247-11.207-28.979-11.207c-14.323,0-25.643,4.842-33.951,14.522
			c-8.312,9.681-13.838,20.579-16.578,32.69v91.908h-7.162V225.877h6.764l0.398,30.638V258.237L210.216,258.237z"/>
		<path fill="#F3ECE9" d="M340.452,294.842c0-21.396,5.724-38.681,17.175-51.854c11.449-13.174,26.634-19.762,45.556-19.762
			c19.008,0,34.237,6.564,45.688,19.694c11.449,13.129,17.176,30.438,17.176,51.922v5.57c0,21.573-5.703,38.925-17.108,52.055
			c-11.406,13.13-26.57,19.693-45.49,19.693c-19.098,0-34.371-6.563-45.82-19.693c-11.451-13.13-17.175-30.48-17.175-52.055V294.842
			L340.452,294.842z M347.614,300.412c0,18.392,4.951,33.752,14.854,46.086c9.901,12.334,23.561,18.501,40.98,18.501
			c17.151,0,30.679-6.188,40.582-18.566c9.901-12.377,14.854-27.719,14.854-46.021v-5.57c0-17.947-4.997-33.177-14.987-45.688
			c-9.992-12.51-23.562-18.766-40.715-18.766c-17.241,0-30.813,6.256-40.715,18.766c-9.903,12.513-14.854,27.741-14.854,45.688
			L347.614,300.412L347.614,300.412z"/>
		<path fill="#F3ECE9" d="M493.765,297.494c0-23.253,4.685-41.445,14.058-54.574c9.371-13.13,22.723-19.694,40.053-19.694
			c11.492,0,21.22,2.5,29.177,7.494c7.958,4.995,14.323,11.913,19.098,20.755h0.398v-88.989h7.162v206.892h-6.896l-0.265-22.147
			l-0.398-0.133c-4.598,7.691-10.964,13.793-19.098,18.302c-8.137,4.51-17.95,6.764-29.442,6.764
			c-17.241,0-30.526-6.343-39.853-19.03c-9.33-12.687-13.992-30.306-13.992-52.851L493.765,297.494L493.765,297.494z
			 M501.191,300.279c0,20.248,3.823,36.096,11.472,47.545c7.646,11.451,19.251,17.175,34.813,17.175
			c12.731,0,23.143-2.763,31.233-8.288c8.09-5.524,14.034-13.15,17.838-22.879v-67.239c-3.538-10.432-9.042-19.074-16.513-25.928
			c-7.473-6.851-18.235-10.277-32.293-10.277c-15.562,0-27.211,6.101-34.945,18.302c-7.738,12.202-11.604,28.471-11.604,48.806
			L501.191,300.279L501.191,300.279z"/>
		<path fill="#F3ECE9" d="M700.656,372.16c-18.037,0-33.022-6.453-44.959-19.361c-11.936-12.908-17.903-29.485-17.903-49.733v-8.488
			c0-21.041,5.724-38.195,17.175-51.457c11.448-13.264,25.795-19.895,43.036-19.895c16.444,0,29.641,5.194,39.588,15.584
			s14.92,24.733,14.92,43.035v11.008H644.954v1.725v8.488c0,17.684,5.26,32.426,15.782,44.229
			c10.521,11.804,23.827,17.704,39.919,17.704c8.488,0,16.047-1.325,22.68-3.979c6.631-2.652,13.306-7.161,20.025-13.527l3.847,5.57
			c-5.659,6.102-12.158,10.809-19.496,14.125C720.371,370.504,711.353,372.16,700.656,372.16z M698.004,230.387
			c-14.588,0-26.592,5.15-36.008,15.45c-9.416,10.302-14.965,23.586-16.644,39.854h99.997v-4.376
			c0-14.941-4.289-27.166-12.864-36.671C723.908,235.141,712.413,230.387,698.004,230.387z"/>
	</g>
</g>
<g id="Anchors">
</g>
<g id="Parameters">
</g>
<g id="Commentary" display="none">
	
		<text transform="matrix(1 0 0 1 378.7849 571.6775)" display="inline" fill="#FFFFFF" font-family="'HelveticaNeue-Bold'" font-size="20">Thin</text>
</g>
</svg>
