<?xml version="1.0" encoding="utf-8"?>
<!-- Generator: Adobe Illustrator 16.0.0, SVG Export Plug-In . SVG Version: 6.00 Build 0)  -->
<!DOCTYPE svg PUBLIC "-//W3C//DTD SVG 1.1//EN" "http://www.w3.org/Graphics/SVG/1.1/DTD/svg11.dtd" [
	<!ENTITY ns_extend "http://ns.adobe.com/Extensibility/1.0/">
	<!ENTITY ns_ai "http://ns.adobe.com/AdobeIllustrator/10.0/">
	<!ENTITY ns_graphs "http://ns.adobe.com/Graphs/1.0/">
	<!ENTITY ns_vars "http://ns.adobe.com/Variables/1.0/">
	<!ENTITY ns_imrep "http://ns.adobe.com/ImageReplacement/1.0/">
	<!ENTITY ns_sfw "http://ns.adobe.com/SaveForWeb/1.0/">
	<!ENTITY ns_custom "http://ns.adobe.com/GenericCustomNamespace/1.0/">
	<!ENTITY ns_adobe_xpath "http://ns.adobe.com/XPath/1.0/">
]>
<svg version="1.1" id="Layer_1" xmlns:x="&ns_extend;" xmlns:i="&ns_ai;" xmlns:graph="&ns_graphs;"
	 xmlns="http://www.w3.org/2000/svg" xmlns:xlink="http://www.w3.org/1999/xlink" x="0px" y="0px" width="800px" height="600px"
	 viewBox="0 0 800 600" enable-background="new 0 0 800 600" xml:space="preserve">
<metadata>
	<sfw  xmlns="&ns_sfw;">
		<slices></slices>
		<sliceSourceBounds  y="-957.479" x="-3633.604" bottomLeftOrigin="true" height="2904.979" width="4432.409"></sliceSourceBounds>
	</sfw>
</metadata>
<g id="BG" display="none">
	<rect x="-3654.103" y="-1350" display="inline" fill="#5D5D5D" width="4293.121" height="2904.979"/>
</g>
<g id="Outline_Text">
</g>
<g id="Live_Text">
	<g>
		<path fill="#F3ECE9" d="M113.203,369.375c-0.796-3.889-1.416-7.381-1.857-10.477c-0.443-3.094-0.752-6.188-0.928-9.283
			c-5.04,6.455-11.34,11.826-18.898,16.113c-7.561,4.287-15.629,6.432-24.204,6.432c-14.941,0-26.306-3.646-34.085-10.94
			c-7.78-7.294-11.67-17.572-11.67-30.834c0-13.615,5.504-24.115,16.512-31.498c11.009-7.383,26.104-11.074,45.291-11.074h26.923
			v-16.711c0-8.398-2.652-15.054-7.957-19.959c-5.306-4.908-12.688-7.361-22.148-7.361c-6.544,0-12.312,0.842-17.307,2.521
			c-4.996,1.682-9.042,3.979-12.137,6.896l-2.784,15.119h-20.16v-27.852c6.543-5.216,14.457-9.394,23.74-12.531
			c9.282-3.139,19.362-4.709,30.237-4.709c16.268,0,29.441,4.156,39.521,12.467c10.079,8.312,15.119,20.205,15.119,35.676v69.098
			c0,1.855,0.021,3.67,0.065,5.438c0.043,1.771,0.152,3.537,0.331,5.306l10.61,1.459v16.71h-34.215V369.375z M71.161,350.277
			c8.664,0,16.577-2.076,23.738-6.231c7.162-4.155,12.289-9.151,15.386-14.986v-23.607H82.434c-10.698,0-19.163,2.478-25.396,7.428
			c-6.233,4.951-9.351,10.964-9.351,18.036c0,6.278,1.943,11.073,5.835,14.391C57.412,348.62,63.291,350.277,71.161,350.277z"/>
		<path fill="#F3ECE9" d="M165.324,352.665l21.616-3.714V246.434l-21.616-3.713v-16.845h44.959l1.855,21.354
			c4.774-7.604,10.763-13.506,17.97-17.706c7.205-4.198,15.404-6.3,24.603-6.3c15.471,0,27.453,4.531,35.94,13.594
			c8.488,9.063,12.732,23.057,12.732,41.976v70.157l21.617,3.714v16.711H255.64v-16.711l21.618-3.714v-69.627
			c0-12.643-2.5-21.617-7.494-26.922c-4.996-5.305-12.621-7.957-22.877-7.957c-7.516,0-14.17,1.812-19.96,5.438
			c-5.792,3.626-10.411,8.575-13.858,14.854v84.215l21.617,3.715v16.71h-69.36L165.324,352.665L165.324,352.665z"/>
		<path fill="#F3ECE9" d="M342.773,296.301c0-21.221,5.746-38.702,17.24-52.452c11.492-13.747,27.1-20.623,46.816-20.623
			c19.805,0,35.477,6.854,47.015,20.557c11.538,13.706,17.308,31.213,17.308,52.52v2.918c0,21.396-5.748,38.903-17.241,52.519
			c-11.494,13.617-27.101,20.424-46.814,20.424c-19.895,0-35.59-6.83-47.082-20.489c-11.494-13.66-17.24-31.144-17.24-52.452
			L342.773,296.301L342.773,296.301z M368.9,299.219c0,15.208,3.203,27.765,9.613,37.665c6.41,9.902,15.938,14.854,28.582,14.854
			c12.377,0,21.793-4.95,28.248-14.854c6.453-9.9,9.682-22.457,9.682-37.665v-2.918c0-15.029-3.229-27.54-9.682-37.532
			c-6.455-9.99-15.961-14.986-28.514-14.986c-12.557,0-22.017,4.996-28.382,14.986c-6.366,9.992-9.549,22.503-9.549,37.532
			L368.9,299.219L368.9,299.219z"/>
		<path fill="#F3ECE9" d="M591.705,352.268c-4.687,6.543-10.41,11.494-17.175,14.854c-6.764,3.36-14.61,5.039-23.54,5.039
			c-17.507,0-31.189-6.343-41.047-19.03c-9.859-12.687-14.788-29.375-14.788-50.064v-2.785c0-23.076,4.929-41.688,14.788-55.834
			c9.856-14.146,23.628-21.221,41.312-21.221c8.487,0,15.98,1.57,22.479,4.709c6.498,3.139,12.045,7.671,16.645,13.594V183.04
			l-21.617-3.714v-16.842h21.617h26.127v186.467l21.618,3.714v16.71h-44.298L591.705,352.268z M521.282,303.064
			c0,14.412,2.961,25.994,8.888,34.746c5.922,8.754,15.071,13.131,27.451,13.131c7.779,0,14.323-1.768,19.629-5.306
			c5.305-3.535,9.682-8.531,13.13-14.986v-66.577c-3.36-6.011-7.737-10.785-13.13-14.322c-5.395-3.535-11.85-5.305-19.363-5.305
			c-12.466,0-21.685,5.172-27.652,15.516c-5.967,10.347-8.951,23.785-8.951,40.318L521.282,303.064L521.282,303.064z"/>
		<path fill="#F3ECE9" d="M723.532,372.16c-19.981,0-35.874-6.65-47.678-19.959c-11.803-13.307-17.705-30.569-17.705-51.789v-5.836
			c0-20.424,6.078-37.42,18.236-50.994c12.155-13.569,26.545-20.356,43.168-20.356c19.272,0,33.885,5.836,43.832,17.507
			s14.92,27.232,14.92,46.683v16.312h-93.103l-0.396,0.664c0.265,13.793,3.757,25.132,10.479,34.018
			c6.717,8.887,16.135,13.328,28.247,13.328c8.841,0,16.601-1.26,23.275-3.778c6.674-2.521,12.443-5.988,17.307-10.411
			l10.214,16.976c-5.13,4.953-11.916,9.131-20.357,12.533C745.526,370.457,735.381,372.16,723.532,372.16z M719.555,243.781
			c-8.754,0-16.227,3.693-22.413,11.074c-6.19,7.383-9.992,16.645-11.405,27.785l0.266,0.662h66.179v-3.447
			c0-10.256-2.741-18.833-8.224-25.729C738.475,247.23,730.341,243.781,719.555,243.781z"/>
	</g>
</g>
<g id="Anchors">
</g>
<g id="Parameters">
</g>
<g id="Commentary" display="none">
	
		<text transform="matrix(1 0 0 1 282.5369 571.6775)" display="inline" fill="#FFFFFF" font-family="'HelveticaNeue-Bold'" font-size="20">Regular with slab serifs</text>
</g>
</svg>
