<?xml version="1.0" encoding="utf-8"?>
<!-- Generator: Adobe Illustrator 16.0.0, SVG Export Plug-In . SVG Version: 6.00 Build 0)  -->
<!DOCTYPE svg PUBLIC "-//W3C//DTD SVG 1.1//EN" "http://www.w3.org/Graphics/SVG/1.1/DTD/svg11.dtd" [
	<!ENTITY ns_extend "http://ns.adobe.com/Extensibility/1.0/">
	<!ENTITY ns_ai "http://ns.adobe.com/AdobeIllustrator/10.0/">
	<!ENTITY ns_graphs "http://ns.adobe.com/Graphs/1.0/">
	<!ENTITY ns_vars "http://ns.adobe.com/Variables/1.0/">
	<!ENTITY ns_imrep "http://ns.adobe.com/ImageReplacement/1.0/">
	<!ENTITY ns_sfw "http://ns.adobe.com/SaveForWeb/1.0/">
	<!ENTITY ns_custom "http://ns.adobe.com/GenericCustomNamespace/1.0/">
	<!ENTITY ns_adobe_xpath "http://ns.adobe.com/XPath/1.0/">
]>
<svg version="1.1" id="Layer_1" xmlns:x="&ns_extend;" xmlns:i="&ns_ai;" xmlns:graph="&ns_graphs;"
	 xmlns="http://www.w3.org/2000/svg" xmlns:xlink="http://www.w3.org/1999/xlink" x="0px" y="0px" width="800px" height="600px"
	 viewBox="0 0 800 600" enable-background="new 0 0 800 600" xml:space="preserve">
<metadata>
	<sfw  xmlns="&ns_sfw;">
		<slices></slices>
		<sliceSourceBounds  y="-282.479" x="-133.604" bottomLeftOrigin="true" height="2904.979" width="4293.121"></sliceSourceBounds>
	</sfw>
</metadata>
<g id="BG" display="none">
	<rect x="-154.103" y="-2025" display="inline" fill="#5D5D5D" width="4293.121" height="2904.979"/>
</g>
<g id="Outline_Text">
</g>
<g id="Live_Text">
	<g>
		<path fill="#F3ECE9" d="M113.606,369.641c-0.796-3.846-1.459-7.295-1.856-10.346c-0.398-3.051-0.663-6.101-0.796-9.15
			c-5.04,8.754-10.61,14.722-16.579,17.904c-5.969,3.184-14.854,4.774-26.659,4.774c-17.64,0-29.709-3.051-36.208-9.02
			c-6.499-5.968-9.682-16.978-9.682-32.893c0-16.845,4.774-28.117,14.19-33.953c9.417-5.836,25.332-8.753,47.747-8.753h26.924
			v-16.712c0-12.202-1.724-19.762-5.172-22.812c-3.449-3.051-11.804-4.51-25.067-4.51c-7.56,0-13.926,0.662-18.966,1.988
			c-5.04,1.327-8.621,3.848-10.609,7.428l-2.785,15.12h-20.16v-27.853c5.438-5.306,12.334-9.549,20.69-12.601
			c8.355-3.051,19.496-4.643,33.423-4.774c20.026-0.132,34.218,3.051,42.44,9.551c8.224,6.498,12.334,19.363,12.334,38.594v69.102
			c0,1.855,0,3.714,0,5.438c0,1.725,0.133,3.447,0.266,5.173l10.609,1.459v16.711L113.606,369.641z M47.954,331.046
			c0,7.295,1.725,12.336,5.04,15.12c3.315,2.785,9.417,4.244,18.303,4.244c11.804,0,20.558-1.459,26.128-4.51
			c5.571-3.051,9.947-8.621,12.998-16.711V305.58H82.57c-13.926,0-23.21,1.726-27.852,5.041s-7.029,10.08-7.029,20.292
			L47.954,331.046z"/>
		<path fill="#F3ECE9" d="M165.059,352.798l21.619-3.714V246.561l-21.619-3.713v-16.846h44.961l1.857,21.354
			c2.387-6.897,7.028-12.601,13.926-17.109s16.446-6.765,28.781-6.765c18.701,0,31.565,3.715,38.462,11.142
			c6.896,7.428,10.345,22.282,10.345,44.432v70.161l21.619,3.714v16.711h-69.365V352.93l21.619-3.714v-69.631
			c0-15.916-1.724-25.729-5.04-29.443c-3.314-3.714-11.804-5.57-25.332-5.57c-7.56,0-13.793,1.326-18.701,3.847
			c-4.906,2.521-9.946,7.957-15.12,16.312v84.221l21.619,3.713v16.712h-69.364L165.059,352.798z"/>
		<path fill="#F3ECE9" d="M342.906,295.898c0-25.862,4.643-44.432,13.794-55.704c9.15-11.273,25.994-16.978,50.398-17.108
			c24.271-0.397,41.115,5.306,50.532,17.108c9.417,11.804,14.059,30.505,13.793,56.103v2.919c0,26.127-4.51,44.828-13.661,56.102
			c-9.152,11.274-25.995,16.844-50.532,16.844c-24.403,0-41.248-5.702-50.532-17.108c-9.283-11.405-13.926-29.975-13.926-55.836
			L342.906,295.898z M368.901,298.816c0,19.762,2.122,33.423,6.234,41.115c4.111,7.692,14.722,11.539,31.831,11.539
			c17.108,0,27.719-3.714,31.831-11.273c4.11-7.561,6.101-21.354,6.101-41.381v-2.918c0.265-19.363-1.856-33.024-6.234-41.115
			c-4.376-8.09-14.986-11.936-31.83-11.538c-17.242,0.265-27.853,4.111-31.831,11.671c-3.979,7.562-5.968,21.222-5.968,40.982
			L368.901,298.816z"/>
		<path fill="#F3ECE9" d="M591.446,352.398c-3.315,6.367-8.223,11.273-14.589,14.723c-6.366,3.448-15.12,5.173-26.128,5.173
			c-21.884,0-36.605-5.306-44.298-15.783s-11.539-28.25-11.539-53.316v-2.785c0-27.72,3.713-47.48,11.272-59.285
			c7.561-11.805,22.548-17.771,44.961-17.771c11.273,0,20.293,1.591,26.925,4.773c6.632,3.184,10.743,7.693,12.202,13.528v-58.489
			l-21.619-3.714v-16.844h47.747v186.477l21.617,3.715v16.711h-44.298l-2.122-17.109h-0.132V352.398z M521.153,303.193
			c0,18.701,1.857,31.435,5.57,38.064c3.713,6.632,13.926,9.946,30.637,9.946c9.683,0,16.978-1.325,21.751-4.11
			c4.774-2.785,8.488-8.224,11.142-16.313V264.2c-2.785-7.825-6.102-12.997-10.08-15.648c-3.979-2.653-11.406-3.979-22.415-3.979
			c-17.109,0-27.454,3.979-31.035,11.937c-3.581,7.958-5.438,22.548-5.438,43.769L521.153,303.193z"/>
		<path fill="#F3ECE9" d="M774.201,354.521c-5.172,4.906-11.937,9.15-20.425,12.6c-8.487,3.448-18.701,5.173-30.505,5.173
			c-24.404,0-41.38-5.57-50.93-16.712c-9.55-11.141-14.324-29.575-14.324-55.174v-5.836c0-25.066,4.907-43.236,14.722-54.51
			c9.815-11.274,25.332-16.846,46.687-16.846c22.68,0,38.197,5.04,46.42,14.987s12.334,26.394,12.334,49.338v16.313h-93.106
			l-0.397,0.663c0.266,18.17,2.652,30.638,7.162,37.27c4.509,6.632,14.986,9.947,31.565,9.947c8.886,0,16.711-1.326,23.343-3.847
			c6.633-2.521,12.468-5.968,17.375-10.346l10.212,16.978L774.201,354.521L774.201,354.521z M751.786,279.851
			c0-13.661-1.855-23.077-5.569-28.25c-3.713-5.173-12.732-7.825-26.924-7.825c-13.396,0-21.885,2.652-25.466,7.825
			s-6.366,15.518-8.223,31.035l0.265,0.662h66.183v-3.447H751.786z"/>
	</g>
</g>
<g id="Anchors">
</g>
<g id="Parameters">
</g>
<g id="Commentary" display="none">
	
		<text transform="matrix(1 0 0 1 324.3962 571.6775)" display="inline" fill="#FFFFFF" font-family="'HelveticaNeue-Bold'" font-size="20">Squarer curves</text>
</g>
</svg>
