<?xml version="1.0" encoding="utf-8"?>
<!-- Generator: Adobe Illustrator 16.0.0, SVG Export Plug-In . SVG Version: 6.00 Build 0)  -->
<!DOCTYPE svg PUBLIC "-//W3C//DTD SVG 1.1//EN" "http://www.w3.org/Graphics/SVG/1.1/DTD/svg11.dtd" [
	<!ENTITY ns_extend "http://ns.adobe.com/Extensibility/1.0/">
	<!ENTITY ns_ai "http://ns.adobe.com/AdobeIllustrator/10.0/">
	<!ENTITY ns_graphs "http://ns.adobe.com/Graphs/1.0/">
	<!ENTITY ns_vars "http://ns.adobe.com/Variables/1.0/">
	<!ENTITY ns_imrep "http://ns.adobe.com/ImageReplacement/1.0/">
	<!ENTITY ns_sfw "http://ns.adobe.com/SaveForWeb/1.0/">
	<!ENTITY ns_custom "http://ns.adobe.com/GenericCustomNamespace/1.0/">
	<!ENTITY ns_adobe_xpath "http://ns.adobe.com/XPath/1.0/">
]>
<svg version="1.1" id="Layer_1" xmlns:x="&ns_extend;" xmlns:i="&ns_ai;" xmlns:graph="&ns_graphs;"
	 xmlns="http://www.w3.org/2000/svg" xmlns:xlink="http://www.w3.org/1999/xlink" x="0px" y="0px" width="800px" height="600px"
	 viewBox="0 0 800 600" enable-background="new 0 0 800 600" xml:space="preserve">
<metadata>
	<sfw  xmlns="&ns_sfw;">
		<slices></slices>
		<sliceSourceBounds  y="-282.479" x="-1008.604" bottomLeftOrigin="true" height="2904.979" width="4293.121"></sliceSourceBounds>
	</sfw>
</metadata>
<g id="BG" display="none">
	<rect x="-1029.103" y="-2025" display="inline" fill="#5D5D5D" width="4293.121" height="2904.979"/>
</g>
<g id="Outline_Text">
	<g>
		<path fill="#F3ECE9" d="M113.605,369.641c-0.795-3.846-1.459-7.295-1.855-10.346c-0.397-3.051-0.663-6.101-0.796-9.15
			c-5.04,8.754-10.61,14.722-16.578,17.904c-5.97,3.184-14.855,4.774-26.659,4.774c-17.64,0-29.709-3.051-36.208-9.02
			c-6.498-5.968-9.682-16.978-9.682-32.893c0-16.845,4.774-28.117,14.19-33.953c9.417-5.836,25.332-8.753,47.746-8.753h26.924
			v-16.712c0-12.202-1.724-19.762-5.172-22.812c-3.449-3.051-11.805-4.51-25.067-4.51c-18.273,0-28.329,6.267-32.062,7.954
			c-6.254,2.829-6.254,16.582-6.254,16.582H27.928v-25.853c5.438-5.306,22.438-19.375,54.112-19.375
			c20.025,0,34.218,3.051,42.44,9.551c8.225,6.498,12.335,19.363,12.335,38.594v72.301c0,11.593,10.875,11.639,10.875,11.639v13.942
			L113.605,369.641z M47.954,331.046c0,7.295,1.725,12.336,5.04,15.12c3.315,2.785,9.417,4.244,18.303,4.244
			c11.805,0,20.558-1.459,26.128-4.51c5.571-3.051,9.947-8.621,12.998-16.711V305.58H82.57c-13.926,0-23.21,1.726-27.852,5.041
			c-4.643,3.315-7.029,10.08-7.029,20.292L47.954,331.046z"/>
		<path fill="#F3ECE9" d="M591.447,352.398c-3.315,6.367-8.225,11.273-14.59,14.723c-6.367,3.448-15.119,5.173-26.129,5.173
			c-21.883,0-36.605-5.306-44.297-15.783c-7.693-10.478-11.539-28.25-11.539-53.316v-2.785c0-27.72,3.713-47.48,11.272-59.285
			c7.562-11.805,22.548-17.771,44.961-17.771c11.273,0,20.293,1.591,26.925,4.773c6.631,3.184,10.744,7.693,12.2,13.528
			c0,0,0-41.985,0-52.652c0-9.334-5.206-11.334-21.616-12.093v-14.302h47.746c0,0,0,170.729,0,182.729
			c0,7.742,8.6,9.547,21.618,10.106v14.066h-44.299l-2.121-17.109L591.447,352.398L591.447,352.398z M521.152,303.193
			c0,18.701,1.857,31.435,5.57,38.064c3.715,6.632,13.928,9.946,30.639,9.946c9.683,0,16.978-1.325,21.75-4.11
			c4.775-2.785,8.488-8.224,11.142-16.313V264.2c-2.785-7.825-6.101-12.997-10.078-15.648c-3.98-2.653-11.406-3.979-22.416-3.979
			c-17.107,0-27.453,3.979-31.035,11.937c-3.58,7.958-5.438,22.548-5.438,43.769L521.152,303.193z"/>
		<path fill="#F3ECE9" d="M774.2,354.521c-5.172,4.906-11.936,9.15-20.424,12.6c-8.488,3.448-18.701,5.173-30.506,5.173
			c-24.402,0-41.379-5.57-50.93-16.712c-9.55-11.141-14.322-29.575-14.322-55.174v-5.836c0-25.066,4.906-43.236,14.721-54.51
			c9.815-11.274,25.332-16.846,46.687-16.846c22.68,0,38.196,5.04,46.42,14.987c8.225,9.947,12.336,26.394,12.336,49.338v16.313
			h-93.107l-0.396,0.663c0.266,18.17,2.651,30.638,7.162,37.27c4.508,6.632,14.985,9.947,31.563,9.947
			c8.887,0,16.713-1.326,23.344-3.847c6.632-2.521,12.468-5.968,17.375-10.346l10.211,16.978L774.2,354.521L774.2,354.521z
			 M751.786,279.851c0-13.661-1.854-23.077-5.569-28.25c-3.713-5.173-12.732-7.825-26.924-7.825
			c-13.396,0-21.884,2.652-25.466,7.825c-3.58,5.173-6.364,15.518-8.223,31.035l0.266,0.662h66.183v-3.447H751.786z"/>
		<path fill="#F3ECE9" d="M342.906,295.898c0-25.862,4.644-44.432,13.794-55.704c9.151-11.273,25.995-16.978,50.399-17.108
			c24.271-0.397,41.115,5.306,50.531,17.108s14.059,30.505,13.793,56.103v2.919c0,26.127-4.511,44.828-13.66,56.102
			c-9.152,11.273-25.996,16.844-50.531,16.844c-24.403,0-41.248-5.702-50.532-17.108c-9.283-11.405-13.927-29.975-13.927-55.836
			L342.906,295.898z M368.901,298.816c0,19.762,2.122,33.423,6.233,41.115s14.723,11.539,31.832,11.539
			c17.108,0,27.719-3.714,31.83-11.273c4.11-7.561,6.102-21.354,6.102-41.381v-2.918c0.266-19.363-1.857-33.024-6.234-41.115
			c-4.375-8.09-14.985-11.936-31.829-11.538c-17.242,0.265-27.854,4.111-31.832,11.671c-3.979,7.562-5.968,21.222-5.968,40.982
			L368.901,298.816z"/>
		<path fill="#F3ECE9" d="M277.131,279.586c0-15.916-1.592-25.729-4.908-29.443c-3.313-3.714-11.803-5.57-25.332-5.57
			c-7.56,0-13.793,1.326-18.7,3.847c-4.906,2.521-9.946,7.957-15.12,16.312l0.267,79.271c0,12,12.749,10.395,21.486,10.973v14.401
			h-69.498l-0.267-14.401c8.737-0.578,21.619,1.027,21.619-10.973s0-72.002,0-79.335c0-20.667-5.967-25.334-21.619-24.461v-14.203
			h44.961l1.857,21.354c2.387-6.897,7.029-12.601,13.926-17.109s16.446-6.765,28.781-6.765c18.7,0,31.564,3.715,38.462,11.142
			c6.896,7.428,10.478,22.282,10.478,44.432v64.946c0,8.403,7.627,10.973,21.752,10.973l-0.266,14.401h-69.498v-14.401
			c8.737-0.578,21.619,1.027,21.619-10.973S277.131,279.586,277.131,279.586z"/>
	</g>
</g>
<g id="Live_Text">
</g>
<g id="Anchors">
</g>
<g id="Parameters">
</g>
<g id="Commentary" display="none">
	
		<text transform="matrix(1 0 0 1 318.0159 571.6775)" display="inline" fill="#FFFFFF" font-family="'HelveticaNeue-Bold'" font-size="20">Bracketed serifs</text>
</g>
</svg>
