<?xml version="1.0" encoding="utf-8"?>
<!-- Generator: Adobe Illustrator 16.0.4, SVG Export Plug-In . SVG Version: 6.00 Build 0)  -->
<!DOCTYPE svg PUBLIC "-//W3C//DTD SVG 1.1//EN" "http://www.w3.org/Graphics/SVG/1.1/DTD/svg11.dtd">
<svg version="1.1" id="Calque_2" xmlns="http://www.w3.org/2000/svg" xmlns:xlink="http://www.w3.org/1999/xlink" x="0px" y="0px"
	 width="832px" height="442px" viewBox="0 0 832 442" enable-background="new 0 0 832 442" xml:space="preserve">
<g>
	<path fill="none" stroke="#F3ECE9" stroke-width="1.5" stroke-linecap="round" stroke-linejoin="round" d="M162.585,249.077
		c-13.396,23.344-33.821,37.932-55.042,37.932c-30.239,0-45.625-15.649-45.625-42.706c0-27.984,23.21-43.768,62.071-43.768h39.656
		v16.977h-40.452c-22.812,0-36.738,12.335-36.738,27.321c0,13.264,8.223,21.088,24.669,21.088c22.282,0,34.086-10.742,47.349-31.433
		L162.585,249.077z M154.627,284.356c-1.724-7.691-2.918-19.098-2.918-28.912v-69.499c0-17.506-11.141-27.852-31.168-27.852
		c-18.568,0-31.035,9.947-31.035,22.547H64.97c0-22.148,23.077-42.441,56.898-42.441c33.024,0,54.378,16.578,54.378,48.012v69.233
		c0,10.212,0.928,19.363,3.713,28.912H154.627z"/>
	<path fill="none" stroke="#F3ECE9" stroke-width="1.5" stroke-linecap="round" stroke-linejoin="round" d="M239.503,171.622
		v112.734h-24.669V171.622v-30.771h22.149L239.503,171.622z M232.341,174.938c11.804-28.383,32.494-36.738,49.604-36.738
		c31.3,0,48.41,16.844,48.41,55.572v90.585h-24.669v-90.055c0-26.394-9.682-35.677-31.035-35.677
		c-16.977,0-29.709,9.946-35.147,22.414L232.341,174.938z"/>
	<path fill="none" stroke="#F3ECE9" stroke-width="1.5" stroke-linecap="round" stroke-linejoin="round" d="M490.43,212.869
		c0,45.228-23.608,74.14-64.06,74.14c-40.585,0-64.193-28.912-64.193-74.14c0-45.359,23.741-74.67,63.927-74.67
		C466.424,138.199,490.43,166.98,490.43,212.869z M465.894,212.869c0-32.759-13.13-54.775-39.789-54.775
		c-26.393,0-39.258,22.017-39.258,54.775c0,33.025,12.732,54.378,39.524,54.378C452.499,267.247,465.894,246.292,465.894,212.869z"
		/>
	<path fill="none" stroke="#F3ECE9" stroke-width="1.5" stroke-linecap="round" stroke-linejoin="round" d="M621.461,250.935
		c-10.212,25.066-26.526,36.074-49.206,36.074c-35.545,0-55.704-25.994-55.704-70.425c0-48.277,19.364-78.385,55.969-78.385
		c21.619,0,35.147,8.621,47.879,31.434l-7.958,9.416c-7.029-12.732-17.772-20.424-33.82-20.424
		c-25.995,0-37.534,21.75-37.534,57.959c0,31.698,11.141,50.001,37.269,50.001c16.579,0,26.791-7.561,34.085-20.955L621.461,250.935
		z M612.442,245.63V77.455h24.537v206.901h-21.354L612.442,245.63z"/>
	<path fill="none" stroke="#F3ECE9" stroke-width="1.5" stroke-linecap="round" stroke-linejoin="round" d="M766.417,206.105
		c0-27.587-6.897-48.012-35.014-48.012c-21.088,0-37.136,22.017-37.136,54.511c0,35.678,14.722,54.643,41.115,54.643
		c17.905,0,30.239-5.172,40.717-14.191l9.682,16.314c-10.478,10.213-26.393,17.639-50.399,17.639
		c-40.584,0-65.254-27.32-65.254-74.404c0-45.359,26.924-74.405,61.275-74.405c38.86,0,58.49,24.271,58.49,60.214L766.417,206.105z
		 M789.893,218.175H682.86v-19.762h107.032V218.175z"/>
</g>
<g>
	<line opacity="0.5" fill="none" stroke="#F3ECE9" stroke-miterlimit="10" x1="790.369" y1="208.354" x2="682.865" y2="208.354"/>
	<path opacity="0.5" fill="none" stroke="#F3ECE9" stroke-miterlimit="10" d="M778.836,202.402c0-16.042-6.503-54.681-47.241-54.681
		s-48.73,37.592-48.73,64.353s12.338,65.097,52.822,65.097c26.941,0,39.041-11.259,45.01-15.995"/>
	<path opacity="0.5" fill="none" stroke="#F3ECE9" stroke-miterlimit="10" d="M478.123,212.907c0-38.788-17.193-64.855-52.1-64.855
		c-34.559,0-51.404,26.067-51.404,64.855c0,39.101,16.672,64.382,51.752,64.382C460.582,277.289,478.123,252.479,478.123,212.907z"
		/>
	<path opacity="0.5" fill="none" stroke="#F3ECE9" stroke-miterlimit="10" d="M616.308,174.367
		c-7.671-15.604-23.89-26.315-40.453-26.315c-31.776,0-47.266,26.067-47.266,64.855c0,39.101,15.329,64.382,47.586,64.382
		c20.009,0,33.529-11.375,40.929-28.865"/>
	<path opacity="0.5" fill="none" stroke="#F3ECE9" stroke-miterlimit="10" d="M236.228,177.355
		c8.777-14.624,23.422-29.424,42.32-29.424c18.896,0,39.901,8.757,39.901,45.947s0,90.576,0,90.576"/>
	<path opacity="0.5" fill="none" stroke="#F3ECE9" stroke-miterlimit="10" d="M76.957,180.661c0-18.785,18.467-33.066,44.396-33.066
		s42.47,18.934,42.47,38.67s0,56.914,0,69.104s0.303,21.471,3.457,29.087"/>
	<path opacity="0.5" fill="none" stroke="#F3ECE9" stroke-miterlimit="10" d="M163.81,208.737c0,0-21.421,0.193-40.221,0.193
		s-49.394,9.813-49.394,35.31s14.099,32.561,34.603,32.561c20.505,0,39.881-15.761,51.438-34.292"/>
	<polyline opacity="0.5" fill="none" stroke="#F3ECE9" stroke-miterlimit="10" points="225.345,140.677 226.958,172.115 
		226.958,284.455 	"/>
	<polyline opacity="0.5" fill="none" stroke="#F3ECE9" stroke-miterlimit="10" points="624.572,77.398 624.572,245.566 
		626.972,284.162 	"/>
</g>
<g>
	<circle fill="#F8172E" cx="121.352" cy="147.595" r="2.755"/>
	<circle fill="#F8172E" cx="76.957" cy="180.661" r="2.756"/>
	<circle fill="#F8172E" cx="163.822" cy="186.265" r="2.755"/>
	<circle fill="#F8172E" cx="164.523" cy="255.368" r="2.756"/>
	<circle fill="#F8172E" cx="160.236" cy="242.509" r="2.755"/>
	<circle fill="#F8172E" cx="163.811" cy="208.737" r="2.755"/>
	<circle fill="#F8172E" cx="123.589" cy="208.931" r="2.756"/>
	<circle fill="#F8172E" cx="74.196" cy="244.24" r="2.755"/>
	<circle fill="#F8172E" cx="167.278" cy="284.455" r="2.755"/>
	<circle fill="#F8172E" cx="226.958" cy="284.455" r="2.755"/>
	<circle fill="#F8172E" cx="226.958" cy="172.115" r="2.755"/>
	<circle fill="#F8172E" cx="236.228" cy="177.355" r="2.756"/>
	<circle fill="#F8172E" cx="278.548" cy="147.932" r="2.755"/>
	<circle fill="#F8172E" cx="318.45" cy="193.879" r="2.755"/>
	<circle fill="#F8172E" cx="225.346" cy="140.677" r="2.755"/>
	<circle fill="#F8172E" cx="318.544" cy="284.355" r="2.756"/>
	<circle fill="#F8172E" cx="426.466" cy="277.311" r="2.756"/>
	<circle fill="#F8172E" cx="575.191" cy="276.908" r="2.756"/>
	<circle fill="#F8172E" cx="616.705" cy="248.291" r="2.756"/>
	<circle fill="#F8172E" cx="626.972" cy="284.162" r="2.755"/>
	<circle fill="#F8172E" cx="624.571" cy="77.398" r="2.755"/>
	<circle fill="#F8172E" cx="731.595" cy="147.722" r="2.755"/>
	<circle fill="#F8172E" cx="778.836" cy="202.402" r="2.755"/>
	<circle fill="#F8172E" cx="790.368" cy="208.354" r="2.755"/>
	<circle fill="#F8172E" cx="682.865" cy="208.354" r="2.756"/>
	<circle fill="#F8172E" cx="682.865" cy="212.074" r="2.756"/>
	<circle fill="#F8172E" cx="735.687" cy="277.171" r="2.755"/>
	<circle fill="#F8172E" cx="780.696" cy="261.176" r="2.755"/>
	<circle fill="#F8172E" cx="624.571" cy="245.566" r="2.755"/>
	<circle fill="#F8172E" cx="426.466" cy="148.335" r="2.756"/>
	<circle fill="#F8172E" cx="575.19" cy="148.335" r="2.755"/>
	<circle fill="#F8172E" cx="616.838" cy="174.633" r="2.755"/>
	<circle fill="#F8172E" cx="374.942" cy="212.822" r="2.755"/>
	<circle fill="#F8172E" cx="478.122" cy="212.822" r="2.755"/>
	<circle fill="#F8172E" cx="528.84" cy="216.45" r="2.755"/>
	<circle fill="#F8172E" cx="108.799" cy="276.801" r="2.755"/>
</g>
<g>
	<text transform="matrix(1 0 0 1 179.3286 129.6338)" fill="#FFFFFF" font-family="'HelveticaNeue'" font-size="9">x-height</text>
</g>
<g>
	<text transform="matrix(1 0 0 1 409.1167 129.6338)" fill="#FFFFFF" font-family="'HelveticaNeue'" font-size="9">contrast</text>
</g>
<g>
	<text transform="matrix(1 0 0 1 214.2808 309.3301)" fill="#FFFFFF" font-family="'HelveticaNeue'" font-size="9">weight</text>
</g>
<g>
	<text transform="matrix(1 0 0 1 643.1006 66.3936)" fill="#FFFFFF" font-family="'HelveticaNeue'" font-size="9">ascender</text>
</g>
<text transform="matrix(1 0 0 1 330.3105 367.3828)" fill="#FFFFFF" font-family="'HelveticaNeue'" font-size="9">spacing</text>
<g>
	<text transform="matrix(1 0 0 1 722.3896 309.3301)" fill="#FFFFFF" font-family="'HelveticaNeue'" font-size="9">width</text>
</g>
<rect x="331.659" y="77.315" opacity="0.25" fill="#F3ECE9" width="29.409" height="262.061"/>
<g opacity="0.5">
	<g>
		<line fill="none" stroke="#E84E1B" stroke-miterlimit="10" x1="203.5" y1="141" x2="203.5" y2="285"/>
		<g>
			<rect x="201" y="141" fill="#E84E1B" width="6" height="1"/>
		</g>
		<g>
			<rect x="201" y="284" fill="#E84E1B" width="6" height="1"/>
		</g>
	</g>
</g>
<g opacity="0.5">
	<g>
		<line fill="none" stroke="#E84E1B" stroke-miterlimit="10" x1="214" y1="293.5" x2="239" y2="293.5"/>
		<g>
			<rect x="214" y="291" fill="#E84E1B" width="1" height="6"/>
		</g>
		<g>
			<rect x="239" y="291" fill="#E84E1B" width="1" height="6"/>
		</g>
	</g>
</g>
<g opacity="0.5">
	<g>
		<line fill="none" stroke="#E84E1B" stroke-miterlimit="10" x1="332" y1="351.5" x2="360" y2="351.5"/>
		<g>
			<rect x="332" y="349" fill="#E84E1B" width="1" height="6"/>
		</g>
		<g>
			<rect x="360" y="349" fill="#E84E1B" width="1" height="6"/>
		</g>
	</g>
</g>
<g opacity="0.5">
	<g>
		<line fill="none" stroke="#E84E1B" stroke-miterlimit="10" x1="673" y1="292.5" x2="791" y2="292.5"/>
		<g>
			<rect x="673" y="290" fill="#E84E1B" width="1" height="6"/>
		</g>
		<g>
			<rect x="791" y="290" fill="#E84E1B" width="1" height="6"/>
		</g>
	</g>
</g>
<g opacity="0.5">
	<g>
		<line fill="none" stroke="#E84E1B" stroke-miterlimit="10" x1="647.5" y1="284" x2="647.5" y2="78"/>
		<g>
			<rect x="644" y="283" fill="#E84E1B" width="7" height="1"/>
		</g>
		<g>
			<rect x="644" y="77" fill="#E84E1B" width="7" height="1"/>
		</g>
	</g>
</g>
<line opacity="0.5" fill="none" stroke="#F3ECE9" stroke-miterlimit="10" x1="54.5" y1="284.337" x2="810" y2="284.337"/>
</svg>
