<?xml version="1.0" encoding="utf-8"?>
<!-- Generator: Adobe Illustrator 16.0.4, SVG Export Plug-In . SVG Version: 6.00 Build 0)  -->
<!DOCTYPE svg PUBLIC "-//W3C//DTD SVG 1.1//EN" "http://www.w3.org/Graphics/SVG/1.1/DTD/svg11.dtd">
<svg version="1.1" id="Calque_2" xmlns="http://www.w3.org/2000/svg" xmlns:xlink="http://www.w3.org/1999/xlink" x="0px" y="0px"
	 width="364px" height="402px" viewBox="0 0 364 402" enable-background="new 0 0 364 402" xml:space="preserve">
<g>
	<path fill="#1D1D1A" d="M241.688,254.329c-18.647,32.496-47.082,52.806-76.624,52.806c-42.099,0-63.516-21.786-63.516-59.453
		c0-38.959,32.312-60.93,86.41-60.93h55.206v23.632H186.85c-31.757,0-51.144,17.173-51.144,38.037
		c0,18.462,11.447,29.357,34.341,29.357c31.019,0,47.453-14.957,65.917-43.759L241.688,254.329z M230.608,303.441
		c-2.398-10.707-4.061-26.587-4.061-40.249v-96.751c0-24.371-15.508-38.773-43.39-38.773c-25.848,0-43.204,13.848-43.204,31.389
		h-34.158c0-30.834,32.127-59.085,79.21-59.085c45.972,0,75.699,23.079,75.699,66.839v96.382c0,14.217,1.292,26.956,5.17,40.249
		H230.608z"/>
</g>
<g>
	<path opacity="0.5" fill="none" stroke="#F3ECE9" stroke-width="1.3921" stroke-miterlimit="10" d="M122.481,159.084
		c0-26.15,25.708-46.031,61.804-46.031s59.123,26.358,59.123,53.833c0,27.476,0,79.231,0,96.201c0,16.969,0.422,29.89,4.813,40.492"
		/>
	<path opacity="0.5" fill="none" stroke="#F3ECE9" stroke-width="1.3921" stroke-miterlimit="10" d="M243.393,198.17
		c0,0-29.821,0.27-55.993,0.27c-26.171,0-68.762,13.66-68.762,49.154s19.626,45.329,48.17,45.329
		c28.547,0,55.521-21.942,71.608-47.738"/>
</g>
<g>
	<circle fill="#F8172E" cx="184.285" cy="113.053" r="3.835"/>
	<circle fill="#F8172E" cx="122.481" cy="159.084" r="3.837"/>
	<circle fill="#F8172E" cx="243.409" cy="166.886" r="3.836"/>
	<circle fill="#F8172E" cx="244.385" cy="263.087" r="3.836"/>
	<circle fill="#F8172E" cx="238.417" cy="245.185" r="3.836"/>
	<circle fill="#F8172E" cx="243.393" cy="198.17" r="3.835"/>
	<circle fill="#F8172E" cx="187.4" cy="198.439" r="3.837"/>
	<circle fill="#F8172E" cx="118.638" cy="247.594" r="3.835"/>
	<circle fill="#F8172E" cx="248.22" cy="303.579" r="3.835"/>
	<circle fill="#F8172E" cx="166.81" cy="292.923" r="3.836"/>
</g>
<g>
	<path fill="#F3ECE9" d="M162.92,217.084c0,1.531-1.253,2.784-2.784,2.784h-32.597c-1.531,0-2.784-1.253-2.784-2.784v-8.835
		c0-1.531,1.253-2.784,2.784-2.784h32.597c1.531,0,2.784,1.253,2.784,2.784V217.084z"/>
</g>
<g>
	<path fill="#F3ECE9" d="M150.267,284.766c0,1.531-1.253,2.784-2.784,2.784h-32.598c-1.531,0-2.784-1.253-2.784-2.784v-8.835
		c0-1.531,1.253-2.784,2.784-2.784h32.598c1.531,0,2.784,1.253,2.784,2.784V284.766z"/>
</g>
<g>
	<path fill="#F3ECE9" d="M228.386,284.766c0,1.531-1.253,2.784-2.784,2.784h-32.596c-1.531,0-2.784-1.253-2.784-2.784v-8.835
		c0-1.531,1.253-2.784,2.784-2.784h32.596c1.531,0,2.784,1.253,2.784,2.784V284.766z"/>
</g>
<g>
	<path fill="#F3ECE9" d="M245.467,133.719c0,1.531-1.253,2.784-2.784,2.784h-32.596c-1.531,0-2.784-1.253-2.784-2.784v-8.835
		c0-1.531,1.253-2.784,2.784-2.784h32.596c1.531,0,2.784,1.253,2.784,2.784V133.719z"/>
</g>
<g>
	<path fill="#F3ECE9" d="M165.258,133.719c0,1.531-1.253,2.784-2.784,2.784h-32.598c-1.531,0-2.784-1.253-2.784-2.784v-8.835
		c0-1.531,1.253-2.784,2.784-2.784h32.598c1.531,0,2.784,1.253,2.784,2.784V133.719z"/>
</g>
<g>
	<path fill="#F3ECE9" d="M223.17,249.289c0,1.319-1.08,2.399-2.399,2.399h-25.27c-1.319,0-2.399-1.08-2.399-2.399v-9.604
		c0-1.32,1.08-2.399,2.399-2.399h25.27c1.319,0,2.399,1.079,2.399,2.399V249.289z"/>
</g>
<g>
	<path fill="#F3ECE9" d="M207.161,87.1c0,1.531-1.253,2.784-2.784,2.784h-40.183c-1.531,0-2.784-1.253-2.784-2.784v-8.834
		c0-1.531,1.253-2.784,2.784-2.784h40.183c1.531,0,2.784,1.253,2.784,2.784V87.1z"/>
</g>
<g>
	<path fill="#F3ECE9" d="M191.551,326.354c0,1.531-1.253,2.784-2.784,2.784h-48.314c-1.531,0-2.784-1.253-2.784-2.784v-8.834
		c0-1.531,1.253-2.784,2.784-2.784h48.314c1.531,0,2.784,1.253,2.784,2.784V326.354z"/>
</g>
<g>
	<path fill="#F3ECE9" d="M279.339,326.354c0,1.531-1.253,2.784-2.784,2.784h-53.883c-1.531,0-2.784-1.253-2.784-2.784v-8.834
		c0-1.531,1.253-2.784,2.784-2.784h53.883c1.531,0,2.784,1.253,2.784,2.784V326.354z"/>
</g>
<text transform="matrix(1 0 0 1 128.3687 215.8945)" font-family="'HelveticaNeue'" font-size="8.9967">tension</text>
<text transform="matrix(1 0 0 1 115.7163 283.5752)" font-family="'HelveticaNeue'" font-size="8.9967">tension</text>
<text transform="matrix(1 0 0 1 193.8359 283.5752)" font-family="'HelveticaNeue'" font-size="8.9967">tension</text>
<text transform="matrix(1 0 0 1 210.917 132.5273)" font-family="'HelveticaNeue'" font-size="8.9967">tension</text>
<text transform="matrix(1 0 0 1 130.7075 132.5273)" font-family="'HelveticaNeue'" font-size="8.9967">tension</text>
<text transform="matrix(1 0 0 1 196.5435 247.0186)" font-family="'HelveticaNeue'" font-size="8.9967">angle</text>
<g>
	<path fill="#F3ECE9" d="M137.515,179.005c0,1.32-1.08,2.399-2.399,2.399h-25.27c-1.319,0-2.399-1.079-2.399-2.399v-9.605
		c0-1.32,1.08-2.399,2.399-2.399h25.27c1.319,0,2.399,1.079,2.399,2.399V179.005z"/>
</g>
<text transform="matrix(1 0 0 1 110.8882 176.7314)" font-family="'HelveticaNeue'" font-size="8.9967">angle</text>
<text transform="matrix(1 0 0 1 163.2998 85.9082)" font-family="'HelveticaNeue'" font-size="8.9967">overshoot</text>
<text transform="matrix(1 0 0 1 63.0562 32.5176)" fill="#F3ECE9" font-family="'HelveticaNeue'" font-size="8.9967">spacing</text>
<text transform="matrix(1 0 0 1 167.0571 361.7217)" fill="#F3ECE9" font-family="'HelveticaNeue'" font-size="8.9967">width</text>
<text transform="matrix(1 0 0 1 139.5591 325.1631)" font-family="'HelveticaNeue'" font-size="8.9967">undershoot</text>
<text transform="matrix(1 0 0 1 223.1704 325.1631)" font-family="'HelveticaNeue'" font-size="8.9967">stroke width</text>
<rect x="59.2" y="54.007" opacity="0.25" fill="#F3ECE9" width="42.348" height="290.655"/>
<text transform="matrix(1 0 0 1 287.4199 196.0439)" fill="#F3ECE9" font-family="'HelveticaNeue'" font-size="8.9967">x-height</text>
<g opacity="0.5">
	<g>
		<line fill="none" stroke="#E84E1B" stroke-miterlimit="10" x1="280.5" y1="103" x2="280.5" y2="305"/>
		<g>
			<rect x="278" y="103" fill="#E84E1B" width="6" height="1"/>
		</g>
		<g>
			<rect x="278" y="304" fill="#E84E1B" width="6" height="1"/>
		</g>
	</g>
</g>
<g opacity="0.5">
	<g>
		<line fill="none" stroke="#E84E1B" stroke-miterlimit="10" x1="102" y1="348.5" x2="261" y2="348.5"/>
		<g>
			<rect x="102" y="345" fill="#E84E1B" width="1" height="6"/>
		</g>
		<g>
			<rect x="261" y="345" fill="#E84E1B" width="1" height="6"/>
		</g>
	</g>
</g>
<g opacity="0.5">
	<g>
		<line fill="none" stroke="#E84E1B" stroke-miterlimit="10" x1="101" y1="44.5" x2="59" y2="44.5"/>
		<g>
			<rect x="101" y="41" fill="#E84E1B" width="1" height="7"/>
		</g>
		<g>
			<rect x="59" y="41" fill="#E84E1B" width="1" height="7"/>
		</g>
	</g>
</g>
</svg>
