<?xml version="1.0" encoding="utf-8"?>
<!-- Generator: Adobe Illustrator 16.0.0, SVG Export Plug-In . SVG Version: 6.00 Build 0)  -->
<!DOCTYPE svg PUBLIC "-//W3C//DTD SVG 1.1//EN" "http://www.w3.org/Graphics/SVG/1.1/DTD/svg11.dtd" [
	<!ENTITY ns_extend "http://ns.adobe.com/Extensibility/1.0/">
	<!ENTITY ns_ai "http://ns.adobe.com/AdobeIllustrator/10.0/">
	<!ENTITY ns_graphs "http://ns.adobe.com/Graphs/1.0/">
	<!ENTITY ns_vars "http://ns.adobe.com/Variables/1.0/">
	<!ENTITY ns_imrep "http://ns.adobe.com/ImageReplacement/1.0/">
	<!ENTITY ns_sfw "http://ns.adobe.com/SaveForWeb/1.0/">
	<!ENTITY ns_custom "http://ns.adobe.com/GenericCustomNamespace/1.0/">
	<!ENTITY ns_adobe_xpath "http://ns.adobe.com/XPath/1.0/">
]>
<svg version="1.1" id="Calque_2" xmlns:x="&ns_extend;" xmlns:i="&ns_ai;" xmlns:graph="&ns_graphs;"
	 xmlns="http://www.w3.org/2000/svg" xmlns:xlink="http://www.w3.org/1999/xlink" x="0px" y="0px" width="676px" height="597px"
	 viewBox="0 0 676 597" enable-background="new 0 0 676 597" xml:space="preserve">
<metadata>
	<sfw  xmlns="&ns_sfw;">
		<slices></slices>
		<sliceSourceBounds  width="644.664" height="572.445" y="17.791" x="98.289" bottomLeftOrigin="true"></sliceSourceBounds>
	</sfw>
</metadata>
<line fill="none" stroke="#000000" stroke-width="1.2763" stroke-miterlimit="10" x1="292.904" y1="107.225" x2="251.944" y2="145.895"/>
<path fill="#1D1D1B" stroke="#000000" stroke-width="1.2763" stroke-miterlimit="10" d="M246.267,151.235
	c1.771-3.577,3.521-8.481,3.891-12.281l2.65,6.112l5.943,3C254.939,148.217,249.94,149.678,246.267,151.235"/>
<line fill="none" stroke="#000000" stroke-width="1.2763" stroke-miterlimit="10" x1="292.904" y1="268.573" x2="251.944" y2="307.239"/>
<path fill="#1D1D1B" stroke="#000000" stroke-width="1.2763" stroke-miterlimit="10" d="M246.267,312.579
	c1.771-3.577,3.521-8.479,3.891-12.281l2.65,6.112l5.943,3.002C254.939,309.561,249.94,311.021,246.267,312.579"/>
<line fill="none" stroke="#000000" stroke-width="1.2763" stroke-miterlimit="10" x1="490.365" y1="429.187" x2="490.323" y2="460.832"/>
<path fill="#1D1D1B" stroke="#000000" stroke-width="1.2763" stroke-miterlimit="10" d="M490.45,468.785
	c-1.37-3.748-3.729-8.386-6.229-11.273l6.256,2.286l6.268-2.25C494.233,460.416,491.853,465.052,490.45,468.785"/>
<line fill="none" stroke="#000000" stroke-width="1.2763" stroke-miterlimit="10" x1="490.331" y1="275.161" x2="490.323" y2="307.524"/>
<path fill="#1D1D1B" stroke="#000000" stroke-width="1.2763" stroke-miterlimit="10" d="M490.45,315.479
	c-1.37-3.748-3.729-8.391-6.229-11.274l6.256,2.283l6.268-2.25C494.233,307.11,491.853,311.744,490.45,315.479"/>
<line fill="none" stroke="#000000" stroke-width="1.2763" stroke-miterlimit="10" x1="514.781" y1="274.077" x2="602.818" y2="450.155"/>
<path fill="#1D1D1B" stroke="#000000" stroke-width="1.2763" stroke-miterlimit="10" d="M606.229,457.199
	c-2.912-2.727-7.102-5.822-10.632-7.273l6.619-0.771l4.592-4.82C605.843,448.021,605.799,453.232,606.229,457.199"/>
<line fill="none" stroke="#000000" stroke-width="1.2763" stroke-miterlimit="10" x1="294.608" y1="414.476" x2="125.04" y2="478.26"/>
<path fill="#1D1D1B" stroke="#000000" stroke-width="1.2763" stroke-miterlimit="10" d="M117.651,480.907
	c3.016-2.612,6.528-6.462,8.345-9.815l0.074,6.665l4.319,5.07C126.813,481.479,121.639,480.888,117.651,480.907"/>
<path fill="none" stroke="#000000" stroke-width="1.2763" stroke-miterlimit="10" d="M145.541,266.029
	c0,0-47.636,24.622-47.636,82.659c0,45.1,31.161,73.73,45.056,84.261"/>
<path fill="#1D1D1B" stroke="#000000" stroke-width="1.2763" stroke-miterlimit="10" d="M149.42,437.361
	c-3.854-1.025-9.009-1.773-12.807-1.391l5.47-3.802l1.769-6.415C144.748,429.456,147.167,434.073,149.42,437.361"/>
<path fill="#1D1D1B" d="M368.974,537.316h-16.158c-7.582,0-13.65,1.728-18.042,4.766c-4.86,3.407-7.467,8.309-7.467,14.195
	c0,4.481,1.512,8.378,4.262,11.241c2.834,2.951,6.84,4.719,11.751,4.719c5.944,0,11.08-1.411,15.338-4.112
	c4.523-2.887,7.988-7.172,10.315-12.689L368.974,537.316L368.974,537.316L368.974,537.316z M369.02,563.261
	c-2.274,3.921-5.714,7.533-10.12,10.26c-4.665,2.908-10.438,4.688-17.148,4.688c-6.644,0-11.998-1.778-15.901-5.043
	c-4.612-3.87-7.084-9.716-7.084-16.991c0-8.062,3.844-14.805,11.216-19.154c5.646-3.314,13.257-5.146,22.675-5.146h16.318v-10.663
	c0-6.263-1.705-11.099-5.026-14.403c-3.321-3.3-8.215-5.01-14.591-5.01c-5.517,0-10.188,1.525-13.7,4.273
	c-4.067,3.179-6.39,7.849-6.39,13.419l-8.55-0.164c0-7.093,3.3-13.274,9.196-17.682c5.126-3.803,11.844-5.912,19.834-5.912
	c8.546,0,15.402,2.188,20.303,6.496c4.892,4.321,7.479,10.713,7.479,19.134v38.392c0,5.81,1.072,12.437,2.379,16.922h-8.848
	c-0.498-2.621-0.935-4.73-1.248-6.534C369.436,567.854,369.194,565.534,369.02,563.261z"/>
<path fill="#1D1D1B" d="M225.369,206.671h-20.927c-10.376,0-18.689,1.819-24.755,5.326c-6.395,3.697-9.692,8.896-9.692,15.3
	c0,5.074,1.97,9.354,5.739,12.604c3.775,3.252,8.955,5.002,15.392,5.002c8.067,0,15.005-1.631,20.763-4.851
	c5.904-3.315,10.417-8.153,13.482-14.455v-18.932L225.369,206.671L225.369,206.671z M225.134,232.664
	c-3.165,4.646-7.562,8.469-13.16,11.372c-5.765,2.984-12.736,4.584-20.923,4.584c-7.788,0-13.933-1.835-18.361-5.368
	c-4.815-3.879-7.296-9.393-7.296-16.274c0-7.74,3.915-13.977,11.432-18.327c6.764-3.884,15.927-5.911,27.377-5.911h21.167v-11.657
	c0-6.805-2.252-12.051-6.684-15.662c-4.435-3.616-10.872-5.467-19.252-5.467c-7.623,0-14.029,1.76-18.983,5.121
	c-5.318,3.604-8.143,8.551-8.143,14.418l-4.608-0.181c0-6.725,3.352-12.586,9.632-16.984c5.777-4.059,13.239-6.195,22.141-6.195
	c9.43,0,16.934,2.131,22.33,6.355c5.393,4.223,8.177,10.484,8.177,18.737v39.871c0,3.972,1.121,12.277,2.245,15.979h-5.077
	c-0.643-3.282-1.083-5.668-1.338-7.385C225.507,237.599,225.205,233.927,225.134,232.664z"/>
<path fill="#1D1D1B" d="M189.964,574.321c11.322,0,19.684-1.598,26.236-5.236c5.765-3.197,10.099-7.728,13.306-13.858v-18.881
	h-24.121c-13.661,0-23.465,1.69-30.151,5.24c-6.683,3.555-9.651,8.577-9.651,15.251c0,5.548,1.999,9.718,5.979,12.773
	C175.823,572.911,181.973,574.321,189.964,574.321z M229.229,562.344c-2.854,4.555-6.918,8.097-12.221,10.881
	c-6.489,3.418-15.13,4.981-27.042,4.981c-9.503,0-16.913-1.808-22.017-5.77c-4.801-3.734-7.269-8.961-7.269-15.898
	c0-7.95,3.6-13.895,11.185-18.082c7.585-4.189,18.543-6.159,33.247-6.159h24.392v-11.605c0-6.678-1.9-11.896-6.66-15.514
	c-4.759-3.617-12.193-5.494-23.264-5.494c-10.58,0-18.188,1.847-23.563,5.321c-5.51,3.573-7.812,8.339-7.812,14.07l-4.902-0.146
	c0-6.737,2.671-12.346,8.874-16.662c6.204-4.311,15.053-6.543,27.408-6.543c12.462,0,21.04,2.188,26.757,6.458
	c5.711,4.262,8.061,10.526,8.061,18.659v39.805c0,2.846,1.569,13.374,2.539,16.014h-5.442c-0.791-3.522-1.314-6.138-1.585-7.819
	C229.639,567.159,229.229,562.344,229.229,562.344z"/>
<path fill="#1D1D1B" d="M511.952,206.31c0,0-8.641,0-16.145,0c-8.426,0-14.831,1.915-19.228,5.352
	c-4.693,3.668-7.155,9.046-7.155,15.733c0,4.272,1.132,9.521,4.214,13.336c2.638,3.264,6.623,5.412,12.021,5.412
	c6.305,0,11.525-1.738,15.755-4.77c4.733-3.391,8.188-8.216,10.546-14.104v-20.96H511.952z M516.12,191.178v39.951
	c0,5.661,0.456,10.663,1.812,15.942h-4.53c-0.426-2.906-0.73-4.971-0.952-6.715c-0.354-2.709-0.521-4.655-0.685-7.82
	c-2.375,4.546-5.637,8.416-9.755,11.217c-4.511,3.076-10.045,4.866-16.537,4.866c-5.595,0-10.163-1.634-13.536-4.562
	c-4.335-3.765-6.684-9.688-6.684-17.03c0-7.594,3.202-14.246,9.967-18.481c4.896-3.062,11.66-4.878,20.408-4.878h16.322v-12.64
	c0-6.863-1.771-13.119-5.14-16.731c-3.384-3.601-8.367-5.537-14.81-5.537c-5.386,0-10.096,1.749-13.662,4.607
	c-4.438,3.544-7.103,9.812-7.103,16.12l-4.171-0.221c0-7.189,3.293-13.615,8.784-17.854c4.264-3.305,9.854-5.283,16.237-5.283
	c7.44,0,13.443,2.146,17.596,6.355C513.828,176.692,516.12,182.954,516.12,191.178z"/>
<path fill="#1D1D1B" d="M649.815,537.075c0,0-11.587,0-14.584,0c-7.107,0-12.722,1.827-16.596,4.929
	c-4.279,3.43-6.576,8.415-6.576,14.397c0,4.156,1.217,8.435,3.765,11.571c2.469,3.041,6.122,4.993,10.761,4.993
	c5.466,0,10.082-1.46,13.846-4.093c4.175-2.933,7.295-7.199,9.387-12.538L649.815,537.075L649.815,537.075z M651.819,576.67
	c-0.422-2.493-0.834-4.549-1.138-6.366c-0.4-2.448-0.597-4.298-0.785-7.056c-1.973,3.805-5.032,7.414-9.021,10.139
	c-4.306,2.94-9.673,4.818-15.906,4.818c-5.953,0-10.839-1.725-14.404-4.809c-4.456-3.836-6.895-9.676-6.895-17.067
	c0-7.908,3.563-14.809,10.778-19.129c5.059-3.032,11.908-4.815,20.533-4.815h14.828v-11.589c0-6.308-1.555-11.561-4.56-14.868
	c-2.991-3.321-7.445-5.066-13.235-5.066c-4.812,0-8.963,1.526-12.051,4.131c-3.854,3.231-6.097,8.562-6.097,14.49l-8.396-0.18
	c0-7.207,3.267-13.556,8.896-17.904c4.654-3.598,10.818-5.665,18.056-5.665c7.93,0,14.33,2.191,18.846,6.503
	c4.513,4.309,6.94,10.701,6.94,19.104v38.396c0,6.505,0.882,12.021,2.244,16.938L651.819,576.67L651.819,576.67L651.819,576.67z"/>
<path fill="#1D1D1B" d="M509.342,374.013c0,0,0.813,0-14.191,0c-8.539,0-14.938,2.118-18.626,5.928
	c-3.416,3.55-4.954,8.546-4.954,14.599c0,2.946,0.568,8.648,3.468,12.962c2.222,3.312,5.703,5.82,11.072,5.82
	c5.931,0,10.522-1.704,14.107-4.337c4.25-3.112,7.104-7.129,9.124-11.512V374.013L509.342,374.013z M511.334,414.392
	c-0.42-2.491-0.825-4.55-1.139-6.366c-0.399-2.446-0.591-4.295-0.785-7.057c-1.973,3.802-5.025,7.413-9.017,10.135
	c-4.302,2.95-9.662,4.818-15.905,4.818c-5.949,0-10.831-1.72-14.407-4.812c-4.454-3.836-6.885-9.147-6.885-16.539
	c0-6.588,2.514-13.296,9.484-17.573c4.865-3.003,11.899-4.901,21.823-4.901h14.837v-15.185c0-6.422-1.566-13.244-4.558-16.619
	c-3.005-3.384-7.46-5.228-13.239-5.228c-4.714,0-8.813,1.643-11.859,4.21c-4.127,3.484-6.295,11.015-6.295,17.923l-8.39-0.182
	c0-7.206,3.258-13.565,8.896-17.917c4.652-3.604,10.814-5.665,18.053-5.665c7.933,0,14.332,2.189,18.846,6.505
	c4.513,4.305,6.95,10.7,6.95,19.105v38.394c0,6.51,0.877,12.021,2.247,16.938h-8.646v0.013L511.334,414.392L511.334,414.392z"/>
<path fill="#1D1D1B" d="M213.947,375.582c0,0-8.339,0-12.835,0c-6.5,0-11.703,1.884-14.982,5.009
	c-3.416,3.257-5.172,7.852-5.172,13.163c0,3.444,0.944,7.472,3.16,10.503c2.167,2.964,5.412,4.978,9.675,4.978
	c4.837,0,8.847-1.306,12.062-3.547c3.649-2.534,6.297-6.146,8.095-10.444L213.947,375.582L213.947,375.582z M216.489,414.4
	c-0.413-2.073-0.935-4.12-1.31-6.031c-0.441-2.179-0.678-3.937-0.905-6.282c-1.553,3.052-4.411,6.407-8.275,9.055
	c-4.099,2.812-9.292,4.765-15.264,4.765c-6.315,0-11.504-1.81-15.279-5.042c-4.57-3.918-7.09-9.409-7.09-16.848
	c0-7.551,3.394-14.625,10.935-19.01c5.125-2.986,12.146-4.793,21.292-4.793h13.349V357.87c0-5.801-1.355-10.83-3.968-13.884
	c-2.634-3.054-6.539-4.654-11.659-4.654c-4.213,0-7.755,1.356-10.359,3.687c-3.4,3.041-5.181,8.532-5.181,14.58l-12.629-0.127
	c0-7.236,3.218-13.51,9.007-17.984c5.048-3.888,11.779-6.039,19.864-6.039c8.422,0,15.214,2.233,20.097,6.653
	c4.884,4.415,7.449,10.934,7.449,19.508v36.851c0,7.345,1.316,13.38,2.688,17.936h-12.764L216.489,414.4L216.489,414.4z"/>
<path fill="#1D1D1B" d="M487.911,569.232c2.685,0,4.846-0.827,6.578-2.14c2.016-1.534,3.438-3.744,4.397-6.089v-21.815h-6.372
	c-3.588,0-8.536,2.248-10.1,5.505c-1.547,3.245-2.205,7.488-2.205,11.486c0,2.74,0.578,5.451,1.566,7.697
	C483.184,567.03,485.384,569.232,487.911,569.232z M503.06,576.702c-0.395-0.822-1.147-2.874-1.842-4.98
	c-0.473-1.413-0.927-2.862-1.234-3.983c-0.312,0.792-2.574,3.393-6.05,5.806c-3.48,2.415-8.172,4.63-13.359,4.63
	c-7.392,0-13.497-2.076-17.892-5.771c-4.918-4.144-7.681-7.044-7.681-14.599c0-7.483,3.678-15.417,12.381-19.797
	c5.459-2.745,12.889-4.444,22.621-4.444h8.886v-20.057c0-4.638-0.743-8.166-2.22-10.597c-1.483-2.431-3.791-3.645-6.938-3.645
	c-2.048,0-3.554,0.729-4.667,2.083c-2.736,3.34-3.049,10.496-3.049,19.763h-25.288c0-7.299,3.105-13.353,9.334-18.139
	c6.229-4.801,14.656-7.206,25.303-7.206c9.916,0,17.858,2.364,23.845,7.094c5.985,4.728,8.988,11.644,8.988,20.753v32.169
	c0,9.884,2.588,17.506,3.985,20.936h-25.127L503.06,576.702L503.06,576.702z"/>
<path fill="#1D1D1B" d="M54.324,562.381c5.656,0,9.485-0.458,12.173-1.354c3.632-1.207,5.179-3.219,6.318-5.993v-13.146
	c0,0,3.323-0.344-13.508,0c-7.214,0-11.393,0.736-13.81,2.108c-3.455,1.959-3.325,5.238-3.325,9.574c0,4.54,1.41,6.833,4.467,7.921
	C48.545,562.172,51.088,562.381,54.324,562.381z M77.264,576.707c-0.78-1.469-1.483-3.013-2.083-4.632
	c-0.613-1.616-2.136-3.34-1.448-4.986c-1.364,3.312-3.207,5.767-6.059,7.521c-4.149,2.531-10.446,3.569-20.51,3.569
	c-11.884,0-19.999-0.611-24.989-4.447c-4.408-3.376-6.386-9.257-6.386-19.425c0-9.279,2.571-15.096,7.822-18.739
	c7.015-4.856,18.837-5.789,35.701-5.789h13.512v-6.315c0-4.938-0.95-7.939-3.231-9.711c-2.334-1.803-6.048-2.34-11.544-2.34
	c-5.444,0-8.864,0.584-10.931,2.058c-2.058,1.473-2.768,3.844-2.768,7.418H17.958c0-10.057,2.499-16.691,10.479-20.608
	c6.405-3.129,16.334-4.518,31.313-4.518c18.039,0,28.12,2.375,33.597,7.579c4.758,4.52,6.039,11.177,6.039,20.268v32.826
	c0,3.829,2.839,17.003,4.356,20.281L77.264,576.707L77.264,576.707z"/>
<path fill="#F3ECE9" d="M345.665,72.529c3.48,0,5.929-0.469,7.638-1.311c1.984-0.979,2.945-2.474,3.33-4.346V51.887h-8.888
	c-3.272,0-5.534,0.852-7.104,2.378c-1.914,1.843-2.69,4.826-2.69,9.296c0,2.567,0.442,4.659,1.511,6.162
	C340.723,71.482,342.74,72.529,345.665,72.529z M360.809,86.698c-0.403-0.816-1.145-2.864-1.847-4.975
	c-0.476-1.421-0.921-2.793-1.237-3.98c-0.741,2.402-2.242,4.95-5.023,6.921c-2.969,2.114-7.474,3.51-14.377,3.51
	c-8.813,0-15.29-1.765-19.545-5.929c-3.951-3.862-6.034-9.692-6.034-17.728c0-8.77,1.648-15.704,8.76-19.947
	c5.125-3.041,13.244-4.653,26.242-4.653h8.889v-6.461c0-4.566-0.781-7.563-2.293-9.452c-1.525-1.881-3.829-2.6-6.864-2.6
	c-2.558,0-4.359,0.569-5.579,1.783c-1.502,1.491-2.129,4.001-2.129,7.922h-25.297c0-9.501,2.571-15.726,8.321-19.797
	c5.755-4.073,14.324-5.549,26.323-5.549c10.622,0,18.368,1.832,23.833,5.645c6.406,4.468,8.994,11.681,8.994,22.191v32.17
	c0,9.886,2.593,17.503,3.988,20.929H360.809L360.809,86.698L360.809,86.698z"/>
<path fill="#1D1D1B" d="M345.668,232.934c3.478,0,5.927-0.467,7.634-1.311c1.984-0.98,2.946-2.474,3.33-4.346v-14.983h-8.887
	c-3.272,0-5.534,0.854-7.104,2.378c-1.914,1.846-2.69,4.828-2.69,9.299c0,2.566,0.442,4.657,1.511,6.161
	C340.723,231.888,342.74,232.934,345.668,232.934z M360.809,247.104c-0.405-0.815-1.145-2.864-1.848-4.976
	c-0.475-1.421-0.921-2.792-1.237-3.98c-0.743,2.402-2.242,4.95-5.026,6.922c-2.966,2.114-7.471,3.511-14.375,3.511
	c-8.812,0-15.288-1.767-19.544-5.93c-3.951-3.861-6.034-9.692-6.034-17.727c0-8.769,1.648-15.705,8.762-19.947
	c5.124-3.04,13.244-4.654,26.24-4.654h8.887v-6.46c0-4.566-0.779-7.565-2.292-9.452c-1.525-1.879-3.829-2.6-6.863-2.6
	c-2.558,0-4.359,0.57-5.579,1.785c-1.502,1.49-2.129,4-2.129,7.922h-25.296c0-9.502,2.57-15.728,8.32-19.798
	c5.755-4.073,14.324-5.55,26.323-5.55c10.622,0,18.37,1.831,23.833,5.645c6.406,4.47,8.994,11.683,8.994,22.191v32.172
	c0,9.886,2.594,17.504,3.989,20.929h-25.123L360.809,247.104L360.809,247.104z"/>
<path fill="#1D1D1B" d="M345.311,407.979c3.901,0,6.703-1.087,8.639-2.943c2.517-2.408,3.601-6.115,3.845-10.462v-17.599
	c0,0-6.452-0.107-9.812,0c-3.892,0-6.48,0.66-8.183,2.386c-2.455,2.476-3.079,6.785-3.079,14.948c0,5.146,0.614,8.564,2.066,10.724
	C340.13,407.02,342.132,407.979,345.311,407.979z M362.016,414.41c-0.477-0.95-1.218-2.896-1.896-4.906
	c-0.492-1.463-1.156-2.883-1.271-4.185c-0.691,3.14-1.923,5.093-4.327,7.104c-2.68,2.23-8.047,3.46-16.51,3.46
	c-10.178,0-17.222-1.347-21.515-5.709c-3.553-3.603-5.225-9.273-5.225-17.979c0-8.985,1.714-13.906,7.187-16.974
	c5.565-3.139,14.88-3.921,29.52-3.921h9.812v-17.766c0-5.981-0.752-9.413-2.42-11.35c-1.666-1.941-4.23-2.373-7.869-2.373
	c-2.898,0-4.931,0.464-6.282,2.014c-2.069,2.367-2.62,7.293-2.62,16.938h-25.513c0-10.78,2.277-17.159,8.207-20.833
	c5.643-3.483,14.548-4.462,27.867-4.462c12.485,0,20.579,1.657,25.771,5.253c6.295,4.364,8.413,11.61,8.413,22.586v32.304
	c0,8.672,2.642,17.396,4.062,20.799H362.016L362.016,414.41L362.016,414.41L362.016,414.41z"/>
</svg>
