<?xml version="1.0" encoding="utf-8"?>
<!-- Generator: Adobe Illustrator 16.0.0, SVG Export Plug-In . SVG Version: 6.00 Build 0)  -->
<!DOCTYPE svg PUBLIC "-//W3C//DTD SVG 1.1//EN" "http://www.w3.org/Graphics/SVG/1.1/DTD/svg11.dtd" [
	<!ENTITY ns_extend "http://ns.adobe.com/Extensibility/1.0/">
	<!ENTITY ns_ai "http://ns.adobe.com/AdobeIllustrator/10.0/">
	<!ENTITY ns_graphs "http://ns.adobe.com/Graphs/1.0/">
	<!ENTITY ns_vars "http://ns.adobe.com/Variables/1.0/">
	<!ENTITY ns_imrep "http://ns.adobe.com/ImageReplacement/1.0/">
	<!ENTITY ns_sfw "http://ns.adobe.com/SaveForWeb/1.0/">
	<!ENTITY ns_custom "http://ns.adobe.com/GenericCustomNamespace/1.0/">
	<!ENTITY ns_adobe_xpath "http://ns.adobe.com/XPath/1.0/">
]>
<svg version="1.1" id="Calque_2" xmlns:x="&ns_extend;" xmlns:i="&ns_ai;" xmlns:graph="&ns_graphs;"
	 xmlns="http://www.w3.org/2000/svg" xmlns:xlink="http://www.w3.org/1999/xlink" x="0px" y="0px" width="820px" height="591.5px"
	 viewBox="0 0 820 591.5" enable-background="new 0 0 820 591.5" xml:space="preserve">
<metadata>
	<sfw  xmlns="&ns_sfw;">
		<slices></slices>
		<sliceSourceBounds  y="95.447" x="108.912" bottomLeftOrigin="true" height="562.76" width="623.177"></sliceSourceBounds>
	</sfw>
</metadata>
<g>
	<g>
		<g>
			
				<line fill="none" stroke="#E84E1B" stroke-width="2.5934" stroke-miterlimit="10" x1="227.401" y1="555.465" x2="621.985" y2="555.465"/>
			<g>
				<polygon fill="#E84E1B" points="232.54,562.999 204.425,555.465 232.54,547.931 				"/>
			</g>
			<g>
				<polygon fill="#E84E1B" points="616.846,562.998 644.96,555.465 616.846,547.93 				"/>
			</g>
		</g>
	</g>
	
		<path opacity="0.2" fill="#F3ECE9" stroke="#5D5D5D" stroke-width="0.8337" stroke-miterlimit="10" enable-background="new    " d="
		M103.003,491.94h264.225v-44.656l-70.708-21.397V271.444c9.306-95.826,73.498-178.631,155.369-160.021
		c59.543,13.023,88.388,77.222,88.388,141.415l0.928,169.325l-82.802,25.121v44.656h261.434v-44.656l-71.642-22.328V262.141
		c0-101.411-42.795-202.818-135.833-235.384c-84.664-29.771-164.673,2.792-215.844,71.64v-71.64H103.003v44.657l86.523,26.05
		v323.767l-86.523,26.051V491.94L103.003,491.94z"/>
	
		<path opacity="0.2" fill="#F3ECE9" stroke="#5D5D5D" stroke-width="0.8337" stroke-miterlimit="10" enable-background="new    " d="
		M110.774,491.94h257.711v-42.979l-70.086-20.479V270.948c9.42-96.644,71.441-181.771,153.159-163.352
		c59.232,13.025,86.68,80.014,86.68,145.448l0.933,172.116l-82.028,23.726v43.054h255.024v-42.976l-70.895-21.214v-165.79
		c0-101.1-40.626-203.571-131.938-235.204c-84.198-29.149-161.629,5.737-210.938,75.825V26.756H110.676v42.982l85.592,24.812
		v329.659l-85.592,24.811L110.774,491.94z"/>
	
		<path opacity="0.2" fill="#F3ECE9" stroke="#5D5D5D" stroke-width="0.8337" stroke-miterlimit="10" enable-background="new    " d="
		M118.488,491.94h251.01v-41.4l-69.312-19.227v-160.8c9.612-97.503,69.467-185.05,151.03-166.628
		c58.92,12.84,84.972,82.432,84.972,149.322l0.776,174.816l-81.129,22.639v41.246H704.43v-41.246l-70.086-20.16V261.802
		c0-100.946-38.453-204.448-128.082-235.048c-83.731-28.376-158.47,8.838-205.918,80.012V26.754H118.456v41.4l84.431,23.36v335.675
		l-84.479,23.473L118.488,491.94z"/>
	
		<path opacity="0.2" fill="#F3ECE9" stroke="#5D5D5D" stroke-width="0.8337" stroke-miterlimit="10" enable-background="new    " d="
		M126.127,491.895h244.568v-39.697l-68.537-18.142V270.002c9.612-98.309,67.411-188.244,148.818-169.869
		c58.612,12.715,83.269,85.053,83.269,153.199l0.618,177.515l-80.242,21.396v39.695H696.75v-39.695l-69.156-18.914V261.52
		c0-100.479-36.399-205.12-124.319-234.787C419.853-1.075,347.75,38.44,302.162,110.698V26.733h-176.07v39.541l83.547,22.213
		v341.627l-83.547,22.131L126.127,491.895z"/>
	
		<path opacity="0.2" fill="#F3ECE9" stroke="#5D5D5D" stroke-width="0.8337" stroke-miterlimit="10" enable-background="new    " d="
		M133.791,491.94H371.78v-37.959l-67.729-17.211V269.616c9.771-99.24,65.281-191.502,146.453-173.359
		c58.427,12.715,81.5,87.767,81.5,157.311l0.746,180.303l-79.549,20.162v37.912h235.851v-37.957l-68.538-17.865V261.395
		c0-100.293-34.189-206.044-120.404-234.65c-82.936-27.168-152.246,14.699-195.975,88.199V26.745H133.877v37.957l82.338,20.935
		v347.489l-82.338,20.934L133.791,491.94z"/>
	
		<path opacity="0.2" fill="#F3ECE9" stroke="#5D5D5D" stroke-width="0.8337" stroke-miterlimit="10" enable-background="new    " d="
		M141.472,491.94H372.95v-36.283l-66.987-16.127V269.119c9.771-100.017,63.266-194.604,144.208-176.461
		c58.146,12.562,79.729,90.246,79.729,161.109l0.746,183.096l-78.615,18.793v36.283h229.332v-36.283l-67.606-16.746V261.209
		c0-100.012-32.098-206.695-116.604-234.451c-82.492-26.516-149.319,17.678-191.188,92.416V26.758h-164.49v36.285l81.408,19.537
		v353.537l-81.408,19.539L141.472,491.94L141.472,491.94z"/>
	
		<path opacity="0.2" fill="#F3ECE9" stroke="#5D5D5D" stroke-width="0.8337" stroke-miterlimit="10" enable-background="new    " d="
		M149.202,491.94h224.914v-34.609l-66.241-14.987V268.675c9.77-100.944,61.169-197.937,141.956-179.794
		c57.867,12.404,78.027,92.729,78.027,165.062l0.697,185.76l-77.841,17.678v34.559h222.979V457.33l-66.986-15.631V261.024
		c0-99.734-29.874-207.658-112.678-234.328c-82.062-25.817-146.254,20.698-186.258,96.522V26.772h-158.63v34.58l80.479,18.299
		v359.428l-80.479,18.308L149.202,491.94z"/>
	
		<path opacity="0.2" fill="#F3ECE9" stroke="#5D5D5D" stroke-width="0.8337" stroke-miterlimit="10" enable-background="new    " d="
		M156.875,491.94h218.346v-32.873l-65.458-13.955V268.188c9.924-101.721,59.254-201.152,139.731-183.165
		c57.592,12.326,76.29,95.595,76.29,169.095l0.621,188.629l-76.911,16.279v32.873h216.467v-32.873l-66.057-14.574v-183.59
		c0-99.551-27.909-208.402-108.85-234.145c-81.74-25.12-143.146,23.727-181.289,100.712V26.766h-152.89v32.872l79.547,16.979
		v365.447l-79.547,16.934L156.875,491.94L156.875,491.94z"/>
	
		<path opacity="0.2" fill="#F3ECE9" stroke="#5D5D5D" stroke-width="0.8337" stroke-miterlimit="10" enable-background="new    " d="
		M164.668,491.94h211.658v-31.322l-64.66-12.793V267.802c10-102.572,56.983-204.448,137.459-186.54
		c57.217,12.281,74.587,98.062,74.587,173.109l0.617,191.193l-76.158,15.117v31.168h210.081v-31.168l-65.312-13.49V260.653
		c0-99.24-25.585-209.156-104.977-233.812C406.712,2.187,347.865,53.358,311.582,131.507V26.843H164.586V58.01l78.384,15.629
		v371.399l-78.384,15.642L164.668,491.94z"/>
	
		<path opacity="0.2" fill="#F3ECE9" stroke="#5D5D5D" stroke-width="0.8337" stroke-miterlimit="10" enable-background="new    " d="
		M172.228,491.94H377.52v-29.586l-64.062-11.787V267.285c10.13-103.402,55.098-207.5,135.264-189.823
		c57.062,12.28,72.878,100.666,72.878,176.954l0.467,194.138l-75.204,13.802v29.586h203.752v-29.586l-64.504-12.279V260.468
		c0-98.931-23.569-209.876-101.254-233.755C404.071,2.832,347.939,56.328,313.513,135.596V26.744H172.228v29.584l77.404,14.42
		v377.265l-77.404,14.423V491.94L172.228,491.94z"/>
	
		<path opacity="0.2" fill="#F3ECE9" stroke="#5D5D5D" stroke-width="0.8337" stroke-miterlimit="10" enable-background="new    " d="
		M179.991,491.94h198.633v-27.912l-63.268-10.697V266.793C325.59,162.591,368.388,56.063,448.4,73.742
		c56.753,12.095,71.174,103.271,71.174,180.955l0.465,196.771l-74.429,12.56v27.912h197.237v-27.912l-63.729-11.166V260.278
		c0-98.621-21.398-210.729-97.226-233.521c-80.479-23.258-133.974,32.564-166.537,113.04V26.758H179.991V54.67l76.289,13.025
		v383.311l-76.289,13.023V491.94L179.991,491.94z"/>
	
		<path opacity="0.2" fill="#F3ECE9" stroke="#5D5D5D" stroke-width="0.8337" stroke-miterlimit="10" enable-background="new    " d="
		M187.735,491.94h192.119v-26.238l-62.646-9.621V266.287c10.352-105.016,50.979-213.866,130.831-196.19
		c56.443,11.785,69.469,105.754,69.469,184.834l0.47,199.562l-73.657,11.164v26.283h190.827v-26.236l-62.953-10.049v-195.56
		c0-98.31-19.305-211.583-93.27-233.29C398.728,4.166,348.021,62.315,317.321,143.953V26.727H187.69V53.01l75.36,11.63v389.355
		l-75.36,11.629L187.735,491.94z"/>
	
		<path opacity="0.2" fill="#F3ECE9" stroke="#5D5D5D" stroke-width="0.8337" stroke-miterlimit="10" enable-background="new    " d="
		M195.467,491.864h185.452v-24.655l-61.869-8.467V265.69c10.469-105.749,49.076-217.083,128.623-199.562
		c56.287,11.908,67.759,108.48,67.759,188.803l0.311,202.352l-72.697,10.004v24.654h184.396v-24.654l-62.146-8.84v-198.63
		c0-97.996-17.214-212.3-89.473-233.076C396.122,4.719,347.975,65.193,319.136,147.996V26.737h-123.74v24.5l74.196,10.42v395.219
		l-74.195,10.408L195.467,491.864z"/>
	
		<path opacity="0.2" fill="#F3ECE9" stroke="#5D5D5D" stroke-width="0.8337" stroke-miterlimit="10" enable-background="new    " d="
		M203.071,491.94h179.089v-22.949l-61.093-7.442v-196.15C331.534,158.715,367.92,45.094,447.464,62.462
		c55.821,11.86,66.058,111.103,66.058,192.784l0.188,204.99l-71.947,8.84v22.795h178.011v-22.795l-61.299-7.908V259.746
		c0-97.805-14.99-213.147-85.698-232.994c-79.082-21.283-124.67,41.494-151.648,125.412V26.752H203.071v22.947l73.312,9.071v401.173
		l-73.312,9.131V491.94L203.071,491.94z"/>
	
		<path opacity="0.2" fill="#F3ECE9" stroke="#5D5D5D" stroke-width="0.8337" stroke-miterlimit="10" enable-background="new    " d="
		M210.808,491.94h172.352v-21.22l-60.286-6.508V264.93C333.572,157.32,367.763,41.332,447,58.701
		c55.634,11.629,64.315,113.66,64.315,196.772l0.232,207.703l-71.021,7.545v21.218h171.499v-21.218l-60.475-6.698v-204.49
		c0-97.502-12.924-213.799-81.771-232.716c-78.894-20.7-121.688,44.425-146.81,129.554V26.739H210.865V47.98l72.103,7.754v407.189
		l-72.103,7.752L210.808,491.94z"/>
	
		<path opacity="0.2" fill="#F3ECE9" stroke="#5D5D5D" stroke-width="0.8337" stroke-miterlimit="10" enable-background="new    " d="
		M218.448,491.94h165.913v-19.539l-59.542-5.273V264.463c10.697-108.385,42.796-226.852,121.876-209.483
		c55.354,11.476,62.613,116.296,62.613,200.649l0.188,210.568l-70.242,6.203v19.539h165.14V472.4l-59.854-5.582v-207.47
		c0-97.223-10.543-214.76-77.837-232.592C388.362,6.755,348.049,74.206,324.789,160.543V26.758H218.495v19.538l71.171,6.515v413.081
		l-71.171,6.515L218.448,491.94z"/>
	
		<path opacity="0.2" fill="#F3ECE9" stroke="#5D5D5D" stroke-width="0.8337" stroke-miterlimit="10" enable-background="new    " d="
		M226.222,491.94H385.5v-17.865l-58.797-4.342V264.009c10.854-109.315,40.758-229.956,119.651-212.897
		c55.077,11.629,60.848,118.932,60.848,204.711l0.186,213.238l-69.466,4.963v17.916h158.78v-17.863l-59.075-4.475V259.155
		c0-96.945-8.479-215.41-73.911-232.392c-78.019-19.35-115.696,50.428-137.094,137.88V26.764H226.14v17.863l70.242,5.118v419.127
		l-70.242,5.117L226.222,491.94z"/>
	
		<path opacity="0.2" fill="#F3ECE9" stroke="#5D5D5D" stroke-width="0.8337" stroke-miterlimit="10" enable-background="new    " d="
		M233.873,491.94H386.61v-16.281l-58.146-3.102V263.535C339.441,153.443,367.25,30.326,446.022,47.302
		c54.732,11.477,59.077,121.568,59.077,208.712l0.132,216.03l-68.537,3.725v16.127h152.271v-16.127l-58.307-3.412V258.993
		c0-96.758-6.354-216.334-70.084-232.254C382.887,8.028,348.002,80.157,328.463,168.85V26.737h-94.588v16.281l69.155,3.839v424.99
		l-69.155,3.921L233.873,491.94L233.873,491.94z"/>
	
		<path opacity="0.2" fill="#F3ECE9" stroke="#5D5D5D" stroke-width="0.8337" stroke-miterlimit="10" enable-background="new    " d="
		M241.581,491.903h146.161v-14.576l-57.219-2.094V263.112c10.854-110.947,36.596-236.548,115.056-219.566
		c54.581,11.352,57.371,124.111,57.371,212.601l0.156,218.738l-67.729,2.479v14.578h145.879v-14.578l-57.371-2.168V258.729
		c0-96.292-4.341-217.009-66.365-232.011C380.392,8.733,348.142,83.161,330.463,172.942V26.719h-88.851v14.575l68.069,2.56v430.943
		l-68.104,2.604L241.581,491.903L241.581,491.903z"/>
	
		<path opacity="0.2" fill="#F3ECE9" stroke="#5D5D5D" stroke-width="0.8337" stroke-miterlimit="10" enable-background="new    " d="
		M249.213,491.94h139.641v-12.838l-56.566-0.932V262.635c11.167-111.772,34.61-239.7,112.947-222.769
		c54.271,11.269,55.667,126.635,55.667,216.414v221.613l-66.831,1.236v12.809h139.557v-12.838l-56.658-1.13V258.594
		c0-96.062-2.172-217.938-62.527-231.896C377.839,9.33,348.068,86.087,332.253,177.029V26.775h-83.036v12.839l67.172,1.239v436.96
		l-67.172,1.239L249.213,491.94L249.213,491.94z"/>
	
		<path opacity="0.2" fill="#F3ECE9" stroke="#5D5D5D" stroke-width="0.8337" stroke-miterlimit="10" enable-background="new    " d="
		M256.977,491.94h133.042v-11.164h-55.821V262.141C345.365,149.567,366.76,19.316,444.908,36.062
		c53.965,11.165,53.965,129.32,53.965,220.498v224.216h-66.057v11.166h133.042v-11.166h-55.822V258.418
		c0-95.826,0-218.633-58.613-231.66c-76.289-16.746-103.271,62.334-117.225,154.441V26.758h-77.223v11.165h66.058v442.854h-66.058
		L256.977,491.94L256.977,491.94z"/>
	<path fill="#F3ECE9" d="M98.412,578.051h22.438v-3.791l-6.004-1.816v-13.115c0.789-8.138,6.242-15.169,13.192-13.589
		c5.058,1.104,7.507,6.56,7.507,12.008l0.08,14.38l-7.031,2.135v3.791h22.199v-3.791l-6.082-1.896v-13.827
		c0-8.609-3.635-17.223-11.535-19.986c-7.188-2.527-13.982,0.234-18.328,6.084v-6.084H98.413v3.793l7.349,2.213v27.492l-7.349,2.213
		L98.412,578.051L98.412,578.051z"/>
	<path fill="#F3ECE9" d="M695.357,574.446h11.299v-0.947h-4.739v-18.564c0.946-9.561,2.766-20.619,9.399-19.195
		c4.584,0.945,4.584,10.98,4.584,18.726v19.041h-5.611v0.946h11.301v-0.946h-4.74v-18.885c0-8.141,0-18.564-4.979-19.672
		c-6.479-1.424-8.771,5.293-9.954,13.111v-13.111h-6.558v0.945h5.608V573.5h-5.608v0.947L695.357,574.446L695.357,574.446z"/>
</g>
</svg>
