<?xml version="1.0" encoding="utf-8"?>
<!-- Generator: Adobe Illustrator 16.0.4, SVG Export Plug-In . SVG Version: 6.00 Build 0)  -->
<!DOCTYPE svg PUBLIC "-//W3C//DTD SVG 1.1//EN" "http://www.w3.org/Graphics/SVG/1.1/DTD/svg11.dtd">
<svg version="1.1" id="Calque_2" xmlns="http://www.w3.org/2000/svg" xmlns:xlink="http://www.w3.org/1999/xlink" x="0px" y="0px"
	 width="808px" height="308px" viewBox="0 0 808 308" enable-background="new 0 0 808 308" xml:space="preserve">
<g id="Live_Text">
	<g>
		<path fill="none" stroke="#FFFFFF" stroke-width="1.5" stroke-linecap="round" stroke-linejoin="round" d="M146.082,198.08
			c-13.396,23.344-33.82,37.933-55.041,37.933c-30.24,0-45.625-15.649-45.625-42.707c0-27.984,23.211-43.768,62.07-43.768h39.655
			v16.977h-40.45c-22.812,0-36.738,12.335-36.738,27.321c0,13.265,8.224,21.089,24.668,21.089c22.283,0,34.086-10.743,47.351-31.434
			L146.082,198.08z M138.123,233.359c-1.723-7.692-2.918-19.1-2.918-28.913v-69.498c0-17.506-11.141-27.851-31.168-27.851
			c-18.566,0-31.034,9.946-31.034,22.546H48.467c0-22.147,23.077-42.438,56.898-42.438c33.022,0,54.377,16.578,54.377,48.009v69.232
			c0,10.212,0.929,19.364,3.713,28.913H138.123L138.123,233.359z"/>
		<path fill="none" stroke="#FFFFFF" stroke-width="1.5" stroke-linecap="round" stroke-linejoin="round" d="M223,120.626V233.36
			h-24.67V120.626V89.858h22.148L223,120.626z M215.838,123.941c11.804-28.38,32.494-36.736,49.604-36.736
			c31.301,0,48.409,16.843,48.409,55.569v90.586h-24.669v-90.057c0-26.393-9.682-35.675-31.035-35.675
			c-16.977,0-29.709,9.946-35.146,22.413L215.838,123.941z"/>
		<path fill="none" stroke="#FFFFFF" stroke-width="1.5" stroke-linecap="round" stroke-linejoin="round" d="M473.927,161.872
			c0,45.228-23.608,74.14-64.06,74.14c-40.586,0-64.193-28.912-64.193-74.14c0-45.357,23.741-74.667,63.928-74.667
			C449.921,87.205,473.927,115.985,473.927,161.872z M449.391,161.872c0-32.758-13.131-54.774-39.789-54.774
			c-26.393,0-39.258,22.017-39.258,54.774c0,33.025,12.732,54.377,39.523,54.377C435.995,216.25,449.391,195.295,449.391,161.872z"
			/>
		<path fill="none" stroke="#FFFFFF" stroke-width="1.5" stroke-linecap="round" stroke-linejoin="round" d="M604.957,199.938
			c-10.212,25.065-26.525,36.074-49.205,36.074c-35.545,0-55.704-25.994-55.704-70.427c0-48.273,19.364-78.381,55.97-78.381
			c21.618,0,35.146,8.621,47.879,31.431l-7.958,9.417c-7.027-12.73-17.771-20.424-33.818-20.424
			c-25.995,0-37.534,21.75-37.534,57.956c0,31.698,11.141,50.002,37.27,50.002c16.578,0,26.791-7.561,34.085-20.955L604.957,199.938
			z M595.938,194.632V26.462h24.536V233.36h-21.354L595.938,194.632z"/>
		<path fill="none" stroke="#FFFFFF" stroke-width="1.5" stroke-linecap="round" stroke-linejoin="round" d="M749.914,155.108
			c0-27.586-6.897-48.011-35.017-48.011c-21.088,0-37.136,22.017-37.136,54.51c0,35.677,14.721,54.643,41.115,54.643
			c17.902,0,30.236-5.172,40.717-14.189l9.682,16.312c-10.478,10.213-26.393,17.641-50.396,17.641
			c-40.585,0-65.254-27.32-65.254-74.404c0-45.357,26.924-74.402,61.272-74.402c38.86,0,58.489,24.27,58.489,60.211L749.914,155.108
			z M773.389,167.177H666.357v-19.762h107.031V167.177z"/>
	</g>
</g>
<g id="Anchors">
	<g>
		<rect x="771.77" y="165.559" fill="#F3A68D" width="3.239" height="3.238"/>
		<rect x="664.737" y="165.559" fill="#F3A68D" width="3.239" height="3.238"/>
		<rect x="664.737" y="165.559" fill="#F3A68D" width="3.239" height="3.238"/>
		<rect x="664.737" y="145.796" fill="#F3A68D" width="3.239" height="3.239"/>
		<rect x="664.737" y="145.796" fill="#F3A68D" width="3.239" height="3.239"/>
		<rect x="771.77" y="145.796" fill="#F3A68D" width="3.239" height="3.239"/>
		<rect x="771.77" y="145.796" fill="#F3A68D" width="3.239" height="3.239"/>
		<rect x="771.77" y="165.559" fill="#F3A68D" width="3.239" height="3.238"/>
		<rect x="748.294" y="153.488" fill="#F3A68D" width="3.239" height="3.24"/>
		<rect x="713.279" y="105.479" fill="#F3A68D" width="3.24" height="3.239"/>
		<rect x="713.279" y="105.479" fill="#F3A68D" width="3.24" height="3.239"/>
		<rect x="676.144" y="159.987" fill="#F3A68D" width="3.239" height="3.239"/>
		<rect x="676.144" y="159.987" fill="#F3A68D" width="3.239" height="3.239"/>
		<rect x="717.259" y="214.63" fill="#F3A68D" width="3.239" height="3.239"/>
		<rect x="717.259" y="214.63" fill="#F3A68D" width="3.239" height="3.239"/>
		<rect x="757.976" y="200.439" fill="#F3A68D" width="3.24" height="3.239"/>
		<rect x="757.976" y="200.439" fill="#F3A68D" width="3.24" height="3.239"/>
		<rect x="767.658" y="216.752" fill="#F3A68D" width="3.238" height="3.24"/>
		<rect x="767.658" y="216.752" fill="#F3A68D" width="3.238" height="3.24"/>
		<rect x="717.259" y="234.393" fill="#F3A68D" width="3.239" height="3.239"/>
		<rect x="717.259" y="234.393" fill="#F3A68D" width="3.239" height="3.239"/>
		<rect x="652.005" y="159.987" fill="#F3A68D" width="3.239" height="3.239"/>
		<rect x="652.005" y="159.987" fill="#F3A68D" width="3.239" height="3.239"/>
		<rect x="713.279" y="85.585" fill="#F3A68D" width="3.24" height="3.24"/>
		<rect x="713.279" y="85.585" fill="#F3A68D" width="3.24" height="3.24"/>
		<rect x="771.77" y="145.796" fill="#F3A68D" width="3.239" height="3.239"/>
		<rect x="771.77" y="145.796" fill="#F3A68D" width="3.239" height="3.239"/>
		<rect x="748.294" y="153.488" fill="#F3A68D" width="3.239" height="3.24"/>
		<rect x="594.318" y="193.011" fill="#F3A68D" width="3.24" height="3.239"/>
		<rect x="594.318" y="24.843" fill="#F3A68D" width="3.24" height="3.24"/>
		<rect x="594.318" y="24.843" fill="#F3A68D" width="3.24" height="3.24"/>
		<rect x="618.855" y="24.843" fill="#F3A68D" width="3.239" height="3.24"/>
		<rect x="618.855" y="24.843" fill="#F3A68D" width="3.239" height="3.24"/>
		<rect x="618.855" y="231.74" fill="#F3A68D" width="3.239" height="3.24"/>
		<rect x="618.855" y="231.74" fill="#F3A68D" width="3.239" height="3.24"/>
		<rect x="597.502" y="231.74" fill="#F3A68D" width="3.237" height="3.24"/>
		<rect x="597.502" y="231.74" fill="#F3A68D" width="3.237" height="3.24"/>
		<rect x="594.318" y="193.011" fill="#F3A68D" width="3.24" height="3.239"/>
		<rect x="603.338" y="198.316" fill="#F3A68D" width="3.239" height="3.239"/>
		<rect x="554.132" y="234.393" fill="#F3A68D" width="3.24" height="3.239"/>
		<rect x="554.132" y="234.393" fill="#F3A68D" width="3.24" height="3.239"/>
		<rect x="498.428" y="163.966" fill="#F3A68D" width="3.24" height="3.239"/>
		<rect x="498.428" y="163.966" fill="#F3A68D" width="3.24" height="3.239"/>
		<rect x="554.397" y="85.585" fill="#F3A68D" width="3.239" height="3.24"/>
		<rect x="554.397" y="85.585" fill="#F3A68D" width="3.239" height="3.24"/>
		<rect x="602.276" y="117.017" fill="#F3A68D" width="3.24" height="3.239"/>
		<rect x="602.276" y="117.017" fill="#F3A68D" width="3.24" height="3.239"/>
		<rect x="594.318" y="126.432" fill="#F3A68D" width="3.24" height="3.239"/>
		<rect x="594.318" y="126.432" fill="#F3A68D" width="3.24" height="3.239"/>
		<rect x="560.498" y="106.009" fill="#F3A68D" width="3.238" height="3.24"/>
		<rect x="560.498" y="106.009" fill="#F3A68D" width="3.238" height="3.24"/>
		<rect x="522.964" y="163.966" fill="#F3A68D" width="3.24" height="3.239"/>
		<rect x="522.964" y="163.966" fill="#F3A68D" width="3.24" height="3.239"/>
		<rect x="560.233" y="213.966" fill="#F3A68D" width="3.239" height="3.239"/>
		<rect x="560.233" y="213.966" fill="#F3A68D" width="3.239" height="3.239"/>
		<rect x="594.318" y="193.011" fill="#F3A68D" width="3.24" height="3.239"/>
		<rect x="594.318" y="193.011" fill="#F3A68D" width="3.24" height="3.239"/>
		<rect x="619.004" y="193.011" fill="#F3A68D" width="3.24" height="3.239"/>
		<rect x="603.338" y="198.316" fill="#F3A68D" width="3.239" height="3.239"/>
		<rect x="447.771" y="160.252" fill="#F3A68D" width="3.24" height="3.24"/>
		<rect x="407.981" y="105.479" fill="#F3A68D" width="3.24" height="3.239"/>
		<rect x="407.981" y="105.479" fill="#F3A68D" width="3.24" height="3.239"/>
		<rect x="368.724" y="160.252" fill="#F3A68D" width="3.239" height="3.24"/>
		<rect x="368.724" y="160.252" fill="#F3A68D" width="3.239" height="3.24"/>
		<rect x="408.248" y="214.63" fill="#F3A68D" width="3.237" height="3.239"/>
		<rect x="408.248" y="214.63" fill="#F3A68D" width="3.237" height="3.239"/>
		<rect x="447.771" y="160.252" fill="#F3A68D" width="3.24" height="3.24"/>
		<rect x="472.307" y="160.252" fill="#F3A68D" width="3.24" height="3.24"/>
		<rect x="408.248" y="234.393" fill="#F3A68D" width="3.237" height="3.239"/>
		<rect x="408.248" y="234.393" fill="#F3A68D" width="3.237" height="3.239"/>
		<rect x="344.055" y="160.252" fill="#F3A68D" width="3.239" height="3.24"/>
		<rect x="344.055" y="160.252" fill="#F3A68D" width="3.239" height="3.24"/>
		<rect x="407.981" y="85.585" fill="#F3A68D" width="3.24" height="3.24"/>
		<rect x="407.981" y="85.585" fill="#F3A68D" width="3.24" height="3.24"/>
		<rect x="472.307" y="160.252" fill="#F3A68D" width="3.24" height="3.24"/>
		<rect x="214.218" y="122.321" fill="#F3A68D" width="3.239" height="3.24"/>
		<rect x="263.822" y="85.585" fill="#F3A68D" width="3.238" height="3.24"/>
		<rect x="263.822" y="85.585" fill="#F3A68D" width="3.238" height="3.24"/>
		<rect x="312.23" y="141.154" fill="#F3A68D" width="3.24" height="3.24"/>
		<rect x="312.23" y="141.154" fill="#F3A68D" width="3.24" height="3.24"/>
		<rect x="312.23" y="231.74" fill="#F3A68D" width="3.24" height="3.24"/>
		<rect x="312.23" y="231.74" fill="#F3A68D" width="3.24" height="3.24"/>
		<rect x="287.562" y="231.74" fill="#F3A68D" width="3.24" height="3.24"/>
		<rect x="287.562" y="231.74" fill="#F3A68D" width="3.24" height="3.24"/>
		<rect x="287.562" y="141.686" fill="#F3A68D" width="3.24" height="3.238"/>
		<rect x="287.562" y="141.686" fill="#F3A68D" width="3.24" height="3.238"/>
		<rect x="256.527" y="106.009" fill="#F3A68D" width="3.239" height="3.24"/>
		<rect x="256.527" y="106.009" fill="#F3A68D" width="3.239" height="3.24"/>
		<rect x="221.38" y="128.423" fill="#F3A68D" width="3.239" height="3.24"/>
		<rect x="221.38" y="128.423" fill="#F3A68D" width="3.239" height="3.24"/>
		<rect x="214.218" y="122.321" fill="#F3A68D" width="3.239" height="3.24"/>
		<rect x="221.38" y="119.006" fill="#F3A68D" width="3.239" height="3.238"/>
		<rect x="221.38" y="231.74" fill="#F3A68D" width="3.239" height="3.24"/>
		<rect x="221.38" y="231.74" fill="#F3A68D" width="3.239" height="3.24"/>
		<rect x="196.711" y="231.74" fill="#F3A68D" width="3.238" height="3.24"/>
		<rect x="196.711" y="231.74" fill="#F3A68D" width="3.238" height="3.24"/>
		<rect x="196.711" y="119.006" fill="#F3A68D" width="3.238" height="3.238"/>
		<rect x="196.711" y="119.006" fill="#F3A68D" width="3.238" height="3.238"/>
		<rect x="196.711" y="88.237" fill="#F3A68D" width="3.238" height="3.24"/>
		<rect x="196.711" y="88.237" fill="#F3A68D" width="3.238" height="3.24"/>
		<rect x="218.859" y="88.237" fill="#F3A68D" width="3.24" height="3.24"/>
		<rect x="218.859" y="88.237" fill="#F3A68D" width="3.24" height="3.24"/>
		<rect x="221.38" y="119.006" fill="#F3A68D" width="3.239" height="3.238"/>
		<rect x="136.504" y="231.74" fill="#F3A68D" width="3.24" height="3.24"/>
		<rect x="133.586" y="202.826" fill="#F3A68D" width="3.24" height="3.24"/>
		<rect x="133.586" y="202.826" fill="#F3A68D" width="3.24" height="3.24"/>
		<rect x="133.586" y="133.329" fill="#F3A68D" width="3.24" height="3.24"/>
		<rect x="133.586" y="133.329" fill="#F3A68D" width="3.24" height="3.24"/>
		<rect x="102.418" y="105.479" fill="#F3A68D" width="3.24" height="3.239"/>
		<rect x="102.418" y="105.479" fill="#F3A68D" width="3.24" height="3.239"/>
		<rect x="71.383" y="128.024" fill="#F3A68D" width="3.24" height="3.238"/>
		<rect x="71.383" y="128.024" fill="#F3A68D" width="3.24" height="3.238"/>
		<rect x="46.847" y="128.024" fill="#F3A68D" width="3.24" height="3.238"/>
		<rect x="46.847" y="128.024" fill="#F3A68D" width="3.24" height="3.238"/>
		<rect x="103.744" y="85.585" fill="#F3A68D" width="3.24" height="3.24"/>
		<rect x="103.744" y="85.585" fill="#F3A68D" width="3.24" height="3.24"/>
		<rect x="158.123" y="133.593" fill="#F3A68D" width="3.238" height="3.24"/>
		<rect x="158.123" y="133.593" fill="#F3A68D" width="3.238" height="3.24"/>
		<rect x="158.123" y="202.826" fill="#F3A68D" width="3.238" height="3.24"/>
		<rect x="158.123" y="202.826" fill="#F3A68D" width="3.238" height="3.24"/>
		<rect x="161.836" y="231.74" fill="#F3A68D" width="3.24" height="3.24"/>
		<rect x="161.836" y="231.74" fill="#F3A68D" width="3.24" height="3.24"/>
		<rect x="136.504" y="231.74" fill="#F3A68D" width="3.24" height="3.24"/>
		<rect x="144.462" y="196.461" fill="#F3A68D" width="3.239" height="3.24"/>
		<rect x="89.421" y="234.393" fill="#F3A68D" width="3.239" height="3.239"/>
		<rect x="89.421" y="234.393" fill="#F3A68D" width="3.239" height="3.239"/>
		<rect x="43.796" y="191.686" fill="#F3A68D" width="3.239" height="3.239"/>
		<rect x="43.796" y="191.686" fill="#F3A68D" width="3.239" height="3.239"/>
		<rect x="105.867" y="147.918" fill="#F3A68D" width="3.238" height="3.24"/>
		<rect x="105.867" y="147.918" fill="#F3A68D" width="3.238" height="3.24"/>
		<rect x="145.523" y="147.918" fill="#F3A68D" width="3.239" height="3.24"/>
		<rect x="145.523" y="147.918" fill="#F3A68D" width="3.239" height="3.24"/>
		<rect x="145.523" y="164.895" fill="#F3A68D" width="3.239" height="3.239"/>
		<rect x="145.523" y="164.895" fill="#F3A68D" width="3.239" height="3.239"/>
		<rect x="105.072" y="164.895" fill="#F3A68D" width="3.238" height="3.239"/>
		<rect x="105.072" y="164.895" fill="#F3A68D" width="3.238" height="3.239"/>
		<rect x="68.332" y="192.216" fill="#F3A68D" width="3.24" height="3.239"/>
		<rect x="68.332" y="192.216" fill="#F3A68D" width="3.24" height="3.239"/>
		<rect x="93.002" y="213.304" fill="#F3A68D" width="3.238" height="3.239"/>
		<rect x="93.002" y="213.304" fill="#F3A68D" width="3.238" height="3.239"/>
		<rect x="140.351" y="181.871" fill="#F3A68D" width="3.239" height="3.24"/>
		<rect x="140.351" y="181.871" fill="#F3A68D" width="3.239" height="3.24"/>
		<rect x="144.462" y="196.461" fill="#F3A68D" width="3.239" height="3.24"/>
	</g>
	<g>
		
			<line opacity="0.5" fill="none" stroke="#FFFFFF" stroke-miterlimit="10" enable-background="new    " x1="773.865" y1="157.357" x2="666.361" y2="157.357"/>
		<path opacity="0.5" fill="none" stroke="#FFFFFF" stroke-miterlimit="10" enable-background="new    " d="M762.333,151.405
			c0-16.041-6.503-54.678-47.241-54.678s-48.73,37.59-48.73,64.35c0,26.761,12.338,65.098,52.822,65.098
			c26.941,0,39.041-11.26,45.01-15.995"/>
		<path opacity="0.5" fill="none" stroke="#FFFFFF" stroke-miterlimit="10" enable-background="new    " d="M461.619,161.91
			c0-38.787-17.193-64.853-52.102-64.853c-34.559,0-51.404,26.065-51.404,64.853c0,39.102,16.673,64.382,51.752,64.382
			C444.078,226.292,461.619,201.481,461.619,161.91z"/>
		<path opacity="0.5" fill="none" stroke="#FFFFFF" stroke-miterlimit="10" enable-background="new    " d="M599.805,123.371
			c-7.671-15.603-23.89-26.313-40.453-26.313c-31.774,0-47.266,26.065-47.266,64.853c0,39.102,15.329,64.382,47.586,64.382
			c20.009,0,33.529-11.375,40.929-28.864"/>
		<path opacity="0.5" fill="none" stroke="#FFFFFF" stroke-miterlimit="10" enable-background="new    " d="M219.725,126.359
			c8.777-14.624,23.422-29.423,42.32-29.423c18.896,0,39.9,8.757,39.9,45.944c0,37.19,0,90.576,0,90.576"/>
		<path opacity="0.5" fill="none" stroke="#FFFFFF" stroke-miterlimit="10" enable-background="new    " d="M60.453,129.665
			c0-18.785,18.467-33.064,44.396-33.064s42.47,18.934,42.47,38.668c0,19.735,0,56.914,0,69.104c0,12.19,0.303,21.472,3.457,29.087"
			/>
		<path opacity="0.5" fill="none" stroke="#FFFFFF" stroke-miterlimit="10" enable-background="new    " d="M147.307,157.74
			c0,0-21.421,0.193-40.221,0.193c-18.801,0-49.395,9.812-49.395,35.31s14.1,32.562,34.604,32.562
			c20.505,0,39.881-15.762,51.438-34.292"/>
		<polyline opacity="0.5" fill="none" stroke="#FFFFFF" stroke-miterlimit="10" enable-background="new    " points="
			208.842,89.681 210.455,121.119 210.455,233.458 		"/>
		<polyline opacity="0.5" fill="none" stroke="#FFFFFF" stroke-miterlimit="10" enable-background="new    " points="
			608.068,26.405 608.068,194.569 610.469,233.165 		"/>
	</g>
	<g>
		<circle fill="#E84E1B" cx="104.849" cy="96.6" r="2.755"/>
		<circle fill="#E84E1B" cx="60.453" cy="129.665" r="2.756"/>
		<circle fill="#E84E1B" cx="147.318" cy="135.268" r="2.755"/>
		<circle fill="#E84E1B" cx="148.02" cy="204.371" r="2.756"/>
		<circle fill="#E84E1B" cx="143.732" cy="191.511" r="2.755"/>
		<circle fill="#E84E1B" cx="147.307" cy="157.74" r="2.755"/>
		<circle fill="#E84E1B" cx="107.086" cy="157.933" r="2.756"/>
		<circle fill="#E84E1B" cx="57.693" cy="193.243" r="2.755"/>
		<circle fill="#E84E1B" cx="150.775" cy="233.458" r="2.755"/>
		<circle fill="#E84E1B" cx="210.455" cy="233.458" r="2.755"/>
		<circle fill="#E84E1B" cx="210.455" cy="121.119" r="2.755"/>
		<circle fill="#E84E1B" cx="219.725" cy="126.359" r="2.755"/>
		<circle fill="#E84E1B" cx="262.045" cy="96.936" r="2.755"/>
		<circle fill="#E84E1B" cx="301.947" cy="142.881" r="2.755"/>
		<circle fill="#E84E1B" cx="208.843" cy="89.682" r="2.755"/>
		<circle fill="#E84E1B" cx="302.041" cy="233.358" r="2.756"/>
		<circle fill="#E84E1B" cx="409.963" cy="226.313" r="2.756"/>
		<circle fill="#E84E1B" cx="558.688" cy="225.911" r="2.756"/>
		<circle fill="#E84E1B" cx="600.201" cy="197.294" r="2.756"/>
		<circle fill="#E84E1B" cx="610.469" cy="233.165" r="2.755"/>
		<circle fill="#E84E1B" cx="608.067" cy="26.406" r="2.755"/>
		<circle fill="#E84E1B" cx="715.092" cy="96.727" r="2.755"/>
		<circle fill="#E84E1B" cx="762.333" cy="151.405" r="2.755"/>
		<circle fill="#E84E1B" cx="773.865" cy="157.357" r="2.755"/>
		<circle fill="#E84E1B" cx="666.361" cy="157.357" r="2.756"/>
		<circle fill="#E84E1B" cx="666.361" cy="161.077" r="2.756"/>
		<circle fill="#E84E1B" cx="719.183" cy="226.173" r="2.755"/>
		<circle fill="#E84E1B" cx="764.192" cy="210.178" r="2.755"/>
		<circle fill="#E84E1B" cx="608.067" cy="194.569" r="2.755"/>
		<circle fill="#E84E1B" cx="409.963" cy="97.34" r="2.755"/>
		<circle fill="#E84E1B" cx="558.687" cy="97.34" r="2.755"/>
		<circle fill="#E84E1B" cx="600.335" cy="123.636" r="2.755"/>
		<circle fill="#E84E1B" cx="358.438" cy="161.825" r="2.755"/>
		<circle fill="#E84E1B" cx="461.619" cy="161.825" r="2.755"/>
		<circle fill="#E84E1B" cx="512.337" cy="165.453" r="2.755"/>
		<circle fill="#E84E1B" cx="92.296" cy="225.803" r="2.755"/>
	</g>
</g>
<g id="Parameters">
	<text transform="matrix(1.0001 1.000100e-05 0 1 65.1406 276.7715)" fill="#FFFFFF" font-family="'HelveticaNeue'" font-size="9">skeleton</text>
	<text transform="matrix(1.0001 1.000100e-05 0 1 112.8545 53.5391)" fill="#FFFFFF" font-family="'HelveticaNeue'" font-size="9">outlines</text>
	<line fill="none" stroke="#404040" stroke-linejoin="round" x1="57.33" y1="195.863" x2="57.33" y2="276.597"/>
	<line fill="none" stroke="#404040" stroke-linejoin="round" x1="105.466" y1="85.51" x2="105.466" y2="43.489"/>
</g>
</svg>
