<?xml version="1.0" encoding="utf-8"?>
<!-- Generator: Adobe Illustrator 16.0.4, SVG Export Plug-In . SVG Version: 6.00 Build 0)  -->
<!DOCTYPE svg PUBLIC "-//W3C//DTD SVG 1.1//EN" "http://www.w3.org/Graphics/SVG/1.1/DTD/svg11.dtd">
<svg version="1.1" id="Calque_2" xmlns="http://www.w3.org/2000/svg" xmlns:xlink="http://www.w3.org/1999/xlink" x="0px" y="0px"
	 width="236px" height="352.667px" viewBox="0 0 236 352.667" enable-background="new 0 0 236 352.667" xml:space="preserve">
<rect x="13.882" y="207.309" fill="#F3ECE9" width="211.394" height="29.409"/>
<rect x="13.882" y="165.309" opacity="0.5" fill="#F3ECE9" width="211.394" height="29.409"/>
<rect x="13.882" y="250.642" fill="#1D1D1A" width="211.394" height="29.409"/>
<g>
	<path fill="#F3ECE9" d="M143.63,65.021c0,1.531-1.253,2.784-2.784,2.784H92.532c-1.531,0-2.784-1.253-2.784-2.784v-8.834
		c0-1.531,1.253-2.784,2.784-2.784h48.314c1.531,0,2.784,1.253,2.784,2.784V65.021z"/>
</g>
<text transform="matrix(1 0 0 1 97.1562 114.3896)" fill="#F3ECE9" font-family="'HelveticaNeue'" font-size="8.9967">parameter</text>
<g opacity="0.5">
	<g>
		<line fill="none" stroke="#E84E1B" stroke-miterlimit="10" x1="35" y1="87.167" x2="194" y2="87.167"/>
		<g>
			<rect x="35" y="83.667" fill="#E84E1B" width="1" height="6"/>
		</g>
		<g>
			<rect x="194" y="83.667" fill="#E84E1B" width="1" height="6"/>
		</g>
	</g>
</g>
<rect x="95.992" y="56.917" fill="none" width="43.25" height="8.75"/>
<text transform="matrix(1 0 0 1 103.0835 63.3408)" font-family="'HelveticaNeue'" font-size="8.9967">feature</text>
<g>
	<path opacity="0.5" fill="none" stroke="#F3ECE9" stroke-width="1.3921" stroke-miterlimit="10" d="M47.414,40.298
		c27.476,0,79.231,0,96.201,0c16.969,0,29.89-0.422,40.492-4.813"/>
</g>
<g>
	<circle fill="#F8172E" cx="51.127" cy="40.297" r="3.836"/>
	<circle fill="#F8172E" cx="147.329" cy="39.321" r="3.836"/>
	<circle fill="#F8172E" cx="82.412" cy="40.313" r="3.835"/>
	<circle fill="#F8172E" cx="187.821" cy="35.486" r="3.835"/>
</g>
<line opacity="0.5" fill="none" stroke="#F3ECE9" stroke-miterlimit="10" x1="15" y1="334.23" x2="226.978" y2="334.23"/>
<g>
	<g>
		
			<line opacity="0.5" fill="none" stroke="#F3ECE9" stroke-miterlimit="10" stroke-dasharray="4.018,6.027" x1="23.027" y1="301.426" x2="221.964" y2="301.426"/>
	</g>
</g>
</svg>
