<?xml version="1.0" encoding="utf-8"?>
<!-- Generator: Adobe Illustrator 16.0.0, SVG Export Plug-In . SVG Version: 6.00 Build 0)  -->
<!DOCTYPE svg PUBLIC "-//W3C//DTD SVG 1.1//EN" "http://www.w3.org/Graphics/SVG/1.1/DTD/svg11.dtd" [
	<!ENTITY ns_extend "http://ns.adobe.com/Extensibility/1.0/">
	<!ENTITY ns_ai "http://ns.adobe.com/AdobeIllustrator/10.0/">
	<!ENTITY ns_graphs "http://ns.adobe.com/Graphs/1.0/">
	<!ENTITY ns_vars "http://ns.adobe.com/Variables/1.0/">
	<!ENTITY ns_imrep "http://ns.adobe.com/ImageReplacement/1.0/">
	<!ENTITY ns_sfw "http://ns.adobe.com/SaveForWeb/1.0/">
	<!ENTITY ns_custom "http://ns.adobe.com/GenericCustomNamespace/1.0/">
	<!ENTITY ns_adobe_xpath "http://ns.adobe.com/XPath/1.0/">
]>
<svg version="1.1" id="Calque_2" xmlns:x="&ns_extend;" xmlns:i="&ns_ai;" xmlns:graph="&ns_graphs;"
	 xmlns="http://www.w3.org/2000/svg" xmlns:xlink="http://www.w3.org/1999/xlink" x="0px" y="0px" width="697.467px" height="325px"
	 viewBox="0 10.241 697.467 325" enable-background="new 0 10.241 697.467 325" xml:space="preserve">
<metadata>
	<sfw  xmlns="&ns_sfw;">
		<slices></slices>
		<sliceSourceBounds  width="624.473" height="271.304" y="160.375" x="106.29" bottomLeftOrigin="true"></sliceSourceBounds>
	</sfw>
</metadata>
<g>
	<g>
		<g>
			<path fill="#FFFFFF" d="M216.703,240.835l0.217,0.124c-23.764,41.41-60.018,67.327-97.735,67.33
				c-26.828,0-47.109-6.943-60.681-19.925c-13.572-12.981-20.405-31.976-20.403-55.989c-0.004-24.859,10.323-44.343,29.273-57.569
				c18.948-13.229,46.491-20.224,80.948-20.225h70.26l0.176,0.073l0.074,0.177v30.078l-0.074,0.177l-0.176,0.073h-71.67
				c-20.164,0-36.38,5.451-47.547,14.192c-11.168,8.743-17.293,20.767-17.293,33.964c0.002,11.7,3.62,20.955,10.842,27.305
				c7.222,6.351,18.083,9.808,32.614,9.808c19.7-0.003,34.73-4.743,47.791-14.054c13.058-9.31,24.145-23.205,35.886-41.522
				c0.053-0.083,0.149-0.127,0.247-0.112s0.177,0.085,0.204,0.18l7.287,25.85l-0.023,0.191L216.703,240.835l-0.24,0.067
				l-7.288-25.849l0.241-0.067l0.21,0.135c-11.757,18.339-22.874,32.289-36.017,41.66c-13.142,9.372-28.305,14.147-48.081,14.146
				c-14.606,0-25.599-3.476-32.944-9.933c-7.348-6.456-11.016-15.882-11.012-27.68c-0.002-13.355,6.211-25.536,17.484-34.357
				c11.272-8.824,27.604-14.299,47.854-14.299h71.42v-29.578h-70.01c-34.392-0.001-61.836,6.986-80.662,20.134
				c-18.824,13.15-29.057,32.438-29.061,57.16c0.002,23.924,6.799,42.762,20.249,55.628c13.451,12.866,33.587,19.785,60.335,19.786
				c37.478,0.004,73.598-25.773,97.303-67.078L216.703,240.835l-0.24,0.067L216.703,240.835z M202.603,303.341l-0.244,0.055
				c-3.062-13.655-5.175-33.871-5.176-51.28V128.982c-0.002-15.457-4.912-27.713-14.223-36.119s-23.049-12.977-40.75-12.978
				c-16.403,0-30.098,4.396-39.68,11.553c-9.581,7.16-15.053,17.066-15.055,28.145l-0.073,0.178l-0.177,0.072H43.754l-0.176-0.072
				l-0.074-0.178c0-19.71,10.271-38.579,28.029-52.51c17.762-13.932,43.018-22.935,73.029-22.935
				c29.295,0,53.442,7.353,70.274,21.707c16.834,14.354,26.321,35.705,26.318,63.606v122.661c0,18.079,1.642,34.264,6.568,51.155
				l-0.041,0.221l-0.199,0.101h-44.882c-0.118,0-0.219-0.081-0.244-0.195L202.603,303.341v-0.25h44.882v0.25l-0.24,0.069
				c-4.941-16.946-6.588-33.188-6.588-51.296V129.453c-0.002-27.791-9.432-48.972-26.143-63.227
				c-16.714-14.254-40.736-21.588-69.951-21.588c-29.91,0-55.058,8.974-72.722,22.827C54.18,81.322,44.004,100.05,44.004,119.582
				h-0.25v-0.25h43.474v0.25h-0.25c-0.002-11.247,5.569-21.312,15.256-28.545c9.688-7.234,23.485-11.651,39.979-11.651
				c17.783,0,31.656,4.594,41.086,13.105c9.431,8.512,14.388,20.931,14.387,36.49v123.132c-0.001,17.368,2.113,37.568,5.164,51.171
				L202.603,303.341v-0.25V303.341z"/>
		</g>
		<path fill="#FFFFFF" d="M202.358,303.396l-3.056-13.631c-0.029-0.136,0.055-0.27,0.188-0.3c0.134-0.029,0.271,0.056,0.299,0.189
			l3.057,13.631c0.029,0.136-0.056,0.27-0.19,0.3C202.521,303.615,202.389,303.53,202.358,303.396"/>
		<path fill="#FFFFFF" d="M197.683,252.113v17.389c0,0.139-0.112,0.25-0.25,0.25c-0.139,0-0.25-0.111-0.25-0.25v-17.389
			c0-0.139,0.111-0.25,0.25-0.25C197.571,251.863,197.683,251.975,197.683,252.113"/>
		<path fill="#FFFFFF" d="M197.183,128.981V97.966c0-0.139,0.111-0.25,0.25-0.25c0.138,0,0.25,0.111,0.25,0.25v31.017
			c0,0.138-0.112,0.25-0.25,0.25C197.295,129.232,197.183,129.119,197.183,128.981"/>
		<path fill="#FFFFFF" d="M142.213,79.387h35.482c0.138,0,0.25,0.11,0.25,0.25c0,0.138-0.112,0.25-0.25,0.25h-35.482
			c-0.139,0-0.25-0.112-0.25-0.25C141.963,79.498,142.074,79.387,142.213,79.387"/>
		<path fill="#FFFFFF" d="M142.213,79.887h-32.897c-0.14,0-0.25-0.112-0.25-0.25c0-0.14,0.11-0.25,0.25-0.25h32.897
			c0.138,0,0.25,0.11,0.25,0.25C142.463,79.774,142.35,79.887,142.213,79.887"/>
		<path fill="#FFFFFF" d="M86.977,119.583V97.26c0-0.139,0.11-0.25,0.25-0.25c0.138,0,0.25,0.111,0.25,0.25v22.322
			c0,0.139-0.112,0.25-0.25,0.25C87.088,119.833,86.977,119.721,86.977,119.583"/>
		<path fill="#FFFFFF" d="M43.506,119.583V80.342c0-0.138,0.111-0.25,0.25-0.25c0.138,0,0.25,0.112,0.25,0.25v39.241
			c0,0.139-0.112,0.25-0.25,0.25C43.617,119.833,43.506,119.721,43.506,119.583"/>
		<path fill="#FFFFFF" d="M144.562,44.639h-59.92c-0.139,0-0.25-0.112-0.25-0.25c0-0.139,0.111-0.25,0.25-0.25h59.921
			c0.139,0,0.25,0.111,0.25,0.25C144.813,44.527,144.701,44.639,144.562,44.639"/>
		<path fill="#FFFFFF" d="M144.562,44.139h58.51c0.139,0,0.25,0.111,0.25,0.25c0,0.138-0.111,0.25-0.25,0.25h-58.51
			c-0.14,0-0.25-0.112-0.25-0.25C144.312,44.251,144.424,44.139,144.562,44.139"/>
		<path fill="#FFFFFF" d="M240.656,129.452V73.76c0-0.139,0.111-0.25,0.25-0.25s0.25,0.111,0.25,0.25v55.691
			c0,0.138-0.111,0.25-0.25,0.25S240.656,129.59,240.656,129.452"/>
		<path fill="#FFFFFF" d="M241.156,252.113v18.095c0,0.139-0.111,0.25-0.25,0.25s-0.25-0.111-0.25-0.25v-18.095
			c0-0.139,0.111-0.25,0.25-0.25S241.156,251.975,241.156,252.113"/>
		<path fill="#FFFFFF" d="M247.244,303.411l-4.936-16.92c-0.038-0.133,0.038-0.271,0.171-0.311c0.132-0.038,0.271,0.037,0.31,0.17
			l4.937,16.92c0.039,0.133-0.037,0.271-0.17,0.311C247.422,303.619,247.283,303.544,247.244,303.411"/>
		<path fill="#FFFFFF" d="M216.92,240.96l-23.733,41.354c-0.068,0.12-0.222,0.161-0.341,0.093c-0.12-0.068-0.161-0.222-0.094-0.341
			l23.732-41.355c0.07-0.12,0.223-0.161,0.342-0.092C216.946,240.688,216.988,240.84,216.92,240.96"/>
		<path fill="#FFFFFF" d="M119.184,307.79h37.598c0.139,0,0.25,0.112,0.25,0.25c0,0.139-0.111,0.25-0.25,0.25h-37.598
			c-0.14,0-0.25-0.111-0.25-0.25C118.934,307.902,119.045,307.79,119.184,307.79"/>
		<path fill="#FFFFFF" d="M119.184,308.29H65.608c-0.138,0-0.25-0.111-0.25-0.25c0-0.138,0.112-0.25,0.25-0.25h53.575
			c0.139,0,0.25,0.112,0.25,0.25C119.433,308.178,119.322,308.29,119.184,308.29"/>
		<path fill="#FFFFFF" d="M38.6,232.375v47.938c0,0.138-0.111,0.25-0.25,0.25c-0.14,0-0.25-0.112-0.25-0.25v-47.938
			c0-0.138,0.11-0.25,0.25-0.25C38.489,232.125,38.6,232.237,38.6,232.375"/>
		<path fill="#FFFFFF" d="M38.1,232.375v-49.581c0-0.138,0.11-0.25,0.25-0.25c0.139,0,0.25,0.112,0.25,0.25v49.581
			c0,0.139-0.111,0.25-0.25,0.25C38.211,232.625,38.1,232.513,38.1,232.375"/>
		<path fill="#FFFFFF" d="M148.322,155.08h-68.85c-0.14,0-0.25-0.11-0.25-0.25c0-0.138,0.11-0.25,0.25-0.25h68.85
			c0.139,0,0.25,0.112,0.25,0.25C148.572,154.969,148.461,155.08,148.322,155.08"/>
		<path fill="#FFFFFF" d="M146.912,185.159h-40.417c-0.138,0-0.25-0.112-0.25-0.25c0-0.139,0.112-0.25,0.25-0.25h40.417
			c0.139,0,0.25,0.111,0.25,0.25C147.162,185.047,147.051,185.159,146.912,185.159"/>
		<path fill="#FFFFFF" d="M81.571,233.316V206.76c0-0.139,0.112-0.25,0.249-0.25c0.139,0,0.251,0.111,0.251,0.25v26.556
			c0,0.138-0.112,0.25-0.251,0.25C81.684,233.566,81.571,233.454,81.571,233.316"/>
		<path fill="#FFFFFF" d="M82.071,233.316v23.495c0,0.139-0.112,0.25-0.251,0.25c-0.137,0-0.249-0.111-0.249-0.25v-23.495
			c0-0.139,0.112-0.25,0.249-0.25C81.959,233.066,82.071,233.178,82.071,233.316"/>
		<path fill="#FFFFFF" d="M125.528,270.928H96.391c-0.14,0-0.25-0.111-0.25-0.25s0.11-0.25,0.25-0.25h29.138
			c0.138,0,0.25,0.111,0.25,0.25C125.778,270.816,125.666,270.928,125.528,270.928"/>
		<path fill="#FFFFFF" d="M125.528,270.428h39.478c0.14,0,0.25,0.111,0.25,0.25s-0.11,0.25-0.25,0.25h-39.478
			c-0.138,0-0.25-0.111-0.25-0.25S125.391,270.428,125.528,270.428"/>
		<path fill="#FFFFFF" d="M209.627,215.121l-23.498,36.656c-0.073,0.116-0.229,0.15-0.345,0.075
			c-0.116-0.074-0.15-0.229-0.075-0.346l23.496-36.655c0.075-0.116,0.229-0.15,0.346-0.076
			C209.667,214.851,209.701,215.005,209.627,215.121"/>
		<rect x="198.775" y="299.514" fill="#E84E1B" width="7.654" height="7.654"/>
		<rect x="193.605" y="248.285" fill="#E84E1B" width="7.653" height="7.655"/>
		<rect x="193.605" y="248.285" fill="#E84E1B" width="7.653" height="7.655"/>
		<rect x="193.605" y="125.154" fill="#E84E1B" width="7.653" height="7.654"/>
		<rect x="193.605" y="125.154" fill="#E84E1B" width="7.653" height="7.654"/>
		<rect x="138.385" y="75.81" fill="#E84E1B" width="7.654" height="7.653"/>
		<rect x="138.385" y="75.81" fill="#E84E1B" width="7.654" height="7.653"/>
		<rect x="83.398" y="115.756" fill="#E84E1B" width="7.654" height="7.653"/>
		<rect x="83.398" y="115.756" fill="#E84E1B" width="7.654" height="7.653"/>
		<rect x="39.928" y="115.756" fill="#E84E1B" width="7.653" height="7.653"/>
		<rect x="39.928" y="115.756" fill="#E84E1B" width="7.653" height="7.653"/>
		<rect x="140.736" y="40.562" fill="#E84E1B" width="7.652" height="7.653"/>
		<rect x="140.736" y="40.562" fill="#E84E1B" width="7.652" height="7.653"/>
		<rect x="237.078" y="125.625" fill="#E84E1B" width="7.652" height="7.653"/>
		<rect x="237.078" y="125.625" fill="#E84E1B" width="7.652" height="7.653"/>
		<rect x="237.078" y="248.285" fill="#E84E1B" width="7.652" height="7.655"/>
		<rect x="237.078" y="248.285" fill="#E84E1B" width="7.652" height="7.655"/>
		<rect x="243.656" y="299.514" fill="#E84E1B" width="7.654" height="7.654"/>
		<rect x="243.656" y="299.514" fill="#E84E1B" width="7.654" height="7.654"/>
		<rect x="198.775" y="299.514" fill="#E84E1B" width="7.654" height="7.654"/>
		<rect x="212.875" y="237.009" fill="#E84E1B" width="7.654" height="7.653"/>
		<rect x="115.357" y="304.214" fill="#E84E1B" width="7.651" height="7.652"/>
		<rect x="115.357" y="304.214" fill="#E84E1B" width="7.651" height="7.652"/>
		<rect x="34.523" y="228.548" fill="#E84E1B" width="7.652" height="7.653"/>
		<rect x="34.523" y="228.548" fill="#E84E1B" width="7.652" height="7.653"/>
		<rect x="144.496" y="151.004" fill="#E84E1B" width="7.652" height="7.654"/>
		<rect x="144.496" y="151.004" fill="#E84E1B" width="7.652" height="7.654"/>
		<rect x="214.756" y="151.004" fill="#E84E1B" width="7.652" height="7.654"/>
		<rect x="214.756" y="151.004" fill="#E84E1B" width="7.652" height="7.654"/>
		<rect x="214.756" y="181.082" fill="#E84E1B" width="7.652" height="7.653"/>
		<rect x="214.756" y="181.082" fill="#E84E1B" width="7.652" height="7.653"/>
		<rect x="143.086" y="181.082" fill="#E84E1B" width="7.652" height="7.653"/>
		<rect x="143.086" y="181.082" fill="#E84E1B" width="7.652" height="7.653"/>
		<rect x="77.996" y="229.488" fill="#E84E1B" width="7.652" height="7.654"/>
		<rect x="77.996" y="229.488" fill="#E84E1B" width="7.652" height="7.654"/>
		<rect x="121.701" y="266.851" fill="#E84E1B" width="7.652" height="7.654"/>
		<rect x="121.701" y="266.851" fill="#E84E1B" width="7.652" height="7.654"/>
		<rect x="205.591" y="211.159" fill="#E84E1B" width="7.651" height="7.654"/>
		<rect x="205.591" y="211.159" fill="#E84E1B" width="7.651" height="7.654"/>
		<rect x="212.875" y="237.009" fill="#E84E1B" width="7.654" height="7.653"/>
		<g>
			<path fill="#F3ECE9" d="M195.827,289.71c0-2.054,1.666-3.72,3.722-3.72c2.054,0,3.72,1.666,3.72,3.72
				c0,2.055-1.666,3.721-3.72,3.721C197.493,293.43,195.827,291.764,195.827,289.71"/>
			<path fill="#F3ECE9" d="M193.713,269.502c0-2.055,1.666-3.721,3.721-3.721c2.054,0,3.72,1.666,3.72,3.721
				s-1.666,3.721-3.72,3.721C195.379,273.222,193.713,271.556,193.713,269.502"/>
			<path fill="#F3ECE9" d="M193.713,97.966c0-2.054,1.666-3.72,3.721-3.72c2.054,0,3.72,1.666,3.72,3.72
				c0,2.055-1.666,3.721-3.72,3.721C195.379,101.686,193.713,100.02,193.713,97.966"/>
			<path fill="#F3ECE9" d="M173.975,79.637c0-2.056,1.666-3.722,3.721-3.722s3.721,1.666,3.721,3.722c0,2.054-1.666,3.72-3.721,3.72
				S173.975,81.69,173.975,79.637"/>
			<path fill="#F3ECE9" d="M105.594,79.637c0-2.056,1.665-3.722,3.721-3.722c2.055,0,3.721,1.666,3.721,3.722
				c0,2.054-1.666,3.72-3.721,3.72C107.26,83.357,105.594,81.69,105.594,79.637"/>
			<path fill="#F3ECE9" d="M83.506,97.26c0-2.055,1.666-3.721,3.722-3.721c2.053,0,3.72,1.666,3.72,3.721s-1.667,3.721-3.72,3.721
				C85.172,100.98,83.506,99.314,83.506,97.26"/>
			<path fill="#F3ECE9" d="M40.035,80.342c0-2.054,1.665-3.72,3.721-3.72c2.054,0,3.72,1.666,3.72,3.72
				c0,2.056-1.666,3.722-3.72,3.722C41.7,84.062,40.035,82.396,40.035,80.342"/>
			<path fill="#F3ECE9" d="M80.92,44.389c0-2.055,1.666-3.721,3.723-3.721c2.054,0,3.721,1.666,3.721,3.721
				c0,2.054-1.667,3.72-3.721,3.72C82.586,48.108,80.92,46.442,80.92,44.389"/>
			<path fill="#F3ECE9" d="M199.352,44.389c0-2.055,1.666-3.721,3.721-3.721s3.721,1.666,3.721,3.721c0,2.054-1.666,3.72-3.721,3.72
				S199.352,46.442,199.352,44.389"/>
			<path fill="#F3ECE9" d="M237.184,73.76c0-2.055,1.667-3.721,3.723-3.721c2.053,0,3.719,1.666,3.719,3.721
				s-1.666,3.721-3.719,3.721C238.851,77.48,237.184,75.814,237.184,73.76"/>
			<path fill="#F3ECE9" d="M237.184,270.207c0-2.054,1.667-3.72,3.723-3.72c2.053,0,3.719,1.666,3.719,3.72
				c0,2.056-1.666,3.722-3.719,3.722C238.851,273.928,237.184,272.262,237.184,270.207"/>
			<path fill="#F3ECE9" d="M238.829,286.421c0-2.055,1.666-3.722,3.721-3.722s3.721,1.667,3.721,3.722
				c0,2.057-1.666,3.723-3.721,3.723S238.829,288.477,238.829,286.421"/>
			<path fill="#F3ECE9" d="M189.248,282.191c0-2.055,1.666-3.721,3.722-3.721c2.053,0,3.719,1.666,3.719,3.721
				c0,2.054-1.666,3.72-3.719,3.72C190.914,285.911,189.248,284.245,189.248,282.191"/>
			<path fill="#F3ECE9" d="M153.061,308.04c0-2.054,1.666-3.72,3.721-3.72s3.721,1.666,3.721,3.72c0,2.055-1.666,3.721-3.721,3.721
				S153.061,310.094,153.061,308.04"/>
			<path fill="#F3ECE9" d="M61.887,308.04c0-2.054,1.668-3.72,3.722-3.72c2.055,0,3.721,1.666,3.721,3.72
				c0,2.055-1.666,3.721-3.721,3.721C63.555,311.76,61.887,310.094,61.887,308.04"/>
			<path fill="#F3ECE9" d="M34.629,280.312c0-2.055,1.666-3.721,3.722-3.721c2.055,0,3.721,1.666,3.721,3.721
				c0,2.054-1.666,3.72-3.721,3.72C36.295,284.032,34.629,282.365,34.629,280.312"/>
			<path fill="#F3ECE9" d="M34.629,182.795c0-2.055,1.666-3.721,3.722-3.721c2.055,0,3.721,1.666,3.721,3.721
				s-1.666,3.721-3.721,3.721C36.295,186.515,34.629,184.849,34.629,182.795"/>
			<path fill="#F3ECE9" d="M75.752,154.83c0-2.054,1.666-3.72,3.722-3.72c2.054,0,3.721,1.666,3.721,3.72
				c0,2.056-1.667,3.721-3.721,3.721C77.418,158.551,75.752,156.885,75.752,154.83"/>
			<path fill="#F3ECE9" d="M102.774,184.909c0-2.055,1.665-3.721,3.721-3.721c2.054,0,3.72,1.666,3.72,3.721
				c0,2.054-1.666,3.72-3.72,3.72C104.439,188.629,102.774,186.963,102.774,184.909"/>
			<path fill="#F3ECE9" d="M78.102,206.761c0-2.055,1.666-3.721,3.719-3.721c2.056,0,3.723,1.666,3.723,3.721
				c0,2.054-1.667,3.72-3.723,3.72C79.768,210.48,78.102,208.814,78.102,206.761"/>
			<path fill="#F3ECE9" d="M78.102,256.812c0-2.056,1.666-3.722,3.719-3.722c2.056,0,3.723,1.666,3.723,3.722
				c0,2.054-1.667,3.72-3.723,3.72C79.768,260.532,78.102,258.866,78.102,256.812"/>
			<path fill="#F3ECE9" d="M92.672,270.678c0-2.055,1.666-3.721,3.72-3.721c2.055,0,3.721,1.666,3.721,3.721
				s-1.666,3.721-3.721,3.721C94.338,274.398,92.672,272.732,92.672,270.678"/>
			<path fill="#F3ECE9" d="M161.285,270.678c0-2.055,1.666-3.721,3.721-3.721c2.054,0,3.72,1.666,3.72,3.721
				s-1.666,3.721-3.72,3.721C162.951,274.398,161.285,272.732,161.285,270.678"/>
			<path fill="#F3ECE9" d="M182.198,251.643c0-2.055,1.666-3.721,3.722-3.721c2.054,0,3.72,1.666,3.72,3.721
				c0,2.054-1.666,3.72-3.72,3.72C183.864,255.362,182.198,253.696,182.198,251.643"/>
		</g>
	</g>
</g>
<g>
	<g>
		<g>
			<g>
				<path fill="#FFFFFF" d="M625.344,241.348l0.216,0.124c-23.763,41.407-60.017,67.326-97.733,67.329
					c-26.829,0-47.11-6.943-60.682-19.927c-13.572-12.979-20.404-31.976-20.402-55.988c-0.006-24.858,10.323-44.343,29.273-57.568
					c18.947-13.229,46.49-20.226,80.947-20.226h70.26l0.176,0.072l0.074,0.178v30.077l-0.074,0.177l-0.176,0.073h-71.669
					c-20.163,0-36.38,5.452-47.548,14.193c-11.166,8.742-17.291,20.766-17.292,33.963c0.003,11.701,3.62,20.956,10.841,27.305
					c7.223,6.352,18.083,9.809,32.613,9.809c19.699-0.001,34.731-4.743,47.791-14.052c13.059-9.312,24.146-23.206,35.889-41.523
					c0.055-0.084,0.15-0.128,0.248-0.113c0.098,0.016,0.178,0.084,0.203,0.181l7.285,25.85l-0.024,0.192L625.344,241.348
					l-0.241,0.066l-7.284-25.85l0.24-0.068l0.211,0.137c-11.758,18.339-22.877,32.289-36.021,41.66
					c-13.142,9.371-28.305,14.146-48.081,14.146c-14.604,0-25.599-3.475-32.943-9.932s-11.014-15.884-11.01-27.682
					c-0.002-13.354,6.209-25.536,17.482-34.356c11.272-8.823,27.604-14.301,47.855-14.301h71.419v-29.577h-70.01
					c-34.393,0-61.834,6.987-80.662,20.136c-18.823,13.149-29.056,32.438-29.061,57.159c0.002,23.925,6.798,42.762,20.247,55.629
					c13.453,12.866,33.59,19.785,60.338,19.785c37.477,0.003,73.599-25.773,97.302-67.077L625.344,241.348l-0.241,0.066
					L625.344,241.348 M611.244,303.852l-0.243,0.055c-3.062-13.656-5.177-33.872-5.177-51.281V129.495
					c-0.002-15.459-4.913-27.714-14.222-36.12c-9.312-8.405-23.05-12.978-40.751-12.978c-16.403,0-30.096,4.396-39.678,11.552
					c-9.582,7.161-15.056,17.068-15.058,28.146l-0.071,0.176l-0.179,0.074h-43.473l-0.176-0.074l-0.073-0.176
					c0-19.712,10.269-38.578,28.03-52.511c17.76-13.933,43.018-22.934,73.026-22.934c29.295,0,53.442,7.353,70.275,21.707
					c16.832,14.353,26.319,35.704,26.315,63.606v122.66c0,18.078,1.645,34.265,6.57,51.156l-0.041,0.221l-0.199,0.101h-44.881
					c-0.114,0-0.219-0.083-0.244-0.195L611.244,303.852v-0.25h44.882v0.25l-0.24,0.069c-4.942-16.945-6.59-33.187-6.59-51.296
					v-122.66c-0.004-27.793-9.432-48.972-26.144-63.228c-16.711-14.254-40.731-21.588-69.949-21.588
					c-29.909,0-55.058,8.975-72.721,22.827c-17.663,13.856-27.838,32.585-27.838,52.117h-0.25v-0.251h43.473v0.251h-0.25
					c-0.001-11.246,5.57-21.312,15.256-28.545c9.688-7.235,23.488-11.651,39.979-11.651c17.783-0.002,31.656,4.592,41.086,13.104
					c9.431,8.515,14.389,20.933,14.387,36.492v123.131c0,17.369,2.113,37.568,5.164,51.172L611.244,303.852v-0.25V303.852"/>
			</g>
			<rect x="608.373" y="300.982" fill="#F3ECE9" width="5.741" height="5.741"/>
			<polyline fill="#F3ECE9" points="603.203,249.754 608.943,249.754 608.943,255.495 603.203,255.495 603.203,249.754 			"/>
			<polyline fill="#F3ECE9" points="603.203,249.754 608.943,249.754 608.943,255.495 603.203,255.495 603.203,249.754 			"/>
			<rect x="603.203" y="126.623" fill="#F3ECE9" width="5.741" height="5.741"/>
			<rect x="603.203" y="126.623" fill="#F3ECE9" width="5.741" height="5.741"/>
			<rect x="547.982" y="77.277" fill="#F3ECE9" width="5.74" height="5.741"/>
			<rect x="547.982" y="77.277" fill="#F3ECE9" width="5.74" height="5.741"/>
			<rect x="492.997" y="117.225" fill="#F3ECE9" width="5.739" height="5.739"/>
			<rect x="492.997" y="117.225" fill="#F3ECE9" width="5.739" height="5.739"/>
			<rect x="449.525" y="117.225" fill="#F3ECE9" width="5.74" height="5.739"/>
			<rect x="449.525" y="117.225" fill="#F3ECE9" width="5.74" height="5.739"/>
			<rect x="550.335" y="42.03" fill="#F3ECE9" width="5.737" height="5.741"/>
			<rect x="550.335" y="42.03" fill="#F3ECE9" width="5.737" height="5.741"/>
			<rect x="646.678" y="127.094" fill="#F3ECE9" width="5.737" height="5.74"/>
			<rect x="646.678" y="127.094" fill="#F3ECE9" width="5.737" height="5.74"/>
			<rect x="646.678" y="249.754" fill="#F3ECE9" width="5.737" height="5.741"/>
			<rect x="646.678" y="249.754" fill="#F3ECE9" width="5.737" height="5.741"/>
			<rect x="653.257" y="300.982" fill="#F3ECE9" width="5.739" height="5.741"/>
			<rect x="653.257" y="300.982" fill="#F3ECE9" width="5.739" height="5.741"/>
			<rect x="608.373" y="300.982" fill="#F3ECE9" width="5.741" height="5.741"/>
			<polyline fill="#F3ECE9" points="622.473,238.477 628.215,238.477 628.215,244.219 622.473,244.219 622.473,238.477 			"/>
			<rect x="524.955" y="305.681" fill="#F3ECE9" width="5.739" height="5.741"/>
			<rect x="524.955" y="305.681" fill="#F3ECE9" width="5.739" height="5.741"/>
			<rect x="444.12" y="230.017" fill="#F3ECE9" width="5.741" height="5.739"/>
			<rect x="444.12" y="230.017" fill="#F3ECE9" width="5.741" height="5.739"/>
			<rect x="554.094" y="152.472" fill="#F3ECE9" width="5.738" height="5.74"/>
			<rect x="554.094" y="152.472" fill="#F3ECE9" width="5.738" height="5.74"/>
			<polyline fill="#F3ECE9" points="624.352,152.473 630.093,152.473 630.093,158.214 624.352,158.214 624.352,152.473 			"/>
			<polyline fill="#F3ECE9" points="624.352,152.473 630.093,152.473 630.093,158.214 624.352,158.214 624.352,152.473 			"/>
			<polyline fill="#F3ECE9" points="624.352,182.551 630.093,182.551 630.093,188.292 624.352,188.292 624.352,182.551 			"/>
			<polyline fill="#F3ECE9" points="624.352,182.551 630.093,182.551 630.093,188.292 624.352,188.292 624.352,182.551 			"/>
			<rect x="552.684" y="182.55" fill="#F3ECE9" width="5.738" height="5.741"/>
			<rect x="552.684" y="182.55" fill="#F3ECE9" width="5.738" height="5.741"/>
			<rect x="487.594" y="230.957" fill="#F3ECE9" width="5.737" height="5.741"/>
			<rect x="487.594" y="230.957" fill="#F3ECE9" width="5.737" height="5.741"/>
			<rect x="531.302" y="268.319" fill="#F3ECE9" width="5.737" height="5.741"/>
			<rect x="531.302" y="268.319" fill="#F3ECE9" width="5.737" height="5.741"/>
			<rect x="615.188" y="212.627" fill="#F3ECE9" width="5.74" height="5.741"/>
			<rect x="615.188" y="212.627" fill="#F3ECE9" width="5.74" height="5.741"/>
			<polyline fill="#F3ECE9" points="622.473,238.477 628.215,238.477 628.215,244.219 622.473,244.219 622.473,238.477 			"/>
			<g>
				<g>
					<g>
						<defs>
							<polyline id="SVGID_1_" points="473.385,304.122 633.891,304.122 633.891,61.296 473.385,61.296 473.385,304.122 							"/>
						</defs>
						<clipPath id="SVGID_2_">
							<use xlink:href="#SVGID_1_"  overflow="visible"/>
						</clipPath>
						<path clip-path="url(#SVGID_2_)" fill="#AEAEAE" d="M552.289,61.296L552.289,61.296c-23.015,0.002-42.731,6.339-56.704,16.863
							c-13.862,10.437-22.068,25.01-22.2,41.567v0.117h0.501c0.094-16.438,8.209-30.896,22-41.285
							c13.869-10.448,33.479-16.763,56.403-16.763c45.812,0.004,74.99,33.437,74.994,68.264v22.413h0.499V130.06
							c0-17.555-7.354-34.746-20.47-47.548C594.198,69.708,575.32,61.296,552.289,61.296"/>
					</g>
					<g>
						<defs>
							<polyline id="SVGID_3_" points="473.385,304.122 633.891,304.122 633.891,61.296 473.385,61.296 473.385,304.122 							"/>
						</defs>
						<clipPath id="SVGID_4_">
							<use xlink:href="#SVGID_3_"  overflow="visible"/>
						</clipPath>
						<path clip-path="url(#SVGID_4_)" fill="#FFFFFF" d="M473.885,119.844h-0.501v0.285h0.499
							C473.884,120.035,473.884,119.938,473.885,119.844"/>
					</g>
					<g>
						<defs>
							<polyline id="SVGID_5_" points="473.385,304.122 633.891,304.122 633.891,61.296 473.385,61.296 473.385,304.122 							"/>
						</defs>
						<clipPath id="SVGID_6_">
							<use xlink:href="#SVGID_5_"  overflow="visible"/>
						</clipPath>
						<path clip-path="url(#SVGID_6_)" fill="#AEAEAE" d="M627.782,158.214h-0.31v11.411c0.024,0,0.037,0,0.037,0h0.006v0.499
							c0,0-0.015,0-0.043,0.001v12.426h0.31V158.214"/>
					</g>
					<g>
						<defs>
							<polyline id="SVGID_7_" points="473.385,304.122 633.891,304.122 633.891,61.296 473.385,61.296 473.385,304.122 							"/>
						</defs>
						<clipPath id="SVGID_8_">
							<use xlink:href="#SVGID_7_"  overflow="visible"/>
						</clipPath>
						<path clip-path="url(#SVGID_8_)" fill="#FFFFFF" d="M627.473,170.125c-0.037,0-0.103,0.001-0.189,0.001v12.426h0.189V170.125
							 M627.473,158.214h-0.189v11.413c0.09-0.001,0.152-0.001,0.189-0.002V158.214"/>
					</g>
					<g>
						<defs>
							<polyline id="SVGID_9_" points="473.385,304.122 633.891,304.122 633.891,61.296 473.385,61.296 473.385,304.122 							"/>
						</defs>
						<clipPath id="SVGID_10_">
							<use xlink:href="#SVGID_9_"  overflow="visible"/>
						</clipPath>
						<path clip-path="url(#SVGID_10_)" fill="#AEAEAE" d="M633.473,304.103h-0.055c0.004,0.007,0.006,0.013,0.008,0.02
							L633.473,304.103 M627.782,244.219h-0.499v8.271c0.001,21.325,0.519,37.651,5.933,51.111h0.539
							c-5.438-13.369-5.974-29.692-5.973-51.111V244.219 M627.782,188.292h-0.499v50.186h0.499V188.292"/>
					</g>
					<g>
						<defs>
							<polyline id="SVGID_11_" points="473.385,304.122 633.891,304.122 633.891,61.296 473.385,61.296 473.385,304.122 							"/>
						</defs>
						<clipPath id="SVGID_12_">
							<use xlink:href="#SVGID_11_"  overflow="visible"/>
						</clipPath>
						<path clip-path="url(#SVGID_12_)" fill="#FFFFFF" d="M633.755,303.602h-0.539c0.065,0.167,0.135,0.334,0.203,0.501h0.055
							l0.416-0.172C633.844,303.821,633.8,303.713,633.755,303.602"/>
					</g>
					<g>
						<defs>
							<polyline id="SVGID_13_" points="473.385,304.122 633.891,304.122 633.891,61.296 473.385,61.296 473.385,304.122 							"/>
						</defs>
						<clipPath id="SVGID_14_">
							<use xlink:href="#SVGID_13_"  overflow="visible"/>
						</clipPath>
						<polyline clip-path="url(#SVGID_14_)" fill="#FAD3C6" points="627.782,152.473 627.283,152.473 627.283,158.214 
							627.782,158.214 627.782,152.473 						"/>
					</g>
					<g>
						<defs>
							<polyline id="SVGID_15_" points="473.385,304.122 633.891,304.122 633.891,61.296 473.385,61.296 473.385,304.122 							"/>
						</defs>
						<clipPath id="SVGID_16_">
							<use xlink:href="#SVGID_15_"  overflow="visible"/>
						</clipPath>
						<polyline clip-path="url(#SVGID_16_)" fill="#FAD3C6" points="627.782,182.551 627.473,182.551 627.283,182.551 
							627.283,188.292 627.782,188.292 627.782,182.551 						"/>
					</g>
					<g>
						<defs>
							<polyline id="SVGID_17_" points="473.385,304.122 633.891,304.122 633.891,61.296 473.385,61.296 473.385,304.122 							"/>
						</defs>
						<clipPath id="SVGID_18_">
							<use xlink:href="#SVGID_17_"  overflow="visible"/>
						</clipPath>
						<polyline clip-path="url(#SVGID_18_)" fill="#FAD3C6" points="627.782,238.477 627.283,238.477 627.283,244.219 
							627.782,244.219 627.782,238.477 						"/>
					</g>
				</g>
				<g>
					<g>
						<defs>
							<polyline id="SVGID_19_" points="468.491,290.714 627.516,290.714 627.516,169.625 468.491,169.625 468.491,290.714 							
								"/>
						</defs>
						<clipPath id="SVGID_20_">
							<use xlink:href="#SVGID_19_"  overflow="visible"/>
						</clipPath>
						<path clip-path="url(#SVGID_20_)" fill="#AEAEAE" d="M605.824,169.787c-0.479,0.003-0.963,0.006-1.453,0.009
							c-13.649,0.084-31.467,0.17-48.118,0.17c-16.695,0.003-38.604,4.354-56.369,14.372
							c-17.761,10.016-31.394,25.742-31.393,48.438c-0.001,22.626,6.264,37.145,17.123,45.978
							c10.856,8.83,26.243,11.959,44.434,11.959c27.169-0.006,53.178-15.546,73.155-37.067v-0.735
							c-19.961,21.653-46.021,37.312-73.155,37.304c-0.007,0-0.009,0-0.015,0c-18.131,0-33.395-3.13-44.104-11.847
							c-10.713-8.719-16.935-23.046-16.938-45.59c0.002-22.478,13.472-38.029,31.138-48.002
							c17.663-9.966,39.512-14.31,56.122-14.309c17.25,0,35.748-0.092,49.572-0.181L605.824,169.787 M626.973,169.63
							c-0.916,0.009-2.967,0.025-5.912,0.05c-3.684,0.027-8.76,0.064-14.736,0.104v0.5c10.744-0.069,18.576-0.136,20.648-0.154
							V169.63"/>
					</g>
					<g>
						<defs>
							<polyline id="SVGID_21_" points="468.491,290.714 627.516,290.714 627.516,169.625 468.491,169.625 468.491,290.714 							
								"/>
						</defs>
						<clipPath id="SVGID_22_">
							<use xlink:href="#SVGID_21_"  overflow="visible"/>
						</clipPath>
						<path clip-path="url(#SVGID_22_)" fill="#FFFFFF" d="M606.324,169.783c-0.166,0.001-0.332,0.003-0.5,0.004v0.499
							c0.168-0.001,0.334-0.002,0.5-0.003V169.783 M627.283,169.627c-0.082,0.001-0.186,0.001-0.311,0.003v0.499
							c0.124-0.001,0.229-0.002,0.311-0.003V169.627"/>
					</g>
					<g>
						<defs>
							<polyline id="SVGID_23_" points="468.491,290.714 627.516,290.714 627.516,169.625 468.491,169.625 468.491,290.714 							
								"/>
						</defs>
						<clipPath id="SVGID_24_">
							<use xlink:href="#SVGID_23_"  overflow="visible"/>
						</clipPath>
						<path clip-path="url(#SVGID_24_)" fill="#AEAEAE" d="M620.969,229.575c-4.306,6.904-9.225,13.59-14.646,19.843v0.336h0.369
							c5.441-6.276,10.379-12.986,14.699-19.915L620.969,229.575"/>
					</g>
					<g>
						<defs>
							<polyline id="SVGID_25_" points="468.491,290.714 627.516,290.714 627.516,169.625 468.491,169.625 468.491,290.714 							
								"/>
						</defs>
						<clipPath id="SVGID_26_">
							<use xlink:href="#SVGID_25_"  overflow="visible"/>
						</clipPath>
						<path clip-path="url(#SVGID_26_)" fill="#FFFFFF" d="M606.324,249.418c-0.098,0.112-0.193,0.225-0.293,0.336h0.293V249.418"/>
					</g>
					<g>
						<defs>
							<polyline id="SVGID_27_" points="468.491,290.714 627.516,290.714 627.516,169.625 468.491,169.625 468.491,290.714 							
								"/>
						</defs>
						<clipPath id="SVGID_28_">
							<use xlink:href="#SVGID_27_"  overflow="visible"/>
						</clipPath>
						<path clip-path="url(#SVGID_28_)" fill="#FAD3C6" d="M606.693,249.754h-0.369h-0.293c-0.928,1.064-1.871,2.116-2.828,3.155
							v0.735C604.387,252.368,605.552,251.07,606.693,249.754"/>
					</g>
					<g>
						<defs>
							<polyline id="SVGID_29_" points="468.491,290.714 627.516,290.714 627.516,169.625 468.491,169.625 468.491,290.714 							
								"/>
						</defs>
						<clipPath id="SVGID_30_">
							<use xlink:href="#SVGID_29_"  overflow="visible"/>
						</clipPath>
						<path clip-path="url(#SVGID_30_)" fill="#D7D7D7" d="M627.516,169.625L627.516,169.625c-0.006,0-0.019,0-0.043,0v0.5
							c0.029-0.001,0.043-0.001,0.043-0.001l0,0l-0.005-0.499"/>
					</g>
					<g>
						<defs>
							<polyline id="SVGID_31_" points="468.491,290.714 627.516,290.714 627.516,169.625 468.491,169.625 468.491,290.714 							
								"/>
						</defs>
						<clipPath id="SVGID_32_">
							<use xlink:href="#SVGID_31_"  overflow="visible"/>
						</clipPath>
						<path clip-path="url(#SVGID_32_)" fill="#FFFFFF" d="M627.473,169.625c-0.037,0.001-0.1,0.001-0.189,0.002v0.499
							c0.088,0,0.152-0.001,0.189-0.001V169.625"/>
					</g>
				</g>
				<path fill="#E84E1B" d="M557.171,61.546c0,2.697-2.187,4.885-4.882,4.885c-2.694,0-4.881-2.188-4.881-4.885
					c0-2.693,2.187-4.882,4.881-4.882C554.984,56.664,557.171,58.852,557.171,61.546"/>
				<path fill="#E84E1B" d="M478.515,120.131c0,2.698-2.188,4.884-4.882,4.884c-2.697,0-4.883-2.186-4.883-4.884
					c0-2.694,2.186-4.882,4.883-4.882C476.328,115.249,478.515,117.436,478.515,120.131"/>
				<path fill="#E84E1B" d="M632.417,130.06c0,2.695-2.188,4.882-4.884,4.882c-2.694,0-4.881-2.187-4.881-4.882
					c0-2.696,2.187-4.885,4.881-4.885C630.228,125.176,632.417,127.363,632.417,130.06"/>
				<path fill="#E84E1B" d="M633.658,252.491c0,2.698-2.188,4.883-4.882,4.883c-2.696,0-4.884-2.185-4.884-4.883
					c0-2.695,2.188-4.882,4.884-4.882C631.471,247.609,633.658,249.796,633.658,252.491"/>
				<path fill="#E84E1B" d="M626.063,229.708c0,2.697-2.188,4.883-4.883,4.883c-2.696,0-4.882-2.186-4.882-4.883
					c0-2.694,2.186-4.882,4.882-4.882C623.876,224.826,626.063,227.013,626.063,229.708"/>
				<path fill="#E84E1B" d="M632.396,169.874c0,2.697-2.187,4.883-4.883,4.883c-2.695,0-4.882-2.186-4.882-4.883
					c0-2.694,2.187-4.883,4.882-4.883C630.21,164.991,632.396,167.179,632.396,169.874"/>
				<path fill="#E84E1B" d="M561.135,170.217c0,2.697-2.188,4.884-4.881,4.884c-2.697,0-4.886-2.187-4.886-4.884
					c0-2.694,2.188-4.882,4.886-4.882C558.947,165.335,561.135,167.521,561.135,170.217"/>
				<path fill="#E84E1B" d="M473.621,232.776c0,2.696-2.186,4.882-4.88,4.882c-2.693,0-4.882-2.186-4.882-4.882
					s2.188-4.884,4.882-4.884C471.435,227.892,473.621,230.08,473.621,232.776"/>
				<path fill="#E84E1B" d="M638.539,304.025c0,2.697-2.186,4.883-4.881,4.883c-2.694,0-4.882-2.186-4.882-4.883
					c0-2.696,2.188-4.883,4.882-4.883C636.353,299.142,638.539,301.329,638.539,304.025"/>
				<path fill="#E84E1B" d="M534.93,290.464c0,2.698-2.188,4.884-4.883,4.884c-2.695,0-4.881-2.186-4.881-4.884
					c0-2.694,2.186-4.882,4.881-4.882C532.742,285.582,534.93,287.769,534.93,290.464"/>
			</g>
		</g>
	</g>
</g>
</svg>
