<?xml version="1.0" encoding="utf-8"?>
<!-- Generator: Adobe Illustrator 16.0.4, SVG Export Plug-In . SVG Version: 6.00 Build 0)  -->
<!DOCTYPE svg PUBLIC "-//W3C//DTD SVG 1.1//EN" "http://www.w3.org/Graphics/SVG/1.1/DTD/svg11.dtd">
<svg version="1.1" id="Calque_2" xmlns="http://www.w3.org/2000/svg" xmlns:xlink="http://www.w3.org/1999/xlink" x="0px" y="0px"
	 width="991.45px" height="583.471px" viewBox="0 0 991.45 583.471" enable-background="new 0 0 991.45 583.471"
	 xml:space="preserve">
<path fill="none" stroke="#FFFFFF" stroke-width="0.3392" stroke-miterlimit="10" d="M594.815,317.59v-83.78
	c4.07-41.042,11.872-88.529,40.364-82.424c19.673,4.07,19.673,47.147,19.673,80.389v85.815h4.07v-85.137
	c0-34.938,0-79.711-21.369-84.459c-27.693-6.124-37.618,22.661-42.738,56.324v-56.324h-4.07V317.59H594.815z"/>
<path fill="none" stroke="#FFFFFF" stroke-width="0.3392" stroke-miterlimit="10" d="M371.547,317.59v-83.78
	c4.07-41.042,11.871-88.529,40.363-82.424c19.674,4.07,19.674,47.148,19.674,80.389v85.815h4.07v-85.137
	c0-34.937,0-79.71-21.369-84.459c-27.693-6.125-37.619,22.66-42.738,56.324v-56.324h-4.07V317.59H371.547z"/>
<path fill="none" stroke="#FFFFFF" stroke-width="0.3392" stroke-miterlimit="10" d="M593.925,317.59v-86.791
	c4.253-40.848,12.604-89.797,41.452-83.711c20.408,4.155,20.408,47.979,20.408,81.936v88.566h5.427v-87.782
	c0-36.124,0-82.142-22.726-87.145c-28.449-6.288-39.008,22.888-44.562,57.274v-57.26h-5.47V317.59H593.925z"/>
<path fill="none" stroke="#FFFFFF" stroke-width="0.3392" stroke-miterlimit="10" d="M369.384,317.59v-83.67
	c4.07-41.297,13.822-87.879,43.162-81.482c20.098,4.24,21.2,46.3,21.2,79.27v85.883h5.427v-85.069
	c0-35.445-1.356-79.427-23.472-84.515c-28.277-6.515-40.265,20.948-46.317,54.256v-54.271h-5.427V317.59H369.384z"/>
<path fill="none" stroke="#FFFFFF" stroke-width="0.3392" stroke-miterlimit="10" d="M592.982,317.59v-88.902
	c4.41-40.872,13.229-91.977,42.626-85.871c21.072,4.239,21.072,48.844,21.072,83.497l0.038,91.243h6.75v-90.395
	c0-37.312,0-84.527-24.016-89.842c-29.29-6.436-40.474,23.189-46.471,58.387v-58.341h-6.783V317.59H592.982z"/>
<path fill="none" stroke="#FFFFFF" stroke-width="0.3392" stroke-miterlimit="10" d="M367.188,317.59v-83.61
	c4.07-41.551,15.772-87.229,46.028-80.53c20.521,4.409,22.726,45.451,22.726,78.24v85.9h6.784v-85.024
	c0-35.869-2.68-79.06-25.632-84.571c-28.964-6.917-42.92,19.488-49.906,52.585v-52.585h-6.783V317.59H367.188z"/>
<path fill="none" stroke="#FFFFFF" stroke-width="0.3392" stroke-miterlimit="10" d="M592.059,317.59v-91.469
	c4.58-40.787,13.908-93.701,43.756-87.596c21.794,4.324,21.794,49.691,21.794,85.08l0.067,93.956h8.073v-92.976
	c0-38.499,0-87.003-25.354-92.6c-30.174-6.589-41.93,23.784-48.336,59.984v-59.952h-8.14V317.59H592.059z"/>
<path fill="none" stroke="#FFFFFF" stroke-width="0.3392" stroke-miterlimit="10" d="M365.064,317.59v-83.475
	c4.07-41.789,17.706-86.596,48.844-79.643c20.918,4.579,24.225,44.604,24.225,77.166v85.93h8.141V232.6
	c0-36.293-3.986-78.74-27.729-84.62c-29.688-7.282-45.547,18.224-53.48,51.153v-51.139h-8.208V317.59H365.064z"/>
<path fill="none" stroke="#FFFFFF" stroke-width="0.3392" stroke-miterlimit="10" d="M591.186,317.59v-94.023
	c4.749-40.703,14.518-95.482,44.875-89.344c22.5,4.41,22.5,50.54,22.5,86.664l0.057,96.703h9.43v-95.652
	c0-39.686,0-89.43-26.684-95.244c-30.965-6.78-43.338,24.025-50.178,60.98v-60.98h-9.564V317.59H591.186z"/>
<path fill="none" stroke="#FFFFFF" stroke-width="0.3392" stroke-miterlimit="10" d="M362.936,317.567v-83.663
	c4.113-41.971,19.718-85.679,51.642-78.403c21.321,4.749,25.73,43.756,25.73,76.047v86.042h9.497v-84.967
	c0-36.746-5.314-78.41-29.849-84.629c-30.412-7.717-48.12,16.949-57.021,49.786v-49.81h-9.611v169.597H362.936z"/>
<path fill="none" stroke="#FFFFFF" stroke-width="0.3392" stroke-miterlimit="10" d="M590.256,317.59v-96.602
	c4.918-40.59,15.207-97.178,45.988-91.039c23.235,4.477,23.235,51.398,23.235,88.145l0.067,99.496h10.787v-98.253
	c0-40.872,0-91.864-27.984-97.97c-31.866-6.971-44.84,24.481-52.094,62.371v-62.371h-10.922V317.59H590.256z"/>
<path fill="none" stroke="#FFFFFF" stroke-width="0.3392" stroke-miterlimit="10" d="M360.726,317.59v-83.271
	c4.07-42.286,21.642-85.307,54.543-77.731c21.708,4.861,27.202,42.894,27.202,74.947v86.042h10.854v-84.854
	c0-37.244-6.614-78.113-31.985-84.728c-31.237-8.134-50.781,15.982-60.614,48.873v-48.873h-10.921V317.59H360.726z"/>
<path fill="none" stroke="#FFFFFF" stroke-width="0.3392" stroke-miterlimit="10" d="M589.378,317.59v-99.156
	c5.088-40.533,15.829-98.875,47.083-92.77c23.913,4.579,23.913,52.236,23.913,89.717l0.113,102.209h12.126V216.681
	c0-42.06,0-94.296-29.283-100.627c-32.708-7.124-46.271,24.831-53.952,63.524v-63.536h-12.324V317.59H589.378z"/>
<path fill="none" stroke="#FFFFFF" stroke-width="0.3392" stroke-miterlimit="10" d="M358.541,317.59v-83.186l0.045,0.016
	c4.07-42.568,23.574-84.662,57.324-76.861c22.132,5.088,28.746,42.061,28.746,73.91v86.121h12.211v-84.831
	c0-37.685-7.914-77.777-34.08-84.787c-32.101-8.544-53.469,14.984-64.246,47.918v-47.896h-12.278V317.59H358.541z"/>
<path fill="none" stroke="#FFFFFF" stroke-width="0.3392" stroke-miterlimit="10" d="M588.483,317.59V215.832
	c5.258-40.397,16.451-100.604,48.222-94.498c24.648,4.681,24.648,53.072,24.648,91.316l0.085,104.924h13.483V214.035
	c0-43.247,0-96.67-30.641-103.284c-33.566-7.315-47.714,25.235-55.798,64.787v-64.821h-13.737V317.59H588.483z"/>
<path fill="none" stroke="#FFFFFF" stroke-width="0.3392" stroke-miterlimit="10" d="M356.396,317.59v-83.102
	c4.07-42.772,25.553-83.984,60.207-75.844c22.556,5.258,30.245,41.212,30.245,72.791v86.154h13.566v-84.764
	c0-38.159-9.271-77.472-36.236-84.821c-32.886-8.988-56.036,13.882-67.782,46.82v-46.831h-13.681V317.59H356.396z"/>
<path fill="none" stroke="#FFFFFF" stroke-width="0.3392" stroke-miterlimit="10" d="M587.543,317.562V213.261
	c5.427-40.364,17.186-102.323,49.323-96.218c25.372,4.748,25.372,53.932,25.372,92.854l0.113,107.693h14.811V211.423
	c0-44.435,0-99.129-31.951-106.082c-34.408-7.465-49.15,25.675-57.668,66.106v-66.106h-15.038v212.222H587.543z"/>
<path fill="none" stroke="#FFFFFF" stroke-width="0.3392" stroke-miterlimit="10" d="M354.253,317.59v-82.989
	c4.07-43.077,27.475-83.356,63.022-74.944c22.951,5.427,31.771,40.364,31.771,71.739v86.194h14.925v-84.732
	c0-38.6-10.6-77.1-38.346-84.863c-33.757-9.412-58.693,12.902-71.372,45.861v-45.861h-15.094V317.59H354.253z"/>
<path fill="none" stroke="#FFFFFF" stroke-width="0.3392" stroke-miterlimit="10" d="M586.612,317.557V210.711
	c5.597-40.251,17.841-104.066,50.438-97.961c26.118,4.816,26.118,54.79,26.118,94.434l0.17,110.406h16.111V208.777
	c0-45.621,0-101.554-33.309-108.745c-35.316-7.629-50.615,26.203-59.528,67.599v-67.609h-16.394v217.535H586.612z"/>
<path fill="none" stroke="#FFFFFF" stroke-width="0.3392" stroke-miterlimit="10" d="M352.105,317.59v-82.876
	c4.07-43.303,29.396-82.718,65.803-74.012c23.336,5.597,33.286,39.517,33.286,70.637v86.24h16.281V232.95
	c0-39.092-11.914-76.854-40.475-84.956c-34.574-9.808-61.27,11.976-74.896,44.975v-44.975h-16.451V317.59H352.105z"/>
<path fill="none" stroke="#FFFFFF" stroke-width="0.3392" stroke-miterlimit="10" d="M585.742,317.59V208.201
	c5.766-40.195,18.485-105.828,51.557-99.723c26.797,4.918,26.797,55.627,26.797,95.991l0.169,113.12h17.469V206.166
	c0-46.809,0-103.963-34.598-111.425c-36.151-7.82-52.051,26.61-61.394,68.863V94.741h-17.809V317.59H585.742z"/>
<path fill="none" stroke="#FFFFFF" stroke-width="0.3392" stroke-miterlimit="10" d="M349.923,317.59v-82.763
	c4.07-43.586,31.375-82.084,68.687-73.096c23.743,5.767,34.768,38.668,34.768,69.534v86.324h17.638v-84.628
	c0-39.516-13.229-76.488-42.569-84.968c-35.463-10.239-63.939,11.057-78.522,44.189v-44.189h-17.808V317.59H349.923z"/>
<path fill="none" stroke="#FFFFFF" stroke-width="0.3392" stroke-miterlimit="10" d="M584.854,317.57V205.604
	c5.936-40.093,19.164-107.592,52.677-101.486c27.508,5.054,27.508,56.498,27.508,97.582l0.17,115.891h18.825V203.509
	c0-47.995,0-106.379-35.954-114.113c-37.004-8.014-53.48,27.049-63.226,70.184V89.406h-19.222V317.57H584.854z"/>
<path fill="none" stroke="#FFFFFF" stroke-width="0.3392" stroke-miterlimit="10" d="M347.761,317.579v-82.65
	c4.07-43.868,33.325-81.451,71.484-72.18c24.167,5.936,36.294,37.82,36.294,68.46v86.381h18.994v-84.571
	c0-39.991-14.585-76.175-44.688-85.036c-36.32-10.665-66.554,10.16-82.084,43.394v-43.394h-19.165v169.597H347.761z"/>
<path fill="none" stroke="#FFFFFF" stroke-width="0.3392" stroke-miterlimit="10" d="M583.91,317.571V203.037
	c6.105-40.025,19.843-109.269,53.796-103.163c28.221,5.088,28.221,57.323,28.221,99.112l0.226,118.604h20.126V200.908
	c0-49.184,0-108.832-37.243-116.859c-37.912-8.18-54.961,27.602-65.125,71.714V84.037h-20.521v233.534H583.91z"/>
<path fill="none" stroke="#FFFFFF" stroke-width="0.3392" stroke-miterlimit="10" d="M345.564,317.59v-82.599
	c4.07-44.095,35.275-80.762,74.351-71.196c24.591,6.105,37.819,36.972,37.819,67.387v86.408h20.352v-84.526
	c0-40.432-15.908-75.88-46.842-85.075c-37.198-11.114-69.195,9.263-85.68,42.628v-42.628h-20.521V317.59H345.564z"/>
<path fill="none" stroke="#FFFFFF" stroke-width="0.3392" stroke-miterlimit="10" d="M582.994,317.573V200.518
	c6.275-39.956,20.521-111.018,54.949-104.912c28.899,5.156,28.899,58.184,28.899,100.667l0.227,121.317h21.481V198.279
	c0-50.37,0-111.255-38.555-119.508c-38.805-8.354-56.42,28.036-67.002,73.034V78.748h-21.877v238.825H582.994z"/>
<path fill="none" stroke="#FFFFFF" stroke-width="0.3392" stroke-miterlimit="10" d="M343.422,317.59v-82.458
	c4.07-44.366,37.197-80.15,77.166-70.313c24.931,6.274,39.347,36.123,39.347,66.312v86.46h21.708v-84.458
	c0-40.93-17.23-75.527-48.945-85.139c-38.111-11.544-71.86,8.351-89.275,41.794v-41.794h-21.936V317.59H343.422z"/>
<path fill="none" stroke="#FFFFFF" stroke-width="0.3392" stroke-miterlimit="10" d="M582.103,317.59V197.969
	c6.444-39.855,21.144-112.781,56.038-106.676c29.622,5.257,29.622,59.02,29.622,102.266l0.255,124.031h22.838V195.65
	c0-51.557,0-113.629-39.911-122.222c-39.65-8.528-57.854,28.514-68.842,74.414V73.439h-23.291v244.15H582.103z"/>
<path fill="none" stroke="#FFFFFF" stroke-width="0.3392" stroke-miterlimit="10" d="M341.305,317.59v-82.836
	c4.277-44.373,39.277-79.023,80.004-68.885c25.355,6.445,40.788,35.276,40.788,65.193v86.527h23.065v-84.425
	c0-41.348-18.543-75.199-51.058-85.148c-38.945-11.954-74.417,7.442-92.8,40.974v-40.996h-23.337V317.59H341.305z"/>
<path fill="none" stroke="#FFFFFF" stroke-width="0.3392" stroke-miterlimit="10" d="M581.162,317.59V195.411
	c6.615-39.799,21.822-114.506,57.211-108.4c30.357,5.359,30.357,59.901,30.357,103.77l0.227,126.81h24.195V193.039
	c0-52.744,0-116.107-41.268-124.927c-40.553-8.738-59.334,29.058-70.723,75.939V68.112h-24.647V317.59H581.162z"/>
<path fill="none" stroke="#FFFFFF" stroke-width="0.3392" stroke-miterlimit="10" d="M339.098,317.59v-82.254
	c4.07-44.887,41.154-78.862,82.875-68.415c25.779,6.614,42.287,34.428,42.287,64.107v86.562h24.421v-84.346
	c0-41.833-19.843-74.904-53.151-85.25c-39.869-12.382-77.117,6.658-96.432,40.365v-40.365h-24.648V317.59H339.098z"/>
<path fill="none" stroke="#FFFFFF" stroke-width="0.3392" stroke-miterlimit="10" d="M580.297,317.59V192.836
	c6.784-39.686,22.455-116.23,58.297-110.125c31.036,5.427,31.036,60.715,31.036,105.376l0.282,129.503h25.508V190.393
	c0-53.932,0-118.547-42.512-127.592c-41.447-8.887-60.803,29.45-72.611,77.174V62.789h-26.049V317.59H580.297z"/>
<path fill="none" stroke="#FFFFFF" stroke-width="0.3392" stroke-miterlimit="10" d="M336.963,317.59v-82.365
	c4.174-45.004,43.125-78.011,85.626-67.286c26.231,6.784,43.869,33.58,43.869,63.022v86.606h25.778v-84.29
	c0-42.285-21.199-74.565-55.288-85.307c-40.742-12.791-79.713,5.803-99.985,39.605v-39.582h-26.07V317.59H336.963z"/>
<path fill="none" stroke="#FFFFFF" stroke-width="0.3392" stroke-miterlimit="10" d="M579.424,317.562V190.195
	c6.954-39.572,23.065-117.926,59.359-111.82c31.799,5.54,31.799,61.592,31.799,106.93l0.271,132.285h26.864V187.717
	c0-55.118,0-120.922-43.841-130.249c-42.307-9.092-62.239,29.854-74.453,78.443V57.402h-27.475v260.16H579.424z"/>
<path fill="none" stroke="#FFFFFF" stroke-width="0.3392" stroke-miterlimit="10" d="M334.781,317.59v-82.084
	c4.07-45.339,45.044-77.562,88.528-66.539c26.57,6.954,45.311,32.732,45.311,61.96v86.663h27.136v-84.289
	c0-42.738-22.472-74.215-57.408-85.295c-41.623-13.258-82.347,4.907-103.566,38.882v-38.894h-27.407V317.59H334.781z"/>
<path fill="none" stroke="#FFFFFF" stroke-width="0.3392" stroke-miterlimit="10" d="M578.486,317.557V187.636l0.033,0.01
	c7.123-39.516,23.744-119.633,60.489-113.527c32.478,5.597,32.478,62.411,32.478,108.474l0.34,134.998h28.152V185.136
	c0-56.306,0-123.397-45.18-133.009c-43.204-9.249-63.692,30.483-76.312,80.096V52.082h-28.798v265.475H578.486z"/>
<path fill="none" stroke="#FFFFFF" stroke-width="0.3392" stroke-miterlimit="10" d="M332.63,317.59v-81.972
	c4.07-45.621,46.978-76.911,91.345-65.604c27.021,7.123,46.865,31.884,46.865,60.828v86.748h28.492v-84.232
	c0-43.162-23.829-73.916-59.557-85.363c-42.521-13.652-84.98,4.104-107.146,38.199v-38.199h-28.831V317.59H332.63z"/>
<path fill="none" stroke="#FFFFFF" stroke-width="0.3392" stroke-miterlimit="10" d="M577.558,317.59V185.133
	c0.003,0,0.007,0.003,0.007,0.003c7.297-39.414,24.482-121.386,61.68-115.28C672.4,75.537,672.4,133.132,672.4,179.94l0.34,137.649
	h29.51V182.518c0-57.492,0-125.783-46.47-135.705c-44.117-9.414-65.185,30.991-78.223,81.523V46.802h-30.14V317.59H577.558z"/>
<path fill="none" stroke="#FFFFFF" stroke-width="0.3392" stroke-miterlimit="10" d="M330.486,317.59v-81.858
	c4.07-45.876,48.877-76.29,94.103-64.672c27.433,7.292,48.394,31.036,48.394,59.754v86.776h29.85v-84.119
	c0-43.688-25.139-73.653-61.658-85.477c-43.427-14.094-87.585,3.232-110.688,37.452v-37.452h-30.188V317.59H330.486z"/>
<path fill="none" stroke="#FFFFFF" stroke-width="0.3392" stroke-miterlimit="10" d="M576.668,317.59V182.592
	c7.463-39.347,25.101-123.127,62.751-117.021c33.919,5.767,33.919,64.107,33.919,111.594l0.34,140.426h30.866V179.878
	c0-58.681,0-128.215-47.826-138.391c-44.974-9.601-66.609,31.425-80.05,82.843V41.487h-31.545V317.59H576.668z"/>
<path fill="none" stroke="#FFFFFF" stroke-width="0.3392" stroke-miterlimit="10" d="M328.299,317.59v-81.745
	c4.07-46.13,50.879-75.64,97.01-63.768c27.813,7.462,49.861,30.188,49.861,58.68v86.833h31.205v-84.119
	c0-44.095-26.457-73.266-63.768-85.477c-44.324-14.528-90.256,2.405-114.309,36.786v-36.786h-31.545V317.59H328.299z"/>
<path fill="none" stroke="#FFFFFF" stroke-width="0.3369" stroke-miterlimit="10" d="M42.903,317.59h95.666v-16.169l-25.601-7.747
	v-55.918c3.369-34.696,26.611-64.677,56.254-57.938c21.56,4.716,32.002,27.958,32.002,51.201l0.337,61.307l-29.98,9.096v16.169
	h94.656v-16.169l-25.938-8.084v-58.949c0-36.718-15.495-73.435-49.181-85.225c-30.654-10.779-59.623,1.011-78.15,25.938v-25.938
	H42.903v16.17l31.327,9.432v117.225l-31.327,9.432V317.59z"/>
<path fill="none" stroke="#FFFFFF" stroke-width="0.3369" stroke-miterlimit="10" d="M45.717,317.59h93.309v-15.56l-25.377-7.413
	v-57.041c3.411-34.991,25.868-65.812,55.455-59.144c21.446,4.716,31.384,28.971,31.384,52.661l0.337,62.318l-29.699,8.59v15.588
	h92.334v-15.56l-25.668-7.681v-60.026c0-36.605-14.709-73.707-47.769-85.161c-30.485-10.554-58.521,2.078-76.374,27.454v-27.454
	H45.681v15.563l30.99,8.982v119.358l-30.99,8.983L45.717,317.59z"/>
<path fill="none" stroke="#FFFFFF" stroke-width="0.3369" stroke-miterlimit="10" d="M48.51,317.59h90.883V302.6l-25.096-6.962
	v-58.219c3.48-35.303,25.151-67,54.683-60.33c21.334,4.648,30.766,29.845,30.766,54.064l0.28,63.295l-29.374,8.196v14.935h90.008
	v-14.935l-25.376-7.299v-61.082c0-36.548-13.923-74.024-46.373-85.102c-30.317-10.274-57.378,3.2-74.557,28.969v-28.969H48.498
	v14.989l30.569,8.459v121.537l-30.587,8.497L48.51,317.59z"/>
<path fill="none" stroke="#FFFFFF" stroke-width="0.3369" stroke-miterlimit="10" d="M51.275,317.573h88.551v-14.372l-24.815-6.569
	v-59.397c3.481-35.595,24.408-68.157,53.883-61.504c21.222,4.603,30.148,30.793,30.148,55.468l0.225,64.271l-29.054,7.747v14.373
	h87.666v-14.373l-25.039-6.849v-62.206c0-36.38-13.18-74.266-45.012-85.008c-30.205-10.068-56.312,4.238-72.817,30.4v-30.4H51.262
	v14.316l30.249,8.042v123.693l-30.249,8.011L51.275,317.573z"/>
<path fill="none" stroke="#FFFFFF" stroke-width="0.3369" stroke-miterlimit="10" d="M54.051,317.59h86.167v-13.744l-24.523-6.231
	v-60.521c3.537-35.931,23.636-69.336,53.026-62.768c21.154,4.604,29.509,31.777,29.509,56.957l0.27,65.282l-28.801,7.299v13.727
	h85.392v-13.744l-24.814-6.467v-63.262c0-36.312-12.38-74.602-43.595-84.96c-30.028-9.836-55.124,5.322-70.956,31.934v-31.934
	H54.081v13.744l29.812,7.579v125.814l-29.812,7.579L54.051,317.59z"/>
<path fill="none" stroke="#FFFFFF" stroke-width="0.3369" stroke-miterlimit="10" d="M56.832,317.59h83.81v-13.138l-24.254-5.838
	v-61.7c3.537-36.213,22.906-70.46,52.212-63.891c21.055,4.548,28.869,32.675,28.869,58.332l0.27,66.292l-28.464,6.805v13.138h83.034
	v-13.138l-24.479-6.062v-64.339c0-36.213-11.621-74.839-42.219-84.888c-29.867-9.601-54.064,6.4-69.224,33.461v-33.461H56.832
	v13.138l29.475,7.073v128.005l-29.475,7.073V317.59z"/>
<path fill="none" stroke="#FFFFFF" stroke-width="0.3369" stroke-miterlimit="10" d="M59.631,317.59h81.434v-12.53l-23.984-5.427
	v-62.88c3.537-36.548,22.148-71.664,51.398-65.096c20.951,4.491,28.252,33.572,28.252,59.763l0.252,67.259l-28.184,6.4v12.511
	h80.732v-12.53l-24.254-5.659v-65.417c0-36.111-10.816-75.186-40.796-84.843c-29.711-9.348-52.954,7.495-67.439,34.948v-34.92
	H59.609v12.52l29.138,6.625v130.138l-29.138,6.628L59.631,317.59z"/>
<path fill="none" stroke="#FFFFFF" stroke-width="0.3369" stroke-miterlimit="10" d="M62.408,317.59h79.057v-11.902l-23.699-5.053
	v-64.059c3.592-36.829,21.453-72.83,50.592-66.317c20.851,4.463,27.621,34.611,27.621,61.223l0.226,68.297l-27.847,5.895v11.902
	h78.374v-11.902l-23.916-5.277v-66.473c0-36.043-10.105-75.454-39.412-84.774c-29.595-9.095-51.827,8.59-65.638,36.464v-36.447
	H62.408v11.902l28.801,6.147v132.316l-28.801,6.13V317.59z"/>
<path fill="none" stroke="#FFFFFF" stroke-width="0.3369" stroke-miterlimit="10" d="M65.23,317.59h76.635v-11.34l-23.412-4.632
	v-65.182c3.621-37.138,20.633-74.023,49.771-67.539c20.716,4.446,27.005,35.504,27.005,62.678l0.225,69.223l-27.574,5.475v11.284
	h76.062v-11.284l-23.647-4.885v-67.539c0-35.932-9.264-75.728-38.009-84.654c-29.418-8.927-50.724,9.601-63.86,37.896v-37.896H65.2
	v11.284l28.38,5.659V300.61l-28.38,5.662L65.23,317.59z"/>
<path fill="none" stroke="#FFFFFF" stroke-width="0.3369" stroke-miterlimit="10" d="M67.967,317.59h74.329v-10.712l-23.194-4.268
	v-66.36c3.668-37.438,19.949-75.129,48.975-68.728c20.66,4.445,26.387,36.447,26.387,64.068l0.168,70.291l-27.229,4.996v10.712
	h73.771v-10.712l-23.355-4.446v-68.65c0-35.819-8.533-75.989-36.661-84.635c-29.249-8.646-49.573,10.723-62.036,39.423v-39.412
	H67.967v10.712l28.025,5.222v136.594l-28.025,5.222V317.59z"/>
<path fill="none" stroke="#FFFFFF" stroke-width="0.3369" stroke-miterlimit="10" d="M70.778,317.59h71.918v-10.105l-22.906-3.874
	v-67.539c3.705-37.728,19.2-76.297,48.17-69.897c20.548,4.379,25.77,37.392,25.77,65.518l0.168,71.245l-26.948,4.548v10.105h71.413
	v-10.105l-23.074-4.042v-69.729c0-35.707-7.748-76.299-35.201-84.551c-29.138-8.422-48.507,11.79-60.297,40.928v-40.928H70.778
	v10.105l27.622,4.716v138.784l-27.622,4.716V317.59z"/>
<path fill="none" stroke="#FFFFFF" stroke-width="0.3369" stroke-miterlimit="10" d="M73.581,317.59h69.561v-9.499l-22.683-3.483
	V235.89c3.748-38.023,18.458-77.435,47.371-71.035c20.436,4.268,25.152,38.289,25.152,66.922l0.168,72.256l-26.668,4.042v9.516
	h69.093v-9.499l-22.794-3.639v-70.807c0-35.594-6.99-76.605-33.77-84.466c-29.037-8.196-47.396,12.856-58.512,42.415v-42.442H73.565
	v9.516l27.286,4.211v140.973l-27.286,4.212L73.581,317.59z"/>
<path fill="none" stroke="#FFFFFF" stroke-width="0.3369" stroke-miterlimit="10" d="M76.381,317.562h67.146v-8.927l-22.4-3.065
	v-69.896c3.79-38.289,17.77-78.601,46.57-72.257c20.379,4.312,24.533,39.278,24.533,68.359l0.113,73.266l-26.323,3.621v8.927h66.764
	v-8.927l-22.501-3.2v-71.918c0-35.482-6.232-76.866-32.395-84.39c-28.856-7.973-46.289,13.923-56.731,43.903v-43.903H76.355v8.87
	l26.864,3.772v143.096l-26.864,3.77L76.381,317.562z"/>
<path fill="none" stroke="#FFFFFF" stroke-width="0.3369" stroke-miterlimit="10" d="M79.134,317.59h64.843v-8.309l-22.121-2.695
	v-71.02c3.791-38.626,16.965-79.765,45.766-73.478c20.211,4.296,23.916,40.227,23.916,69.803l0.068,74.22l-26.051,3.2v8.253h64.452
	v-8.253l-22.195-2.863V233.52c0-35.412-5.427-77.173-31.028-84.359c-28.632-7.706-45.138,15.023-54.906,45.408V149.16H79.134v8.31
	l26.544,3.284v145.251l-26.544,3.307V317.59z"/>
<path fill="none" stroke="#FFFFFF" stroke-width="0.3369" stroke-miterlimit="10" d="M81.937,317.59h62.401v-7.682l-21.828-2.356
	v-72.153c3.874-38.963,16.254-80.958,44.942-74.67c20.144,4.21,23.288,41.152,23.288,71.244l0.084,75.203l-25.713,2.732v7.682
	h62.094v-7.682l-21.896-2.426v-74.04c0-35.302-4.678-77.409-29.605-84.258c-28.564-7.495-44.061,16.084-53.155,46.906v-46.935
	H81.957v7.691l26.106,2.807v147.43l-26.106,2.807L81.937,317.59z"/>
<path fill="none" stroke="#FFFFFF" stroke-width="0.3369" stroke-miterlimit="10" d="M84.701,317.59h60.072v-7.073l-21.559-1.91
	v-73.377c3.873-39.244,15.495-82.137,44.128-75.849c20.042,4.154,22.67,42.106,22.67,72.647l0.067,76.242l-25.433,2.246v7.073
	h59.792v-7.073l-21.671-2.022v-75.118c0-35.201-3.817-77.756-28.183-84.213c-28.364-7.242-42.961,17.18-51.382,48.439v-48.439
	H84.719v7.074l25.769,2.357v149.563l-25.769,2.358L84.701,317.59z"/>
<path fill="none" stroke="#FFFFFF" stroke-width="0.3369" stroke-miterlimit="10" d="M87.517,317.59h57.669v-6.468l-21.289-1.572
	v-74.486c3.93-39.58,14.757-83.259,43.322-77.084c19.942,4.211,22.031,43.062,22.031,74.119l0.066,77.207l-25.151,1.797v6.487h57.49
	v-6.468l-21.391-1.62v-76.196c0-35.101-3.069-77.993-26.761-84.141c-28.248-7.006-41.891,18.258-49.639,49.922v-49.922H87.486v6.468
	l25.432,1.853v151.753l-25.432,1.853L87.517,317.59z"/>
<path fill="none" stroke="#FFFFFF" stroke-width="0.3369" stroke-miterlimit="10" d="M90.287,317.59h55.302v-5.896l-21.055-1.122
	v-75.681c3.975-39.861,14.044-84.438,42.564-78.289c19.817,4.153,21.39,44.015,21.39,75.567l0.048,78.217l-24.814,1.347v5.839
	h55.132v-5.839l-21.109-1.234v-77.252c0-35.033-2.303-78.328-25.377-84.092c-28.127-6.774-40.759,19.341-47.833,51.454v-51.454
	H90.287v5.896l25.04,1.389v153.875l-25.04,1.419V317.59z"/>
<path fill="none" stroke="#FFFFFF" stroke-width="0.3369" stroke-miterlimit="10" d="M93.077,317.577h52.92v-5.278l-20.716-0.757
	v-76.804c3.93-40.169,13.249-85.645,41.657-79.497c19.762,4.109,20.772,44.936,20.772,76.975l0.057,79.198l-24.523,0.898v5.277
	h52.819v-5.277l-20.772-0.785v-78.375c0-34.864-1.572-78.571-24.03-84.003c-27.925-6.513-39.603,20.436-46.003,52.942v-52.942
	H93.089v5.277l24.646,0.927v156.029l-24.657,0.943V317.577z"/>
<path fill="none" stroke="#FFFFFF" stroke-width="0.3369" stroke-miterlimit="10" d="M95.842,317.59H146.4v-4.648l-20.481-0.337
	v-78.038c4.042-40.47,12.531-86.788,40.895-80.657c19.649,4.08,20.155,45.85,20.155,78.356v80.238l-24.197,0.449v4.637h50.527
	v-4.648l-20.515-0.409v-79.43c0-34.78-0.785-78.908-22.639-83.961c-27.734-6.288-38.514,21.502-44.24,54.43v-54.402H95.842v4.648
	l24.32,0.449v158.209l-24.32,0.449V317.59z"/>
<path fill="none" stroke="#FFFFFF" stroke-width="0.3369" stroke-miterlimit="10" d="M98.652,317.59h48.17v-4.042h-20.211v-79.161
	c4.043-40.759,11.789-87.919,40.086-81.855c19.537,4.043,19.537,46.823,19.537,79.835v81.182h-23.916v4.042h48.17v-4.042h-20.211
	V233.04c0-34.696,0-79.161-21.223-83.877c-27.621-6.063-37.391,22.569-42.443,55.918v-55.918H98.652v4.042h23.917v160.343H98.652
	V317.59z"/>
<path fill="none" stroke="#FFFFFF" stroke-width="0.3392" stroke-miterlimit="10" d="M846.803,532.079v-83.78
	c4.07-41.042,11.872-88.529,40.364-82.424c19.673,4.07,19.673,47.147,19.673,80.389v85.815h4.07v-85.137
	c0-34.938,0-79.711-21.369-84.459c-27.693-6.124-37.618,22.661-42.738,56.324v-56.324h-4.07v169.596H846.803z"/>
<path fill="none" stroke="#FFFFFF" stroke-width="0.3392" stroke-miterlimit="10" d="M369.683,532.079v-83.78
	c4.07-41.042,11.871-88.529,40.363-82.424c19.674,4.07,19.674,47.148,19.674,80.389v85.815h4.07v-85.137
	c0-34.937,0-79.71-21.369-84.459c-27.693-6.125-37.619,22.66-42.738,56.324v-56.324h-4.07v169.596H369.683z"/>
<path fill="none" stroke="#FFFFFF" stroke-width="0.3392" stroke-miterlimit="10" d="M845.912,532.079v-86.791
	c4.253-40.848,12.604-89.797,41.452-83.711c20.408,4.155,20.408,47.979,20.408,81.936v88.566h5.426v-87.782
	c0-36.124,0-82.142-22.725-87.145c-28.449-6.288-39.008,22.888-44.562,57.274v-57.26h-5.47v174.912H845.912z"/>
<path fill="none" stroke="#FFFFFF" stroke-width="0.3392" stroke-miterlimit="10" d="M367.52,532.079v-83.67
	c4.07-41.297,13.822-87.879,43.162-81.482c20.098,4.24,21.2,46.3,21.2,79.27v85.883h5.427V447.01
	c0-35.445-1.356-79.427-23.472-84.515c-28.277-6.515-40.265,20.948-46.317,54.256V362.48h-5.427v169.599H367.52z"/>
<path fill="none" stroke="#FFFFFF" stroke-width="0.3392" stroke-miterlimit="10" d="M844.97,532.079v-88.902
	c4.41-40.872,13.229-91.977,42.626-85.871c21.071,4.239,21.071,48.844,21.071,83.497l0.039,91.243h6.75v-90.395
	c0-37.312,0-84.527-24.016-89.842c-29.29-6.436-40.474,23.189-46.471,58.387v-58.341h-6.783v180.224H844.97z"/>
<path fill="none" stroke="#FFFFFF" stroke-width="0.3392" stroke-miterlimit="10" d="M365.323,532.079v-83.61
	c4.07-41.551,15.772-87.229,46.028-80.53c20.521,4.409,22.726,45.451,22.726,78.24v85.9h6.784v-85.024
	c0-35.869-2.68-79.06-25.632-84.571c-28.964-6.917-42.92,19.488-49.906,52.585v-52.585h-6.783v169.596H365.323z"/>
<path fill="none" stroke="#FFFFFF" stroke-width="0.3392" stroke-miterlimit="10" d="M844.046,532.079V440.61
	c4.58-40.787,13.908-93.701,43.756-87.596c21.794,4.324,21.794,49.691,21.794,85.08l0.067,93.956h8.073v-92.976
	c0-38.499,0-87.003-25.354-92.6c-30.174-6.589-41.93,23.784-48.336,59.984v-59.952h-8.14v185.571H844.046z"/>
<path fill="none" stroke="#FFFFFF" stroke-width="0.3392" stroke-miterlimit="10" d="M363.2,532.079v-83.475
	c4.07-41.789,17.706-86.596,48.844-79.643c20.918,4.579,24.225,44.604,24.225,77.166v85.93h8.141v-84.969
	c0-36.293-3.986-78.74-27.729-84.62c-29.688-7.282-45.547,18.224-53.48,51.153v-51.139h-8.208v169.596H363.2z"/>
<path fill="none" stroke="#FFFFFF" stroke-width="0.3392" stroke-miterlimit="10" d="M843.173,532.079v-94.023
	c4.749-40.703,14.518-95.482,44.875-89.344c22.5,4.41,22.5,50.54,22.5,86.664l0.057,96.703h9.43v-95.652
	c0-39.686,0-89.43-26.684-95.244c-30.965-6.78-43.338,24.025-50.178,60.98v-60.98h-9.564v190.896H843.173z"/>
<path fill="none" stroke="#FFFFFF" stroke-width="0.3392" stroke-miterlimit="10" d="M361.071,532.057v-83.663
	c4.113-41.971,19.718-85.679,51.642-78.403c21.321,4.749,25.73,43.756,25.73,76.047v86.042h9.497v-84.967
	c0-36.746-5.314-78.41-29.849-84.629c-30.412-7.717-48.12,16.949-57.021,49.786v-49.81h-9.611v169.597H361.071z"/>
<path fill="none" stroke="#FFFFFF" stroke-width="0.3392" stroke-miterlimit="10" d="M842.243,532.079v-96.602
	c4.918-40.59,15.207-97.178,45.988-91.039c23.235,4.477,23.235,51.398,23.235,88.145l0.067,99.496h10.787v-98.253
	c0-40.872,0-91.864-27.984-97.97c-31.866-6.971-44.84,24.481-52.094,62.371v-62.371h-10.922v196.223H842.243z"/>
<path fill="none" stroke="#FFFFFF" stroke-width="0.3392" stroke-miterlimit="10" d="M358.861,532.079v-83.271
	c4.07-42.286,21.642-85.307,54.543-77.731c21.708,4.861,27.202,42.894,27.202,74.947v86.042h10.854v-84.854
	c0-37.244-6.614-78.113-31.985-84.728c-31.237-8.134-50.781,15.982-60.614,48.873v-48.873H347.94v169.596H358.861z"/>
<path fill="none" stroke="#FFFFFF" stroke-width="0.3392" stroke-miterlimit="10" d="M841.365,532.079v-99.156
	c5.088-40.533,15.829-98.875,47.083-92.77c23.913,4.579,23.913,52.236,23.913,89.717l0.113,102.209h12.126V431.17
	c0-42.06,0-94.296-29.283-100.627c-32.708-7.124-46.271,24.831-53.952,63.524v-63.536h-12.324v201.548H841.365z"/>
<path fill="none" stroke="#FFFFFF" stroke-width="0.3392" stroke-miterlimit="10" d="M356.677,532.079v-83.186l0.045,0.016
	c4.07-42.568,23.574-84.662,57.324-76.861c22.132,5.088,28.746,42.061,28.746,73.91v86.121h12.211v-84.831
	c0-37.685-7.914-77.777-34.08-84.787c-32.101-8.544-53.469,14.984-64.246,47.918v-47.896h-12.278v169.597H356.677z"/>
<path fill="none" stroke="#FFFFFF" stroke-width="0.3392" stroke-miterlimit="10" d="M840.471,532.079V430.321
	c5.258-40.397,16.451-100.604,48.222-94.498c24.648,4.681,24.648,53.072,24.648,91.316l0.085,104.924h13.483V428.524
	c0-43.247,0-96.67-30.641-103.284c-33.566-7.315-47.714,25.235-55.798,64.787v-64.821h-13.737v206.873H840.471z"/>
<path fill="none" stroke="#FFFFFF" stroke-width="0.3392" stroke-miterlimit="10" d="M354.531,532.079v-83.102
	c4.07-42.772,25.553-83.984,60.207-75.844c22.556,5.258,30.245,41.212,30.245,72.791v86.154h13.566v-84.764
	c0-38.159-9.271-77.472-36.236-84.821c-32.886-8.988-56.036,13.882-67.782,46.82v-46.831h-13.681v169.596H354.531z"/>
<path fill="none" stroke="#FFFFFF" stroke-width="0.3392" stroke-miterlimit="10" d="M839.53,532.052V427.75
	c5.427-40.364,17.186-102.323,49.323-96.218c25.372,4.748,25.372,53.932,25.372,92.854l0.113,107.693h14.811V425.912
	c0-44.435,0-99.129-31.951-106.082c-34.408-7.465-49.15,25.675-57.668,66.106V319.83h-15.038v212.222H839.53z"/>
<path fill="none" stroke="#FFFFFF" stroke-width="0.3392" stroke-miterlimit="10" d="M352.389,532.079V449.09
	c4.07-43.077,27.475-83.356,63.022-74.944c22.951,5.427,31.771,40.364,31.771,71.739v86.194h14.925v-84.732
	c0-38.6-10.6-77.1-38.346-84.863c-33.757-9.412-58.693,12.902-71.372,45.861v-45.861h-15.094v169.596H352.389z"/>
<path fill="none" stroke="#FFFFFF" stroke-width="0.3392" stroke-miterlimit="10" d="M838.6,532.046V425.2
	c5.597-40.251,17.841-104.066,50.438-97.961c26.118,4.816,26.118,54.79,26.118,94.434l0.17,110.406h16.111V423.267
	c0-45.621,0-101.554-33.309-108.745c-35.316-7.629-50.615,26.203-59.528,67.599v-67.609h-16.394v217.535H838.6z"/>
<path fill="none" stroke="#FFFFFF" stroke-width="0.3392" stroke-miterlimit="10" d="M350.241,532.079v-82.876
	c4.07-43.303,29.396-82.718,65.803-74.012c23.336,5.597,33.286,39.517,33.286,70.637v86.24h16.281v-84.629
	c0-39.092-11.914-76.854-40.475-84.956c-34.574-9.808-61.27,11.976-74.896,44.975v-44.975H333.79v169.596H350.241z"/>
<path fill="none" stroke="#FFFFFF" stroke-width="0.3392" stroke-miterlimit="10" d="M837.729,532.079V422.69
	c5.766-40.195,18.485-105.828,51.557-99.723c26.797,4.918,26.797,55.627,26.797,95.991l0.169,113.12h17.469V420.655
	c0-46.809,0-103.963-34.598-111.425c-36.151-7.82-52.051,26.61-61.394,68.863V309.23h-17.809v222.849H837.729z"/>
<path fill="none" stroke="#FFFFFF" stroke-width="0.3392" stroke-miterlimit="10" d="M348.059,532.079v-82.763
	c4.07-43.586,31.375-82.084,68.687-73.096c23.743,5.767,34.768,38.668,34.768,69.534v86.324h17.638v-84.628
	c0-39.516-13.229-76.488-42.569-84.968c-35.463-10.239-63.939,11.057-78.522,44.189v-44.189h-17.808v169.596H348.059z"/>
<path fill="none" stroke="#FFFFFF" stroke-width="0.3392" stroke-miterlimit="10" d="M836.842,532.06V420.093
	c5.936-40.093,19.164-107.592,52.677-101.486c27.508,5.054,27.508,56.498,27.508,97.582l0.17,115.891h18.825V417.998
	c0-47.995,0-106.379-35.954-114.113c-37.004-8.014-53.48,27.049-63.226,70.184v-70.173H817.62V532.06H836.842z"/>
<path fill="none" stroke="#FFFFFF" stroke-width="0.3392" stroke-miterlimit="10" d="M345.896,532.068v-82.65
	c4.07-43.868,33.325-81.451,71.484-72.18c24.167,5.936,36.294,37.82,36.294,68.46v86.381h18.994v-84.571
	c0-39.991-14.585-76.175-44.688-85.036c-36.32-10.665-66.554,10.16-82.084,43.394v-43.394h-19.165v169.597H345.896z"/>
<path fill="none" stroke="#FFFFFF" stroke-width="0.3392" stroke-miterlimit="10" d="M835.897,532.061V417.526
	c6.105-40.025,19.843-109.269,53.796-103.163c28.221,5.088,28.221,57.323,28.221,99.112l0.226,118.604h20.125V415.397
	c0-49.184,0-108.832-37.242-116.859c-37.912-8.18-54.961,27.602-65.125,71.714v-71.726h-20.521v233.534H835.897z"/>
<path fill="none" stroke="#FFFFFF" stroke-width="0.3392" stroke-miterlimit="10" d="M343.7,532.079V449.48
	c4.07-44.095,35.275-80.762,74.351-71.196c24.591,6.105,37.819,36.972,37.819,67.387v86.408h20.352v-84.526
	c0-40.432-15.908-75.88-46.842-85.075c-37.198-11.114-69.195,9.263-85.68,42.628v-42.628h-20.521v169.602H343.7z"/>
<path fill="none" stroke="#FFFFFF" stroke-width="0.3392" stroke-miterlimit="10" d="M834.981,532.062V415.007
	c6.275-39.956,20.521-111.018,54.949-104.912c28.899,5.156,28.899,58.184,28.899,100.667l0.227,121.317h21.481V412.769
	c0-50.37,0-111.255-38.555-119.508c-38.805-8.354-56.42,28.036-67.002,73.034v-73.058h-21.877v238.825H834.981z"/>
<path fill="none" stroke="#FFFFFF" stroke-width="0.3392" stroke-miterlimit="10" d="M341.558,532.079v-82.458
	c4.07-44.366,37.197-80.15,77.166-70.313c24.931,6.274,39.347,36.123,39.347,66.312v86.46h21.708v-84.458
	c0-40.93-17.23-75.527-48.945-85.139c-38.111-11.544-71.86,8.351-89.275,41.794v-41.794h-21.936v169.597H341.558z"/>
<path fill="none" stroke="#FFFFFF" stroke-width="0.3392" stroke-miterlimit="10" d="M834.09,532.079V412.458
	c6.444-39.855,21.144-112.781,56.038-106.676c29.622,5.257,29.622,59.02,29.622,102.266l0.255,124.031h22.838V410.14
	c0-51.557,0-113.629-39.911-122.222c-39.65-8.528-57.854,28.514-68.842,74.414v-74.403h-23.291v244.15H834.09z"/>
<path fill="none" stroke="#FFFFFF" stroke-width="0.3392" stroke-miterlimit="10" d="M339.44,532.079v-82.836
	c4.277-44.373,39.277-79.023,80.004-68.885c25.355,6.445,40.788,35.276,40.788,65.193v86.527h23.065v-84.425
	c0-41.348-18.543-75.199-51.058-85.148c-38.945-11.954-74.417,7.442-92.8,40.974v-40.996h-23.337v169.596H339.44z"/>
<path fill="none" stroke="#FFFFFF" stroke-width="0.3392" stroke-miterlimit="10" d="M833.149,532.079V409.9
	c6.615-39.799,21.822-114.506,57.211-108.4c30.357,5.359,30.357,59.901,30.357,103.77l0.227,126.81h24.195V407.528
	c0-52.744,0-116.107-41.268-124.927c-40.553-8.738-59.334,29.058-70.723,75.939v-75.939h-24.647v249.478H833.149z"/>
<path fill="none" stroke="#FFFFFF" stroke-width="0.3392" stroke-miterlimit="10" d="M337.233,532.079v-82.254
	c4.07-44.887,41.154-78.862,82.875-68.415c25.779,6.614,42.287,34.428,42.287,64.107v86.562h24.421v-84.346
	c0-41.833-19.843-74.904-53.151-85.25c-39.869-12.382-77.117,6.658-96.432,40.365v-40.365h-24.648v169.596H337.233z"/>
<path fill="none" stroke="#FFFFFF" stroke-width="0.3392" stroke-miterlimit="10" d="M832.284,532.079V407.325
	c6.784-39.686,22.455-116.23,58.297-110.125c31.036,5.427,31.036,60.715,31.036,105.376l0.282,129.503h25.508V404.882
	c0-53.932,0-118.547-42.512-127.592c-41.447-8.887-60.803,29.45-72.611,77.174v-77.186h-26.049v254.801H832.284z"/>
<path fill="none" stroke="#FFFFFF" stroke-width="0.3392" stroke-miterlimit="10" d="M335.099,532.079v-82.365
	c4.174-45.004,43.125-78.011,85.626-67.286c26.231,6.784,43.869,33.58,43.869,63.022v86.606h25.778v-84.29
	c0-42.285-21.199-74.565-55.288-85.307c-40.742-12.791-79.713,5.803-99.985,39.605v-39.582h-26.07v169.596H335.099z"/>
<path fill="none" stroke="#FFFFFF" stroke-width="0.3392" stroke-miterlimit="10" d="M831.411,532.052V404.685
	c6.954-39.572,23.065-117.926,59.359-111.82c31.799,5.54,31.799,61.592,31.799,106.93l0.271,132.285h26.864V402.206
	c0-55.118,0-120.922-43.841-130.249c-42.307-9.092-62.239,29.854-74.453,78.443v-78.509h-27.475v260.16H831.411z"/>
<path fill="none" stroke="#FFFFFF" stroke-width="0.3392" stroke-miterlimit="10" d="M332.917,532.079v-82.084
	c4.07-45.339,45.044-77.562,88.528-66.539c26.57,6.954,45.311,32.732,45.311,61.96v86.663h27.136V447.79
	c0-42.738-22.472-74.215-57.408-85.295c-41.623-13.258-82.347,4.907-103.566,38.882v-38.894H305.51v169.596H332.917z"/>
<path fill="none" stroke="#FFFFFF" stroke-width="0.3392" stroke-miterlimit="10" d="M830.474,532.046V402.125l0.033,0.01
	c7.123-39.516,23.744-119.633,60.489-113.527c32.478,5.597,32.478,62.411,32.478,108.474l0.34,134.998h28.152V399.625
	c0-56.306,0-123.397-45.18-133.009c-43.204-9.249-63.692,30.483-76.312,80.096v-80.141h-28.798v265.475H830.474z"/>
<path fill="none" stroke="#FFFFFF" stroke-width="0.3392" stroke-miterlimit="10" d="M330.766,532.079v-81.972
	c4.07-45.621,46.978-76.911,91.345-65.604c27.021,7.123,46.865,31.884,46.865,60.828v86.748h28.492v-84.232
	c0-43.162-23.829-73.916-59.557-85.363c-42.521-13.652-84.98,4.104-107.146,38.199v-38.199h-28.831v169.596H330.766z"/>
<path fill="none" stroke="#FFFFFF" stroke-width="0.3392" stroke-miterlimit="10" d="M829.545,532.079V399.622l0.011,0.003
	c7.293-39.414,24.479-121.386,61.676-115.28c33.156,5.682,33.156,63.276,33.156,110.085l0.34,137.649h29.51V397.007
	c0-57.492,0-125.783-46.471-135.705c-44.116-9.414-65.184,30.991-78.222,81.523v-81.534h-30.14v270.788H829.545z"/>
<path fill="none" stroke="#FFFFFF" stroke-width="0.3392" stroke-miterlimit="10" d="M328.622,532.079v-81.858
	c4.07-45.876,48.877-76.29,94.103-64.672c27.433,7.292,48.394,31.036,48.394,59.754v86.776h29.85V447.96
	c0-43.688-25.139-73.653-61.658-85.477c-43.427-14.094-87.585,3.232-110.688,37.452v-37.452h-30.188v169.596H328.622z"/>
<path fill="none" stroke="#FFFFFF" stroke-width="0.3392" stroke-miterlimit="10" d="M828.655,532.079V397.081
	c7.463-39.347,25.101-123.127,62.751-117.021c33.919,5.767,33.919,64.107,33.919,111.594l0.34,140.426h30.865V394.367
	c0-58.681,0-128.215-47.825-138.391c-44.974-9.601-66.609,31.425-80.05,82.843v-82.843H797.11v276.103H828.655z"/>
<path fill="none" stroke="#FFFFFF" stroke-width="0.3392" stroke-miterlimit="10" d="M326.435,532.079v-81.745
	c4.07-46.13,50.879-75.64,97.01-63.768c27.813,7.462,49.861,30.188,49.861,58.68v86.833h31.205V447.96
	c0-44.095-26.457-73.266-63.768-85.477c-44.324-14.528-90.256,2.405-114.309,36.786v-36.786H294.89v169.596H326.435z"/>
<path fill="none" stroke="#FFFFFF" stroke-width="0.3369" stroke-miterlimit="10" d="M535.027,532.079h95.666V515.91l-25.601-7.747
	v-55.918c3.369-34.696,26.611-64.677,56.254-57.938c21.56,4.716,32.002,27.958,32.002,51.201l0.337,61.307l-29.98,9.096v16.169
	h94.656V515.91l-25.938-8.084v-58.949c0-36.718-15.495-73.435-49.181-85.225c-30.654-10.779-59.623,1.011-78.15,25.938v-25.938
	h-70.065v16.17l31.327,9.432v117.225l-31.327,9.432V532.079z"/>
<path fill="none" stroke="#FFFFFF" stroke-width="0.3369" stroke-miterlimit="10" d="M537.841,532.079h93.309v-15.56l-25.377-7.413
	v-57.041c3.411-34.991,25.868-65.812,55.455-59.144c21.446,4.716,31.384,28.971,31.384,52.661l0.337,62.318l-29.699,8.59v15.588
	h92.334v-15.56l-25.668-7.681v-60.026c0-36.605-14.709-73.707-47.769-85.161c-30.485-10.554-58.521,2.078-76.374,27.454v-27.454
	h-67.968v15.563l30.99,8.982v119.358l-30.99,8.983L537.841,532.079z"/>
<path fill="none" stroke="#FFFFFF" stroke-width="0.3369" stroke-miterlimit="10" d="M540.634,532.079h90.883v-14.99l-25.096-6.962
	v-58.219c3.48-35.303,25.151-67,54.683-60.33c21.334,4.648,30.766,29.845,30.766,54.064l0.28,63.295l-29.374,8.196v14.935h90.007
	v-14.935l-25.375-7.299v-61.082c0-36.548-13.924-74.024-46.373-85.102c-30.317-10.274-57.378,3.2-74.557,28.969v-28.969h-65.855
	v14.989l30.569,8.459v121.537l-30.587,8.497L540.634,532.079z"/>
<path fill="none" stroke="#FFFFFF" stroke-width="0.3369" stroke-miterlimit="10" d="M543.399,532.062h88.551V517.69l-24.815-6.569
	v-59.397c3.481-35.595,24.408-68.157,53.883-61.504c21.222,4.603,30.148,30.793,30.148,55.468l0.225,64.271l-29.054,7.747v14.373
	h87.666v-14.373l-25.039-6.849v-62.206c0-36.38-13.18-74.266-45.012-85.008c-30.205-10.068-56.312,4.238-72.817,30.4v-30.4h-63.749
	v14.316l30.249,8.042v123.693l-30.249,8.011L543.399,532.062z"/>
<path fill="none" stroke="#FFFFFF" stroke-width="0.3369" stroke-miterlimit="10" d="M546.175,532.079h86.167v-13.744l-24.523-6.231
	v-60.521c3.537-35.931,23.636-69.336,53.026-62.768c21.154,4.604,29.509,31.777,29.509,56.957l0.27,65.282l-28.801,7.299v13.727
	h85.392v-13.744l-24.814-6.467v-63.262c0-36.312-12.38-74.602-43.595-84.96c-30.028-9.836-55.124,5.322-70.956,31.934v-31.934
	h-61.644v13.744l29.812,7.579v125.814l-29.812,7.579L546.175,532.079z"/>
<path fill="none" stroke="#FFFFFF" stroke-width="0.3369" stroke-miterlimit="10" d="M548.956,532.079h83.81v-13.138l-24.254-5.838
	v-61.7c3.537-36.213,22.906-70.46,52.212-63.891c21.055,4.548,28.869,32.675,28.869,58.332l0.27,66.292l-28.464,6.805v13.138h83.034
	v-13.138l-24.479-6.062V448.54c0-36.213-11.621-74.839-42.219-84.888c-29.867-9.601-54.064,6.4-69.224,33.461v-33.461h-59.556
	v13.138l29.475,7.073v128.005l-29.475,7.073V532.079z"/>
<path fill="none" stroke="#FFFFFF" stroke-width="0.3369" stroke-miterlimit="10" d="M551.755,532.079h81.434v-12.53l-23.984-5.427
	v-62.88c3.537-36.548,22.148-71.664,51.398-65.096c20.951,4.491,28.252,33.572,28.252,59.763l0.252,67.259l-28.184,6.4v12.511
	h80.732v-12.53l-24.254-5.659v-65.417c0-36.111-10.816-75.186-40.796-84.843c-29.711-9.348-52.954,7.495-67.439,34.948v-34.92
	h-57.433v12.52l29.138,6.625V512.94l-29.138,6.628L551.755,532.079z"/>
<path fill="none" stroke="#FFFFFF" stroke-width="0.3369" stroke-miterlimit="10" d="M554.532,532.079h79.057v-11.902l-23.699-5.053
	v-64.059c3.592-36.829,21.453-72.83,50.592-66.317c20.851,4.463,27.621,34.611,27.621,61.223l0.226,68.297l-27.847,5.895v11.902
	h78.374v-11.902l-23.916-5.277v-66.473c0-36.043-10.105-75.454-39.412-84.774c-29.595-9.095-51.827,8.59-65.638,36.464v-36.447
	h-55.357v11.902l28.801,6.147v132.316l-28.801,6.13V532.079z"/>
<path fill="none" stroke="#FFFFFF" stroke-width="0.3369" stroke-miterlimit="10" d="M557.354,532.079h76.635v-11.34l-23.412-4.632
	v-65.182c3.621-37.138,20.633-74.023,49.771-67.539c20.716,4.446,27.005,35.504,27.005,62.678l0.225,69.223l-27.574,5.475v11.284
	h76.062v-11.284l-23.647-4.885v-67.539c0-35.932-9.264-75.728-38.009-84.654c-29.418-8.927-50.724,9.601-63.86,37.896v-37.896
	h-53.224v11.284l28.38,5.659V515.1l-28.38,5.662L557.354,532.079z"/>
<path fill="none" stroke="#FFFFFF" stroke-width="0.3369" stroke-miterlimit="10" d="M560.091,532.079h74.329v-10.712l-23.194-4.268
	v-66.36c3.668-37.438,19.949-75.129,48.975-68.728c20.66,4.445,26.387,36.447,26.387,64.068l0.168,70.291l-27.229,4.996v10.712
	h73.771v-10.712l-23.355-4.446v-68.65c0-35.819-8.533-75.989-36.661-84.635c-29.249-8.646-49.573,10.723-62.036,39.423v-39.412
	h-51.154v10.712l28.025,5.222v136.594l-28.025,5.222V532.079z"/>
<path fill="none" stroke="#FFFFFF" stroke-width="0.3369" stroke-miterlimit="10" d="M562.902,532.079h71.918v-10.105l-22.906-3.874
	v-67.539c3.705-37.728,19.2-76.297,48.17-69.897c20.548,4.379,25.77,37.392,25.77,65.518l0.168,71.245l-26.948,4.548v10.105h71.413
	v-10.105l-23.074-4.042v-69.729c0-35.707-7.749-76.299-35.201-84.551c-29.138-8.422-48.507,11.79-60.297,40.928v-40.928h-49.012
	v10.105l27.622,4.716v138.784l-27.622,4.716V532.079z"/>
<path fill="none" stroke="#FFFFFF" stroke-width="0.3369" stroke-miterlimit="10" d="M565.705,532.079h69.561v-9.499l-22.683-3.483
	v-68.718c3.748-38.023,18.458-77.435,47.371-71.035c20.436,4.268,25.152,38.289,25.152,66.922l0.168,72.256l-26.668,4.042v9.516
	h69.092v-9.499l-22.793-3.639v-70.807c0-35.594-6.99-76.605-33.77-84.466c-29.037-8.196-47.396,12.856-58.512,42.415v-42.442
	h-46.935v9.516l27.286,4.211v140.973l-27.286,4.212L565.705,532.079z"/>
<path fill="none" stroke="#FFFFFF" stroke-width="0.3369" stroke-miterlimit="10" d="M568.505,532.052h67.146v-8.927l-22.4-3.065
	v-69.896c3.79-38.289,17.77-78.601,46.57-72.257c20.379,4.312,24.533,39.278,24.533,68.359l0.113,73.266l-26.323,3.621v8.927h66.764
	v-8.927l-22.501-3.2v-71.918c0-35.482-6.232-76.866-32.395-84.39c-28.856-7.973-46.289,13.923-56.731,43.903v-43.903h-44.802v8.87
	l26.864,3.772v143.096l-26.864,3.77L568.505,532.052z"/>
<path fill="none" stroke="#FFFFFF" stroke-width="0.3369" stroke-miterlimit="10" d="M571.258,532.079h64.843v-8.309l-22.121-2.695
	v-71.02c3.791-38.626,16.965-79.765,45.766-73.478c20.211,4.296,23.916,40.227,23.916,69.803l0.068,74.22l-26.051,3.2v8.253h64.452
	v-8.253l-22.195-2.863v-72.929c0-35.412-5.427-77.173-31.028-84.359c-28.632-7.706-45.138,15.023-54.906,45.408v-45.408h-42.743
	v8.31l26.544,3.284v145.251l-26.544,3.307V532.079z"/>
<path fill="none" stroke="#FFFFFF" stroke-width="0.3369" stroke-miterlimit="10" d="M574.061,532.079h62.401v-7.682l-21.828-2.356
	v-72.153c3.874-38.963,16.254-80.958,44.942-74.67c20.144,4.21,23.288,41.152,23.288,71.244l0.084,75.203l-25.713,2.732v7.682
	h62.094v-7.682l-21.896-2.426v-74.04c0-35.302-4.678-77.409-29.605-84.258c-28.564-7.495-44.061,16.084-53.155,46.906v-46.935
	h-40.591v7.691l26.106,2.807v147.43l-26.106,2.807L574.061,532.079z"/>
<path fill="none" stroke="#FFFFFF" stroke-width="0.3369" stroke-miterlimit="10" d="M576.825,532.079h60.072v-7.073l-21.559-1.91
	v-73.377c3.873-39.244,15.495-82.137,44.128-75.849c20.042,4.154,22.67,42.106,22.67,72.647l0.067,76.242l-25.433,2.246v7.073
	h59.792v-7.073l-21.671-2.022v-75.118c0-35.201-3.817-77.756-28.183-84.213c-28.364-7.242-42.961,17.18-51.382,48.439v-48.439
	h-38.485v7.074l25.769,2.357v149.563l-25.769,2.358L576.825,532.079z"/>
<path fill="none" stroke="#FFFFFF" stroke-width="0.3369" stroke-miterlimit="10" d="M579.641,532.079h57.669v-6.468l-21.289-1.572
	v-74.486c3.93-39.58,14.757-83.259,43.322-77.084c19.942,4.211,22.031,43.062,22.031,74.119l0.066,77.207l-25.151,1.797v6.487h57.49
	v-6.468l-21.391-1.62v-76.196c0-35.101-3.069-77.993-26.761-84.141c-28.248-7.006-41.891,18.258-49.639,49.922v-49.922H579.61v6.468
	l25.432,1.853v151.753l-25.432,1.853L579.641,532.079z"/>
<path fill="none" stroke="#FFFFFF" stroke-width="0.3369" stroke-miterlimit="10" d="M582.411,532.079h55.302v-5.896l-21.055-1.122
	v-75.681c3.975-39.861,14.044-84.438,42.564-78.289c19.817,4.153,21.39,44.015,21.39,75.567l0.048,78.217l-24.814,1.347v5.839
	h55.132v-5.839l-21.109-1.234v-77.252c0-35.033-2.303-78.328-25.377-84.092c-28.127-6.774-40.759,19.341-47.833,51.454v-51.454
	h-34.247v5.896l25.04,1.389v153.875l-25.04,1.419V532.079z"/>
<path fill="none" stroke="#FFFFFF" stroke-width="0.3369" stroke-miterlimit="10" d="M585.201,532.066h52.92v-5.278l-20.716-0.757
	v-76.804c3.93-40.169,13.249-85.645,41.657-79.497c19.762,4.109,20.772,44.936,20.772,76.975l0.057,79.198l-24.523,0.898v5.277
	h52.819v-5.277l-20.772-0.785v-78.375c0-34.864-1.572-78.571-24.03-84.003c-27.925-6.513-39.603,20.436-46.003,52.942v-52.942
	h-32.169v5.277l24.646,0.927v156.029l-24.657,0.943V532.066z"/>
<path fill="none" stroke="#FFFFFF" stroke-width="0.3369" stroke-miterlimit="10" d="M587.966,532.079h50.559v-4.648l-20.481-0.337
	v-78.038c4.042-40.47,12.531-86.788,40.895-80.657c19.649,4.08,20.155,45.85,20.155,78.356v80.238l-24.197,0.449v4.637h50.527
	v-4.648l-20.515-0.409v-79.43c0-34.78-0.785-78.908-22.639-83.961c-27.734-6.288-38.514,21.502-44.24,54.43v-54.402h-30.063v4.648
	l24.32,0.449v158.209l-24.32,0.449V532.079z"/>
<path fill="none" stroke="#FFFFFF" stroke-width="0.3369" stroke-miterlimit="10" d="M590.776,532.079h48.17v-4.042h-20.211v-79.161
	c4.043-40.759,11.789-87.919,40.086-81.855c19.537,4.043,19.537,46.823,19.537,79.835v81.182h-23.916v4.042h48.17v-4.042h-20.211
	v-80.508c0-34.696,0-79.161-21.223-83.877c-27.621-6.063-37.391,22.569-42.443,55.918v-55.918h-27.959v4.042h23.917v160.343h-23.917
	V532.079z"/>
</svg>
