<?xml version="1.0" encoding="utf-8"?>
<!-- Generator: Adobe Illustrator 16.0.4, SVG Export Plug-In . SVG Version: 6.00 Build 0)  -->
<!DOCTYPE svg PUBLIC "-//W3C//DTD SVG 1.1//EN" "http://www.w3.org/Graphics/SVG/1.1/DTD/svg11.dtd">
<svg version="1.1" id="Calque_2" xmlns="http://www.w3.org/2000/svg" xmlns:xlink="http://www.w3.org/1999/xlink" x="0px" y="0px"
	 width="1927px" height="1304px" viewBox="0 0 1927 1304" enable-background="new 0 0 1927 1304" xml:space="preserve">
<path opacity="0.2" fill="#1D1D1A" d="M1306.734,1265.922h233.574v-39.478l-62.506-18.916v-136.526
	c8.225-84.712,64.973-157.909,137.348-141.461c52.637,11.515,78.133,68.264,78.133,125.012l0.822,149.686l-73.197,22.206v39.478
	h231.107v-39.478l-63.328-19.739v-143.928c0-89.646-37.832-179.293-120.077-208.078c-74.843-26.318-145.573,2.467-190.808,63.328
	v-63.328h-171.068v39.477l76.486,23.029v286.211l-76.486,23.028V1265.922z"/>
<path opacity="0.2" fill="#1D1D1A" d="M1506.392,728.731V525.587c9.869-99.516,28.786-214.658,97.871-199.854
	c47.702,9.869,47.702,114.32,47.702,194.92v208.079h9.869V522.297c0-84.712,0-193.274-51.814-204.789
	c-67.148-14.851-91.213,54.945-103.628,136.57v-136.57h-9.87v411.224H1506.392z"/>
<path opacity="0.2" fill="#1D1D1A" d="M887.238,1264.852v-203.144c9.87-99.517,28.786-214.659,97.871-199.854
	c47.703,9.869,47.703,114.32,47.703,194.92v208.078h9.869v-206.434c0-84.712,0-193.275-51.814-204.789
	c-67.148-14.85-91.213,54.945-103.629,136.57v-136.57h-9.869v411.223H887.238z"/>
<path opacity="0.2" fill="#1D1D1A" d="M278.265,1263.041H168.057V851.818h110.208v92.937c14.257-33.446,33.173-58.668,56.749-75.665
	c23.577-16.997,50.168-22.754,79.777-17.271c33.721,6.58,59.01,27.277,75.871,62.095c16.859,34.817,25.289,83.753,25.289,146.807
	v202.321H406.566v-212.19c0-15.353-0.549-28.649-1.645-39.889c-1.097-11.24-3.29-22.755-6.58-34.543
	c-3.289-11.788-8.498-21.384-15.626-28.785c-7.128-7.402-16.175-11.926-27.141-13.57c-22.206-3.29-39.753,5.825-52.637,27.347
	c-12.885,21.52-21.109,55.445-24.674,101.777V1263.041z"/>
<path opacity="0.2" fill="#1D1D1A" d="M917.119,715.92V519.355c1.645-34.543,25.495-64.974,58.393-66.618
	c27.963-1.646,52.637,19.738,52.637,46.879V715.92h198.21V517.71c0-99.516-50.991-196.564-144.751-213.013
	c-66.667-11.443-126.412,20.151-164.488,73.482v-73.482H718.086V715.92H917.119z"/>
<path opacity="0.2" fill="#1D1D1A" d="M281.965,712.975V516.41c1.646-34.543,25.497-64.974,58.395-66.618
	c27.963-1.646,52.637,19.738,52.637,46.879v216.304h198.209V514.766c0-99.517-50.991-196.565-144.75-213.014
	c-66.667-11.444-126.412,20.151-164.49,73.482v-73.482H82.934v411.223H281.965z"/>
<path opacity="0.2" fill="#1D1D1A" d="M1313.602,1265.922h227.818v-37.99l-61.957-18.1v-139.269
	c8.327-85.431,63.156-160.685,135.395-144.4c52.363,11.515,76.625,70.73,76.625,128.575l0.822,152.152l-72.512,20.973v38.059
	h225.441v-37.99l-62.67-18.752v-146.56c0-89.372-35.914-179.96-116.631-207.923c-74.432-25.77-142.881,5.072-186.471,67.029v-67.029
	h-165.947v37.998l75.664,21.932v291.42l-75.664,21.932L1313.602,1265.922z"/>
<path opacity="0.2" fill="#1D1D1A" d="M1504.232,728.731V518.286c10.312-99.044,30.561-217.731,100.51-202.977
	c49.484,10.075,49.484,116.335,49.484,198.672v214.75h13.158v-212.85c0-87.591,0-199.169-55.104-211.3
	c-68.98-15.249-94.582,55.496-108.049,138.874V304.618h-13.262v424.113H1504.232z"/>
<path opacity="0.2" fill="#1D1D1A" d="M881.996,1264.852v-202.876c9.869-100.133,33.515-213.082,104.656-197.573
	c48.729,10.281,51.402,112.264,51.402,192.205v208.244h13.16v-206.269c0-85.946-3.291-192.59-56.914-204.927
	c-68.562-15.795-97.629,50.794-112.305,131.557v-131.59h-13.16v411.229H881.996z"/>
<path opacity="0.2" fill="#1D1D1A" d="M272.916,1263.041H165.998l3.289-411.223h106.918l-0.822,93.76
	c14.805-33.447,34.406-58.943,58.805-76.488c24.4-17.546,51.678-23.303,81.834-17.271c33.721,6.854,58.942,27.688,75.664,62.506
	c16.724,34.816,24.947,83.615,24.674,146.396l-1.645,202.321H407.797l1.645-212.19c0.549-15.353,0.274-28.786-0.822-40.3
	c-1.096-11.514-3.289-23.303-6.579-35.365s-8.636-21.795-16.038-29.197c-7.402-7.401-16.586-12.199-27.552-14.393
	c-13.708-2.193-25.632,0-35.776,6.58c-10.145,6.579-18.506,16.585-25.085,30.02c-6.579,13.433-11.65,27.963-15.215,43.589
	c-3.564,15.627-6.169,32.487-7.813,50.581L272.916,1263.041z"/>
<path opacity="0.2" fill="#1D1D1A" d="M914.034,715.92V512.775c2.468-37.559,27.278-76.625,63.055-77.447
	c30.704-0.822,54.144,26.524,54.144,58.051v222.472h192.041V510.897c0-101.71-48.387-202.254-143.242-219.114
	c-68.4-11.948-128.18,21.855-165.997,77.942v-77.914H721.17V715.92H914.034z"/>
<path opacity="0.2" fill="#1D1D1A" d="M278.896,712.947V516.301c1.918-37.421,27.824-70.484,63.054-71.032
	c29.442-0.822,54.116,22.617,54.116,51.608v216.098h192.041V514.354c0-98.898-50.088-195.674-143.297-212.671
	c-67.22-12.024-127.613,19.856-165.914,74.006v-73.965H86.031v411.224H278.896z"/>
<path opacity="0.2" fill="#1D1D1A" d="M1320.422,1265.922h221.895v-36.599l-61.271-16.997V1070.18
	c8.498-86.191,61.408-163.583,133.51-147.3c52.088,11.351,75.115,72.868,75.115,132.003l0.688,154.537l-71.719,20.014v36.461
	h219.758v-36.461l-61.957-17.82v-149.136c0-89.235-33.994-180.733-113.223-207.782c-74.021-25.084-140.09,7.813-182.035,70.73
	v-70.73h-160.787v36.6l74.637,20.652v296.737l-74.68,20.749L1320.422,1265.922z"/>
<path opacity="0.2" fill="#1D1D1A" d="M1501.947,728.731V513.168c10.693-99.104,32.076-223.02,103.355-208.216
	c51.096,10.28,51.096,118.433,51.096,202.459l0.092,221.238h16.366V509.468c0-90.47,0-204.955-58.229-217.839
	c-71.021-15.607-98.139,56.227-112.68,141.571V291.737H1485.5v436.994H1501.947z"/>
<path opacity="0.2" fill="#1D1D1A" d="M876.671,1264.852v-202.732c9.869-100.75,38.243-211.506,111.604-195.263
	c49.759,10.692,55.104,110.208,55.104,189.711v208.284h16.449v-206.16c0-86.973-6.498-191.697-62.149-205.062
	c-70.23-16.771-104.07,47.256-121.009,127.504V853.629h-16.449v411.223H876.671z"/>
<path opacity="0.2" fill="#1D1D1A" d="M269.578,1263.041H165.127l6.58-411.223h103.629l-1.646,95.404
	c10.418-22.48,22.618-41.397,36.6-56.749c13.981-15.353,30.294-26.729,48.936-34.132c9.32-3.701,18.916-5.929,28.785-6.682
	c9.869-0.755,20.013-0.035,30.431,2.158c33.993,7.127,59.216,28.1,75.665,62.918c16.449,34.816,24.125,83.478,23.029,145.983
	l-3.291,202.321H410.216l3.29-212.19c0.549-15.353,0.273-28.923-0.822-40.711c-1.097-11.789-3.29-23.851-6.58-36.188
	c-3.289-12.337-8.635-22.344-16.037-30.02c-7.402-7.677-16.86-12.337-28.375-13.981c-9.32-1.645-17.957-1.234-25.906,1.233
	s-14.941,6.716-20.973,12.748c-6.032,6.031-11.515,13.296-16.449,21.795c-4.935,8.498-9.047,18.094-12.336,28.786
	c-3.29,10.691-6.032,21.52-8.225,32.486c-2.193,10.965-4.113,22.754-5.758,35.365L269.578,1263.041z"/>
<path opacity="0.2" fill="#1D1D1A" d="M911.006,715.92V504.667c3.883-40.232,29.488-86.747,67.658-86.747
	c33.447,0,55.652,33.31,55.652,69.292l0.082,228.64h185.873v-211.78c0-103.72-45.893-207.873-141.844-225.145
	c-70.148-12.409-129.926,23.675-167.422,82.57v-82.57H724.173V715.92H911.006z"/>
<path opacity="0.2" fill="#1D1D1A" d="M275.867,708.862V510.201c3.224-39.656,30.889-74.054,67.713-73.514
	c30.98,0.103,55.653,25.69,55.653,56.394v215.756h185.873V510.078c0-98.528-49.244-195.031-141.769-212.438
	c-67.873-12.718-128.934,19.492-167.471,74.497V297.64H89.033v415.335L275.867,708.862z"/>
<path opacity="0.2" fill="#1D1D1A" d="M1327.176,1265.882h216.201v-35.093l-60.588-16.037v-145.023
	c8.498-86.906,59.592-166.409,131.557-150.166c51.814,11.24,73.609,75.186,73.609,135.43l0.547,156.923l-70.936,18.917v35.09
	h214.043v-35.09l-61.136-16.725V1062.23c0-88.824-32.179-181.327-109.899-207.555c-73.746-24.581-137.486,10.35-177.785,74.227
	v-74.227h-155.648v34.955l73.855,19.635v302.004l-73.855,19.562L1327.176,1265.882z"/>
<path opacity="0.2" fill="#1D1D1A" d="M1499.709,728.731V506.944c11.104-98.898,33.721-227.2,106.096-212.396
	c52.842,10.486,52.842,120.488,52.842,206.297l0.165,227.817h19.573V503.221c0-93.348,0-210.958-61.477-224.528
	c-73.163-15.976-101.666,57.67-117.199,145.445V278.771h-19.738v449.96H1499.709z"/>
<path opacity="0.2" fill="#1D1D1A" d="M871.523,1264.852v-202.403c9.869-101.325,42.932-209.97,118.432-193.11
	c50.719,11.104,58.737,108.152,58.737,187.107v208.352h19.738v-206.022c0-88.001-9.663-190.925-67.235-205.18
	c-71.984-17.659-110.438,44.186-129.672,124.033V853.629h-19.904v411.223H871.523z"/>
<path opacity="0.2" fill="#1D1D1A" d="M265.026,1263.041H163.865l9.047-411.223h101.161l-1.646,97.049
	c15.9-35.092,36.736-61.684,62.506-79.777c25.771-18.094,54.282-23.851,85.535-17.271c33.994,7.127,59.146,28.1,75.459,62.918
	c16.312,34.816,23.783,83.478,22.412,145.983l-4.936,202.321H413.066l4.936-212.19c1.096-37.559-2.742-66.618-11.515-87.179
	c-8.773-20.562-22.48-32.625-41.122-36.188c-18.643-3.29-34.955,1.508-48.936,14.394c-13.982,12.884-24.537,29.607-31.665,50.169
	c-3.563,10.28-6.647,21.28-9.252,33.001c-2.604,11.719-4.729,24.158-6.374,37.318L265.026,1263.041z"/>
<path opacity="0.2" fill="#1D1D1A" d="M907.906,711.808V494.286c4.539-43.469,31.143-98.617,72.376-97.804
	c36.105,0.657,57.078,40.053,57.078,80.435v234.946h179.841V493.298c0-105.931-43.314-213.768-140.445-231.45
	c-71.908-12.882-131.637,25.615-168.85,87.445v-87.445H727.242V715.92L907.906,711.808z"/>
<path opacity="0.2" fill="#1D1D1A" d="M272.748,708.862V510.092c3.43-42.577,33.147-79.532,72.443-77.822
	c32.35,0.914,57.022,28.467,57.022,61.09v219.615h179.843V509.808c0-98.007-48.434-194.24-140.456-212.168
	c-68.401-13.376-130.108,19.153-168.853,74.999V297.64H92.084v415.335L272.748,708.862z"/>
<path opacity="0.2" fill="#1D1D1A" d="M1333.95,1265.922h210.382v-33.555l-59.875-15.215v-147.768
	c8.637-87.728,57.709-169.287,129.468-153.25c51.649,11.241,72.046,77.585,72.046,139.062l0.658,159.391l-70.319,17.819v33.515
	h208.489v-33.555l-60.586-15.792v-154.454c0-88.66-30.227-182.145-106.439-207.436c-73.314-24.016-134.588,12.994-173.242,77.967
	v-77.967h-150.508v33.555l72.787,18.506v307.184l-72.787,18.505L1333.95,1265.922z"/>
<path opacity="0.2" fill="#1D1D1A" d="M1497.592,728.731V500.749c11.515-98.693,35.199-231.519,108.809-216.633
	c54.557,10.692,54.557,122.545,54.557,210.135l0.137,234.48h22.865V496.801c0-96.227,0-216.844-64.701-230.943
	c-75.082-16.438-105.081,58.256-121.666,147.861V265.857h-23.193v462.874H1497.592z"/>
<path opacity="0.2" fill="#1D1D1A" d="M866.359,1264.797v-202.858c9.975-101.769,47.812-207.749,125.218-190.106
	c51.696,11.514,62.388,106.096,62.388,184.393v208.627h23.029v-206.022c0-89.098-12.886-190.121-72.375-205.199
	c-73.742-18.713-116.678,41.096-138.26,120.716V853.574h-23.303v411.223H866.359z"/>
<path opacity="0.2" fill="#1D1D1A" d="M261.25,1263.041h-98.693l13.159-411.223h97.871l-2.467,98.693
	c15.901-35.64,37.284-62.78,64.15-81.422c26.867-18.643,56.201-24.399,88.002-17.271c33.995,7.402,59.011,28.443,75.048,63.123
	c16.038,34.68,23.098,82.998,21.178,144.956l-5.756,203.144H415.87l6.58-211.368c1.371-38.381-2.398-68.126-11.309-89.235
	c-8.911-21.109-22.96-33.584-42.15-37.421c-19.19-3.839-36.188,0.822-50.992,13.981c-14.804,13.159-26.181,30.431-34.132,51.814
	c-3.975,10.691-7.367,22-10.178,33.926c-2.809,11.926-5.037,24.467-6.682,37.627L261.25,1263.041z"/>
<path opacity="0.2" fill="#1D1D1A" d="M904.785,715.92V493.201c4.934-46.715,32.623-111.688,77.139-110.043
	c38.82,1.48,58.559,46.88,58.559,91.703l0.164,241.059h173.537V490.569c0-108.151-40.712-219.456-138.994-237.55
	c-73.758-13.429-133.471,27.72-170.404,92.649v-92.622H730.262V715.92H904.785z"/>
<path opacity="0.2" fill="#1D1D1A" d="M269.633,712.975V515.999c3.016-46.332,35.091-86.905,77.139-84.164
	c33.885,1.851,58.559,31.624,58.559,66.001v215.069h173.7V513.601c0-97.46-47.537-193.413-138.993-211.918
	c-68.999-13.99-131.437,18.891-170.404,75.697v-75.628H95.109v411.223H269.633z"/>
<path opacity="0.2" fill="#1D1D1A" d="M1340.742,1265.922h204.625v-32.075l-59.217-14.255v-150.646
	c8.637-88.413,55.927-172.028,127.479-155.99c51.403,11.103,70.483,79.777,70.483,142.42l0.658,161.858l-69.496,16.612v32.075
	h202.732v-32.075l-59.766-14.804v-157.088c0-88.413-28.375-182.719-103.078-207.256c-72.926-23.439-132.004,15.626-169.014,81.696
	v-81.696h-145.408v32.075l71.963,17.271v312.53l-71.963,17.271V1265.922z"/>
<path opacity="0.2" fill="#1D1D1A" d="M1495.336,728.731V494.498c11.926-98.419,36.873-235.631,111.51-220.744
	c56.338,10.856,56.338,124.628,56.338,213.726l0.165,241.252h26.153V490.495c0-99.104,0-222.745-67.852-237.549
	c-77.268-16.904-108.725,59.358-126.314,151.229V252.946h-26.482v475.785H1495.336z"/>
<path opacity="0.2" fill="#1D1D1A" d="M861.002,1264.852v-201.91c9.87-102.531,52.473-206.846,132.25-188.478
	c52.637,11.788,65.96,104.005,65.96,181.726v208.628h26.318v-205.749c0-90.305-16.038-189.401-77.556-205.439
	c-75.742-19.722-123.129,38.753-146.973,118.504V853.629h-26.481v411.223H861.002z"/>
<path opacity="0.2" fill="#1D1D1A" d="M256.629,1263.041h-95.404l16.449-411.223h95.403l-4.112,99.516
	c16.998-36.188,39.203-63.603,66.618-82.244c27.415-18.643,57.298-24.399,89.647-17.271c19.738,4.387,36.324,13.296,49.758,26.729
	c13.433,13.434,23.439,30.156,30.019,50.169c6.579,20.014,11.103,40.712,13.571,62.096c2.467,21.383,3.152,44.412,2.055,69.085
	l-8.224,203.144h-94.581l8.225-211.368c1.918-38.93-1.577-69.154-10.486-90.675c-8.91-21.521-23.234-34.337-42.973-38.449
	c-19.739-3.838-37.422,0.822-53.049,13.982c-15.627,13.158-27.826,30.566-36.599,52.225c-4.386,10.828-8.087,22.377-11.103,34.646
	c-3.016,12.268-5.346,25.256-6.992,38.964L256.629,1263.041z"/>
<path opacity="0.2" fill="#1D1D1A" d="M901.677,715.92V486.622c5.757-49.758,34.379-123.367,81.806-120.899
	c41.533,2.303,60.039,53.705,60.039,102.778l0.205,247.419h167.368V483.716c0-110.104-38.243-225.076-137.554-243.581
	c-75.611-13.976-135.241,29.772-171.864,97.765v-97.765H733.35V715.92H901.677z"/>
<path opacity="0.2" fill="#1D1D1A" d="M266.49,712.975V515.999c3.29-49.347,37.422-92.525,81.834-88.579
	c35.365,2.633,60.038,34.434,60.038,70.621v214.934h167.614v-199.69c0-97.049-46.715-192.616-137.596-211.532
	c-69.582-14.69-132.705,18.523-171.891,76.208v-76.208H98.163v411.223H266.49z"/>
<path opacity="0.2" fill="#1D1D1A" d="M1347.573,1265.922H1546.4v-30.594l-58.56-13.25v-153.522
	c8.636-89.235,54.075-174.976,125.493-158.938c51.154,10.966,68.975,81.97,68.975,145.915l0.617,164.215l-68.812,15.626v30.548
	h197.114v-30.594l-59.216-13.818v-159.719c0-88.167-26.41-183.57-99.607-207.146c-72.541-22.823-129.29,18.299-164.654,85.328
	v-85.261h-140.229v30.568l71.143,16.175v317.738l-71.143,16.181L1347.573,1265.922z"/>
<path opacity="0.2" fill="#1D1D1A" d="M1493.209,728.731V488.303c12.336-98.283,38.379-239.743,114.162-224.939
	c57.982,11.104,57.982,126.656,57.982,217.537l0.274,247.831h29.402V484.054c0-101.983,0-228.641-71.005-243.993
	c-79.307-17.274-112.193,60.208-130.816,154.029V240.033h-29.883v488.698H1493.209z"/>
<path opacity="0.2" fill="#1D1D1A" d="M855.705,1264.852v-201.703l0.109,0.039c9.869-103.217,57.16-205.282,138.993-186.366
	c53.665,12.337,69.702,101.983,69.702,179.212v208.818h29.607v-205.693c0-91.373-19.188-188.586-82.635-205.584
	c-77.833-20.717-129.646,36.334-155.777,116.188V853.628h-29.771v411.224H855.705z"/>
<path opacity="0.2" fill="#1D1D1A" d="M252.494,1263.041h-92.113l19.738-411.223h92.114l-4.935,101.161
	c11.514-24.126,25.222-44.55,41.122-61.272c15.901-16.724,34.269-28.785,55.104-36.188c10.418-3.701,20.973-5.859,31.664-6.477
	c10.692-0.617,21.521,0.309,32.487,2.775c19.19,4.387,35.639,13.434,49.346,27.141c13.709,13.707,23.715,30.431,30.02,50.17
	c6.307,19.738,10.556,40.3,12.748,61.684c2.193,21.383,2.742,44.412,1.645,69.085l-9.047,203.144h-92.113l9.869-211.368
	c2.468-39.203-0.822-69.702-9.869-91.497s-23.852-34.886-44.412-39.271c-29.061-6.58-53.732,4.386-74.021,32.897
	c-20.286,28.511-33.445,64.425-39.478,107.741L252.494,1263.041z"/>
<path opacity="0.2" fill="#1D1D1A" d="M898.613,715.92V480.129c6.58-52.842,36.188-135.086,86.521-131.797
	c44.248,3.084,61.52,60.45,61.52,114l0.273,253.588h161.199V476.999c0-112.401-35.777-230.833-136.115-249.749
	c-77.522-14.479-137.062,31.958-173.398,103.065V227.199H736.318V715.92H898.613z"/>
<path opacity="0.2" fill="#1D1D1A" d="M263.458,712.975V515.86c3.563-52.226,39.751-98.007,86.527-92.97
	c36.846,3.562,61.519,37.488,61.519,75.526v214.558h161.474V513.037c0-96.638-45.851-191.876-136.155-211.203
	c-70.159-15.396-133.965,18.104-173.364,76.698v-76.78H101.162v411.223H263.458z"/>
<path opacity="0.2" fill="#1D1D1A" d="M1354.357,1265.922h193.02v-29.059l-57.864-12.337v-156.403
	c8.772-89.919,52.382-177.818,123.522-161.918c50.91,10.897,67.441,84.507,67.441,149.48l0.549,166.75l-67.99,14.393v29.061h191.357
	v-29.061L1746,1223.943v-162.296c0-88.001-24.675-184.228-96.228-206.982c-72.259-22.206-126.539,20.973-160.26,89.03v-88.989
	h-135.155v29.06l70.318,15.01v323.056l-70.318,14.97V1265.922z"/>
<path opacity="0.2" fill="#1D1D1A" d="M1491.039,728.731V481.997c12.748-97.953,39.889-243.937,116.924-229.133
	c59.766,11.349,59.766,128.686,59.766,221.416l0.205,254.409h32.693V477.638c0-104.862,0-234.397-74.295-250.435
	c-81.389-17.738-115.691,61.189-135.293,157.092V227.12h-33.309v501.611H1491.039z"/>
<path opacity="0.2" fill="#1D1D1A" d="M850.502,1264.852v-201.499c9.87-103.71,61.958-203.638,145.984-183.898
	c54.693,12.748,73.336,99.927,73.336,176.497v208.9h32.896v-205.529c0-92.525-22.479-187.847-87.863-205.667
	c-79.738-21.794-135.873,33.661-164.354,113.526V853.629h-33.171v411.223H850.502z"/>
<path opacity="0.2" fill="#1D1D1A" d="M247.971,1263.041h-88.824l23.029-411.223H271l-5.758,101.983
	c17.546-37.284,40.986-65.521,70.319-84.712c29.334-19.191,60.724-24.947,94.169-17.271c19.191,4.387,35.504,13.434,48.937,27.141
	c13.435,13.707,23.304,30.431,29.608,50.17c6.306,19.738,10.555,40.3,12.748,61.684c2.193,21.383,2.742,44.412,1.645,69.085
	l-10.691,203.144h-88.824l11.514-211.368c2.467-39.752-0.891-70.729-10.074-92.937c-9.184-22.205-24.193-35.64-45.029-40.3
	c-30.156-6.579-56.062,4.523-77.722,33.31c-21.657,28.785-35.776,65.385-42.355,109.797L247.971,1263.041z"/>
<path opacity="0.2" fill="#1D1D1A" d="M895.488,715.92V473.572c7.402-55.927,37.914-146.807,91.209-142.694
	c46.879,3.906,62.917,67.326,62.917,125.309l0.411,259.733h155.031V470.168c0-114.484-33.172-236.48-134.744-255.808
	c-79.428-15.07-138.789,34.253-174.824,108.654V214.31h-156.1v501.61H895.488z"/>
<path opacity="0.2" fill="#1D1D1A" d="M260.377,712.975V515.86c3.947-55.31,42.191-103.559,91.127-97.528
	c38.381,4.523,63.055,40.505,63.055,80.257v214.386h155.305V512.707c0-96.061-44.961-191.053-134.607-210.955
	c-70.776-16.019-135.249,17.777-174.879,77.266v-77.266H104.276v411.223H260.377z"/>
<path opacity="0.2" fill="#1D1D1A" d="M1361.246,1265.922h187.107v-27.688l-57.16-11.309v-159.144
	c8.841-90.674,50.375-180.732,121.516-164.9c50.581,10.855,65.935,86.687,65.935,153.029l0.548,169.014l-67.324,13.364v27.552
	h185.709v-27.552l-57.736-11.925v-164.901c0-87.727-22.617-184.893-92.797-206.688c-71.828-21.795-123.848,23.439-155.924,92.525
	v-92.525h-129.946v27.552l69.291,13.816v328.321l-69.291,13.824L1361.246,1265.922z"/>
<path opacity="0.2" fill="#1D1D1A" d="M1488.758,728.662V475.76c13.158-97.871,41.67-248.104,119.596-233.3
	c61.52,11.515,61.52,130.769,61.52,225.145l0.273,261.127h35.914V471.306c0-107.74,0-240.36-77.475-257.22
	c-83.429-18.102-119.174,62.255-139.828,160.288V214.086h-36.463v514.576H1488.758z"/>
<path opacity="0.2" fill="#1D1D1A" d="M845.308,1264.852v-201.225c9.87-104.451,66.618-202.116,152.811-181.72
	c55.651,13.159,77.036,97.871,77.036,173.947v208.997h36.188V1059.4c0-93.594-25.701-186.947-92.978-205.771
	c-81.851-22.82-142.313,31.287-173.057,111.201V853.629h-36.599v411.223H845.308z"/>
<path opacity="0.2" fill="#1D1D1A" d="M244.387,1263.041h-86.357l25.496-411.223h86.357l-6.58,103.629
	c18.094-38.381,42.219-67.305,72.375-86.769c30.156-19.465,62.232-25.085,96.227-16.86c19.189,4.936,35.502,14.118,48.936,27.553
	c13.433,13.433,23.303,30.019,29.607,49.758c6.307,19.738,10.418,40.3,12.338,61.684c1.918,21.383,2.055,44.412,0.41,69.085
	l-12.336,203.144h-85.535l13.16-211.368c3.016-40.3-0.068-71.759-9.254-94.376c-9.184-22.617-24.467-36.393-45.851-41.327
	c-31.253-7.128-58.394,3.975-81.423,33.309c-23.027,29.333-38.105,66.481-45.234,111.441L244.387,1263.041z"/>
<path opacity="0.2" fill="#1D1D1A" d="M257.389,712.975V515.751c4.194-58.228,44.494-109.056,95.76-101.817
	c39.889,5.208,64.562,43.451,64.562,84.985v214.056h149.137V512.449c0-95.569-44.002-190.302-133.236-210.697
	c-71.201-16.71-136.359,17.425-176.223,77.789v-77.789H107.293v411.223H257.389z"/>
<path opacity="0.2" fill="#1D1D1A" d="M1367.928,1265.922h181.48v-26.152l-56.632-10.421v-162.021
	c8.954-91.409,48.706-183.432,119.573-167.806c50.443,10.857,64.426,88.99,64.426,156.431l0.41,171.616l-66.48,12.201v26.152
	h180.115v-26.152l-57.021-10.857v-167.613c0-87.455-20.836-185.531-89.51-206.641c-71.414-21.11-121.035,26.181-151.467,96.254
	v-96.227h-124.895v26.153l68.428,12.748v333.502l-68.428,12.747V1265.922z"/>
<path opacity="0.2" fill="#1D1D1A" d="M1486.502,728.649v-259.07c13.57-97.597,43.26-252.334,122.297-237.53
	c63.328,11.679,63.328,132.853,63.328,228.977l0.412,267.706h39.064V464.89c0-110.619,0-246.239-80.762-263.677
	c-85.631-18.498-122.73,63.535-144.34,163.909V201.188h-39.75v527.461H1486.502z"/>
<path opacity="0.2" fill="#1D1D1A" d="M840.1,1264.852v-200.95c9.869-104.999,71.279-200.568,159.555-179.458
	c56.584,13.57,80.709,95.814,80.709,171.274v209.106h39.477v-205.199c0-94.787-28.889-186.349-98.139-205.996
	C937.867,829.85,873.141,882.667,840.1,962.68V853.629h-39.889v411.223H840.1z"/>
<path opacity="0.2" fill="#1D1D1A" d="M239.863,1263.041h-83.067l28.786-411.223h83.066l-7.402,104.451
	c12.063-25.223,27.004-46.605,44.824-64.15c17.819-17.547,37.832-30.02,60.038-37.422c11.103-3.701,22.309-5.792,33.617-6.271
	c11.31-0.48,22.721,0.65,34.235,3.393c19.189,4.936,35.364,14.118,48.523,27.553c13.159,13.433,22.891,30.019,29.197,49.758
	c6.306,19.738,10.418,40.3,12.336,61.684c1.92,21.383,2.057,44.412,0.412,69.085l-13.982,203.144h-83.066l14.804-211.368
	c3.29-40.574,0.274-72.307-9.047-95.198s-24.947-36.941-46.88-42.15c-31.801-7.676-59.764,3.427-83.889,33.31
	c-24.125,29.882-40.301,67.852-48.524,113.909L239.863,1263.041z"/>
<path opacity="0.2" fill="#1D1D1A" d="M889.31,715.92V460.512l0.103,0.034c9.047-61.958,41.396-170.109,100.51-164.353
	c52.363,5.346,65.934,80.806,65.934,147.588l0.41,272.139h142.695V456.685c0-118.844-27.964-248.081-131.797-268.231
	c-83.492-16.105-142.451,39.299-177.854,120.454V188.453H745.484V715.92H889.31z"/>
<path opacity="0.2" fill="#1D1D1A" d="M254.146,712.899V515.479l0.103,0.033c4.523-61.136,46.88-114.491,100.503-106.102
	c41.287,6.168,65.961,46.303,65.961,89.729v213.836h143.105V512.023c0-94.993-43.178-189.457-131.838-210.43
	c-71.905-17.366-137.812,17.185-177.834,78.604v-78.522H110.321v411.224H254.146z"/>
<path opacity="0.2" fill="#1D1D1A" d="M1374.791,1265.922h175.592v-24.674l-55.926-9.457V1066.89
	c9.047-92.114,46.879-186.284,117.609-170.657c50.17,10.691,62.918,91.291,62.918,159.966l0.411,173.947l-65.796,11.103v24.674
	h174.359v-24.674l-56.338-9.869v-170.246c0-87.18-18.916-186.284-85.946-206.434c-71.142-20.562-118.433,28.785-147.218,99.927
	v-99.927h-119.666v24.673l67.441,11.515v338.848l-67.441,11.514V1265.922z"/>
<path opacity="0.2" fill="#1D1D1A" d="M1484.391,728.731V463.492c13.982-97.46,44.824-256.604,125.012-241.799
	c64.975,11.926,64.975,134.881,64.975,232.752l0.41,274.286h42.356V458.558c0-113.497,0-252.08-83.89-270.174
	c-87.658-18.961-126.208,64.522-148.863,166.975V188.384h-43.178v540.348H1484.391z"/>
<path opacity="0.2" fill="#1D1D1A" d="M834.809,1264.852v-200.676c9.869-105.686,76.076-199.033,166.545-177.238
	c57.57,13.982,84.301,93.76,84.301,168.602v209.312h42.768v-205.199c0-95.815-32.076-185.462-103.218-206.023
	c-85.989-24.828-155.036,26.811-190.396,107.148V853.629h-43.18v411.223H834.809z"/>
<path opacity="0.2" fill="#1D1D1A" d="M235.878,1263.041h-79.777l32.075-411.223h79.777l-8.225,105.273
	c19.191-38.93,44.687-68.4,76.487-88.413c31.802-20.013,64.974-25.633,99.517-16.86c19.738,4.936,36.188,14.393,49.346,28.375
	c13.16,13.981,22.618,30.293,28.375,48.936c5.758,18.641,9.869,39.34,12.337,62.094s2.604,45.371,0.411,67.853l-16.449,203.966
	h-78.955l16.449-210.545c3.564-41.397,0.549-73.814-9.047-97.255c-9.596-23.439-25.77-37.901-48.524-43.384
	c-32.349-8.225-61.272,2.879-86.768,33.309c-25.496,30.431-42.631,68.948-51.403,115.554L235.878,1263.041z"/>
<path opacity="0.2" fill="#1D1D1A" d="M886.277,715.92V453.971c9.869-64.973,43.178-181.761,105.271-175.181
	c55.105,6.168,67.441,87.59,67.441,158.731l0.412,278.398h136.525V449.858c0-120.899-25.496-253.725-130.357-274.286
	c-85.535-16.723-144.203,41.854-179.293,126.506V175.572h-137.76V715.92H886.277z"/>
<path opacity="0.2" fill="#1D1D1A" d="M892.541,715.852V466.924c8.225-58.805,39.56-158.32,95.76-153.386
	c49.758,4.523,64.562,74.021,64.562,136.32l0.273,266.062H1202V463.429c0-116.695-30.568-242.365-133.209-262.104
	c-81.327-15.568-140.521,36.662-176.25,114.306V201.274H742.445v514.577H892.541z"/>
<path opacity="0.2" fill="#1D1D1A" d="M251.124,712.975V515.588c4.935-64.151,49.347-120.077,105.273-110.619
	c42.767,6.99,67.44,49.347,67.44,94.581v213.425h136.938V511.887c0-94.581-42.355-188.752-130.357-210.135
	c-72.445-18.112-139.025,16.736-179.294,79.068v-79.068h-137.76v411.223H251.124z"/>
<path opacity="0.2" fill="#1D1D1A" d="M1381.635,1265.922h169.836v-23.192l-55.379-8.505v-167.779
	c9.15-92.834,45.064-189.061,115.658-173.434c49.895,10.417,61.409,93.484,61.409,163.393l0.411,176.414l-65.111,9.869v23.234
	h168.693v-23.192l-55.652-8.883v-172.878c0-86.906-17.066-187.039-82.449-206.229c-70.896-20.014-115.72,31.39-142.86,103.56
	V854.672h-114.593v23.234l66.617,10.279v344.194l-66.617,10.28L1381.635,1265.922z"/>
<path opacity="0.2" fill="#1D1D1A" d="M1482.239,728.682V457.192c14.394-97.213,46.468-260.88,127.726-246.075
	c66.701,12.255,66.701,136.992,66.701,236.611l0.41,281.003h45.646V452.114c0-116.376,0-257.939-87.18-276.69
	c-89.723-19.433-129.676,65.585-153.304,170.174V175.45h-46.606v553.231H1482.239z"/>
<path opacity="0.2" fill="#1D1D1A" d="M829.564,1264.824v-200.403c9.869-106.368,80.805-197.495,173.331-175.016
	c58.599,14.394,88.001,91.703,88.001,165.997v209.449h46.058v-205.062c0-96.967-35.365-184.701-108.357-206.188
	c-88.067-25.86-161.374,24.637-199.032,105.217V853.602h-46.468v411.223H829.564z"/>
<path opacity="0.2" fill="#1D1D1A" d="M231.066,1263.041h-77.311l36.188-411.223h76.487l-9.047,106.918
	c19.739-40.025,45.921-70.182,78.544-90.469c32.624-20.287,66.756-25.771,102.395-16.449c19.189,4.936,35.365,14.393,48.524,28.375
	c13.159,13.981,22.617,30.293,28.374,48.936c5.758,18.641,9.732,39.34,11.926,62.094s1.919,45.371-0.822,67.853l-17.271,203.966
	h-76.488l18.095-210.545c3.838-41.945,0.96-74.844-8.636-98.694s-25.908-38.655-48.936-44.412
	c-33.446-8.224-63.604,3.016-90.469,33.721c-26.867,30.704-44.961,69.633-54.282,116.787L231.066,1263.041z"/>
<path opacity="0.2" fill="#1D1D1A" d="M883.192,715.92V447.392c10.692-67.989,44.96-193.413,109.935-186.011
	c57.845,6.991,68.947,94.376,68.947,169.876l0.412,284.663h130.357V443.027c0-122.955-22.893-259.367-128.904-280.34
	c-87.635-17.356-145.969,44.544-180.747,132.748V162.688H751.602V715.92H883.192z"/>
<path opacity="0.2" fill="#1D1D1A" d="M248.013,712.975V515.506c5.21-67.168,51.678-125.562,109.933-115.075
	c44.249,7.951,68.922,52.363,68.922,99.36v213.184h130.852V511.561c0-94.17-41.534-187.929-128.988-209.86
	c-72.986-18.761-140.256,16.45-180.718,79.718v-79.666H116.422v411.223H248.013z"/>
<path opacity="0.2" fill="#1D1D1A" d="M1388.473,1265.854h163.941v-21.795l-54.693-7.483v-170.658
	c9.253-93.484,43.385-191.904,113.703-176.414c49.758,10.525,59.9,95.896,59.9,166.9l0.275,178.881l-64.268,8.842v21.795h163.008
	v-21.795l-54.938-7.812v-175.593c0-86.63-15.216-187.674-79.093-206.042c-70.457-19.464-113.018,33.995-138.514,107.192V854.68
	H1388.41v21.658l65.59,9.211v349.375l-65.59,9.203L1388.473,1265.854z"/>
<path opacity="0.2" fill="#1D1D1A" d="M1479.949,728.683V450.971c14.805-97.049,48.113-264.944,130.439-250.141
	c68.43,12.337,68.43,138.993,68.43,240.318l0.547,287.583h48.799V445.81c0-119.255,0-263.888-90.305-283.354
	c-91.928-19.831-133.264,66.928-157.91,173.888V162.429h-49.758v566.254H1479.949z"/>
<path opacity="0.2" fill="#1D1D1A" d="M824.24,1264.852v-200.279c9.869-106.918,85.534-195.824,180.279-172.631
	c59.627,14.804,91.703,89.646,91.703,163.393v209.518h49.346v-204.954c0-98.035-38.572-183.985-113.579-206.283
	c-90.196-26.948-167.778,22.461-207.749,103.362V853.614h-49.758v411.237H824.24z"/>
<path opacity="0.2" fill="#1D1D1A" d="M227.365,1263.041h-74.843L192,851.818h73.197l-9.869,107.74
	c20.286-40.574,47.154-71.004,80.6-91.291c33.446-20.287,67.989-25.771,103.629-16.449c19.738,4.936,36.188,14.393,49.346,28.375
	c13.16,13.981,22.48,30.293,27.963,48.936c5.484,18.641,9.32,39.34,11.515,62.094s1.919,45.371-0.822,67.853l-18.916,203.966
	h-74.021l19.738-210.545c3.839-36.736,1.508-68.4-6.99-94.993s-25.358-43.179-50.58-49.758c-34.543-9.321-65.933,1.645-94.17,32.897
	c-28.238,31.253-47.018,70.73-56.338,118.433L227.365,1263.041z"/>
<path opacity="0.2" fill="#1D1D1A" d="M880.143,715.92V440.812c11.514-71.004,46.674-205.062,114.525-196.839
	c60.588,7.813,70.457,101.161,70.457,181.145l0.548,290.734h124.189V436.22c0-125.104-20.444-265.084-127.526-286.468
	c-89.734-17.908-147.677,47.399-182.193,139.252V149.666H754.582V715.92H880.143z"/>
<path opacity="0.2" fill="#1D1D1A" d="M244.989,712.975V515.409c5.552-70.073,54.076-131.099,114.526-119.42
	c45.783,8.636,70.457,55.242,70.457,104.178v212.808h124.736V511.31c0-93.593-40.711-187.201-127.479-209.572
	c-73.611-19.521-141.565,15.96-182.241,80.19v-80.19H119.43v411.237H244.989z"/>
<path opacity="0.2" fill="#1D1D1A" d="M1395.192,1265.922h158.316v-20.287l-54.007-6.579v-173.399
	c9.252-94.307,41.418-194.748,111.738-179.396c49.346,10.486,58.393,98.214,58.393,170.425l0.165,181.212l-63.603,7.813v20.15
	h157.361v-20.15l-54.189-6.99V1060.66c0-86.459-13.252-188.422-75.757-205.967c-69.907-18.814-110.208,36.681-134.059,110.865
	V854.693h-104.359v20.287l64.81,8.019v354.64l-64.81,8.072V1265.922z"/>
<path opacity="0.2" fill="#1D1D1A" d="M1477.729,728.689V444.863c15.216-96.884,49.759-269.187,133.235-254.382
	c70.072,12.501,70.072,141.076,70.072,244.088l0.549,294.162h52.088V439.436c0-122.133,0-269.762-93.484-289.775
	c-94.092-20.255-136.803,67.981-162.46,177.089V149.604h-53.048v579.085H1477.729z"/>
<path opacity="0.2" fill="#1D1D1A" d="M819.045,1264.852v-199.937c9.869-107.576,90.194-194.344,187.105-170.493
	c60.451,15.215,95.404,87.591,95.404,160.788v209.642h52.637v-204.789c0-99.242-41.781-183.132-118.68-206.435
	c-92.408-27.993-174.239,20.247-216.467,101.337V853.628h-53.186v411.224H819.045z"/>
<path opacity="0.2" fill="#1D1D1A" d="M222.914,1263.041h-71.553l41.945-411.223h70.73l-10.692,108.563
	c20.835-41.122,48.388-71.964,82.657-92.525c34.268-20.562,69.496-25.907,105.684-16.038c19.189,4.936,35.365,14.393,48.523,28.375
	c13.16,13.981,22.48,30.43,27.964,49.347c5.483,18.916,9.321,39.614,11.515,62.095c2.193,22.479,1.645,44.959-1.645,67.44
	l-20.562,203.966h-70.73l21.385-210.545c4.385-36.736,2.193-68.812-6.58-96.227c-8.773-27.416-26.045-44.412-51.814-50.992
	c-9.32-2.742-18.367-3.838-27.141-3.289c-8.773,0.547-17.271,2.467-25.496,5.757s-16.175,7.676-23.852,13.159
	c-7.675,5.482-14.94,11.926-21.794,19.327c-6.854,7.402-13.296,15.626-19.327,24.674c-6.031,9.047-11.516,18.642-16.449,28.785
	c-4.935,10.144-9.32,20.698-13.159,31.664s-6.854,22.206-9.047,33.721L222.914,1263.041z"/>
<path opacity="0.2" fill="#1D1D1A" d="M877.078,715.92V433.387c12.572-74.29,48.753-215.696,119.174-206.689
	c63.328,8.43,71.964,107.854,71.964,192.155l0.411,297.067h118.156V429.544c0-127.314-17.818-270.969-126.107-292.764
	c-91.908-18.476-149.395,50.481-183.598,146.086V136.831H757.66V715.92H877.078z"/>
<path opacity="0.2" fill="#1D1D1A" d="M241.909,712.925V513.392c6.733-72.203,56.984-134.612,119.226-121.838
	c47.292,9.458,71.965,58.1,71.965,108.818v212.603h118.55v-201.91c0-93.211-39.889-186.54-126.081-209.362
	c-74.142-20.209-142.797,15.606-183.659,80.807v-80.807H122.49v411.223H241.909z"/>
<path opacity="0.2" fill="#1D1D1A" d="M1402.035,1265.922h152.357v-18.756l-53.295-5.752v-176.169
	c9.459-95.129,39.684-197.662,109.729-182.309c49.183,10.28,56.859,100.476,56.859,173.947l0.205,183.611l-62.779,6.671v18.756
	h151.604v-18.756l-53.459-5.922v-180.773c0-86.193-11.422-188.998-72.283-205.721c-69.744-18.3-107.576,39.271-129.783,114.525
	V854.682h-99.104v18.778l63.739,6.854v359.958l-63.739,6.854L1402.035,1265.922z"/>
<path opacity="0.2" fill="#1D1D1A" d="M1475.566,728.731v-290.05c15.627-96.638,51.268-273.463,135.875-258.659
	c71.828,12.748,71.828,143.105,71.828,247.968l0.615,300.741h55.379v-295.67c0-125.012,0-275.52-96.775-296.354
	c-96.141-20.679-140.278,69.138-166.922,180.434V136.734h-56.475v591.997H1475.566z"/>
<path opacity="0.2" fill="#1D1D1A" d="M813.911,1264.852v-200.854c10.371-107.594,95.238-191.61,193.987-167.025
	c61.479,15.626,98.9,85.533,98.9,158.074v209.805h55.926v-204.707c0-100.256-44.961-182.336-123.799-206.461
	c-94.432-28.984-180.439,18.046-225.015,99.351v-99.405h-56.585v411.223H813.911z"/>
<path opacity="0.2" fill="#1D1D1A" d="M218.312,1263.041h-68.264l45.236-411.223h67.439l-11.514,109.386
	c20.836-41.671,48.936-72.924,84.301-93.759c35.365-20.836,71.416-26.045,108.152-15.627c19.189,4.936,35.364,14.393,48.523,28.375
	c13.159,13.981,22.48,30.43,27.963,49.347c5.484,18.916,9.186,39.614,11.104,62.095c1.919,22.479,1.233,44.959-2.057,67.44
	l-22.205,203.966h-67.441l23.029-210.545c3.838-37.285,1.507-69.771-6.991-97.461c-8.499-27.689-25.907-45.098-52.226-52.225
	c-12.611-3.29-24.811-3.977-36.599-2.057c-11.788,1.919-23.167,6.031-34.132,12.337c-10.967,6.305-21.248,14.529-30.842,24.673
	s-18.368,21.521-26.318,34.132c-7.949,12.61-14.941,26.318-20.971,41.122c-6.033,14.805-10.693,29.883-13.982,45.235
	L218.312,1263.041z"/>
<path opacity="0.2" fill="#1D1D1A" d="M873.934,715.92V427.79c13.159-77.104,50.251-228.435,123.996-218.565
	c66.002,9.253,73.404,114.731,73.404,203.464l0.549,303.231h111.852V422.695c0-129.398-15.215-276.616-124.6-298.822
	c-94.334-19.176-151.299,53.778-185.201,153.424V123.923H760.709V715.92H873.934z"/>
<path opacity="0.2" fill="#1D1D1A" d="M238.791,712.975V515.177c6.306-75.94,58.941-142.009,124.018-128.145
	c48.689,10.417,73.363,61.203,73.363,113.676v212.191h112.4V510.741c0-92.662-38.86-185.599-124.56-209.038
	c-74.707-20.935-144.121,15.306-185.222,81.549v-81.5H125.566v411.223H238.791z"/>
<path opacity="0.2" fill="#1D1D1A" d="M1408.785,1265.922h146.67v-17.271l-52.637-4.662v-179.154
	c9.458-95.815,37.832-200.541,107.74-185.188c48.936,10.143,55.352,102.807,55.352,177.374l0.164,186.147l-62.096,5.482v17.271
	h145.984v-17.271l-52.91-4.935v-183.405c0-85.945-9.32-189.848-68.811-205.611c-69.25-17.684-104.889,41.944-125.449,118.268
	V854.699h-93.965v17.271l62.917,5.757v365.166l-62.917,5.757L1408.785,1265.922z"/>
<path opacity="0.2" fill="#1D1D1A" d="M1473.288,728.731V432.48c16.038-96.501,52.911-277.645,138.719-262.841
	c73.608,12.994,73.608,145.244,73.608,251.614l0.551,307.478h58.666V426.729c0-127.89,0-281.529-100.064-302.913
	c-98.326-21.187-143.867,70.459-171.479,184.134V123.815h-59.765v604.916H1473.288z"/>
<path opacity="0.2" fill="#1D1D1A" d="M808.559,1264.852v-199.442c9.869-108.837,99.789-191.219,200.95-165.889
	c62.505,16.038,102.532,83.479,102.532,155.442v209.889h59.217v-204.515c0-101.435-48.113-181.623-128.879-206.708
	c-96.67-30.022-186.986,16.144-233.82,97.875v-97.875h-59.766v411.223H808.559z"/>
<path opacity="0.2" fill="#1D1D1A" d="M214.114,1263.041h-64.974l48.524-411.223h64.151l-12.337,110.208
	c21.384-42.22,50.306-73.746,86.768-94.581c36.462-20.836,73.061-26.045,109.797-15.627c19.19,5.482,35.228,15.216,48.113,29.197
	s22.068,30.293,27.552,48.936c5.483,18.642,9.047,39.203,10.691,61.684c1.646,22.479,0.822,44.959-2.467,67.44l-23.029,203.966
	h-64.973l24.674-210.545c4.386-37.285,2.193-70.046-6.58-98.283s-26.592-45.92-53.459-53.047
	c-24.125-7.129-48.113-3.977-71.965,9.457c-23.85,13.434-44.137,33.31-60.86,59.628c-8.36,13.159-15.524,27.071-21.486,41.739
	c-5.963,14.666-10.726,30.088-14.29,46.263L214.114,1263.041z"/>
<path opacity="0.2" fill="#1D1D1A" d="M870.814,715.893V421.292c13.982-80.325,52.088-240.291,128.713-229.462
	c68.674,10.033,74.842,121.475,74.842,214.576l0.659,309.514h105.685V415.864c0-131.591-12.748-282.264-123.23-304.881
	c-96.637-19.867-153.035,57.03-186.668,160.566V110.983H763.732v604.909H870.814z"/>
<path opacity="0.2" fill="#1D1D1A" d="M235.648,712.975V515.177c6.58-78.955,61.272-147.63,128.713-132.553
	c50.17,11.241,74.843,64.042,74.843,118.323v212.027h106.37V510.487c0-92.196-38.107-184.857-123.23-208.708
	c-75.291-21.709-145.439,14.881-186.695,82.16v-82.188H128.566v411.223H235.648z"/>
<path opacity="0.2" fill="#1D1D1A" d="M1415.66,1265.922h140.802v-15.791l-51.978-3.838V1064.43
	c9.594-96.637,36.029-203.281,105.773-188.203c48.688,10.28,53.789,105.135,53.789,180.965l0.164,188.505l-61.41,4.386v15.84
	h140.365v-15.791l-52.227-3.955v-186.037c0-85.699-7.493-190.424-65.338-205.434c-68.969-17.106-102.277,44.577-121.193,121.887
	V854.705h-88.824v15.791l62.096,4.523v370.512l-62.096,4.523L1415.66,1265.922z"/>
<path opacity="0.2" fill="#1D1D1A" d="M1471.189,728.731V426.234c16.449-96.226,54.447-281.824,141.352-267.02
	c75.254,13.159,75.254,147.218,75.254,255.506l0.687,314.011h61.847V420.314c0-130.77,0-287.445-103.078-309.378
	c-100.496-21.546-147.428,71.409-176.061,187.127V110.909h-63.162v617.822H1471.189z"/>
<path opacity="0.2" fill="#1D1D1A" d="M803.383,1264.852v-199.714c10.121-109.12,104.566-189.152,207.621-163.149
	c63.602,16.448,106.369,81.422,106.369,152.811v209.998h62.506v-204.378c0-102.532-51.402-180.802-134.059-206.847
	c-98.787-31.015-193.281,14.07-242.438,96.031v-95.975h-63.211v411.223H803.383z"/>
<path opacity="0.2" fill="#1D1D1A" d="M209.591,1263.041h-61.684l51.813-411.223h61.684l-13.981,111.03
	c21.932-42.767,51.54-74.706,88.824-95.814c37.284-21.11,74.569-26.183,111.853-15.216c19.19,5.482,35.229,15.216,48.113,29.197
	s21.933,30.293,27.141,48.936c5.209,18.642,8.637,39.203,10.281,61.684c1.645,22.479,0.822,44.959-2.467,67.44l-25.496,203.966
	h-61.684l26.318-210.545c4.934-37.833,2.878-71.006-6.169-99.517c-9.047-28.512-27.003-46.605-53.87-54.281
	c-18.643-5.483-37.422-4.935-56.338,1.645s-36.051,17.546-51.402,32.897c-15.352,15.353-28.922,33.857-40.711,55.516
	s-20.698,44.549-26.73,68.674L209.591,1263.041z"/>
<path opacity="0.2" fill="#1D1D1A" d="M867.769,715.92V414.74c14.804-83.232,53.733-251.834,133.407-240.319
	c71.389,10.856,76.322,128.302,76.322,225.762l0.658,315.737h99.516V409.147c0-133.785-10.279-287.993-121.722-311.022
	c-98.989-20.476-154.822,60.488-188.182,168.046V98.098H766.772V715.92H867.769z"/>
<path opacity="0.2" fill="#1D1D1A" d="M232.619,712.905V514.971c6.99-81.833,63.739-153.113,133.373-136.938
	c51.678,12.131,76.351,67.069,76.351,123.161v211.78h100.174V510.104c0-91.703-37.175-184.09-121.722-208.352
	c-75.862-22.486-146.743,14.456-188.176,82.768v-82.837H131.623v411.223H232.619z"/>
<path opacity="0.2" fill="#1D1D1A" d="M1422.424,1265.922h135.021v-14.393l-51.404-2.74v-184.777
	c9.703-97.322,34.287-206.16,103.922-191.15c48.386,10.145,52.225,107.467,52.225,184.503l0.117,190.972l-60.588,3.289v14.257
	h134.608v-14.257l-51.542-3.015v-188.614c0-85.535-5.617-191.242-61.955-205.316c-68.674-16.539-99.516,47.223-116.787,125.629
	V854.68h-83.617v14.394l61.136,3.393v375.693l-61.136,3.466V1265.922z"/>
<path opacity="0.2" fill="#1D1D1A" d="M1469.072,728.662V419.834c16.861-95.952,55.928-285.937,143.93-271.133
	c77.104,13.433,77.104,149.342,77.104,259.276l0.658,320.754h65.137V413.826c0-133.647,0-293.202-106.301-315.819
	c-102.58-22.046-150.912,72.386-180.527,190.203V97.846h-66.617v630.816H1469.072z"/>
<path opacity="0.2" fill="#1D1D1A" d="M798.093,1264.852V1065.82c9.869-109.934,109.221-188.066,214.659-161.337
	c64.424,16.86,109.863,79.366,109.863,150.233v210.135h65.797v-204.377c0-103.629-54.487-179.951-139.199-206.818
	c-100.924-32.145-199.667,11.9-251.12,94.278v-94.306h-66.454v411.223H798.093z"/>
<path opacity="0.2" fill="#1D1D1A" d="M205.413,1263.041h-59.216l55.926-411.223h58.395l-14.805,112.676
	c22.48-43.865,52.774-76.352,90.881-97.46c38.105-21.11,76.076-26.183,113.908-15.216c19.19,5.482,35.229,15.216,48.113,29.197
	s21.932,30.293,27.141,48.936c5.209,18.642,8.498,39.203,9.869,61.684c1.371,22.479,0.138,44.686-3.701,66.618l-26.317,204.788
	h-59.216l27.963-209.723c2.741-24.126,3.289-46.605,1.645-67.441s-7.676-39.614-18.094-56.337
	c-5.209-8.362-11.514-15.318-18.916-20.87c-7.402-5.551-15.9-9.698-25.496-12.439c-37.832-10.967-74.156,0-108.975,32.898
	c-34.816,32.897-58.53,75.391-71.141,127.479L205.413,1263.041z"/>
<path opacity="0.2" fill="#1D1D1A" d="M864.66,715.92V408.16c15.627-86.356,55.516-263.594,138.033-251.175
	c74.158,11.679,77.859,135.046,77.859,237.028l0.74,321.851h93.348V402.307c0-135.868-7.677-293.687-120.352-317.126
	c-101.414-21.19-156.465,64.245-189.629,175.98V85.104h-94.855V715.92H864.66z"/>
<path opacity="0.2" fill="#1D1D1A" d="M229.48,712.975V515.018c7.236-84.918,66.041-158.665,138.144-141.484
	c53.048,13.066,77.722,70.09,77.722,128.072v211.369h94.17V509.83c0-91.154-36.394-183.263-120.375-208.102
	c-76.449-23.166-148.013,14.117-189.66,83.423v-83.423h-94.856v411.246H229.48z"/>
<path opacity="0.2" fill="#1D1D1A" d="M1429.236,1265.89h129.207v-12.886l-50.58-1.85v-187.518
	c9.596-98.077,32.35-209.107,101.709-194.098c48.25,10.034,50.718,109.714,50.718,187.938l0.138,193.367l-59.875,2.193v12.885
	h128.961v-12.885l-50.719-1.92v-191.354c0-85.123-3.838-191.836-58.668-205.098c-68.182-15.9-96.693,49.896-112.319,129.262V854.665
	h-78.544v12.886l60.176,2.262v380.957l-60.203,2.302V1265.89z"/>
<path opacity="0.2" fill="#1D1D1A" d="M1466.799,728.649V413.628l0.082,0.024c17.271-95.814,57.57-290.078,146.668-275.273
	c78.749,13.57,78.749,151.33,78.749,263.019l0.823,327.334h68.262V407.566c0-136.526,0-299.207-109.549-322.509
	c-104.758-22.427-154.436,73.913-185.035,194.208V84.948h-69.826v643.701H1466.799z"/>
<path opacity="0.2" fill="#1D1D1A" d="M792.877,1264.852v-198.758c9.869-110.619,113.908-186.489,221.484-159.074
	c65.521,17.271,113.635,77.31,113.635,147.491v210.341h69.086v-204.24c0-104.656-57.777-179.225-144.408-206.982
	c-103.1-33.104-206.053,9.949-259.797,92.623v-92.623h-69.908v411.223H792.877z"/>
<path opacity="0.2" fill="#1D1D1A" d="M202.275,1263.041h-56.749l58.394-411.223h55.927l-15.626,113.498
	c22.48-44.412,53.322-77.311,92.524-98.693c39.204-21.384,77.995-26.318,116.376-14.805c25.223,7.127,44.824,21.658,58.805,43.59
	c13.982,21.932,21.933,46.742,23.852,74.432c0.96,13.844,1.268,28.134,0.926,42.87c-0.344,14.734-1.337,29.916-2.982,45.543
	l-27.963,204.788H449.01l29.607-209.723c5.483-38.93,3.701-73.198-5.346-102.807c-9.047-29.607-27.553-48.523-55.516-56.748
	c-38.381-11.515-75.802-0.412-112.264,33.309s-61.271,76.898-74.432,129.535L202.275,1263.041z"/>
<path opacity="0.2" fill="#1D1D1A" d="M861.686,715.865V401.609c16.449-89.373,57.297-275.246,142.694-262.087
	c76.898,12.474,79.366,141.872,79.366,248.241l0.658,328.156h87.18V395.577c0-138.068-5.102-299.562-118.871-323.413
	c-103.762-21.829-158.056,67.898-191.027,183.708V72.164h-88.824v643.701H861.686z"/>
<path opacity="0.2" fill="#1D1D1A" d="M226.529,712.949V514.903c7.484-87.836,68.346-164.16,142.639-145.792
	c54.694,13.879,79.367,73.004,79.367,132.768v211.096h87.898V509.556c0-90.634-35.456-182.472-118.799-207.83
	c-76.976-23.932-149.264,13.682-191.105,84.025v-84.025h-88.824v411.224H226.529z"/>
<path opacity="0.2" fill="#1D1D1A" d="M1435.984,1265.922h123.441v-11.349l-50.004-0.823v-190.533
	c9.869-98.811,30.596-211.896,99.846-196.928c47.975,9.961,49.209,111.943,49.209,191.31v195.906l-59.078,1.097v11.32h123.366
	v-11.349l-50.087-0.999v-193.934c0-84.918-1.919-192.658-55.275-204.995c-67.715-15.353-94.033,52.499-108.014,132.894V854.714
	h-73.404v11.35l59.381,1.097v386.275l-59.381,1.098V1265.922z"/>
<path opacity="0.2" fill="#1D1D1A" d="M1464.547,728.731V407.558c0.008,0,0.018,0.009,0.018,0.009
	c17.689-95.568,59.361-294.327,149.557-279.522c80.393,13.775,80.393,153.427,80.393,266.925l0.824,333.763h71.553V401.219
	c0-139.404,0-304.99-112.676-329.047c-106.972-22.826-158.055,75.145-189.668,197.67V72.145h-73.082v656.587H1464.547z"/>
<path opacity="0.2" fill="#1D1D1A" d="M787.679,1264.852v-198.482c9.87-111.236,118.515-184.982,228.173-156.814
	c66.516,17.684,117.343,75.254,117.343,144.889v210.408h72.376v-203.967c0-105.93-60.953-178.588-149.504-207.256
	c-105.299-34.174-212.369,7.838-268.388,90.812v-90.812H714.48v411.223H787.679z"/>
<path opacity="0.2" fill="#1D1D1A" d="M197.706,1263.041h-53.459l61.684-411.223h52.636l-17.271,114.32
	c23.577-44.961,55.378-78.27,95.403-99.928c40.026-21.658,79.504-26.455,118.433-14.393c24.673,7.676,44.138,22.48,58.394,44.412
	s22.205,46.605,23.852,74.021c0.822,13.707,0.959,27.894,0.41,42.562c-0.548,14.666-1.781,29.813-3.701,45.44l-29.607,204.788
	h-52.637l31.254-209.723c5.482-38.93,3.562-73.473-5.758-103.629s-28.237-49.347-56.749-57.57
	c-38.929-12.063-77.31-1.098-115.143,32.897c-37.832,33.994-63.602,77.583-77.31,130.769L197.706,1263.041z"/>
<path opacity="0.2" fill="#1D1D1A" d="M858.45,715.851V395.097c17.271-92.388,59.216-286.896,147.493-272.915
	c79.502,13.159,80.735,148.657,80.735,259.414l0.823,334.324h81.01V388.751c0-140.09-2.467-305.196-117.404-329.458
	c-106.521-22.541-159.92,72.115-192.657,192.499V59.265h-82.518v656.586H858.45z"/>
<path opacity="0.2" fill="#1D1D1A" d="M223.283,712.975V514.766c7.951-90.744,70.867-169.597,147.493-150.131
	c56.091,14.805,80.765,75.938,80.765,137.622v210.718h81.833V509.413c0-90.306-34.624-181.893-117.418-207.661
	c-77.564-24.762-150.649,13.314-192.673,84.793v-84.793h-82.518v411.223H223.283z"/>
<path opacity="0.2" fill="#1D1D1A" d="M1442.849,1265.922h117.61v-9.869h-49.348v-193.275
	c9.869-99.516,28.786-214.658,97.871-199.854c47.702,9.869,47.702,114.319,47.702,194.919v198.21h-58.394v9.869H1715.9v-9.869
	h-49.346v-196.564c0-84.713,0-193.275-51.814-204.789c-67.441-14.805-91.293,55.104-103.629,136.525V854.699h-68.263v9.869h58.394
	v391.484h-58.394V1265.922z"/>
<path opacity="0.2" fill="#1D1D1A" d="M1462.391,728.731V401.397c18.094-95.403,60.861-298.548,152.152-283.744
	c82.244,13.981,82.244,155.442,82.244,270.585l0.823,340.493h74.843V394.818c0-142.283,0-310.885-115.965-335.559
	c-109.049-23.28-161.51,76.195-194.098,200.869V59.26h-76.488v669.472H1462.391z"/>
<path opacity="0.2" fill="#1D1D1A" d="M782.377,1264.852v-198.209c9.869-111.853,123.367-183.405,235.22-154.62
	c67.44,18.094,120.899,73.198,120.899,142.283v210.546h75.665v-203.967c0-106.918-64.151-177.647-154.62-207.256
	c-107.473-35.227-218.846,5.834-277.164,89.197v-89.197H705.89v411.223H782.377z"/>
<path opacity="0.2" fill="#1D1D1A" d="M192.104,1263.041h-50.169l64.974-411.223h49.347l-18.094,115.143
	c24.125-45.509,56.611-79.092,97.459-100.75c40.85-21.658,81.012-26.455,120.488-14.393c36.188,10.966,60.176,35.64,71.965,74.021
	c11.788,38.38,13.844,82.519,6.168,132.414l-31.253,204.788H452.82l32.898-209.723c6.03-39.478,4.249-74.432-5.347-104.862
	c-9.595-30.431-28.647-50.032-57.16-58.805c-26.866-8.225-54.144-5.62-81.833,7.813c-27.689,13.433-51.814,34.404-72.375,62.917
	c-10.281,14.255-19.156,29.333-26.627,45.234c-7.471,15.9-13.536,32.623-18.197,50.169L192.104,1263.041z"/>
<path opacity="0.2" fill="#1D1D1A" d="M855.436,715.92V388.586c18.094-95.403,60.86-298.548,152.152-283.743
	c82.244,13.981,82.244,155.442,82.244,270.584l0.822,340.493h74.843V382.007c0-142.283,0-310.885-115.966-335.558
	c-109.047-23.28-161.508,76.195-194.096,200.868V46.449h-76.488V715.92H855.436z"/>
<path opacity="0.2" fill="#1D1D1A" d="M220.282,712.975V514.766c8.225-93.76,73.198-175.182,152.153-154.62
	c57.57,15.626,82.244,78.954,82.244,142.283v210.546h75.665V509.008c0-89.646-33.72-180.938-115.965-207.256
	c-78.089-25.464-151.896,12.922-194.098,85.424v-85.424h-76.487v411.223H220.282z"/>
</svg>
