<?xml version="1.0" encoding="utf-8"?>
<!-- Generator: Adobe Illustrator 16.0.4, SVG Export Plug-In . SVG Version: 6.00 Build 0)  -->
<!DOCTYPE svg PUBLIC "-//W3C//DTD SVG 1.1//EN" "http://www.w3.org/Graphics/SVG/1.1/DTD/svg11.dtd">
<svg version="1.1" id="Calque_2" xmlns="http://www.w3.org/2000/svg" xmlns:xlink="http://www.w3.org/1999/xlink" x="0px" y="0px"
	 width="325px" height="299px" viewBox="0 0 325 299" enable-background="new 0 0 325 299" xml:space="preserve">
<g>
	<path d="M140.601,13.4l27,72l27.12-72h15.6v85.68H199.52V27.8h-0.239L172.52,99.08h-9.719L136.04,27.8h-0.239v71.28H125V13.4
		H140.601z"/>
</g>
<g>
	<path d="M39.32,168.8l72-27l-72-27.12v-15.6H125v10.8H53.719v0.24L125,136.88v9.72L53.719,173.36v0.239H125V184.4H39.32V168.8z"/>
</g>
<g>
	<path d="M194.719,270.08l-27-72l-27.119,72H125V184.4h10.8v71.28h0.24l26.76-71.28h9.72l26.761,71.28h0.239V184.4h10.801v85.68
		H194.719z"/>
</g>
<g>
	<path d="M296,114.681l-72,27l72,27.12v15.6h-85.68v-10.8h71.28v-0.24l-71.28-26.76v-9.72l71.28-26.761v-0.239h-71.28V99.08H296
		V114.681z"/>
</g>
</svg>
