<?xml version="1.0" encoding="utf-8"?>
<!-- Generator: Adobe Illustrator 16.0.4, SVG Export Plug-In . SVG Version: 6.00 Build 0)  -->
<!DOCTYPE svg PUBLIC "-//W3C//DTD SVG 1.1//EN" "http://www.w3.org/Graphics/SVG/1.1/DTD/svg11.dtd">
<svg version="1.1" id="Calque_2" xmlns="http://www.w3.org/2000/svg" xmlns:xlink="http://www.w3.org/1999/xlink" x="0px" y="0px"
	 width="771px" height="359px" viewBox="0 0 771 359" enable-background="new 0 0 771 359" xml:space="preserve">
<g>
	<g>
		<g>
			<path d="M181.812,56.211c-68.303,0-123.674,55.371-123.674,123.674s55.371,123.674,123.674,123.674
				c68.304,0,123.675-55.371,123.675-123.674S250.116,56.211,181.812,56.211z M181.812,250.99c-39.27,0-71.105-31.836-71.105-71.105
				c0-39.271,31.836-71.105,71.105-71.105c39.271,0,71.105,31.834,71.105,71.105C252.918,219.154,221.083,250.99,181.812,250.99z"/>
		</g>
		<circle fill="#F8172E" cx="110.506" cy="180.162" r="3.836"/>
		<circle fill="#F8172E" cx="57.84" cy="180.162" r="3.836"/>
		<circle fill="#F8172E" cx="181.813" cy="108.78" r="3.837"/>
		<circle fill="#F8172E" cx="181.813" cy="56.113" r="3.836"/>
		<circle fill="#F8172E" cx="252.919" cy="179.886" r="3.835"/>
		<circle fill="#F8172E" cx="304.919" cy="179.886" r="3.835"/>
		<circle fill="#F8172E" cx="181.812" cy="250.989" r="3.835"/>
		<circle fill="#F8172E" cx="181.812" cy="303.656" r="3.836"/>
	</g>
	<g>
		<g>
			<path d="M589.779,56.211c-68.303,0-123.674,55.371-123.674,123.674s55.371,123.674,123.674,123.674
				c68.304,0,123.675-55.371,123.675-123.674S658.083,56.211,589.779,56.211z M589.779,250.99l-71.105-71.105l71.105-71.105
				l71.105,71.105L589.779,250.99z"/>
		</g>
		<circle fill="#F8172E" cx="518.473" cy="180.162" r="3.836"/>
		<circle fill="#F8172E" cx="465.807" cy="180.162" r="3.836"/>
		<circle fill="#F8172E" cx="589.78" cy="108.78" r="3.837"/>
		<circle fill="#F8172E" cx="589.78" cy="56.113" r="3.836"/>
		<circle fill="#F8172E" cx="660.886" cy="179.886" r="3.835"/>
		<circle fill="#F8172E" cx="712.886" cy="179.886" r="3.835"/>
		<circle fill="#F8172E" cx="589.779" cy="250.989" r="3.835"/>
		<circle fill="#F8172E" cx="589.779" cy="303.656" r="3.836"/>
	</g>
</g>
</svg>
