<?xml version="1.0" encoding="utf-8"?>
<!-- Generator: Adobe Illustrator 16.0.4, SVG Export Plug-In . SVG Version: 6.00 Build 0)  -->
<!DOCTYPE svg PUBLIC "-//W3C//DTD SVG 1.1//EN" "http://www.w3.org/Graphics/SVG/1.1/DTD/svg11.dtd">
<svg version="1.1" id="Calque_1" xmlns="http://www.w3.org/2000/svg" xmlns:xlink="http://www.w3.org/1999/xlink" x="0px" y="0px"
	 width="330.73px" height="326px" viewBox="0 0 330.73 326" enable-background="new 0 0 330.73 326" xml:space="preserve">
<g>
	<polygon fill="#F3ECE9" points="126.521,21.615 160.64,118.359 163.808,118.359 200.518,21.328 208.992,118.789 212.035,118.361 
		212.036,118.361 212.036,118.359 203.109,14.418 199.943,14.418 161.936,114.904 127.097,14.418 123.93,14.418 116.588,118.359 
		116.588,118.359 119.735,118.51 	"/>
	<polygon fill="#F3ECE9" points="315.977,125.703 212.036,118.361 211.73,121.5 308.779,128.294 212.036,162.412 212.036,165.58 
		309.066,202.291 211.736,210.828 212.035,213.808 212.036,213.808 212.036,213.809 315.977,204.883 315.977,201.716 
		215.49,163.709 315.977,128.869 	"/>
	<polygon fill="#F3ECE9" points="208.992,118.789 209.213,121.324 211.73,121.5 212.036,118.361 212.035,118.361 	"/>
	<polygon fill="#F3ECE9" points="212.035,213.808 208.865,213.65 202.102,310.552 167.983,213.808 164.814,213.808 128.104,310.839 
		119.717,212.59 116.587,213.808 125.513,317.748 128.68,317.748 166.686,217.263 201.526,317.748 204.692,317.748 212.036,213.809 
		212.035,213.809 	"/>
	<polygon fill="#F3ECE9" points="208.865,213.65 212.035,213.808 211.736,210.828 209.046,211.064 	"/>
	<rect x="212.035" y="213.808" fill="#F3ECE9" width="0.001" height="0.001"/>
	<polygon fill="#F3ECE9" points="19.843,203.873 116.587,169.755 116.587,166.587 19.555,129.877 116.976,121.261 116.588,118.359 
		116.587,118.359 12.645,127.285 12.645,130.453 113.132,168.459 12.645,203.298 12.645,206.465 116.587,213.808 117.077,210.6 	"/>
	<polygon fill="#F3ECE9" points="119.558,121.033 119.735,118.51 116.588,118.359 116.976,121.261 	"/>
	<polygon fill="#F3ECE9" points="119.561,210.771 117.077,210.6 116.587,213.808 119.717,212.59 	"/>
</g>
</svg>
