<?xml version="1.0" standalone="no"?>
<!DOCTYPE svg PUBLIC "-//W3C//DTD SVG 1.1//EN" "http://www.w3.org/Graphics/SVG/1.1/DTD/svg11.dtd" >
<svg xmlns="http://www.w3.org/2000/svg">
<metadata></metadata>
<defs>
<font id="seanregular" horiz-adv-x="1220" >
<font-face units-per-em="2048" ascent="1638" descent="-410" />
<missing-glyph horiz-adv-x="647" />
<glyph horiz-adv-x="2048" />
<glyph horiz-adv-x="2048" />
<glyph unicode="&#xd;" horiz-adv-x="2048" />
<glyph unicode=" "  horiz-adv-x="647" />
<glyph unicode="&#x09;" horiz-adv-x="647" />
<glyph unicode="&#xa0;" horiz-adv-x="647" />
<glyph unicode="!" horiz-adv-x="647" d="M250 1479h145l-4 -1010h-133zM252 0v276h143v-276h-143z" />
<glyph unicode="&#x22;" horiz-adv-x="933" d="M274 1348l78 385h137l-81 -385h-134zM647 1348l78 385h137l-82 -385h-133z" />
<glyph unicode="#" d="M63 475l29 113l193 6l102 334l-184 -6l26 112l193 6l125 406h115l-123 -402l327 13l129 418h115l-129 -414l170 6l-18 -113l-187 -6l-104 -334l170 7l-23 -113l-182 -6l-131 -424h-115l131 420l-325 -13l-129 -424h-117l129 420zM401 598l326 12l102 334l-325 -12z" />
<glyph unicode="'" horiz-adv-x="718" d="M274 1348l82 385h131l-79 -385h-134z" />
<glyph unicode="(" horiz-adv-x="862" d="M172 670q0 346 129 656t367 552l110 -86q-226 -225 -346.5 -510.5t-120.5 -615.5q0 -312 118.5 -601.5t338.5 -513.5l-98 -102q-241 245 -369.5 562t-128.5 659z" />
<glyph unicode=")" horiz-adv-x="1077" d="M274 -489q237 224 365.5 523t128.5 625q0 324 -123.5 612.5t-351.5 510.5l98 100q250 -242 384 -554t134 -673q0 -347 -136 -667t-386 -563z" />
<glyph unicode="+" horiz-adv-x="1366" d="M96 594v131h525l2 479h135l-2 -479h504v-133h-504l-2 -555h-136l3 557h-525z" />
<glyph unicode="," horiz-adv-x="862" d="M274 -223l203 411h156l-238 -411h-121z" />
<glyph unicode="-" horiz-adv-x="933" d="M184 492v131h582v-131h-582z" />
<glyph unicode="." horiz-adv-x="647" d="M250 0v322h151v-322h-151z" />
<glyph unicode="/" horiz-adv-x="1005" d="M51 -139l852 1868h144l-850 -1868h-146z" />
<glyph unicode="0" d="M139 539q0 109 35 209.5t96.5 176t151 120.5t192.5 45q137 0 248 -77t171.5 -204t60.5 -274q0 -151 -61.5 -280t-171.5 -205.5t-243 -76.5h-4q-134 0 -243.5 77t-170.5 206.5t-61 282.5zM283 532q0 -112 39 -207t115.5 -154.5t174.5 -59.5q145 0 242.5 127.5t97.5 302.5 q0 81 -23 154.5t-65 129.5t-105 89.5t-138 33.5q-147 0 -242.5 -123t-95.5 -293z" />
<glyph unicode="1" horiz-adv-x="933" d="M166 664l399 327h146l2 -991h-146l-2 819l-309 -254z" />
<glyph unicode="2" horiz-adv-x="1077" d="M121 37v131q203 0 353 91.5t237 272.5q47 100 47 189q0 103 -63.5 176.5t-174.5 73.5q-84 0 -151 -57.5t-138 -163.5l-100 77q192 279 399 279q111 0 194 -52.5t123 -135t40 -181.5q0 -73 -25 -159q-44 -149 -134.5 -253t-219.5 -157h504v-131h-891z" />
<glyph unicode="3" horiz-adv-x="1148" d="M102 897q165 168 379 168q211 0 341 -107t130 -296q0 -120 -58.5 -213.5t-164.5 -153.5q56 -17 107.5 -49t95.5 -78t70 -110.5t26 -137.5q0 -89 -50.5 -170t-131 -136.5t-181.5 -88.5t-202 -33q-159 0 -299 70l51 121q118 -62 246 -62q96 0 191 37.5t161 109.5t66 160 q0 43 -19 92q-18 42 -43.5 73t-60 51t-68.5 32t-82 18t-86 7.5t-94 1.5h-86v127q132 0 236 34t169.5 108.5t65.5 180.5q0 134 -98.5 208.5t-253.5 74.5q-170 0 -303 -133z" />
<glyph unicode="4" d="M70 100v131l727 848h145l-4 -848h322v-131h-322l-2 -555h-143l2 555h-725zM236 231h559l2 662z" />
<glyph unicode="5" horiz-adv-x="1148" d="M147 -403l64 114q140 -80 276 -80q161 0 268 101t107 252q0 120 -53.5 205t-139 124t-192.5 39q-60 0 -149 -14h-138l3 756h712v-133h-573l-4 -492q80 14 166 14q106 0 197.5 -32.5t161 -94.5t109 -159.5t39.5 -219.5q0 -136 -65.5 -247t-179.5 -173.5t-254 -62.5 q-179 0 -355 103z" />
<glyph unicode="6" d="M121 520q0 288 266 565q273 288 645 406l55 -127q-320 -104 -559 -328q-204 -190 -254 -387q152 127 351 127q190 0 320 -105t130 -282q0 -110 -59.5 -203.5t-162.5 -148.5t-224 -55q-146 0 -263 73t-181 195.5t-64 269.5zM262 504q10 -160 118 -266.5t255 -106.5 q118 0 201.5 73.5t83.5 180.5q0 116 -98 195t-236 79q-94 0 -179 -40.5t-145 -114.5z" />
<glyph unicode="7" horiz-adv-x="1148" d="M133 881v137h928v-139l-746 -1334h-153l741 1334z" />
<glyph unicode="8" horiz-adv-x="1148" d="M139 307q0 120 81 213t218 170q-268 155 -268 359q0 98 55.5 175t143 116.5t188.5 39.5q104 0 193.5 -42.5t144.5 -120.5t55 -175q0 -106 -68 -193t-180 -151q277 -151 277 -374q0 -104 -58.5 -190.5t-156 -134.5t-211.5 -48q-171 0 -292.5 100.5t-121.5 255.5zM281 326 q0 -107 86 -177.5t206 -70.5h5q111 0 193.5 63t82.5 170q0 52 -24 99t-68.5 86.5t-91.5 69.5t-109 61q-61 -31 -105.5 -59t-87 -65.5t-65 -82t-22.5 -94.5zM301 1049q0 -45 22 -87t62 -78t85 -65t103 -59q238 128 238 274q0 99 -79 157t-187 58q-98 0 -171 -52t-73 -148z " />
<glyph unicode="9" d="M133 594q0 175 130 301.5t312 126.5q110 0 202.5 -46t152.5 -121.5t93.5 -171.5t33.5 -198q0 -315 -287 -602q-235 -238 -561 -340l-53 133q306 92 536 328q139 142 193 289q-137 -109 -312 -109q-189 0 -314.5 113.5t-125.5 296.5zM289 606q0 -123 92.5 -205t230.5 -82 q90 0 171.5 43t134.5 117q-2 163 -104 278t-247 115q-117 0 -197.5 -78t-80.5 -188z" />
<glyph unicode=":" horiz-adv-x="647" d="M250 0v305h145v-305h-145zM250 698v303h145v-303h-145z" />
<glyph unicode=";" horiz-adv-x="862" d="M274 -195l213 383h150l-229 -383h-134zM475 698v303h146v-303h-146z" />
<glyph unicode="&#x3c;" horiz-adv-x="1366" d="M63 543v143l1219 553v-143l-1057 -480l1078 -469v-145z" />
<glyph unicode="=" horiz-adv-x="1437" d="M82 379v133h1259v-133h-1259zM82 834v133h1259v-133h-1259z" />
<glyph unicode="&#x3e;" horiz-adv-x="1366" d="M43 1096v143l1251 -551v-143l-1222 -543v145l1061 469z" />
<glyph unicode="?" horiz-adv-x="933" d="M127 1462q98 49 199 49q175 0 304.5 -127t129.5 -305q0 -92 -31 -168.5t-85.5 -129t-122.5 -87t-148 -51.5l-2 -180h-144l2 209v88q75 0 145 21.5t126.5 60.5t90.5 102t34 139q0 125 -89.5 211t-209.5 86q-81 0 -150 -41zM219 -20v294h158v-294h-158z" />
<glyph unicode="@" horiz-adv-x="1724" d="M115 426q0 154 62.5 291.5t167 235.5t247.5 155t299 57q148 0 282 -50.5t231 -137.5t154.5 -208.5t57.5 -258.5q0 -189 -106.5 -320t-243.5 -131q-66 0 -123 33t-84 84q-99 -86 -228 -86q-150 0 -247 99.5t-97 248.5q0 161 120.5 278.5t287.5 117.5q129 0 219 -69.5 t90 -186.5q0 -45 -25.5 -134t-25.5 -139q0 -56 35 -95.5t88 -39.5q83 0 151 95t68 235q0 153 -82.5 281.5t-221.5 201t-302 72.5q-176 0 -326.5 -82t-240 -226t-89.5 -315q0 -173 91.5 -318.5t245 -228t331.5 -82.5h4q129 1 248 49t213 136l82 -90q-113 -102 -254 -156.5 t-291 -54.5q-159 0 -304 57t-251.5 155t-169.5 235.5t-63 291.5zM610 436q0 -106 65 -177t163 -71q67 0 126.5 41t69.5 105q5 31 30.5 106t25.5 115q0 77 -56.5 120.5t-134.5 43.5q-120 0 -204.5 -83.5t-84.5 -199.5z" />
<glyph unicode="A" horiz-adv-x="1366" d="M37 0l665 1477h144l483 -1475h-149l-150 465h-633l-207 -467h-153zM453 592h536l-225 698z" />
<glyph unicode="B" d="M184 0v1479h355q82 0 154 -11.5t135.5 -38.5t109 -67.5t72 -102t26.5 -137.5q0 -102 -55.5 -178.5t-153.5 -120.5q140 -48 220.5 -146t80.5 -243q0 -105 -45.5 -189t-125 -137t-183.5 -80.5t-225 -27.5h-365zM328 129h221q124 0 219 31.5t155 104.5t60 179 q0 153 -123.5 235.5t-314.5 82.5q-37 0 -109 -1t-108 -1v-631zM328 881h217q151 0 249.5 61t98.5 174q0 65 -28.5 112t-80 73t-112 37.5t-133.5 11.5h-211v-469z" />
<glyph unicode="C" horiz-adv-x="1437" d="M147 715q0 359 185.5 570.5t503.5 211.5q150 0 272.5 -37t241.5 -112l-72 -119q-187 129 -424 129q-263 0 -411 -171.5t-148 -465.5q0 -269 145 -432.5t389 -163.5q246 0 443 156l82 -115q-241 -180 -541 -180q-308 0 -487 198.5t-179 530.5z" />
<glyph unicode="D" horiz-adv-x="1509" d="M184 0v1479h414q356 0 550.5 -200t194.5 -568q0 -337 -168.5 -524t-494.5 -187h-496zM328 143h299q274 0 420.5 145t146.5 412q0 298 -149 466.5t-424 168.5h-293v-1192z" />
<glyph unicode="E" d="M184 0v1479h863v-142h-719v-501h557v-142h-557v-553h786v-141h-930z" />
<glyph unicode="F" horiz-adv-x="1148" d="M193 0v1479h870v-142h-727v-501h586v-142h-586v-694h-143z" />
<glyph unicode="G" horiz-adv-x="1581" d="M147 729q0 353 192 559.5t523 206.5q157 0 289 -38.5t262 -115.5l-67 -122q-218 135 -465 135q-273 0 -430.5 -167.5t-157.5 -455.5q0 -289 156.5 -451.5t433.5 -162.5q225 0 432 98v346h-336v135h471v-542q-274 -166 -600 -166q-334 0 -518.5 195t-184.5 546z" />
<glyph unicode="H" horiz-adv-x="1581" d="M184 0v1479h146v-668h905v668h143v-1479h-143v674h-907v-674h-144z" />
<glyph unicode="I" horiz-adv-x="647" d="M250 0l2 1479h143l-2 -1479h-143z" />
<glyph unicode="J" horiz-adv-x="933" d="M139 -383l68 115q56 -68 143 -68q51 0 92 20.5t67 53.5t43.5 77.5t24.5 90t7 94.5v1479h145l-2 -1479q0 -88 -26 -171t-73.5 -149t-121.5 -105.5t-162 -39.5q-120 0 -205 82z" />
<glyph unicode="K" horiz-adv-x="1294" d="M178 0v1479h144v-600l704 600h170l-795 -695l830 -784h-168l-741 686v-686h-144z" />
<glyph unicode="L" d="M193 0v1479h143v-1338h770v-141h-913z" />
<glyph unicode="M" horiz-adv-x="1796" d="M133 0l111 1479h145l475 -1323l514 1323h144l135 -1479h-146l-104 1182l-463 -1182h-141l-441 1165l-83 -1165h-146z" />
<glyph unicode="N" horiz-adv-x="1581" d="M199 0v1479h143l936 -1270v1270h143v-1479h-143l-936 1270v-1270h-143z" />
<glyph unicode="O" horiz-adv-x="1581" d="M141 739q1 214 79 384t226.5 269t344.5 99q153 0 277 -56.5t205.5 -156.5t126 -234.5t46.5 -291.5v-11q0 -215 -77 -384.5t-227.5 -269t-350.5 -99.5q-199 1 -349 100t-226 268q-76 167 -75 377v6zM287 729q0 -171 60.5 -308t176 -217.5t267.5 -80.5q124 0 222 47.5 t159.5 131.5t93.5 196t32 245q0 130 -34 242t-97 194.5t-159.5 129.5t-214.5 47q-121 0 -218 -48t-159.5 -133t-95.5 -198.5t-33 -247.5z" />
<glyph unicode="P" d="M193 0v1479h329q114 0 211.5 -31.5t172.5 -92t118 -156.5t43 -216q0 -196 -134.5 -324.5t-344.5 -128.5q-132 0 -252 54v-584h-143zM336 729q107 -55 221 -55q162 0 263.5 89t101.5 228q0 114 -55.5 194.5t-144 118t-200.5 37.5h-186v-612z" />
<glyph unicode="Q" horiz-adv-x="1652" d="M139 748q0 160 47 296.5t132 235.5t211 155t278 56q152 -1 278 -58t211 -157.5t132 -240.5t47 -304q0 -192 -66.5 -349t-194 -258.5t-299.5 -127.5q116 -149 299 -246t398 -106v-133q-266 11 -489 144t-355 333q-190 9 -333.5 109.5t-219.5 269t-76 381.5zM283 748 q0 -178 63.5 -319t184 -222.5t276.5 -81.5q126 0 226.5 47t165 129t98.5 191t34 235q0 178 -62.5 320t-183 224.5t-278.5 82.5q-166 0 -286.5 -80.5t-179 -216t-58.5 -309.5z" />
<glyph unicode="R" horiz-adv-x="1366" d="M184 0v1479h369q112 0 207 -24.5t168.5 -73t115 -128.5t41.5 -184q0 -137 -79.5 -233.5t-219.5 -143.5l568 -692h-166l-545 659q-78 -10 -143 -10h-172v-649h-144zM328 784h172q93 0 170.5 16t140 48.5t98 88.5t35.5 130q0 72 -31 125.5t-86 85t-123.5 46.5t-150.5 15 h-225v-555z" />
<glyph unicode="S" horiz-adv-x="1148" d="M102 80l50 133q194 -90 413 -90q138 0 226.5 61t89.5 176q0 52 -22 99.5t-53 82t-83 70.5t-94 58.5t-103 52.5q-66 32 -110.5 57t-101 66.5t-90 83.5t-57.5 102t-24 129q0 149 118 242.5t300 93.5q210 0 408 -108l-51 -125q-187 98 -361 98q-116 0 -191 -56t-75 -153 q0 -56 26.5 -103t85.5 -89.5t99.5 -65t120.5 -62.5q11 -5 16 -8q65 -32 114.5 -61.5t104 -73.5t90 -90.5t59 -109.5t23.5 -134q0 -111 -64 -195.5t-173.5 -128.5t-245.5 -44q-228 0 -445 92z" />
<glyph unicode="T" horiz-adv-x="1437" d="M274 1350v141h1264v-141h-596v-1350h-143v1350h-525z" />
<glyph unicode="U" horiz-adv-x="1509" d="M166 1479h145v-838q0 -232 118.5 -372t332.5 -140q190 0 297.5 127t107.5 332v891h144v-863q0 -185 -69 -327t-200.5 -221.5t-308.5 -79.5q-266 0 -415.5 171t-149.5 455z" />
<glyph unicode="V" horiz-adv-x="1366" d="M57 1479h150l518 -1282l508 1282h147l-583 -1479h-150z" />
<glyph unicode="W" horiz-adv-x="1796" d="M25 1479h145l389 -1266l311 1266h121l305 -1256l342 1256h136l-410 -1479h-129l-299 1243l-299 -1243h-129z" />
<glyph unicode="X" horiz-adv-x="1294" d="M37 0l559 754l-473 725h149l400 -611l463 611h151l-538 -727l491 -752h-149l-420 643l-480 -643h-153z" />
<glyph unicode="Y" horiz-adv-x="1077" d="M-37 1479h146l401 -668l438 668h150l-508 -793v-686h-144v653z" />
<glyph unicode="Z" horiz-adv-x="1366" d="M70 14v138l1003 1161h-868v137l1024 2v-139l-1002 -1161h1053v-138h-1210z" />
<glyph unicode="_" horiz-adv-x="1509" d="M274 -352h1366v-144h-1366v144z" />
<glyph unicode="`" horiz-adv-x="862" d="M274 1733h152l299 -390h-143z" />
<glyph unicode="a" d="M133 297q0 102 47 176.5t131.5 117t189 62t232.5 19.5q71 0 141 -6v20q0 139 -96 222t-256 83q-145 0 -260 -86l-78 103q145 110 348 110q219 0 352.5 -107.5t133.5 -295.5v-715h-144v184q-171 -202 -389 -202q-159 0 -255.5 87t-96.5 228zM276 307q0 -88 64 -138 t164 -50q222 0 370 227v211q-122 8 -178 8q-93 0 -164.5 -12t-131.5 -40t-92 -80t-32 -126z" />
<glyph unicode="b" horiz-adv-x="1294" d="M184 0v1604h144v-641q70 68 160 105.5t188 37.5q147 0 254.5 -77t160 -202.5t52.5 -281.5q0 -240 -137.5 -396.5t-358.5 -156.5q-197 0 -319 125v-117h-144zM328 276q43 -80 118.5 -125t167.5 -45q93 0 167 34.5t120 94.5t70 136.5t24 163.5q0 129 -42 233t-126.5 166.5 t-197.5 62.5q-92 -1 -172.5 -48.5t-128.5 -125.5v-547z" />
<glyph unicode="c" horiz-adv-x="1148" d="M147 547q0 243 142.5 400t380.5 157q168 0 303 -111l-70 -108q-104 90 -229 90q-123 0 -210.5 -60.5t-128 -157.5t-40.5 -218q0 -180 99 -300t276 -120q150 0 252 114l82 -96q-146 -155 -353 -155q-159 0 -275 76t-172.5 202t-56.5 287z" />
<glyph unicode="d" horiz-adv-x="1294" d="M139 547q0 242 135 399.5t342 157.5q209 0 365 -146q0 216 -4 646h145q2 -324 2 -1381q0 -37 -1 -111.5t-1 -111.5h-143v141q-64 -73 -155.5 -113t-198.5 -40q-225 0 -355.5 157t-130.5 402zM283 543q0 -192 104 -317.5t272 -125.5q115 0 198.5 55t123.5 146v539 q-61 66 -144 101.5t-173 35.5q-182 0 -281.5 -121.5t-99.5 -312.5z" />
<glyph unicode="e" d="M133 561q0 238 131 393.5t340 155.5q212 0 327.5 -136t115.5 -360q0 -40 -7 -98h-759q19 -182 122.5 -290.5t272.5 -108.5q159 3 276 102l82 -100q-167 -135 -381 -135q-249 0 -384.5 159t-135.5 418zM279 633h626q-8 151 -86 246t-209 96h-4q-141 0 -228 -95t-99 -247z " />
<glyph unicode="f" horiz-adv-x="1148" d="M133 930v137h318v147q0 198 107.5 317.5t275.5 119.5q105 0 210 -47l-49 -121q-69 28 -139 28q-116 0 -189 -81t-73 -216v-147h414v-137h-414v-930h-143v930h-318z" />
<glyph unicode="g" d="M88 -264q0 93 39.5 175.5t110.5 139.5q-86 62 -86 197q0 67 31 124t87 91q-118 103 -118 258q0 105 58 193.5t155.5 139t209.5 50.5q141 0 248 -72h361v-121h-244q45 -76 45 -174q0 -160 -124.5 -270.5t-297.5 -110.5h-4q-121 0 -223 60q-62 -49 -62 -133q0 -53 16 -88 t48.5 -52.5t70 -24.5t91.5 -7q32 0 108 3t117 3q73 0 140.5 -20.5t122 -59t87.5 -101.5t33 -141q0 -115 -82 -211.5t-218 -150.5t-292 -54q-192 0 -310 90.5t-118 266.5zM209 -219q1 -132 95.5 -200t248.5 -68q109 0 205 31t157.5 92.5t61.5 140.5q0 57 -26.5 100t-71 67 t-96.5 36t-109 12h-94q-179 0 -258 22q-52 -42 -82.5 -103t-30.5 -130zM297 729q0 -110 83 -180t198 -70h4q110 3 191 73t81 177q0 108 -82 181t-197 73q-117 0 -197.5 -74t-80.5 -180z" />
<glyph unicode="h" d="M193 0v1604h143v-625q66 65 155 102t181 37q93 0 167.5 -35.5t120.5 -95.5t70.5 -136t24.5 -161q0 -114 1 -344.5t1 -345.5h-144q0 113 -1 339.5t-1 338.5q0 127 -78 214t-206 87q-84 0 -162.5 -41.5t-128.5 -110.5q0 -553 2 -827h-145z" />
<glyph unicode="i" horiz-adv-x="647" d="M250 1413v248h149v-248h-149zM252 1092h145v-1092h-143z" />
<glyph unicode="j" horiz-adv-x="790" d="M178 -479q28 -4 43 -4q93 0 161.5 66.5t68.5 162.5v1350h143v-1350q0 -153 -109.5 -261t-259.5 -108q-7 0 -47 5v139zM449 1399v260h149v-260h-149z" />
<glyph unicode="k" d="M184 0v1604h144v-955l561 443h184l-624 -500l673 -592h-182l-612 530v-530h-144z" />
<glyph unicode="l" horiz-adv-x="647" d="M250 2v1602h143l2 -1602h-145z" />
<glyph unicode="m" horiz-adv-x="1941" d="M178 0q2 326 2 1092h146v-125q65 71 154.5 111t185.5 40q123 0 208 -54t123 -144q61 91 161 143.5t210 52.5q93 0 164 -31t115 -86t66 -127t22 -157v-713h-144v707q0 120 -70 194t-192 74q-90 0 -171.5 -45.5t-131.5 -122.5q6 -41 6 -80q0 -243 -4 -727h-143q2 244 2 731 q0 112 -68 181t-186 69q-90 0 -172 -43t-135 -117q0 -213 -4 -823h-144z" />
<glyph unicode="n" horiz-adv-x="1294" d="M193 0q4 295 4 1092h145v-140q68 76 163 119t197 43q177 0 278 -106.5t101 -274.5v-733h-143v723q0 116 -74.5 184t-197.5 68q-94 0 -180 -44t-144 -120q-1 -135 -2 -405.5t-2 -405.5h-145z" />
<glyph unicode="o" horiz-adv-x="1294" d="M139 547q0 247 133 402t357 155q158 0 270.5 -72t166.5 -194.5t54 -284.5q0 -165 -59 -293t-170 -201t-258 -73q-121 0 -216 41.5t-155.5 117t-91.5 177.5t-31 225zM283 565q0 -195 93.5 -317.5t254.5 -122.5q171 0 258.5 117t87.5 305q0 187 -93 305.5t-253 118.5 q-171 0 -259.5 -113t-88.5 -293z" />
<glyph unicode="p" horiz-adv-x="1294" d="M178 -614q6 448 6 895q0 545 -6 811h146q0 -26 1 -80t1 -80q75 81 176 127.5t207 46.5q107 0 194.5 -44.5t143.5 -120.5t86 -174t30 -208q0 -251 -147 -411t-383 -160q-174 0 -305 98q0 -234 -4 -700h-146zM326 768q0 -92 1 -275.5t1 -275.5q111 -108 270 -108 q198 0 311 129t113 331q0 179 -99 304.5t-255 125.5q-111 0 -203.5 -65.5t-138.5 -165.5z" />
<glyph unicode="q" horiz-adv-x="1294" d="M133 553q0 153 69 278.5t191 198t271 72.5q191 0 329 -119v109h144v-1706h-144v677q-130 -81 -291 -81q-252 0 -410.5 158t-158.5 413zM283 557q0 -210 130 -338.5t332 -128.5q134 0 248 82v682q-116 135 -291 135q-126 0 -222.5 -58.5t-146.5 -156t-50 -217.5z" />
<glyph unicode="r" horiz-adv-x="933" d="M199 0v1092h145v-158q181 174 426 174q20 0 66 -4l-17 -135q-40 4 -59 4q-249 0 -416 -205v-768h-145z" />
<glyph unicode="s" horiz-adv-x="1077" d="M88 106l66 115q162 -102 354 -102q57 0 104 8t88.5 26t64.5 52t23 82q0 35 -16.5 64.5t-38.5 48t-63.5 37t-70 27t-79.5 23.5q-71 21 -124 45t-103.5 62t-77.5 94.5t-27 128.5q0 128 103.5 208.5t261.5 80.5q188 0 346 -100l-57 -115q-124 90 -273 90q-104 0 -170.5 -42 t-66.5 -122q0 -22 5 -42t11.5 -35.5t20 -30t24 -24t31 -20.5t33 -17t37.5 -14.5t38 -12.5t41 -12t39 -11q55 -15 99 -32.5t88 -43.5t73 -57.5t47.5 -75.5t18.5 -96q0 -97 -64.5 -167.5t-166 -104t-224.5 -33.5q-214 0 -395 118z" />
<glyph unicode="t" horiz-adv-x="1077" d="M147 1053h267v233l143 88v-319h404v-135h-404v-537q0 -120 41.5 -196t130.5 -76q91 0 168 47l45 -113q-129 -57 -266 -57q-121 0 -191.5 87.5t-70.5 221.5v621h-264z" />
<glyph unicode="u" d="M184 346v746h146l-2 -699q0 -132 75.5 -216.5t212.5 -84.5q97 0 177.5 54t119.5 141v805h146v-1092h-146v131q-65 -73 -155.5 -113.5t-190.5 -40.5q-176 0 -278.5 103t-104.5 266z" />
<glyph unicode="v" horiz-adv-x="1148" d="M88 1092h150l333 -934l369 934h150l-441 -1092h-139z" />
<glyph unicode="w" horiz-adv-x="1724" d="M6 1092h146l313 -930l305 930h139l269 -934l387 934h153l-469 -1092h-137l-274 874l-287 -874h-139z" />
<glyph unicode="x" horiz-adv-x="1148" d="M70 0l419 567l-344 525h168l260 -396l304 396h155l-377 -521l375 -571h-168l-291 442l-346 -442h-155z" />
<glyph unicode="y" horiz-adv-x="1148" d="M82 1092h154l329 -779l375 779h143l-809 -1706h-153l375 780z" />
<glyph unicode="z" horiz-adv-x="1148" d="M102 0v135l744 795h-649v135h813v-135l-742 -795h762v-135h-928z" />
<glyph unicode="|" horiz-adv-x="647" d="M250 2v1088h143v-1088h-143zM250 -2h143v-770h-143v770zM250 1096v639h143v-639h-143z" />
<glyph unicode="&#xad;" horiz-adv-x="933" d="M184 492v131h582v-131h-582z" />
<glyph unicode="&#x2000;" horiz-adv-x="941" />
<glyph unicode="&#x2001;" horiz-adv-x="1882" />
<glyph unicode="&#x2002;" horiz-adv-x="941" />
<glyph unicode="&#x2003;" horiz-adv-x="1882" />
<glyph unicode="&#x2004;" horiz-adv-x="627" />
<glyph unicode="&#x2005;" horiz-adv-x="470" />
<glyph unicode="&#x2006;" horiz-adv-x="313" />
<glyph unicode="&#x2007;" horiz-adv-x="313" />
<glyph unicode="&#x2008;" horiz-adv-x="235" />
<glyph unicode="&#x2009;" horiz-adv-x="376" />
<glyph unicode="&#x200a;" horiz-adv-x="104" />
<glyph unicode="&#x2010;" horiz-adv-x="933" d="M184 492v131h582v-131h-582z" />
<glyph unicode="&#x2011;" horiz-adv-x="933" d="M184 492v131h582v-131h-582z" />
<glyph unicode="&#x2012;" horiz-adv-x="933" d="M184 492v131h582v-131h-582z" />
<glyph unicode="&#x2013;" horiz-adv-x="1375" d="M184 492v131h1024v-131h-1024z" />
<glyph unicode="&#x2014;" horiz-adv-x="2399" d="M184 492v131h2048v-131h-2048z" />
<glyph unicode="&#x202f;" horiz-adv-x="376" />
<glyph unicode="&#x205f;" horiz-adv-x="470" />
<glyph unicode="&#x25fc;" horiz-adv-x="1095" d="M0 0v1096h1096v-1096h-1096z" />
</font>
</defs>
</svg>
