<?xml version="1.0" encoding="utf-8"?>
<!-- Generator: Adobe Illustrator 18.0.0, SVG Export Plug-In . SVG Version: 6.00 Build 0)  -->
<!DOCTYPE svg PUBLIC "-//W3C//DTD SVG 1.1//EN" "http://www.w3.org/Graphics/SVG/1.1/DTD/svg11.dtd">
<svg version="1.1" id="Layer_1" xmlns="http://www.w3.org/2000/svg" xmlns:xlink="http://www.w3.org/1999/xlink" x="0px" y="0px"
	 viewBox="17 881.9 647 275" enable-background="new 17 881.9 647 275" xml:space="preserve">
<line fill="none" stroke="#000000" stroke-width="40" stroke-miterlimit="10" x1="215.4" y1="939.9" x2="215.4" y2="1102.4"/>
<path fill="none" stroke="#000000" stroke-width="40" stroke-miterlimit="10" d="M216,1034.9c0,0-80.8,0-86.8,0
	c-6,0-9.8,2.1-9.8,9.4c0,4.4,2.7,8.3,8.3,8.3c6.3,0,10.4-1.9,10.4-9.1c0-7.2,0-100.6,0-100.6"/>
<path fill="none" stroke="#000000" stroke-width="40" stroke-miterlimit="10" d="M340.7,937.7v49.6c0,0-73.9,2.9-73.9,55.6
	s40,59.9,75.2,59.9c0,0,36.2,2.9,36.2-29.4c0-25.8-14.6-30.7-28.3-30.7c-34.8,0-51.7,59.9-7.9,59.9"/>
<path fill="none" stroke="#000000" stroke-width="40" stroke-miterlimit="10" d="M408.6,1077"/>
<path fill="none" stroke="#000000" stroke-width="40" stroke-miterlimit="10" d="M428.5,995.4c-7.2-10.6-12.1-46,15.3-46
	s32.3,17,32.3,37.1c0,18.6-16.2,37.9-61.3,34.8c0,0-11,63,51.9,63c48.5,0,63.8-32.3,63.8-32.3"/>
<line fill="none" stroke="#000000" stroke-width="40" stroke-miterlimit="10" x1="530.4" y1="930.8" x2="530.4" y2="1102.4"/>
<line fill="none" stroke="#000000" stroke-width="40" stroke-miterlimit="10" x1="90.2" y1="935.4" x2="373" y2="935.4"/>
<line fill="none" stroke="#000000" stroke-width="40" stroke-miterlimit="10" x1="492.3" y1="935.4" x2="598.4" y2="935.4"/>
</svg>
