<?xml version="1.0" standalone="no"?>
<!DOCTYPE svg PUBLIC "-//W3C//DTD SVG 1.1//EN" "http://www.w3.org/Graphics/SVG/1.1/DTD/svg11.dtd" >
<svg xmlns="http://www.w3.org/2000/svg">
<metadata></metadata>
<defs>
<font id="aileronultralight_italic" horiz-adv-x="1085" >
<font-face units-per-em="2048" ascent="1577" descent="-471" />
<missing-glyph horiz-adv-x="337" />
<glyph unicode="&#xfb01;" horiz-adv-x="798" d="M59 0l181 1026h-97l9 43h94l16 90q12 63 25 109q34 126 139.5 201t259.5 75q50 0 96 -10l-8 -43q-100 15 -175.5 3.5t-131.5 -48.5t-89 -83t-48 -101q-11 -42 -23 -103l-16 -90h454l-188 -1069h-45l180 1026h-407l-181 -1026h-45z" />
<glyph unicode="&#xfb02;" horiz-adv-x="825" d="M59 0l183 1026h-99l9 43h96l16 90q6 49 23 109q34 124 121 200t219 76q56 0 114.5 -10.5t81.5 -28.5l-221 -1259q-24 -128 -24 -164q0 -35 22.5 -46t79.5 -3l-6 -39q-20 -4 -60 -4q-84 0 -84 80q0 27 27 176l215 1231q-44 24 -151 24q-120 0 -191.5 -67.5t-97.5 -171.5 q-19 -71 -23 -103l-16 -90h219l-8 -43h-217l-183 -1026h-45z" />
<glyph horiz-adv-x="2048" />
<glyph horiz-adv-x="2048" />
<glyph unicode="&#xd;" horiz-adv-x="2048" />
<glyph unicode=" "  horiz-adv-x="337" />
<glyph unicode="&#x09;" horiz-adv-x="337" />
<glyph unicode="&#xa0;" horiz-adv-x="337" />
<glyph unicode="!" horiz-adv-x="319" d="M25 4q0 20 15 34.5t34 14.5q15 0 23.5 -9.5t8.5 -23.5q0 -20 -15 -34.5t-34 -14.5q-15 0 -23.5 9.5t-8.5 23.5zM84 225l209 1188h47l-217 -1188h-39z" />
<glyph unicode="&#x22;" horiz-adv-x="327" d="M106 1006l84 499h46l-97 -499h-33zM274 1006l84 499h45l-96 -499h-33z" />
<glyph unicode="#" d="M104 502l9 43h239l125 323h-246l9 43h254l196 502h43l-196 -502h227l197 502h43l-197 -502h231l-8 -43h-239l-125 -323h245l-8 -43h-254l-196 -502h-43l196 502h-227l-197 -502h-43l197 502h-232zM395 545h228l125 323h-228z" />
<glyph unicode="$" d="M70 369h45q20 -342 325 -355l119 674q-134 44 -222.5 135.5t-88.5 220.5q0 72 26 139.5t77.5 125.5t140 94.5t202.5 38.5l27 155h45l-29 -155q86 -5 150.5 -37.5t102 -86.5t55.5 -120t20 -145h-45q-3 327 -289 346l-119 -674q164 -52 249 -140.5t85 -228.5 q0 -55 -16 -107.5t-52.5 -102.5t-90 -87.5t-133.5 -61.5t-177 -26l-26 -155h-45l26 155q-81 3 -145.5 29.5t-105 66t-66.5 91.5t-36 104.5t-9 106.5zM295 1049q0 -112 75 -194t197 -122l119 666q-99 -2 -176 -34t-122.5 -83t-69 -110.5t-23.5 -122.5zM485 14q106 3 188.5 34 t130 80.5t71.5 106.5t24 119q0 89 -36.5 152.5t-98.5 102.5t-160 69z" />
<glyph unicode="%" horiz-adv-x="1431" d="M131 0l1161 1413h58l-1162 -1413h-57zM238 1055q0 64 20 130.5t57.5 124.5t100 95t137.5 37q103 0 163 -73.5t60 -190.5q0 -64 -20 -130.5t-57.5 -124.5t-100 -95t-137.5 -37q-103 0 -163 73.5t-60 190.5zM285 1055q0 -103 48 -162t134 -59q65 0 117 33t82.5 85.5 t46.5 111t16 114.5q0 103 -48 162t-134 59q-65 0 -117 -33t-82.5 -85.5t-46.5 -111t-16 -114.5zM713 236q0 64 20 130.5t57.5 124.5t100 95t137.5 37q103 0 163 -73.5t60 -191.5q0 -64 -20 -130.5t-57.5 -124.5t-100 -95t-137.5 -37q-103 0 -163 73.5t-60 191.5zM760 236 q0 -103 48 -162.5t134 -59.5q65 0 117 33t82.5 85.5t46.5 111t16 114.5q0 103 -48 162.5t-134 59.5q-65 0 -117 -33t-82.5 -85.5t-46.5 -111t-16 -114.5z" />
<glyph unicode="&#x26;" horiz-adv-x="1228" d="M35 291q0 167 118.5 271t346.5 124q-129 24 -211 106t-82 222q0 76 34 149.5t101 137t180.5 102.5t257.5 39q130 0 244 -21l-10 -43q-120 21 -246 21q-102 0 -189 -24t-145.5 -63t-100 -89.5t-60.5 -103t-19 -103.5q0 -66 25 -120t63 -87t87.5 -56t96 -33t90.5 -11 q41 -2 351 -2l55 311h45l-55 -311h184l-8 -43h-184l-117 -662q-184 -31 -363 -31q-489 0 -489 320zM82 293q0 -77 32.5 -132t95 -86.5t142 -46t183.5 -14.5q170 0 315 27l108 623q-309 0 -350 -2q-270 -19 -398 -109t-128 -260z" />
<glyph unicode="'" horiz-adv-x="159" d="M106 1006l84 499h46l-97 -499h-33z" />
<glyph unicode="(" horiz-adv-x="495" d="M178 401q0 291 109.5 623t310.5 573h45q-211 -268 -314.5 -583.5t-103.5 -612.5q0 -317 107 -565h-45q-109 229 -109 565z" />
<glyph unicode=")" horiz-adv-x="497" d="M-86 -164q211 268 314.5 583.5t103.5 612.5q0 317 -107 565h45q109 -229 109 -565q0 -291 -109.5 -623t-310.5 -573h-45z" />
<glyph unicode="*" d="M195 645l22 45l305 -117l64 398h49l-76 -398l346 117l6 -45l-346 -106l176 -306l-45 -28l-164 315l-278 -315l-37 28l285 306z" />
<glyph unicode="+" d="M147 629l9 43h387l80 450h45l-80 -450h387l-8 -43h-387l-80 -451h-45l80 451h-388z" />
<glyph unicode="," horiz-adv-x="260" d="M-195 -238l146 287h51v-10l-154 -277h-43z" />
<glyph unicode="-" horiz-adv-x="561" d="M61 555l9 43h430l-8 -43h-431z" />
<glyph unicode="." horiz-adv-x="260" d="M-47 6q0 21 13.5 34t31.5 13q17 0 27 -10.5t10 -24.5q0 -21 -13.5 -34t-31.5 -13q-17 0 -27 10.5t-10 24.5z" />
<glyph unicode="/" horiz-adv-x="538" d="M-117 -61l785 1536h45l-785 -1536h-45z" />
<glyph unicode="0" d="M76 455q0 79 10 166t32.5 184t56 187t84.5 172.5t113 143.5t146.5 97.5t181.5 36.5q181 0 274 -127t93 -357q0 -79 -10 -166.5t-32.5 -184t-56 -186.5t-84.5 -172.5t-113.5 -143.5t-147 -97.5t-181.5 -36.5q-181 0 -273.5 127t-92.5 357zM123 457q0 -208 82 -325.5 t244 -117.5q104 0 192.5 48.5t149 129.5t106.5 179.5t72 207t38.5 203t12.5 174.5q0 208 -82 325.5t-244 117.5q-104 0 -192.5 -48.5t-149 -129.5t-106.5 -179.5t-72 -207t-38.5 -203t-12.5 -174.5z" />
<glyph unicode="1" d="M311 997l13 54l524 362h33l-250 -1413h-45l239 1350z" />
<glyph unicode="2" d="M-25 0l7 33l598 477q187 150 278 241.5t131.5 177t40.5 193.5q0 127 -85 202t-224 75q-159 0 -270.5 -92.5t-169.5 -266.5h-45q59 197 188 299.5t305 102.5q157 0 252.5 -90t95.5 -230q0 -88 -22 -158t-80.5 -146t-139 -149.5t-219.5 -183.5l-559 -442h844l-8 -43h-918z " />
<glyph unicode="3" d="M45 397h45q5 -87 27.5 -154t66 -120t117 -81t174.5 -28q110 0 196 35.5t134.5 92.5t73 120t24.5 127q0 140 -96.5 226.5t-296.5 86.5h-37l8 43h35q228 0 359 105.5t131 271.5q0 120 -86 198.5t-218 78.5q-159 0 -281 -96t-167 -261h-45q50 188 188 294t314 106 q84 0 151 -27t108 -73t62 -102t21 -118q0 -146 -96.5 -256.5t-274.5 -138.5q129 -29 198.5 -117.5t69.5 -218.5q0 -64 -17.5 -123.5t-56.5 -114t-95.5 -94.5t-139.5 -64t-184 -24q-118 0 -209.5 47.5t-146.5 145t-56 233.5z" />
<glyph unicode="4" d="M8 369l6 32l930 1012h35l-176 -1001h203l-9 -43h-202l-66 -369h-45l66 369h-742zM80 412h678l162 911z" />
<glyph unicode="5" d="M51 324h45q15 -151 107 -230.5t256 -79.5q88 0 170 32t147 91.5t104.5 152.5t39.5 206q0 157 -98 251.5t-253 94.5q-129 0 -218 -56t-173 -182h-45l238 809h749l-8 -43h-709l-202 -680l92 109q122 86 289 86q175 0 280 -108.5t105 -276.5q0 -159 -69.5 -280.5t-186 -185 t-258.5 -63.5q-362 0 -402 353z" />
<glyph unicode="6" d="M78 399q0 94 16.5 203t49.5 227.5t87.5 227t124.5 195t167.5 138.5t209.5 52q325 0 361 -361h-45q-26 164 -98.5 241t-223.5 77q-195 0 -350.5 -191t-231.5 -573l74 123q149 180 397 180q97 0 172 -33.5t119.5 -92.5t65.5 -133.5t18 -160.5q-2 -75 -26 -152t-70 -148 t-108.5 -126t-150 -88t-185.5 -33q-107 0 -189.5 45t-133 143t-50.5 240zM125 395q0 -174 85 -277.5t249 -103.5q106 0 197.5 45t152.5 117t96.5 161t38.5 179q6 166 -79.5 272.5t-248.5 106.5q-97 0 -180.5 -33t-139 -86t-95.5 -120t-58 -133.5t-18 -127.5z" />
<glyph unicode="7" d="M117 0l977 1370h-881l8 43h944l-4 -22l-991 -1391h-53z" />
<glyph unicode="8" d="M39 303q0 136 97 256.5t282 167.5q-100 34 -149.5 101t-49.5 188q0 56 20 114.5t62 114.5t100 99.5t142 70.5t180 27q171 0 265.5 -95.5t94.5 -230.5q0 -57 -20 -115t-60.5 -113.5t-111 -100.5t-160.5 -68q120 -33 184 -114t64 -206q0 -86 -36.5 -163t-103.5 -137 t-170 -95t-227 -35q-78 0 -149.5 22t-128.5 63t-91 105.5t-34 143.5zM86 305q0 -60 22 -109.5t58 -83t84.5 -56.5t99 -33.5t103.5 -10.5q210 0 344.5 111t134.5 274q0 143 -92 223t-267 80q-102 0 -186 -25.5t-138.5 -66t-92.5 -93t-54 -105.5t-16 -105zM266 1016 q0 -77 27.5 -132t75 -84.5t101.5 -43t118 -13.5q107 0 194 32t141.5 85t83.5 119t29 137q0 124 -88.5 203.5t-230.5 79.5q-102 0 -189 -35t-143 -90.5t-87.5 -123t-31.5 -134.5z" />
<glyph unicode="9" d="M49 332h45q26 -164 98.5 -241t223.5 -77q94 0 180 45.5t162.5 136.5t138 239t100.5 343l-73 -123q-149 -180 -398 -180q-97 0 -172 33.5t-119 92.5t-65 133.5t-18 160.5q2 75 26 152t70 148t108.5 126t150 88t185.5 33q107 0 189.5 -45t133 -143t50.5 -240 q0 -94 -16.5 -203t-49.5 -227.5t-87.5 -227t-124.5 -195t-167.5 -138.5t-209.5 -52q-325 0 -361 361zM199 897q-6 -167 79 -273t248 -106q97 0 180.5 33t139.5 86t96 120t58 133.5t18 127.5q0 174 -85 277.5t-249 103.5q-106 0 -197.5 -45t-152.5 -117t-96.5 -161 t-38.5 -179z" />
<glyph unicode=":" horiz-adv-x="260" d="M-47 6q0 21 13.5 34t31.5 13q17 0 27 -10.5t10 -24.5q0 -21 -13.5 -34t-31.5 -13q-17 0 -27 10.5t-10 24.5zM141 1059q0 21 13.5 34t31.5 13q17 0 27 -10.5t10 -24.5q0 -21 -13.5 -34t-31.5 -13q-17 0 -27 10.5t-10 24.5z" />
<glyph unicode=";" horiz-adv-x="260" d="M-195 -238l146 287h51v-10l-154 -277h-43zM141 1059q0 21 13.5 34t31.5 13q17 0 27 -10.5t10 -24.5q0 -21 -13.5 -34t-31.5 -13q-17 0 -27 10.5t-10 24.5z" />
<glyph unicode="&#x3c;" d="M139 522l8 41l891 400l-8 -52l-827 -368l696 -369l-8 -51z" />
<glyph unicode="=" d="M94 444l8 43h861l-9 -43h-860zM160 813l8 43h860l-8 -43h-860z" />
<glyph unicode="&#x3e;" d="M57 123l9 51l827 369l-696 368l8 52l751 -400l-8 -41z" />
<glyph unicode="?" horiz-adv-x="1044" d="M207 1012q40 195 175 312.5t325 117.5q80 0 145 -26t104 -68t59.5 -92.5t20.5 -102.5q0 -113 -58.5 -209t-205.5 -242q-82 -80 -123.5 -125t-77.5 -101t-53.5 -111.5t-30.5 -139.5h-41q14 107 48 185.5t87 145t160 173.5q145 145 196.5 233.5t51.5 190.5t-80 174t-209 72 q-177 0 -290.5 -103.5t-157.5 -283.5h-45zM399 4q0 20 15.5 34.5t34.5 14.5q15 0 23.5 -9.5t8.5 -23.5q0 -20 -15 -34.5t-34 -14.5q-15 0 -24 9.5t-9 23.5z" />
<glyph unicode="@" horiz-adv-x="1728" d="M111 500q0 157 48.5 296t131.5 240.5t190 175.5t227 111t240 37q298 0 484 -186t186 -482q0 -128 -31.5 -232.5t-84.5 -170t-120 -100.5t-141 -35q-40 0 -75 9.5t-65.5 31.5t-48.5 62.5t-18 96.5l-37 -78q-104 -139 -247 -139q-46 0 -87 14.5t-80 47t-62 96t-23 151.5 q0 144 56 268t156.5 199.5t221.5 75.5q103 0 153 -69l43 -107l33 139h51l-102 -428q-27 -117 -27 -180q0 -70 43.5 -108.5t118.5 -38.5q137 0 230.5 134.5t93.5 350.5q0 294 -174 464.5t-459 170.5q-89 0 -180.5 -25t-178 -72t-162.5 -118.5t-132.5 -159t-89.5 -200.5 t-33 -236q0 -161 53 -292t142 -213.5t202 -126.5t238 -44q164 0 289.5 38.5t271.5 139.5l24 -39q-162 -109 -290 -145.5t-295 -36.5q-103 0 -201 27.5t-186 85.5t-154 140.5t-104.5 201t-38.5 258.5zM547 455q0 -137 56 -206t155 -69q102 0 186 94t131 297l19 82 q28 122 -20 207.5t-150 85.5q-98 0 -184.5 -65t-139.5 -179t-53 -247z" />
<glyph unicode="A" horiz-adv-x="1269" d="M-23 0l797 1413h68l297 -1413h-49l-115 551h-633l-309 -551h-56zM367 594h600l-162 780z" />
<glyph unicode="B" horiz-adv-x="1167" d="M57 0l250 1413h385q107 0 158 -4q139 -11 221 -92t82 -215q0 -57 -22 -116.5t-63.5 -115t-112.5 -96t-160 -53.5q90 -16 150 -63.5t85 -111t25 -143.5q0 -171 -115 -277.5t-307 -121.5q-53 -4 -141 -4h-435zM111 43h421q66 0 93 2q171 12 277 106.5t106 254.5 q0 59 -16 107.5t-51 89t-96 65t-145 28.5q-47 2 -106 2h-369zM233 741h349q65 0 112 2q192 10 302 112.5t110 244.5q0 125 -81.5 194t-207.5 74q-47 2 -133 2h-340z" />
<glyph unicode="C" horiz-adv-x="1357" d="M131 537q0 116 28 237.5t90.5 242t150.5 214.5t219 152.5t286 58.5q218 0 337 -113.5t130 -316.5h-45q-21 387 -430 387q-115 0 -218.5 -38t-180.5 -103t-139 -150.5t-101 -182t-59.5 -194.5t-20.5 -192q0 -248 132.5 -386.5t338.5 -138.5q373 0 555 348h45 q-191 -391 -610 -391q-230 0 -369 154t-139 412z" />
<glyph unicode="D" horiz-adv-x="1372" d="M57 0l250 1413h387q99 0 148 -4q77 -6 145.5 -30t129 -70t104 -111t69 -159t25.5 -208q0 -154 -52.5 -298.5t-145 -257t-227.5 -185t-292 -84.5q-74 -6 -182 -6h-359zM111 43h321q83 0 176 8q151 14 277.5 85t209 178.5t128 240t45.5 272.5q0 250 -118 385.5t-316 153.5 q-45 4 -148 4h-342z" />
<glyph unicode="E" horiz-adv-x="1099" d="M57 0l250 1413h858l-8 -41h-813l-113 -645h773l-9 -41h-772l-112 -645h833l-8 -41h-879z" />
<glyph unicode="F" horiz-adv-x="1046" d="M57 0l250 1413h858l-8 -41h-813l-113 -645h773l-9 -41h-772l-121 -686h-45z" />
<glyph unicode="G" horiz-adv-x="1425" d="M135 557q0 119 29 240.5t92.5 238t152.5 206.5t219.5 145t284.5 55q216 0 338.5 -117.5t128.5 -312.5h-45q-25 387 -436 387q-137 0 -256 -52t-202 -137.5t-142.5 -195.5t-88 -226t-28.5 -229q0 -132 37 -237t102 -171.5t150.5 -101.5t185.5 -35q68 0 138.5 17.5t146 60 t138.5 106t113.5 164.5t72.5 226h-478l7 41h522l-111 -629h-45l66 367l-58 -127q-216 -269 -522 -269q-227 0 -369.5 153.5t-142.5 432.5z" />
<glyph unicode="H" horiz-adv-x="1265" d="M57 0l250 1413h45l-123 -698h910l123 698h45l-250 -1413h-45l118 672h-909l-119 -672h-45z" />
<glyph unicode="I" horiz-adv-x="311" d="M57 0l250 1413h45l-250 -1413h-45z" />
<glyph unicode="J" horiz-adv-x="944" d="M45 397h45q4 -204 82.5 -293.5t218.5 -89.5q131 0 220.5 75t127.5 222q21 80 43 205l158 897h45l-156 -881q-20 -115 -49 -235q-40 -157 -142 -241.5t-259 -84.5q-155 0 -242.5 104.5t-91.5 321.5z" />
<glyph unicode="K" horiz-adv-x="1089" d="M57 0l250 1413h45l-135 -760l936 760h66l-867 -706l604 -707h-63l-580 682l-104 -84l-107 -598h-45z" />
<glyph unicode="L" horiz-adv-x="1060" d="M57 0l250 1413h45l-241 -1372h833l-8 -41h-879z" />
<glyph unicode="M" horiz-adv-x="1552" d="M57 0l250 1413h72l332 -1370l811 1370h71l-250 -1413h-45l248 1376l-815 -1376h-57l-332 1378l-240 -1378h-45z" />
<glyph unicode="N" horiz-adv-x="1228" d="M57 0l250 1413h68l606 -1372l244 1372h45l-250 -1413h-70l-606 1376l-242 -1376h-45z" />
<glyph unicode="O" horiz-adv-x="1521" d="M139 588q0 122 32 243.5t98 231.5t156 194.5t215.5 134.5t268.5 50q243 0 398 -168t155 -449q0 -122 -32 -243.5t-98 -231.5t-156 -194.5t-215.5 -134.5t-268.5 -50q-243 0 -398 168t-155 449zM186 588q0 -132 40 -241t109.5 -181.5t163 -112t199.5 -39.5q131 0 247 46.5 t200.5 126t146.5 183t92.5 220.5t30.5 235q0 132 -40 241t-109.5 181.5t-163 112t-199.5 39.5q-131 0 -247 -46.5t-200.5 -126t-146.5 -183t-92.5 -220.5t-30.5 -235z" />
<glyph unicode="P" horiz-adv-x="1026" d="M57 0l250 1413h314q121 0 200 -10q127 -16 204 -97t77 -219q0 -174 -105 -296.5t-311 -149.5q-83 -10 -205 -10h-268l-111 -631h-45zM221 674h268q112 0 197 10q97 11 170.5 50.5t115.5 96.5t62.5 121.5t20.5 134.5q0 119 -68.5 189t-181.5 84q-79 10 -193 10h-268z" />
<glyph unicode="Q" horiz-adv-x="1482" d="M137 567q0 122 31 245.5t95.5 236.5t153 201t213 140t267.5 52q241 0 392 -164t151 -432q0 -157 -50 -310.5t-153.5 -286.5t-243.5 -204q93 -3 154 -30t121 -87l-31 -34q-62 64 -122.5 88t-145.5 24q-48 0 -146 -20q-77 -15 -143 -15q-241 0 -392 164t-151 432zM184 567 q0 -250 142.5 -401.5t359.5 -151.5q131 0 246 48.5t198 131t143.5 189.5t90 225.5t29.5 237.5q0 250 -142.5 401.5t-359.5 151.5q-131 0 -246 -48.5t-198 -131t-143.5 -189.5t-90 -225.5t-29.5 -237.5z" />
<glyph unicode="R" horiz-adv-x="1146" d="M57 0l250 1413h355q83 0 167 -8q154 -15 231 -103t77 -229q0 -148 -94.5 -257t-264.5 -136q61 -21 95.5 -85.5t39.5 -156.5q17 -282 64 -438h-49q-40 156 -60 428q-8 109 -48.5 168.5t-127.5 65.5q-45 2 -129 2h-344l-117 -664h-45zM227 707h344q88 0 154 4 q164 10 264.5 112t100.5 250q0 131 -69 204t-194 85q-84 8 -184 8h-299z" />
<glyph unicode="S" horiz-adv-x="1114" d="M47 369h45q15 -172 123 -263.5t291 -91.5q205 0 323.5 94.5t118.5 260.5q0 114 -85.5 186t-264.5 125q-89 26 -150 53.5t-115 69t-81 102t-27 139.5q0 171 133.5 284.5t350.5 113.5q186 0 289 -109.5t118 -279.5h-45q-13 173 -114 259.5t-257 86.5q-187 0 -307.5 -101 t-120.5 -249q0 -57 17.5 -103.5t46.5 -79.5t76 -61t96 -47.5t117 -40.5q89 -28 150.5 -56t114.5 -68t79 -95t26 -127q0 -186 -132 -293t-365 -107q-116 0 -204 34t-138.5 92.5t-76.5 126t-32 145.5z" />
<glyph unicode="T" horiz-adv-x="1187" d="M211 1372l8 41h1127l-9 -41h-540l-242 -1372h-45l242 1372h-541z" />
<glyph unicode="U" horiz-adv-x="1228" d="M156 301q0 80 18 188l164 924h45l-164 -932q-18 -106 -18 -178q0 -126 88.5 -207.5t265.5 -81.5q193 0 306 95.5t153 255.5q11 47 26 127l162 921h45l-164 -924q-13 -70 -28 -137q-21 -84 -60.5 -151.5t-100 -120t-149 -81t-198.5 -28.5q-185 0 -288 91.5t-103 238.5z " />
<glyph unicode="V" horiz-adv-x="1198" d="M207 1413h47l287 -1374l772 1374h53l-797 -1413h-65z" />
<glyph unicode="W" horiz-adv-x="1685" d="M207 1413h45l98 -1356l637 1336h68l141 -1332l602 1352h47l-633 -1413h-53l-143 1348l-647 -1348h-56z" />
<glyph unicode="X" horiz-adv-x="1153" d="M-39 0l633 715l-348 698h49l334 -665l596 663h55l-631 -700l387 -711h-57l-363 680l-600 -680h-55z" />
<glyph unicode="Y" horiz-adv-x="1116" d="M201 1413h49l332 -809l612 809h59l-657 -860l-98 -553h-45l98 555z" />
<glyph unicode="Z" horiz-adv-x="1101" d="M-23 0l7 35l1138 1335h-846l9 43h905l-8 -41l-1133 -1329h912l-9 -43h-975z" />
<glyph unicode="[" horiz-adv-x="495" d="M23 -164l311 1761h313l-8 -43h-268l-295 -1675h268l-8 -43h-313z" />
<glyph unicode="\" horiz-adv-x="538" d="M154 1475h45l243 -1536h-45z" />
<glyph unicode="]" horiz-adv-x="499" d="M-88 -164l8 43h268l295 1675h-268l8 43h314l-312 -1761h-313z" />
<glyph unicode="^" d="M145 440l496 822h59l205 -822h-51l-188 779l-467 -779h-54z" />
<glyph unicode="_" horiz-adv-x="1024" d="M98 -164l8 43h820l-8 -43h-820z" />
<glyph unicode="`" horiz-adv-x="614" d="M172 1413h53l86 -225h-37z" />
<glyph unicode="a" horiz-adv-x="1013" d="M61 227q0 95 44 169t119.5 119t176.5 74t216 33q49 2 100 2q67 0 137 -3l10 63q19 108 19 147q0 112 -59.5 172t-192.5 60q-83 0 -157 -27.5t-137.5 -92.5t-92.5 -161h-45q35 139 155.5 231.5t284.5 92.5q143 0 217 -70.5t74 -189.5q0 -52 -19 -158l-61 -340 q-28 -173 -43 -348h-47l33 262l-64 -104q-74 -91 -173.5 -139t-209.5 -48q-124 0 -204.5 65.5t-80.5 190.5zM109 229q0 -103 67.5 -159t183.5 -56q112 0 212 59.5t164 153.5t83 201l27 150q-81 7 -153 7q-233 0 -385 -73q-199 -96 -199 -283z" />
<glyph unicode="b" horiz-adv-x="1122" d="M51 0l266 1505h45l-118 -671l78 120q88 86 167 119t199 33q177 0 279 -121t102 -315q0 -104 -24.5 -205t-74 -190t-118 -157t-163 -107.5t-202.5 -39.5q-119 0 -188.5 36t-122.5 122l-35 121l-45 -250h-45zM172 290q12 -83 46 -144.5t105 -96.5t171 -35q120 0 221.5 56 t167.5 149t102.5 209.5t36.5 239.5q0 176 -90.5 285.5t-253.5 109.5q-83 0 -156 -25t-138 -78.5t-112.5 -147.5t-70.5 -222l-21 -121q-13 -61 -13 -117q1 -32 5 -62z" />
<glyph unicode="c" horiz-adv-x="1058" d="M53 430q0 100 24.5 197t74.5 183.5t120 152.5t168 104.5t211 38.5q173 0 271 -100q93 -95 92 -247v-16h-45q0 150 -83.5 236t-244.5 86q-121 0 -225 -53.5t-172.5 -142.5t-107 -202.5t-38.5 -234.5q0 -207 98.5 -313.5t252.5 -106.5q147 0 264.5 81t183.5 229h45 q-68 -169 -201.5 -260t-302.5 -91q-174 0 -279.5 121.5t-105.5 337.5z" />
<glyph unicode="d" horiz-adv-x="1120" d="M51 408q0 131 39.5 254.5t111.5 223t184.5 160t246.5 60.5q119 0 188.5 -36t122.5 -122l35 -121l121 678h45l-266 -1505h-45l43 244l-78 -121q-88 -86 -167.5 -119t-199.5 -33q-177 0 -279 121.5t-102 315.5zM98 410q0 -176 90.5 -286t253.5 -110q66 0 125.5 15 t116.5 50.5t102 89t80.5 134.5t53.5 184l20 121q11 71 11 135v11q-1 68 -23 125t-59.5 98t-99.5 63.5t-142 22.5q-97 0 -182 -36.5t-148 -99.5t-108 -146t-68 -178t-23 -193z" />
<glyph unicode="e" horiz-adv-x="1071" d="M49 418q0 89 23.5 183.5t73 184.5t117.5 161.5t165.5 115t208.5 43.5q97 0 169 -32.5t113.5 -90t61.5 -129.5t20 -158q0 -94 -20 -168h-875q-10 -65 -10 -108q0 -107 28.5 -188t78 -127t108.5 -68.5t127 -22.5q135 0 255.5 79.5t193.5 236.5h45q-85 -184 -215 -271.5 t-291 -87.5q-168 0 -272.5 115t-104.5 332zM115 571h829q10 56 10 125q0 100 -25 173t-71 114.5t-102 60.5t-125 19q-86 0 -163 -29.5t-133.5 -78t-102 -113.5t-73.5 -132.5t-44 -138.5z" />
<glyph unicode="f" horiz-adv-x="456" d="M59 0l181 1034h-95l7 43h96l26 154q11 56 27 127q26 94 87.5 140t131.5 46q50 0 96 -10l-8 -43q-36 10 -80 10q-141 0 -182 -143q-4 -18 -22 -111l-31 -170h219l-6 -43h-219l-183 -1034h-45z" />
<glyph unicode="g" horiz-adv-x="1120" d="M-4 -117h45q29 -158 118 -224.5t236 -66.5q345 0 430 383q10 44 43 230l6 37l-75 -119q-86 -84 -170 -118t-197 -34q-177 0 -279 121.5t-102 315.5q0 102 22 200t70 189t117 159t170.5 109t222.5 41q104 0 171 -32.5t120 -106.5l35 -136l45 246h45l-141 -790 q-50 -272 -60 -324q-84 -414 -483 -414q-329 0 -389 334zM98 410q0 -176 90.5 -286t253.5 -110q66 0 125.5 15t116.5 50.5t102 89t80.5 134.5t53.5 184l20 121q11 71 11 135v11q-1 68 -21.5 125t-56.5 98t-93.5 63.5t-132.5 22.5q-109 0 -201 -38t-155.5 -102t-107.5 -149 t-64.5 -177t-20.5 -187z" />
<glyph unicode="h" horiz-adv-x="1087" d="M51 0l266 1516h45l-120 -685l65 115q142 160 365 160q152 0 232.5 -78t80.5 -217q0 -81 -22 -213l-107 -598h-45l102 580q25 141 25 225q0 119 -67.5 188.5t-206.5 69.5q-164 0 -292 -110.5t-165 -313.5l-111 -639h-45z" />
<glyph unicode="i" horiz-adv-x="335" d="M49 0l191 1077h45l-191 -1077h-45zM260 1290q0 21 14 34t33 13q15 0 25 -10t10 -24q0 -21 -14 -34.5t-33 -13.5q-15 0 -25 10.5t-10 24.5z" />
<glyph unicode="j" horiz-adv-x="309" d="M-203 -422l8 39q33 -7 61 -7q47 0 80 20q51 30 74 118q13 47 19 80l219 1249h45l-215 -1227q-9 -49 -25 -106q-45 -174 -194 -174q-36 0 -72 8zM270 1290q0 21 14 34t33 13q15 0 25 -10t10 -24q0 -21 -14 -34.5t-33 -13.5q-15 0 -25 10.5t-10 24.5z" />
<glyph unicode="k" horiz-adv-x="970" d="M51 0l266 1505h45l-176 -997l713 569h72l-647 -512l491 -565h-59l-469 539l-111 -88l-80 -451h-45z" />
<glyph unicode="l" horiz-adv-x="358" d="M61 70q0 27 27 176l221 1259h45l-221 -1259q-24 -128 -24 -164q1 -35 23 -46q13 -6 38 -6q18 0 43 3l-8 -39q-20 -4 -60 -4q-84 0 -84 80z" />
<glyph unicode="m" horiz-adv-x="1656" d="M51 0l189 1077h45l-41 -231l71 119q132 141 310 141q130 0 197 -73.5t69 -207.5l90 140q132 141 309 141q131 0 198.5 -75t67.5 -210q0 -19 -0.5 -34t-1.5 -31t-1.5 -25t-3.5 -27.5t-4.5 -27.5l-6 -36t-6.5 -42l-105 -598h-45l103 580q24 141 24 221q0 132 -55 198 t-174 66q-144 0 -258 -114t-152 -333l-108 -618h-45l102 580q25 151 25 221q0 135 -53.5 199.5t-176.5 64.5q-144 0 -257.5 -114t-151.5 -333l-109 -618h-45z" />
<glyph unicode="n" horiz-adv-x="1087" d="M51 0l189 1077h45l-43 -246l65 115q142 160 365 160q152 0 232.5 -78t80.5 -217q0 -81 -22 -213l-107 -598h-45l102 580q25 141 25 225q0 119 -67.5 188.5t-206.5 69.5q-164 0 -292 -110.5t-165 -313.5l-111 -639h-45z" />
<glyph unicode="o" horiz-adv-x="1128" d="M53 438q0 85 21 174.5t68.5 178.5t114.5 158.5t167 113t219 43.5q138 0 236.5 -62t146 -166t47.5 -239q0 -85 -21 -174.5t-68.5 -178.5t-114.5 -158.5t-167 -113t-219 -43.5q-138 0 -236.5 62t-146 166t-47.5 239zM100 438q0 -199 110 -311.5t282 -112.5 q103 0 192.5 39.5t151 104t105.5 146.5t64.5 167.5t20.5 167.5q0 199 -109.5 311.5t-281.5 112.5q-103 0 -192.5 -39.5t-151 -104t-105.5 -146.5t-65 -167.5t-21 -167.5z" />
<glyph unicode="p" horiz-adv-x="1122" d="M-20 -401l264 1478h45l-43 -241l76 118q88 86 167 119t199 33q177 0 279 -121t102 -315q0 -104 -24.5 -205t-74 -190t-118 -157t-163 -107.5t-202.5 -39.5q-119 0 -188.5 36t-122.5 122l-35 121l-116 -651h-45zM172 290q11 -83 45.5 -144.5t105.5 -96.5t171 -35 q120 0 221.5 56t167.5 149t102.5 209.5t36.5 239.5q0 176 -90.5 285.5t-253.5 109.5q-83 0 -156 -25t-138 -78.5t-112.5 -147.5t-70.5 -222l-21 -121q-13 -61 -13 -117q0 -32 5 -62z" />
<glyph unicode="q" horiz-adv-x="1120" d="M51 408q0 131 39.5 254.5t111.5 223t184.5 160t246.5 60.5q119 0 188.5 -36t122.5 -122l35 -121l45 250h45l-264 -1478h-45l114 643l-75 -119q-88 -86 -167.5 -119t-199.5 -33q-177 0 -279 121.5t-102 315.5zM98 410q0 -176 90.5 -286t253.5 -110q66 0 125.5 15 t116.5 50.5t102 89t80.5 134.5t53.5 184l20 121q11 71 11 135v11q-1 68 -23 125t-59.5 98t-99.5 63.5t-142 22.5q-97 0 -182 -36.5t-148 -99.5t-108 -146t-68 -178t-23 -193z" />
<glyph unicode="r" horiz-adv-x="542" d="M51 0l191 1085h45l-41 -233l61 117q118 137 268 137q34 0 48 -2l-9 -41q-15 1 -29 1q-31 0 -59 -4q-42 -6 -93.5 -34.5t-93 -77t-79 -137t-59.5 -207.5l-2 -14l-103 -590h-45z" />
<glyph unicode="s" horiz-adv-x="933" d="M33 307h45q6 -155 93.5 -224t252.5 -69q144 0 231.5 70.5t87.5 181.5q0 103 -69 159.5t-236 100.5q-270 71 -270 275q0 128 101 216.5t263 88.5q152 0 240.5 -83t97.5 -239h-45q-24 279 -303 279q-139 0 -223 -78.5t-84 -181.5q0 -94 64 -149.5t186 -88.5 q169 -45 247.5 -111t78.5 -182q0 -98 -53.5 -167.5t-137.5 -101.5t-188 -32q-82 0 -148.5 18.5t-119 57t-81.5 104.5t-30 156z" />
<glyph unicode="t" horiz-adv-x="497" d="M98 109q0 55 19 161l135 762h-131l6 37h131l39 221h45l-39 -221h211l-6 -37h-211l-135 -770q-19 -103 -19 -145q-1 -63 45 -83q26 -11 73 -11q33 0 75 6l-6 -37q-44 -6 -92 -6q-71 0 -105.5 29t-34.5 94z" />
<glyph unicode="u" horiz-adv-x="1081" d="M94 266q0 75 23 213l106 598h45l-102 -579q-25 -141 -25 -226q0 -118 68 -188t207 -70q164 0 291.5 110.5t164.5 313.5l111 639h45l-188 -1077h-45l43 246l-66 -115q-142 -160 -364 -160q-152 0 -233 78.5t-81 216.5z" />
<glyph unicode="v" horiz-adv-x="966" d="M115 1077h49l221 -1036l590 1036h53l-618 -1077h-62z" />
<glyph unicode="w" horiz-adv-x="1468" d="M115 1077h45l135 -1034l487 1030h66l129 -1024l502 1028h51l-533 -1077h-59l-127 1032l-489 -1032h-64z" />
<glyph unicode="x" horiz-adv-x="903" d="M-82 0l494 549l-269 528h50l251 -495l449 495h59l-489 -536l287 -541h-54l-264 508l-455 -508h-59z" />
<glyph unicode="y" horiz-adv-x="966" d="M-90 -422l6 39q27 -6 61 -6q80 0 156 70.5t186 257.5l31 51l-235 1087h49l221 -1036l590 1036h53l-618 -1077q-78 -138 -140 -225.5t-114 -131.5t-92.5 -58.5t-90.5 -14.5q-36 0 -63 8z" />
<glyph unicode="z" horiz-adv-x="950" d="M-51 0l6 37l938 989h-713l6 43h777l-7 -41l-940 -989h777l-7 -39h-837z" />
<glyph unicode="{" horiz-adv-x="587" d="M156 694l8 45q43 4 76.5 20t55.5 35.5t38 55t24.5 64t14 77.5t7 79.5t3.5 86.5q2 63 5.5 108.5t13 94.5t23.5 82.5t38 64.5t56.5 49.5t78.5 29.5t104 11h35l-8 -43h-37q-49 0 -87 -9.5t-64.5 -25t-46 -43t-31 -55.5t-18.5 -70.5t-10 -80t-5 -92.5q0 -4 -1 -11 q-8 -187 -29 -263q-40 -145 -163 -182l-18 -5q119 -32 119 -166q0 -49 -14 -110t-54 -177q-38 -108 -49.5 -155t-11.5 -93q0 -74 48.5 -105.5t139.5 -31.5h37l-8 -43h-35q-106 0 -167.5 45t-61.5 135q0 45 14.5 100t54.5 169q60 168 60 264q0 59 -32 98.5t-103 46.5z" />
<glyph unicode="|" horiz-adv-x="514" d="M68 -410l360 2048h45l-360 -2048h-45z" />
<glyph unicode="}" horiz-adv-x="587" d="M-88 -164l8 43h37q57 0 99 11.5t70 37t45.5 54.5t27.5 77t14 90.5t6 106.5q9 187 27 260q36 150 153 192q15 5 31 9q-119 32 -119 166q0 49 14 109.5t54 176.5q38 108 49.5 155t11.5 93q0 74 -48.5 105.5t-139.5 31.5h-37l8 43h35q106 0 167.5 -45t61.5 -135 q0 -45 -14.5 -99t-54.5 -169q-60 -168 -60 -264q0 -59 32.5 -99t103.5 -47l-9 -45q-43 -4 -76.5 -20t-55.5 -35.5t-38 -55t-24.5 -64t-14 -77.5t-7 -79.5t-3.5 -86.5q-2 -63 -5.5 -108.5t-13 -94.5t-23.5 -82.5t-38 -64.5t-56.5 -49.5t-78.5 -29.5t-104 -11h-35z" />
<glyph unicode="~" horiz-adv-x="1228" d="M172 469q44 240 219 240q58 0 104.5 -18t145.5 -79q90 -56 133.5 -74t89.5 -18q132 0 168 197h43q-44 -240 -221 -240q-58 0 -103.5 17.5t-144.5 78.5q-90 56 -134.5 74.5t-90.5 18.5q-130 0 -166 -197h-43z" />
<glyph unicode="&#xa1;" horiz-adv-x="319" d="M-23 -336l218 1188h38l-208 -1188h-48zM211 1057q0 20 15 34.5t34 14.5q15 0 24 -9.5t9 -23.5q0 -20 -15 -34.5t-34 -14.5q-15 0 -24 9.5t-9 23.5z" />
<glyph unicode="&#xa2;" d="M74 430q0 88 22.5 178.5t69.5 176.5t112 154t157 113t198 52l29 166h45l-29 -164q170 -1 265.5 -101t90.5 -262h-45q0 148 -81.5 233.5t-237.5 88.5l-187 -1053q143 5 257 85t178 225h45q-66 -165 -195 -255.5t-291 -95.5l-28 -155h-46l29 155q-163 11 -260.5 131.5 t-97.5 327.5zM119 432q0 -195 89 -301.5t230 -116.5l187 1049q-111 -8 -208 -67.5t-161 -148.5t-100.5 -197.5t-36.5 -217.5z" />
<glyph unicode="&#xa3;" horiz-adv-x="1087" d="M-8 0l6 39q196 79 294.5 189.5t98.5 260.5q0 103 -57 232h-197l8 43h168q-51 123 -51 266q0 55 16 111.5t50.5 110.5t82 96t116.5 68t149 26q79 0 140 -21.5t99.5 -57t64 -88.5t37 -109t15.5 -126h-45q-4 83 -21 145t-52.5 112t-97 76t-148.5 26q-83 0 -153 -34 t-114 -87.5t-68 -117.5t-24 -128q0 -137 56 -268h485l-8 -43h-459q55 -127 55 -229q0 -285 -338 -449h791l-8 -43h-891z" />
<glyph unicode="&#xa4;" d="M115 262l139 119q-57 88 -57 207q0 72 33 149.5t94 136.5l-93 111l39 33l92 -111q105 78 244 78q140 0 223 -96l144 121l26 -33l-143 -123q57 -85 57 -209q0 -79 -32 -156t-93 -135l86 -102l-38 -33l-86 105q-102 -76 -246 -76q-138 0 -223 98l-140 -117zM244 592 q0 -131 73.5 -216t194.5 -85q86 0 156 34t111.5 87t64 112.5t22.5 116.5q0 138 -72.5 219.5t-195.5 81.5q-86 0 -156 -34t-111.5 -87t-64 -112.5t-22.5 -116.5z" />
<glyph unicode="&#xa5;" d="M127 453l8 43h377l29 161h-377l6 43h356l-327 713h47l323 -708l568 708h57l-576 -713h351l-6 -43h-377l-29 -161h377l-8 -43h-377l-80 -453h-45l80 453h-377z" />
<glyph unicode="&#xa6;" horiz-adv-x="514" d="M82 -328l123 697h45l-123 -697h-45zM266 717l123 696h45l-123 -696h-45z" />
<glyph unicode="&#xa7;" d="M53 -18h45q51 -295 346 -295q140 0 232 69.5t92 184.5q0 111 -77.5 180t-268.5 110q-61 14 -114.5 38.5t-102 63t-77 96.5t-28.5 128q0 132 102 221.5t273 106.5q-85 40 -127.5 100t-42.5 154q0 58 23 111.5t65.5 96.5t109 69t146.5 26q309 0 359 -318h-45 q-27 141 -105 208t-209 67q-144 0 -220.5 -77t-76.5 -185q0 -60 24.5 -106.5t70.5 -77t94 -49.5t114 -36q178 -44 272.5 -125.5t94.5 -218.5q0 -127 -103 -211.5t-288 -101.5q184 -90 184 -270q0 -128 -106.5 -212.5t-264.5 -84.5q-163 0 -266 83.5t-125 254.5zM147 563 q0 -66 24.5 -117.5t69 -84.5t93.5 -54t112 -35q68 -17 113 -32q186 8 301 80.5t115 203.5q0 117 -82 185.5t-268 121.5q-28 8 -76 25q-175 -8 -288.5 -84t-113.5 -209z" />
<glyph unicode="&#xa8;" horiz-adv-x="614" d="M184 1288q0 20 15 34.5t34 14.5q15 0 24 -9t9 -23q0 -20 -15 -35t-34 -15q-15 0 -24 9.5t-9 23.5zM348 1288q0 20 15 34.5t34 14.5q15 0 24 -9t9 -23q0 -20 -15 -35t-34 -15q-15 0 -24 9.5t-9 23.5z" />
<glyph unicode="&#xa9;" horiz-adv-x="1716" d="M115 727q0 209 98.5 383.5t269 275.5t375.5 101q153 0 291 -59.5t237.5 -161t157.5 -242.5t58 -297t-58 -297t-157.5 -242.5t-237.5 -161t-291 -59.5q-205 0 -375.5 101t-269 275.5t-98.5 383.5zM160 727q0 -195 92.5 -359t253.5 -259t352 -95t352 95t253.5 259t92.5 359 t-92.5 359.5t-253.5 260t-352 95.5t-352 -95.5t-253.5 -260t-92.5 -359.5zM498 727q0 194 105 311t261 117q134 0 225 -73t109 -210h-45q-23 113 -95.5 176.5t-193.5 63.5q-145 0 -233 -112.5t-88 -270.5q0 -163 88 -272t225 -109q243 0 295 238h45q-27 -138 -117.5 -209.5 t-228.5 -71.5q-147 0 -249.5 116t-102.5 306z" />
<glyph unicode="&#xab;" horiz-adv-x="933" d="M199 508l340 340h63l-344 -344l217 -336h-55zM444 508l340 340h64l-344 -344l217 -336h-55z" />
<glyph unicode="&#xac;" d="M180 705l8 43h719l-57 -318h-45l49 275h-674z" />
<glyph unicode="&#xad;" horiz-adv-x="561" d="M61 555l9 43h430l-8 -43h-431z" />
<glyph unicode="&#xae;" horiz-adv-x="1069" d="M96 1079q0 66 19 133.5t60 131t98 113t139.5 79t177.5 29.5q177 0 280 -105.5t103 -269.5q0 -66 -19.5 -133.5t-60 -131t-97.5 -112.5t-139.5 -78.5t-177.5 -29.5q-177 0 -280 105t-103 269zM143 1079q0 -142 92.5 -236.5t251.5 -94.5q85 0 158 27t123.5 72t87 103 t53.5 119t17 121q0 142 -92.5 237t-251.5 95q-85 0 -158 -27.5t-123.5 -72.5t-87 -103t-53.5 -119t-17 -121zM381 934l74 418h94q29 0 47 -2q50 -6 78 -37.5t28 -75.5q0 -47 -30 -77t-78 -40q45 -17 45 -69q0 -64 18 -117h-47q-14 35 -14 86q0 47 -12 63.5t-49 16.5h-84 l-29 -166h-41zM457 1139h57q27 0 45 2q46 4 71 29t25 65q0 64 -69 76q-12 2 -45 2h-54z" />
<glyph unicode="&#xaf;" horiz-adv-x="614" d="M160 1270l8 43h287l-9 -43h-286z" />
<glyph unicode="&#xb0;" horiz-adv-x="567" d="M209 1292q0 107 73.5 174.5t176.5 67.5q79 0 127.5 -49t48.5 -123q0 -107 -73.5 -174.5t-176.5 -67.5q-79 0 -127.5 49t-48.5 123zM258 1292q0 -59 36 -94t99 -35q81 0 137 56.5t56 142.5q0 59 -36 94t-99 35q-81 0 -137 -56.5t-56 -142.5z" />
<glyph unicode="&#xb1;" d="M39 0l6 43h819l-6 -43h-819zM150 629l6 43h387l75 430h46l-76 -430h387l-6 -43h-387l-76 -430h-45l76 430h-387z" />
<glyph unicode="&#xb4;" horiz-adv-x="614" d="M262 1188l164 225h57l-182 -225h-39z" />
<glyph unicode="&#xb6;" horiz-adv-x="1062" d="M160 979q0 54 14 110t45 112.5t76 101t112.5 74t147.5 34.5q37 2 117 2h399l-291 -1638h-45l283 1595h-262l-283 -1595h-45l156 880h-47q-80 0 -115 2q-63 4 -114 32.5t-82.5 73.5t-48.5 100.5t-17 115.5z" />
<glyph unicode="&#xb7;" horiz-adv-x="278" d="M104 616q0 23 16 38.5t38 15.5q37 0 37 -37q0 -23 -16 -38t-38 -15q-37 0 -37 36z" />
<glyph unicode="&#xb8;" horiz-adv-x="614" d="M104 -416l9 43q43 -14 104 -14q86 0 134 37t48 100q0 118 -180 109l113 155l37 -12l-76 -106q71 -6 112 -43t41 -101q0 -89 -65.5 -135.5t-171.5 -46.5q-59 0 -105 14z" />
<glyph unicode="&#xbb;" horiz-adv-x="933" d="M74 168l344 344l-217 336h55l221 -340l-340 -340h-63zM319 168l345 344l-218 336h56l221 -340l-340 -340h-64z" />
<glyph unicode="&#xbf;" horiz-adv-x="960" d="M20 -78q0 113 58.5 209t206.5 242q65 64 102 103t71.5 83t52.5 84.5t32.5 90t25.5 116.5h41q-14 -107 -48 -185.5t-87 -145t-160 -173.5q-145 -145 -196 -233.5t-51 -190.5t79.5 -174t208.5 -72q177 0 291 103.5t158 283.5h45q-40 -195 -175 -312.5t-325 -117.5 q-80 0 -145 26t-104 68t-60 92.5t-21 102.5zM575 1055q0 20 15.5 34.5t34.5 14.5q15 0 23.5 -9.5t8.5 -23.5q0 -20 -15 -34.5t-34 -14.5q-15 0 -24 9.5t-9 23.5z" />
<glyph unicode="&#xc0;" horiz-adv-x="1269" d="M-23 0l797 1413h68l297 -1413h-49l-115 551h-633l-309 -551h-56zM367 594h600l-162 780zM713 1700h53l80 -193h-37z" />
<glyph unicode="&#xc1;" horiz-adv-x="1269" d="M-23 0l797 1413h68l297 -1413h-49l-115 551h-633l-309 -551h-56zM367 594h600l-162 780zM803 1507l141 193h57l-159 -193h-39z" />
<glyph unicode="&#xc2;" horiz-adv-x="1269" d="M-23 0l797 1413h68l297 -1413h-49l-115 551h-633l-309 -551h-56zM367 594h600l-162 780zM674 1507l166 193h51l100 -193h-49l-80 162l-135 -162h-53z" />
<glyph unicode="&#xc3;" horiz-adv-x="1269" d="M-23 0l797 1413h68l297 -1413h-49l-115 551h-633l-309 -551h-56zM367 594h600l-162 780zM657 1567q2 40 22.5 62t57.5 22q41 0 121 -27q62 -22 92 -22q34 0 39 40h41q-1 -40 -22 -61.5t-58 -21.5q-44 0 -121 26q-65 23 -92 23q-34 0 -39 -41h-41z" />
<glyph unicode="&#xc4;" horiz-adv-x="1269" d="M-23 0l797 1413h68l297 -1413h-49l-115 551h-633l-309 -551h-56zM367 594h600l-162 780zM731 1595q0 20 15 35t34 15q15 0 24 -9.5t9 -23.5q0 -20 -15 -34.5t-34 -14.5q-15 0 -24 9t-9 23zM874 1595q0 20 15.5 35t34.5 15q15 0 23.5 -9.5t8.5 -23.5q0 -20 -15 -34.5 t-34 -14.5q-15 0 -24 9t-9 23z" />
<glyph unicode="&#xc5;" horiz-adv-x="1269" d="M-23 0l797 1413h68l297 -1413h-49l-115 551h-633l-309 -551h-56zM367 594h600l-162 780zM713 1579q0 66 46.5 108t106.5 42q47 0 78 -27.5t31 -73.5q0 -66 -47 -107.5t-107 -41.5q-47 0 -77.5 27t-30.5 73zM762 1585q0 -28 17.5 -45.5t49.5 -17.5q42 0 69.5 29.5 t27.5 70.5q0 28 -18 46t-50 18q-42 0 -69 -30t-27 -71z" />
<glyph unicode="&#xc6;" horiz-adv-x="1918" d="M-61 0l1161 1413h885l-9 -41h-817l-86 -645h750l-8 -41h-746l-86 -645h780l-8 -41h-821l74 551h-562l-450 -551h-57zM481 594h533l102 778z" />
<glyph unicode="&#xc7;" horiz-adv-x="1357" d="M131 537q0 116 28 237.5t90.5 242t150.5 214.5t219 152.5t286 58.5q218 0 337 -113.5t130 -316.5h-45q-21 387 -430 387q-115 0 -218.5 -38t-180.5 -103t-139 -150.5t-101 -182t-59.5 -194.5t-20.5 -192q0 -248 132.5 -386.5t338.5 -138.5q373 0 555 348h45 q-188 -388 -602 -391l-53 -75q71 -6 112.5 -43t41.5 -101q0 -89 -66 -135.5t-172 -46.5q-58 0 -104 14l8 43q43 -14 104 -14q86 0 134 37t48 100q0 118 -180 109l82 114q-215 12 -343 164t-128 400z" />
<glyph unicode="&#xc8;" horiz-adv-x="1099" d="M57 0l250 1413h858l-8 -41h-813l-113 -645h773l-9 -41h-772l-112 -645h833l-8 -41h-879zM606 1700h53l80 -193h-37z" />
<glyph unicode="&#xc9;" horiz-adv-x="1099" d="M57 0l250 1413h858l-8 -41h-813l-113 -645h773l-9 -41h-772l-112 -645h833l-8 -41h-879zM696 1507l142 193h57l-160 -193h-39z" />
<glyph unicode="&#xca;" horiz-adv-x="1099" d="M57 0l250 1413h858l-8 -41h-813l-113 -645h773l-9 -41h-772l-112 -645h833l-8 -41h-879zM567 1507l166 193h51l101 -193h-49l-80 162l-135 -162h-54z" />
<glyph unicode="&#xcb;" horiz-adv-x="1099" d="M57 0l250 1413h858l-8 -41h-813l-113 -645h773l-9 -41h-772l-112 -645h833l-8 -41h-879zM625 1595q0 20 15 35t34 15q15 0 24 -9.5t9 -23.5q0 -20 -15.5 -34.5t-34.5 -14.5q-15 0 -23.5 9t-8.5 23zM768 1595q0 20 15 35t34 15q15 0 24 -9.5t9 -23.5q0 -20 -15 -34.5 t-34 -14.5q-15 0 -24 9t-9 23z" />
<glyph unicode="&#xcc;" horiz-adv-x="311" d="M57 0l250 1413h45l-250 -1413h-45zM231 1700h54l80 -193h-37z" />
<glyph unicode="&#xcd;" horiz-adv-x="311" d="M57 0l250 1413h45l-250 -1413h-45zM322 1507l141 193h57l-160 -193h-38z" />
<glyph unicode="&#xce;" horiz-adv-x="311" d="M57 0l250 1413h45l-250 -1413h-45zM193 1507l165 193h52l100 -193h-49l-80 162l-135 -162h-53z" />
<glyph unicode="&#xcf;" horiz-adv-x="311" d="M57 0l250 1413h45l-250 -1413h-45zM250 1595q0 20 15 35t34 15q15 0 24 -9.5t9 -23.5q0 -20 -15 -34.5t-34 -14.5q-15 0 -24 9t-9 23zM393 1595q0 20 15 35t34 15q15 0 24 -9.5t9 -23.5q0 -20 -15 -34.5t-34 -14.5q-15 0 -24 9t-9 23z" />
<glyph unicode="&#xd0;" horiz-adv-x="1372" d="M53 662l8 43h121l125 708h387q99 0 148 -4q77 -6 145.5 -30t129 -70t104 -111t69 -159t25.5 -208q0 -154 -52.5 -298.5t-145 -257t-227.5 -185t-292 -84.5q-74 -6 -182 -6h-359l117 662h-121zM111 43h321q83 0 176 8q151 14 277.5 85t209 178.5t128 240t45.5 272.5 q0 250 -118 385.5t-316 153.5q-45 4 -148 4h-342l-117 -665h391l-8 -43h-391z" />
<glyph unicode="&#xd1;" horiz-adv-x="1228" d="M57 0l250 1413h68l606 -1372l244 1372h45l-250 -1413h-70l-606 1376l-242 -1376h-45zM635 1567q2 40 22.5 62t57.5 22q41 0 121 -27q62 -22 92 -22q34 0 39 40h41q-1 -40 -22 -61.5t-58 -21.5q-44 0 -121 26q-65 23 -92 23q-34 0 -39 -41h-41z" />
<glyph unicode="&#xd2;" horiz-adv-x="1521" d="M139 588q0 122 32 243.5t98 231.5t156 194.5t215.5 134.5t268.5 50q243 0 398 -168t155 -449q0 -122 -32 -243.5t-98 -231.5t-156 -194.5t-215.5 -134.5t-268.5 -50q-243 0 -398 168t-155 449zM186 588q0 -132 40 -241t109.5 -181.5t163 -112t199.5 -39.5q131 0 247 46.5 t200.5 126t146.5 183t92.5 220.5t30.5 235q0 132 -40 241t-109.5 181.5t-163 112t-199.5 39.5q-131 0 -247 -46.5t-200.5 -126t-146.5 -183t-92.5 -220.5t-30.5 -235zM817 1700h53l80 -193h-37z" />
<glyph unicode="&#xd3;" horiz-adv-x="1521" d="M139 588q0 122 32 243.5t98 231.5t156 194.5t215.5 134.5t268.5 50q243 0 398 -168t155 -449q0 -122 -32 -243.5t-98 -231.5t-156 -194.5t-215.5 -134.5t-268.5 -50q-243 0 -398 168t-155 449zM186 588q0 -132 40 -241t109.5 -181.5t163 -112t199.5 -39.5q131 0 247 46.5 t200.5 126t146.5 183t92.5 220.5t30.5 235q0 132 -40 241t-109.5 181.5t-163 112t-199.5 39.5q-131 0 -247 -46.5t-200.5 -126t-146.5 -183t-92.5 -220.5t-30.5 -235zM907 1507l142 193h57l-160 -193h-39z" />
<glyph unicode="&#xd4;" horiz-adv-x="1521" d="M139 588q0 122 32 243.5t98 231.5t156 194.5t215.5 134.5t268.5 50q243 0 398 -168t155 -449q0 -122 -32 -243.5t-98 -231.5t-156 -194.5t-215.5 -134.5t-268.5 -50q-243 0 -398 168t-155 449zM186 588q0 -132 40 -241t109.5 -181.5t163 -112t199.5 -39.5q131 0 247 46.5 t200.5 126t146.5 183t92.5 220.5t30.5 235q0 132 -40 241t-109.5 181.5t-163 112t-199.5 39.5q-131 0 -247 -46.5t-200.5 -126t-146.5 -183t-92.5 -220.5t-30.5 -235zM778 1507l166 193h51l101 -193h-49l-80 162l-136 -162h-53z" />
<glyph unicode="&#xd5;" horiz-adv-x="1521" d="M139 588q0 122 32 243.5t98 231.5t156 194.5t215.5 134.5t268.5 50q243 0 398 -168t155 -449q0 -122 -32 -243.5t-98 -231.5t-156 -194.5t-215.5 -134.5t-268.5 -50q-243 0 -398 168t-155 449zM186 588q0 -132 40 -241t109.5 -181.5t163 -112t199.5 -39.5q131 0 247 46.5 t200.5 126t146.5 183t92.5 220.5t30.5 235q0 132 -40 241t-109.5 181.5t-163 112t-199.5 39.5q-131 0 -247 -46.5t-200.5 -126t-146.5 -183t-92.5 -220.5t-30.5 -235zM762 1567q2 40 22.5 62t57.5 22q41 0 121 -27q62 -22 92 -22q34 0 39 40h41q-1 -40 -22 -61.5t-58 -21.5 q-44 0 -121 26q-65 23 -92 23q-34 0 -39 -41h-41z" />
<glyph unicode="&#xd6;" horiz-adv-x="1521" d="M139 588q0 122 32 243.5t98 231.5t156 194.5t215.5 134.5t268.5 50q243 0 398 -168t155 -449q0 -122 -32 -243.5t-98 -231.5t-156 -194.5t-215.5 -134.5t-268.5 -50q-243 0 -398 168t-155 449zM186 588q0 -132 40 -241t109.5 -181.5t163 -112t199.5 -39.5q131 0 247 46.5 t200.5 126t146.5 183t92.5 220.5t30.5 235q0 132 -40 241t-109.5 181.5t-163 112t-199.5 39.5q-131 0 -247 -46.5t-200.5 -126t-146.5 -183t-92.5 -220.5t-30.5 -235zM836 1595q0 20 15 35t34 15q15 0 24 -9.5t9 -23.5q0 -20 -15.5 -34.5t-34.5 -14.5q-15 0 -23.5 9t-8.5 23 zM979 1595q0 20 15 35t34 15q15 0 24 -9.5t9 -23.5q0 -20 -15 -34.5t-34 -14.5q-15 0 -24 9t-9 23z" />
<glyph unicode="&#xd7;" d="M164 334l364 309l-252 307l35 31l252 -307l365 309l28 -33l-364 -309l254 -309l-35 -31l-254 309l-364 -309z" />
<glyph unicode="&#xd8;" horiz-adv-x="1505" d="M35 92l176 150q-80 151 -80 346q0 122 32 243.5t98 231.5t156 194.5t215.5 134.5t268.5 50q142 0 258.5 -60.5t190.5 -171.5l172 146l28 -35l-176 -150q80 -151 80 -346q0 -122 -32 -243.5t-98 -231.5t-156 -194.5t-215.5 -134.5t-268.5 -50q-142 0 -258 60.5t-190 171.5 l-173 -146zM178 588q0 -176 72 -314l1063 904q-70 107 -179 164t-239 57q-131 0 -247 -46.5t-200.5 -126t-146.5 -183t-92.5 -220.5t-30.5 -235zM272 236q70 -107 179 -164.5t239 -57.5q131 0 247 46.5t200.5 126t146.5 183t92.5 220.5t30.5 235q0 176 -72 314z" />
<glyph unicode="&#xd9;" horiz-adv-x="1228" d="M156 301q0 80 18 188l164 924h45l-164 -932q-18 -106 -18 -178q0 -126 88.5 -207.5t265.5 -81.5q193 0 306 95.5t153 255.5q11 47 26 127l162 921h45l-164 -924q-13 -70 -28 -137q-21 -84 -60.5 -151.5t-100 -120t-149 -81t-198.5 -28.5q-185 0 -288 91.5t-103 238.5z M694 1700h54l79 -193h-36z" />
<glyph unicode="&#xda;" horiz-adv-x="1228" d="M156 301q0 80 18 188l164 924h45l-164 -932q-18 -106 -18 -178q0 -126 88.5 -207.5t265.5 -81.5q193 0 306 95.5t153 255.5q11 47 26 127l162 921h45l-164 -924q-13 -70 -28 -137q-21 -84 -60.5 -151.5t-100 -120t-149 -81t-198.5 -28.5q-185 0 -288 91.5t-103 238.5z M784 1507l142 193h57l-160 -193h-39z" />
<glyph unicode="&#xdb;" horiz-adv-x="1228" d="M156 301q0 80 18 188l164 924h45l-164 -932q-18 -106 -18 -178q0 -126 88.5 -207.5t265.5 -81.5q193 0 306 95.5t153 255.5q11 47 26 127l162 921h45l-164 -924q-13 -70 -28 -137q-21 -84 -60.5 -151.5t-100 -120t-149 -81t-198.5 -28.5q-185 0 -288 91.5t-103 238.5z M655 1507l166 193h51l101 -193h-49l-80 162l-135 -162h-54z" />
<glyph unicode="&#xdc;" horiz-adv-x="1228" d="M156 301q0 80 18 188l164 924h45l-164 -932q-18 -106 -18 -178q0 -126 88.5 -207.5t265.5 -81.5q193 0 306 95.5t153 255.5q11 47 26 127l162 921h45l-164 -924q-13 -70 -28 -137q-21 -84 -60.5 -151.5t-100 -120t-149 -81t-198.5 -28.5q-185 0 -288 91.5t-103 238.5z M713 1595q0 20 15 35t34 15q15 0 24 -9.5t9 -23.5q0 -20 -15.5 -34.5t-34.5 -14.5q-15 0 -23.5 9t-8.5 23zM856 1595q0 20 15 35t34 15q15 0 24 -9.5t9 -23.5q0 -20 -15 -34.5t-34 -14.5q-15 0 -24 9t-9 23z" />
<glyph unicode="&#xdd;" horiz-adv-x="1116" d="M201 1413h49l332 -809l612 809h59l-657 -860l-98 -553h-45l98 555zM717 1507l141 193h57l-159 -193h-39z" />
<glyph unicode="&#xde;" horiz-adv-x="1099" d="M57 0l250 1413h45l-43 -242h269q121 0 200 -10q289 -41 289 -272q0 -20 -8 -78q-29 -167 -139.5 -259t-268.5 -112q-85 -10 -205 -10h-268l-76 -430h-45zM186 473h269q111 0 196 10q141 16 237 96t122 232q6 37 6 70q0 207 -254 237q-79 10 -193 10h-268z" />
<glyph unicode="&#xdf;" horiz-adv-x="1034" d="M51 0l176 1004q15 82 38 154t64 145t95 124.5t134.5 84t178.5 32.5q134 0 219.5 -75t85.5 -203q0 -152 -104 -271q-115 -50 -168 -102.5t-53 -130.5q0 -44 20 -81.5t70 -92.5q78 -84 113.5 -147.5t35.5 -129.5q0 -44 -14 -87.5t-46 -85.5t-78.5 -74.5t-117.5 -52 t-157 -19.5q-113 0 -217 24l8 43q104 -24 217 -24q89 0 160 25t112.5 66t63.5 87.5t22 93.5q0 54 -29 108.5t-102 135.5q-59 65 -83.5 112.5t-24.5 94.5q0 94 57.5 154t190.5 124q42 53 59.5 106t17.5 122q0 110 -71 173.5t-191 63.5q-89 0 -161.5 -29.5t-121 -76.5 t-85.5 -114t-57.5 -132.5t-33.5 -140.5l-178 -1008h-45z" />
<glyph unicode="&#xe0;" horiz-adv-x="1013" d="M61 227q0 95 44 169t119.5 119t176.5 74t216 33.5t237 -1.5l10 63q19 108 19 147q0 112 -59.5 172t-192.5 60q-83 0 -157 -27.5t-137.5 -92.5t-92.5 -161h-45q35 139 155.5 231.5t284.5 92.5q143 0 217 -70.5t74 -189.5q0 -52 -19 -158l-61 -340q-28 -173 -43 -348h-47 l33 262l-64 -104q-74 -91 -173.5 -139t-209.5 -48q-124 0 -204.5 65.5t-80.5 190.5zM109 229q0 -103 67.5 -159t183.5 -56q112 0 212 59.5t164 153.5t83 201l27 150q-339 30 -538 -66t-199 -283zM555 1413h53l86 -225h-37z" />
<glyph unicode="&#xe1;" horiz-adv-x="1013" d="M61 227q0 95 44 169t119.5 119t176.5 74t216 33.5t237 -1.5l10 63q19 108 19 147q0 112 -59.5 172t-192.5 60q-83 0 -157 -27.5t-137.5 -92.5t-92.5 -161h-45q35 139 155.5 231.5t284.5 92.5q143 0 217 -70.5t74 -189.5q0 -52 -19 -158l-61 -340q-28 -173 -43 -348h-47 l33 262l-64 -104q-74 -91 -173.5 -139t-209.5 -48q-124 0 -204.5 65.5t-80.5 190.5zM109 229q0 -103 67.5 -159t183.5 -56q112 0 212 59.5t164 153.5t83 201l27 150q-339 30 -538 -66t-199 -283zM645 1188l164 225h57l-182 -225h-39z" />
<glyph unicode="&#xe2;" horiz-adv-x="1013" d="M61 227q0 95 44 169t119.5 119t176.5 74t216 33.5t237 -1.5l10 63q19 108 19 147q0 112 -59.5 172t-192.5 60q-83 0 -157 -27.5t-137.5 -92.5t-92.5 -161h-45q35 139 155.5 231.5t284.5 92.5q143 0 217 -70.5t74 -189.5q0 -52 -19 -158l-61 -340q-28 -173 -43 -348h-47 l33 262l-64 -104q-74 -91 -173.5 -139t-209.5 -48q-124 0 -204.5 65.5t-80.5 190.5zM109 229q0 -103 67.5 -159t183.5 -56q112 0 212 59.5t164 153.5t83 201l27 150q-339 30 -538 -66t-199 -283zM514 1188l174 225h49l92 -225h-47l-73 192l-146 -192h-49z" />
<glyph unicode="&#xe3;" horiz-adv-x="1013" d="M61 227q0 95 44 169t119.5 119t176.5 74t216 33.5t237 -1.5l10 63q19 108 19 147q0 112 -59.5 172t-192.5 60q-83 0 -157 -27.5t-137.5 -92.5t-92.5 -161h-45q35 139 155.5 231.5t284.5 92.5q143 0 217 -70.5t74 -189.5q0 -52 -19 -158l-61 -340q-28 -173 -43 -348h-47 l33 262l-64 -104q-74 -91 -173.5 -139t-209.5 -48q-124 0 -204.5 65.5t-80.5 190.5zM109 229q0 -103 67.5 -159t183.5 -56q112 0 212 59.5t164 153.5t83 201l27 150q-339 30 -538 -66t-199 -283zM508 1290q2 40 22.5 62t57.5 22q44 0 121 -26q65 -23 92 -23q34 0 39 41h41 q-2 -40 -22.5 -62t-57.5 -22q-41 0 -121 27q-62 22 -92 22q-34 0 -39 -41h-41z" />
<glyph unicode="&#xe4;" horiz-adv-x="1013" d="M61 227q0 95 44 169t119.5 119t176.5 74t216 33.5t237 -1.5l10 63q19 108 19 147q0 112 -59.5 172t-192.5 60q-83 0 -157 -27.5t-137.5 -92.5t-92.5 -161h-45q35 139 155.5 231.5t284.5 92.5q143 0 217 -70.5t74 -189.5q0 -52 -19 -158l-61 -340q-28 -173 -43 -348h-47 l33 262l-64 -104q-74 -91 -173.5 -139t-209.5 -48q-124 0 -204.5 65.5t-80.5 190.5zM109 229q0 -103 67.5 -159t183.5 -56q112 0 212 59.5t164 153.5t83 201l27 150q-339 30 -538 -66t-199 -283zM565 1288q0 20 15 34.5t34 14.5q15 0 24 -9t9 -23q0 -20 -15 -35t-34 -15 q-15 0 -24 9.5t-9 23.5zM729 1288q0 20 15 34.5t34 14.5q15 0 24 -9t9 -23q0 -20 -15 -35t-34 -15q-15 0 -24 9.5t-9 23.5z" />
<glyph unicode="&#xe5;" horiz-adv-x="1013" d="M61 227q0 95 44 169t119.5 119t176.5 74t216 33.5t237 -1.5l10 63q19 108 19 147q0 112 -59.5 172t-192.5 60q-83 0 -157 -27.5t-137.5 -92.5t-92.5 -161h-45q35 139 155.5 231.5t284.5 92.5q143 0 217 -70.5t74 -189.5q0 -52 -19 -158l-61 -340q-28 -173 -43 -348h-47 l33 262l-64 -104q-74 -91 -173.5 -139t-209.5 -48q-124 0 -204.5 65.5t-80.5 190.5zM109 229q0 -103 67.5 -159t183.5 -56q112 0 212 59.5t164 153.5t83 201l27 150q-339 30 -538 -66t-199 -283zM559 1272q0 68 45.5 110.5t106.5 42.5q46 0 76 -27.5t30 -72.5 q0 -68 -45 -111t-106 -43q-46 0 -76.5 28t-30.5 73zM606 1280q0 -29 17.5 -47.5t50.5 -18.5q41 0 68.5 31t27.5 72q0 29 -17.5 47t-50.5 18q-42 0 -69 -30.5t-27 -71.5z" />
<glyph unicode="&#xe6;" horiz-adv-x="1914" d="M55 201q0 372 779 372h69q23 133 23 201q0 297 -289 297q-60 0 -119.5 -16t-116 -48t-101.5 -88t-67 -128h-45q34 136 165 229.5t292 93.5q81 0 143.5 -21t98.5 -53.5t57.5 -77.5t27.5 -88.5t3 -89.5q67 154 205.5 242t289.5 88q97 0 171 -33.5t117.5 -92t65 -131.5 t21.5 -159q0 -96 -20 -170h-883q-12 -74 -12 -137q0 -192 94.5 -284.5t247.5 -92.5q136 0 261 80t198 236h45q-79 -173 -218 -266t-298 -93q-96 0 -169.5 31.5t-115 85t-63 115t-23.5 131.5l-70 -137q-190 -226 -457 -226q-134 0 -220.5 57.5t-86.5 172.5zM106 217 q0 -93 73 -148t198 -55q187 0 329 126.5t179 328.5l10 59q-35 2 -104 2q-321 0 -503 -79.5t-182 -233.5zM948 571h836q11 78 11 150.5t-23 136t-61.5 111t-103.5 75t-149 27.5t-163.5 -31t-148 -91.5t-121 -157.5t-77.5 -220z" />
<glyph unicode="&#xe7;" horiz-adv-x="1058" d="M53 430q0 100 24.5 197t74.5 183.5t120 152.5t168 104.5t211 38.5q173 0 270.5 -100t92.5 -263h-45q0 150 -83.5 236t-244.5 86q-121 0 -225 -53.5t-172.5 -142.5t-107 -202.5t-38.5 -234.5q0 -206 98 -313t250 -107l3 2l6 -2q145 2 260.5 82.5t181.5 227.5h45 q-65 -163 -191 -253t-286 -98l-55 -75q71 -6 112 -43t41 -101q0 -89 -65.5 -135.5t-171.5 -46.5q-59 0 -105 14l8 43q43 -14 105 -14q86 0 134 37t48 100q0 118 -180 109l82 112q-166 8 -265.5 128.5t-99.5 330.5z" />
<glyph unicode="&#xe8;" horiz-adv-x="1071" d="M49 418q0 89 23.5 183.5t73 184.5t117.5 161.5t165.5 115t208.5 43.5q97 0 169 -32.5t113.5 -90t61.5 -129.5t20 -158q0 -94 -20 -168h-875q-10 -65 -10 -108q0 -107 28.5 -188t78 -127t108.5 -68.5t127 -22.5q135 0 255.5 79.5t193.5 236.5h45q-85 -184 -215 -271.5 t-291 -87.5q-168 0 -272.5 115t-104.5 332zM115 571h829q10 56 10 125q0 100 -25 173t-71 114.5t-102 60.5t-125 19q-86 0 -163 -29.5t-133.5 -78t-102 -113.5t-73.5 -132.5t-44 -138.5zM526 1413h54l86 -225h-37z" />
<glyph unicode="&#xe9;" horiz-adv-x="1071" d="M49 418q0 89 23.5 183.5t73 184.5t117.5 161.5t165.5 115t208.5 43.5q97 0 169 -32.5t113.5 -90t61.5 -129.5t20 -158q0 -94 -20 -168h-875q-10 -65 -10 -108q0 -107 28.5 -188t78 -127t108.5 -68.5t127 -22.5q135 0 255.5 79.5t193.5 236.5h45q-85 -184 -215 -271.5 t-291 -87.5q-168 0 -272.5 115t-104.5 332zM115 571h829q10 56 10 125q0 100 -25 173t-71 114.5t-102 60.5t-125 19q-86 0 -163 -29.5t-133.5 -78t-102 -113.5t-73.5 -132.5t-44 -138.5zM616 1188l164 225h58l-183 -225h-39z" />
<glyph unicode="&#xea;" horiz-adv-x="1071" d="M49 418q0 89 23.5 183.5t73 184.5t117.5 161.5t165.5 115t208.5 43.5q97 0 169 -32.5t113.5 -90t61.5 -129.5t20 -158q0 -94 -20 -168h-875q-10 -65 -10 -108q0 -107 28.5 -188t78 -127t108.5 -68.5t127 -22.5q135 0 255.5 79.5t193.5 236.5h45q-85 -184 -215 -271.5 t-291 -87.5q-168 0 -272.5 115t-104.5 332zM115 571h829q10 56 10 125q0 100 -25 173t-71 114.5t-102 60.5t-125 19q-86 0 -163 -29.5t-133.5 -78t-102 -113.5t-73.5 -132.5t-44 -138.5zM485 1188l174 225h50l92 -225h-47l-74 192l-145 -192h-50z" />
<glyph unicode="&#xeb;" horiz-adv-x="1071" d="M49 418q0 89 23.5 183.5t73 184.5t117.5 161.5t165.5 115t208.5 43.5q97 0 169 -32.5t113.5 -90t61.5 -129.5t20 -158q0 -94 -20 -168h-875q-10 -65 -10 -108q0 -107 28.5 -188t78 -127t108.5 -68.5t127 -22.5q135 0 255.5 79.5t193.5 236.5h45q-85 -184 -215 -271.5 t-291 -87.5q-168 0 -272.5 115t-104.5 332zM115 571h829q10 56 10 125q0 100 -25 173t-71 114.5t-102 60.5t-125 19q-86 0 -163 -29.5t-133.5 -78t-102 -113.5t-73.5 -132.5t-44 -138.5zM537 1288q0 20 15 34.5t34 14.5q15 0 23.5 -9t8.5 -23q0 -20 -15 -35t-34 -15 q-15 0 -23.5 9.5t-8.5 23.5zM700 1288q0 20 15.5 34.5t34.5 14.5q15 0 23.5 -9t8.5 -23q0 -20 -15 -35t-34 -15q-15 0 -24 9.5t-9 23.5z" />
<glyph unicode="&#xec;" horiz-adv-x="335" d="M49 0l191 1077h45l-191 -1077h-45zM168 1413h53l86 -225h-37z" />
<glyph unicode="&#xed;" horiz-adv-x="335" d="M49 0l191 1077h45l-191 -1077h-45zM258 1188l164 225h57l-182 -225h-39z" />
<glyph unicode="&#xee;" horiz-adv-x="335" d="M49 0l191 1077h45l-191 -1077h-45zM127 1188l174 225h49l92 -225h-47l-73 192l-146 -192h-49z" />
<glyph unicode="&#xef;" horiz-adv-x="335" d="M49 0l191 1077h45l-191 -1077h-45zM178 1288q0 20 15 34.5t34 14.5q15 0 24 -9t9 -23q0 -20 -15 -35t-34 -15q-15 0 -24 9.5t-9 23.5zM342 1288q0 20 15 34.5t34 14.5q15 0 24 -9t9 -23q0 -20 -15 -35t-34 -15q-15 0 -24 9.5t-9 23.5z" />
<glyph unicode="&#xf0;" horiz-adv-x="1107" d="M49 412q0 69 15 145t44 156t78.5 151t112.5 127.5t151.5 89.5t190.5 33q156 0 258 -92l66 -117q-15 306 -95 436l-350 -133l-14 39l340 131q-72 90 -199 119l37 29q137 -41 207 -131l174 67l16 -39l-168 -63q99 -159 99 -541q0 -141 -23.5 -267t-73 -232.5t-119.5 -184 t-168 -121t-214 -43.5q-163 0 -264 127.5t-101 313.5zM96 412q0 -182 92.5 -290t235.5 -108q112 0 205 48.5t152.5 124.5t100.5 173.5t58.5 191.5t17.5 183q0 153 -87 244.5t-236 91.5q-106 0 -197 -42t-152.5 -110.5t-105.5 -155.5t-64 -176.5t-20 -174.5z" />
<glyph unicode="&#xf1;" horiz-adv-x="1087" d="M51 0l189 1077h45l-43 -246l65 115q142 160 365 160q152 0 232.5 -78t80.5 -217q0 -81 -22 -213l-107 -598h-45l102 580q25 141 25 225q0 119 -67.5 188.5t-206.5 69.5q-164 0 -292 -110.5t-165 -313.5l-111 -639h-45zM489 1290q2 40 22.5 62t57.5 22q44 0 121 -26 q65 -23 92 -23q34 0 39 41h41q-2 -40 -22.5 -62t-57.5 -22q-40 0 -120 27q-62 22 -93 22q-34 0 -39 -41h-41z" />
<glyph unicode="&#xf2;" horiz-adv-x="1128" d="M53 438q0 85 21 174.5t68.5 178.5t114.5 158.5t167 113t219 43.5q138 0 236.5 -62t146 -166t47.5 -239q0 -85 -21 -174.5t-68.5 -178.5t-114.5 -158.5t-167 -113t-219 -43.5q-138 0 -236.5 62t-146 166t-47.5 239zM100 438q0 -199 110 -311.5t282 -112.5 q103 0 192.5 39.5t151 104t105.5 146.5t64.5 167.5t20.5 167.5q0 199 -109.5 311.5t-281.5 112.5q-103 0 -192.5 -39.5t-151 -104t-105.5 -146.5t-65 -167.5t-21 -167.5zM563 1413h53l86 -225h-36z" />
<glyph unicode="&#xf3;" horiz-adv-x="1128" d="M53 438q0 85 21 174.5t68.5 178.5t114.5 158.5t167 113t219 43.5q138 0 236.5 -62t146 -166t47.5 -239q0 -85 -21 -174.5t-68.5 -178.5t-114.5 -158.5t-167 -113t-219 -43.5q-138 0 -236.5 62t-146 166t-47.5 239zM100 438q0 -199 110 -311.5t282 -112.5 q103 0 192.5 39.5t151 104t105.5 146.5t64.5 167.5t20.5 167.5q0 199 -109.5 311.5t-281.5 112.5q-103 0 -192.5 -39.5t-151 -104t-105.5 -146.5t-65 -167.5t-21 -167.5zM653 1188l164 225h57l-182 -225h-39z" />
<glyph unicode="&#xf4;" horiz-adv-x="1128" d="M53 438q0 85 21 174.5t68.5 178.5t114.5 158.5t167 113t219 43.5q138 0 236.5 -62t146 -166t47.5 -239q0 -85 -21 -174.5t-68.5 -178.5t-114.5 -158.5t-167 -113t-219 -43.5q-138 0 -236.5 62t-146 166t-47.5 239zM100 438q0 -199 110 -311.5t282 -112.5 q103 0 192.5 39.5t151 104t105.5 146.5t64.5 167.5t20.5 167.5q0 199 -109.5 311.5t-281.5 112.5q-103 0 -192.5 -39.5t-151 -104t-105.5 -146.5t-65 -167.5t-21 -167.5zM522 1188l174 225h49l93 -225h-47l-74 192l-146 -192h-49z" />
<glyph unicode="&#xf5;" horiz-adv-x="1128" d="M53 438q0 85 21 174.5t68.5 178.5t114.5 158.5t167 113t219 43.5q138 0 236.5 -62t146 -166t47.5 -239q0 -85 -21 -174.5t-68.5 -178.5t-114.5 -158.5t-167 -113t-219 -43.5q-138 0 -236.5 62t-146 166t-47.5 239zM100 438q0 -199 110 -311.5t282 -112.5 q103 0 192.5 39.5t151 104t105.5 146.5t64.5 167.5t20.5 167.5q0 199 -109.5 311.5t-281.5 112.5q-103 0 -192.5 -39.5t-151 -104t-105.5 -146.5t-65 -167.5t-21 -167.5zM516 1290q2 40 22.5 62t57.5 22q44 0 121 -26q65 -23 92 -23q34 0 39 41h41q-2 -40 -22.5 -62 t-57.5 -22q-41 0 -121 27q-62 22 -92 22q-34 0 -39 -41h-41z" />
<glyph unicode="&#xf6;" horiz-adv-x="1128" d="M53 438q0 85 21 174.5t68.5 178.5t114.5 158.5t167 113t219 43.5q138 0 236.5 -62t146 -166t47.5 -239q0 -85 -21 -174.5t-68.5 -178.5t-114.5 -158.5t-167 -113t-219 -43.5q-138 0 -236.5 62t-146 166t-47.5 239zM100 438q0 -199 110 -311.5t282 -112.5 q103 0 192.5 39.5t151 104t105.5 146.5t64.5 167.5t20.5 167.5q0 199 -109.5 311.5t-281.5 112.5q-103 0 -192.5 -39.5t-151 -104t-105.5 -146.5t-65 -167.5t-21 -167.5zM573 1288q0 20 15.5 34.5t34.5 14.5q15 0 23.5 -9t8.5 -23q0 -20 -15 -35t-34 -15q-15 0 -24 9.5 t-9 23.5zM737 1288q0 20 15 34.5t34 14.5q15 0 24 -9t9 -23q0 -20 -15 -35t-34 -15q-15 0 -24 9.5t-9 23.5z" />
<glyph unicode="&#xf7;" d="M150 629l8 43h819l-8 -43h-819zM453 319q0 28 18.5 47t44.5 19q21 0 33 -12t12 -33q0 -26 -19 -43.5t-44 -17.5q-20 0 -32.5 10.5t-12.5 29.5zM565 958q0 26 19.5 44t44.5 18q20 0 32.5 -11t12.5 -30q0 -28 -19 -47t-45 -19q-21 0 -33 12t-12 33z" />
<glyph unicode="&#xf8;" horiz-adv-x="1249" d="M-39 18l184 158q-59 112 -59 262q0 85 21 174.5t68.5 178.5t114.5 158.5t167 113t219 43.5q242 0 354 -178l201 170l24 -31l-204 -174q55 -107 55 -254q0 -85 -21 -174.5t-68.5 -178.5t-114.5 -158.5t-167 -113t-219 -43.5q-234 0 -348 170l-182 -153zM133 438 q0 -135 51 -229l809 686q-52 81 -136 124.5t-189 43.5q-103 0 -192.5 -39.5t-151 -104t-105.5 -146.5t-65 -167.5t-21 -167.5zM205 174q52 -78 134.5 -119t184.5 -41q103 0 192.5 39.5t151 104t105.5 146.5t65 167.5t21 167.5q0 129 -47 221z" />
<glyph unicode="&#xf9;" horiz-adv-x="1081" d="M94 266q0 75 23 213l106 598h45l-102 -579q-25 -141 -25 -226q0 -118 68 -188t207 -70q164 0 291.5 110.5t164.5 313.5l111 639h45l-188 -1077h-45l43 246l-66 -115q-142 -160 -364 -160q-152 0 -233 78.5t-81 216.5zM510 1413h53l86 -225h-37z" />
<glyph unicode="&#xfa;" horiz-adv-x="1081" d="M94 266q0 75 23 213l106 598h45l-102 -579q-25 -141 -25 -226q0 -118 68 -188t207 -70q164 0 291.5 110.5t164.5 313.5l111 639h45l-188 -1077h-45l43 246l-66 -115q-142 -160 -364 -160q-152 0 -233 78.5t-81 216.5zM600 1188l164 225h57l-182 -225h-39z" />
<glyph unicode="&#xfb;" horiz-adv-x="1081" d="M94 266q0 75 23 213l106 598h45l-102 -579q-25 -141 -25 -226q0 -118 68 -188t207 -70q164 0 291.5 110.5t164.5 313.5l111 639h45l-188 -1077h-45l43 246l-66 -115q-142 -160 -364 -160q-152 0 -233 78.5t-81 216.5zM469 1188l174 225h49l92 -225h-47l-73 192l-146 -192 h-49z" />
<glyph unicode="&#xfc;" horiz-adv-x="1081" d="M94 266q0 75 23 213l106 598h45l-102 -579q-25 -141 -25 -226q0 -118 68 -188t207 -70q164 0 291.5 110.5t164.5 313.5l111 639h45l-188 -1077h-45l43 246l-66 -115q-142 -160 -364 -160q-152 0 -233 78.5t-81 216.5zM520 1288q0 20 15 34.5t34 14.5q15 0 24 -9t9 -23 q0 -20 -15 -35t-34 -15q-15 0 -24 9.5t-9 23.5zM684 1288q0 20 15 34.5t34 14.5q15 0 24 -9t9 -23q0 -20 -15 -35t-34 -15q-15 0 -24 9.5t-9 23.5z" />
<glyph unicode="&#xfd;" horiz-adv-x="966" d="M-90 -422l6 39q27 -6 61 -6q80 0 156 70.5t186 257.5l31 51l-235 1087h49l221 -1036l590 1036h53l-618 -1077q-78 -138 -140 -225.5t-114 -131.5t-92.5 -58.5t-90.5 -14.5q-36 0 -63 8zM551 1188l164 225h57l-182 -225h-39z" />
<glyph unicode="&#xfe;" horiz-adv-x="1122" d="M-20 -401l339 1906h46l-121 -669l78 118q86 84 169.5 118t196.5 34q177 0 279 -121t102 -315q0 -102 -22 -200.5t-70 -189t-117 -159t-170.5 -109.5t-222.5 -41q-103 0 -170.5 33t-120.5 107l-35 135l-116 -647h-45zM169 323.5q1 -68.5 21.5 -125.5t56.5 -98t93.5 -63.5 t132.5 -22.5q109 0 201 38t155.5 102.5t107.5 149t64.5 177t20.5 187.5q0 176 -90.5 285.5t-253.5 109.5q-83 0 -156 -25t-138 -78.5t-112.5 -147.5t-70.5 -222l-21 -121q-12 -77 -11 -145.5z" />
<glyph unicode="&#xff;" horiz-adv-x="966" d="M-90 -422l6 39q27 -6 61 -6q80 0 156 70.5t186 257.5l31 51l-235 1087h49l221 -1036l590 1036h53l-618 -1077q-78 -138 -140 -225.5t-114 -131.5t-92.5 -58.5t-90.5 -14.5q-36 0 -63 8zM471 1288q0 20 15 34.5t34 14.5q15 0 24 -9t9 -23q0 -20 -15 -35t-34 -15 q-15 0 -24 9.5t-9 23.5zM635 1288q0 20 15 34.5t34 14.5q15 0 24 -9t9 -23q0 -20 -15 -35t-34 -15q-15 0 -24 9.5t-9 23.5z" />
<glyph unicode="&#x152;" horiz-adv-x="2299" d="M139 580q0 117 28.5 235.5t91.5 231.5t152 200.5t221.5 141t289.5 53.5q180 0 291.5 -65t183.5 -218l35 -170l75 424h858l-8 -41h-813l-112 -645h772l-9 -41h-772l-112 -645h833l-8 -41h-879l72 406l-90 -158q-116 -147 -257 -212t-318 -65q-245 0 -385 166.5t-140 442.5 zM186 582q0 -267 135.5 -417.5t348.5 -150.5q128 0 241.5 42t208 125t163 217t99.5 309q15 87 15.5 168t-13.5 160t-49.5 144t-90 115t-138.5 77.5t-191 27.5q-142 0 -264 -50t-206 -132.5t-143.5 -189.5t-87.5 -220t-28 -225z" />
<glyph unicode="&#x153;" horiz-adv-x="2048" d="M55 449q0 86 22 175.5t71.5 178t119.5 157t175.5 111.5t230.5 43q180 0 293 -102.5t123 -282.5q73 181 213 283t307 102q94 0 166.5 -34t115.5 -92.5t64.5 -132.5t21.5 -159q0 -73 -20 -168h-881q-10 -59 -10 -129q0 -100 28 -176t76 -120.5t107 -66.5t127 -22 q136 0 261 80t198 236h45q-84 -183 -219 -271t-297 -88q-71 0 -135 24.5t-116 71t-85 121t-39 166.5q-75 -182 -217.5 -282.5t-327.5 -100.5q-194 0 -306 131t-112 347zM102 451q0 -102 30.5 -186t83 -138t120.5 -83.5t145 -29.5q93 0 180 32.5t162 95.5t129.5 165.5 t77.5 233.5q11 79 10 155t-27 144t-68 119.5t-114 81.5t-165 30q-111 0 -206 -38.5t-159.5 -102t-110.5 -145t-67 -166.5t-21 -168zM1085 571h834q12 68 12 123q0 101 -27.5 176.5t-76 118t-106 62.5t-124.5 20q-79 0 -158 -31.5t-149.5 -91t-125 -157.5t-79.5 -220z" />
<glyph unicode="&#x178;" horiz-adv-x="1116" d="M201 1413h49l332 -809l612 809h59l-657 -860l-98 -553h-45l98 555zM645 1595q0 20 15 35t34 15q15 0 24 -9.5t9 -23.5q0 -20 -15 -34.5t-34 -14.5q-15 0 -24 9t-9 23zM788 1595q0 20 15.5 35t34.5 15q15 0 23.5 -9.5t8.5 -23.5q0 -20 -15 -34.5t-34 -14.5q-15 0 -24 9 t-9 23z" />
<glyph unicode="&#x2c6;" horiz-adv-x="614" d="M131 1188l174 225h49l92 -225h-47l-73 192l-146 -192h-49z" />
<glyph unicode="&#x2dc;" horiz-adv-x="614" d="M121 1290q2 40 22.5 62t57.5 22q44 0 121 -26q65 -23 92 -23q34 0 39 41h41q-2 -40 -22.5 -62t-57.5 -22q-42 0 -121 27q-62 22 -92 22q-34 0 -39 -41h-41z" />
<glyph unicode="&#x2000;" horiz-adv-x="864" />
<glyph unicode="&#x2001;" horiz-adv-x="1729" />
<glyph unicode="&#x2002;" horiz-adv-x="864" />
<glyph unicode="&#x2003;" horiz-adv-x="1729" />
<glyph unicode="&#x2004;" horiz-adv-x="576" />
<glyph unicode="&#x2005;" horiz-adv-x="432" />
<glyph unicode="&#x2006;" horiz-adv-x="288" />
<glyph unicode="&#x2007;" horiz-adv-x="288" />
<glyph unicode="&#x2008;" horiz-adv-x="216" />
<glyph unicode="&#x2009;" horiz-adv-x="345" />
<glyph unicode="&#x200a;" horiz-adv-x="96" />
<glyph unicode="&#x2010;" horiz-adv-x="561" d="M61 555l9 43h430l-8 -43h-431z" />
<glyph unicode="&#x2011;" horiz-adv-x="561" d="M61 555l9 43h430l-8 -43h-431z" />
<glyph unicode="&#x2012;" horiz-adv-x="561" d="M61 555l9 43h430l-8 -43h-431z" />
<glyph unicode="&#x2013;" horiz-adv-x="1024" d="M139 573l8 43h738l-8 -43h-738z" />
<glyph unicode="&#x2014;" horiz-adv-x="2048" d="M139 573l8 43h1762l-8 -43h-1762z" />
<glyph unicode="&#x2018;" horiz-adv-x="366" d="M211 1006v10l190 489h41l-184 -499h-47z" />
<glyph unicode="&#x2019;" horiz-adv-x="366" d="M135 1006l184 499h48v-10l-191 -489h-41z" />
<glyph unicode="&#x201a;" horiz-adv-x="260" d="M-195 -238l146 287h51v-10l-154 -277h-43z" />
<glyph unicode="&#x201c;" horiz-adv-x="550" d="M211 1006v10l190 489h41l-184 -499h-47zM395 1006v10l191 489h41l-185 -499h-47z" />
<glyph unicode="&#x201d;" horiz-adv-x="550" d="M135 1006l184 499h48v-10l-191 -489h-41zM319 1006l185 499h47v-10l-191 -489h-41z" />
<glyph unicode="&#x201e;" horiz-adv-x="444" d="M-195 -238l146 287h51v-10l-154 -277h-43zM-10 -238l145 287h51v-10l-153 -277h-43z" />
<glyph unicode="&#x2022;" horiz-adv-x="356" d="M84 606q0 45 33 78t78 33q35 0 56 -20.5t21 -53.5q0 -45 -33 -78t-77 -33q-35 0 -56.5 20.5t-21.5 53.5z" />
<glyph unicode="&#x2026;" horiz-adv-x="669" d="M-47 6q0 21 13.5 34t31.5 13q17 0 27 -10.5t10 -24.5q0 -21 -13.5 -34t-31.5 -13q-17 0 -27 10.5t-10 24.5zM158 6q0 21 13.5 34t31.5 13q17 0 27 -10.5t10 -24.5q0 -21 -13.5 -34t-31.5 -13q-17 0 -27 10.5t-10 24.5zM362 6q0 21 14 34t32 13q16 0 26 -10.5t10 -24.5 q0 -21 -13.5 -34t-31.5 -13q-17 0 -27 10.5t-10 24.5z" />
<glyph unicode="&#x202f;" horiz-adv-x="345" />
<glyph unicode="&#x2039;" horiz-adv-x="688" d="M199 508l340 340h63l-344 -344l217 -336h-55z" />
<glyph unicode="&#x203a;" horiz-adv-x="688" d="M74 168l344 344l-217 336h55l221 -340l-340 -340h-63z" />
<glyph unicode="&#x205f;" horiz-adv-x="432" />
<glyph unicode="&#x20ac;" d="M25 573l26 43h158q6 93 24 183h-118l28 43h101q23 98 55.5 183t81.5 163t110 133.5t143 88t177 32.5q113 0 184.5 -28.5t128.5 -94.5l-34 -31q-55 61 -121 86t-168 25t-188 -44.5t-147.5 -124t-104 -176t-70.5 -212.5h686l-31 -43h-663q-23 -114 -27 -183h629l-25 -43 h-608q-4 -78 -4 -114q0 -445 403 -445q145 0 301 86l-8 -53q-148 -76 -309 -76q-208 0 -321 120.5t-113 365.5q0 34 4 116h-180z" />
<glyph unicode="&#x2122;" horiz-adv-x="1058" d="M80 1313l6 39h389l-6 -39h-172l-68 -379h-45l68 379h-172zM457 934l73 416h64l78 -375l211 375h61l-74 -416h-41l72 379l-213 -375h-49l-78 373l-63 -377h-41z" />
<glyph unicode="&#x25fc;" horiz-adv-x="1075" d="M0 0v1075h1075v-1075h-1075z" />
</font>
</defs>
</svg>
