<?xml version="1.0" standalone="no"?>
<!DOCTYPE svg PUBLIC "-//W3C//DTD SVG 1.1//EN" "http://www.w3.org/Graphics/SVG/1.1/DTD/svg11.dtd" >
<svg xmlns="http://www.w3.org/2000/svg">
<metadata></metadata>
<defs>
<font id="aileronlight" horiz-adv-x="1148" >
<font-face units-per-em="2048" ascent="1577" descent="-471" />
<missing-glyph horiz-adv-x="417" />
<glyph unicode="&#xfb01;" horiz-adv-x="972" d="M47 973v102h117v51q0 84 4 123q15 140 118.5 217.5t291.5 77.5q50 0 112 -10v-107q-368 37 -395 -184q-4 -35 -4 -106v-62h526v-1075h-127v973h-399v-973h-127v973h-117z" />
<glyph unicode="&#xfb02;" horiz-adv-x="942" d="M47 973v102h96v51q0 84 4 123q15 140 107 217.5t254 77.5q159 0 254 -39v-1218q0 -84 2 -117q3 -52 30 -69t95 -9v-94q-31 -6 -101 -6t-109 31.5t-42 113.5q-2 37 -2 146v1144q-63 17 -131 17q-107 0 -163.5 -56t-66.5 -145q-4 -35 -4 -106v-62h222v-102h-222v-973h-127 v973h-96z" />
<glyph horiz-adv-x="2048" />
<glyph horiz-adv-x="2048" />
<glyph unicode="&#xd;" horiz-adv-x="2048" />
<glyph unicode=" "  horiz-adv-x="417" />
<glyph unicode="&#x09;" horiz-adv-x="417" />
<glyph unicode="&#xa0;" horiz-adv-x="417" />
<glyph unicode="!" horiz-adv-x="464" d="M135 70q0 41 27.5 68.5t70.5 27.5q41 0 69 -27.5t28 -68.5q0 -43 -28 -71t-69 -28q-43 0 -70.5 28t-27.5 71zM156 1413h153l-18 -1098h-117z" />
<glyph unicode="&#x22;" horiz-adv-x="548" d="M127 1505h131l-14 -508h-103zM360 1505h134l-17 -508h-100z" />
<glyph unicode="#" d="M131 469v88h221l64 299h-223v88h241l101 469h90l-101 -469h203l98 469h93l-101 -469h201v-88h-219l-66 -299h223v-88h-241l-99 -469h-92l101 469h-201l-100 -469h-91l99 469h-201zM442 557h201l66 299h-203z" />
<glyph unicode="$" d="M109 377h133q17 -131 95.5 -209t207.5 -90v577q-88 24 -153.5 56t-119 79t-81 114t-27.5 153q0 164 106 266t275 117v157h90v-157q119 -7 206 -62.5t132.5 -139.5t58.5 -191h-135q-14 127 -80 202.5t-182 87.5v-557q212 -66 308.5 -168.5t96.5 -261.5q0 -157 -112 -260 t-293 -117v-157h-90v157q-188 9 -306 115t-130 289zM299 1073q0 -115 60.5 -177.5t185.5 -102.5v542q-110 -13 -178 -80.5t-68 -181.5zM635 76q125 9 196.5 77t71.5 183q0 110 -64.5 184.5t-203.5 118.5v-563z" />
<glyph unicode="%" horiz-adv-x="1484" d="M106 1112q0 147 79 236.5t210 89.5t209 -89.5t78 -236.5q0 -146 -78 -236t-209 -90t-210 90t-79 236zM219 0l916 1413h133l-918 -1413h-131zM233 1112q0 -107 43.5 -170t118.5 -63t118.5 63t43.5 170q0 108 -43.5 169.5t-118.5 61.5t-118.5 -61.5t-43.5 -169.5zM801 297 q0 147 79 236.5t210 89.5t208.5 -89.5t77.5 -236.5q0 -146 -77.5 -236t-208.5 -90t-210 90t-79 236zM928 297q0 -108 43.5 -171t118.5 -63t118 63t43 171q0 109 -43 171t-118 62t-118.5 -62t-43.5 -171z" />
<glyph unicode="&#x26;" horiz-adv-x="1337" d="M135 356q0 128 100.5 221.5t262.5 118.5q-131 32 -218 130.5t-87 230.5q0 169 134.5 277t364.5 108q129 0 246 -21v-104q-115 22 -252 22q-161 0 -256.5 -76t-95.5 -198q0 -80 28.5 -142t76.5 -98t103 -55t115 -22q56 -3 125 -3h162v273h127v-273h207v-106h-207v-637 q-181 -31 -377 -31q-130 0 -227.5 18.5t-174.5 61.5t-117 119.5t-40 185.5zM276 360q0 -155 105 -220.5t317 -65.5q115 0 246 16v549h-162q-84 0 -125 -4q-181 -15 -281 -84.5t-100 -190.5z" />
<glyph unicode="'" horiz-adv-x="284" d="M72 1505h131l-15 -508h-102z" />
<glyph unicode="(" horiz-adv-x="628" d="M221 717q0 242 65.5 476t178.5 404h92q-114 -188 -176 -416t-62 -464t62 -464.5t176 -416.5h-92q-113 170 -178.5 404.5t-65.5 476.5z" />
<glyph unicode=")" horiz-adv-x="628" d="M66 -164q113 188 174 416.5t61 464.5t-61 464t-174 416h90q113 -169 178 -403.5t65 -476.5t-65 -477t-178 -404h-90z" />
<glyph unicode="*" horiz-adv-x="1124" d="M178 623l29 94l321 -123l-14 379h96l-14 -379l319 123l31 -94l-325 -93l231 -290l-80 -58l-211 314l-209 -314l-80 58l232 290z" />
<glyph unicode="+" d="M152 604v86h376v434h93v-434h376v-86h-376v-428h-93v428h-376z" />
<glyph unicode="," horiz-adv-x="409" d="M-41 -244l135 391h137v-18l-153 -373h-119z" />
<glyph unicode="-" horiz-adv-x="561" d="M66 535v88h430v-88h-430z" />
<glyph unicode="." horiz-adv-x="409" d="M78 70q0 41 27.5 68.5t70.5 27.5q41 0 68.5 -27.5t27.5 -68.5q0 -43 -27.5 -71t-68.5 -28q-43 0 -70.5 28t-27.5 71z" />
<glyph unicode="/" horiz-adv-x="589" d="M-10 -61l514 1536h96l-514 -1536h-96z" />
<glyph unicode="0" d="M80 707q0 735 495 735q108 0 192.5 -36.5t141 -101t93 -158.5t52 -202t15.5 -237t-15.5 -237t-52 -202t-93 -158.5t-141 -101.5t-192.5 -37q-109 0 -194 37t-141 101.5t-92.5 158.5t-52 201.5t-15.5 237.5zM221 707q0 -633 354 -633q353 0 353 633q0 632 -353 632 q-354 0 -354 -632z" />
<glyph unicode="1" d="M285 940v143l420 330h83v-1413h-126v1235z" />
<glyph unicode="2" d="M94 0v88l531 494q153 142 213.5 243t60.5 217q0 127 -77 212t-212 85q-140 0 -230.5 -86.5t-105.5 -242.5h-135q12 190 145 311t330 121q102 0 184 -31.5t134 -85t80 -124t28 -150.5q0 -103 -36 -189.5t-105 -168t-199 -201.5l-415 -386h745v-106h-936z" />
<glyph unicode="3" d="M102 397h134q26 -150 117.5 -236.5t228.5 -86.5q149 0 242.5 82.5t93.5 220.5t-91.5 215.5t-281.5 77.5h-35v104h35q145 0 248.5 79.5t103.5 217.5q0 126 -76 197t-205 71q-128 0 -215.5 -80.5t-105.5 -226.5h-135q17 191 144 300.5t319 109.5q191 0 303 -99t112 -258 q0 -124 -76.5 -215t-201.5 -122q141 -34 220 -129t79 -236q0 -187 -137 -299.5t-344 -112.5q-194 0 -323.5 111t-152.5 315z" />
<glyph unicode="4" d="M66 336v80l706 997h129v-973h189v-104h-189v-336h-127v336h-708zM217 440h557v803q-51 -87 -135 -209z" />
<glyph unicode="5" d="M102 362h134q22 -138 109 -213t228 -75t240.5 97.5t99.5 268.5q0 170 -89 270.5t-240 100.5q-227 0 -328 -215h-123l103 815h780v-106h-674l-76 -560l84 97q107 71 246 71q220 0 339.5 -129t119.5 -335q0 -92 -26.5 -170.5t-72 -134.5t-107 -95.5t-132 -58.5t-146.5 -19 q-195 0 -317 96t-152 295z" />
<glyph unicode="6" d="M88 637q0 203 39.5 359t110.5 252.5t165.5 145t208.5 48.5q176 0 286.5 -89.5t143.5 -271.5h-135q-56 258 -289 258q-374 0 -393 -639l66 117q114 131 307 131q107 0 195 -37.5t145.5 -102.5t89 -152t31.5 -187q0 -221 -135.5 -359.5t-348.5 -138.5q-487 0 -487 666z M238 475q0 -171 90 -286t247 -115q151 0 247 109t96 276q0 168 -89 277.5t-251 109.5q-145 0 -242.5 -100t-97.5 -271z" />
<glyph unicode="7" d="M94 1307v106h979v-86l-719 -1327h-139l711 1307h-832z" />
<glyph unicode="8" d="M94 369q0 130 76.5 227t202.5 133q-108 35 -171 120t-63 212q0 168 125 274.5t330 106.5t331 -107t126 -274q0 -126 -69 -212t-181 -120q125 -35 197.5 -131t72.5 -229q0 -104 -41 -183.5t-111.5 -125.5t-155 -68.5t-181.5 -22.5q-77 0 -146.5 13.5t-132.5 44.5 t-109 76.5t-73 113.5t-27 152zM236 365q0 -138 101 -215.5t249 -77.5q147 0 245.5 77t98.5 216q0 135 -87.5 220t-258.5 85t-259.5 -85t-88.5 -220zM281 1057q0 -136 87 -210.5t224 -74.5q138 0 227.5 74.5t89.5 210.5q0 121 -86 201.5t-229 80.5q-142 0 -227.5 -80.5 t-85.5 -201.5z" />
<glyph unicode="9" d="M82 944q0 221 135.5 359.5t349.5 138.5q488 0 488 -666q0 -203 -39.5 -359t-111.5 -252.5t-166.5 -145t-209.5 -48.5q-362 0 -428 361h133q29 -126 98.5 -192t192.5 -66q67 0 123 21t105 68.5t84 120.5t56.5 182t25.5 247l-68 -117q-114 -131 -305 -131 q-143 0 -249.5 64.5t-160 172.5t-53.5 242zM223 954q0 -109 37.5 -195t116 -139t188.5 -53q145 0 241.5 99.5t96.5 271.5q0 171 -90.5 286t-247.5 115q-151 0 -246.5 -109t-95.5 -276z" />
<glyph unicode=":" horiz-adv-x="409" d="M78 70q0 41 27.5 68.5t70.5 27.5q41 0 68.5 -27.5t27.5 -68.5q0 -43 -27.5 -71t-68.5 -28q-43 0 -70.5 28t-27.5 71zM78 1014q0 42 28 70t70 28q41 0 68.5 -28.5t27.5 -69.5t-27.5 -68.5t-68.5 -27.5q-43 0 -70.5 27.5t-27.5 68.5z" />
<glyph unicode=";" horiz-adv-x="409" d="M-41 -244l135 404h137l2 -21l-155 -383h-119zM78 1014q0 42 28 70t70 28q41 0 68.5 -28.5t27.5 -69.5t-27.5 -68.5t-68.5 -27.5q-43 0 -70.5 27.5t-27.5 68.5z" />
<glyph unicode="&#x3c;" d="M186 492v102l822 407v-106l-723 -350l723 -352v-109z" />
<glyph unicode="=" d="M145 406v88h861v-88h-861zM145 801v88h861v-88h-861z" />
<glyph unicode="&#x3e;" d="M131 84v106l723 351l-723 352v108l821 -407v-102z" />
<glyph unicode="?" horiz-adv-x="1040" d="M84 1012q6 194 129 312t319 118q193 0 302.5 -105t109.5 -266q0 -200 -205 -405q-108 -105 -143.5 -175t-38.5 -176h-127q8 122 44.5 199.5t143.5 192.5q103 112 144 191t41 173q0 123 -74.5 195.5t-200.5 72.5q-138 0 -220.5 -86t-92.5 -241h-131zM397 70q0 41 28 68.5 t69 27.5q43 0 70.5 -27.5t27.5 -68.5q0 -43 -27.5 -71t-70.5 -28q-41 0 -69 28t-28 71z" />
<glyph unicode="@" horiz-adv-x="1744" d="M117 498q0 157 48 296.5t130.5 241.5t190 176t229.5 111t246 37q194 0 345 -85t234.5 -239t83.5 -352q0 -132 -35 -236t-94 -166.5t-129.5 -95t-146.5 -32.5q-85 0 -141 39.5t-64 125.5l-41 -79q-97 -103 -221 -103q-39 0 -76 9.5t-74 33t-64 59t-44 92t-17 128.5 q0 138 56 259t158.5 196t226.5 75q114 0 169 -65l27 -105l35 133h123l-119 -497q-16 -73 -16 -109q0 -102 110 -102q114 0 196.5 116t82.5 318q0 186 -76.5 322t-205 203t-292.5 67q-105 0 -210.5 -32.5t-200.5 -98t-168 -156t-116.5 -215.5t-43.5 -266q0 -151 48.5 -271.5 t132 -197t191 -116.5t228.5 -40q297 0 533 170l40 -78q-272 -182 -575 -182q-108 0 -208.5 27.5t-189 85.5t-154.5 140.5t-104 200t-38 257.5zM616 471q0 -119 45 -176t121 -57q88 0 160.5 81t104.5 218l18 79q30 131 -12 202t-131 71q-86 0 -157 -59t-110 -154.5 t-39 -204.5z" />
<glyph unicode="A" horiz-adv-x="1290" d="M66 0l522 1413h170l510 -1413h-138l-184 518h-563l-182 -518h-135zM420 625h489l-239 686z" />
<glyph unicode="B" horiz-adv-x="1253" d="M203 0v1413h426q106 0 176 -6q166 -19 258 -107.5t92 -236.5q0 -128 -71 -212.5t-195 -119.5q285 -68 285 -358q0 -158 -102 -252.5t-259 -112.5q-61 -8 -164 -8h-446zM328 106h350q56 0 96 3q119 9 190.5 76.5t71.5 191.5q0 119 -70 196t-206 89q-71 6 -111 6h-321v-562 zM328 774h311q70 0 113 4q118 14 193 81.5t75 182.5q0 122 -73.5 187.5t-188.5 75.5q-41 2 -121 2h-309v-533z" />
<glyph unicode="C" horiz-adv-x="1382" d="M100 700q0 214 84 383.5t235 264t341 94.5q234 0 380 -120t183 -314h-133q-33 147 -143.5 239t-290.5 92q-222 0 -368 -174t-146 -458q0 -290 138.5 -461.5t358.5 -171.5q166 0 284 89t155 226h135q-48 -187 -204.5 -302.5t-377.5 -115.5q-191 0 -335 92.5t-220 257.5 t-76 379z" />
<glyph unicode="D" horiz-adv-x="1429" d="M203 0v1413h420q107 0 170 -6q112 -13 209 -59t177 -127t126.5 -210t46.5 -292q0 -161 -47.5 -293t-127 -217.5t-176.5 -136t-204 -64.5q-72 -8 -181 -8h-413zM330 106h280q112 0 174 9q89 13 165.5 58t135.5 119t93 183.5t34 243.5q0 132 -34.5 238.5t-94.5 176.5 t-136.5 111.5t-166.5 54.5q-52 7 -164 7h-286v-1201z" />
<glyph unicode="E" horiz-adv-x="1179" d="M203 0v1413h895v-104h-768v-549h714v-107h-714v-549h788v-104h-915z" />
<glyph unicode="F" horiz-adv-x="1134" d="M203 0v1413h895v-104h-768v-549h714v-107h-714v-653h-127z" />
<glyph unicode="G" horiz-adv-x="1441" d="M100 700q0 214 84 383.5t235 264t341 94.5q234 0 380 -120t183 -314h-133q-33 147 -143.5 239t-290.5 92q-222 0 -368 -174t-146 -458q0 -290 138.5 -461.5t358.5 -171.5q87 0 167.5 31.5t144.5 90t102.5 152t38.5 209.5h-389v105h516v-662h-115v289l-55 -131 q-66 -95 -175.5 -141t-242.5 -46q-191 0 -335 92.5t-220 257.5t-76 379z" />
<glyph unicode="H" horiz-adv-x="1437" d="M203 0v1413h127v-665h827v665h127v-1413h-127v639h-827v-639h-127z" />
<glyph unicode="I" horiz-adv-x="483" d="M203 0v1413h127v-1413h-127z" />
<glyph unicode="J" horiz-adv-x="1058" d="M88 397h135q17 -163 96.5 -243t208.5 -80q128 0 199 68.5t80 197.5q2 43 2 166v907h127v-909q0 -108 -4 -176q-8 -158 -113 -257.5t-299 -99.5q-382 0 -432 426z" />
<glyph unicode="K" horiz-adv-x="1204" d="M203 0v1413h127v-751l737 751h152l-674 -688l647 -725h-180l-563 641l-119 -125v-516h-127z" />
<glyph unicode="L" horiz-adv-x="1150" d="M203 0v1413h127v-1309h788v-104h-915z" />
<glyph unicode="M" horiz-adv-x="1718" d="M203 0v1413h215l469 -1300l473 1300h205v-1413h-127v762q0 374 4 538q-79 -235 -193 -536l-286 -764h-160l-289 766q-131 357 -188 532q4 -164 4 -536v-762h-127z" />
<glyph unicode="N" horiz-adv-x="1409" d="M203 0v1413h192l738 -1290q-7 308 -7 561v729h125v-1413h-192l-735 1290q6 -261 6 -561v-729h-127z" />
<glyph unicode="O" horiz-adv-x="1490" d="M100 707q0 215 77 380.5t227 260t352 94.5q203 0 353 -94.5t227 -259.5t77 -381q0 -214 -77 -379.5t-227 -261t-353 -95.5q-202 0 -352 95.5t-227 261t-77 379.5zM242 707q0 -292 142 -462.5t372 -170.5q232 0 374 170t142 463q0 294 -142 463t-374 169 q-231 0 -372.5 -169.5t-141.5 -462.5z" />
<glyph unicode="P" horiz-adv-x="1165" d="M203 0v1413h401q128 0 191 -8q157 -21 252.5 -121.5t95.5 -273.5q0 -175 -96 -279t-252 -125q-63 -8 -191 -8h-274v-598h-127zM330 707h274q111 0 170 10q104 16 168 88.5t64 204.5q0 128 -64 198t-168 86q-65 11 -170 11h-274v-598z" />
<glyph unicode="Q" horiz-adv-x="1486" d="M100 707q0 215 77 380.5t227 260t352 94.5q203 0 353 -94.5t227 -259.5t77 -381q0 -188 -70.5 -342.5t-216.5 -253.5q135 -11 275 -129l-74 -88q-91 64 -152 87t-128 23q-61 0 -146 -18q-67 -15 -145 -15q-202 0 -352 95.5t-227 261t-77 379.5zM242 707 q0 -292 142 -462.5t372 -170.5q232 0 374 170t142 463q0 294 -142 463t-374 169q-231 0 -372.5 -169.5t-141.5 -462.5z" />
<glyph unicode="R" horiz-adv-x="1247" d="M203 0v1413h424q126 0 192 -8q162 -21 256 -119t94 -262q0 -132 -77.5 -224t-196.5 -126q167 -60 190 -297q16 -152 33.5 -235.5t48.5 -141.5h-141q-37 115 -68 362q-13 117 -65 178.5t-164 67.5q-37 2 -111 2h-288v-610h-127zM328 717h293q94 0 143 4q119 9 194.5 88 t75.5 203q0 123 -64.5 195.5t-181.5 90.5q-74 9 -161 9h-299v-590z" />
<glyph unicode="S" horiz-adv-x="1179" d="M96 389h135q26 -150 132.5 -232.5t261.5 -82.5q145 0 240.5 69t95.5 189q0 125 -85 196t-286 121q-215 56 -321.5 147t-106.5 253q0 180 133 286.5t330 106.5q204 0 321.5 -113t138.5 -295h-135q-17 145 -105.5 225t-230.5 80q-132 0 -223.5 -69.5t-91.5 -192.5 q0 -126 77.5 -193t264.5 -114q233 -60 344 -160.5t111 -265.5q0 -173 -133.5 -273t-341.5 -100q-220 0 -361 109t-164 309z" />
<glyph unicode="T" horiz-adv-x="1228" d="M68 1309v104h1163v-104h-518v-1309h-127v1309h-518z" />
<glyph unicode="U" horiz-adv-x="1333" d="M190 506v907h127v-901q0 -76 5 -125q13 -141 106 -227t264 -86q170 0 263 86t106 227q6 59 6 125v901h127v-907q0 -58 -6 -131q-13 -181 -138.5 -292.5t-357.5 -111.5t-357.5 111t-139.5 293q-5 61 -5 131z" />
<glyph unicode="V" horiz-adv-x="1243" d="M61 1413h138l460 -1315l469 1315h138l-525 -1413h-170z" />
<glyph unicode="W" horiz-adv-x="1851" d="M53 1413h144l313 -1298l356 1278h170l342 -1278l332 1298h133l-387 -1413h-166l-342 1268l-360 -1268h-168z" />
<glyph unicode="X" horiz-adv-x="1239" d="M53 0l506 711l-469 702h143l406 -612l428 612h150l-506 -698l514 -715h-152l-438 627l-432 -627h-150z" />
<glyph unicode="Y" horiz-adv-x="1163" d="M43 1413h145l424 -725l414 725h145l-501 -848v-565h-127v565z" />
<glyph unicode="Z" horiz-adv-x="1169" d="M86 0v98l877 1209h-820v106h967v-104l-872 -1203h884v-106h-1036z" />
<glyph unicode="[" horiz-adv-x="632" d="M227 -164v1761h326v-88h-236v-1585h236v-88h-326z" />
<glyph unicode="\" horiz-adv-x="589" d="M-10 1475h96l514 -1536h-96z" />
<glyph unicode="]" horiz-adv-x="616" d="M63 -76h236v1585h-236v88h326v-1761h-326v88z" />
<glyph unicode="^" d="M166 440l356 822h109l356 -822h-106l-303 736l-304 -736h-108z" />
<glyph unicode="_" horiz-adv-x="1024" d="M102 -84h820v-88h-820v88z" />
<glyph unicode="`" horiz-adv-x="614" d="M109 1413h124l125 -225h-88z" />
<glyph unicode="a" horiz-adv-x="1058" d="M82 272q0 183 164 276t463 93h69v39q0 90 -4 133q-16 197 -242 197q-116 0 -188 -62.5t-84 -185.5h-133q10 159 121.5 254.5t283.5 95.5q343 0 369 -287q4 -47 4 -143v-379q0 -109 21 -303h-127l-17 197l-55 -115q-111 -111 -301 -111q-155 0 -249.5 78.5t-94.5 222.5z M221 283q0 -103 62.5 -157t181.5 -54q140 0 226.5 96.5t86.5 249.5v125q-56 4 -107 4q-93 0 -173 -14q-122 -22 -199.5 -85.5t-77.5 -164.5z" />
<glyph unicode="b" horiz-adv-x="1200" d="M150 0v1505h126v-622l72 118q114 111 307 111q223 0 353.5 -155.5t130.5 -401.5q0 -143 -42 -256.5t-114 -184t-163.5 -107t-196.5 -36.5q-81 0 -155 25t-124 72l-68 116v-184h-126zM276 485q0 -111 31 -194t83 -129t110.5 -68t122.5 -22q166 0 271 125.5t105 341.5 q0 133 -40 238t-123.5 169t-198.5 64q-76 0 -138.5 -24t-114 -74t-80 -138t-28.5 -207v-82z" />
<glyph unicode="c" horiz-adv-x="1075" d="M61 541q0 131 40.5 240t109.5 180.5t160.5 111t193.5 39.5q185 0 304.5 -104.5t144.5 -278.5h-133q-28 138 -109 210.5t-211 72.5q-70 0 -133.5 -28.5t-114.5 -83.5t-81.5 -145.5t-30.5 -203.5q0 -121 29 -215t78.5 -150.5t111 -85t131.5 -28.5q122 0 207 69t114 197h132 q-36 -177 -159.5 -272t-301.5 -95q-103 0 -189.5 36t-152.5 105t-103 179t-37 250z" />
<glyph unicode="d" horiz-adv-x="1204" d="M61 528q0 143 42 256.5t114 184t164 107t197 36.5q177 0 278 -98l68 -115v606h127v-1505h-127v201l-72 -119q-111 -111 -307 -111q-223 0 -353.5 155.5t-130.5 401.5zM201 545q0 -133 40 -238.5t123.5 -170t198.5 -64.5q76 0 138.5 24t114 74.5t80 138.5t28.5 207v82 q0 110 -31 193t-82.5 129t-110 68t-122.5 22q-167 0 -272 -125t-105 -340z" />
<glyph unicode="e" horiz-adv-x="1103" d="M61 541q0 170 66 301t180 200.5t256 69.5q147 0 253 -73.5t157 -194.5t51 -273q0 -34 -4 -67h-821q5 -115 35.5 -201t80 -135t108.5 -72.5t128 -23.5q118 0 208 70.5t118 199.5h133q-37 -181 -166 -276t-301 -95q-103 0 -189.5 36t-152.5 105.5t-103 179.5t-37 249z M199 604h696q-12 202 -102.5 304t-233.5 102t-245 -105.5t-115 -300.5z" />
<glyph unicode="f" horiz-adv-x="548" d="M47 973v102h117v121q0 82 4 121q12 110 79.5 168.5t170.5 58.5q52 0 114 -10v-107q-42 8 -78 8q-52 0 -88 -18q-62 -31 -71 -104q-4 -35 -4 -107v-131h221v-102h-221v-973h-127v973h-117z" />
<glyph unicode="g" horiz-adv-x="1204" d="M61 528q0 143 42 256.5t114 184t164 107t197 36.5q177 0 278 -98l68 -115v186h127v-811q0 -191 -2 -254q-8 -217 -132.5 -337.5t-343.5 -120.5q-191 0 -310 82t-163 268h131q41 -133 128.5 -191.5t222.5 -58.5q160 0 247 93.5t93 258.5q2 59 2 160v27l-72 -119 q-111 -111 -307 -111q-223 0 -353.5 155.5t-130.5 401.5zM201 545q0 -133 40 -238.5t123.5 -170t198.5 -64.5q76 0 138.5 24t114 74.5t80 138.5t28.5 207v82q0 110 -31 193t-82.5 129t-110 68t-122.5 22q-167 0 -272 -125t-105 -340z" />
<glyph unicode="h" horiz-adv-x="1165" d="M150 0v1516h126v-642l58 117q121 121 305 121q169 0 267.5 -86t113.5 -238q4 -55 4 -182v-606h-127v592q0 109 -4 164q-11 117 -80 185q-68 67 -195 67h-4q-70 -1 -129 -27.5t-107 -80.5t-75 -146t-27 -215v-539h-126z" />
<glyph unicode="i" horiz-adv-x="430" d="M127 1317q0 37 24.5 61.5t61.5 24.5q36 0 61 -25t25 -61q0 -35 -25.5 -60.5t-60.5 -25.5q-36 0 -61 25t-25 61zM150 0v1083h126v-1083h-126z" />
<glyph unicode="j" horiz-adv-x="417" d="M-41 -319q27 -3 50 -3q49 0 78 16q42 24 48 91q2 29 2 86v1212h127v-1198q0 -86 -4 -123q-18 -192 -221 -192q-53 0 -80 6v105zM115 1317q0 36 25 61t61 25q37 0 61.5 -24.5t24.5 -61.5q0 -36 -25 -61t-61 -25q-35 0 -60.5 25.5t-25.5 60.5z" />
<glyph unicode="k" horiz-adv-x="1019" d="M150 0v1505h126v-983l555 561h166l-530 -518l534 -565h-176l-450 485l-99 -104v-381h-126z" />
<glyph unicode="l" horiz-adv-x="448" d="M141 283v1222h127v-1218q0 -84 2 -117q2 -52 30 -69q19 -12 57 -12q18 0 40 3v-94q-33 -6 -100 -6q-70 0 -110 31.5t-44 113.5q-2 37 -2 146z" />
<glyph unicode="m" horiz-adv-x="1716" d="M150 0v1081h126v-184l62 121q88 92 250 92q125 0 205 -60.5t110 -168.5l84 137q85 92 250 92q142 0 225.5 -77.5t102.5 -211.5q10 -69 10 -182v-639h-127v582q0 125 -8 198q-14 109 -75 168.5t-167 59.5q-124 0 -198 -106t-74 -335v-567h-127v582q0 125 -8 198 q-14 109 -75 168.5t-167 59.5q-124 0 -198.5 -106t-74.5 -335v-567h-126z" />
<glyph unicode="n" horiz-adv-x="1165" d="M150 0v1083h126v-209l58 117q121 121 305 121q169 0 267.5 -86t113.5 -238q4 -55 4 -182v-606h-127v592q0 109 -4 164q-11 117 -79.5 184.5t-199.5 67.5q-147 0 -242.5 -115.5t-95.5 -353.5v-539h-126z" />
<glyph unicode="o" horiz-adv-x="1175" d="M61 541q0 162 59 289.5t180 204.5t288 77t288 -77t179.5 -204.5t58.5 -289.5q0 -120 -34.5 -223t-99 -180.5t-165.5 -122t-227 -44.5q-167 0 -288 77t-180 204.5t-59 288.5zM201 541q0 -217 107.5 -343t279.5 -126t279.5 126t107.5 343t-107.5 343t-279.5 126 t-279.5 -126t-107.5 -343z" />
<glyph unicode="p" horiz-adv-x="1200" d="M150 -401v1491h126v-207l72 118q114 111 307 111q223 0 353.5 -155.5t130.5 -401.5q0 -144 -42 -257.5t-114 -183.5t-163.5 -106.5t-196.5 -36.5q-81 0 -155 25t-124 72l-68 116v-585h-126zM276 485q0 -111 31 -194t83 -129t110.5 -68t122.5 -22q166 0 271 125.5 t105 341.5q0 133 -40 238t-123.5 169t-198.5 64q-76 0 -138.5 -24t-114 -74t-80 -138t-28.5 -207v-82z" />
<glyph unicode="q" horiz-adv-x="1206" d="M61 528q0 143 42 256.5t114 184t164 107t197 36.5q177 0 278 -98l68 -117v193h127v-1491h-127v604l-72 -121q-111 -111 -307 -111q-223 0 -353.5 155.5t-130.5 401.5zM201 545q0 -133 40 -238.5t123.5 -170t198.5 -64.5q76 0 138.5 24t114 74.5t80 138.5t28.5 207v-8v96 v-6q0 110 -31 193t-82.5 129t-110 68t-122.5 22q-167 0 -272 -125t-105 -340z" />
<glyph unicode="r" horiz-adv-x="620" d="M150 0v1083h126v-196l78 139q79 82 187 82q39 0 63 -8v-101q-15 1 -30 1q-128 0 -208 -87q-90 -97 -90 -305v-608h-126z" />
<glyph unicode="s" horiz-adv-x="921" d="M51 319h131q42 -247 293 -247q108 0 179 49t71 139t-65 142t-224 90q-77 20 -133 43.5t-105.5 59.5t-75.5 88.5t-26 119.5q0 139 100 224t261 85q170 0 268.5 -91t118.5 -241h-133q-48 230 -265 230q-99 0 -159 -52t-60 -141q0 -46 17.5 -80.5t54 -59t80 -41t106.5 -32.5 q193 -47 281 -124t88 -210q0 -141 -107.5 -220t-279.5 -79q-111 0 -197 35t-145 114.5t-74 198.5z" />
<glyph unicode="t" horiz-adv-x="581" d="M47 977v98h139v240h127v-240h207v-98h-207v-680q0 -67 2 -96q7 -78 49 -102q28 -16 82 -16q30 0 68 5v-94q-54 -10 -131 -10q-91 0 -139.5 41.5t-55.5 130.5q-2 37 -2 139v682h-139z" />
<glyph unicode="u" horiz-adv-x="1161" d="M133 451v632h127v-604q0 -89 8 -162q12 -111 84.5 -177t194.5 -66q70 0 128.5 26.5t105.5 81t73.5 147.5t26.5 216v538h127v-1083h-127v209l-60 -121q-120 -117 -303 -117q-161 0 -259.5 81.5t-117.5 215.5q-8 73 -8 183z" />
<glyph unicode="v" horiz-adv-x="1017" d="M12 1083h140l360 -989l356 989h136l-418 -1083h-158z" />
<glyph unicode="w" horiz-adv-x="1554" d="M12 1083h146l278 -964l264 962h162l266 -956l277 958h135l-342 -1083h-154l-266 956l-266 -956h-156z" />
<glyph unicode="x" horiz-adv-x="937" d="M-6 0l387 547l-371 536h150l299 -452l303 452h147l-381 -534l383 -549h-149l-309 465l-312 -465h-147z" />
<glyph unicode="y" horiz-adv-x="1007" d="M12 1083h144l350 -989l348 989h139l-434 -1140q-81 -208 -165.5 -290.5t-203.5 -82.5q-59 0 -84 6v105q34 -5 70 -5q77 0 134.5 50.5t107.5 175.5l22 57z" />
<glyph unicode="z" horiz-adv-x="931" d="M35 0v98l684 871h-635v102h786v-104l-682 -865h691v-102h-844z" />
<glyph unicode="{" horiz-adv-x="614" d="M141 672v90q168 16 168 170q0 67 -22 225q-23 175 -23 219q0 121 69 171t204 50h26v-88h-28q-93 0 -137 -31.5t-44 -99.5q0 -43 23 -200q24 -185 24 -250q0 -83 -45 -140t-131 -69q85 -12 130.5 -71t45.5 -142q0 -62 -24 -250q-4 -34 -10 -74.5t-8 -56t-3.5 -34.5 t-1.5 -36q0 -68 44 -99.5t137 -31.5h28v-88h-26q-135 0 -204 50t-69 171q0 44 23 219q22 158 22 226q0 154 -168 170z" />
<glyph unicode="|" horiz-adv-x="512" d="M211 -410v2048h90v-2048h-90z" />
<glyph unicode="}" horiz-adv-x="614" d="M51 -76h29q94 0 137 31t43 100q0 47 -20 201q-27 188 -27 250q0 83 45.5 140t132.5 69q-86 12 -132 71t-46 142q0 62 27 250q20 154 20 200q0 69 -43 100t-137 31h-29v88h27q135 0 204.5 -50t69.5 -171q0 -55 -24 -219q-21 -151 -21 -225q0 -154 166 -170v-90 q-166 -16 -166 -170q0 -75 21 -226q24 -164 24 -219q0 -121 -69.5 -171t-204.5 -50h-27v88z" />
<glyph unicode="~" d="M141 461q0 260 207 260q57 0 104 -17.5t144 -70.5q83 -45 126.5 -62.5t84.5 -17.5q61 0 87 43t26 129h88q0 -260 -207 -260q-57 0 -104 17.5t-144 70.5q-80 44 -125 62t-86 18q-61 0 -87 -43t-26 -129h-88z" />
<glyph unicode="&#xa1;" horiz-adv-x="464" d="M135 1018q0 41 27.5 68.5t70.5 27.5q41 0 69 -27.5t28 -68.5q0 -42 -28 -70t-69 -28q-43 0 -70.5 27.5t-27.5 70.5zM156 -328l18 1098h117l18 -1098h-153z" />
<glyph unicode="&#xa2;" horiz-adv-x="1124" d="M96 541q0 240 126 392.5t317 176.5v160h90v-156q172 -7 283.5 -110.5t136.5 -270.5h-134q-26 128 -98.5 200t-187.5 81v-940q105 12 177.5 79.5t98.5 182.5h133q-33 -162 -141.5 -255.5t-267.5 -107.5v-157h-90v157q-197 13 -320 159.5t-123 408.5zM233 553 q0 -216 86 -337.5t218 -141.5v936q-130 -24 -217 -141t-87 -316z" />
<glyph unicode="&#xa3;" d="M129 0v94q122 32 191 118t69 202q0 67 -17.5 126.5t-56.5 135.5h-168v88h121q-73 146 -73 276q0 178 119 290t296 112q193 0 297 -110t117 -292h-135q-30 299 -283 299q-122 0 -196 -80t-74 -196q0 -79 19 -142t67 -157h457v-88h-416q61 -128 61 -244q0 -108 -48.5 -187 t-147.5 -139h698v-106h-897z" />
<glyph unicode="&#xa4;" d="M166 270l119 119q-76 99 -76 227t76 230l-119 119l63 65l121 -121q99 76 225 76q125 0 224 -76l123 121l63 -63l-121 -123q76 -99 76 -228q0 -128 -76 -227l121 -121l-63 -65l-121 121q-99 -76 -226 -76q-126 0 -225 76l-121 -119zM307 616q0 -120 75.5 -199t192.5 -79 q115 0 191 79t76 199t-76 199.5t-191 79.5q-117 0 -192.5 -79.5t-75.5 -199.5z" />
<glyph unicode="&#xa5;" d="M45 1413h160l375 -688l372 688h150l-404 -694h289v-86h-340l-8 -19v-125h348v-88h-348v-401h-127v401h-350v88h350v125l-12 19h-338v86h287z" />
<glyph unicode="&#xa6;" horiz-adv-x="512" d="M211 -328v697h90v-697h-90zM211 717v696h90v-696h-90z" />
<glyph unicode="&#xa7;" horiz-adv-x="1124" d="M80 590q0 118 63 195.5t170 113.5q-112 91 -112 231q0 144 98.5 228t255.5 84q171 0 269.5 -89t119.5 -243h-133q-51 231 -256 231q-95 0 -157 -52t-62 -144q0 -99 78 -160.5t225 -97.5q213 -53 318.5 -141.5t105.5 -231.5q0 -108 -63 -187t-166 -118q116 -93 116 -254 q0 -146 -112.5 -228.5t-278.5 -82.5q-174 0 -283.5 86.5t-136.5 263.5h133q61 -250 295 -250q107 0 176.5 53.5t69.5 147.5q0 104 -73 168t-267 108q-110 26 -195.5 72t-141.5 123.5t-56 173.5zM217 598q0 -94 84.5 -162.5t220.5 -99.5q108 -22 185 -55q95 12 158 71.5 t63 147.5q0 101 -81.5 163.5t-258.5 108.5q-99 27 -154 53q-94 -8 -155.5 -63.5t-61.5 -163.5z" />
<glyph unicode="&#xa8;" horiz-adv-x="614" d="M109 1292q0 29 22 51.5t51 22.5q31 0 53.5 -22.5t22.5 -51.5q0 -31 -22.5 -53t-53.5 -22q-29 0 -51 22t-22 53zM356 1292q0 29 22.5 51.5t53.5 22.5q29 0 51.5 -22.5t22.5 -51.5q0 -30 -22 -52.5t-52 -22.5q-31 0 -53.5 22t-22.5 53z" />
<glyph unicode="&#xa9;" horiz-adv-x="1716" d="M90 727q0 162 60 307t162.5 249t244.5 165t301 61t302 -61t245.5 -165t162.5 -249t60 -307t-60 -307t-162.5 -249t-245.5 -165t-302 -61t-301 61t-244.5 165t-162.5 249t-60 307zM186 727q0 -143 52.5 -271.5t142 -220t214 -145t263.5 -53.5t264 53.5t215 145t142.5 220 t52.5 271.5t-52.5 271.5t-142.5 220.5t-215 146t-264 54t-263.5 -54t-214 -146t-142 -220.5t-52.5 -271.5zM455 725q0 211 115 335t298 124q152 0 252.5 -84t126.5 -230h-135q-18 97 -78 153t-166 56q-129 0 -201.5 -97.5t-72.5 -252.5q0 -157 74.5 -254.5t195.5 -97.5 q98 0 163 56t83 151h135q-33 -147 -132.5 -229.5t-260.5 -82.5q-173 0 -285 125t-112 328z" />
<glyph unicode="&#xab;" horiz-adv-x="1097" d="M260 508l281 340h116l-280 -340l280 -340h-116zM569 508l281 340h117l-281 -340l281 -340h-117z" />
<glyph unicode="&#xac;" d="M195 684v88h741v-342h-90v254h-651z" />
<glyph unicode="&#xad;" horiz-adv-x="561" d="M66 535v88h430v-88h-430z" />
<glyph unicode="&#xae;" horiz-adv-x="1050" d="M96 1135q0 189 120.5 309.5t309.5 120.5t309.5 -120.5t120.5 -309.5t-120.5 -309.5t-309.5 -120.5t-309.5 120.5t-120.5 309.5zM174 1135q0 -156 98.5 -255.5t253.5 -99.5q154 0 252.5 100t98.5 255q0 156 -98.5 255t-252.5 99q-155 0 -253.5 -98.5t-98.5 -255.5z M385 932v418h127q35 0 53 -2q129 -14 129 -115q0 -38 -24 -65t-62 -38q54 -17 60 -88q9 -63 30 -110h-90q-16 49 -20 98q-8 51 -62 51h-61v-149h-80zM465 1151h47q29 0 41 2q55 10 55 64t-53 65q-12 2 -37 2h-53v-133z" />
<glyph unicode="&#xaf;" horiz-adv-x="614" d="M100 1249v82h414v-82h-414z" />
<glyph unicode="&#xb0;" horiz-adv-x="593" d="M63 1212q0 101 65.5 165.5t168.5 64.5q102 0 167.5 -64.5t65.5 -165.5q0 -102 -65.5 -165.5t-167.5 -63.5q-103 0 -168.5 63.5t-65.5 165.5zM160 1212q0 -63 38.5 -103t98.5 -40t97.5 40t37.5 103t-37.5 102.5t-97.5 39.5t-98.5 -39.5t-38.5 -102.5z" />
<glyph unicode="&#xb1;" d="M141 0v88h844v-88h-844zM141 608v88h377v387h90v-387h377v-88h-377v-391h-90v391h-377z" />
<glyph unicode="&#xb4;" horiz-adv-x="614" d="M254 1188l125 225h123l-162 -225h-86z" />
<glyph unicode="&#xb6;" horiz-adv-x="1130" d="M94 1034q0 153 85.5 260.5t236.5 116.5q35 2 114 2h447v-1638h-92v1550h-215v-1550h-92v880h-48q-79 0 -114 2q-151 9 -236.5 116.5t-85.5 260.5z" />
<glyph unicode="&#xb7;" horiz-adv-x="362" d="M76 625q0 44 30 74t76 30q44 0 74.5 -30t30.5 -74t-30.5 -74.5t-74.5 -30.5q-46 0 -76 30t-30 75z" />
<glyph unicode="&#xb8;" horiz-adv-x="614" d="M137 -338q43 -22 109 -22q65 0 102 26.5t37 75.5q0 118 -199 104l90 170h89l-60 -106q83 -9 127.5 -51t44.5 -115q0 -84 -66 -129t-169 -45q-62 0 -105 18v74z" />
<glyph unicode="&#xbb;" horiz-adv-x="1097" d="M133 168l281 340l-281 340h115l280 -340l-280 -340h-115zM442 168l281 340l-281 340h115l281 -340l-281 -340h-115z" />
<glyph unicode="&#xbf;" horiz-adv-x="991" d="M139 10q0 205 207 406q109 107 144 175.5t38 174.5h125q-6 -121 -42 -198t-144 -191q-103 -112 -144.5 -192.5t-41.5 -174.5q0 -123 74.5 -195.5t201.5 -72.5q137 0 219.5 87t91.5 241h133q-6 -193 -129.5 -311.5t-318.5 -118.5t-304.5 104.5t-109.5 265.5zM494 1014 q0 41 27.5 68.5t68.5 27.5t69.5 -27.5t28.5 -68.5q0 -42 -28 -70.5t-70 -28.5q-41 0 -68.5 28t-27.5 71z" />
<glyph unicode="&#xc0;" horiz-adv-x="1290" d="M66 0l522 1413h170l510 -1413h-138l-184 518h-563l-182 -518h-135zM420 625h489l-239 686zM487 1700h123l111 -193h-86z" />
<glyph unicode="&#xc1;" horiz-adv-x="1290" d="M66 0l522 1413h170l510 -1413h-138l-184 518h-563l-182 -518h-135zM420 625h489l-239 686zM621 1507l110 193h123l-147 -193h-86z" />
<glyph unicode="&#xc2;" horiz-adv-x="1290" d="M66 0l522 1413h170l510 -1413h-138l-184 518h-563l-182 -518h-135zM420 625h489l-239 686zM492 1507l135 193h94l135 -193h-104l-80 133l-78 -133h-102z" />
<glyph unicode="&#xc3;" horiz-adv-x="1290" d="M66 0l522 1413h170l510 -1413h-138l-184 518h-563l-182 -518h-135zM420 625h489l-239 686zM469 1548q0 65 24 93t70 28q41 0 123 -27q67 -22 92 -22q33 0 33 41h66q0 -65 -24 -93t-71 -28q-42 0 -125 27q-67 22 -92 22q-33 0 -33 -41h-63z" />
<glyph unicode="&#xc4;" horiz-adv-x="1290" d="M66 0l522 1413h170l510 -1413h-138l-184 518h-563l-182 -518h-135zM420 625h489l-239 686zM481 1604q0 30 22 51.5t52 21.5q31 0 53.5 -21.5t22.5 -51.5q0 -31 -22.5 -52.5t-53.5 -21.5q-30 0 -52 22t-22 52zM715 1604q0 31 21 52t52 21t52.5 -21t21.5 -52t-21.5 -52.5 t-52.5 -21.5t-52 21.5t-21 52.5z" />
<glyph unicode="&#xc5;" horiz-adv-x="1290" d="M66 0l522 1413h170l510 -1413h-138l-184 518h-563l-182 -518h-135zM420 625h489l-239 686zM508 1620q0 65 46.5 106t117.5 41t118.5 -41t47.5 -106t-47.5 -107.5t-118.5 -42.5t-117.5 42t-46.5 108zM590 1620q0 -37 23 -61.5t59 -24.5q38 0 61 24.5t23 61.5q0 36 -23 60 t-61 24q-36 0 -59 -24t-23 -60z" />
<glyph unicode="&#xc6;" horiz-adv-x="1851" d="M-53 0l844 1413h978v-104h-786l29 -549h704v-107h-698l29 -549h743v-104h-864l-29 518h-506l-305 -518h-139zM455 625h438l-37 684z" />
<glyph unicode="&#xc7;" horiz-adv-x="1382" d="M100 700q0 214 84 383.5t235 264t341 94.5q234 0 380 -120t183 -314h-133q-33 147 -143.5 239t-290.5 92q-224 0 -370 -174t-146 -458q0 -290 139 -461.5t360 -171.5q166 0 284 89t155 226h133q-47 -183 -195.5 -297.5t-363.5 -120.5l-35 -61q83 -9 127.5 -51t44.5 -115 q0 -84 -66.5 -129t-169.5 -45q-61 0 -104 18v74q43 -22 108 -22q66 0 103 27t37 77q0 116 -199 102l68 127q-262 25 -414 222.5t-152 504.5z" />
<glyph unicode="&#xc8;" horiz-adv-x="1179" d="M203 0v1413h895v-104h-768v-549h714v-107h-714v-549h788v-104h-915zM467 1700h125l108 -193h-86z" />
<glyph unicode="&#xc9;" horiz-adv-x="1179" d="M203 0v1413h895v-104h-768v-549h714v-107h-714v-549h788v-104h-915zM602 1507l109 193h125l-148 -193h-86z" />
<glyph unicode="&#xca;" horiz-adv-x="1179" d="M203 0v1413h895v-104h-768v-549h714v-107h-714v-549h788v-104h-915zM471 1507l137 193h92l136 -193h-105l-78 133l-80 -133h-102z" />
<glyph unicode="&#xcb;" horiz-adv-x="1179" d="M203 0v1413h895v-104h-768v-549h714v-107h-714v-549h788v-104h-915zM463 1604q0 31 21.5 52t52.5 21t52 -21t21 -52t-21 -52.5t-52 -21.5t-52.5 21.5t-21.5 52.5zM694 1604q0 30 22.5 51.5t53.5 21.5q30 0 52 -21.5t22 -51.5t-22 -52t-52 -22q-31 0 -53.5 21.5 t-22.5 52.5z" />
<glyph unicode="&#xcc;" horiz-adv-x="483" d="M80 1700h123l110 -193h-86zM203 0v1413h127v-1413h-127z" />
<glyph unicode="&#xcd;" horiz-adv-x="483" d="M203 0v1413h127v-1413h-127zM213 1507l111 193h125l-148 -193h-88z" />
<glyph unicode="&#xce;" horiz-adv-x="483" d="M84 1507l135 193h94l136 -193h-105l-78 133l-80 -133h-102zM203 0v1413h127v-1413h-127z" />
<glyph unicode="&#xcf;" horiz-adv-x="483" d="M74 1604q0 30 22.5 51.5t53.5 21.5q30 0 51.5 -21.5t21.5 -51.5t-21.5 -52t-51.5 -22q-31 0 -53.5 21.5t-22.5 52.5zM203 0v1413h127v-1413h-127zM307 1604q0 30 22 51.5t52 21.5q31 0 53.5 -21.5t22.5 -51.5q0 -31 -22.5 -52.5t-53.5 -21.5q-30 0 -52 22t-22 52z" />
<glyph unicode="&#xd0;" horiz-adv-x="1423" d="M74 639v88h123v686h421q105 0 168 -6q89 -10 169 -40.5t152 -86.5t124.5 -133t83.5 -187t31 -241q0 -161 -47.5 -293t-127 -217.5t-176 -136t-202.5 -64.5q-72 -8 -181 -8h-415v639h-123zM324 106h280q114 0 174 9q89 13 165.5 58t135.5 119t93 183.5t34 243.5 q0 132 -34.5 238.5t-94.5 176.5t-136.5 111.5t-166.5 54.5q-52 7 -162 7h-288v-580h315v-88h-315v-533z" />
<glyph unicode="&#xd1;" horiz-adv-x="1409" d="M203 0v1413h192l738 -1290q-7 308 -7 561v729h125v-1413h-192l-735 1290q6 -261 6 -561v-729h-127zM524 1548q0 65 24 93t70 28q40 0 123 -27q67 -22 93 -22q32 0 32 41h66q0 -65 -24 -93t-70 -28q-40 0 -123 27q-67 22 -94 22q-33 0 -33 -41h-64z" />
<glyph unicode="&#xd2;" horiz-adv-x="1490" d="M100 707q0 215 77 380.5t227 260t352 94.5q203 0 353 -94.5t227 -259.5t77 -381q0 -214 -77 -379.5t-227 -261t-353 -95.5q-202 0 -352 95.5t-227 261t-77 379.5zM242 707q0 -292 142 -462.5t372 -170.5q232 0 374 170t142 463q0 294 -142 463t-374 169 q-231 0 -372.5 -169.5t-141.5 -462.5zM571 1700h123l111 -193h-86z" />
<glyph unicode="&#xd3;" horiz-adv-x="1490" d="M100 707q0 215 77 380.5t227 260t352 94.5q203 0 353 -94.5t227 -259.5t77 -381q0 -214 -77 -379.5t-227 -261t-353 -95.5q-202 0 -352 95.5t-227 261t-77 379.5zM242 707q0 -292 142 -462.5t372 -170.5q232 0 374 170t142 463q0 294 -142 463t-374 169 q-231 0 -372.5 -169.5t-141.5 -462.5zM705 1507l110 193h123l-147 -193h-86z" />
<glyph unicode="&#xd4;" horiz-adv-x="1490" d="M100 707q0 215 77 380.5t227 260t352 94.5q203 0 353 -94.5t227 -259.5t77 -381q0 -214 -77 -379.5t-227 -261t-353 -95.5q-202 0 -352 95.5t-227 261t-77 379.5zM242 707q0 -292 142 -462.5t372 -170.5q232 0 374 170t142 463q0 294 -142 463t-374 169 q-231 0 -372.5 -169.5t-141.5 -462.5zM575 1507l136 193h94l135 -193h-104l-80 133l-78 -133h-103z" />
<glyph unicode="&#xd5;" horiz-adv-x="1490" d="M100 707q0 215 77 380.5t227 260t352 94.5q203 0 353 -94.5t227 -259.5t77 -381q0 -214 -77 -379.5t-227 -261t-353 -95.5q-202 0 -352 95.5t-227 261t-77 379.5zM242 707q0 -292 142 -462.5t372 -170.5q232 0 374 170t142 463q0 294 -142 463t-374 169 q-231 0 -372.5 -169.5t-141.5 -462.5zM553 1548q0 65 24 93t70 28q41 0 123 -27q67 -22 92 -22q33 0 33 41h66q0 -65 -24 -93t-71 -28q-42 0 -125 27q-67 22 -92 22q-33 0 -33 -41h-63z" />
<glyph unicode="&#xd6;" horiz-adv-x="1490" d="M100 707q0 215 77 380.5t227 260t352 94.5q203 0 353 -94.5t227 -259.5t77 -381q0 -214 -77 -379.5t-227 -261t-353 -95.5q-202 0 -352 95.5t-227 261t-77 379.5zM242 707q0 -292 142 -462.5t372 -170.5q232 0 374 170t142 463q0 294 -142 463t-374 169 q-231 0 -372.5 -169.5t-141.5 -462.5zM565 1604q0 30 22 51.5t52 21.5q31 0 53.5 -21.5t22.5 -51.5q0 -31 -22.5 -52.5t-53.5 -21.5q-30 0 -52 22t-22 52zM799 1604q0 31 21 52t52 21t52.5 -21t21.5 -52t-21.5 -52.5t-52.5 -21.5t-52 21.5t-21 52.5z" />
<glyph unicode="&#xd7;" d="M219 936l649 -649l64 63l-649 649z" />
<glyph unicode="&#xd8;" horiz-adv-x="1501" d="M90 100l141 140q-127 194 -127 467q0 215 77.5 380.5t227.5 260t353 94.5q298 0 473 -197l133 131l64 -63l-140 -139q125 -191 125 -467q0 -214 -77 -379.5t-226.5 -261t-351.5 -95.5q-294 0 -475 197l-131 -131zM246 707q0 -216 82 -371l819 819q-142 184 -385 184 q-232 0 -374 -169t-142 -463zM377 258q142 -184 385 -184q230 0 372 170.5t142 462.5q0 216 -80 370z" />
<glyph unicode="&#xd9;" horiz-adv-x="1333" d="M190 506v907h127v-901q0 -76 5 -125q13 -141 106 -227t264 -86q170 0 263 86t106 227q6 59 6 125v901h127v-907q0 -58 -6 -131q-13 -181 -138.5 -292.5t-357.5 -111.5t-357.5 111t-139.5 293q-5 61 -5 131zM506 1700h123l110 -193h-86z" />
<glyph unicode="&#xda;" horiz-adv-x="1333" d="M190 506v907h127v-901q0 -76 5 -125q13 -141 106 -227t264 -86q170 0 263 86t106 227q6 59 6 125v901h127v-907q0 -58 -6 -131q-13 -181 -138.5 -292.5t-357.5 -111.5t-357.5 111t-139.5 293q-5 61 -5 131zM641 1507l109 193h124l-147 -193h-86z" />
<glyph unicode="&#xdb;" horiz-adv-x="1333" d="M190 506v907h127v-901q0 -76 5 -125q13 -141 106 -227t264 -86q170 0 263 86t106 227q6 59 6 125v901h127v-907q0 -58 -6 -131q-13 -181 -138.5 -292.5t-357.5 -111.5t-357.5 111t-139.5 293q-5 61 -5 131zM510 1507l135 193h94l135 -193h-104l-78 133l-80 -133h-102z " />
<glyph unicode="&#xdc;" horiz-adv-x="1333" d="M190 506v907h127v-901q0 -76 5 -125q13 -141 106 -227t264 -86q170 0 263 86t106 227q6 59 6 125v901h127v-907q0 -58 -6 -131q-13 -181 -138.5 -292.5t-357.5 -111.5t-357.5 111t-139.5 293q-5 61 -5 131zM502 1604q0 31 21 52t52 21t52.5 -21t21.5 -52t-21.5 -52.5 t-52.5 -21.5t-52 21.5t-21 52.5zM733 1604q0 30 22.5 51.5t53.5 21.5q30 0 52 -21.5t22 -51.5t-22 -52t-52 -22q-31 0 -53.5 21.5t-22.5 52.5z" />
<glyph unicode="&#xdd;" horiz-adv-x="1163" d="M43 1413h145l424 -725l414 725h145l-501 -848v-565h-127v565zM555 1507l109 193h124l-147 -193h-86z" />
<glyph unicode="&#xde;" horiz-adv-x="1298" d="M203 0v1413h127v-203h270q112 0 191 -10q159 -20 255.5 -114t96.5 -259q0 -168 -97 -267t-255 -120q-63 -8 -191 -8h-270v-432h-127zM330 541h270q111 0 172 10q105 17 169.5 82.5t64.5 189.5q0 227 -234 269q-61 10 -172 10h-270v-561z" />
<glyph unicode="&#xdf;" horiz-adv-x="1187" d="M150 0v991q0 57 4 131q12 203 136 312.5t312 109.5t304 -95t116 -255q0 -109 -66 -211q-86 -44 -127 -83.5t-41 -88.5q0 -54 29 -97.5t101 -103.5q98 -83 141 -156t43 -171q0 -134 -104.5 -212.5t-270.5 -78.5q-109 0 -209 20v107q116 -27 203 -27q116 0 178 53t62 146 q0 60 -30.5 114t-117.5 132q-97 86 -131.5 141.5t-34.5 132.5q0 74 46.5 130t146.5 106q41 65 41 145q0 117 -76.5 183.5t-208.5 66.5q-131 0 -218 -85t-97 -239q-5 -72 -5 -114v-1004h-126z" />
<glyph unicode="&#xe0;" horiz-adv-x="1058" d="M82 272q0 183 164 276t463 93h69v39q0 90 -4 133q-16 197 -242 197q-116 0 -188 -62.5t-84 -185.5h-133q10 159 121.5 254.5t283.5 95.5q343 0 369 -287q4 -47 4 -143v-379q0 -109 21 -303h-127l-17 197l-55 -115q-111 -111 -301 -111q-155 0 -249.5 78.5t-94.5 222.5z M221 283q0 -103 62.5 -157t181.5 -54q140 0 226.5 96.5t86.5 249.5v125q-158 12 -280.5 -10t-199.5 -85.5t-77 -164.5zM324 1413h125l124 -225h-88z" />
<glyph unicode="&#xe1;" horiz-adv-x="1058" d="M82 272q0 183 164 276t463 93h69v39q0 90 -4 133q-16 197 -242 197q-116 0 -188 -62.5t-84 -185.5h-133q10 159 121.5 254.5t283.5 95.5q343 0 369 -287q4 -47 4 -143v-379q0 -109 21 -303h-127l-17 197l-55 -115q-111 -111 -301 -111q-155 0 -249.5 78.5t-94.5 222.5z M221 283q0 -103 62.5 -157t181.5 -54q140 0 226.5 96.5t86.5 249.5v125q-158 12 -280.5 -10t-199.5 -85.5t-77 -164.5zM481 1188l125 225h123l-162 -225h-86z" />
<glyph unicode="&#xe2;" horiz-adv-x="1058" d="M82 272q0 183 164 276t463 93h69v39q0 90 -4 133q-16 197 -242 197q-116 0 -188 -62.5t-84 -185.5h-133q10 159 121.5 254.5t283.5 95.5q343 0 369 -287q4 -47 4 -143v-379q0 -109 21 -303h-127l-17 197l-55 -115q-111 -111 -301 -111q-155 0 -249.5 78.5t-94.5 222.5z M221 283q0 -103 62.5 -157t181.5 -54q140 0 226.5 96.5t86.5 249.5v125q-158 12 -280.5 -10t-199.5 -85.5t-77 -164.5zM352 1188l135 225h95l135 -225h-101l-81 153l-84 -153h-99z" />
<glyph unicode="&#xe3;" horiz-adv-x="1058" d="M82 272q0 183 164 276t463 93h69v39q0 90 -4 133q-16 197 -242 197q-116 0 -188 -62.5t-84 -185.5h-133q10 159 121.5 254.5t283.5 95.5q343 0 369 -287q4 -47 4 -143v-379q0 -109 21 -303h-127l-17 197l-55 -115q-111 -111 -301 -111q-155 0 -249.5 78.5t-94.5 222.5z M221 283q0 -103 62.5 -157t181.5 -54q140 0 226.5 96.5t86.5 249.5v125q-158 12 -280.5 -10t-199.5 -85.5t-77 -164.5zM330 1251q0 66 23.5 94.5t70.5 28.5q46 0 125 -26q70 -23 92 -23q33 0 33 41h63q0 -66 -23.5 -94.5t-70.5 -28.5q-41 0 -123 27q-73 24 -92 24 q-33 0 -33 -43h-65z" />
<glyph unicode="&#xe4;" horiz-adv-x="1058" d="M82 272q0 183 164 276t463 93h69v39q0 90 -4 133q-16 197 -242 197q-116 0 -188 -62.5t-84 -185.5h-133q10 159 121.5 254.5t283.5 95.5q343 0 369 -287q4 -47 4 -143v-379q0 -109 21 -303h-127l-17 197l-55 -115q-111 -111 -301 -111q-155 0 -249.5 78.5t-94.5 222.5z M221 283q0 -103 62.5 -157t181.5 -54q140 0 226.5 96.5t86.5 249.5v125q-158 12 -280.5 -10t-199.5 -85.5t-77 -164.5zM336 1292q0 30 22 52t52 22t51.5 -22t21.5 -52q0 -31 -21 -53t-52 -22t-52.5 22t-21.5 53zM584 1292q0 29 22 51.5t51 22.5q31 0 53.5 -22.5t22.5 -51.5 q0 -31 -22.5 -53t-53.5 -22q-29 0 -51 22t-22 53z" />
<glyph unicode="&#xe5;" horiz-adv-x="1058" d="M82 272q0 183 164 276t463 93h69v39q0 90 -4 133q-16 197 -242 197q-116 0 -188 -62.5t-84 -185.5h-133q10 159 121.5 254.5t283.5 95.5q343 0 369 -287q4 -47 4 -143v-379q0 -109 21 -303h-127l-17 197l-55 -115q-111 -111 -301 -111q-155 0 -249.5 78.5t-94.5 222.5z M221 283q0 -103 62.5 -157t181.5 -54q140 0 226.5 96.5t86.5 249.5v125q-158 12 -280.5 -10t-199.5 -85.5t-77 -164.5zM371 1317q0 69 46.5 112.5t117.5 43.5t117 -43.5t46 -112.5q0 -67 -46 -110.5t-117 -43.5t-117.5 43.5t-46.5 110.5zM451 1317q0 -41 23 -66.5t61 -25.5 q37 0 59 25.5t22 66.5q0 42 -22.5 68t-58.5 26q-38 0 -61 -26t-23 -68z" />
<glyph unicode="&#xe6;" horiz-adv-x="1845" d="M82 272q0 91 46.5 156.5t136 104t207.5 56t273 17.5h70v53q0 172 -66.5 261.5t-211.5 89.5q-120 0 -195.5 -63t-85.5 -185h-131q6 159 117.5 253.5t292.5 94.5q154 0 244 -57.5t126 -173.5q63 112 166.5 171.5t235.5 59.5q112 0 200.5 -42t144 -115.5t84.5 -170.5 t29 -211q0 -34 -2 -67h-821q10 -219 106.5 -325.5t243.5 -106.5q118 0 208 70.5t118 199.5h133q-37 -181 -165.5 -276t-299.5 -95q-142 0 -253 66.5t-167 206.5l-49 -111q-151 -162 -375 -162q-99 0 -179 32.5t-130.5 102t-50.5 166.5zM221 283q0 -101 67.5 -156t184.5 -55 q148 0 245 102.5t97 267.5v62q-99 2 -187 0.5t-163 -16t-129 -39t-84.5 -67t-30.5 -99.5zM942 604h694q-10 203 -99.5 304.5t-233.5 101.5q-151 0 -249.5 -104.5t-111.5 -301.5z" />
<glyph unicode="&#xe7;" horiz-adv-x="1075" d="M61 541q0 131 40.5 240t109.5 180.5t160.5 111t193.5 39.5q185 0 304.5 -104.5t144.5 -278.5h-133q-28 138 -109 210.5t-211 72.5q-70 0 -133.5 -28.5t-114.5 -83.5t-81.5 -145.5t-30.5 -203.5q0 -121 29 -215t78.5 -150.5t111 -85t131.5 -28.5q122 0 207 68.5t114 195.5 h132q-35 -170 -154 -265t-291 -100l-35 -61q172 -19 172 -166q0 -84 -66 -129t-169 -45q-62 0 -105 18v74q43 -22 109 -22t102.5 26.5t36.5 75.5q0 118 -196 104l67 129q-187 23 -300.5 168t-113.5 398z" />
<glyph unicode="&#xe8;" horiz-adv-x="1103" d="M61 541q0 170 66 301t180 200.5t256 69.5q147 0 253 -73.5t157 -194.5t51 -273q0 -34 -4 -67h-821q5 -115 35.5 -201t80 -135t108.5 -72.5t128 -23.5q118 0 208 70.5t118 199.5h133q-37 -181 -166 -276t-301 -95q-103 0 -189.5 36t-152.5 105.5t-103 179.5t-37 249z M199 604h696q-12 202 -102.5 304t-233.5 102t-245 -105.5t-115 -300.5zM356 1413h125l123 -225h-86z" />
<glyph unicode="&#xe9;" horiz-adv-x="1103" d="M61 541q0 170 66 301t180 200.5t256 69.5q147 0 253 -73.5t157 -194.5t51 -273q0 -34 -4 -67h-821q5 -115 35.5 -201t80 -135t108.5 -72.5t128 -23.5q118 0 208 70.5t118 199.5h133q-37 -181 -166 -276t-301 -95q-103 0 -189.5 36t-152.5 105.5t-103 179.5t-37 249z M199 604h696q-12 202 -102.5 304t-233.5 102t-245 -105.5t-115 -300.5zM498 1188l125 225h125l-162 -225h-88z" />
<glyph unicode="&#xea;" horiz-adv-x="1103" d="M61 541q0 170 66 301t180 200.5t256 69.5q147 0 253 -73.5t157 -194.5t51 -273q0 -34 -4 -67h-821q5 -115 35.5 -201t80 -135t108.5 -72.5t128 -23.5q118 0 208 70.5t118 199.5h133q-37 -181 -166 -276t-301 -95q-103 0 -189.5 36t-152.5 105.5t-103 179.5t-37 249z M199 604h696q-12 202 -102.5 304t-233.5 102t-245 -105.5t-115 -300.5zM371 1188l135 225h92l137 -225h-100l-84 153l-82 -153h-98z" />
<glyph unicode="&#xeb;" horiz-adv-x="1103" d="M61 541q0 170 66 301t180 200.5t256 69.5q147 0 253 -73.5t157 -194.5t51 -273q0 -34 -4 -67h-821q5 -115 35.5 -201t80 -135t108.5 -72.5t128 -23.5q118 0 208 70.5t118 199.5h133q-37 -181 -166 -276t-301 -95q-103 0 -189.5 36t-152.5 105.5t-103 179.5t-37 249z M199 604h696q-12 202 -102.5 304t-233.5 102t-245 -105.5t-115 -300.5zM352 1292q0 29 22.5 51.5t53.5 22.5q29 0 51.5 -22.5t22.5 -51.5q0 -30 -22 -52.5t-52 -22.5q-31 0 -53.5 22t-22.5 53zM602 1292q0 30 22 52t52 22t52 -22t22 -52q0 -31 -21.5 -53t-52.5 -22t-52.5 22 t-21.5 53z" />
<glyph unicode="&#xec;" horiz-adv-x="430" d="M4 1413h123l125 -225h-86zM150 0v1083h126v-1083h-126z" />
<glyph unicode="&#xed;" horiz-adv-x="430" d="M150 0v1083h126v-1083h-126zM160 1188l125 225h123l-162 -225h-86z" />
<glyph unicode="&#xee;" horiz-adv-x="430" d="M31 1188l137 225h92l135 -225h-100l-82 153l-84 -153h-98zM150 0v1083h126v-1083h-126z" />
<glyph unicode="&#xef;" horiz-adv-x="430" d="M14 1292q0 29 22.5 51.5t51.5 22.5q31 0 53.5 -22.5t22.5 -51.5q0 -31 -22.5 -53t-53.5 -22q-30 0 -52 22.5t-22 52.5zM150 0v1083h126v-1083h-126zM262 1292q0 29 22.5 51.5t53.5 22.5q29 0 51.5 -22.5t22.5 -51.5q0 -30 -22 -52.5t-52 -22.5q-31 0 -53.5 22t-22.5 53z " />
<glyph unicode="&#xf0;" d="M61 526q0 174 65 309t176 207t249 72q142 0 252 -72l94 -127q-21 240 -152 375l-305 -125l-32 82l262 109q-79 54 -183 84l80 86q124 -45 221 -123l142 59l33 -82l-107 -43q101 -114 149 -286.5t48 -421.5q0 -171 -39.5 -300.5t-110 -206t-160 -114t-198.5 -37.5 q-116 0 -209 42t-152.5 117t-91 175.5t-31.5 220.5zM201 541q0 -220 95 -344.5t259 -124.5q163 0 261.5 125.5t98.5 357.5v51q0 99 -29 178.5t-79 128.5t-112 75t-132 26q-158 0 -260 -128.5t-102 -344.5z" />
<glyph unicode="&#xf1;" horiz-adv-x="1165" d="M150 0v1083h126v-209l58 117q121 121 305 121q169 0 267.5 -86t113.5 -238q4 -55 4 -182v-606h-127v592q0 109 -4 164q-11 117 -79.5 184.5t-199.5 67.5q-147 0 -242.5 -115.5t-95.5 -353.5v-539h-126zM389 1251q0 66 23.5 94.5t70.5 28.5q44 0 123 -26q70 -23 92 -23 q33 0 33 41h64q0 -66 -24 -94.5t-71 -28.5q-40 0 -122 27q-73 24 -93 24q-32 0 -32 -43h-64z" />
<glyph unicode="&#xf2;" horiz-adv-x="1175" d="M61 541q0 162 59 289.5t180 204.5t288 77t288 -77t179.5 -204.5t58.5 -289.5q0 -120 -34.5 -223t-99 -180.5t-165.5 -122t-227 -44.5q-167 0 -288 77t-180 204.5t-59 288.5zM201 541q0 -217 107.5 -343t279.5 -126t279.5 126t107.5 343t-107.5 343t-279.5 126 t-279.5 -126t-107.5 -343zM393 1413h123l125 -225h-86z" />
<glyph unicode="&#xf3;" horiz-adv-x="1175" d="M61 541q0 162 59 289.5t180 204.5t288 77t288 -77t179.5 -204.5t58.5 -289.5q0 -120 -34.5 -223t-99 -180.5t-165.5 -122t-227 -44.5q-167 0 -288 77t-180 204.5t-59 288.5zM201 541q0 -217 107.5 -343t279.5 -126t279.5 126t107.5 343t-107.5 343t-279.5 126 t-279.5 -126t-107.5 -343zM535 1188l124 225h123l-161 -225h-86z" />
<glyph unicode="&#xf4;" horiz-adv-x="1175" d="M61 541q0 162 59 289.5t180 204.5t288 77t288 -77t179.5 -204.5t58.5 -289.5q0 -120 -34.5 -223t-99 -180.5t-165.5 -122t-227 -44.5q-167 0 -288 77t-180 204.5t-59 288.5zM201 541q0 -217 107.5 -343t279.5 -126t279.5 126t107.5 343t-107.5 343t-279.5 126 t-279.5 -126t-107.5 -343zM408 1188l135 225h92l137 -225h-100l-84 153l-82 -153h-98z" />
<glyph unicode="&#xf5;" horiz-adv-x="1175" d="M61 541q0 162 59 289.5t180 204.5t288 77t288 -77t179.5 -204.5t58.5 -289.5q0 -120 -34.5 -223t-99 -180.5t-165.5 -122t-227 -44.5q-167 0 -288 77t-180 204.5t-59 288.5zM201 541q0 -217 107.5 -343t279.5 -126t279.5 126t107.5 343t-107.5 343t-279.5 126 t-279.5 -126t-107.5 -343zM385 1251q0 66 23.5 94.5t70.5 28.5q44 0 123 -26q70 -23 92 -23q33 0 33 41h64q0 -66 -24 -94.5t-71 -28.5q-40 0 -123 27q-74 24 -92 24q-32 0 -32 -43h-64z" />
<glyph unicode="&#xf6;" horiz-adv-x="1175" d="M61 541q0 162 59 289.5t180 204.5t288 77t288 -77t179.5 -204.5t58.5 -289.5q0 -120 -34.5 -223t-99 -180.5t-165.5 -122t-227 -44.5q-167 0 -288 77t-180 204.5t-59 288.5zM201 541q0 -217 107.5 -343t279.5 -126t279.5 126t107.5 343t-107.5 343t-279.5 126 t-279.5 -126t-107.5 -343zM389 1292q0 29 22.5 51.5t51.5 22.5q31 0 53.5 -22.5t22.5 -51.5q0 -31 -22.5 -53t-53.5 -22q-29 0 -51.5 22.5t-22.5 52.5zM637 1292q0 29 22.5 51.5t53.5 22.5q29 0 51 -22.5t22 -51.5q0 -31 -22 -53t-51 -22q-31 0 -53.5 22t-22.5 53z" />
<glyph unicode="&#xf7;" d="M152 608v88h845v-88h-845zM485 326q0 40 26.5 66t66.5 26t66 -26t26 -66t-26 -66.5t-66 -26.5t-66.5 26.5t-26.5 66.5zM485 973q0 40 26.5 66t66.5 26t66 -26t26 -66q0 -39 -26.5 -65.5t-65.5 -26.5q-40 0 -66.5 26.5t-26.5 65.5z" />
<glyph unicode="&#xf8;" horiz-adv-x="1249" d="M53 33l140 139q-107 146 -107 369q0 162 58.5 289t179.5 203.5t288 76.5q233 0 373 -143l148 145l63 -63l-154 -154q97 -148 97 -354q0 -161 -59 -288.5t-180 -204.5t-288 -77q-223 0 -360 131l-135 -133zM223 541q0 -159 64 -275l610 611q-106 133 -285 133 q-172 0 -280.5 -126t-108.5 -343zM338 190q106 -118 274 -118q171 0 279 126t108 343q0 152 -53 258z" />
<glyph unicode="&#xf9;" horiz-adv-x="1161" d="M133 451v632h127v-604q0 -89 8 -162q12 -111 84.5 -177t194.5 -66q70 0 128.5 26.5t105.5 81t73.5 147.5t26.5 216v538h127v-1083h-127v209l-60 -121q-120 -117 -303 -117q-161 0 -259.5 81.5t-117.5 215.5q-8 73 -8 183zM362 1413h125l123 -225h-86z" />
<glyph unicode="&#xfa;" horiz-adv-x="1161" d="M133 451v632h127v-604q0 -89 8 -162q12 -111 84.5 -177t194.5 -66q70 0 128.5 26.5t105.5 81t73.5 147.5t26.5 216v538h127v-1083h-127v209l-60 -121q-120 -117 -303 -117q-161 0 -259.5 81.5t-117.5 215.5q-8 73 -8 183zM516 1188l125 225h123l-162 -225h-86z" />
<glyph unicode="&#xfb;" horiz-adv-x="1161" d="M133 451v632h127v-604q0 -89 8 -162q12 -111 84.5 -177t194.5 -66q70 0 128.5 26.5t105.5 81t73.5 147.5t26.5 216v538h127v-1083h-127v209l-60 -121q-120 -117 -303 -117q-161 0 -259.5 81.5t-117.5 215.5q-8 73 -8 183zM389 1188l135 225h92l138 -225h-101l-84 153 l-82 -153h-98z" />
<glyph unicode="&#xfc;" horiz-adv-x="1161" d="M133 451v632h127v-604q0 -89 8 -162q12 -111 84.5 -177t194.5 -66q70 0 128.5 26.5t105.5 81t73.5 147.5t26.5 216v538h127v-1083h-127v209l-60 -121q-120 -117 -303 -117q-161 0 -259.5 81.5t-117.5 215.5q-8 73 -8 183zM371 1292q0 29 22 51.5t51 22.5q31 0 53.5 -22.5 t22.5 -51.5q0 -31 -22.5 -53t-53.5 -22q-29 0 -51 22t-22 53zM618 1292q0 29 22.5 51.5t53.5 22.5q29 0 51.5 -22.5t22.5 -51.5q0 -30 -22 -52.5t-52 -22.5q-31 0 -53.5 22t-22.5 53z" />
<glyph unicode="&#xfd;" horiz-adv-x="1007" d="M12 1083h144l350 -989l348 989h139l-434 -1140q-81 -208 -165.5 -290.5t-203.5 -82.5q-59 0 -84 6v105q34 -5 70 -5q77 0 134.5 50.5t107.5 175.5l22 57zM453 1188l125 225h122l-161 -225h-86z" />
<glyph unicode="&#xfe;" horiz-adv-x="1200" d="M150 -401v1906h126v-622l72 118q114 111 307 111q223 0 353.5 -155.5t130.5 -401.5q0 -144 -42 -257.5t-114 -183.5t-163.5 -106.5t-196.5 -36.5q-81 0 -155 25t-124 72l-68 116v-585h-126zM276 485q0 -111 31 -194t83 -129t110.5 -68t122.5 -22q166 0 271 125.5 t105 341.5q0 133 -40 238t-123.5 169t-198.5 64q-76 0 -138.5 -24t-114 -74t-80 -138t-28.5 -207v-82z" />
<glyph unicode="&#xff;" horiz-adv-x="1007" d="M12 1083h144l350 -989l348 989h139l-434 -1140q-81 -208 -165.5 -290.5t-203.5 -82.5q-59 0 -84 6v105q34 -5 70 -5q77 0 134.5 50.5t107.5 175.5l22 57zM307 1292q0 29 22.5 51.5t51.5 22.5q31 0 53.5 -22.5t22.5 -51.5q0 -31 -22.5 -53t-53.5 -22q-29 0 -51.5 22.5 t-22.5 52.5zM555 1292q0 29 22.5 51.5t53.5 22.5q29 0 51.5 -22.5t22.5 -51.5q0 -30 -22.5 -52.5t-51.5 -22.5q-31 0 -53.5 22t-22.5 53z" />
<glyph unicode="&#x152;" horiz-adv-x="2248" d="M100 707q0 156 45 290.5t126.5 233t203 155t268.5 56.5q164 0 270.5 -49t200.5 -168l58 -154v342h897v-104h-770v-549h717v-107h-717v-549h790v-104h-917v338l-58 -154q-87 -112 -202.5 -162.5t-268.5 -50.5q-195 0 -342.5 98t-224 264t-76.5 374zM242 707 q0 -288 142.5 -460.5t371.5 -172.5q234 0 375 172t141 461t-141 460.5t-375 171.5q-229 0 -371.5 -172t-142.5 -460z" />
<glyph unicode="&#x153;" horiz-adv-x="2017" d="M61 541q0 162 59 289.5t180 204.5t288 77q165 0 283 -77t176 -226q58 150 172 226.5t260 76.5q111 0 199 -42.5t144 -116.5t85.5 -171.5t29.5 -210.5q0 -34 -2 -67h-819q4 -112 34.5 -197t79.5 -135.5t107.5 -75t126.5 -24.5q118 0 208 70.5t118 199.5h133 q-37 -181 -165.5 -276t-299.5 -95q-141 0 -251.5 74t-168.5 225q-58 -148 -172.5 -223.5t-277.5 -75.5q-167 0 -288 77t-180 204.5t-59 288.5zM201 541q0 -217 107.5 -343t279.5 -126t279.5 126t107.5 343t-107.5 343t-279.5 126t-279.5 -126t-107.5 -343zM1116 604h692 q-10 202 -100.5 304t-232.5 102q-144 0 -246 -105.5t-113 -300.5z" />
<glyph unicode="&#x178;" horiz-adv-x="1163" d="M43 1413h145l424 -725l414 725h145l-501 -848v-565h-127v565zM416 1604q0 31 21 52t52 21t52.5 -21t21.5 -52t-21.5 -52.5t-52.5 -21.5t-52 21.5t-21 52.5zM649 1604q0 31 21.5 52t52.5 21t52.5 -21t21.5 -52t-21.5 -52.5t-52.5 -21.5t-52.5 21.5t-21.5 52.5z" />
<glyph unicode="&#x2c6;" horiz-adv-x="614" d="M127 1188l135 225h92l138 -225h-101l-84 153l-82 -153h-98z" />
<glyph unicode="&#x2dc;" horiz-adv-x="614" d="M104 1251q0 66 24 94.5t71 28.5q44 0 123 -26q70 -23 92 -23q32 0 32 41h64q0 -66 -23.5 -94.5t-70.5 -28.5q-40 0 -123 27q-73 24 -92 24q-33 0 -33 -43h-64z" />
<glyph unicode="&#x2000;" horiz-adv-x="883" />
<glyph unicode="&#x2001;" horiz-adv-x="1767" />
<glyph unicode="&#x2002;" horiz-adv-x="883" />
<glyph unicode="&#x2003;" horiz-adv-x="1767" />
<glyph unicode="&#x2004;" horiz-adv-x="589" />
<glyph unicode="&#x2005;" horiz-adv-x="441" />
<glyph unicode="&#x2006;" horiz-adv-x="294" />
<glyph unicode="&#x2007;" horiz-adv-x="294" />
<glyph unicode="&#x2008;" horiz-adv-x="220" />
<glyph unicode="&#x2009;" horiz-adv-x="353" />
<glyph unicode="&#x200a;" horiz-adv-x="98" />
<glyph unicode="&#x2010;" horiz-adv-x="561" d="M66 535v88h430v-88h-430z" />
<glyph unicode="&#x2011;" horiz-adv-x="561" d="M66 535v88h430v-88h-430z" />
<glyph unicode="&#x2012;" horiz-adv-x="561" d="M66 535v88h430v-88h-430z" />
<glyph unicode="&#x2013;" horiz-adv-x="1024" d="M143 553v88h738v-88h-738z" />
<glyph unicode="&#x2014;" horiz-adv-x="2048" d="M143 553v88h1762v-88h-1762z" />
<glyph unicode="&#x2018;" horiz-adv-x="403" d="M80 997v17l178 491h113l-154 -508h-137z" />
<glyph unicode="&#x2019;" horiz-adv-x="403" d="M33 997l153 508h138v-16l-177 -492h-114z" />
<glyph unicode="&#x201a;" horiz-adv-x="409" d="M-41 -244l135 391h137v-18l-153 -373h-119z" />
<glyph unicode="&#x201c;" horiz-adv-x="690" d="M80 997v17l178 491h113l-154 -508h-137zM367 997v17l178 491h112l-153 -508h-137z" />
<glyph unicode="&#x201d;" horiz-adv-x="690" d="M33 997l153 508h138v-16l-177 -492h-114zM319 997l154 508h137v-16l-176 -492h-115z" />
<glyph unicode="&#x201e;" horiz-adv-x="681" d="M-41 -244l135 391h137v-18l-153 -373h-119zM229 -244l136 391h137l2 -18l-156 -373h-119z" />
<glyph unicode="&#x2022;" horiz-adv-x="600" d="M133 625q0 72 47.5 120t118.5 48q72 0 120 -48t48 -120t-48 -120t-120 -48q-71 0 -118.5 48t-47.5 120z" />
<glyph unicode="&#x2026;" horiz-adv-x="1075" d="M78 70q0 41 27.5 68.5t70.5 27.5q41 0 68.5 -27.5t27.5 -68.5q0 -43 -27.5 -71t-68.5 -28q-43 0 -70.5 28t-27.5 71zM412 70q0 41 27.5 68.5t68.5 27.5t69.5 -27.5t28.5 -68.5q0 -42 -28 -70.5t-70 -28.5q-41 0 -68.5 28t-27.5 71zM743 70q0 41 28 68.5t71 27.5 q41 0 68.5 -27.5t27.5 -68.5q0 -43 -27.5 -71t-68.5 -28q-43 0 -71 28t-28 71z" />
<glyph unicode="&#x202f;" horiz-adv-x="353" />
<glyph unicode="&#x2039;" horiz-adv-x="788" d="M260 508l281 340h116l-280 -340l280 -340h-116z" />
<glyph unicode="&#x203a;" horiz-adv-x="788" d="M133 168l281 340l-281 340h115l280 -340l-280 -340h-115z" />
<glyph unicode="&#x205f;" horiz-adv-x="441" />
<glyph unicode="&#x20ac;" d="M35 549l20 86h121l-2 65q0 49 2 74h-98l20 86h86q34 289 189 435.5t393 146.5q218 0 334 -125l-66 -86q-102 108 -272 108q-83 0 -153 -26t-130 -81t-100 -149.5t-55 -222.5h663l-22 -88h-648l-2 -63q0 -49 2 -74h615l-19 -86l-589 -2q26 -244 135 -358.5t301 -114.5 q166 0 295 82v-109q-133 -76 -305 -76q-255 0 -398.5 136t-171.5 442h-145z" />
<glyph unicode="&#x2122;" horiz-adv-x="1087" d="M45 1284v68h399v-68h-159v-350h-82v350h-158zM496 934v416h118l109 -340l111 340h116v-416h-80l4 323l-110 -317h-84l-107 315v-321h-77z" />
<glyph unicode="&#x25fc;" horiz-adv-x="1085" d="M0 0v1085h1085v-1085h-1085z" />
</font>
</defs>
</svg>
