<?xml version="1.0" encoding="utf-8"?>
<!-- Generator: Adobe Illustrator 16.0.4, SVG Export Plug-In . SVG Version: 6.00 Build 0)  -->
<!DOCTYPE svg PUBLIC "-//W3C//DTD SVG 1.1//EN" "http://www.w3.org/Graphics/SVG/1.1/DTD/svg11.dtd">
<svg version="1.1" id="Calque_1" xmlns="http://www.w3.org/2000/svg" xmlns:xlink="http://www.w3.org/1999/xlink" x="0px" y="0px"
	 width="512px" height="512px" viewBox="0 0 512 512" enable-background="new 0 0 512 512" xml:space="preserve">
<g>
	<path fill="#FFFFFF" d="M277.491,54.321h-43.239v37.905h43.239V54.321z M330.716,28.788v25.533h-25.763v118.482h-5.106
		l-22.357-23.662v-31.379H234.25v20.769c0,4.161-1.551,6.241-4.653,6.241c-3.481-0.073-11.54-6.958-24.172-20.654
		c-12.638-13.691-18.991-22.847-19.066-27.463c0-2.949,2.571-4.426,7.716-4.426h13.051V54.321h-29.053V28.788H330.716z"/>
	<path fill="#FFFFFF" d="M132.385,217.912H90.327v36.802h42.059v-36.802H132.385z M30.972,254.713h40.023v-36.802H30.972V254.713z
		 M70.994,189.592c0-8.819-0.168-12.888-1.018-18.485h21.37c-0.679,5.257-1.019,9.666-1.019,17.806v11.025h46.468
		c7.461,0,11.022-0.17,15.432-0.679c-0.508,4.75-0.677,8.309-0.677,14.923v51.724c0,7.634,0.169,12.042,0.847,16.959h-20.011
		v-10.176H90.328v34.424c0,10.178,0.338,15.094,1.187,21.029H69.808c0.848-6.275,1.187-11.531,1.187-21.029v-34.424H30.972v10.176
		H10.96c0.677-5.596,0.848-9.836,0.848-16.959v-51.894c0-6.275-0.171-9.327-0.678-14.754c4.917,0.509,8.479,0.679,15.263,0.679h44.6
		L70.994,189.592L70.994,189.592z"/>
</g>
<polygon fill="#FFFFFF" points="449.024,194.761 433.944,263.781 417.973,194.761 362.708,194.761 362.708,317.723 403.425,317.723 
	403.425,243.907 422.053,317.723 446.06,317.688 466.058,243.2 466.058,317.723 505.648,317.762 505.709,194.761 "/>
<g>
	<path fill="#FFFFFF" d="M332.806,468.892c0,1.496-0.429,2.821-1.29,3.979c-0.86,1.158-2.087,1.738-3.676,1.738h-40.406
		c-1.59,0-2.822-0.579-3.709-1.738c-0.882-1.155-1.326-2.482-1.326-3.979c0-1.678,0.383-3.141,1.153-4.388
		c0.771-1.248,2.019-1.872,3.741-1.872h12.381v-72.043l-41.086,77.076c-0.457,1.18-1.25,2.212-2.383,3.093
		c-1.132,0.885-2.473,1.33-4.013,1.33c-1.405,0-2.664-0.378-3.776-1.123c-1.109-0.75-1.891-1.621-2.346-2.62l-38.502-78.706v72.993
		h13.809c1.724,0,2.969,0.623,3.742,1.872c0.77,1.245,1.157,2.71,1.157,4.388c0,1.496-0.445,2.821-1.328,3.979
		c-0.884,1.157-2.121,1.738-3.707,1.738h-42.925c-1.588,0-2.822-0.579-3.706-1.738c-0.885-1.155-1.327-2.482-1.327-3.979
		c0-1.678,0.383-3.141,1.156-4.388c0.769-1.247,2.017-1.872,3.741-1.872h15.171V369.98h-13.744c-1.724,0-2.97-0.625-3.74-1.875
		c-0.771-1.244-1.157-2.709-1.157-4.387c0-1.5,0.442-2.822,1.326-3.98c0.884-1.157,2.121-1.735,3.707-1.735h22.858
		c1.224,0,2.188,0.364,2.892,1.088c0.701,0.729,1.258,1.522,1.666,2.382l45.034,90.816l48.027-91.361
		c0.408-0.771,0.977-1.451,1.702-2.039c0.726-0.591,1.651-0.886,2.787-0.886h21.699c1.587,0,2.824,0.577,3.709,1.735
		c0.883,1.156,1.329,2.48,1.329,3.98c0,1.678-0.387,3.141-1.157,4.387c-0.773,1.248-2.015,1.875-3.742,1.875h-12.378v92.651h13.809
		c1.726,0,2.96,0.623,3.708,1.872C332.434,465.751,332.806,467.214,332.806,468.892"/>
	<path fill="#FFFFFF" d="M332.755,318.496h-49.704v-5.292c15.309-1.513,16.063-2.457,15.873-22.493l-0.564-77.108h-0.757
		L251.49,317.171h-3.78l-42.335-100.922h-0.376l-2.836,53.862c-0.757,15.5-0.757,23.813-0.567,31.375
		c0.379,9.072,4.917,10.396,17.388,11.717v5.291h-44.035v-5.291c10.962-1.323,14.739-3.402,16.065-11.342
		c0.945-6.611,2.079-14.928,3.591-34.584l2.644-39.312c1.702-24.57,0.756-25.325-16.442-27.027v-5.292H211.8l43.091,94.5
		l43.659-94.5h32.129v5.292c-16.632,1.512-17.956,1.891-17.391,21.356l1.892,68.415c0.564,20.036,1.135,20.979,17.576,22.493
		L332.755,318.496L332.755,318.496z"/>
</g>
</svg>
