<?xml version="1.0" encoding="utf-8"?>
<!-- Generator: Adobe Illustrator 16.0.4, SVG Export Plug-In . SVG Version: 6.00 Build 0)  -->
<!DOCTYPE svg PUBLIC "-//W3C//DTD SVG 1.1//EN" "http://www.w3.org/Graphics/SVG/1.1/DTD/svg11.dtd">
<svg version="1.1" id="Calque_1" xmlns="http://www.w3.org/2000/svg" xmlns:xlink="http://www.w3.org/1999/xlink" x="0px" y="0px"
	 width="788px" height="362px" viewBox="0 0 788 362" enable-background="new 0 0 788 362" xml:space="preserve">
<g>
	<path d="M90.951,324.779l33.221-11.471V152.737l-33.221-11.469l2.371-7.119h56.556l3.166,35.991
		c13.052-22.542,39.156-39.944,66.049-39.944c23.729,0,52.996,8.701,60.908,42.712c12.656-23.728,39.55-42.712,67.631-42.712
		c28.08,0,63.28,11.863,63.28,63.279v119.441l33.221,11.865l-2.371,7.117h-91.355l-2.372-7.117l33.221-11.471V203.359
		c0-39.548-20.17-55.369-45.485-55.369c-31.244,0-53.392,35.594-53.392,55.369v109.556l33.221,11.864l-2.372,7.115h-91.359
		l-2.371-7.115l33.221-11.471V203.355c0-39.548-20.17-55.371-45.485-55.371c-31.244,0-53.392,35.594-53.392,55.371v109.558
		l33.221,11.864l-2.372,7.117H93.32L90.951,324.779z"/>
	<path d="M569.235,64.936V183.98h58.139l14.635-37.967l7.118,2.373v84.636l-7.118,2.371l-14.237-37.572H569.24v118.65h104.81
		l19.38-54.977l7.118,3.561v66.842H500.818l-2.375-7.119l41.134-15.426V73.637L498.44,58.213l2.375-7.119H684.72v64.072l-7.12,2.373
		l-20.959-52.603H569.235L569.235,64.936z"/>
</g>
</svg>
