<?xml version="1.0" encoding="utf-8"?>
<!-- Generator: Adobe Illustrator 16.0.4, SVG Export Plug-In . SVG Version: 6.00 Build 0)  -->
<!DOCTYPE svg PUBLIC "-//W3C//DTD SVG 1.1//EN" "http://www.w3.org/Graphics/SVG/1.1/DTD/svg11.dtd">
<svg version="1.1" id="Calque_1" xmlns="http://www.w3.org/2000/svg" xmlns:xlink="http://www.w3.org/1999/xlink" x="0px" y="0px"
	 width="704px" height="362px" viewBox="0 0 704 362" enable-background="new 0 0 704 362" xml:space="preserve">
<g>
	<path d="M43.451,324.779l33.221-11.471V152.737l-33.221-11.469l2.371-7.119h56.556l3.166,35.991
		c13.052-22.542,39.156-39.944,66.049-39.944c23.729,0,52.996,8.701,60.908,42.712c12.656-23.728,39.55-42.712,67.631-42.712
		c28.08,0,63.28,11.863,63.28,63.279v119.441l33.221,11.865l-2.371,7.117h-91.359l-2.372-7.117l33.221-11.471V203.36
		c0-39.549-20.17-55.37-45.485-55.37c-31.245,0-53.392,35.594-53.392,55.37v109.555l33.221,11.864l-2.372,7.115h-91.36l-2.371-7.115
		l33.221-11.471V203.355c0-39.548-20.17-55.367-45.485-55.367c-31.244,0-53.392,35.594-53.392,55.367v109.558l33.221,11.864
		l-2.372,7.117H45.82L43.451,324.779z"/>
	<path d="M521.735,64.936V183.98h58.139l14.635-37.967l7.118,2.373v84.635l-7.118,2.371l-14.237-37.571h-58.535v118.649h104.811
		l19.38-54.976l7.118,3.56v66.842H453.315l-2.375-7.119l41.134-15.426V73.637L450.94,58.213l2.375-7.119h183.907v64.072l-7.12,2.373
		l-20.959-52.603H521.735z"/>
</g>
<rect fill="none" width="704" height="362"/>
</svg>
