<?xml version="1.0" encoding="utf-8"?>
<!-- Generator: Adobe Illustrator 16.0.4, SVG Export Plug-In . SVG Version: 6.00 Build 0)  -->
<!DOCTYPE svg PUBLIC "-//W3C//DTD SVG 1.1//EN" "http://www.w3.org/Graphics/SVG/1.1/DTD/svg11.dtd">
<svg version="1.1" id="Calque_1" xmlns="http://www.w3.org/2000/svg" xmlns:xlink="http://www.w3.org/1999/xlink" x="0px" y="0px"
	 width="788px" height="362px" viewBox="0 0 788 362" enable-background="new 0 0 788 362" xml:space="preserve">
<g>
	<path d="M90.951,324.779l33.221-11.471V152.737l-33.221-11.469l2.371-7.119h56.556l3.166,35.991
		c13.052-22.542,39.156-39.944,66.049-39.944c23.729,0,52.996,8.701,60.908,42.712c12.656-23.728,39.55-42.712,67.631-42.712
		c28.08,0,63.28,11.863,63.28,63.279v119.441l33.221,11.865l-2.371,7.117h-91.356l-2.372-7.117l33.221-11.471V203.359
		c0-39.548-20.17-55.369-45.485-55.369c-31.245,0-53.392,35.594-53.392,55.369v109.556l33.221,11.864l-2.372,7.115h-91.36
		l-2.371-7.115l33.221-11.471V203.355c0-39.548-20.17-55.37-45.485-55.37c-31.244,0-53.392,35.594-53.392,55.37v109.558
		l33.221,11.864l-2.372,7.117H93.32L90.951,324.779z"/>
	<path d="M569.235,64.936V183.98h58.139l14.635-37.967l7.118,2.373v84.636l-7.118,2.371l-14.237-37.572h-58.532v118.65H674.05
		l19.38-54.977l7.118,3.561v66.842h-199.73l-2.375-7.119l41.134-15.426V73.637L498.44,58.213l2.375-7.119H684.72v64.072l-7.12,2.373
		l-20.959-52.603H569.235L569.235,64.936z"/>
</g>
<circle fill="none" stroke="#FFFFFF" stroke-width="2" stroke-miterlimit="10" cx="347.631" cy="130.195" r="4.805"/>
<circle fill="none" stroke="#FFFFFF" stroke-width="2" stroke-miterlimit="10" cx="154" cy="207.695" r="4.805"/>
<circle fill="none" stroke="#FFFFFF" stroke-width="2" stroke-miterlimit="10" cx="124" cy="207.695" r="4.805"/>
<circle fill="none" stroke="#FFFFFF" stroke-width="2" stroke-miterlimit="10" cx="684.529" cy="114.167" r="4.805"/>
<text transform="matrix(1 0 0 1 362.5 134.1484)" fill="#FFFFFF" font-family="'Aileron-SemiBold'" font-size="14">overshoot</text>
<text transform="matrix(1 0 0 1 14.1387 134.1484)" fill="#FFFFFF" font-family="'Aileron-SemiBold'" font-size="14">x-height</text>
<text transform="matrix(1 0 0 1 607.9932 207.6953)" fill="#FFFFFF" font-family="'Aileron-SemiBold'" font-size="14">contrast</text>
<text transform="matrix(1 0 0 1 165.1665 207.6953)" fill="#FFFFFF" font-family="'Aileron-SemiBold'" font-size="14">stem</text>
<text transform="matrix(1 0 0 1 694.2217 114.166)" fill="#FFFFFF" font-family="'Aileron-SemiBold'" font-size="14">serif lenght</text>
<rect fill="none" width="788" height="362"/>
<line fill="none" stroke="#FFFFFF" stroke-width="2" stroke-miterlimit="10" x1="124" y1="207.695" x2="154" y2="207.695"/>
<circle fill="none" stroke="#FFFFFF" stroke-width="2" stroke-miterlimit="10" cx="599.5" cy="197.821" r="4.805"/>
<circle fill="none" stroke="#FFFFFF" stroke-width="2" stroke-miterlimit="10" cx="599.5" cy="183.98" r="4.805"/>
<line fill="none" stroke="#FFFFFF" stroke-width="2" stroke-miterlimit="10" x1="599.5" y1="183.98" x2="599.5" y2="197.82"/>
<circle fill="none" stroke="#FFFFFF" stroke-width="2" stroke-miterlimit="10" cx="78.667" cy="331.896" r="4.805"/>
<circle fill="none" stroke="#FFFFFF" stroke-width="2" stroke-miterlimit="10" cx="78.667" cy="134.149" r="4.805"/>
<line fill="none" stroke="#FFFFFF" stroke-width="2" stroke-miterlimit="10" x1="78.667" y1="134.149" x2="78.667" y2="331.898"/>
<text transform="matrix(1 0 0 1 403.6377 51.0938)" fill="#FFFFFF" font-family="'Aileron-SemiBold'" font-size="14">cap-height</text>
<circle fill="none" stroke="#FFFFFF" stroke-width="2" stroke-miterlimit="10" cx="485.333" cy="331.896" r="4.805"/>
<circle fill="none" stroke="#FFFFFF" stroke-width="2" stroke-miterlimit="10" cx="485.333" cy="51.094" r="4.805"/>
<line fill="none" stroke="#FFFFFF" stroke-width="2" stroke-miterlimit="10" x1="485.333" y1="51.094" x2="485.333" y2="331.898"/>
<line fill="none" stroke="#FFFFFF" stroke-miterlimit="10" x1="57" y1="331.898" x2="730" y2="331.898"/>
<g>
	<g>
		<line fill="none" stroke="#FFFFFF" stroke-miterlimit="10" x1="57" y1="134.149" x2="59" y2="134.149"/>
		
			<line fill="none" stroke="#FFFFFF" stroke-miterlimit="10" stroke-dasharray="4.018,6.027" x1="65.027" y1="134.149" x2="724.986" y2="134.149"/>
		<line fill="none" stroke="#FFFFFF" stroke-miterlimit="10" x1="728" y1="134.149" x2="730" y2="134.149"/>
	</g>
</g>
<g>
	<g>
		<line fill="none" stroke="#FFFFFF" stroke-miterlimit="10" x1="57" y1="51.094" x2="59" y2="51.094"/>
		
			<line fill="none" stroke="#FFFFFF" stroke-miterlimit="10" stroke-dasharray="4.018,6.027" x1="65.027" y1="51.094" x2="724.986" y2="51.094"/>
		<line fill="none" stroke="#FFFFFF" stroke-miterlimit="10" x1="728" y1="51.094" x2="730" y2="51.094"/>
	</g>
</g>
</svg>
