<?xml version="1.0" encoding="utf-8"?>
<!-- Generator: Adobe Illustrator 16.0.4, SVG Export Plug-In . SVG Version: 6.00 Build 0)  -->
<!DOCTYPE svg PUBLIC "-//W3C//DTD SVG 1.1//EN" "http://www.w3.org/Graphics/SVG/1.1/DTD/svg11.dtd">
<svg version="1.1" id="Calque_1" xmlns="http://www.w3.org/2000/svg" xmlns:xlink="http://www.w3.org/1999/xlink" x="0px" y="0px"
	 width="788px" height="362px" viewBox="-47.5 0 788 362" enable-background="new -47.5 0 788 362" xml:space="preserve">
<g>
	<path d="M43.451,324.779l33.221-11.471V152.737l-33.221-11.469l2.371-7.119h56.556l3.166,35.991
		c13.052-22.542,39.156-39.944,66.049-39.944c23.729,0,52.996,8.701,60.908,42.712c12.656-23.728,39.55-42.712,67.631-42.712
		c28.08,0,63.28,11.863,63.28,63.279v119.441l33.221,11.865l-2.371,7.117h-91.359l-2.372-7.117l33.221-11.471V203.36
		c0-39.549-20.17-55.37-45.485-55.37c-31.245,0-53.392,35.594-53.392,55.37v109.555l33.221,11.864l-2.372,7.115h-91.36l-2.371-7.115
		l33.221-11.471V203.355c0-39.548-20.17-55.367-45.485-55.367c-31.244,0-53.392,35.594-53.392,55.367v109.558l33.221,11.864
		l-2.372,7.117H45.82L43.451,324.779z"/>
	<path d="M521.735,64.936V183.98h58.139l14.635-37.967l7.118,2.373v84.635l-7.118,2.371l-14.237-37.571h-58.535v118.649h104.811
		l19.38-54.976l7.118,3.56v66.842H453.315l-2.375-7.119l41.134-15.426V73.637L450.94,58.213l2.375-7.119h183.907v64.072l-7.12,2.373
		l-20.959-52.603H521.735z"/>
</g>
<circle fill="none" stroke="#FFFFFF" stroke-width="2" stroke-miterlimit="10" cx="300.131" cy="130.195" r="4.805"/>
<circle fill="none" stroke="#FFFFFF" stroke-width="2" stroke-miterlimit="10" cx="106.5" cy="207.695" r="4.805"/>
<circle fill="none" stroke="#FFFFFF" stroke-width="2" stroke-miterlimit="10" cx="76.5" cy="207.695" r="4.805"/>
<circle fill="none" stroke="#FFFFFF" stroke-width="2" stroke-miterlimit="10" cx="396.632" cy="324.781" r="4.805"/>
<text transform="matrix(1 0 0 1 315 122.0015)" fill="#FFFFFF" font-family="'Aileron-SemiBold'" font-size="14">overshoot</text>
<text transform="matrix(1 0 0 1 -33.3613 134.1489)" fill="#FFFFFF" font-family="'Aileron-SemiBold'" font-size="14">x-height</text>
<text transform="matrix(1 0 0 1 562.4932 183.9805)" fill="#FFFFFF" font-family="'Aileron-SemiBold'" font-size="14">contrast</text>
<text transform="matrix(1 0 0 1 33 207.6953)" fill="#FFFFFF" font-family="'Aileron-SemiBold'" font-size="14">stem</text>
<text transform="matrix(1 0 0 1 369.3887 311.002)" fill="#FFFFFF" font-family="'Aileron-SemiBold'" font-size="14">serif lenght</text>
<rect fill="none" width="704" height="362"/>
<line fill="none" stroke="#FFFFFF" stroke-width="2" stroke-miterlimit="10" x1="76.5" y1="207.695" x2="106.5" y2="207.695"/>
<circle fill="none" stroke="#FFFFFF" stroke-width="2" stroke-miterlimit="10" cx="548.109" cy="197.821" r="4.805"/>
<circle fill="none" stroke="#FFFFFF" stroke-width="2" stroke-miterlimit="10" cx="548.109" cy="183.98" r="4.805"/>
<line fill="none" stroke="#FFFFFF" stroke-width="2" stroke-miterlimit="10" x1="548.109" y1="183.98" x2="548.109" y2="197.821"/>
<circle fill="none" stroke="#FFFFFF" stroke-width="2" stroke-miterlimit="10" cx="31.167" cy="331.896" r="4.805"/>
<circle fill="none" stroke="#FFFFFF" stroke-width="2" stroke-miterlimit="10" cx="31.167" cy="134.149" r="4.805"/>
<line fill="none" stroke="#FFFFFF" stroke-width="2" stroke-miterlimit="10" x1="31.167" y1="134.149" x2="31.167" y2="331.898"/>
<text transform="matrix(1 0 0 1 364.1387 51.0942)" fill="#FFFFFF" font-family="'Aileron-SemiBold'" font-size="14">cap-height</text>
<circle fill="none" stroke="#FFFFFF" stroke-width="2" stroke-miterlimit="10" cx="445.834" cy="331.896" r="4.805"/>
<circle fill="none" stroke="#FFFFFF" stroke-width="2" stroke-miterlimit="10" cx="445.834" cy="51.094" r="4.805"/>
<line fill="none" stroke="#FFFFFF" stroke-width="2" stroke-miterlimit="10" x1="445.834" y1="51.094" x2="445.834" y2="331.898"/>
<line fill="none" stroke="#FFFFFF" stroke-miterlimit="10" x1="9.5" y1="331.898" x2="682.5" y2="331.898"/>
<g>
	<g>
		<line fill="none" stroke="#FFFFFF" stroke-miterlimit="10" x1="9.5" y1="134.149" x2="11.5" y2="134.149"/>
		
			<line fill="none" stroke="#FFFFFF" stroke-miterlimit="10" stroke-dasharray="4.018,6.027" x1="17.527" y1="134.149" x2="677.486" y2="134.149"/>
		<line fill="none" stroke="#FFFFFF" stroke-miterlimit="10" x1="680.5" y1="134.149" x2="682.5" y2="134.149"/>
	</g>
</g>
<g>
	<g>
		<line fill="none" stroke="#FFFFFF" stroke-miterlimit="10" x1="9.5" y1="51.094" x2="11.5" y2="51.094"/>
		
			<line fill="none" stroke="#FFFFFF" stroke-miterlimit="10" stroke-dasharray="4.018,6.027" x1="17.527" y1="51.094" x2="677.486" y2="51.094"/>
		<line fill="none" stroke="#FFFFFF" stroke-miterlimit="10" x1="680.5" y1="51.094" x2="682.5" y2="51.094"/>
	</g>
</g>
</svg>
