<?xml version="1.0" encoding="utf-8"?>
<!-- Generator: Adobe Illustrator 16.0.0, SVG Export Plug-In . SVG Version: 6.00 Build 0)  -->
<!DOCTYPE svg PUBLIC "-//W3C//DTD SVG 1.1//EN" "http://www.w3.org/Graphics/SVG/1.1/DTD/svg11.dtd">
<svg version="1.1" id="Layer_1" xmlns="http://www.w3.org/2000/svg" xmlns:xlink="http://www.w3.org/1999/xlink" x="0px" y="0px"
	 width="895.455px" height="754.462px" viewBox="0 0 895.455 754.462" enable-background="new 0 0 895.455 754.462"
	 xml:space="preserve">
<g>
	<path d="M455.062,149.756c-0.986-2.279-1.834-4.682-2.542-7.209c-0.709-2.526-1.217-5.114-1.525-7.764
		c-2.773,4.868-6.424,8.904-10.953,12.107c-4.528,3.203-9.936,4.806-16.22,4.806c-10.476,0-18.547-2.695-24.215-8.087
		c-5.67-5.391-8.503-12.739-8.503-22.043c0-9.797,3.773-17.39,11.322-22.782c7.547-5.391,18.561-8.087,33.042-8.087h15.065v-7.949
		c0-4.806-1.264-8.533-3.789-11.183c-2.527-2.648-6.255-3.974-11.184-3.974c-4.375,0-7.749,1.062-10.12,3.188
		c-2.373,2.125-3.559,5.069-3.559,8.826l-26.063-0.092l-0.092-0.555c-0.432-8.44,3.235-15.726,10.999-21.858
		c7.763-6.13,17.96-9.196,30.592-9.196c11.953,0,21.657,3.036,29.113,9.104c7.455,6.069,11.183,14.711,11.183,25.925v41.313
		c0,4.683,0.354,9.089,1.063,13.216c0.708,4.129,1.833,8.226,3.374,12.292H455.062z M430.385,131.734
		c4.744,0,8.965-1.17,12.662-3.512c3.697-2.341,6.192-5.052,7.486-8.133v-14.141h-15.065c-5.73,0-10.074,1.433-13.032,4.298
		S418,116.576,418,120.643c0,3.327,1.109,6.007,3.327,8.041C423.545,130.717,426.564,131.734,430.385,131.734z"/>
</g>
<g>
	<path d="M458.368,336.074c-0.801-2.526-1.464-4.991-1.987-7.394c-0.524-2.403-0.878-4.806-1.063-7.209
		c-3.082,4.684-7.133,8.611-12.154,11.784c-5.022,3.173-10.645,4.76-16.867,4.76c-10.414,0-18.408-2.68-23.984-8.041
		c-5.577-5.36-8.364-12.723-8.364-22.089c0-9.672,3.82-17.205,11.461-22.598c7.639-5.391,18.392-8.087,32.256-8.087h17.468v-8.78
		c0-5.236-1.541-9.335-4.621-12.292c-3.082-2.958-7.486-4.436-13.217-4.436c-5.115,0-9.182,1.233-12.2,3.697
		c-3.02,2.465-4.529,5.638-4.529,9.52H398.94l-0.093-0.554c-0.432-7.887,3.096-14.88,10.583-20.98s17.237-9.15,29.252-9.15
		c11.646,0,21.041,2.958,28.189,8.873c7.147,5.915,10.721,14.418,10.721,25.509v44.456c0,4.129,0.277,8.087,0.832,11.876
		c0.555,3.79,1.447,7.502,2.68,11.137H458.368z M430.826,319.993c5.668,0,10.767-1.417,15.296-4.251
		c4.529-2.833,7.533-6.068,9.011-9.705v-14.788h-17.838c-6.532,0-11.645,1.618-15.342,4.853c-3.697,3.235-5.545,7.04-5.545,11.414
		c0,3.821,1.248,6.855,3.743,9.104C422.646,318.869,426.205,319.993,430.826,319.993z"/>
</g>
<g>
	<path fill="#FFFFFF" d="M613.463,336.074c-0.986-2.279-1.834-4.682-2.542-7.209c-0.709-2.526-1.218-5.114-1.525-7.764
		c-2.772,4.868-6.423,8.904-10.952,12.107c-4.528,3.203-9.936,4.806-16.22,4.806c-10.477,0-18.547-2.695-24.216-8.087
		c-5.669-5.391-8.503-12.739-8.503-22.043c0-9.797,3.773-17.39,11.322-22.782c7.547-5.391,18.562-8.087,33.041-8.087h15.065v-7.949
		c0-4.806-1.264-8.533-3.789-11.183c-2.527-2.648-6.255-3.974-11.184-3.974c-4.376,0-7.749,1.062-10.12,3.188
		c-2.373,2.125-3.559,5.069-3.559,8.826l-26.063-0.092l-0.093-0.555c-0.432-8.44,3.235-15.726,10.999-21.858
		c7.764-6.13,17.96-9.196,30.592-9.196c11.953,0,21.658,3.036,29.114,9.104c7.454,6.069,11.183,14.711,11.183,25.925v41.313
		c0,4.683,0.354,9.089,1.063,13.216c0.707,4.129,1.832,8.226,3.373,12.292H613.463z M588.785,318.052
		c4.744,0,8.965-1.17,12.662-3.512c3.697-2.341,6.192-5.052,7.486-8.133v-14.141h-15.065c-5.729,0-10.074,1.433-13.031,4.298
		c-2.958,2.865-4.437,6.331-4.437,10.398c0,3.327,1.109,6.007,3.327,8.041C581.946,317.035,584.964,318.052,588.785,318.052z"/>
</g>
<g>
	<path d="M307.367,340.049c-0.739-3.388-1.263-6.315-1.571-8.78c-0.309-2.464-0.462-4.959-0.462-7.486
		c-3.697,5.238-8.627,9.582-14.788,13.032c-6.162,3.45-13.094,5.176-20.795,5.176c-9.736,0-17.299-2.588-22.69-7.764
		c-5.393-5.176-8.087-12.107-8.087-20.795c0-9.242,3.989-16.636,11.969-22.182c7.979-5.545,18.746-8.318,32.302-8.318h22.089
		v-12.385c0-7.147-2.296-12.754-6.886-16.821c-4.591-4.067-11.014-6.1-19.27-6.1c-7.703,0-14.095,1.941-19.178,5.823
		c-5.083,3.882-7.625,8.627-7.625,14.233l-10.167-0.093l-0.185-0.554c-0.37-7.455,3.034-14.125,10.213-20.01
		c7.177-5.883,16.312-8.827,27.403-8.827c11.029,0,19.901,2.805,26.618,8.411c6.715,5.607,10.074,13.648,10.074,24.123v49.169
		c0,3.512,0.199,6.932,0.601,10.259c0.4,3.327,1.063,6.624,1.987,9.889H307.367z M271.044,332.193
		c7.948,0,14.973-1.863,21.073-5.592c6.1-3.727,10.504-8.487,13.216-14.279v-20.888H283.06c-10.044,0-18.069,2.142-24.077,6.423
		c-6.007,4.283-9.011,9.598-9.011,15.943c0,5.423,1.863,9.843,5.592,13.263C259.291,330.483,264.451,332.193,271.044,332.193z"/>
</g>
<g>
	<path d="M446.284,514.569c-0.125-2.464-0.185-4.744-0.185-6.84c0-2.094,0.123-4.158,0.37-6.192
		c-3.512,4.437-7.502,8.041-11.969,10.814c-4.468,2.772-9.073,4.158-13.817,4.158c-7.518,0-13.17-2.71-16.96-8.133
		c-3.789-5.421-4.792-12.508-3.003-21.258c2.033-10.166,6.608-17.821,13.725-22.967c7.117-5.145,16.405-7.718,27.866-7.718h12.939
		l2.034-10.259c1.231-6.47,0.97-11.322-0.786-14.557c-1.756-3.235-5.007-4.853-9.751-4.853c-3.882,0-7.456,1.557-10.721,4.668
		c-3.267,3.111-5.33,6.947-6.192,11.506l-17.653-0.092l-0.185-0.555c1.355-8.194,5.652-15.172,12.894-20.934
		c7.239-5.761,15.851-8.642,25.832-8.642c8.873,0,15.805,2.957,20.795,8.872c4.991,5.915,6.438,14.173,4.344,24.77l-9.335,46.396
		c-0.801,4.067-1.326,7.826-1.571,11.276c-0.247,3.451-0.217,6.963,0.092,10.536H446.284z M427.799,502.092
		c3.758,0,7.593-1.294,11.507-3.882c3.912-2.588,7.07-5.791,9.473-9.611l4.067-20.519h-13.124c-4.931,0-9.305,1.88-13.125,5.638
		c-3.821,3.76-6.224,8.195-7.209,13.31c-0.986,4.806-0.771,8.519,0.647,11.137C421.452,500.784,424.04,502.092,427.799,502.092z"/>
</g>
<g>
	<path d="M599.711,514.569c-0.37-1.664-0.633-3.45-0.786-5.36c-0.154-1.909-0.23-3.882-0.23-5.915
		c-3.082,4.006-6.486,7.209-10.213,9.611c-3.729,2.403-7.78,3.604-12.154,3.604c-7.394,0-13.048-2.757-16.96-8.271
		c-3.913-5.514-4.977-12.708-3.188-21.581c2.094-10.474,6.593-18.254,13.494-23.337c6.9-5.083,16.42-7.625,28.559-7.625h8.873
		l1.663-8.133c0.985-5.176,0.985-8.996,0-11.461c-0.986-2.464-3.081-3.697-6.284-3.697c-2.403,0-4.499,1.079-6.285,3.235
		c-1.788,2.157-3.05,5.176-3.789,9.058l-25.231-0.093l-0.186-0.555c1.602-9.303,6.161-16.852,13.679-22.644
		c7.517-5.791,16.667-8.688,27.45-8.688c9.365,0,16.713,3.081,22.043,9.242c5.329,6.162,6.916,14.757,4.76,25.786l-8.133,40.481
		c-1.049,5.176-1.649,9.797-1.803,13.863c-0.154,4.067,0.046,8.226,0.601,12.478H599.711z M587.88,496.731
		c2.219,0,4.451-0.677,6.701-2.033c2.248-1.354,4.205-3.143,5.869-5.36l3.696-18.577h-8.872c-3.267,0-6.008,1.402-8.226,4.205
		c-2.219,2.805-3.729,6.301-4.529,10.49c-0.739,3.574-0.616,6.347,0.37,8.318C583.874,495.747,585.538,496.731,587.88,496.731z"/>
</g>
<g>
	<path d="M306.458,514.569c-0.554-3.45-0.97-6.285-1.248-8.503s-0.416-4.467-0.416-6.747c-3.02,4.991-6.948,9.104-11.784,12.339
		c-4.837,3.234-10.212,4.852-16.128,4.852c-8.257,0-14.635-2.571-19.131-7.717c-4.499-5.145-6.747-12.092-6.747-20.842
		c0-9.303,3.265-16.713,9.797-22.228c6.53-5.514,15.373-8.272,26.525-8.272h17.468v-12.292c0-7.085-1.788-12.631-5.36-16.637
		c-3.574-4.004-8.565-6.007-14.973-6.007c-5.978,0-10.892,1.91-14.742,5.729c-3.852,3.821-5.776,8.503-5.776,14.049l-10.352-0.093
		l-0.185-0.555c-0.309-7.517,2.542-14.217,8.549-20.102c6.007-5.884,13.693-8.826,23.06-8.826c9.243,0,16.697,2.818,22.367,8.456
		c5.668,5.638,8.503,13.695,8.503,24.169v49.077c0,3.574,0.153,7.024,0.462,10.352c0.308,3.327,0.862,6.594,1.664,9.797H306.458z
		 M278.269,506.528c6.161,0,11.629-1.771,16.405-5.314c4.774-3.542,8.147-8.055,10.12-13.54v-21.627h-17.745
		c-7.579,0-13.633,2.142-18.162,6.424c-4.529,4.283-6.793,9.565-6.793,15.851c0,5.36,1.417,9.736,4.251,13.124
		C269.18,504.835,273.154,506.528,278.269,506.528z"/>
</g>
<g>
	<path d="M450.512,689.777c0-3.019,0.061-5.499,0.185-7.44c0.123-1.94,0.338-3.928,0.647-5.961
		c-4.129,4.376-8.858,8.026-14.187,10.952c-5.33,2.926-10.675,4.39-16.036,4.39c-9.12,0-15.851-2.726-20.194-8.179
		c-4.344-5.453-5.562-12.739-3.651-21.858c1.971-10.167,6.978-17.792,15.019-22.875c8.041-5.083,18.346-7.625,30.916-7.625h17.099
		l1.941-9.89c1.231-6.223,0.554-10.952-2.034-14.187c-2.588-3.235-6.901-4.853-12.939-4.853c-5.175,0-9.859,1.525-14.048,4.575
		c-4.191,3.05-6.686,6.608-7.486,10.675h-16.914l-0.185-0.555c1.232-7.701,5.853-14.464,13.863-20.287
		c8.009-5.822,17.561-8.733,28.651-8.733c9.92,0,17.76,2.942,23.522,8.826c5.76,5.885,7.593,14.126,5.5,24.724l-9.612,48.152
		c-0.801,3.759-1.356,7.241-1.664,10.444c-0.309,3.204-0.309,6.438,0,9.704H450.512z M426.852,676.469
		c4.991,0,10.074-1.447,15.25-4.345c5.175-2.896,9.18-6.314,12.015-10.259l3.697-18.393h-17.653c-6.1,0-11.585,1.881-16.452,5.639
		c-4.868,3.759-7.764,8.072-8.688,12.938c-0.986,4.746-0.524,8.334,1.387,10.768C418.317,675.252,421.799,676.469,426.852,676.469z"
		/>
</g>
<g>
	<path d="M599.746,689.777c-0.37-1.664-0.633-3.45-0.786-5.36c-0.154-1.909-0.23-3.882-0.23-5.915
		c-3.082,4.006-6.486,7.209-10.213,9.611c-3.729,2.403-7.78,3.604-12.154,3.604c-7.394,0-13.048-2.757-16.96-8.271
		c-3.913-5.514-4.977-12.708-3.188-21.581c2.094-10.474,6.593-21.254,13.494-26.337c6.9-5.083,16.42-7.625,28.559-7.625h8.873
		l2.663-11.133c0.985-5.176,0.985-8.996,0-11.461c-0.986-2.464-3.081-3.697-6.284-3.697c-2.403,0-4.499,1.079-6.285,3.235
		c-1.788,2.157-3.05,5.176-3.789,9.058l-25.231-0.093l-0.186-0.555c1.602-9.303,6.161-16.852,13.679-22.644
		c7.517-5.791,16.667-8.688,27.45-8.688c9.365,0,16.713,3.081,22.043,9.242c5.329,6.162,6.916,14.757,4.76,25.786l-9.133,46.481
		c-1.049,5.176-1.649,9.797-1.803,13.863c-0.154,4.067,0.046,8.226,0.601,12.478H599.746z M587.915,671.939
		c2.219,0,4.451-0.677,6.701-2.033c2.248-1.354,4.205-3.143,5.869-5.36l3.696-21.577h-8.872c-3.267,0-6.008,1.402-8.226,4.205
		c-2.219,2.805-3.729,9.301-4.529,13.49c-0.739,3.574-0.616,6.347,0.37,8.318C583.909,670.955,585.573,671.939,587.915,671.939z"/>
</g>
<g>
	<path d="M778.593,689.777c-1.16-2.279-2.157-4.682-2.99-7.209c-0.834-2.525-1.433-5.113-1.794-7.764
		c-3.261,4.868-7.555,8.904-12.882,12.107c-5.326,3.203-11.686,4.806-19.077,4.806c-12.322,0-21.814-2.694-28.481-8.087
		c-6.668-5.391-10.001-12.738-10.001-22.043c0-9.797,4.438-17.39,13.316-22.782c8.877-5.391,21.832-8.087,38.862-8.087h17.72v-7.948
		c0-4.807-1.486-8.534-4.457-11.184c-2.973-2.648-7.356-3.975-13.153-3.975c-5.147,0-9.114,1.063-11.903,3.188
		c-2.791,2.126-4.186,5.069-4.186,8.827l-30.655-0.093l-0.108-0.555c-0.508-8.44,3.805-15.727,12.937-21.858
		c9.131-6.13,21.124-9.195,35.98-9.195c14.06,0,25.474,3.035,34.243,9.104c8.768,6.069,13.153,14.711,13.153,25.925v41.313
		c0,4.683,0.417,9.089,1.251,13.217c0.831,4.128,2.154,8.226,3.967,12.292H778.593z M749.567,671.755
		c5.58,0,10.544-1.17,14.893-3.513c4.349-2.341,7.283-5.051,8.806-8.133v-14.141h-17.72c-6.739,0-11.849,1.433-15.327,4.298
		c-3.479,2.864-5.218,6.331-5.218,10.397c0,3.327,1.305,6.008,3.913,8.041C741.523,670.738,745.073,671.755,749.567,671.755z"/>
</g>
<g>
	<path d="M297,689.777c0.123-3.266,0.292-6.022,0.508-8.271c0.215-2.249,0.539-4.544,0.97-6.886
		c-3.759,4.93-8.257,9.011-13.494,12.246c-5.238,3.234-10.661,4.852-16.267,4.852c-7.394,0-12.833-2.634-16.313-7.901
		c-3.482-5.269-4.36-12.154-2.634-20.657c1.909-9.857,6.47-17.406,13.679-22.644c7.209-5.236,16.205-7.856,26.988-7.856h16.359
		l2.495-12.292c1.479-7.517,0.955-13.171-1.571-16.96c-2.527-3.789-6.872-5.684-13.032-5.684c-5.238,0-10.152,1.926-14.741,5.776
		c-4.591,3.852-7.41,8.519-8.457,14.002l-9.981-0.093l-0.185-0.555c1.294-8.009,5.314-14.834,12.062-20.472
		c6.747-5.638,14.679-8.456,23.799-8.456c8.256,0,14.664,2.864,19.224,8.595c4.559,5.73,5.823,13.741,3.79,24.03l-9.797,49.077
		c-0.802,3.697-1.372,7.148-1.71,10.352c-0.339,3.204-0.448,6.47-0.324,9.797H297z M272.046,681.736
		c5.421,0,10.828-1.816,16.22-5.453c5.391-3.635,9.596-8.163,12.616-13.586l4.252-21.442h-16.729
		c-6.654,0-12.662,2.172-18.022,6.516c-5.361,4.344-8.627,9.598-9.797,15.759c-1.171,5.669-0.771,10.12,1.201,13.354
		C263.758,680.119,267.178,681.736,272.046,681.736z"/>
</g>
<g>
	<path d="M151.714,689.777c-0.74-3.388-1.264-6.315-1.571-8.78c-0.309-2.464-0.462-4.959-0.462-7.486
		c-3.697,5.238-8.627,9.582-14.788,13.032c-6.162,3.449-13.094,5.175-20.795,5.175c-9.797,0-17.375-2.525-22.736-7.578
		c-5.36-5.052-8.041-11.891-8.041-20.519c0-9.242,3.974-16.574,11.922-21.996c7.949-5.422,18.73-8.134,32.349-8.134h22.089v-13.217
		c0-7.146-2.296-12.754-6.885-16.821c-4.591-4.066-11.015-6.1-19.271-6.1c-5.545,0-10.614,0.755-15.204,2.265
		c-4.591,1.511-8.427,3.558-11.507,6.146l-0.924,13.402h-9.15l0.092-19.225c4.622-3.573,10.151-6.47,16.59-8.688
		c6.438-2.219,13.293-3.327,20.564-3.327c11.029,0,19.902,2.804,26.618,8.41c6.715,5.607,10.074,13.648,10.074,24.122v49.17
		c0,2.033,0.046,3.99,0.139,5.869c0.092,1.88,0.292,3.713,0.601,5.499l9.981,0.647v8.133H151.714z M115.299,681.921
		c8.009,0,15.065-1.848,21.165-5.545s10.504-8.472,13.216-14.326v-20.056h-22.274c-10.044,0-18.069,2.08-24.076,6.238
		c-6.008,4.159-9.012,9.413-9.012,15.759c0,5.36,1.863,9.69,5.592,12.985C103.637,680.273,108.767,681.921,115.299,681.921z"/>
</g>
<line fill="none" stroke="#000000" stroke-width="1.144" stroke-miterlimit="10" x1="382.174" y1="164.812" x2="335.688" y2="208.695"/>
<path d="M329.248,214.757c2.006-4.058,3.993-9.626,4.414-13.936l3.008,6.934l6.746,3.405
	C339.089,211.331,333.415,212.989,329.248,214.757"/>
<line fill="none" stroke="#000000" stroke-width="1.144" stroke-miterlimit="10" x1="382.174" y1="347.916" x2="335.688" y2="391.799"/>
<path d="M329.248,397.86c2.006-4.057,3.993-9.626,4.414-13.936l3.008,6.935l6.746,3.403
	C339.089,394.433,333.415,396.092,329.248,397.86"/>
<line fill="none" stroke="#000000" stroke-width="1.144" stroke-miterlimit="10" x1="596.521" y1="525.914" x2="596.076" y2="557.417"/>
<path d="M596.225,566.442c-1.562-4.249-4.233-9.521-7.07-12.795l7.102,2.592l7.112-2.55
	C600.514,556.945,597.811,562.203,596.225,566.442"/>
<line fill="none" stroke="#000000" stroke-width="1.144" stroke-miterlimit="10" x1="596.521" y1="351.931" x2="596.076" y2="383.434"/>
<path d="M596.225,392.459c-1.562-4.249-4.233-9.522-7.07-12.795l7.102,2.591l7.112-2.549
	C600.514,382.962,597.811,388.22,596.225,392.459"/>
<line fill="none" stroke="#000000" stroke-width="1.144" stroke-miterlimit="10" x1="633.972" y1="354.167" x2="733.882" y2="553.989"/>
<path d="M737.751,561.983c-3.305-3.095-8.06-6.608-12.063-8.258l7.509-0.873l5.211-5.472
	C737.317,551.571,737.265,557.483,737.751,561.983"/>
<line fill="none" stroke="#000000" stroke-width="1.144" stroke-miterlimit="10" x1="384.107" y1="513.496" x2="191.668" y2="585.884"/>
<path d="M183.283,588.885c3.422-2.965,7.41-7.328,9.468-11.139l0.086,7.559l4.901,5.753
	C193.683,589.537,187.809,588.869,183.283,588.885"/>
<path fill="none" stroke="#000000" stroke-width="1.144" stroke-miterlimit="10" d="M220.729,342.133
	c0,0-54.059,27.942-54.059,93.803c0,51.18,35.364,83.679,51.131,95.626"/>
<path d="M225.13,536.576c-4.374-1.167-10.224-2.017-14.533-1.58l6.206-4.315l2.007-7.285
	C219.83,527.604,222.575,532.841,225.13,536.576"/>
</svg>
