<?xml version="1.0" encoding="utf-8"?>
<!-- Generator: Adobe Illustrator 16.0.0, SVG Export Plug-In . SVG Version: 6.00 Build 0)  -->
<!DOCTYPE svg PUBLIC "-//W3C//DTD SVG 1.1//EN" "http://www.w3.org/Graphics/SVG/1.1/DTD/svg11.dtd">
<svg version="1.1" id="Layer_1" xmlns="http://www.w3.org/2000/svg" xmlns:xlink="http://www.w3.org/1999/xlink" x="0px" y="0px"
	 width="841.89px" height="595.28px" viewBox="0 0 841.89 595.28" enable-background="new 0 0 841.89 595.28" xml:space="preserve">
<path fill="#FFFFFF" d="M442.5,79.888h-47.777v41.883H442.5V79.888z M501.311,51.675v28.213h-28.465v130.916h-5.643L442.5,184.658
	v-34.672h-47.777v22.947c0,4.599-1.714,6.897-5.142,6.897c-3.846-0.082-12.75-7.689-26.709-22.822
	c-13.964-15.128-20.985-25.246-21.067-30.346c0-3.259,2.841-4.891,8.527-4.891h14.42V79.888H332.65V51.675H501.311z"/>
<path fill="#FFFFFF" d="M282.167,260.647h-46.472v40.662h46.472V260.647z M170.111,301.31h44.223v-40.662h-44.223V301.31z
	 M214.333,229.355c0-9.745-0.187-14.241-1.125-20.425h23.612c-0.751,5.809-1.125,10.68-1.125,19.674v12.181h51.345
	c8.243,0,12.178-0.188,17.051-0.75c-0.562,5.248-0.749,9.182-0.749,16.49v57.152c0,8.434,0.187,13.306,0.936,18.739h-22.111v-11.243
	h-46.472v38.039c0,11.243,0.374,16.676,1.312,23.236h-23.985c0.937-6.935,1.311-12.743,1.311-23.236v-38.039h-44.223v11.243H148
	c0.748-6.185,0.937-10.869,0.937-18.739v-57.34c0-6.934-0.189-10.306-0.75-16.303c5.434,0.562,9.369,0.75,16.865,0.75h49.282
	V229.355z"/>
<polygon fill="#FFFFFF" points="632.036,235.065 615.374,311.329 597.726,235.065 536.662,235.065 536.662,370.931 581.651,370.931 
	581.651,289.369 602.236,370.931 628.76,370.893 650.858,288.587 650.858,370.931 694.604,370.977 694.67,235.065 "/>
<path fill="#FFFFFF" d="M503.621,537.966c0,1.653-0.475,3.117-1.426,4.396c-0.952,1.278-2.305,1.918-4.061,1.918h-44.647
	c-1.757,0-3.12-0.64-4.099-1.918c-0.975-1.279-1.463-2.743-1.463-4.396c0-1.854,0.424-3.47,1.275-4.848
	c0.852-1.379,2.23-2.067,4.134-2.067h13.681v-79.604l-45.398,85.165c-0.504,1.304-1.382,2.444-2.634,3.42
	c-1.251,0.978-2.732,1.467-4.434,1.467c-1.553,0-2.944-0.416-4.173-1.24c-1.226-0.828-2.09-1.792-2.592-2.895l-42.543-86.968v80.654
	h15.258c1.904,0,3.281,0.688,4.134,2.067c0.852,1.378,1.279,2.994,1.279,4.848c0,1.653-0.491,3.117-1.467,4.396
	c-0.977,1.278-2.343,1.918-4.096,1.918h-47.431c-1.755,0-3.119-0.64-4.095-1.918c-0.978-1.279-1.466-2.743-1.466-4.396
	c0-1.854,0.424-3.47,1.277-4.848c0.851-1.379,2.229-2.067,4.134-2.067h16.763V428.674h-15.185c-1.905,0-3.282-0.689-4.133-2.068
	c-0.852-1.377-1.278-2.994-1.278-4.848c0-1.654,0.488-3.119,1.465-4.396c0.977-1.28,2.343-1.918,4.096-1.918h25.257
	c1.352,0,2.417,0.402,3.195,1.202c0.775,0.803,1.39,1.682,1.841,2.63l49.76,100.35l53.068-100.95
	c0.451-0.851,1.077-1.604,1.88-2.254c0.801-0.652,1.827-0.978,3.081-0.978h23.979c1.752,0,3.121,0.638,4.097,1.918
	c0.977,1.277,1.467,2.742,1.467,4.396c0,1.854-0.426,3.471-1.278,4.848c-0.854,1.379-2.229,2.068-4.135,2.068h-13.679v102.377
	h15.257c1.904,0,3.271,0.688,4.097,2.067C503.21,534.496,503.621,536.112,503.621,537.966"/>
<path fill="#FFFFFF" d="M503.565,371.786h-54.921v-5.847c16.914-1.67,17.75-2.713,17.539-24.851l-0.625-85.2h-0.836L413.77,370.325
	h-4.176l-46.779-111.515h-0.416l-3.133,59.517c-0.837,17.124-0.837,26.312-0.628,34.665c0.419,10.024,5.432,11.486,19.213,12.947
	v5.847h-48.657v-5.847c12.113-1.461,16.287-3.759,17.751-12.529c1.043-7.309,2.297-16.498,3.968-38.215l2.922-43.436
	c1.88-27.149,0.835-27.983-18.167-29.863v-5.848h34.247l47.614,104.416l48.238-104.416h35.502v5.848
	c-18.377,1.671-19.84,2.088-19.215,23.598l2.09,75.595c0.625,22.138,1.252,23.181,19.421,24.851V371.786z"/>
</svg>
