<?xml version="1.0" encoding="utf-8"?>
<!-- Generator: Adobe Illustrator 16.0.0, SVG Export Plug-In . SVG Version: 6.00 Build 0)  -->
<!DOCTYPE svg PUBLIC "-//W3C//DTD SVG 1.1//EN" "http://www.w3.org/Graphics/SVG/1.1/DTD/svg11.dtd">
<svg version="1.1" id="Layer_1" xmlns="http://www.w3.org/2000/svg" xmlns:xlink="http://www.w3.org/1999/xlink" x="0px" y="0px"
	 width="895.455px" height="754.462px" viewBox="0 0 895.455 754.462" enable-background="new 0 0 895.455 754.462"
	 xml:space="preserve">
<g>
	<path d="M452.513,175.77c-0.681-1.574-1.266-3.233-1.754-4.978c-0.49-1.744-0.841-3.531-1.053-5.36
		c-1.915,3.361-4.435,6.148-7.562,8.359c-3.126,2.211-6.86,3.318-11.199,3.318c-7.232,0-12.805-1.86-16.718-5.583
		c-3.915-3.722-5.871-8.795-5.871-15.22c0-6.764,2.605-12.006,7.817-15.729c5.21-3.722,12.815-5.584,22.812-5.584h10.401v-5.488
		c0-3.318-0.873-5.892-2.616-7.721c-1.745-1.829-4.319-2.744-7.722-2.744c-3.021,0-5.35,0.733-6.987,2.201
		c-1.638,1.467-2.457,3.5-2.457,6.094l-17.995-0.064l-0.064-0.383c-0.298-5.828,2.234-10.858,7.594-15.092
		c5.36-4.232,12.4-6.349,21.122-6.349c8.252,0,14.953,2.096,20.101,6.286c5.146,4.19,7.721,10.157,7.721,17.899v28.524
		c0,3.233,0.244,6.276,0.733,9.125c0.489,2.851,1.266,5.68,2.33,8.487H452.513z M435.475,163.327c3.275,0,6.19-0.808,8.743-2.425
		c2.553-1.616,4.275-3.488,5.168-5.615v-9.764h-10.401c-3.957,0-6.956,0.989-8.998,2.968c-2.042,1.978-3.063,4.371-3.063,7.179
		c0,2.297,0.766,4.148,2.297,5.552C430.752,162.624,432.837,163.327,435.475,163.327z"/>
</g>
<g>
	<path d="M454.795,304.409c-0.553-1.744-1.011-3.446-1.372-5.105c-0.362-1.659-0.606-3.318-0.733-4.977
		c-2.128,3.233-4.925,5.945-8.392,8.136c-3.468,2.19-7.35,3.286-11.646,3.286c-7.19,0-12.709-1.851-16.56-5.552
		c-3.851-3.701-5.775-8.784-5.775-15.251c0-6.679,2.637-11.879,7.913-15.602c5.275-3.722,12.699-5.584,22.271-5.584h12.06v-6.062
		c0-3.615-1.063-6.445-3.19-8.487c-2.128-2.042-5.169-3.062-9.125-3.062c-3.532,0-6.339,0.851-8.423,2.552
		c-2.085,1.702-3.127,3.893-3.127,6.573h-14.932l-0.063-0.383c-0.298-5.445,2.137-10.274,7.306-14.486
		c5.169-4.211,11.901-6.317,20.197-6.317c8.041,0,14.527,2.042,19.462,6.126c4.935,4.084,7.402,9.955,7.402,17.612v30.693
		c0,2.851,0.191,5.584,0.575,8.2c0.383,2.617,0.999,5.18,1.851,7.689H454.795z M435.78,293.306c3.913,0,7.434-0.978,10.561-2.935
		c3.126-1.957,5.2-4.19,6.221-6.701v-10.21h-12.316c-4.51,0-8.04,1.117-10.593,3.35c-2.552,2.233-3.829,4.861-3.829,7.881
		c0,2.638,0.862,4.733,2.584,6.286C430.132,292.531,432.588,293.306,435.78,293.306z"/>
</g>
<g>
	<path fill="#FFFFFF" d="M561.878,304.409c-0.681-1.573-1.267-3.232-1.755-4.978c-0.49-1.744-0.841-3.53-1.054-5.36
		c-1.914,3.361-4.435,6.147-7.562,8.359c-3.126,2.211-6.858,3.318-11.197,3.318c-7.234,0-12.806-1.86-16.72-5.583
		c-3.914-3.722-5.871-8.795-5.871-15.219c0-6.764,2.605-12.007,7.817-15.729c5.211-3.723,12.815-5.584,22.812-5.584h10.401v-5.488
		c0-3.318-0.872-5.892-2.615-7.721c-1.745-1.829-4.319-2.744-7.722-2.744c-3.021,0-5.351,0.734-6.988,2.202s-2.456,3.5-2.456,6.094
		l-17.995-0.063l-0.064-0.383c-0.298-5.827,2.233-10.858,7.594-15.091c5.36-4.232,12.4-6.349,21.122-6.349
		c8.253,0,14.953,2.096,20.102,6.286c5.146,4.19,7.721,10.157,7.721,17.899v28.524c0,3.233,0.245,6.275,0.734,9.125
		c0.488,2.851,1.266,5.679,2.328,8.487H561.878z M544.839,291.966c3.275,0,6.19-0.808,8.743-2.425s4.274-3.488,5.168-5.616v-9.764
		h-10.401c-3.955,0-6.956,0.989-8.997,2.967c-2.043,1.979-3.063,4.372-3.063,7.179c0,2.297,0.767,4.148,2.297,5.552
		C540.117,291.264,542.201,291.966,544.839,291.966z"/>
</g>
<g>
	<path d="M350.539,307.154c-0.51-2.339-0.872-4.36-1.084-6.062c-0.213-1.701-0.319-3.424-0.319-5.169
		c-2.552,3.616-5.956,6.616-10.209,8.998c-4.254,2.382-9.041,3.574-14.357,3.574c-6.723,0-11.944-1.787-15.666-5.36
		c-3.723-3.574-5.584-8.359-5.584-14.358c0-6.381,2.754-11.486,8.264-15.314c5.509-3.829,12.943-5.744,22.303-5.744h15.25v-8.551
		c0-4.935-1.585-8.806-4.754-11.614c-3.169-2.808-7.604-4.211-13.304-4.211c-5.319,0-9.732,1.34-13.242,4.02
		c-3.509,2.68-5.264,5.957-5.264,9.827l-7.02-0.064l-0.127-0.382c-0.255-5.147,2.095-9.753,7.051-13.816
		c4.956-4.062,11.263-6.094,18.92-6.094c7.615,0,13.74,1.937,18.377,5.807c4.637,3.872,6.956,9.423,6.956,16.655v33.948
		c0,2.425,0.138,4.786,0.415,7.083c0.276,2.297,0.734,4.573,1.372,6.828H350.539z M325.461,301.73
		c5.488,0,10.338-1.286,14.549-3.861c4.211-2.573,7.252-5.859,9.125-9.859v-14.421h-15.378c-6.935,0-12.476,1.479-16.624,4.435
		c-4.148,2.958-6.222,6.627-6.222,11.007c0,3.745,1.286,6.796,3.86,9.158C317.346,300.549,320.909,301.73,325.461,301.73z"/>
</g>
<g>
	<path d="M446.452,427.647c-0.086-1.701-0.128-3.275-0.128-4.723c0-1.445,0.085-2.871,0.255-4.275
		c-2.424,3.064-5.179,5.553-8.263,7.467c-3.085,1.914-6.265,2.871-9.541,2.871c-5.19,0-9.093-1.871-11.709-5.615
		c-2.616-3.742-3.308-8.635-2.073-14.678c1.404-7.018,4.562-12.303,9.476-15.855c4.914-3.553,11.327-5.33,19.24-5.33h8.933
		l1.404-7.082c0.85-4.467,0.67-7.816-0.542-10.051c-1.213-2.232-3.458-3.35-6.733-3.35c-2.68,0-5.148,1.074-7.402,3.223
		c-2.255,2.148-3.68,4.797-4.275,7.945l-12.188-0.064l-0.127-0.383c0.936-5.658,3.902-10.475,8.902-14.454
		c4.999-3.978,10.944-5.967,17.835-5.967c6.126,0,10.912,2.042,14.358,6.126c3.446,4.083,4.445,9.785,3,17.101l-6.445,32.035
		c-0.553,2.807-0.916,5.402-1.085,7.785c-0.171,2.381-0.15,4.807,0.063,7.273H446.452z M433.689,419.032
		c2.595,0,5.243-0.893,7.945-2.68c2.701-1.787,4.881-3.998,6.54-6.637l2.808-14.166h-9.062c-3.404,0-6.424,1.299-9.062,3.893
		c-2.638,2.596-4.297,5.658-4.977,9.189c-0.681,3.318-0.532,5.881,0.446,7.689S431.094,419.032,433.689,419.032z"/>
</g>
<g>
	<path d="M552.383,427.647c-0.256-1.148-0.437-2.383-0.543-3.699c-0.106-1.32-0.158-2.682-0.158-4.084
		c-2.129,2.764-4.479,4.977-7.053,6.635c-2.574,1.66-5.371,2.488-8.391,2.488c-5.104,0-9.009-1.902-11.71-5.711
		c-2.701-3.807-3.437-8.773-2.201-14.9c1.445-7.23,4.552-12.604,9.316-16.111c4.765-3.51,11.337-5.266,19.718-5.266h6.126
		l1.148-5.615c0.68-3.574,0.68-6.211,0-7.912c-0.682-1.701-2.128-2.553-4.339-2.553c-1.659,0-3.106,0.744-4.34,2.234
		c-1.234,1.488-2.104,3.572-2.615,6.252l-17.421-0.064l-0.129-0.383c1.106-6.422,4.254-11.635,9.444-15.633
		c5.19-3.998,11.508-5.998,18.953-5.998c6.467,0,11.539,2.128,15.22,6.382c3.679,4.253,4.774,10.187,3.286,17.802l-5.616,27.951
		c-0.724,3.572-1.139,6.764-1.244,9.57c-0.106,2.809,0.032,5.68,0.415,8.615H552.383z M544.214,415.331
		c1.532,0,3.073-0.467,4.627-1.402c1.552-0.936,2.903-2.17,4.053-3.701l2.552-12.826h-6.126c-2.255,0-4.147,0.969-5.679,2.904
		c-1.532,1.936-2.575,4.35-3.128,7.242c-0.51,2.467-0.425,4.381,0.256,5.742C541.448,414.653,542.597,415.331,544.214,415.331z"/>
</g>
<g>
	<path d="M349.912,427.647c-0.383-2.383-0.67-4.338-0.862-5.869c-0.191-1.531-0.287-3.086-0.287-4.66
		c-2.085,3.447-4.797,6.285-8.136,8.52c-3.34,2.232-7.051,3.35-11.135,3.35c-5.701,0-10.104-1.775-13.209-5.328
		c-3.106-3.551-4.659-8.348-4.659-14.389c0-6.424,2.255-11.539,6.764-15.348c4.509-3.807,10.614-5.711,18.314-5.711h12.061v-8.488
		c0-4.891-1.234-8.721-3.701-11.484c-2.468-2.766-5.914-4.148-10.337-4.148c-4.127,0-7.52,1.318-10.178,3.955
		c-2.659,2.639-3.988,5.871-3.988,9.701l-7.147-0.064l-0.127-0.383c-0.214-5.189,1.755-9.816,5.902-13.878
		c4.147-4.062,9.455-6.095,15.921-6.095c6.381,0,11.528,1.946,15.443,5.839c3.914,3.892,5.871,9.455,5.871,16.687v33.885
		c0,2.467,0.106,4.85,0.319,7.146c0.212,2.297,0.595,4.553,1.148,6.764H349.912z M330.449,422.097c4.253,0,8.03-1.223,11.327-3.67
		c3.296-2.445,5.625-5.561,6.988-9.348v-14.934h-12.252c-5.233,0-9.413,1.479-12.539,4.436c-3.127,2.957-4.69,6.605-4.69,10.945
		c0,3.701,0.978,6.721,2.935,9.061C324.174,420.927,326.918,422.097,330.449,422.097z"/>
</g>
<g>
	<path d="M449.372,548.616c0-2.084,0.042-3.795,0.127-5.137c0.085-1.34,0.233-2.711,0.447-4.115
		c-2.851,3.021-6.116,5.541-9.795,7.561c-3.68,2.021-7.37,3.031-11.071,3.031c-6.296,0-10.943-1.881-13.942-5.646
		c-3-3.766-3.84-8.795-2.521-15.092c1.361-7.02,4.818-12.283,10.37-15.793s12.667-5.266,21.345-5.266h11.805l1.34-6.828
		c0.85-4.295,0.382-7.561-1.404-9.793c-1.787-2.234-4.765-3.352-8.934-3.352c-3.573,0-6.807,1.053-9.7,3.158
		c-2.893,2.107-4.616,4.564-5.169,7.371h-11.678l-0.127-0.383c0.85-5.316,4.041-9.986,9.571-14.008
		c5.53-4.02,12.125-6.029,19.782-6.029c6.849,0,12.262,2.031,16.24,6.094c3.977,4.062,5.243,9.754,3.797,17.07l-6.637,33.246
		c-0.553,2.594-0.936,5-1.148,7.211c-0.213,2.213-0.213,4.445,0,6.699H449.372z M433.036,539.429c3.446,0,6.956-1,10.529-3
		c3.573-2,6.338-4.359,8.295-7.082l2.553-12.701h-12.188c-4.211,0-7.998,1.299-11.359,3.895s-5.36,5.572-5.999,8.934
		c-0.681,3.275-0.361,5.754,0.958,7.434S429.547,539.429,433.036,539.429z"/>
</g>
<g>
	<path d="M552.407,548.616c-0.256-1.148-0.438-2.383-0.543-3.701c-0.106-1.318-0.159-2.68-0.159-4.084
		c-2.128,2.766-4.478,4.979-7.051,6.637c-2.575,1.658-5.373,2.488-8.393,2.488c-5.104,0-9.009-1.902-11.709-5.711
		c-2.702-3.807-3.436-8.773-2.201-14.898c1.445-7.232,4.551-14.676,9.316-18.186c4.764-3.51,11.337-5.264,19.718-5.264h6.126
		l1.839-7.688c0.681-3.572,0.681-6.211,0-7.912s-2.127-2.553-4.339-2.553c-1.659,0-3.106,0.746-4.339,2.234
		c-1.235,1.488-2.106,3.572-2.617,6.254l-17.42-0.064l-0.128-0.385c1.105-6.422,4.254-11.633,9.444-15.633
		c5.189-3.998,11.507-5.998,18.952-5.998c6.466,0,11.539,2.127,15.219,6.381c3.68,4.256,4.775,10.189,3.286,17.805l-6.306,32.092
		c-0.724,3.572-1.139,6.764-1.244,9.57c-0.106,2.809,0.032,5.68,0.415,8.615H552.407z M544.238,536.302
		c1.532,0,3.074-0.469,4.627-1.404s2.903-2.17,4.053-3.701l2.552-14.896h-6.126c-2.255,0-4.148,0.967-5.679,2.902
		c-1.532,1.938-2.575,6.422-3.127,9.314c-0.511,2.467-0.426,4.381,0.255,5.742C541.473,535.622,542.622,536.302,544.238,536.302z"/>
</g>
<g>
	<path d="M675.889,548.616c-0.801-1.574-1.49-3.232-2.064-4.977c-0.576-1.744-0.989-3.531-1.239-5.361
		c-2.251,3.361-5.216,6.148-8.894,8.359c-3.678,2.213-8.068,3.318-13.172,3.318c-8.508,0-15.062-1.859-19.664-5.584
		c-4.604-3.721-6.905-8.793-6.905-15.219c0-6.764,3.064-12.006,9.194-15.729c6.129-3.723,15.073-5.584,26.831-5.584h12.235v-5.488
		c0-3.318-1.027-5.891-3.078-7.721c-2.053-1.828-5.079-2.744-9.082-2.744c-3.554,0-6.292,0.734-8.218,2.201
		c-1.927,1.469-2.89,3.5-2.89,6.094l-21.165-0.062l-0.075-0.383c-0.351-5.828,2.627-10.859,8.932-15.092s14.585-6.35,24.843-6.35
		c9.706,0,17.587,2.096,23.642,6.285c6.054,4.191,9.082,10.156,9.082,17.898v28.525c0,3.232,0.288,6.275,0.863,9.125
		c0.573,2.85,1.487,5.68,2.739,8.486H675.889z M655.849,536.173c3.852,0,7.279-0.807,10.282-2.424
		c3.002-1.617,5.028-3.488,6.08-5.615v-9.764h-12.235c-4.653,0-8.181,0.988-10.582,2.967s-3.603,4.371-3.603,7.18
		c0,2.297,0.901,4.146,2.702,5.551C650.295,535.472,652.745,536.173,655.849,536.173z"/>
</g>
<g>
	<path d="M343.382,548.616c0.084-2.254,0.201-4.158,0.351-5.711c0.149-1.553,0.372-3.137,0.67-4.754
		c-2.596,3.404-5.702,6.221-9.316,8.455c-3.617,2.232-7.36,3.35-11.231,3.35c-5.105,0-8.86-1.818-11.263-5.455
		c-2.404-3.637-3.01-8.391-1.819-14.262c1.318-6.807,4.467-12.018,9.444-15.635c4.978-3.615,11.188-5.424,18.633-5.424h11.295
		l1.723-8.486c1.021-5.189,0.659-9.094-1.084-11.709c-1.745-2.617-4.745-3.926-8.998-3.926c-3.616,0-7.009,1.33-10.178,3.988
		c-3.169,2.66-5.116,5.883-5.839,9.668l-6.891-0.064l-0.128-0.383c0.894-5.529,3.669-10.242,8.328-14.135
		c4.658-3.893,10.134-5.838,16.431-5.838c5.7,0,10.124,1.979,13.273,5.934c3.147,3.957,4.02,9.488,2.617,16.592l-6.764,33.885
		c-0.554,2.553-0.947,4.936-1.181,7.146c-0.234,2.213-0.309,4.467-0.223,6.764H343.382z M326.153,543.065
		c3.743,0,7.476-1.254,11.199-3.766c3.722-2.51,6.625-5.635,8.71-9.381l2.936-14.803h-11.551c-4.594,0-8.742,1.498-12.443,4.498
		c-3.702,2.998-5.957,6.625-6.764,10.881c-0.809,3.912-0.533,6.986,0.829,9.219C320.431,541.948,322.792,543.065,326.153,543.065z"
		/>
</g>
<g>
	<path d="M243.072,548.616c-0.511-2.338-0.873-4.359-1.084-6.062c-0.214-1.699-0.319-3.424-0.319-5.168
		c-2.553,3.617-5.957,6.615-10.21,8.998c-4.255,2.381-9.041,3.572-14.358,3.572c-6.764,0-11.997-1.742-15.698-5.232
		c-3.701-3.486-5.551-8.209-5.551-14.166c0-6.381,2.744-11.443,8.231-15.188c5.488-3.742,12.932-5.615,22.334-5.615h15.251v-9.125
		c0-4.934-1.585-8.805-4.754-11.613c-3.169-2.809-7.605-4.213-13.305-4.213c-3.829,0-7.328,0.521-10.497,1.564
		c-3.17,1.043-5.818,2.455-7.945,4.242l-0.638,9.254h-6.317l0.064-13.273c3.191-2.467,7.008-4.467,11.454-5.998
		c4.445-1.531,9.178-2.297,14.198-2.297c7.615,0,13.741,1.936,18.378,5.807c4.636,3.871,6.956,9.424,6.956,16.654v33.949
		c0,1.404,0.032,2.756,0.095,4.051c0.064,1.299,0.202,2.564,0.416,3.797l6.892,0.447v5.615H243.072z M217.93,543.192
		c5.53,0,10.401-1.275,14.613-3.828c4.211-2.553,7.252-5.85,9.125-9.891v-13.848h-15.379c-6.934,0-12.475,1.436-16.623,4.307
		c-4.148,2.871-6.222,6.5-6.222,10.881c0,3.701,1.286,6.689,3.861,8.965C209.878,542.056,213.42,543.192,217.93,543.192z"/>
</g>
<line fill="none" stroke="#000000" stroke-width="0.7899" stroke-miterlimit="10" x1="402.188" y1="186.165" x2="370.094" y2="216.463"/>
<path d="M365.646,220.648c1.386-2.802,2.757-6.646,3.048-9.622l2.077,4.788l4.658,2.351
	C372.441,218.283,368.524,219.428,365.646,220.648"/>
<line fill="none" stroke="#000000" stroke-width="0.7899" stroke-miterlimit="10" x1="402.188" y1="312.585" x2="370.094" y2="342.883"/>
<path d="M365.646,347.069c1.386-2.801,2.757-6.646,3.048-9.622l2.077,4.788l4.658,2.35
	C372.441,344.702,368.524,345.847,365.646,347.069"/>
<line fill="none" stroke="#000000" stroke-width="0.7899" stroke-miterlimit="10" x1="550.181" y1="435.481" x2="549.873" y2="457.231"/>
<path d="M549.976,463.462c-1.079-2.934-2.923-6.572-4.882-8.834l4.903,1.791l4.91-1.762
	C552.938,456.905,551.07,460.536,549.976,463.462"/>
<line fill="none" stroke="#000000" stroke-width="0.7899" stroke-miterlimit="10" x1="550.181" y1="315.357" x2="549.873" y2="337.108"/>
<path d="M549.976,343.339c-1.079-2.934-2.923-6.574-4.882-8.834l4.903,1.789l4.91-1.761
	C552.938,336.782,551.07,340.413,549.976,343.339"/>
<line fill="none" stroke="#000000" stroke-width="0.7899" stroke-miterlimit="10" x1="576.037" y1="316.901" x2="645.019" y2="454.864"/>
<path d="M647.689,460.384c-2.281-2.137-5.564-4.562-8.329-5.701l5.185-0.604l3.598-3.777
	C647.39,453.194,647.354,457.276,647.689,460.384"/>
<line fill="none" stroke="#000000" stroke-width="0.7899" stroke-miterlimit="10" x1="403.523" y1="426.907" x2="270.658" y2="476.886"/>
<path d="M264.868,478.958c2.363-2.047,5.116-5.061,6.538-7.691l0.059,5.219l3.384,3.973
	C272.049,479.407,267.993,478.946,264.868,478.958"/>
<path fill="none" stroke="#000000" stroke-width="0.7899" stroke-miterlimit="10" d="M290.722,308.593
	c0,0-37.324,19.292-37.324,64.764c0,35.338,24.416,57.775,35.302,66.023"/>
<path d="M293.761,442.841c-3.02-0.805-7.059-1.391-10.034-1.09l4.285-2.98l1.386-5.029
	C290.102,436.647,291.997,440.263,293.761,442.841"/>
</svg>
