<?xml version="1.0" encoding="UTF-8" standalone="no"?>
<svg width="750px" height="248px" viewBox="0 0 750 248" version="1.1" xmlns="http://www.w3.org/2000/svg" xmlns:xlink="http://www.w3.org/1999/xlink" xmlns:sketch="http://www.bohemiancoding.com/sketch/ns">
    <!-- Generator: Sketch 3.0.4 (8054) - http://www.bohemiancoding.com/sketch -->
    <title>Latin</title>
    <desc>Created with Sketch.</desc>
    <defs>
        <path d="M357.558356,156.974559 C326.745459,156.002708 282.252194,159.857233 282.252194,185.270351 C282.252194,197.380549 290.856808,206.941232 308.703415,206.941232 C325.988405,206.941232 345.300857,193.559981 356.776269,177.308834 L357.558356,156.974559 Z M358.321343,209.133052 C346.663853,223.576754 330.532182,233.711143 306.1539,233.711143 C277.471852,233.711143 251.33932,220.963566 251.33932,185.90773 C251.33932,146.862956 304.622077,129.866219 358.54413,131.344434 L358.737654,126.312809 C359.375033,103.36717 342.165805,96.3560031 323.363129,96.3560031 C304.879142,96.3560031 289.90074,102.729791 278.74661,118.982952 L252.614077,105.916686 C271.098064,77.2346379 295.766537,68.6300235 325.275265,68.6300235 C360.331101,68.6300235 393.156112,82.9710474 391.243975,127.587566 L389.650528,185.589041 C389.969218,196.424481 387.419702,205.666474 408.453204,202.160891 L404.310241,231.161628 C378.594313,234.800674 363.405269,230.129022 358.321343,209.133052 Z" id="path-1"></path>
        <filter x="-50%" y="-50%" width="200%" height="200%" filterUnits="objectBoundingBox" id="filter-3">
            <feOffset dx="0" dy="8" in="SourceAlpha" result="shadowOffsetOuter1"></feOffset>
            <feGaussianBlur stdDeviation="4" in="shadowOffsetOuter1" result="shadowBlurOuter1"></feGaussianBlur>
            <feColorMatrix values="0 0 0 0 0   0 0 0 0 0   0 0 0 0 0  0 0 0 0.35 0" in="shadowBlurOuter1" type="matrix" result="shadowMatrixOuter1"></feColorMatrix>
            <feMerge>
                <feMergeNode in="shadowMatrixOuter1"></feMergeNode>
                <feMergeNode in="SourceGraphic"></feMergeNode>
            </feMerge>
        </filter>
        <filter x="-50%" y="-50%" width="200%" height="200%" filterUnits="objectBoundingBox" id="filter-4">
            <feOffset dx="0" dy="8" in="SourceAlpha" result="shadowOffsetOuter1"></feOffset>
            <feGaussianBlur stdDeviation="4" in="shadowOffsetOuter1" result="shadowBlurOuter1"></feGaussianBlur>
            <feColorMatrix values="0 0 0 0 0   0 0 0 0 0   0 0 0 0 0  0 0 0 0.35 0" in="shadowBlurOuter1" type="matrix" result="shadowMatrixOuter1"></feColorMatrix>
            <feMerge>
                <feMergeNode in="shadowMatrixOuter1"></feMergeNode>
                <feMergeNode in="SourceGraphic"></feMergeNode>
            </feMerge>
        </filter>
        <path d="M199.273966,12.859375 L171.388642,12.859375 L118.682315,180.784185 L66.2211332,12.859375 L38.4951536,12.859375 L13,12.859375 L13,231.161628 L45.5063209,231.161628 L45.5063209,55.7401747 L102.870416,231.161628 L118.645543,231.161628 L134.420669,231.161628 L192.422144,54.5793611 L192.422144,231.161628 L224.928464,231.161628 L224.928464,12.859375 L199.273966,12.859375 Z" id="path-5"></path>
        <filter x="-50%" y="-50%" width="200%" height="200%" filterUnits="objectBoundingBox" id="filter-7">
            <feOffset dx="0" dy="-8" in="SourceAlpha" result="shadowOffsetOuter1"></feOffset>
            <feGaussianBlur stdDeviation="4" in="shadowOffsetOuter1" result="shadowBlurOuter1"></feGaussianBlur>
            <feColorMatrix values="0 0 0 0 0   0 0 0 0 0   0 0 0 0 0  0 0 0 0.35 0" in="shadowBlurOuter1" type="matrix" result="shadowMatrixOuter1"></feColorMatrix>
            <feMerge>
                <feMergeNode in="shadowMatrixOuter1"></feMergeNode>
                <feMergeNode in="SourceGraphic"></feMergeNode>
            </feMerge>
        </filter>
        <filter x="-50%" y="-50%" width="200%" height="200%" filterUnits="objectBoundingBox" id="filter-8">
            <feOffset dx="0" dy="8" in="SourceAlpha" result="shadowOffsetOuter1"></feOffset>
            <feGaussianBlur stdDeviation="4" in="shadowOffsetOuter1" result="shadowBlurOuter1"></feGaussianBlur>
            <feColorMatrix values="0 0 0 0 0   0 0 0 0 0   0 0 0 0 0  0 0 0 0.35 0" in="shadowBlurOuter1" type="matrix" result="shadowMatrixOuter1"></feColorMatrix>
            <feMerge>
                <feMergeNode in="shadowMatrixOuter1"></feMergeNode>
                <feMergeNode in="SourceGraphic"></feMergeNode>
            </feMerge>
        </filter>
        <filter x="-50%" y="-50%" width="200%" height="200%" filterUnits="objectBoundingBox" id="filter-9">
            <feOffset dx="0" dy="-8" in="SourceAlpha" result="shadowOffsetOuter1"></feOffset>
            <feGaussianBlur stdDeviation="4" in="shadowOffsetOuter1" result="shadowBlurOuter1"></feGaussianBlur>
            <feColorMatrix values="0 0 0 0 0   0 0 0 0 0   0 0 0 0 0  0 0 0 0.35 0" in="shadowBlurOuter1" type="matrix" result="shadowMatrixOuter1"></feColorMatrix>
            <feMerge>
                <feMergeNode in="shadowMatrixOuter1"></feMergeNode>
                <feMergeNode in="SourceGraphic"></feMergeNode>
            </feMerge>
        </filter>
        <filter x="-50%" y="-50%" width="200%" height="200%" filterUnits="objectBoundingBox" id="filter-10">
            <feOffset dx="0" dy="8" in="SourceAlpha" result="shadowOffsetOuter1"></feOffset>
            <feGaussianBlur stdDeviation="4" in="shadowOffsetOuter1" result="shadowBlurOuter1"></feGaussianBlur>
            <feColorMatrix values="0 0 0 0 0   0 0 0 0 0   0 0 0 0 0  0 0 0 0.35 0" in="shadowBlurOuter1" type="matrix" result="shadowMatrixOuter1"></feColorMatrix>
            <feMerge>
                <feMergeNode in="shadowMatrixOuter1"></feMergeNode>
                <feMergeNode in="SourceGraphic"></feMergeNode>
            </feMerge>
        </filter>
        <path d="M465.258957,90.4361929 L465.258957,71.8169177 L432.752636,71.8169177 L432.752636,231.161628 L465.258957,231.161628 L465.258957,140.653814 C465.258957,112.609164 485.33639,98.9055184 506.051202,98.9055184 C524.535189,98.9055184 534.095871,110.697027 534.095871,125.038051 L534.095871,231.161628 L566.602192,231.161628 L566.602192,116.752126 C566.602192,91.5756618 545.568691,68.6300235 511.787612,68.6300235 C496.287826,68.6300235 478.198525,75.601797 465.258957,90.4361929 Z" id="path-11"></path>
        <filter x="-50%" y="-50%" width="200%" height="200%" filterUnits="objectBoundingBox" id="filter-13">
            <feOffset dx="0" dy="8" in="SourceAlpha" result="shadowOffsetOuter1"></feOffset>
            <feGaussianBlur stdDeviation="4" in="shadowOffsetOuter1" result="shadowBlurOuter1"></feGaussianBlur>
            <feColorMatrix values="0 0 0 0 0   0 0 0 0 0   0 0 0 0 0  0 0 0 0.35 0" in="shadowBlurOuter1" type="matrix" result="shadowMatrixOuter1"></feColorMatrix>
            <feMerge>
                <feMergeNode in="shadowMatrixOuter1"></feMergeNode>
                <feMergeNode in="SourceGraphic"></feMergeNode>
            </feMerge>
        </filter>
        <filter x="-50%" y="-50%" width="200%" height="200%" filterUnits="objectBoundingBox" id="filter-14">
            <feOffset dx="0" dy="8" in="SourceAlpha" result="shadowOffsetOuter1"></feOffset>
            <feGaussianBlur stdDeviation="4" in="shadowOffsetOuter1" result="shadowBlurOuter1"></feGaussianBlur>
            <feColorMatrix values="0 0 0 0 0   0 0 0 0 0   0 0 0 0 0  0 0 0 0.35 0" in="shadowBlurOuter1" type="matrix" result="shadowMatrixOuter1"></feColorMatrix>
            <feMerge>
                <feMergeNode in="shadowMatrixOuter1"></feMergeNode>
                <feMergeNode in="SourceGraphic"></feMergeNode>
            </feMerge>
        </filter>
        <path d="M624.693427,134.280044 L703.183812,134.280044 C699.137186,111.940139 688.21501,96.6746925 663.762099,96.6746925 C641.736602,96.6746925 628.770817,110.580296 624.693433,134.280042 Z M712.362235,160.412577 L623.680246,160.412577 C626.219561,186.5976 641.12149,205.985164 668.86113,205.985164 C686.070358,205.666474 700.411382,194.512344 706.785171,179.533942 L733.555082,191.32545 C724.313089,218.73274 695.312352,234.348522 667.267683,234.348522 C627.112816,234.348522 593.013048,210.128126 593.013048,152.126652 C593.013048,97.6307608 623.607232,68.6300235 663.762099,68.6300235 C706.466481,68.6300235 736.423287,89.9822147 736.423287,160.412577 L712.362235,160.412577 Z" id="path-15"></path>
        <filter x="-50%" y="-50%" width="200%" height="200%" filterUnits="objectBoundingBox" id="filter-17">
            <feOffset dx="0" dy="8" in="SourceAlpha" result="shadowOffsetOuter1"></feOffset>
            <feGaussianBlur stdDeviation="4" in="shadowOffsetOuter1" result="shadowBlurOuter1"></feGaussianBlur>
            <feColorMatrix values="0 0 0 0 0   0 0 0 0 0   0 0 0 0 0  0 0 0 0.35 0" in="shadowBlurOuter1" type="matrix" result="shadowMatrixOuter1"></feColorMatrix>
            <feMerge>
                <feMergeNode in="shadowMatrixOuter1"></feMergeNode>
                <feMergeNode in="SourceGraphic"></feMergeNode>
            </feMerge>
        </filter>
        <filter x="-50%" y="-50%" width="200%" height="200%" filterUnits="objectBoundingBox" id="filter-18">
            <feOffset dx="0" dy="8" in="SourceAlpha" result="shadowOffsetOuter1"></feOffset>
            <feGaussianBlur stdDeviation="4" in="shadowOffsetOuter1" result="shadowBlurOuter1"></feGaussianBlur>
            <feColorMatrix values="0 0 0 0 0   0 0 0 0 0   0 0 0 0 0  0 0 0 0.35 0" in="shadowBlurOuter1" type="matrix" result="shadowMatrixOuter1"></feColorMatrix>
            <feMerge>
                <feMergeNode in="shadowMatrixOuter1"></feMergeNode>
                <feMergeNode in="SourceGraphic"></feMergeNode>
            </feMerge>
        </filter>
    </defs>
    <g id="Page-1" stroke="none" stroke-width="1" fill="none" fill-rule="evenodd" sketch:type="MSPage">
        <g id="Latin" sketch:type="MSArtboardGroup">
            <mask id="mask-2" sketch:name="Path 3" fill="white">
                <use xlink:href="#path-1"></use>
            </mask>
            <use id="Path-3" sketch:type="MSShapeGroup" xlink:href="#path-1"></use>
            <path d="M372.441299,157.863061 C344.077941,155.313546 282.252194,155.313546 282.252194,185.270351 C282.252194,197.380549 290.856808,206.941232 308.703415,206.941232 C330.374296,206.941232 355.232071,185.90773 363.836685,164.555539 L379.452467,169.65457 C367.023579,201.204822 349.814351,233.711143 306.1539,233.711143 C277.471852,233.711143 251.33932,220.963566 251.33932,185.90773 C251.33932,142.884658 316.033272,126.631498 374.990815,132.367908 L372.441299,157.863061 L372.441299,157.863061 Z" id="Path" fill="#777777" filter="url(#filter-3)" sketch:type="MSShapeGroup" mask="url(#mask-2)"></path>
            <path d="M252.614077,105.916686 C271.098064,77.2346379 295.766537,68.6300235 325.275265,68.6300235 C360.331101,68.6300235 393.156112,82.9710474 391.243975,127.587566 L389.650528,185.589041 C389.969218,196.424481 387.419702,205.666474 408.453204,202.160891 L404.310241,231.161628 C370.529163,235.941969 354.913381,226.381286 356.506828,184.314283 L358.737654,126.312809 C359.375033,103.36717 342.165805,96.3560031 323.363129,96.3560031 C304.879142,96.3560031 289.90074,102.729791 278.74661,118.982952 L252.614077,105.916686 L252.614077,105.916686 Z" id="Path" fill="#777777" filter="url(#filter-4)" sketch:type="MSShapeGroup" mask="url(#mask-2)"></path>
            <mask id="mask-6" sketch:name="Path 5" fill="white">
                <use xlink:href="#path-5"></use>
            </mask>
            <use id="Path-5" sketch:type="MSShapeGroup" xlink:href="#path-5"></use>
            <path d="M13,12.859375 L45.5063209,12.859375 L45.5063209,231.161628 L13,231.161628 L13,12.859375 Z" id="Path" fill="#777777" filter="url(#filter-7)" sketch:type="MSShapeGroup" mask="url(#mask-6)"></path>
            <path d="M102.870416,231.161628 L31.4839864,12.859375 L66.2211332,12.859375 L134.420669,231.161628 L102.870416,231.161628 L102.870416,231.161628 Z" id="Path" fill="#777777" filter="url(#filter-8)" sketch:type="MSShapeGroup" mask="url(#mask-6)"></path>
            <path d="M134.420669,231.161628 L102.870416,231.161628 L171.388642,12.859375 L206.125789,12.859375 L134.420669,231.161628 L134.420669,231.161628 Z" id="Path" fill="#777777" filter="url(#filter-9)" sketch:type="MSShapeGroup" mask="url(#mask-6)"></path>
            <path d="M192.422144,12.859375 L224.928464,12.859375 L224.928464,231.161628 L192.422144,231.161628 L192.422144,12.859375 Z" id="Path" fill="#777777" filter="url(#filter-10)" sketch:type="MSShapeGroup" mask="url(#mask-6)"></path>
            <mask id="mask-12" sketch:name="Path 3" fill="white">
                <use xlink:href="#path-11"></use>
            </mask>
            <use id="Path-3" sketch:type="MSShapeGroup" xlink:href="#path-11"></use>
            <path d="M434.864059,71.8169177 L467.37038,71.8169177 L467.37038,231.161628 L434.864059,231.161628 L434.864059,71.8169177 Z" id="Path" fill="#777777" filter="url(#filter-13)" sketch:type="MSShapeGroup" mask="url(#mask-12)"></path>
            <path d="M534.095871,231.161628 L534.095871,125.038051 C534.095871,110.697027 524.535189,98.9055184 506.051202,98.9055184 C485.33639,98.9055184 465.258957,112.609164 465.258957,140.653832 L448.049728,140.653832 C448.049728,90.9382829 484.061632,68.6300235 511.787612,68.6300235 C545.568691,68.6300235 566.602192,91.5756618 566.602192,116.752126 L566.602192,231.161628 L534.095871,231.161628 L534.095871,231.161628 Z" id="Path" fill="#777777" filter="url(#filter-14)" sketch:type="MSShapeGroup" mask="url(#mask-12)"></path>
            <mask id="mask-16" sketch:name="Path 3" fill="white">
                <use xlink:href="#path-15"></use>
            </mask>
            <use id="Path-3" sketch:type="MSShapeGroup" xlink:href="#path-15"></use>
            <path d="M610.540966,134.280044 L719.532747,134.280044 L719.532747,160.412577 L610.540966,160.412577 L610.540966,134.280044 Z" id="Path" fill="#777777" filter="url(#filter-17)" sketch:type="MSShapeGroup" mask="url(#mask-16)"></path>
            <path d="M705.191724,160.412577 C705.191724,124.719361 696.905799,96.6746925 663.762099,96.6746925 C636.673498,96.6746925 623.288543,117.708194 623.288543,152.126652 C623.288543,182.402147 638.266945,205.985164 668.86113,205.985164 C686.070358,205.666474 700.411382,194.512344 706.785171,179.533942 L733.555082,191.32545 C724.313089,218.73274 695.312352,234.348522 667.267683,234.348522 C627.112816,234.348522 593.013048,210.128126 593.013048,152.126652 C593.013048,97.6307608 623.607232,68.6300235 663.762099,68.6300235 C706.466481,68.6300235 736.423287,89.9822147 736.423287,160.412577 L705.191724,160.412577 L705.191724,160.412577 Z" id="Path" fill="#777777" filter="url(#filter-18)" sketch:type="MSShapeGroup" mask="url(#mask-16)"></path>
        </g>
    </g>
</svg>