<?xml version="1.0" standalone="no"?>
<!DOCTYPE svg PUBLIC "-//W3C//DTD SVG 1.1//EN" "http://www.w3.org/Graphics/SVG/1.1/DTD/svg11.dtd" >
<svg xmlns="http://www.w3.org/2000/svg">
<metadata></metadata>
<defs>
<font id="enc7055regular" horiz-adv-x="1308" >
<font-face units-per-em="2048" ascent="1638" descent="-410" />
<missing-glyph horiz-adv-x="1024" />
<glyph horiz-adv-x="2048" />
<glyph horiz-adv-x="2048" />
<glyph unicode="&#xd;" horiz-adv-x="2048" />
<glyph unicode=" "  horiz-adv-x="1024" />
<glyph unicode="&#x09;" horiz-adv-x="1024" />
<glyph unicode="&#xa0;" horiz-adv-x="1024" />
<glyph unicode="," horiz-adv-x="542" d="M55 -297l90 592h289l-164 -612z" />
<glyph unicode="." horiz-adv-x="534" d="M100 143q0 78 43.5 118t122.5 40q81 0 124.5 -40t43.5 -118q0 -77 -43.5 -116t-124.5 -39q-79 0 -122.5 39t-43.5 116z" />
<glyph unicode="0" horiz-adv-x="1427" d="M96 756q0 383 159 581.5t460 198.5q302 0 459 -198t157 -582q0 -382 -157.5 -579t-458.5 -197q-302 0 -460.5 197.5t-158.5 578.5zM385 756q0 -287 79 -415t251 -128q169 0 249 129.5t80 413.5q0 287 -79 415.5t-250 128.5q-172 0 -251 -128.5t-79 -415.5z" />
<glyph unicode="1" horiz-adv-x="911" d="M31 1235l2 14l477 267h219v-1516h-291v1200h-8l-344 -131h-18z" />
<glyph unicode="2" horiz-adv-x="1210" d="M84 2v213q0 215 127 342q66 66 138 114t188 107q152 80 216 147.5t64 155.5q0 110 -71.5 163.5t-219.5 53.5q-166 0 -374 -51l-23 236q259 51 459 51q262 0 390 -105t128 -319q0 -112 -42.5 -200.5t-121 -157.5t-207.5 -142q-162 -89 -241 -161q-70 -64 -70 -150v-66h684 v-231h-1024z" />
<glyph unicode="3" horiz-adv-x="1157" d="M102 1501q175 35 365 35q275 0 416 -103.5t141 -306.5q0 -128 -65.5 -215.5t-188.5 -124.5v-12q140 -31 217.5 -125t77.5 -233q0 -214 -153.5 -326.5t-446.5 -112.5q-225 0 -361 31v221h9q61 -14 145 -22q105 -10 162 -10q185 0 265.5 56.5t80.5 184.5q0 124 -80 177 t-274 53h-138v204h136q171 0 244 52t73 170q0 113 -71 165t-230 52q-102 0 -311 -31h-11z" />
<glyph unicode="4" horiz-adv-x="1320" d="M37 492v18l506 1026h10l281 -29l10 -26l-508 -930v-10h434l70 434h204v-434h228v-222h-228v-319h-284v319h-684z" />
<glyph unicode="5" horiz-adv-x="1159" d="M100 8v221h60q129 -24 262 -24q189 0 273.5 59.5t84.5 198.5q0 130 -106 182q-107 52 -369 55h-153l-27 27l59 789h817v-230h-600l-22 -375q366 -3 534 -106q168 -101 168 -352q0 -103 -32 -184.5t-87.5 -136t-134.5 -90.5t-170 -51.5t-198 -15.5q-160 0 -359 33z" />
<glyph unicode="6" horiz-adv-x="1339" d="M96 678q0 418 197 639t573 221q140 0 310 -37l-33 -213q-149 33 -266 33q-223 0 -342 -122t-144 -376q154 127 371 127q235 0 373 -123q139 -121 139 -327q0 -238 -158 -381q-157 -142 -422 -142q-291 0 -444.5 179t-153.5 522zM385 637q6 -228 81.5 -336t227.5 -108 q135 0 209 78t74 221q0 268 -283 268q-81 0 -167 -34.5t-142 -88.5z" />
<glyph unicode="7" horiz-adv-x="1081" d="M43 1491l27 25h938l43 -156v-41l-533 -1319l-63 -39l-246 39v33l528 1235h-680z" />
<glyph unicode="8" horiz-adv-x="1337" d="M92 389q0 263 260 389q-209 114 -209 361q0 182 148 291q144 106 393 106q240 0 377 -105.5t137 -291.5q0 -125 -53.5 -208.5t-161.5 -142.5q130 -57 196 -145t66 -229q0 -206 -145.5 -316t-427.5 -110h-2q-578 0 -578 401zM365 420q0 -114 81 -174t224 -60 q142 0 221.5 56t79.5 159q0 96 -66 158q-28 28 -78 51q-71 34 -202 70l-66 20q-194 -108 -194 -280zM401 1124q0 -92 70 -151q27 -24 82 -49q80 -34 209 -68q6 0 8 -2q172 105 172 268q0 101 -73.5 158t-198.5 57q-124 0 -196.5 -56t-72.5 -157z" />
<glyph unicode="9" horiz-adv-x="1339" d="M68 1016q0 241 155 381q156 141 424 141q291 0 444.5 -178.5t153.5 -521.5q0 -419 -197 -640t-573 -221q-139 0 -309 37l33 213q145 -32 266 -32q222 0 341 122t144 375q-154 -127 -370 -127q-234 0 -373 121q-139 124 -139 330zM365 1024q0 -268 282 -268q81 0 167 34.5 t142 88.5q-6 229 -81.5 336.5t-229.5 107.5q-133 0 -206.5 -78t-73.5 -221z" />
<glyph unicode=":" horiz-adv-x="559" d="M113 143q0 78 43.5 118t122.5 40q81 0 124 -40t43 -118q0 -77 -43 -116t-124 -39q-79 0 -122.5 39t-43.5 116zM113 963q0 78 43 117.5t123 39.5t123.5 -40t43.5 -117t-43 -116.5t-124 -39.5q-79 0 -122.5 39.5t-43.5 116.5z" />
<glyph unicode=";" horiz-adv-x="593" d="M82 -297l90 592h289l-164 -612zM143 963q0 77 43.5 117t122.5 40q80 0 124 -40t44 -117t-43.5 -116.5t-124.5 -39.5q-79 0 -122.5 39.5t-43.5 116.5z" />
<glyph unicode="A" horiz-adv-x="1470" d="M4 0v16l516 1500h434l514 -1500v-16h-282l-135 391h-629l-135 -391h-283zM494 629h483l-139 399l-90 285h-25l-90 -287z" />
<glyph unicode="B" horiz-adv-x="1425" d="M160 10v1495q308 31 516 31q327 0 474.5 -100.5t147.5 -321.5q0 -131 -68.5 -218t-195.5 -116v-8q152 -29 232 -122t80 -242q0 -217 -155.5 -322.5t-473.5 -105.5q-261 0 -557 30zM436 205q76 -15 277 -15q176 0 259 59t83 183q0 123 -77.5 179.5t-250.5 56.5h-291v-463z M436 864h273q163 0 231 53.5t68 178.5q0 124 -72 176.5t-244 52.5q-141 0 -256 -16v-445z" />
<glyph unicode="C" horiz-adv-x="1226" d="M90 756q0 394 178 589t539 195q122 0 346 -35v-235q-219 28 -311 28q-252 0 -353 -122q-102 -120 -102 -420q0 -295 100 -416q103 -121 342 -121q55 0 168 10q94 8 156 25v-238q-157 -39 -332 -39q-369 0 -550 193t-181 586z" />
<glyph unicode="D" horiz-adv-x="1550" d="M160 6v1505q336 25 481 25q428 0 624.5 -186t196.5 -592q0 -412 -207 -598q-207 -183 -675 -183q-259 0 -420 29zM449 229q122 -16 237 -16q259 0 369 125t110 418q0 297 -112 418q-109 124 -373 124q-108 0 -231 -12v-1057z" />
<glyph unicode="E" horiz-adv-x="1314" d="M160 0v1516h1050v-230h-759v-407h-134v-230h134v-420h778v-229h-1069zM451 649v230h696v-230h-696z" />
<glyph unicode="F" horiz-adv-x="1261" d="M160 0v1516h1042v-230h-751v-438h-121v-230h121v-618h-291zM451 618v230h679v-230h-679z" />
<glyph unicode="G" horiz-adv-x="1406" d="M88 754q0 786 772 786q222 0 416 -51v-236q-229 45 -393 45q-272 0 -385 -122q-111 -123 -111 -420q0 -293 102 -416q103 -121 351 -121q76 0 184 12v-180l268 -4q-256 -70 -463 -70q-373 0 -557 194t-184 583zM1024 231q2 180 2 539h266v-723l-133 207q-69 -16 -135 -23 z" />
<glyph unicode="H" horiz-adv-x="1632" d="M160 0v1516h291v-623h733v623h291v-1516h-291v662h-733v-662h-291z" />
<glyph unicode="I" horiz-adv-x="610" d="M160 0v1516h291v-1516h-291z" />
<glyph unicode="J" horiz-adv-x="608" d="M4 -324q88 192 125 353q35 155 35 364v1123h291v-1143q0 -211 -58 -379q-55 -170 -200 -406z" />
<glyph unicode="K" horiz-adv-x="1445" d="M160 0v1516h291v-633h241l395 633h328l-436 -670l-94 -53v-17l98 -53l469 -723h-328l-413 653h-260v-653h-291z" />
<glyph unicode="L" horiz-adv-x="1142" d="M160 0v1516h291v-1287h663v-229h-954z" />
<glyph unicode="M" horiz-adv-x="1988" d="M160 0v1516h393l330 -807l104 -320h17l104 320l332 807h391v-1516h-262v1186l-17 2l-151 -428l-287 -699h-240l-286 699l-150 428l-16 -2v-1186h-262z" />
<glyph unicode="N" horiz-adv-x="1640" d="M160 0v1516h231l692 -906l121 -178h17v1084h260v-1516h-230l-686 897l-129 186h-16v-1083h-260z" />
<glyph unicode="O" horiz-adv-x="1589" d="M90 756q0 382 180 581t525 199q343 0 523.5 -199.5t180.5 -580.5q0 -379 -180.5 -577.5t-523.5 -198.5q-345 0 -525 198t-180 578zM385 756q0 -288 96.5 -413.5t313.5 -125.5t313 125.5t96 413.5t-96.5 415t-312.5 127t-313 -127t-97 -415z" />
<glyph unicode="P" horiz-adv-x="1390" d="M160 0v485v1020q232 31 426 31q393 0 571 -128t178 -411q0 -278 -180 -410t-557 -132v-2q-70 0 -147 6v-459h-291zM451 698q77 -14 192 -14q221 0 309 70t88 243q0 168 -88.5 239t-304.5 71q-111 0 -196 -15v-594z" />
<glyph unicode="Q" horiz-adv-x="1585" d="M86 756q0 375 183.5 577.5t523.5 202.5t524 -202.5t184 -577.5q0 -339 -163 -522q-157 -177 -436 -177h-21v-20q224 -48 331 -62q114 -18 261 -30l-64 -240q-274 61 -451 113q-388 113 -591 268q-151 119 -216 279t-65 391zM379 756q0 -281 99.5 -411t314.5 -130t313 129 t98 412t-99 415t-312 132q-214 0 -314 -132t-100 -415z" />
<glyph unicode="R" horiz-adv-x="1427" d="M160 0v1505q232 31 426 31q394 0 571.5 -120t177.5 -388q0 -339 -313 -450l373 -578h-326l-303 526q-76 -6 -162 -6q-88 0 -153 8v-528h-291zM451 764q57 -14 192 -14q221 0 309 62t88 216t-88.5 216.5t-304.5 62.5q-101 0 -196 -15v-528z" />
<glyph unicode="S" horiz-adv-x="1257" d="M82 41l2 238q290 -70 498 -70q311 0 311 194q0 96 -69.5 146t-237.5 90q-257 55 -370.5 162t-113.5 305q0 199 154 317q152 119 418 119q171 0 442 -55l-2 -238q-210 62 -412 62q-141 0 -220 -52.5t-79 -146.5q0 -91 69.5 -144t244.5 -98q125 -29 211 -65t147.5 -88.5 t90 -124t28.5 -166.5q0 -220 -150 -335.5t-438 -115.5q-248 0 -524 66z" />
<glyph unicode="T" horiz-adv-x="1280" d="M37 1286v230h1208v-230h-459v-1286h-290v1286h-459z" />
<glyph unicode="U" horiz-adv-x="1603" d="M145 621v897h289v-902q0 -206 89.5 -302.5t279.5 -96.5t278 95.5t88 303.5v902h291v-897q0 -336 -151 -490q-151 -151 -506 -151t-506 151q-152 155 -152 490z" />
<glyph unicode="V" horiz-adv-x="1462" d="M6 1516h307l328 -934l84 -306h16l86 306l330 934h301l-532 -1516h-389z" />
<glyph unicode="W" horiz-adv-x="2172" d="M29 1516h313l217 -949l51 -276h23l63 276l250 949h285l248 -949l61 -276h21l55 276l217 949h313l-391 -1516h-383l-223 836l-53 315h-17l-53 -317l-225 -834h-383z" />
<glyph unicode="X" horiz-adv-x="1452" d="M-8 0l553 786l-516 730h331l320 -467l43 -76h12l43 76l326 467h328l-527 -740l563 -776h-331l-365 520l-39 72h-12l-37 -72l-362 -520h-330z" />
<glyph unicode="Y" horiz-adv-x="1400" d="M-4 1516h315l324 -601l59 -145h17l59 145l322 601h315l-557 -1014v-502h-291v492z" />
<glyph unicode="Z" horiz-adv-x="1282" d="M66 0v215l770 1055v16h-742v230h1096v-209l-770 -1061v-17h799v-229h-1153z" />
<glyph unicode="a" horiz-adv-x="1159" d="M70 299q0 160 102.5 244.5t319.5 101.5l258 19v36q0 130 -52 170q-52 43 -211 43q-138 0 -327 -36l-21 202q220 41 418 41q242 0 359.5 -91.5t117.5 -280.5v-748h-233l-27 137h-14q-182 -147 -381 -147q-149 0 -229 80.5t-80 228.5zM358 328q0 -72 34.5 -106t107.5 -34 q122 0 250 93v231l-175 -16q-121 -10 -169 -48t-48 -120z" />
<glyph unicode="b" horiz-adv-x="1306" d="M133 35v1620h285v-668q119 137 342 137q465 0 465 -551q0 -286 -154.5 -440t-437.5 -156q-217 0 -500 58zM418 195q104 -19 211 -19q170 0 237 82q70 82 70 295q0 196 -57.5 275t-200.5 79q-119 0 -189.5 -59.5t-70.5 -167.5v-485z" />
<glyph unicode="c" horiz-adv-x="1028" d="M82 553q0 571 551 571q173 0 311 -30v-230q-156 27 -282 27q-155 0 -225 -79.5t-70 -256.5q0 -180 68 -260t222 -80q143 0 287 25v-226q-117 -32 -309 -32q-553 0 -553 571z" />
<glyph unicode="d" d="M82 535q0 287 155 439t435 152q72 0 215 -14v543h284v-1655h-247l-25 137h-12q-115 -160 -340 -160q-465 0 -465 558zM371 555q0 -201 57.5 -281.5t198.5 -80.5q119 0 189 62t71 177v471q-117 21 -221 21q-161 0 -228 -83t-67 -286z" />
<glyph unicode="e" horiz-adv-x="1175" d="M82 541q0 287 140 435t411 148q227 0 344 -124t117 -365q0 -99 -15 -160h-712q12 -153 77 -213.5t218 -60.5q206 0 382 51l11 -207q-195 -63 -420 -63q-553 0 -553 559zM365 627h477q-5 160 -55.5 227.5t-165.5 67.5q-123 0 -184 -70.5t-72 -224.5z" />
<glyph unicode="f" horiz-adv-x="874" d="M31 864v242h239v51q0 288 131 395q129 106 482 115l12 -207q-202 -9 -270 -63q-69 -51 -72 -207v-84h295v-242h-295v-864h-283l-2 864h-237z" />
<glyph unicode="g" horiz-adv-x="1306" d="M84 547q0 281 155 430t435 149q223 0 500 -79v-922q0 -127 -31 -226.5t-84.5 -164.5t-130 -107t-163 -60t-187.5 -18h-3q-239 0 -415 45l18 211q185 -43 350 -43q184 0 280.5 77.5t96.5 250.5v92h-14q-107 -162 -342 -162q-465 0 -465 527zM371 567q0 -186 58.5 -263 t199.5 -77q120 0 190 64t70 178v434q-117 21 -223 21q-160 0 -227.5 -80.5t-67.5 -276.5z" />
<glyph unicode="h" d="M135 0v1655h285v-670q295 141 454 141q147 0 226.5 -79t79.5 -226v-821h-285v725q0 91 -34.5 131.5t-110.5 40.5q-125 0 -328 -90v-807h-287z" />
<glyph unicode="i" horiz-adv-x="559" d="M121 1448q0 81 37 118.5t121 37.5q85 0 124 -38t39 -118q0 -82 -38.5 -120t-124.5 -38q-85 0 -121.5 36.5t-36.5 121.5zM137 0v1106h285v-1106h-285z" />
<glyph unicode="j" horiz-adv-x="552" d="M27 -406q63 167 86 318q26 147 26 385q0 575 -4 809h285v-944q-18 -332 -187 -613zM113 1448q0 81 39 117q39 39 122 39q84 0 123 -39t39 -119q0 -79 -39 -117.5t-123 -38.5q-86 0 -123.5 36.5t-37.5 121.5z" />
<glyph unicode="k" horiz-adv-x="1212" d="M135 0v1655h285v-993h147l310 444h315l-385 -518l-45 -15v-8l47 -16l418 -549h-314l-350 477h-141v-477h-287z" />
<glyph unicode="l" horiz-adv-x="563" d="M139 0v1655h285v-1655h-285z" />
<glyph unicode="m" horiz-adv-x="1925" d="M137 0v1106h236l16 -127h14q243 147 402 147q201 0 272 -151h8q245 151 406 151q147 0 226 -79t79 -226v-821h-283v721q0 91 -35.5 132.5t-111.5 41.5q-99 0 -256 -86v-809h-283v721q0 92 -35.5 133t-113.5 41q-103 0 -258 -88v-807h-283z" />
<glyph unicode="n" d="M137 0v1106h238l16 -127h15q298 147 471 147q147 0 226 -79t79 -226v-821h-285v725q0 91 -35.5 131.5t-111.5 40.5q-125 0 -328 -90v-807h-285z" />
<glyph unicode="o" horiz-adv-x="1286" d="M82 553q0 278 144.5 425.5t416.5 147.5q275 0 419 -147t144 -426t-144.5 -427.5t-418.5 -148.5q-271 0 -416 149t-145 427zM369 553q0 -190 63 -271t211 -81q150 0 213.5 80.5t63.5 271.5q0 190 -63.5 271t-211.5 81q-149 0 -212.5 -81t-63.5 -271z" />
<glyph unicode="p" horiz-adv-x="1310" d="M137 -451v1557h248l23 -133h14q111 153 342 153q463 0 463 -553q0 -286 -155 -441t-435 -155q-68 0 -215 15v-443h-285zM422 203q105 -21 221 -21q162 0 229.5 82.5t67.5 288.5q0 200 -58 280t-200 80q-121 0 -190.5 -63t-69.5 -180v-467z" />
<glyph unicode="q" horiz-adv-x="1306" d="M82 535q0 287 155 440t439 153q216 0 498 -49v-1530h-275v588q-127 -157 -352 -157q-465 0 -465 555zM369 557q0 -202 57 -283t203 -81q122 0 191 64.5t69 182.5v463q-114 21 -223 21q-164 0 -230.5 -82t-66.5 -285z" />
<glyph unicode="r" horiz-adv-x="880" d="M137 0v1106h238l16 -160h8q216 144 369 180h90v-239h-98q-166 -18 -338 -121v-766h-285z" />
<glyph unicode="s" horiz-adv-x="1044" d="M86 27v198q224 -51 403 -51q209 0 209 131q0 65 -47.5 97.5t-154.5 46.5q-2 2 -15 2l-75 12q-100 17 -150 43q-83 43 -115 98q-45 77 -45 187q0 160 119.5 249.5t333.5 89.5q145 0 379 -40l-8 -213q-220 47 -342 47q-209 0 -209 -125q0 -65 50 -93t187 -53 q186 -26 276.5 -101.5t90.5 -225.5q0 -167 -121.5 -258t-347.5 -91h-2q-177 0 -416 50z" />
<glyph unicode="t" horiz-adv-x="880" d="M35 864v242h225l43 305l223 25v-330h299v-242h-297v-483q0 -97 40 -140.5t128 -43.5q59 0 133 24v-215q-105 -31 -225 -31v2q-177 0 -268.5 86.5t-91.5 253.5v547h-209z" />
<glyph unicode="u" d="M129 285v821h285v-735q0 -91 33 -131.5t106 -40.5q120 0 336 94v813h285v-1106h-238l-18 131h-9q-195 -98 -268 -123q-89 -28 -211 -28q-146 0 -223.5 79t-77.5 226z" />
<glyph unicode="v" horiz-adv-x="1226" d="M25 1075v31h307l223 -660l53 -219h17l51 219l229 660h299v-31l-416 -1075h-352z" />
<glyph unicode="w" horiz-adv-x="1703" d="M35 1096v10h280l160 -684l29 -154h18l31 154l178 684h240l184 -684l31 -154h18l27 154l155 684h281v-10l-297 -1096h-313l-170 635l-27 137h-18l-25 -137l-166 -635h-313z" />
<glyph unicode="x" horiz-adv-x="1214" d="M16 0v31l398 542l-379 514v19h301l207 -283l59 -94h14l62 94l203 283h301v-19l-379 -522l397 -534v-31h-299l-221 303l-66 107h-14l-65 -107l-220 -303h-299z" />
<glyph unicode="y" horiz-adv-x="1236" d="M18 1077v29h308l229 -619l55 -194h17l53 194l240 619h299v-29l-637 -1528l-269 41v25l162 399z" />
<glyph unicode="z" horiz-adv-x="1091" d="M74 0v182l561 697v16h-543v211h909v-178l-548 -699v-16h569v-213h-948z" />
<glyph unicode="&#x2000;" horiz-adv-x="833" />
<glyph unicode="&#x2001;" horiz-adv-x="1667" />
<glyph unicode="&#x2002;" horiz-adv-x="833" />
<glyph unicode="&#x2003;" horiz-adv-x="1667" />
<glyph unicode="&#x2004;" horiz-adv-x="555" />
<glyph unicode="&#x2005;" horiz-adv-x="416" />
<glyph unicode="&#x2006;" horiz-adv-x="277" />
<glyph unicode="&#x2007;" horiz-adv-x="277" />
<glyph unicode="&#x2008;" horiz-adv-x="208" />
<glyph unicode="&#x2009;" horiz-adv-x="333" />
<glyph unicode="&#x200a;" horiz-adv-x="92" />
<glyph unicode="&#x202f;" horiz-adv-x="333" />
<glyph unicode="&#x205f;" horiz-adv-x="416" />
<glyph unicode="&#x25fc;" horiz-adv-x="1105" d="M0 0v1106h1106v-1106h-1106z" />
</font>
</defs>
</svg>
