<?xml version="1.0" standalone="no"?>
<!DOCTYPE svg PUBLIC "-//W3C//DTD SVG 1.1//EN" "http://www.w3.org/Graphics/SVG/1.1/DTD/svg11.dtd" >
<svg xmlns="http://www.w3.org/2000/svg">
<metadata></metadata>
<defs>
<font id="enc7005_regularregular" horiz-adv-x="1185" >
<font-face units-per-em="2048" ascent="1638" descent="-410" />
<missing-glyph horiz-adv-x="1024" />
<glyph horiz-adv-x="2048" />
<glyph horiz-adv-x="2048" />
<glyph unicode="&#xd;" horiz-adv-x="681" />
<glyph unicode=" "  horiz-adv-x="1024" />
<glyph unicode="&#x09;" horiz-adv-x="1024" />
<glyph unicode="&#xa0;" horiz-adv-x="1024" />
<glyph unicode="," horiz-adv-x="430" d="M74 -297l96 444h109l-121 -464z" />
<glyph unicode="." horiz-adv-x="442" d="M143 74q0 36 21 57t57 21q37 0 60 -23q22 -22 22 -55v2q0 -36 -22 -58q-20 -20 -60 -20v2q-36 0 -57 18t-21 56z" />
<glyph unicode="0" horiz-adv-x="1302" d="M121 758q0 384 135 581t395 197q261 0 396 -197t135 -581q0 -386 -135 -582t-396 -196q-260 0 -395 196t-135 582zM225 756h2q0 -343 107 -514q108 -172 319 -172q213 0 320 174q108 176 108 512t-108 512q-107 174 -320 174q-211 0 -319 -172q-109 -174 -109 -514z" />
<glyph unicode="1" horiz-adv-x="765" d="M55 1241v8l428 267h76v-1516h-102v1382h-6l-363 -202h-12z" />
<glyph unicode="2" horiz-adv-x="1067" d="M102 -2v190q0 176 97 308q93 127 323 260q174 104 248 190t74 197q0 145 -80 219t-244 74q-70 0 -166 -13q-72 -10 -190 -41l-17 95q116 31 197 41q94 12 180 12q207 0 314 -96q104 -94 104 -287q0 -141 -80 -244q-77 -99 -280 -221q-207 -121 -289 -225t-82 -252v-107 h739v-94z" />
<glyph unicode="3" horiz-adv-x="1017" d="M115 6v88h10q61 -12 127 -18q64 -6 133 -6q191 0 301 90q107 88 107 252q0 155 -97 237q-95 80 -288 80h-134v88h132q169 0 258 80q90 81 90 231q0 155 -90 236q-89 80 -265 80q-41 0 -108 -6q-70 -6 -160 -21h-10l-4 88q81 18 139 23q70 6 147 6q219 0 338 -107 t119 -301q0 -133 -61 -221t-176 -123v-8q134 -27 206 -123q72 -97 72 -245h-6q0 -206 -131 -316t-377 -110q-71 0 -139 6q-76 7 -133 20z" />
<glyph unicode="4" horiz-adv-x="1175" d="M53 438v11l510 1087h10l80 -20v-13l-477 -1020v-10h608v2l33 555h68v-557h227v-88h-227v-385h-101v385h-694z" />
<glyph unicode="5" horiz-adv-x="1036" d="M111 6v90h18q64 -12 133 -18q68 -6 133 -6q219 0 328 86q106 84 106 280q0 181 -122 260q-125 81 -390 84l-153 2l-10 13l53 721h665v-93h-581l-37 -553q367 -3 520 -100q158 -100 158 -334l2 2q0 -228 -133 -346q-132 -117 -398 -117q-59 0 -145 7q-65 5 -147 22z" />
<glyph unicode="6" horiz-adv-x="1208" d="M121 664q0 413 170 645q168 229 479 229q66 0 121 -8q48 -7 129 -25l-6 -94q-81 23 -125 29q-68 10 -119 10q-244 0 -385 -184q-142 -186 -160 -514q91 76 203 120q110 43 215 43q218 0 346 -116q129 -117 129 -320q0 -227 -133 -366q-134 -140 -350 -140 q-257 0 -385 174q-129 175 -129 517zM225 657q3 -299 105 -446q103 -148 307 -148q169 0 270 113q103 115 103 301q0 165 -99 260q-98 94 -276 94l4 3q-100 0 -215 -50q-111 -48 -199 -127z" />
<glyph unicode="7" horiz-adv-x="948" d="M55 1505l4 11h815l25 -54v-57l-549 -1409l-26 -19l-82 23v25l557 1396h-733z" />
<glyph unicode="8" horiz-adv-x="1204" d="M117 389q0 142 71 248q70 104 209 166q-110 54 -174 139q-61 82 -61 215q0 183 121 283q119 98 319 98t316 -98t116 -287q0 -131 -61 -229q-61 -99 -189 -164q146 -56 226 -142t80 -235l-3 2q0 -185 -131 -289t-356 -104h-2q-230 0 -354 100q-127 103 -127 297zM205 406 q0 -153 104 -232q106 -80 283 -80q176 0 285 80q106 78 106 223q0 66 -20 113t-52 84q-29 33 -86 61q-62 30 -102 43q-33 13 -55 19q-28 8 -68 18l-4 10q-18 5 -61 19q-36 12 -50 18q-45 -18 -61 -26q-35 -17 -72 -45q-49 -36 -73 -70q-31 -44 -50 -98q-12 -29 -18 -66 q-6 -35 -6 -71zM256 1155q0 -55 23 -113q21 -52 55 -86q29 -33 86 -61q75 -36 104 -47t56 -19q11 -3 34 -11t33 -11l-10 8l18 -6q3 -1 9.5 -3t9.5 -3q28 11 74 37q36 20 83 61t74 109q29 72 29 147q0 147 -92 221t-248 74q-155 0 -246 -76q-92 -77 -92 -221z" />
<glyph unicode="9" horiz-adv-x="1210" d="M92 1034q0 228 133 367t348 139q256 0 388 -172q131 -171 131 -516q0 -415 -172 -645q-173 -232 -480 -232q-60 0 -121 9t-129 24l5 94q71 -20 127 -28q75 -11 116 -11q244 0 385 185q143 187 158 514q-90 -78 -203 -121t-215 -43q-218 0 -344 117q-127 118 -127 319z M199 1038q0 -167 100 -260q101 -94 279 -94l-3 -2q98 0 211 49q111 48 199 127q0 300 -102 447t-308 147q-173 0 -274 -113q-102 -114 -102 -301z" />
<glyph unicode=":" horiz-adv-x="450" d="M141 74q0 34 23 57q21 21 59 21q37 0 60 -23q22 -22 22 -55v2q0 -36 -22 -58q-20 -20 -60 -20v2q-38 0 -59 18q-23 20 -23 56zM143 1030q0 34 23 57q21 21 59 21q39 0 60 -21q22 -22 22 -57q0 -36 -22 -55t-60 -19q-37 0 -59 19q-23 20 -23 55z" />
<glyph unicode=";" horiz-adv-x="516" d="M129 -297l96 444h107l-121 -464zM190 1030q0 34 23 57q21 21 59 21q37 0 60 -23q22 -22 22 -55q0 -36 -22 -55t-60 -19q-37 0 -59 19q-23 20 -23 55z" />
<glyph unicode="A" horiz-adv-x="1331" d="M20 0v10l570 1506h155l568 -1506v-10h-103l-186 494h-713l-188 -494h-103zM342 586h647l-225 600l-92 250h-10l-93 -250z" />
<glyph unicode="B" horiz-adv-x="1310" d="M205 12v1495q167 19 239 23q108 6 185 6q283 0 405 -94q123 -94 123 -309q0 -138 -74 -238q-75 -100 -192 -121v-8q150 -27 231 -123q80 -95 80 -250l8 6q0 -206 -141 -311q-140 -104 -424 -104q-104 0 -215 6q-98 5 -225 22zM299 98q66 -11 141 -16q86 -6 201 -6 q235 0 350 80t115 245q0 167 -105 246q-106 80 -323 80h-373v-633zM305 817h369q206 0 295 74q90 75 90 244q0 170 -98 243q-100 74 -328 74q-95 0 -178 -6q-66 -5 -150 -16v-613z" />
<glyph unicode="C" horiz-adv-x="1187" d="M115 760q0 390 166 583q168 195 495 195q64 0 156 -10q63 -7 172 -29v-94q-108 22 -170 29q-88 10 -150 10q-283 0 -424 -172t-141 -514q0 -334 139 -508q138 -172 406 -172q64 0 172 12q90 10 168 29v-90v6q-100 -25 -166 -35q-82 -12 -170 -12q-325 0 -489 194 t-164 578z" />
<glyph unicode="D" horiz-adv-x="1447" d="M201 8v1501q124 14 200 19q94 6 183 6q383 0 565 -188t182 -588h4q0 -402 -188 -590t-590 -188q-133 0 -221 6q-85 6 -135 22zM301 92q42 -5 139 -14q68 -6 133 -6q338 0 496 168q160 171 160 518q0 352 -156 516t-487 164q-54 0 -148 -4q-60 -3 -135 -13v-1331z" />
<glyph unicode="E" horiz-adv-x="1220" d="M199 0v1516h897v-93h-797v-606h-45v-92h45v-633h813v-92h-913zM299 725v92h750v-92h-750z" />
<glyph unicode="F" horiz-adv-x="1159" d="M199 0v1516h886v-93h-786v-608h-43v-94h43v-721h-100zM299 721v94h721v-94h-721z" />
<glyph unicode="G" horiz-adv-x="1314" d="M115 758q0 390 172 583q174 195 516 195q84 0 172 -12q90 -12 184 -39v-94q-107 27 -192 39q-89 12 -162 12q-293 0 -440 -172q-148 -174 -148 -512q0 -337 143 -508q144 -172 424 -172q52 0 134 10q55 7 159 25v-74l97 2l2 4q-114 -30 -199 -43q-92 -14 -191 -14 q-331 0 -501 194t-170 576zM1079 117v657h97v-729l-56 84l-18 -6q-3 -1 -23 -6z" />
<glyph unicode="H" horiz-adv-x="1521" d="M199 0v1516h100v-693h924v693h102v-1516h-102v731h-924v-731h-100z" />
<glyph unicode="I" horiz-adv-x="495" d="M199 0v1516h100v-1516h-100z" />
<glyph unicode="J" horiz-adv-x="495" d="M39 -326q94 196 129 344q35 149 35 355v1143h100v-1147l2 4q0 -198 -41 -359q-43 -169 -147 -381z" />
<glyph unicode="K" horiz-adv-x="1306" d="M199 0v1516h100v-697h324l505 697h123l-499 -682l-54 -52v-12l60 -49l530 -721h-123l-532 727h-334v-727h-100z" />
<glyph unicode="L" horiz-adv-x="1040" d="M199 0v1516h100v-1424h711v-92h-811z" />
<glyph unicode="M" horiz-adv-x="1839" d="M199 0v1516h139l440 -1018l135 -330h13l135 330l444 1018h137v-1516h-98v1362l-10 2l-182 -434l-377 -869h-109l-377 869l-184 434h-10v-1364h-96z" />
<glyph unicode="N" horiz-adv-x="1564" d="M199 0v1516h94l844 -1170l123 -184h12v1354h96v-1516h-96l-852 1176l-115 176h-10v-1352h-96z" />
<glyph unicode="O" horiz-adv-x="1484" d="M119 756q0 383 162 581q165 201 462 201q296 0 461 -201q162 -198 162 -581q0 -380 -162 -578t-461 -198q-300 0 -462 198t-162 578zM219 756h2q0 -334 135 -510q134 -174 392 -174q252 0 387 176q135 175 135 508q0 334 -135 510t-390 176q-257 0 -391 -174 q-135 -176 -135 -512z" />
<glyph unicode="P" horiz-adv-x="1269" d="M207 2v1505q107 18 176 23q85 6 166 6q336 0 489 -123q154 -124 154 -389q0 -268 -152 -393q-150 -123 -485 -123v-2q-49 0 -111 6q-117 11 -139 14v-524h-98zM299 621l6 2q66 -13 111 -17q64 -6 147 -6q282 0 404 98q123 99 123 326q0 219 -127 319q-126 99 -406 99 q-49 0 -135 -4q-55 -3 -123 -13v-804z" />
<glyph unicode="Q" horiz-adv-x="1476" d="M113 758q0 376 159 579t465 203q301 0 465 -203t164 -579q0 -366 -164 -563t-465 -197v-10v2q141 -38 289 -62q160 -26 313 -34l-16 -101q-235 30 -405 70q-188 44 -312 94q-141 60 -231 129q-95 73 -152 170q-63 101 -86 221q-24 123 -24 281zM213 760q0 -332 135 -508 t389 -176h2q254 0 389 176q136 177 136 508q0 333 -136 510q-135 176 -389 176q-256 0 -391 -176t-135 -510z" />
<glyph unicode="R" horiz-adv-x="1308" d="M199 2v1505q109 18 174 23q85 6 168 6q337 0 491 -115t154 -362q0 -184 -84 -297q-82 -110 -258 -154l383 -610h-115l-367 594q-57 -8 -92 -10q-66 -4 -102 -4q-47 0 -109 6l-40.5 4.5t-52 6t-48.5 5.5v-602zM299 694l2 -2q37 -7 111 -14q64 -6 147 -6q279 0 404 90 q122 88 122 295q0 201 -127 293t-405 92q-43 0 -129 -4q-53 -2 -125 -13v-731z" />
<glyph unicode="S" horiz-adv-x="1132" d="M86 49l4 92q140 -35 229 -47q118 -16 211 -16q191 0 301 78q109 77 109 221q0 63 -22 115q-16 37 -54 81q-30 34 -88 64q-71 36 -104 47q-8 3 -27 10.5t-27 10.5q-29 11 -71 24q-241 71 -336 166q-96 96 -96 258q0 181 133 293q131 110 350 110q76 0 168 -12 q84 -11 201 -37l-4 -96q-93 26 -185 39q-89 12 -172 12q-174 0 -280 -86q-105 -86 -105 -225q0 -126 82 -199q83 -74 291 -135q54 -17 143 -49q56 -20 123 -59q64 -37 101 -80t61 -107q13 -37 18 -69q7 -44 7 -78l-9 8q0 -187 -133 -293q-131 -104 -375 -104q-95 0 -213 16 q-94 13 -231 47z" />
<glyph unicode="T" d="M31 1423v93h1124v-93h-510v-1423h-102v1423h-512z" />
<glyph unicode="U" horiz-adv-x="1503" d="M182 608v905h101v-897q0 -291 114 -417q115 -127 355 -127q239 0 354 127t115 417v897h100v-905h-2q0 -332 -135 -479t-430 -147h-2q-295 0 -433 147q-137 146 -137 479z" />
<glyph unicode="V" horiz-adv-x="1335" d="M25 1516h108l426 -1127l105 -283h8l102 283l430 1127h107l-574 -1516h-139z" />
<glyph unicode="W" horiz-adv-x="2007" d="M47 1516h107l307 -1100l80 -299h10l84 299l317 1100h107l311 -1100l82 -299h10l82 299l314 1100h106l-436 -1516h-137l-318 1122l-63 238h-9l-65 -242l-324 -1118h-137z" />
<glyph unicode="X" horiz-adv-x="1312" d="M20 0l572 778l-541 738h121l463 -635l18 -33h9l20 33l463 635h121l-543 -746l569 -770h-123l-493 668l-19 32h-8l-16 -32l-488 -668h-125z" />
<glyph unicode="Y" horiz-adv-x="1218" d="M16 1516h111l416 -766l61 -127h10l62 127l416 766h112l-542 -996v-520h-103v516z" />
<glyph unicode="Z" horiz-adv-x="1136" d="M70 0v80l850 1333v10h-826v93h953v-78l-846 -1338v-8h864v-92h-995z" />
<glyph unicode="a" horiz-adv-x="1036" d="M92 264q0 159 101 238q104 81 319 102l268 25v114q0 159 -63 222t-228 63q-55 0 -143 -10q-49 -6 -178 -29l-10 88q118 22 180 29q95 10 164 10q192 0 284 -86q93 -87 93 -270v-760h-84l-13 141h-10l-2 -4q-118 -77 -215 -114q-98 -37 -182 -37q-138 0 -209 71 q-72 72 -72 207zM193 272q0 -97 51 -145q52 -49 153 -49q79 0 172 37q100 40 209 110v326l-246 -23q-188 -15 -264 -73q-75 -57 -75 -183z" />
<glyph unicode="b" horiz-adv-x="1183" d="M164 16v1639h100v-676q66 72 158 111q85 36 201 36q226 0 340 -141q112 -139 112 -424h-4q0 -280 -135 -430q-136 -151 -381 -154q-69 0 -190 11q-87 8 -201 28zM260 92q100 -12 152 -16q74 -6 141 -6q206 0 311 123t105 366q0 250 -88 363q-89 114 -277 114 q-134 0 -237 -69q-105 -71 -105 -174v-705z" />
<glyph unicode="c" horiz-adv-x="929" d="M104 553q0 285 127 430q125 143 379 143q60 0 115 -6t111 -18v-96q-58 17 -105 22q-53 6 -108 6q-204 0 -310 -121q-104 -119 -104 -362q0 -250 98 -363q99 -114 311 -114q48 0 103 6t117 18l2 -90l-4 2q-39 -14 -99 -20q-55 -6 -127 -6q-253 0 -379 141 q-127 142 -127 428z" />
<glyph unicode="d" horiz-adv-x="1183" d="M104 553q0 286 138 430q139 145 376 145q33 0 103 -4q28 -2 110 -10q36 -4 50 -6q23 -3 34 -6v551h101v-1655h-86l-12 135h-9l-4 2q-61 -77 -147 -117q-80 -38 -201 -38q-225 0 -338 143q-115 145 -115 430zM213 551q0 -251 88 -367t272 -116q134 0 238 73t104 185v686 q-84 12 -155 18q-74 6 -139 6q-203 0 -306 -121q-102 -120 -102 -362v-2z" />
<glyph unicode="e" horiz-adv-x="1069" d="M106 528q0 289 121 443q120 153 351 153q188 0 286 -125q99 -126 99 -358v-76q0 -20 -5 -55h-747q6 -220 104 -330t289 -110q67 0 152 16q72 14 164 47l10 -86v-2q-76 -33 -164 -49t-172 -16q-237 0 -363 141q-125 140 -125 407zM211 588l657 -2q-3 236 -71 342 q-67 104 -219 104q-175 0 -265 -112q-93 -116 -102 -332z" />
<glyph unicode="f" horiz-adv-x="692" d="M33 1016v92h239v57q0 142 17 242q15 89 67 147q53 59 136 80q88 22 227 31l4 -80q-87 -7 -129 -14q-51 -9 -92 -27q-40 -18 -62 -43q-22 -26 -37 -65q-17 -48 -22 -93q-5 -37 -8 -126v-111h293v-92h-293v-1014l-103 2v1014h-237z" />
<glyph unicode="g" horiz-adv-x="1183" d="M109 559q0 285 137 428q140 146 375 146q106 0 213 -13q85 -10 182 -35v-985q0 -158 -37 -268q-37 -111 -109 -170l2 2q-73 -60 -157 -84q-85 -24 -197 -24q-84 0 -166 12q-78 11 -166 37l9 92q94 -26 170 -37q79 -12 151 -12q192 0 297 102t105 342v58h-9 q-61 -76 -147 -117q-82 -39 -201 -39q-224 0 -338 141t-114 424zM213 557q0 -251 88 -367t272 -116v4q132 0 238 74q104 73 104 184v680q-84 12 -155 18q-74 6 -139 6q-204 0 -306 -120t-102 -363z" />
<glyph unicode="h" d="M164 4v1655h100v-684l4 6q174 83 277 117q107 35 194 35q142 0 213 -74q72 -75 72 -228v-827h-100v793q0 126 -50 182q-49 55 -153 55q-85 0 -197 -37q-111 -37 -254 -108v-889z" />
<glyph unicode="i" horiz-adv-x="442" d="M150 1442q0 74 71 74q76 0 76 -74t-76 -74q-71 0 -71 74zM170 0v1106h100v-1106h-100z" />
<glyph unicode="j" horiz-adv-x="436" d="M12 -418q83 146 121 299q37 151 37 350v641q0 222 -2 230h100v-920v-2q-3 -175 -49 -332q-48 -163 -135 -305zM139 1440q0 73 74 73q34 0 55 -18t21 -53l-2 -4q0 -35 -19 -54q-18 -18 -55 -18q-74 0 -74 74z" />
<glyph unicode="k" horiz-adv-x="1067" d="M168 0v1655h100v-1045h226l413 496h119l-432 -518l-31 -19v-8l33 -20l463 -541h-117l-453 526h-219v-526h-102z" />
<glyph unicode="l" horiz-adv-x="450" d="M174 0v1655h100v-1655h-100z" />
<glyph unicode="m" horiz-adv-x="1781" d="M162 2v1106h82l10 -129h10q135 81 228 117q87 34 172 34q104 0 165 -38q66 -42 93 -117h8q145 88 233 121q90 34 172 34q143 0 213 -73q72 -75 72 -228v-827h-100v791q0 128 -50 184q-49 55 -157 55q-65 0 -158 -35q-97 -37 -209 -104v-893h-100v793q0 127 -49 182 t-154 55q-71 0 -164 -35q-97 -37 -209 -104v-891z" />
<glyph unicode="n" d="M168 4v1106h84l8 -129h10q174 83 277 117q107 35 194 35q142 0 213 -74q72 -75 72 -228v-827h-100v793q0 127 -49 182t-158 55q-85 0 -197 -37q-114 -37 -252 -108v-889z" />
<glyph unicode="o" horiz-adv-x="1163" d="M106 555q0 277 123 424t353 147q229 0 352 -147t123 -424t-123 -424t-352 -147q-230 0 -353 147t-123 424zM213 553h6q0 -239 92 -360t277 -121q189 0 276 118q90 122 90 363t-92 362t-278 121q-187 0 -279 -121t-92 -362z" />
<glyph unicode="p" d="M166 -453v1557h86l12 -127h8q60 72 150 110q87 37 203 37q224 0 338 -141q112 -139 112 -424q0 -280 -135 -430q-137 -152 -381 -152q-13 0 -100 5q-30 2 -111 10q-33 4 -47 6q-12 2 -29 2v-451zM270 90h2q113 -12 158 -16q74 -6 133 -6q206 0 307 122q103 124 103 367 q0 250 -88 363q-88 114 -271 114q-133 0 -239 -71q-105 -71 -105 -179v-694z" />
<glyph unicode="q" horiz-adv-x="1183" d="M109 553q0 275 133 426q131 149 381 149q98 0 208 -10q93 -8 185 -31v-1538h-98v586q-64 -76 -154 -117q-83 -38 -203 -38q-225 0 -338 143q-114 144 -114 430zM213 551q0 -249 86 -367q85 -116 274 -116q140 0 240 75q102 76 102 185v684q-79 12 -153 18t-141 6 q-203 0 -306 -121q-102 -120 -102 -362v-2z" />
<glyph unicode="r" horiz-adv-x="739" d="M164 6v1106h84l8 -147h8q112 55 166 79q75 34 119 50q68 22 69 22q34 9 62 12h33v-98h-33q-72 -9 -172 -49q-106 -42 -238 -111v-870z" />
<glyph unicode="s" horiz-adv-x="903" d="M96 27v90q102 -26 178 -37q82 -12 160 -12q132 0 203 59q72 60 72 166q0 107 -66 158q-64 49 -184 73q-14 3 -32.5 7.5t-23.5 5.5q-18 4 -53 12q-34 7 -55 16q-5 2 -47 23q-34 15 -49 30l-37 37q-21 21 -31 47q-10 28 -16 60q-1 6 -3 18.5t-3 18.5q-3 18 -3 37 q0 138 101 217q103 80 276 80q31 0 117 -11q73 -9 166 -30l-6 -91q-96 23 -158 31q-75 10 -115 10q-131 0 -202 -53q-72 -54 -72 -153q0 -44 16 -84q14 -35 37 -58q21 -21 64 -39q29 -12 71 -26q6 -1 19.5 -5.5t17.5 -5.5l14 -3.5t18.5 -5t16.5 -5.5q67 -13 127 -35 q48 -17 99 -53q49 -34 73 -90q25 -58 25 -133l-4 4q0 -146 -98 -231q-100 -86 -271 -86q-52 0 -137 12q-25 4 -205 35z" />
<glyph unicode="t" horiz-adv-x="768" d="M27 1012v94h249l15 254l84 14v-268h348v-94h-348v-715q0 -112 51 -166q52 -55 154 -55q32 0 73 6q14 2 86 16v-90l-2 2q-53 -12 -96 -18t-80 -6v2q-140 0 -213 73q-74 74 -74 220v731h-247z" />
<glyph unicode="u" d="M160 283v827h100v-795q0 -125 47 -184q45 -57 142 -57q67 0 153 22q78 20 141 49q39 18 72 31q11 5 103 47v885h100v-1106h-84l-10 139h-9q-62 -28 -134.5 -62t-73.5 -34q-53 -24 -129 -45l4 6q-57 -13 -78 -16q-38 -6 -78 -6q-132 0 -199 73t-67 226z" />
<glyph unicode="v" horiz-adv-x="1071" d="M47 1085v21h103l339 -897l43 -129h9l43 129l342 897h100v-21l-418 -1085h-143z" />
<glyph unicode="w" horiz-adv-x="1570" d="M57 1092v14h99l229 -821l43 -172h8l47 172l248 821h105l256 -821l49 -172h10l41 172l219 821h96v-14l-297 -1092h-120l-261 827l-41 156h-10l-39 -156l-250 -827h-120z" />
<glyph unicode="x" horiz-adv-x="1067" d="M33 0v20l434 553l-410 519v14h111l293 -373l71 -94h9l71 94l287 373h111v-14l-408 -525l432 -547v-20h-104l-312 397l-81 107h-9l-82 -107l-307 -397h-106z" />
<glyph unicode="y" horiz-adv-x="1095" d="M45 1092v14h105l348 -856l43 -129h10l45 129l362 856h101v-14l-651 -1543l-91 23v14l177 420z" />
<glyph unicode="z" horiz-adv-x="942" d="M80 2v70l622 936v10h-604v88h748v-64l-629 -944v-8h649v-88h-786z" />
<glyph unicode="&#x2000;" horiz-adv-x="832" />
<glyph unicode="&#x2001;" horiz-adv-x="1665" />
<glyph unicode="&#x2002;" horiz-adv-x="832" />
<glyph unicode="&#x2003;" horiz-adv-x="1665" />
<glyph unicode="&#x2004;" horiz-adv-x="555" />
<glyph unicode="&#x2005;" horiz-adv-x="416" />
<glyph unicode="&#x2006;" horiz-adv-x="277" />
<glyph unicode="&#x2007;" horiz-adv-x="277" />
<glyph unicode="&#x2008;" horiz-adv-x="208" />
<glyph unicode="&#x2009;" horiz-adv-x="333" />
<glyph unicode="&#x200a;" horiz-adv-x="92" />
<glyph unicode="&#x202f;" horiz-adv-x="333" />
<glyph unicode="&#x205f;" horiz-adv-x="416" />
<glyph unicode="&#x25fc;" horiz-adv-x="1105" d="M0 0v1106h1106v-1106h-1106z" />
</font>
</defs>
</svg>
