<?xml version="1.0" standalone="no"?>
<!DOCTYPE svg PUBLIC "-//W3C//DTD SVG 1.1//EN" "http://www.w3.org/Graphics/SVG/1.1/DTD/svg11.dtd" >
<svg xmlns="http://www.w3.org/2000/svg">
<metadata></metadata>
<defs>
<font id="enc7035regular" horiz-adv-x="1257" >
<font-face units-per-em="2048" ascent="1638" descent="-410" />
<missing-glyph horiz-adv-x="1024" />
<glyph horiz-adv-x="2048" />
<glyph horiz-adv-x="2048" />
<glyph unicode="&#xd;" horiz-adv-x="2048" />
<glyph unicode=" "  horiz-adv-x="1024" />
<glyph unicode="&#x09;" horiz-adv-x="1024" />
<glyph unicode="&#xa0;" horiz-adv-x="1024" />
<glyph unicode="," horiz-adv-x="497" d="M63 -297l93 533h217l-148 -553z" />
<glyph unicode="." horiz-adv-x="497" d="M119 115q0 62 33.5 94.5t95.5 32.5q64 0 99.5 -33t35.5 -94q0 -59 -35.5 -91t-99.5 -32q-62 0 -95.5 31.5t-33.5 91.5z" />
<glyph unicode="0" horiz-adv-x="1378" d="M106 756q0 384 149 582t433 198q285 0 434.5 -198t149.5 -582q0 -382 -148.5 -580.5t-433.5 -198.5t-434.5 198.5t-149.5 580.5zM322 756q0 -309 89.5 -454.5t278.5 -145.5q186 0 277.5 147t91.5 453q0 307 -91.5 454.5t-277.5 147.5q-187 0 -277.5 -147t-90.5 -455z" />
<glyph unicode="1" horiz-adv-x="851" d="M41 1237l2 12l457 267h162v-1516h-216l-2 1274h-6l-352 -162h-16z" />
<glyph unicode="2" horiz-adv-x="1153" d="M92 2v205q0 201 115 328q61 67 135 120.5t188 114.5q162 89 229.5 165t67.5 173q0 246 -305 246q-166 0 -366 -51l-21 178q245 53 426 53q479 0 479 -408q0 -161 -88 -268q-86 -109 -278 -219q-185 -105 -260 -186q-74 -83 -74 -191v-84h704v-176h-952z" />
<glyph unicode="3" horiz-adv-x="1101" d="M109 1503q149 33 333 33q252 0 384 -105t132 -303q0 -129 -64 -218t-183 -126v-10q137 -29 212.5 -124.5t75.5 -237.5q0 -209 -145.5 -320.5t-417.5 -111.5q-188 0 -325 28v168h10q130 -31 287 -31q189 0 279.5 70.5t90.5 212.5q0 137 -87.5 200.5t-278.5 63.5h-136v158 h134q169 0 248 63.5t79 194.5t-78 193.5t-243 62.5q-87 0 -295 -29h-8z" />
<glyph unicode="4" horiz-adv-x="1263" d="M43 471v14l508 1051h10l201 -25l6 -20l-496 -967v-10h502l57 483h150v-483h227v-168h-227v-346h-211v346h-688z" />
<glyph unicode="5" horiz-adv-x="1110" d="M104 8v170h46q131 -28 262 -28q200 0 294.5 72t94.5 231q0 151 -113 213.5t-379 64.5l-153 2l-21 21l58 762h757v-175h-594l-28 -446q368 -3 530 -104q164 -99 164 -345q0 -238 -153 -354.5t-433 -116.5q-153 0 -332 33z" />
<glyph unicode="6" horiz-adv-x="1286" d="M106 672q0 418 186 642t535 224q127 0 285 -35l-20 -166q-146 35 -258 35q-231 0 -359.5 -146t-148.5 -431q78 66 181.5 103.5t207.5 37.5q227 0 361 -120t134 -324q0 -237 -147 -375q-146 -140 -391 -140q-277 0 -421.5 176.5t-144.5 518.5zM319 643q6 -256 92.5 -379 t260.5 -123q149 0 234 92t85 252q0 147 -82.5 225t-238.5 78q-91 0 -187.5 -39.5t-163.5 -105.5z" />
<glyph unicode="7" horiz-adv-x="1028" d="M49 1497l17 19h888l37 -115v-47l-540 -1356l-50 -31l-178 33v29l539 1300h-701z" />
<glyph unicode="8" horiz-adv-x="1284" d="M102 389q0 269 269 399q-108 56 -163.5 142t-55.5 215q0 184 135 287.5t366 103.5q224 0 353 -102t129 -289q0 -244 -230 -369q138 -57 208.5 -145t70.5 -228q0 -199 -140 -307t-401 -108v2q-266 0 -403.5 101.5t-137.5 297.5zM305 410q0 -129 89 -198t249 -69 q156 0 246 66t90 184q0 106 -68 174q-28 28 -82 56q-32 17 -68 30.5t-56 19.5t-84 25q-64 18 -89 27q-84 -41 -145 -100q-82 -79 -82 -215zM346 1137q0 -100 70 -170q33 -30 84 -56q89 -40 217 -73l20 -7q203 108 203 302q0 119 -79.5 183t-217.5 64q-137 0 -217 -63 t-80 -180z" />
<glyph unicode="9" horiz-adv-x="1288" d="M78 1024q0 236 145 375q148 139 395 139q277 0 421.5 -176t144.5 -518q0 -418 -186.5 -642.5t-536.5 -224.5q-127 0 -285 35l21 166q149 -35 258 -35q463 0 510 578q-79 -67 -182 -104t-208 -37q-229 0 -363 120t-134 324zM299 1030q0 -147 82.5 -225t236.5 -78 q91 0 187.5 39.5t163.5 105.5q-4 256 -90.5 379t-260.5 123q-149 0 -234 -92t-85 -252z" />
<glyph unicode=":" horiz-adv-x="516" d="M127 115q0 62 34.5 94.5t96.5 32.5t97.5 -33t35.5 -94q0 -59 -35.5 -91t-97.5 -32t-96.5 32t-34.5 91zM127 991q0 61 34.5 93t96.5 32t97.5 -33t35.5 -94q0 -59 -35.5 -91t-97.5 -32t-96.5 32t-34.5 93z" />
<glyph unicode=";" horiz-adv-x="563" d="M100 -297l93 533h217l-148 -553zM164 991q0 61 34.5 93t96.5 32t97.5 -32t35.5 -93t-35.5 -93t-97.5 -32t-96.5 32t-34.5 93z" />
<glyph unicode="A" horiz-adv-x="1415" d="M10 14l537 1502h323l535 -1502v-14h-209l-156 432h-663l-156 -432h-209zM432 612h551l-174 480l-92 270h-19l-90 -272z" />
<glyph unicode="B" horiz-adv-x="1380" d="M176 10v1495q306 29 479 29q309 0 446.5 -97t137.5 -317q0 -134 -69.5 -225t-192.5 -117v-8q152 -29 231.5 -123t79.5 -246q0 -421 -604 -421q-241 0 -508 30zM381 158q104 -17 301 -17q201 0 296 68t95 209q0 140 -89 206t-279 66h-324v-532zM381 844h311 q181 0 257.5 60.5t76.5 205.5q0 141 -82.5 201.5t-277.5 60.5q-157 0 -285 -16v-512z" />
<glyph unicode="C" horiz-adv-x="1212" d="M100 754q0 394 173 589t522 195q137 0 340 -37v-178q-194 33 -316 33q-263 0 -381.5 -142.5t-118.5 -457.5q0 -311 115.5 -452.5t368.5 -141.5q57 0 170 10q105 12 162 27v-179q-164 -40 -334 -40q-701 3 -701 774z" />
<glyph unicode="D" horiz-adv-x="1509" d="M176 6v1505q309 23 440 23q412 0 603.5 -187.5t191.5 -588.5q0 -407 -201 -596q-200 -185 -641 -185q-258 0 -393 29zM389 174q126 -18 250 -18q290 0 420.5 142t130.5 460q0 317 -128.5 456.5t-418.5 139.5q-114 0 -254 -13v-1167z" />
<glyph unicode="E" horiz-adv-x="1277" d="M176 0v1516h987v-175h-774v-487h-98v-174h98v-506h793v-174h-1006zM389 680v174h719v-174h-719z" />
<glyph unicode="F" horiz-adv-x="1220" d="M176 0v1516h979v-175h-766v-505h-88v-177h88v-659h-213zM389 659v177h696v-177h-696z" />
<glyph unicode="G" horiz-adv-x="1370" d="M100 754q0 784 738 784q202 0 393 -51v-180q-223 49 -379 49q-279 0 -406 -142.5t-127 -457.5q0 -309 119.5 -451.5t378.5 -142.5q99 0 230 20v-135l196 -2q-236 -65 -430 -65q-713 3 -713 774zM1047 182v588h198v-725l-100 156q-57 -13 -98 -19zM1243 45h2h-2z" />
<glyph unicode="H" horiz-adv-x="1587" d="M176 0v1516h213v-652h809v652h217v-1516h-217v688h-809v-688h-213z" />
<glyph unicode="I" horiz-adv-x="563" d="M176 0v1516h213v-1516h-213z" />
<glyph unicode="J" horiz-adv-x="563" d="M18 -326q93 202 127 351q35 152 35 360v1131h215v-1145q0 -209 -51 -371q-53 -169 -180 -393z" />
<glyph unicode="K" horiz-adv-x="1390" d="M176 0v1516h215v-660h273l440 660h246l-463 -676l-76 -52v-14l82 -51l493 -723h-245l-461 684h-291v-684h-213z" />
<glyph unicode="L" horiz-adv-x="1101" d="M176 0v1516h213v-1342h684v-174h-897z" />
<glyph unicode="M" horiz-adv-x="1929" d="M176 0v1516h291l375 -891l114 -324h17l117 324l376 891h289v-1516h-196v1257h-13l-164 -430l-323 -766h-187l-323 766l-164 430h-14v-1257h-195z" />
<glyph unicode="N" horiz-adv-x="1609" d="M176 0v1516h176l752 -1012l123 -180h14v1192h195v-1516h-176l-754 1010l-121 180h-14v-1190h-195z" />
<glyph unicode="O" horiz-adv-x="1546" d="M100 756q0 380 174 580t500 200t499 -200t173 -580q0 -379 -173 -577.5t-499 -198.5q-327 0 -500.5 199t-173.5 577zM319 756q0 -307 111 -451.5t344 -144.5q232 0 343.5 145.5t111.5 450.5q0 306 -112.5 453t-342.5 147q-232 0 -343.5 -146t-111.5 -454z" />
<glyph unicode="P" horiz-adv-x="1341" d="M176 0v506v905v94q212 31 391 31q371 0 540 -125.5t169 -402.5q0 -275 -168.5 -404t-529.5 -129q-96 0 -187 8v-483h-215zM391 668q97 -17 219 -17q246 0 347.5 81t101.5 276q0 191 -103.5 272.5t-347.5 81.5q-116 0 -217 -16v-678z" />
<glyph unicode="Q" horiz-adv-x="1542" d="M96 756q0 375 175 577.5t499 202.5t500 -202.5t176 -577.5q0 -350 -163 -539q-159 -184 -445 -184h-15v-15q318 -72 598 -94l-45 -184q-371 68 -613 150.5t-394 195.5q-144 117 -208.5 277.5t-64.5 392.5zM313 756q0 -598 457 -598q232 0 344.5 147.5t112.5 450.5 q0 602 -457 602t-457 -602z" />
<glyph unicode="R" horiz-adv-x="1380" d="M176 0v1505q209 31 393 31q370 0 538.5 -118t168.5 -378q0 -348 -326 -450l377 -590h-242l-327 553q-71 -8 -176 -8q-85 0 -193 12v-557h-213zM389 737q82 -16 221 -16q244 0 346.5 73t102.5 246q0 172 -105 247t-346 75q-107 0 -219 -16v-609z" />
<glyph unicode="S" horiz-adv-x="1208" d="M86 41l2 180q268 -67 475 -67q171 0 260.5 60.5t89.5 176.5q0 125 -98 187q-49 31 -100 50.5t-142 43.5q-250 62 -356 162t-106 288q0 195 145 310q144 114 391 114q158 0 412 -53l-2 -180q-201 55 -391 55q-153 0 -243.5 -65.5t-90.5 -176.5q0 -106 74 -168 q74 -57 264 -110q119 -32 195 -64.5t139 -81.5q131 -96 131 -296q0 -207 -143.5 -318t-411.5 -111q-241 0 -494 64z" />
<glyph unicode="T" horiz-adv-x="1243" d="M35 1341v175h1173v-175h-479v-1341h-215v1341h-479z" />
<glyph unicode="U" horiz-adv-x="1562" d="M160 614v902h215v-900q0 -240 98 -348t309 -108t309.5 108t98.5 348v900h215v-902q0 -334 -146.5 -484t-476.5 -150t-476 150t-146 484z" />
<glyph unicode="V" horiz-adv-x="1411" d="M12 1516h230l366 -1012l92 -295h15l92 295l369 1012h223l-549 -1516h-289z" />
<glyph unicode="W" horiz-adv-x="2107" d="M37 1516h229l254 -1010l64 -285h16l72 285l276 1010h215l273 -1010l69 -285h17l65 285l256 1010h232l-412 -1516h-285l-260 950l-57 285h-12l-58 -287l-266 -948h-283z" />
<glyph unicode="X" horiz-adv-x="1396" d="M2 0l559 782l-524 734h246l379 -533l32 -61h11l34 61l379 533h246l-533 -742l566 -774h-248l-416 580l-31 55h-10l-28 -55l-414 -580h-248z" />
<glyph unicode="Y" horiz-adv-x="1329" d="M2 1516h236l360 -666l59 -139h13l61 139l361 666h233l-551 -1006v-510h-217v502z" />
<glyph unicode="Z" horiz-adv-x="1222" d="M68 0v162l800 1165v14h-774v175h1039v-156l-801 -1174v-12h825v-174h-1089z" />
<glyph unicode="a" horiz-adv-x="1110" d="M78 287q0 158 101.5 240.5t318.5 101.5l264 20v70q0 139 -57 190q-55 52 -216 52q-134 0 -325 -37l-19 155q198 39 390 39q223 0 330.5 -89t107.5 -275v-754h-174l-21 139h-14q-198 -149 -387 -149q-146 0 -222.5 77t-76.5 220zM291 305q0 -82 41 -121t127 -39 q135 0 303 113v270l-203 -18q-148 -13 -208 -59.5t-60 -145.5z" />
<glyph unicode="b" d="M147 29v1626h211v-672q125 143 347 143q460 0 460 -559q0 -282 -147 -434.5t-416 -152.5q-209 0 -455 49zM358 152q127 -19 242 -19q184 0 267 98t83 324q0 216 -69.5 309.5t-229.5 93.5q-125 0 -209 -64.5t-84 -168.5v-573z" />
<glyph unicode="c" horiz-adv-x="989" d="M92 551q0 573 535 573q142 0 276 -28v-176q-133 26 -256 26q-177 0 -259.5 -95t-82.5 -298q0 -207 80 -300t258 -93q120 0 258 22l2 -170q-114 -30 -276 -30q-535 0 -535 569z" />
<glyph unicode="d" d="M92 541q0 285 147.5 435t411.5 150q43 0 248 -18v547h211v-1655h-184l-19 135h-12q-116 -155 -342 -155q-461 0 -461 561zM307 553q0 -220 69.5 -315t229.5 -95q125 0 208.5 67.5t84.5 178.5v557q-148 23 -252 23q-178 0 -259 -97.5t-81 -318.5z" />
<glyph unicode="e" horiz-adv-x="1132" d="M92 537q0 288 132 437.5t386 149.5q211 0 321.5 -124t110.5 -363q0 -95 -12 -148h-727q10 -182 89 -260.5t247 -78.5q182 0 356 55l9 -158q-183 -65 -386 -65q-258 0 -392 141.5t-134 413.5zM303 612h549q-5 191 -62 273t-186 82q-142 0 -216 -87.5t-85 -267.5z" />
<glyph unicode="f" horiz-adv-x="802" d="M33 924v182h239v53q0 152 25.5 243t87.5 150q64 58 162.5 83.5t269.5 31.5l10 -158q-210 -12 -278 -71q-65 -59 -68 -238v-94h295v-182h-295v-924h-211v924h-237z" />
<glyph unicode="g" d="M94 549q0 281 147 429t410 148q223 0 459 -65v-946q0 -566 -557 -566v2q-209 0 -383 46l14 163q183 -47 340 -47q189 0 287.5 89t99.5 286v78h-12q-115 -160 -346 -160q-459 0 -459 543zM307 561q0 -210 70 -302.5t229 -92.5v2q127 0 210 67.5t83 180.5v530 q-151 23 -252 23q-175 0 -257.5 -96.5t-82.5 -311.5z" />
<glyph unicode="h" horiz-adv-x="1259" d="M150 0v1655h210v-674q160 78 266.5 111.5t196.5 33.5q143 0 219 -77t76 -226v-823h-211v752q0 105 -41 152.5t-129 47.5q-147 0 -377 -112v-840h-210z" />
<glyph unicode="i" horiz-adv-x="512" d="M131 1446q0 64 29.5 93.5t95.5 29.5q127 0 127 -123q0 -125 -127 -125q-66 0 -95.5 29.5t-29.5 95.5zM150 0v1106h210v-1106h-210z" />
<glyph unicode="j" horiz-adv-x="507" d="M23 -408q71 157 98 310q31 158 31 370q0 758 -2 834h210v-934q-15 -341 -186 -623zM123 1446q0 123 127 123t127 -123q0 -125 -127 -125q-66 0 -96.5 29.5t-30.5 95.5z" />
<glyph unicode="k" horiz-adv-x="1155" d="M150 0v1655h210v-1014h177l352 465h235l-403 -518l-39 -17v-8l41 -18l436 -545h-235l-392 496h-172v-496h-210z" />
<glyph unicode="l" horiz-adv-x="518" d="M154 0v1655h211v-1655h-211z" />
<glyph unicode="m" horiz-adv-x="1867" d="M150 0v1106h174l14 -129h10q131 80 224 114.5t178 34.5q202 0 266 -153h10q249 153 406 153q143 0 218.5 -77t75.5 -226v-823h-210v750q0 105 -41 152.5t-129 47.5q-114 0 -302 -108v-842h-208v750q0 105 -41.5 152.5t-130.5 47.5q-116 0 -304 -108v-842h-210z" />
<glyph unicode="n" horiz-adv-x="1259" d="M150 0v1106h176l14 -129h12q162 80 270.5 114.5t200.5 34.5q143 0 219 -77t76 -226v-823h-211v752q0 105 -41 152.5t-129 47.5q-150 0 -377 -112v-840h-210z" />
<glyph unicode="o" horiz-adv-x="1236" d="M92 553q0 279 135 426q138 147 391 147q257 0 393 -147.5t136 -425.5t-136 -425.5t-393 -147.5q-253 0 -391 147q-135 147 -135 426zM305 553q0 -210 75.5 -306.5t237.5 -96.5q165 0 239.5 95t74.5 308t-74.5 309t-239.5 96q-162 0 -237.5 -96.5t-75.5 -308.5z" />
<glyph unicode="p" horiz-adv-x="1259" d="M150 -451v1557h182l18 -131h12q118 151 347 151q458 0 458 -559q0 -281 -148 -434t-415 -153q-38 0 -244 16v-447h-210zM360 158q126 -21 250 -21q178 0 260 98.5t82 319.5q0 219 -69.5 313.5t-229.5 94.5q-127 0 -210 -67.5t-83 -180.5v-557z" />
<glyph unicode="q" d="M92 541q0 283 145.5 434t415.5 151q223 0 457 -43v-1534h-203v588q-127 -157 -354 -157q-461 0 -461 561zM305 555q0 -220 70 -316t231 -96q129 0 211 70t82 182v551q-145 23 -252 23q-180 0 -261 -97.5t-81 -316.5z" />
<glyph unicode="r" horiz-adv-x="825" d="M150 0v1106h176l14 -154h8q257 148 385 172h68v-182h-72q-161 -18 -369 -135v-807h-210z" />
<glyph unicode="s" horiz-adv-x="987" d="M92 25v155q209 -49 377 -49q115 0 175.5 43t60.5 125q0 79 -53.5 118.5t-170.5 59.5q-1 1 -2.5 1.5t-4.5 1t-5 1.5l-76 13q-101 25 -141 45q-77 42 -109 94q-41 73 -41 176q0 149 113 235t309 86q138 0 342 -38l-8 -164q-203 43 -315 43q-116 0 -176 -40t-60 -118 q0 -63 45 -108q20 -17 56 -31q73 -24 151 -39q179 -31 263.5 -103.5t84.5 -220.5q0 -158 -112.5 -246t-315.5 -88h-2q-140 0 -385 48z" />
<glyph unicode="t" horiz-adv-x="835" d="M33 924v182h235l31 285l168 20v-305h319v-182h-317v-576q0 -103 44 -150.5t138 -47.5q59 0 142 22v-166q-98 -26 -205 -26q-162 0 -246 82t-84 241v621h-225z" />
<glyph unicode="u" horiz-adv-x="1259" d="M141 283v823h211v-760q0 -103 38 -151t120 -48q78 0 162 26.5t227 90.5v842h211v-1106h-176l-14 135h-9q-196 -97 -278 -125q-85 -30 -205 -30q-141 0 -214 77.5t-73 225.5z" />
<glyph unicode="v" horiz-adv-x="1163" d="M35 1079v27h223l270 -754l50 -184h12l49 184l274 754h220v-27l-416 -1079h-271z" />
<glyph unicode="w" horiz-adv-x="1650" d="M43 1094v12h209l186 -739l35 -160h14l37 160l207 739h187l210 -739l39 -160h15l32 160l183 739h207v-12l-297 -1094h-236l-207 713l-33 143h-14l-31 -143l-200 -713h-236z" />
<glyph unicode="x" horiz-adv-x="1155" d="M23 0v27l413 546l-393 517v16h225l242 -318l65 -94h11l65 94l236 318h227v-16l-391 -523l412 -540v-27h-224l-256 340l-71 106h-15l-69 -106l-254 -340h-223z" />
<glyph unicode="y" horiz-adv-x="1179" d="M29 1083v23h227l276 -715l50 -166h14l51 166l289 715h219v-23l-643 -1534l-197 33v21l168 407z" />
<glyph unicode="z" horiz-adv-x="1032" d="M76 2v137l586 791v14h-568v162h844v-131l-580 -799v-12h600v-162h-882z" />
<glyph unicode="&#x2000;" horiz-adv-x="833" />
<glyph unicode="&#x2001;" horiz-adv-x="1667" />
<glyph unicode="&#x2002;" horiz-adv-x="833" />
<glyph unicode="&#x2003;" horiz-adv-x="1667" />
<glyph unicode="&#x2004;" horiz-adv-x="555" />
<glyph unicode="&#x2005;" horiz-adv-x="416" />
<glyph unicode="&#x2006;" horiz-adv-x="277" />
<glyph unicode="&#x2007;" horiz-adv-x="277" />
<glyph unicode="&#x2008;" horiz-adv-x="208" />
<glyph unicode="&#x2009;" horiz-adv-x="333" />
<glyph unicode="&#x200a;" horiz-adv-x="92" />
<glyph unicode="&#x202f;" horiz-adv-x="333" />
<glyph unicode="&#x205f;" horiz-adv-x="416" />
<glyph unicode="&#x25fc;" horiz-adv-x="1105" d="M0 0v1106h1106v-1106h-1106z" />
</font>
</defs>
</svg>
