<?xml version="1.0" standalone="no"?>
<!DOCTYPE svg PUBLIC "-//W3C//DTD SVG 1.1//EN" "http://www.w3.org/Graphics/SVG/1.1/DTD/svg11.dtd" >
<svg xmlns="http://www.w3.org/2000/svg">
<metadata></metadata>
<defs>
<font id="enc7095regular" horiz-adv-x="1409" >
<font-face units-per-em="2048" ascent="1638" descent="-410" />
<missing-glyph horiz-adv-x="1024" />
<glyph horiz-adv-x="2048" />
<glyph horiz-adv-x="2048" />
<glyph unicode="&#xd;" horiz-adv-x="2048" />
<glyph unicode=" "  horiz-adv-x="1024" />
<glyph unicode="&#x09;" horiz-adv-x="1024" />
<glyph unicode="&#xa0;" horiz-adv-x="1024" />
<glyph unicode="," horiz-adv-x="630" d="M41 -297l86 711h432l-199 -731z" />
<glyph unicode="." horiz-adv-x="608" d="M68 201q0 114 61 166q64 55 176 55q113 0 174 -55q62 -53 62 -166q0 -110 -62 -166q-61 -55 -174 -55q-112 0 -176 55q-61 55 -61 166z" />
<glyph unicode="0" horiz-adv-x="1527" d="M76 756q0 383 178 581.5t512 198.5t511 -198.5t177 -581.5q0 -380 -177.5 -578t-510.5 -198q-334 0 -512 198t-178 578zM514 756q0 -247 55 -338q59 -90 197 -90q133 0 192 90q58 91 58 338q0 168 -27.5 263.5t-80 132t-142.5 36.5q-138 0 -197 -92q-55 -91 -55 -340z " />
<glyph unicode="1" horiz-adv-x="1026" d="M12 1231l4 18l514 267h334v-1516h-442v1055h-8l-330 -76h-23z" />
<glyph unicode="2" horiz-adv-x="1325" d="M68 0v231q0 206 112 330q46 48 80.5 76t85.5 57q95 54 201 99q135 58 192.5 110t57.5 127q0 82 -62.5 119t-199.5 37q-151 0 -394 -47l-28 346q302 51 524 51q306 0 453 -113t147 -346q0 -203 -117 -332q-100 -113 -260 -194q-38 -22 -98 -51.5t-76 -38.5 q-90 -44 -90 -88v-33h637v-340h-1165z" />
<glyph unicode="3" horiz-adv-x="1269" d="M90 8v328h8q52 -15 162 -27q120 -10 186 -10q178 0 238 31q59 35 59 127q0 99 -65 129q-60 32 -266 32h-140v300h138q177 0 235 28q57 29 57 119q0 80 -53 109.5t-200 29.5q-127 0 -351 -35h-8v328q105 20 211 27q132 12 215 12q322 0 480.5 -101.5t158.5 -310.5 q0 -123 -68.5 -210.5t-197.5 -125.5v-16q141 -31 224 -125t83 -223q0 -220 -172 -334.5t-502 -114.5q-300 0 -432 33z" />
<glyph unicode="4" horiz-adv-x="1437" d="M25 532v25l501 979h9l442 -35l20 -37l-532 -860v-8h307l86 336h316v-336h225v-330h-225v-266h-435v266h-673z" />
<glyph unicode="5" horiz-adv-x="1257" d="M90 8v328h94q126 -27 260 -27q163 0 230 38t67 136q0 89 -94 119q-88 33 -350 33h-154l-41 37l64 844h940v-338h-617l-12 -234q377 -3 551 -110t174 -369q0 -110 -39.5 -196t-104.5 -140.5t-157 -90.5t-190 -50.5t-209 -14.5q-141 0 -412 35z" />
<glyph unicode="6" horiz-adv-x="1443" d="M76 686q0 422 219 636t649 214q152 0 354 -41l-51 -307q-188 31 -284 31q-204 0 -305 -77t-130 -259q127 92 326 92q249 0 395 -125q148 -127 148 -334q0 -249 -176 -393q-174 -143 -480 -143q-321 0 -493 181.5t-172 524.5zM516 625q6 -176 60 -254t165 -78 q106 0 156.5 51t50.5 160q0 103 -50 150.5t-157 47.5q-64 0 -126.5 -21t-98.5 -56z" />
<glyph unicode="7" horiz-adv-x="1185" d="M35 1479l43 37h1036l60 -236v-29l-521 -1249l-94 -53l-375 51v41l504 1104h-639z" />
<glyph unicode="8" horiz-adv-x="1441" d="M70 389q0 248 245 373q-190 117 -190 364q0 184 170 295q171 113 455 113q269 0 424 -110.5t155 -297.5q0 -113 -42.5 -184.5t-147.5 -132.5q229 -110 229 -371q0 -454 -641 -454q-657 0 -657 405zM483 444q0 -84 65 -129t179 -45q110 0 168.5 37.5t58.5 108.5 q0 51 -24.5 86t-69.5 65q-24 17 -67 31l-72 25q-8 3 -20 6t-32 7.5t-34 8.5l-19 6q-133 -89 -133 -207zM512 1100q0 -65 61 -111q25 -19 72 -37q68 -25 186 -49q111 83 111 193q0 69 -59 110t-156 41q-99 0 -157 -39t-58 -108z" />
<glyph unicode="9" horiz-adv-x="1443" d="M47 999q0 250 176 394q174 143 482 143q320 0 491.5 -182t171.5 -525q0 -422 -218.5 -635.5t-649.5 -213.5q-158 0 -355 40l54 308q188 -31 284 -31q204 0 305 77t130 259q-127 -92 -328 -92q-246 0 -395 125q-148 127 -148 333zM498 1012q0 -104 49 -151.5t158 -47.5 q61 0 124 22.5t101 55.5q-7 176 -60.5 254t-164.5 78q-106 0 -156.5 -51t-50.5 -160z" />
<glyph unicode=":" horiz-adv-x="647" d="M88 201q0 113 62 166q61 55 174 55q115 0 176 -55q61 -52 61 -166q0 -112 -63 -166q-61 -55 -174 -55t-174 55q-62 56 -62 166zM88 907q0 113 62 166q61 55 174 55q115 0 176 -55q61 -52 61 -166q0 -112 -63 -166q-61 -55 -174 -55t-174 55q-62 56 -62 166z" />
<glyph unicode=";" horiz-adv-x="657" d="M45 -297l86 711h434l-198 -731zM102 907q0 110 62 166q64 55 176 55q113 0 174 -55q64 -55 64 -166t-64 -166q-61 -55 -174 -55q-112 0 -176 55q-62 56 -62 166z" />
<glyph unicode="A" horiz-adv-x="1583" d="M-6 0v23l471 1493h657l471 -1493v-23h-426l-92 309h-563l-92 -309h-426zM616 664h355l-72 237l-88 313h-37l-88 -317z" />
<glyph unicode="B" horiz-adv-x="1517" d="M129 10v1495q333 31 590 31q361 0 527.5 -104t166.5 -330q0 -250 -262 -318v-8q150 -29 229.5 -120.5t79.5 -237.5q0 -226 -165 -332t-515 -106q-302 0 -651 30zM549 295q41 -8 225 -8q127 0 186.5 43t59.5 131q0 91 -55.5 127.5t-190.5 36.5h-225v-330zM549 905h194 q129 0 180.5 37t51.5 129q0 86 -53 123t-177 37q-113 0 -196 -12v-314z" />
<glyph unicode="C" horiz-adv-x="1259" d="M66 756q0 399 189.5 593.5t575.5 194.5q109 0 363 -31v-348q-225 21 -307 21q-122 0 -187 -17.5t-106 -66.5q-42 -48 -57 -125t-15 -221q0 -135 14.5 -214t57.5 -128t109 -65.5t180 -16.5q174 0 311 28v-352q-161 -37 -330 -37q-405 0 -601.5 193t-196.5 592z" />
<glyph unicode="D" horiz-adv-x="1632" d="M129 4v1509q437 23 559 23q462 0 670 -184q209 -185 209 -596q0 -419 -224 -600q-221 -179 -741 -179q-274 0 -473 27zM569 340q85 -14 209 -14q192 0 264 90t72 340q0 247 -78 340q-77 92 -280 92q-80 0 -187 -8v-840z" />
<glyph unicode="E" horiz-adv-x="1390" d="M129 0v1516h1171v-338h-729v-250h-204v-338h204v-250h750v-340h-1192zM571 590v338h654v-338h-654z" />
<glyph unicode="F" horiz-adv-x="1345" d="M129 0v1516h1167v-338h-725v-304h-182v-339h182v-535h-442zM571 535v339h648v-339h-648z" />
<glyph unicode="G" horiz-adv-x="1478" d="M66 756q0 395 208.5 591.5t630.5 196.5q258 0 461 -49v-350q-264 41 -426 41q-89 0 -151 -7.5t-110.5 -27t-77.5 -49.5t-48 -80t-26 -113t-7 -153q0 -133 14.5 -211.5t56.5 -128t109 -67t181 -17.5q24 0 102 4v-279l403 -4q-303 -82 -522 -82q-405 0 -601.5 193.5 t-196.5 591.5zM983 336q0 289 2 434h401v-717l-194 307q-70 -15 -209 -24z" />
<glyph unicode="H" horiz-adv-x="1720" d="M129 0v1516h442v-568h580v568h442v-1516h-442v606h-580v-606h-442z" />
<glyph unicode="I" horiz-adv-x="700" d="M129 0v1516h442v-1516h-442z" />
<glyph unicode="J" horiz-adv-x="698" d="M-18 -322q82 188 120 359q33 149 33 373v1106h445v-1141q0 -210 -72 -395q-70 -180 -246 -424z" />
<glyph unicode="K" horiz-adv-x="1558" d="M129 0v1516h442v-584h179l305 584h489l-385 -662l-125 -53v-19l129 -57l418 -725h-489l-318 594h-203v-594h-442z" />
<glyph unicode="L" horiz-adv-x="1224" d="M129 0v1516h442v-1178h627v-338h-1069z" />
<glyph unicode="M" horiz-adv-x="2109" d="M129 0v1516h596l242 -637l77 -314h21l80 314l241 637h596v-1516h-393v1047h-20l-127 -422l-215 -564h-344l-215 564l-125 422h-19v-1047h-395z" />
<glyph unicode="N" horiz-adv-x="1699" d="M129 0v1516h340l571 -695l121 -172h19v867h391v-1516h-338l-553 676l-139 192h-21v-868h-391z" />
<glyph unicode="O" horiz-adv-x="1671" d="M66 756q0 382 196.5 581t573.5 199t573.5 -199t196.5 -581q0 -381 -196.5 -578.5t-573.5 -197.5t-573.5 197.5t-196.5 578.5zM518 756q2 -89 8 -151t21 -111t37 -78t58.5 -49t82 -27.5t111.5 -9.5q189 0 254 86t65 340q0 252 -70 340q-69 90 -249 90q-181 0 -250 -90 q-68 -89 -68 -340z" />
<glyph unicode="P" horiz-adv-x="1488" d="M129 0h442v412q-137 3 -442 32v-444zM129 444v1061q270 31 494 31q439 0 634 -133q197 -132 197 -428q0 -284 -202.5 -423.5t-614.5 -139.5h-66v1001h-442v-969zM571 762q75 -10 138 -10q171 0 233 47t62 176q0 128 -58 174q-56 47 -225 47q-75 0 -150 -10v-424z" />
<glyph unicode="Q" horiz-adv-x="1671" d="M63 756q0 373 202.5 576.5t570.5 203.5q371 0 572.5 -202.5t201.5 -577.5q0 -314 -164 -490q-152 -163 -414 -163q-18 0 -37 1v-26l371 -68q94 -14 211 -22l-100 -353q-301 83 -486 146q-418 138 -633 307q-158 127 -226.5 285.5t-68.5 382.5zM512 756q0 -240 70 -334 t254 -94q183 0 254 92t71 336q0 243 -71 338q-72 96 -254 96q-179 0 -251.5 -97.5t-72.5 -336.5z" />
<glyph unicode="R" horiz-adv-x="1523" d="M129 0v1505q270 31 494 31q436 0 634 -127q197 -126 197 -405q0 -322 -291 -447l367 -557h-496l-256 475q-86 -4 -131 -4h-76v-471h-442zM571 821q41 -12 138 -12q171 0 233 41t62 154q0 111 -58 151q-59 41 -225 41q-72 0 -150 -10v-365z" />
<glyph unicode="S" horiz-adv-x="1357" d="M74 41v354q332 -76 547 -76q124 0 177.5 26t53.5 83q0 61 -54 91.5t-188 51.5q-270 39 -397 157.5t-127 344.5q0 217 170 340t471 123q189 0 502 -59v-351q-227 68 -453 68q-229 0 -229 -111q0 -64 58 -99.5t206 -68.5q261 -45 381.5 -150t120.5 -298q0 -244 -164 -368 t-485 -124q-288 0 -590 66z" />
<glyph unicode="T" horiz-adv-x="1355" d="M41 1176v340h1276v-340h-418v-1176h-442v1176h-416z" />
<glyph unicode="U" horiz-adv-x="1685" d="M115 629v891h442v-904q0 -284 285 -284q150 0 219 70.5t69 213.5v904h441v-891q0 -168 -36.5 -286t-121 -201t-224.5 -122.5t-345 -39.5h-2q-204 0 -344.5 39.5t-225 123t-121 201t-36.5 285.5z" />
<glyph unicode="V" horiz-adv-x="1564" d="M-10 1516h467l250 -779l67 -325h25l69 325l250 779h457l-498 -1516h-588z" />
<glyph unicode="W" horiz-adv-x="2306" d="M14 1516h480l143 -828l31 -258h30l45 258l197 828h430l195 -828l47 -258h28l31 258l144 828h479l-359 -1516h-579l-146 606l-45 379h-22l-45 -379l-146 -606h-579z" />
<glyph unicode="X" horiz-adv-x="1564" d="M-35 0l539 795l-496 721h500l207 -332l63 -113h13l63 113l215 332h494l-514 -736l557 -780h-496l-264 403l-55 101h-13l-55 -101l-262 -403h-496z" />
<glyph unicode="Y" horiz-adv-x="1546" d="M-23 1516h482l248 -467l57 -162h20l60 162l248 467h477l-570 -1029v-487h-442v473z" />
<glyph unicode="Z" horiz-adv-x="1396" d="M61 0v324l707 831v21h-676v340h1211v-316l-709 -840v-20h749v-340h-1282z" />
<glyph unicode="a" horiz-adv-x="1259" d="M53 326q0 326 422 350l252 18q-3 85 -45 105q-43 24 -195 24q-134 0 -337 -37l-27 293q240 43 479 43q557 0 557 -383v-739h-352l-39 133h-18q-143 -143 -367 -143q-158 0 -244 88.5t-86 247.5zM489 373q0 -50 22 -72t73 -22q38 0 81 14t62 33v155l-117 -10 q-68 -8 -94.5 -29.5t-26.5 -68.5z" />
<glyph unicode="b" horiz-adv-x="1404" d="M109 51v1604h432v-662q107 131 329 131q473 0 473 -542q0 -288 -170.5 -445.5t-480.5 -159.5q-227 0 -583 74zM541 281q63 -17 147 -17q141 0 180 51q41 53 41 234q0 155 -35 205q-34 51 -139 51t-149.5 -49t-44.5 -166v-309z" />
<glyph unicode="c" horiz-adv-x="1105" d="M61 553q0 571 588 571q222 0 379 -37v-333q-203 22 -336 22q-115 0 -159 -48t-44 -171q0 -125 44.5 -176t154.5 -51q186 0 340 22v-332q-146 -38 -379 -38q-588 0 -588 571z" />
<glyph unicode="d" d="M61 522q0 292 171 448t481 156q86 0 151 -8v537h432v-1655h-378l-33 137h-17q-109 -160 -333 -160q-474 0 -474 545zM496 555q0 -159 34 -211q35 -53 140 -53q103 0 148 50.5t46 172.5v299q-79 21 -164 21q-123 0 -165 -54q-39 -51 -39 -225z" />
<glyph unicode="e" horiz-adv-x="1259" d="M61 549q0 284 155.5 429.5t457.5 145.5q524 0 524 -493q0 -105 -22 -185h-684q9 -89 53 -116t160 -27q101 0 227 12q128 12 211 33l10 -303q-223 -63 -485 -63q-607 0 -607 567zM489 655h330q-1 96 -39 136t-125 40q-85 0 -122 -38.5t-44 -137.5z" />
<glyph unicode="f" horiz-adv-x="1019" d="M29 745v361h239v47q0 286 168 399q168 116 576 119l20 -309q-183 -1 -258.5 -45.5t-75.5 -149.5v-61h297v-361h-297v-745h-432v745h-237z" />
<glyph unicode="g" horiz-adv-x="1404" d="M63 543q0 282 170.5 432.5t479.5 150.5q106 0 235 -22q136 -23 350 -84v-873q0 -128 -35.5 -230t-96.5 -170t-147.5 -113t-184.5 -65t-211 -20q-287 0 -484 43l25 306q192 -39 371 -39q360 0 360 235v121h-18q-94 -168 -338 -168q-476 0 -476 496zM498 575 q0 -134 34 -180q34 -43 140 -43v-2q105 0 149.5 52.5t44.5 175.5v235q-82 21 -164 21q-124 0 -165 -50q-39 -45 -39 -209z" />
<glyph unicode="h" horiz-adv-x="1406" d="M111 0v1655h432v-660q277 131 438 131q148 0 235 -84t87 -227v-815h-433v672q0 64 -22.5 91.5t-75.5 27.5q-90 0 -229 -50v-741h-432z" />
<glyph unicode="i" horiz-adv-x="651" d="M96 1452q0 118 54 170.5t176 52.5t176.5 -53.5t54.5 -169.5q0 -118 -54 -171.5t-177 -53.5q-121 0 -175.5 53t-54.5 172zM111 0v1106h432v-1106h-432z" />
<glyph unicode="j" horiz-adv-x="647" d="M37 -399q44 175 59 329q19 165 19 414q0 466 -6 762h432v-963q-30 -312 -189 -594zM92 1452q0 117 54.5 170t177.5 53q122 0 176.5 -53.5t54.5 -169.5q0 -118 -54.5 -171.5t-176.5 -53.5q-123 0 -177.5 53t-54.5 172z" />
<glyph unicode="k" horiz-adv-x="1329" d="M111 0v1655h432v-950h84l225 401h471l-344 -518l-57 -13v-8l57 -12l381 -555h-471l-268 438h-78v-438h-432z" />
<glyph unicode="l" horiz-adv-x="651" d="M111 0v1655h432v-1655h-432z" />
<glyph unicode="m" horiz-adv-x="2039" d="M111 0v1106h360l23 -127h14q231 147 405 147q205 0 285 -147h10q228 147 404 147q149 0 236 -84t87 -227v-815h-430v666q0 61 -23.5 89.5t-74.5 28.5q-70 0 -168 -43v-741h-430v666q0 62 -24 90t-78 28q-65 0 -166 -43v-741h-430z" />
<glyph unicode="n" d="M111 0l2 1106h360l23 -127h16q285 147 469 147q149 0 236.5 -84t87.5 -227v-815h-433v672q0 63 -23.5 91t-74.5 28q-93 0 -229 -50v-741h-434z" />
<glyph unicode="o" horiz-adv-x="1384" d="M59 551q0 281 163 428t472 147t471 -146t162 -427q0 -282 -162 -428q-165 -148 -471 -148q-308 0 -473 148q-162 146 -162 426zM492 553q0 -149 43 -201q43 -49 159 -49q118 0 158 49q43 52 43 201q0 150 -43 199q-40 49 -158 49q-119 0 -162 -49q-40 -49 -40 -199z" />
<glyph unicode="p" d="M111 -451l2 1557h376l31 -139h19q102 159 338 159q234 0 353.5 -136.5t119.5 -405.5q0 -291 -171 -449t-479 -158q-65 0 -155 11v-439h-434zM545 293q65 -21 166 -21q126 0 163 52q39 51 39 227q0 159 -34 211q-35 53 -142 53q-104 0 -148 -54t-44 -183v-285z" />
<glyph unicode="q" horiz-adv-x="1406" d="M61 522q0 294 171 450t485 156q32 0 110 -4q81 -2 207 -16l90 -10l97 -13q74 -9 77 -12v-1524h-413v590q-123 -159 -350 -159q-474 0 -474 542zM492 561q0 -165 34 -217q35 -53 146 -53q106 0 150 54t44 183v287q-74 19 -166 19q-130 0 -170 -52q-38 -46 -38 -221z" />
<glyph unicode="r" horiz-adv-x="993" d="M111 0l2 1106h360l23 -168h10q64 61 157.5 114.5t172.5 73.5h137v-350h-152q-81 -7 -159 -34t-117 -60v-682h-434z" />
<glyph unicode="s" horiz-adv-x="1159" d="M76 27v288q263 -53 456 -53q86 0 122 12.5t36 42.5q0 32 -38 49.5t-130 24.5q-2 2 -10 2q-9 1 -84 8q-109 17 -164 41q-89 39 -131 103q-51 93 -51 209q0 177 137 275.5t379 98.5q185 0 455 -43l-11 -311q-247 55 -397 55q-153 0 -153 -61q0 -32 44 -49t162 -29 q204 -19 304 -99.5t100 -240.5q0 -373 -549 -373q-238 0 -477 50z" />
<glyph unicode="t" horiz-adv-x="968" d="M39 745v361h205l65 344l334 35v-379h260v-361h-256v-296q0 -86 30.5 -120t108.5 -34q54 0 119 24v-315q-107 -35 -268 -35q-207 0 -314.5 96t-107.5 281v399h-176z" />
<glyph unicode="u" d="M104 291v815h433v-688q0 -62 23.5 -90.5t74.5 -28.5q95 0 229 51v756h432v-1106h-360l-23 125h-8q-163 -91 -246 -117q-89 -28 -223 -28q-158 0 -245 82t-87 229z" />
<glyph unicode="v" horiz-adv-x="1349" d="M8 1065v41h469l131 -471l60 -289h22l60 289l137 471h459v-41l-412 -1065h-520z" />
<glyph unicode="w" horiz-adv-x="1810" d="M16 1098v8h426l109 -576l14 -137h27l16 137l123 576h348l125 -576l17 -137h24l17 137l106 576h426v-8l-295 -1098h-467l-100 479l-14 125h-25l-14 -125l-99 -479h-469z" />
<glyph unicode="x" horiz-adv-x="1333" d="M2 0v39l371 534l-357 510v23h455l135 -209l53 -94h19l53 94l133 209h457v-23l-358 -518l370 -528v-37h-456l-148 229l-53 107h-21l-51 -107l-145 -229h-457z" />
<glyph unicode="y" horiz-adv-x="1349" d="M0 1065v41h469l135 -430l64 -244h20l62 244l141 430h457v-41l-625 -1516l-410 56v33l150 382z" />
<glyph unicode="z" horiz-adv-x="1212" d="M70 0v272l512 504v21h-494v309h1036v-270l-485 -502v-23h506v-311h-1075z" />
<glyph unicode="&#x2000;" horiz-adv-x="837" />
<glyph unicode="&#x2001;" horiz-adv-x="1675" />
<glyph unicode="&#x2002;" horiz-adv-x="837" />
<glyph unicode="&#x2003;" horiz-adv-x="1675" />
<glyph unicode="&#x2004;" horiz-adv-x="558" />
<glyph unicode="&#x2005;" horiz-adv-x="418" />
<glyph unicode="&#x2006;" horiz-adv-x="279" />
<glyph unicode="&#x2007;" horiz-adv-x="279" />
<glyph unicode="&#x2008;" horiz-adv-x="209" />
<glyph unicode="&#x2009;" horiz-adv-x="335" />
<glyph unicode="&#x200a;" horiz-adv-x="93" />
<glyph unicode="&#x202f;" horiz-adv-x="335" />
<glyph unicode="&#x205f;" horiz-adv-x="418" />
<glyph unicode="&#x25fc;" horiz-adv-x="1105" d="M0 0v1106h1106v-1106h-1106z" />
</font>
</defs>
</svg>
