<?xml version="1.0" standalone="no"?>
<!DOCTYPE svg PUBLIC "-//W3C//DTD SVG 1.1//EN" "http://www.w3.org/Graphics/SVG/1.1/DTD/svg11.dtd" >
<svg xmlns="http://www.w3.org/2000/svg">
<metadata></metadata>
<defs>
<font id="enc7045regular" horiz-adv-x="1284" >
<font-face units-per-em="2048" ascent="1638" descent="-410" />
<missing-glyph horiz-adv-x="1024" />
<glyph horiz-adv-x="2048" />
<glyph horiz-adv-x="2048" />
<glyph unicode="&#xd;" horiz-adv-x="2048" />
<glyph unicode=" "  horiz-adv-x="1024" />
<glyph unicode="&#x09;" horiz-adv-x="1024" />
<glyph unicode="&#xa0;" horiz-adv-x="1024" />
<glyph unicode="," horiz-adv-x="520" d="M59 -297l93 563h251l-155 -583z" />
<glyph unicode="." horiz-adv-x="516" d="M111 131q0 68 38.5 104.5t108.5 36.5q72 0 112 -37t40 -106q0 -67 -40 -103t-112 -36q-70 0 -108.5 36.5t-38.5 104.5z" />
<glyph unicode="0" horiz-adv-x="1402" d="M102 756q0 384 153 582t445 198q294 0 448.5 -198t154.5 -582q0 -382 -153.5 -580.5t-447.5 -198.5t-447 198.5t-153 580.5zM354 756q0 -298 83.5 -435t264.5 -137q178 0 263.5 138.5t85.5 433.5q0 298 -85 435.5t-264 137.5t-263.5 -137.5t-84.5 -435.5z" />
<glyph unicode="1" horiz-adv-x="880" d="M37 1237l2 12l465 267h190v-1516h-252v1237h-8l-348 -147h-16z" />
<glyph unicode="2" horiz-adv-x="1181" d="M88 2v209q0 203 121 336q60 64 132 113.5t191 113.5q158 83 223.5 155t65.5 167q0 117 -72.5 173t-224.5 56q-164 0 -370 -49l-23 205q257 53 442 53q500 0 500 -416q0 -160 -86 -272t-282 -221q-184 -105 -250 -174q-72 -75 -72 -172v-74h692v-203h-987z" />
<glyph unicode="3" horiz-adv-x="1130" d="M106 8v195h11q130 -31 297 -31q188 0 273 63t85 197q0 132 -83 190t-277 58h-136v182h134q170 0 245.5 57t75.5 181q0 123 -74 180t-235 57q-106 0 -305 -30h-8l-3 194q166 35 349 35q262 0 399 -105t137 -303q0 -128 -65.5 -217.5t-184.5 -126.5v-10q137 -31 214 -125.5 t77 -234.5q0 -211 -149 -322.5t-432 -111.5q-205 0 -345 28z" />
<glyph unicode="4" horiz-adv-x="1292" d="M41 481v17l506 1038h10l240 -27l10 -22l-502 -950v-9h467l64 459h178v-459h225v-196h-225v-332h-250v332h-684z" />
<glyph unicode="5" horiz-adv-x="1134" d="M102 8v197h54q126 -27 262 -27q195 0 284 65.5t89 215.5q0 139 -109 196t-375 62h-153l-23 22l57 777h789v-201h-598l-25 -412q371 -3 533 -104q166 -102 166 -348q0 -102 -30.5 -183t-84 -135.5t-130.5 -90t-166.5 -51.5t-195.5 -16q-153 0 -344 33z" />
<glyph unicode="6" horiz-adv-x="1312" d="M100 674q0 419 193 641.5t555 222.5q134 0 295 -37l-25 -188q-152 35 -262 35q-451 0 -498 -539q160 133 379 133q232 0 368 -119.5t136 -326.5q0 -237 -151 -379q-152 -140 -406 -140q-285 0 -434.5 177.5t-149.5 519.5zM352 639q6 -242 87 -357.5t245 -115.5 q141 0 220 85.5t79 237.5q0 140 -76.5 212.5t-224.5 72.5q-87 0 -178 -37t-152 -98z" />
<glyph unicode="7" horiz-adv-x="1054" d="M47 1493l21 23h913l41 -136v-43l-537 -1339l-57 -33l-211 35v31l533 1267h-691z" />
<glyph unicode="8" horiz-adv-x="1310" d="M96 389q0 267 264 393q-213 115 -213 361q0 183 142 289q143 104 379 104q233 0 365 -103.5t132 -291.5q0 -128 -56 -213.5t-165 -145.5q134 -57 201 -144t67 -228q0 -203 -142.5 -312.5t-412.5 -109.5q-277 0 -419 102t-142 299zM334 416q0 -121 86 -186.5t237 -65.5 q148 0 233 61.5t85 171.5q0 105 -68 166q-30 30 -80 53q-74 36 -204 74l-78 23q-211 -108 -211 -297zM373 1130q0 -99 69 -161q28 -26 84 -51q73 -34 213 -70l15 -4q188 105 188 282q0 111 -77 171.5t-208 60.5t-207.5 -59.5t-76.5 -168.5z" />
<glyph unicode="9" horiz-adv-x="1314" d="M74 1020q0 238 151 377q150 141 406 141q285 0 434 -177t149 -519q0 -420 -192 -642.5t-555 -222.5q-134 0 -295 37l27 189q152 -35 260 -35q452 0 499 539q-166 -134 -380 -134q-232 0 -368 120t-136 327zM332 1026q0 -139 77 -212t224 -73q87 0 178 37.5t152 98.5 q-5 242 -85.5 357.5t-246.5 115.5q-141 0 -220 -86t-79 -238z" />
<glyph unicode=":" horiz-adv-x="538" d="M121 131q0 68 38.5 104.5t108.5 36.5q72 0 112 -37t40 -106q0 -67 -40 -103t-112 -36q-70 0 -108.5 36.5t-38.5 104.5zM121 977q0 68 38.5 104.5t108.5 36.5q73 0 112.5 -36.5t39.5 -104.5t-39.5 -104.5t-112.5 -36.5q-70 0 -108.5 36.5t-38.5 104.5z" />
<glyph unicode=";" horiz-adv-x="579" d="M92 -297l90 563h254l-155 -583zM154 977q0 68 38.5 104.5t108.5 36.5q73 0 112.5 -36.5t39.5 -104.5t-39.5 -104.5t-112.5 -36.5q-70 0 -108.5 36.5t-38.5 104.5z" />
<glyph unicode="A" horiz-adv-x="1443" d="M8 0v16l524 1500h379l525 -1500v-16h-246l-143 412h-648l-145 -412h-246zM463 621h518l-158 438l-90 278h-22l-90 -280z" />
<glyph unicode="B" horiz-adv-x="1402" d="M168 10v1495q302 31 498 31q318 0 460 -99t142 -319q0 -133 -68.5 -222t-193.5 -118v-8q153 -29 232 -122t79 -245q0 -214 -152.5 -318.5t-464.5 -104.5q-250 0 -532 30zM410 180q77 -14 288 -14q186 0 276.5 63.5t90.5 194.5q0 133 -84 194.5t-264 61.5h-307v-500z M410 854h290q172 0 245 57.5t73 192.5q0 131 -78.5 188.5t-261.5 57.5q-142 0 -268 -17v-479z" />
<glyph unicode="C" horiz-adv-x="1220" d="M94 754q0 394 176 589t531 195q126 0 344 -35v-207q-215 31 -316 31q-254 0 -366 -133q-109 -133 -109 -438q0 -302 108.5 -434t354.5 -132q43 0 168 11q101 12 160 24v-205q-162 -43 -334 -43q-361 1 -539 194.5t-178 582.5z" />
<glyph unicode="D" horiz-adv-x="1529" d="M168 6v1505q317 25 461 25q419 0 613 -187t194 -591q0 -411 -203 -596t-658 -185q-259 0 -407 29zM420 201q136 -17 244 -17q272 0 393 133.5t121 438.5q0 307 -119.5 439t-396.5 132q-116 0 -242 -12v-1114z" />
<glyph unicode="E" horiz-adv-x="1296" d="M168 0v1516h1018v-201h-766v-449h-117v-200h117v-463h784v-203h-1036zM420 666v200h706v-200h-706z" />
<glyph unicode="F" horiz-adv-x="1241" d="M168 0v1516h1012v-201h-760v-473h-105v-203h105v-639h-252zM420 639v203h688v-203h-688z" />
<glyph unicode="G" horiz-adv-x="1388" d="M94 754q0 784 756 784q206 0 403 -49v-209q-233 47 -387 47q-275 0 -394.5 -132.5t-119.5 -438.5q0 -301 111.5 -433.5t363.5 -132.5q68 0 207 17v-160h234q-244 -70 -447 -70q-727 3 -727 777zM1034 207q0 377 2 563h232v-723l-117 180q-77 -15 -117 -20z" />
<glyph unicode="H" horiz-adv-x="1609" d="M168 0v1516h252v-637h772v637h252v-1516h-254v676h-770v-676h-252z" />
<glyph unicode="I" horiz-adv-x="587" d="M168 0v1516h252v-1516h-252z" />
<glyph unicode="J" horiz-adv-x="585" d="M12 -326q88 192 125 353q35 152 35 362v1127h254v-1145q0 -205 -55 -373q-51 -165 -191 -399z" />
<glyph unicode="K" horiz-adv-x="1419" d="M168 0v1516h252v-648h258l418 648h284l-448 -674l-84 -51v-15l90 -53l481 -723h-286l-437 668h-276v-668h-252z" />
<glyph unicode="L" horiz-adv-x="1122" d="M168 0v1516h252v-1315h674v-201h-926z" />
<glyph unicode="M" horiz-adv-x="1959" d="M168 0v1516h342l352 -848l109 -324h16l111 324l354 848h342v-1516h-229v1223h-15l-157 -428l-306 -734h-215l-303 734l-157 428h-15v-1223h-229z" />
<glyph unicode="N" horiz-adv-x="1624" d="M168 0v1516h203l723 -959l123 -178h14v1137h227v-1516h-203l-720 954l-125 183h-15v-1137h-227z" />
<glyph unicode="O" horiz-adv-x="1568" d="M94 756q0 380 178 580t512 200t512.5 -200t178.5 -580q0 -378 -178.5 -577t-512.5 -199t-512 198.5t-178 577.5zM352 756q0 -299 103 -434.5t329 -135.5v2q224 0 328.5 136.5t104.5 431.5q0 296 -105 433.5t-328 137.5q-224 0 -328 -136.5t-104 -434.5z" />
<glyph unicode="P" horiz-adv-x="1366" d="M168 0v496v917v92q225 31 410 31q381 0 554 -127t173 -408q0 -277 -174 -406.5t-543 -129.5q-80 0 -168 6v-471h-252zM420 684q88 -16 207 -16q233 0 327 73q95 77 95 260q0 181 -95.5 256.5t-326.5 75.5q-124 0 -207 -14v-635z" />
<glyph unicode="Q" horiz-adv-x="1562" d="M90 756q0 375 180 577.5t510 202.5q332 0 512.5 -202.5t180.5 -577.5q0 -344 -163 -530q-158 -181 -440 -181h-18v-16q340 -74 594 -95l-53 -210q-270 56 -443 104q-384 105 -581 258q-148 116 -213.5 278t-65.5 392zM346 756q0 -290 106.5 -430t327.5 -140 q223 0 330 138.5t107 431.5t-107 433t-330 140q-221 0 -327.5 -140t-106.5 -433z" />
<glyph unicode="R" horiz-adv-x="1404" d="M168 0v1505q219 31 410 31q382 0 554.5 -119t172.5 -383q0 -341 -318 -450l375 -584h-285l-315 541q-77 -9 -170 -9q-76 0 -172 13v-545h-252zM420 752q77 -17 207 -17q232 0 327 67.5t95 231.5q0 161 -97 230t-325 69q-112 0 -207 -14v-567z" />
<glyph unicode="S" horiz-adv-x="1232" d="M84 41l2 209q281 -68 487 -68q330 0 330 215q0 116 -92 170q-46 30 -95 48.5t-134 39.5q-256 59 -365 162q-111 105 -111 297q0 198 149.5 314t403.5 116q165 0 428 -53l-2 -209q-200 57 -401 57q-148 0 -231.5 -58.5t-83.5 -162.5q0 -97 71 -153.5t252 -106.5 q118 -26 197.5 -59t144.5 -84q131 -99 131 -299q0 -214 -147 -327.5t-424 -113.5v2q-251 0 -510 64z" />
<glyph unicode="T" horiz-adv-x="1261" d="M35 1313v203h1192v-203h-469v-1313h-254v1313h-469z" />
<glyph unicode="U" horiz-adv-x="1583" d="M152 616v900h254v-900q0 -224 93.5 -326t293.5 -102t293.5 102t93.5 326v900h252v-900q0 -335 -150 -485q-148 -151 -489 -151t-492 151q-149 149 -149 485z" />
<glyph unicode="V" horiz-adv-x="1437" d="M10 1516h266l349 -973l88 -301h16l88 301l348 973h262l-538 -1516h-340z" />
<glyph unicode="W" horiz-adv-x="2140" d="M33 1516h272l234 -979l59 -281h18l68 281l262 979h252l258 -979l68 -281h18l60 281l237 979h270l-401 -1516h-334l-239 893l-56 301h-14l-57 -303l-244 -891h-334z" />
<glyph unicode="X" horiz-adv-x="1425" d="M-4 0l555 786l-520 730h288l351 -500l39 -70h10l39 70l352 500h287l-531 -742l566 -774h-289l-391 551l-35 61h-10l-35 -61l-387 -551h-289z" />
<glyph unicode="Y" horiz-adv-x="1363" d="M0 1516h274l342 -633l60 -144h14l62 144l342 633h274l-555 -1010v-506h-254v498z" />
<glyph unicode="Z" horiz-adv-x="1251" d="M66 0v188l786 1110v15h-758v203h1065v-185l-784 -1116v-12h813v-203h-1122z" />
<glyph unicode="a" horiz-adv-x="1134" d="M74 293q0 159 102 242t318 102l262 20v54q0 132 -54 180q-53 47 -213 47q-132 0 -329 -37l-19 178q204 39 406 39q232 0 344.5 -90t112.5 -276v-752h-203l-25 137h-14q-190 -147 -385 -147q-146 0 -224.5 78.5t-78.5 224.5zM324 317q0 -78 37.5 -113.5t117.5 -35.5 q127 0 277 102v250l-189 -16q-135 -14 -189 -55t-54 -132z" />
<glyph unicode="b" horiz-adv-x="1282" d="M141 33v1622h248v-670q120 141 344 141q461 0 461 -557q0 -282 -151 -435.5t-427 -153.5q-205 0 -475 53zM389 174q108 -18 227 -18q175 0 251.5 91t76.5 306q0 208 -64 294.5t-214 86.5q-124 0 -200.5 -62.5t-76.5 -169.5v-528z" />
<glyph unicode="c" horiz-adv-x="1007" d="M88 551q0 573 543 573q161 0 293 -30v-201q-150 25 -269 25q-166 0 -243.5 -87.5t-77.5 -277.5q0 -192 75 -278.5t242 -86.5q123 0 271 23l2 -197q-111 -32 -293 -32q-543 0 -543 569z" />
<glyph unicode="d" d="M88 539q0 285 151 436t423 151q41 0 231 -16v545h248v-1655h-217l-21 135h-12q-113 -155 -342 -155q-461 0 -461 559zM338 553q0 -209 64 -297t214 -88q124 0 200 64t77 178v514q-132 22 -238 22q-168 0 -242.5 -90t-74.5 -303z" />
<glyph unicode="e" horiz-adv-x="1153" d="M88 539q0 287 135.5 436t397.5 149q221 0 334.5 -123.5t113.5 -363.5q0 -101 -14 -156h-719q10 -166 82.5 -236.5t230.5 -70.5q194 0 371 55l8 -184q-183 -63 -401 -63q-266 0 -402.5 141t-136.5 416zM334 618h514q-4 176 -59 251t-177 75q-133 0 -200 -79t-78 -247z" />
<glyph unicode="f" horiz-adv-x="837" d="M33 895v211h239v53q0 148 27 241t95.5 152.5t176 84.5t279.5 30l10 -182q-204 -9 -272 -68q-67 -55 -70 -223v-88h293v-211h-293v-895h-248v895h-237z" />
<glyph unicode="g" horiz-adv-x="1282" d="M88 549q0 280 151.5 428.5t424.5 148.5q220 0 477 -71v-936q0 -127 -30 -225.5t-81 -163t-125.5 -105.5t-157.5 -58.5t-182 -17.5q-215 0 -399 48l14 186q179 -45 346 -45q187 0 284 83.5t97 266.5v86h-12q-113 -162 -344 -162q-463 0 -463 537zM340 563 q0 -197 63.5 -281.5t212.5 -84.5q125 0 201 65.5t76 179.5v482q-132 22 -236 22q-169 0 -243 -88t-74 -295z" />
<glyph unicode="h" d="M143 0v1655h248v-670q299 141 459 141q143 0 221 -78.5t78 -226.5v-821h-248v739q0 98 -38 142.5t-120 44.5q-132 0 -352 -103v-823h-248z" />
<glyph unicode="i" horiz-adv-x="534" d="M127 1446q0 73 33 107t106 34q148 0 148 -141q0 -72 -35 -105.5t-113 -33.5q-73 0 -106 33.5t-33 105.5zM143 0v1106h248v-1106h-248z" />
<glyph unicode="j" horiz-adv-x="530" d="M25 -406q65 157 92 314q28 159 28 377q0 725 -2 821h248v-938q-15 -331 -186 -619zM119 1446q0 72 34.5 106.5t108.5 34.5q146 0 146 -141q0 -139 -146 -139v-2q-75 0 -109 33.5t-34 107.5z" />
<glyph unicode="k" horiz-adv-x="1183" d="M143 0v1655h248v-1004h160l330 455h276l-391 -518l-43 -17v-8l43 -16l426 -547h-274l-371 487h-156v-487h-248z" />
<glyph unicode="l" horiz-adv-x="540" d="M145 0v1655h248v-1655h-248z" />
<glyph unicode="m" horiz-adv-x="1896" d="M143 0v1106h205l17 -129h12q241 149 399 149q203 0 271 -151h10q245 151 403 151q147 0 224 -78t77 -227v-821h-248v735q0 98 -37.5 142.5t-119.5 44.5q-102 0 -279 -97v-825h-246v735q0 98 -38.5 142.5t-120.5 44.5q-103 0 -283 -97v-825h-246z" />
<glyph unicode="n" d="M143 0v1106h207l15 -129h14q160 80 269.5 114.5t201.5 34.5q146 0 222.5 -78t76.5 -227v-821h-248v739q0 98 -38 142.5t-118 44.5q-137 0 -354 -103v-823h-248z" />
<glyph unicode="o" horiz-adv-x="1261" d="M86 553q0 278 140.5 425.5t404.5 147.5q265 0 405 -147.5t140 -425.5t-140.5 -425.5t-404.5 -147.5t-404.5 147.5t-140.5 425.5zM336 553q0 -201 69.5 -290t225.5 -89q158 0 226.5 88t68.5 291q0 201 -69.5 290t-225.5 89t-225.5 -89t-69.5 -290z" />
<glyph unicode="p" d="M143 -451v1557h215l21 -133h12q114 153 346 153q461 0 461 -555q0 -285 -152 -439.5t-425 -154.5q-51 0 -230 19v-447h-248zM391 180q114 -20 236 -20q169 0 244 91t75 304q0 208 -64 295.5t-214 87.5q-125 0 -201 -65.5t-76 -180.5v-512z" />
<glyph unicode="q" horiz-adv-x="1282" d="M88 539q0 283 150 435t426 152q224 0 477 -45v-1532h-238v588q-127 -157 -354 -157q-461 0 -461 559zM336 557q0 -211 64 -300t216 -89q128 0 202.5 66.5t74.5 183.5v508q-114 20 -238 20q-172 0 -245.5 -89.5t-73.5 -299.5z" />
<glyph unicode="r" horiz-adv-x="851" d="M143 0v1106h207l15 -156h10q237 147 375 174h79v-209h-86q-161 -18 -352 -129v-786h-248z" />
<glyph unicode="s" horiz-adv-x="1015" d="M88 25v180q214 -51 391 -51q223 0 223 147q0 71 -50.5 108t-164.5 56q-6 0 -12 2l-76 10q-109 26 -145 45q-82 45 -113 96q-43 77 -43 181q0 155 117.5 243t321.5 88q135 0 360 -40l-8 -189q-214 47 -330 47q-221 0 -221 -143q0 -70 54 -102.5t190 -57.5 q183 -31 270.5 -105t87.5 -223q0 -162 -116.5 -251t-331.5 -89h-3q-153 0 -401 48z" />
<glyph unicode="t" horiz-adv-x="858" d="M35 893v213h229l37 295l195 22v-317h309v-213h-307v-528q0 -100 42 -146.5t134 -46.5q57 0 137 25v-191q-110 -29 -215 -29q-170 0 -258 85t-88 247v584h-215z" />
<glyph unicode="u" d="M135 285v821h248v-748q0 -96 36 -141t111 -45q128 0 363 107v827h248v-1106h-207l-14 133h-9q-195 -98 -274 -125q-89 -28 -207 -28q-145 0 -220 78t-75 227z" />
<glyph unicode="v" horiz-adv-x="1196" d="M31 1077v29h264l248 -709l49 -198h16l51 198l250 709h258v-29l-413 -1077h-312z" />
<glyph unicode="w" horiz-adv-x="1677" d="M39 1094v12h244l176 -713l30 -155h17l33 155l192 713h213l199 -713l33 -155h16l31 155l170 713h241v-12l-295 -1094h-274l-191 672l-28 143h-17l-28 -143l-183 -672h-274z" />
<glyph unicode="x" horiz-adv-x="1185" d="M18 0v29l406 544l-385 514v19h264l223 -299l64 -94h12l64 94l217 299h266v-19l-387 -520l405 -538v-29h-262l-237 322l-70 106h-12l-70 -106l-235 -322h-263z" />
<glyph unicode="y" horiz-adv-x="1208" d="M25 1079v27h266l254 -668l51 -178h14l54 178l264 668h258v-27l-639 -1530l-232 37v23l164 403z" />
<glyph unicode="z" horiz-adv-x="1062" d="M76 0v162l573 743v15h-555v186h875v-156l-563 -747v-15h583v-188h-913z" />
<glyph unicode="&#x2000;" horiz-adv-x="833" />
<glyph unicode="&#x2001;" horiz-adv-x="1667" />
<glyph unicode="&#x2002;" horiz-adv-x="833" />
<glyph unicode="&#x2003;" horiz-adv-x="1667" />
<glyph unicode="&#x2004;" horiz-adv-x="555" />
<glyph unicode="&#x2005;" horiz-adv-x="416" />
<glyph unicode="&#x2006;" horiz-adv-x="277" />
<glyph unicode="&#x2007;" horiz-adv-x="277" />
<glyph unicode="&#x2008;" horiz-adv-x="208" />
<glyph unicode="&#x2009;" horiz-adv-x="333" />
<glyph unicode="&#x200a;" horiz-adv-x="92" />
<glyph unicode="&#x202f;" horiz-adv-x="333" />
<glyph unicode="&#x205f;" horiz-adv-x="416" />
<glyph unicode="&#x25fc;" horiz-adv-x="1105" d="M0 0v1106h1106v-1106h-1106z" />
</font>
</defs>
</svg>
