<?xml version="1.0" standalone="no"?>
<!DOCTYPE svg PUBLIC "-//W3C//DTD SVG 1.1//EN" "http://www.w3.org/Graphics/SVG/1.1/DTD/svg11.dtd" >
<svg xmlns="http://www.w3.org/2000/svg">
<metadata></metadata>
<defs>
<font id="enc7070regular" horiz-adv-x="1343" >
<font-face units-per-em="2048" ascent="1638" descent="-410" />
<missing-glyph horiz-adv-x="1024" />
<glyph horiz-adv-x="2048" />
<glyph horiz-adv-x="2048" />
<glyph unicode="&#xd;" horiz-adv-x="2048" />
<glyph unicode=" "  horiz-adv-x="1024" />
<glyph unicode="&#x09;" horiz-adv-x="1024" />
<glyph unicode="&#xa0;" horiz-adv-x="1024" />
<glyph unicode="," horiz-adv-x="575" d="M49 -297l90 637h342l-176 -657z" />
<glyph unicode="." horiz-adv-x="563" d="M88 166q0 90 51 135t142 45q92 0 143 -45t51 -135t-51 -135t-143 -45q-91 0 -142 45t-51 135z" />
<glyph unicode="0" horiz-adv-x="1466" d="M88 756q0 383 165.5 581.5t479.5 198.5q315 0 480 -198t165 -582q0 -381 -165 -578.5t-480 -197.5q-313 0 -479 197.5t-166 578.5zM434 756q0 -270 70 -385t229 -115t230 116t71 384q0 269 -70.5 385t-230.5 116q-159 0 -229 -115.5t-70 -385.5z" />
<glyph unicode="1" horiz-adv-x="954" d="M25 1233l2 16l489 267h262v-1516h-346v1145h-8l-338 -109h-20z" />
<glyph unicode="2" horiz-adv-x="1253" d="M78 2v219q0 169 86 295q43 59 102 107q104 81 275 161q145 71 206.5 133t61.5 146q0 99 -67.5 145.5t-213.5 46.5q-158 0 -381 -49l-24 277q274 51 483 51q278 0 413.5 -107.5t135.5 -328.5q0 -172 -90.5 -289.5t-282.5 -220.5q-153 -84 -229 -146q-64 -52 -64 -116v-54 h666v-270h-1077z" />
<glyph unicode="3" horiz-adv-x="1200" d="M98 8v260h8q59 -14 152 -22q113 -10 172 -10q183 0 255.5 46t72.5 162t-75 160.5t-271 44.5h-138v240h136q172 0 239.5 43t67.5 149q0 103 -64 146t-219 43q-106 0 -325 -31h-11v260q179 37 387 37q588 0 588 -410q0 -127 -67 -214t-191 -126v-14q139 -29 219 -124 t80 -230q0 -215 -161 -328t-468 -113q-248 0 -387 31z" />
<glyph unicode="4" horiz-adv-x="1366" d="M33 508v18l504 1010h8l342 -31l14 -30l-516 -904v-10h385l76 397h248v-397h225v-262h-225v-299h-342v299h-680z" />
<glyph unicode="5" horiz-adv-x="1196" d="M96 8v262h74q121 -26 260 -26q180 0 258 51t78 176q0 115 -102 158q-96 44 -361 47h-156l-30 31l61 809h862v-271h-606l-18 -321q369 -3 540 -109q170 -102 170 -356q0 -107 -34.5 -191t-93.5 -138.5t-143 -89.5t-177.5 -50t-202.5 -15q-158 0 -379 33z" />
<glyph unicode="6" horiz-adv-x="1378" d="M88 680q0 422 206 640t601 218q151 0 326 -39l-39 -248q-172 31 -273 31q-217 0 -329 -104.5t-138 -331.5q139 112 355 112q240 0 381 -121.5t141 -330.5q0 -243 -164 -387q-165 -142 -442 -142q-303 0 -464 180.5t-161 522.5zM434 631q6 -208 74 -305t205 -97 q123 0 188.5 69t65.5 198q0 243 -254 243q-75 0 -153.5 -30.5t-125.5 -77.5z" />
<glyph unicode="7" horiz-adv-x="1120" d="M41 1487l31 29h977l49 -185v-37l-529 -1294l-75 -43l-293 43v37l518 1186h-666z" />
<glyph unicode="8" horiz-adv-x="1376" d="M84 389q0 257 254 383q-203 114 -203 363q0 182 156 290q157 109 418 109q251 0 394.5 -106.5t143.5 -292.5q0 -121 -49.5 -200.5t-155.5 -137.5q248 -111 248 -373q0 -213 -149.5 -325.5t-448.5 -112.5q-608 0 -608 403zM408 430q0 -103 75.5 -158t208.5 -55 q130 0 201.5 49.5t71.5 141.5q0 85 -66 147q-28 28 -76 47q-63 30 -194 66l-49 12q-172 -99 -172 -250zM442 1116q0 -79 68 -139q29 -23 80 -43q75 -28 205 -62q147 99 147 240q0 90 -67.5 140.5t-184.5 50.5q-114 0 -181 -49t-67 -138z" />
<glyph unicode="9" horiz-adv-x="1380" d="M61 1010q0 245 162 385q162 143 445 143q303 0 463.5 -180t160.5 -522q0 -422 -205.5 -640.5t-603.5 -218.5q-150 0 -325 39l41 248q172 -31 272 -31q217 0 329 105t138 332q-140 -113 -354 -113q-240 0 -381.5 122t-141.5 331zM414 1020q0 -244 254 -244 q75 0 152.5 30.5t125.5 78.5q-6 208 -73.5 304.5t-204.5 96.5q-123 0 -188.5 -68.5t-65.5 -197.5z" />
<glyph unicode=":" horiz-adv-x="593" d="M104 166q0 88 50 135q51 45 143 45q93 0 141 -45q51 -45 51 -135t-51 -135q-48 -45 -141 -45q-92 0 -143 45q-50 47 -50 135zM104 942q0 88 50 135q51 45 143 45q93 0 141 -45q51 -45 51 -135t-51 -135q-48 -45 -141 -45q-92 0 -143 45q-50 47 -50 135z" />
<glyph unicode=";" horiz-adv-x="618" d="M68 -297l90 637h342l-176 -657zM129 942q0 89 49 135q51 45 144 45t141 -45q51 -45 51 -135t-51 -135q-48 -45 -141 -45t-144 45q-49 46 -49 135z" />
<glyph unicode="A" horiz-adv-x="1513" d="M2 0v18l498 1498h518l498 -1498v-18h-336l-119 360h-604l-119 -360h-336zM541 641h436l-115 338l-88 297h-31l-90 -299z" />
<glyph unicode="B" horiz-adv-x="1460" d="M147 10v1495q318 31 545 31q339 0 494 -102t155 -324q0 -129 -67.5 -213t-196.5 -115v-8q152 -29 232 -121.5t80 -240.5q0 -220 -159 -326t-489 -106q-277 0 -594 30zM479 238q70 -13 258 -13h-2q158 0 232.5 53t74.5 164t-69.5 160t-227.5 49h-266v-413zM479 881h242 q153 0 213.5 45.5t60.5 160.5q0 109 -64.5 156t-217.5 47q-142 0 -234 -14v-395z" />
<glyph unicode="C" horiz-adv-x="1239" d="M80 756q0 397 182.5 590.5t552.5 193.5q133 0 354 -33v-276q-217 24 -311 24q-243 0 -330 -106q-90 -110 -90 -393q0 -280 88 -387t324 -107q176 0 319 31v-279q-160 -39 -331 -39q-383 0 -570.5 193.5t-187.5 587.5z" />
<glyph unicode="D" horiz-adv-x="1581" d="M147 6v1505q369 25 512 25q443 0 641 -186q201 -189 201 -594q0 -415 -213 -598q-211 -181 -700 -181q-259 0 -441 29zM494 270q101 -14 227 -14q236 0 330 111q96 116 96 389q0 277 -100 389q-97 112 -338 112q-75 0 -215 -10v-977z" />
<glyph unicode="E" d="M147 0v1516h1096v-271h-747v-348h-160v-270h160v-357h768v-270h-1117zM496 627v270h680v-270h-680z" />
<glyph unicode="F" horiz-adv-x="1292" d="M147 0v1516h1090v-271h-741v-387h-144v-272h144v-586h-349zM496 586v272h667v-272h-667z" />
<glyph unicode="G" horiz-adv-x="1433" d="M80 756q0 786 799 786q236 0 430 -51v-279q-240 43 -406 43q-264 0 -366 -108q-101 -107 -101 -391q0 -277 90 -387q91 -107 328 -107q77 0 156 8v-217l317 -4q-275 -74 -483 -74h-2q-385 0 -573.5 193.5t-188.5 587.5zM1010 270v500h317v-721l-156 244q-75 -15 -161 -23 z" />
<glyph unicode="H" horiz-adv-x="1665" d="M147 0v1516h349v-603h675v603h349v-1516h-349v641h-675v-641h-349z" />
<glyph unicode="I" horiz-adv-x="643" d="M147 0v1516h349v-1516h-349z" />
<glyph unicode="J" horiz-adv-x="643" d="M-2 -324q88 201 123 357q33 146 33 366v1117h350v-1143q0 -211 -64 -385q-59 -170 -219 -412z" />
<glyph unicode="K" horiz-adv-x="1488" d="M147 0v1516h349v-615h217l362 615h387l-415 -668l-105 -53v-17l109 -53l448 -725h-387l-377 631h-239v-631h-349z" />
<glyph unicode="L" horiz-adv-x="1173" d="M147 0v1516h349v-1246h649v-270h-998z" />
<glyph unicode="M" horiz-adv-x="2035" d="M147 0v1516h471l295 -744l95 -317h18l94 317l299 744h469v-1516h-311v1135h-18l-142 -426l-260 -648h-278l-261 648l-141 426h-16v-1135h-314z" />
<glyph unicode="N" horiz-adv-x="1662" d="M147 0v1516h273l647 -826l121 -176h18v1002h310v-1516h-273l-635 815l-133 189h-16v-1004h-312z" />
<glyph unicode="O" horiz-adv-x="1619" d="M80 756q0 382 187 581t544 199q355 0 542 -199.5t187 -580.5q0 -380 -186.5 -578t-542.5 -198q-357 0 -544 198t-187 578zM434 756q0 -271 84 -387q86 -111 293 -111t289 111q86 112 86 387q0 272 -86 387q-86 114 -289 114t-291 -114q-86 -115 -86 -387z" />
<glyph unicode="P" horiz-adv-x="1427" d="M147 0h349v440q-94 4 -349 29v944v-1413zM147 1413v92q248 31 453 31q410 0 594 -129t184 -418q0 -281 -188.5 -416t-577.5 -135q-77 0 -116 2v973h-349zM496 723q71 -14 172 -14q204 0 280 61q78 63 78 219q0 155 -76 213q-77 62 -276 62q-85 0 -178 -11v-530z" />
<glyph unicode="Q" horiz-adv-x="1617" d="M78 756q0 375 190 577.5t541 202.5t542 -203t191 -577q0 -328 -164 -510q-153 -170 -426 -170h-28v-23q272 -53 342 -63q141 -20 245 -29l-77 -280v-3q-288 69 -465 125q-411 130 -607 283q-153 124 -218.5 283t-65.5 387zM428 756q0 -264 89.5 -381t291.5 -117 q203 0 291 115t88 383t-89 386t-290 118t-291 -119t-90 -385z" />
<glyph unicode="R" horiz-adv-x="1464" d="M147 0v1505q245 31 453 31q411 0 595.5 -121.5t184.5 -396.5q0 -332 -305 -449l371 -569h-389l-287 508q-71 -6 -152 -6q-72 0 -122 6v-508h-349zM496 786q52 -14 172 -14q203 0 280 53q78 57 78 193q0 138 -78 192q-77 56 -274 56q-82 0 -178 -13v-467z" />
<glyph unicode="S" horiz-adv-x="1296" d="M78 41l2 281q305 -70 516 -70q283 0 283 162q0 83 -63.5 124.5t-219.5 75.5q-262 48 -381 160t-119 320q0 204 160 325t436 121q189 0 467 -57l-2 -279q-213 64 -428 64q-130 0 -201 -43t-71 -123q0 -83 64.5 -127.5t230.5 -87.5q255 -52 371 -154.5t116 -292.5 q0 -227 -155.5 -346t-454.5 -119q-262 0 -551 66z" />
<glyph unicode="T" horiz-adv-x="1308" d="M37 1245v271h1235v-271h-443v-1245h-348v1245h-444z" />
<glyph unicode="U" horiz-adv-x="1634" d="M133 623v895h348v-902q0 -183 81.5 -269.5t254.5 -86.5q176 0 257 86t81 270v902h346v-895q0 -338 -155 -490q-156 -153 -529 -153q-372 0 -528 153t-156 490z" />
<glyph unicode="V" horiz-adv-x="1501" d="M2 1516h367l299 -877l77 -311h21l80 311l299 877h358l-518 -1516h-463z" />
<glyph unicode="W" horiz-adv-x="2224" d="M23 1516h376l189 -904l45 -270h24l56 270l231 904h340l227 -904l56 -270h24l45 270l191 904h375l-379 -1516h-457l-192 750l-52 340h-18l-51 -340l-195 -750h-457z" />
<glyph unicode="X" horiz-adv-x="1495" d="M-18 0l546 791l-508 725h396l276 -416l51 -90h13l51 90l285 416h389l-523 -738l562 -778h-394l-325 477l-45 82h-13l-45 -82l-323 -477h-393z" />
<glyph unicode="Y" horiz-adv-x="1454" d="M-10 1516h377l295 -551l57 -152h18l62 154l293 549h376l-563 -1020v-496h-346v485z" />
<glyph unicode="Z" horiz-adv-x="1325" d="M63 0v256l748 971v18h-719v271h1139v-250l-746 -977v-19h781v-270h-1203z" />
<glyph unicode="a" horiz-adv-x="1196" d="M63 309q0 162 103.5 247.5t318.5 98.5l256 21v12q0 118 -47 156q-46 37 -207 37q-134 0 -331 -37l-23 235q234 41 442 41q506 0 506 -375v-745h-278l-31 135h-16q-171 -145 -375 -145q-153 0 -235.5 83t-82.5 236zM408 346q0 -65 29 -94t93 -29q50 0 109.5 21.5 t101.5 54.5v203q-77 -9 -153 -15q-100 -10 -140 -41.5t-40 -99.5z" />
<glyph unicode="b" d="M125 41v1614h340v-666q114 135 338 135q467 0 467 -549q0 -286 -161.5 -441t-453.5 -157q-222 0 -530 64zM465 227q79 -18 186 -18q155 0 215 72t60 270q0 182 -49 250.5t-177 68.5q-114 0 -174.5 -57t-60.5 -168v-418z" />
<glyph unicode="c" horiz-adv-x="1056" d="M76 553q0 571 563 571q200 0 336 -32v-269q-177 25 -301 25q-139 0 -200.5 -69t-61.5 -224q0 -160 59.5 -228.5t198.5 -68.5q161 0 305 25v-267q-136 -34 -336 -34q-563 0 -563 571z" />
<glyph unicode="d" horiz-adv-x="1345" d="M74 530q0 288 161 442t451 154q73 0 193 -12v541h340v-1655h-297l-29 137h-12q-115 -160 -340 -160q-467 0 -467 553zM418 555q0 -185 49 -255.5t176 -70.5q233 0 236 234v405q-102 21 -201 21q-145 0 -205 -72q-55 -70 -55 -262z" />
<glyph unicode="e" horiz-adv-x="1206" d="M74 543q0 287 145 434t428 147q241 0 363.5 -123.5t122.5 -365.5q0 -93 -17 -170h-702q10 -130 67 -177.5t197 -49.5q227 0 403 51l11 -244q-204 -63 -445 -63q-573 0 -573 561zM412 637h422q-5 135 -51 192.5t-150 57.5q-109 0 -160 -57.5t-61 -192.5z" />
<glyph unicode="f" horiz-adv-x="929" d="M31 819v287h239v51q0 284 144 395t516 117l16 -246q-198 -6 -266 -57q-69 -48 -72 -184v-76h295v-287h-295v-819h-340v819h-237z" />
<glyph unicode="g" d="M76 545q0 281 161 431t451 150q211 0 533 -90v-903q0 -127 -32.5 -227t-89 -166.5t-137 -110t-171.5 -62t-197 -18.5q-261 0 -442 45l20 246q193 -41 358 -41q368 0 371 291v105h-16q-102 -164 -340 -164q-469 0 -469 514zM418 569q0 -166 49 -230.5t178 -64.5 q236 0 236 236v358q-105 21 -201 21q-146 0 -205 -68q-57 -66 -57 -252z" />
<glyph unicode="h" horiz-adv-x="1345" d="M127 0v1655h340v-666q287 137 448 137q147 0 229.5 -80.5t82.5 -226.5v-819h-340v705q0 81 -30.5 117t-98.5 36q-114 0 -291 -76v-782h-340z" />
<glyph unicode="i" horiz-adv-x="593" d="M111 1450q0 94 44 137t142 43t143 -43.5t45 -136.5q0 -95 -44.5 -139.5t-143.5 -44.5q-98 0 -142 43.5t-44 140.5zM127 0v1106h340v-1106h-340z" />
<glyph unicode="j" horiz-adv-x="587" d="M31 -403q53 160 75 321q23 171 23 395q0 503 -4 793h340v-950q-24 -331 -186 -607zM106 1450q0 94 44.5 137t142.5 43t143 -43.5t45 -136.5q0 -94 -45.5 -139t-144.5 -45q-98 0 -141.5 43.5t-43.5 140.5z" />
<glyph unicode="k" horiz-adv-x="1257" d="M127 0v1655h340v-977h121l278 428h375l-369 -518l-51 -15v-8l51 -14l404 -551h-373l-319 463h-117v-463h-340z" />
<glyph unicode="l" horiz-adv-x="595" d="M127 0v1655h340v-1655h-340z" />
<glyph unicode="m" horiz-adv-x="1968" d="M127 0v1106h283l18 -127h14q237 147 404 147q203 0 276 -149h11q235 149 403 149q148 0 230.5 -80.5t82.5 -226.5v-819h-340v700q0 80 -31 116t-98 36q-88 0 -221 -68v-784h-340v700q0 80 -31 116t-100 36q-89 0 -223 -70v-782h-338z" />
<glyph unicode="n" horiz-adv-x="1345" d="M127 0v1106h285l18 -127h16q292 147 469 147q148 0 230 -80.5t82 -226.5v-819h-340v705q0 81 -30.5 117t-96.5 36q-119 0 -293 -76v-782h-340z" />
<glyph unicode="o" horiz-adv-x="1323" d="M74 553q0 278 151.5 425.5t438.5 147.5t437 -146t150 -427q0 -279 -150.5 -427.5t-436.5 -148.5q-287 0 -438.5 148.5t-151.5 427.5zM414 553q0 -173 56.5 -243t193.5 -70v-2q136 0 190.5 69.5t54.5 245.5t-54.5 244.5t-190.5 68.5q-138 0 -194 -69t-56 -244z" />
<glyph unicode="p" horiz-adv-x="1347" d="M127 -451v1557h297l27 -135h14q107 155 342 155q467 0 467 -548q0 -288 -161.5 -444.5t-450.5 -156.5q-78 0 -195 15v-443h-340zM467 236q93 -19 201 -19q149 0 204 70q58 70 58 266q0 184 -49.5 254t-178.5 70q-235 0 -235 -242v-399z" />
<glyph unicode="q" d="M76 530q0 289 160 443.5t454 154.5q218 0 531 -51v-1528h-328v588q-124 -157 -350 -157q-467 0 -467 550zM414 559q0 -186 50.5 -258t180.5 -72q236 0 236 244v397q-104 19 -203 19q-151 0 -209 -70q-55 -70 -55 -260z" />
<glyph unicode="r" horiz-adv-x="923" d="M127 0v1106h285l18 -162h10q193 143 353 182h108v-280h-119q-171 -18 -315 -111v-735h-340z" />
<glyph unicode="s" horiz-adv-x="1087" d="M82 27v233q245 -53 424 -53q190 0 190 102q0 53 -44 80t-146 39q-6 0 -12 2l-80 10q-93 16 -154 41q-33 15 -68.5 43t-54.5 58q-47 88 -47 194q0 166 127 260t350 94q162 0 408 -43l-8 -249q-227 51 -365 51q-186 0 -186 -103q0 -52 47.5 -75t177.5 -43 q192 -24 286.5 -101.5t94.5 -232.5q0 -174 -128 -265.5t-372 -91.5q-198 0 -440 50z" />
<glyph unicode="t" horiz-adv-x="913" d="M37 819v287h217l51 319l264 29v-348h285v-287h-281v-413q0 -93 36 -133t120 -40q56 0 129 25v-254q-108 -31 -242 -31q-188 0 -286.5 91.5t-98.5 263.5v491h-194z" />
<glyph unicode="u" horiz-adv-x="1345" d="M119 287v819h340v-717q0 -80 29.5 -116.5t95.5 -36.5q106 0 295 77v793h340v-1106h-283l-18 129h-9q-195 -98 -262 -121q-89 -28 -215 -28q-149 0 -231 80.5t-82 226.5z" />
<glyph unicode="v" horiz-adv-x="1271" d="M18 1071v35h369l188 -590l56 -244h18l56 244l192 590h360v-35l-413 -1071h-418z" />
<glyph unicode="w" horiz-adv-x="1744" d="M29 1096v10h333l142 -643l24 -148h21l24 148l158 643h281l162 -643l24 -148h21l24 148l137 643h334v-10l-295 -1096h-370l-146 575l-20 134h-23l-20 -134l-140 -575h-372z" />
<glyph unicode="x" horiz-adv-x="1259" d="M10 0v33l389 540l-370 512v21h358l178 -254l60 -94h14l59 94l176 254h361v-21l-373 -520l387 -532v-33h-358l-193 274l-61 107h-16l-60 -107l-192 -274h-359z" />
<glyph unicode="y" horiz-adv-x="1277" d="M12 1073v33h367l194 -549l58 -211h18l56 211l202 549h359v-33l-631 -1524l-322 48v26l156 393z" />
<glyph unicode="z" horiz-adv-x="1136" d="M74 0v217l540 623v18h-524v248h957v-213l-525 -625v-18h545v-250h-993z" />
<glyph unicode="&#x2000;" horiz-adv-x="834" />
<glyph unicode="&#x2001;" horiz-adv-x="1669" />
<glyph unicode="&#x2002;" horiz-adv-x="834" />
<glyph unicode="&#x2003;" horiz-adv-x="1669" />
<glyph unicode="&#x2004;" horiz-adv-x="556" />
<glyph unicode="&#x2005;" horiz-adv-x="417" />
<glyph unicode="&#x2006;" horiz-adv-x="278" />
<glyph unicode="&#x2007;" horiz-adv-x="278" />
<glyph unicode="&#x2008;" horiz-adv-x="208" />
<glyph unicode="&#x2009;" horiz-adv-x="333" />
<glyph unicode="&#x200a;" horiz-adv-x="92" />
<glyph unicode="&#x202f;" horiz-adv-x="333" />
<glyph unicode="&#x205f;" horiz-adv-x="417" />
<glyph unicode="&#x25fc;" horiz-adv-x="1105" d="M0 0v1106h1106v-1106h-1106z" />
</font>
</defs>
</svg>
