<?xml version="1.0" standalone="no"?>
<!DOCTYPE svg PUBLIC "-//W3C//DTD SVG 1.1//EN" "http://www.w3.org/Graphics/SVG/1.1/DTD/svg11.dtd" >
<svg xmlns="http://www.w3.org/2000/svg">
<metadata></metadata>
<defs>
<font id="enc7080regular" horiz-adv-x="1370" >
<font-face units-per-em="2048" ascent="1638" descent="-410" />
<missing-glyph horiz-adv-x="1024" />
<glyph horiz-adv-x="2048" />
<glyph horiz-adv-x="2048" />
<glyph unicode="&#xd;" horiz-adv-x="2048" />
<glyph unicode=" "  horiz-adv-x="1024" />
<glyph unicode="&#x09;" horiz-adv-x="1024" />
<glyph unicode="&#xa0;" horiz-adv-x="1024" />
<glyph unicode="," horiz-adv-x="598" d="M47 -297l88 666h377l-184 -686z" />
<glyph unicode="." horiz-adv-x="581" d="M80 180q0 99 55 148t156 49q100 0 155 -49q56 -50 56 -148q0 -97 -56 -147q-55 -49 -155 -49q-101 0 -156 49t-55 147z" />
<glyph unicode="0" horiz-adv-x="1490" d="M84 756q0 383 170 581.5t491 198.5q323 0 492.5 -198t169.5 -582q0 -381 -169 -578.5t-490 -197.5q-323 0 -493.5 197.5t-170.5 578.5zM467 756q0 -264 63 -367q64 -104 218 -104q149 0 213.5 107t64.5 364q0 260 -64.5 367.5t-213.5 107.5q-153 0 -217 -107t-64 -368z " />
<glyph unicode="1" horiz-adv-x="983" d="M20 1233l3 16l499 267h291v-1516h-385v1110h-8l-336 -96h-21z" />
<glyph unicode="2" horiz-adv-x="1282" d="M74 0v225q0 171 90 303q45 58 106 103q62 47 117 77t156 78q143 70 202.5 127t59.5 138q0 92 -66 134t-209 42q-152 0 -385 -47l-26 303q298 53 499 53q290 0 430 -110t140 -336q0 -195 -111 -318q-102 -116 -264 -199q-7 -2 -20 -12q-51 -25 -80 -43q-82 -45 -117 -72 q-66 -55 -66 -102v-45h656v-299h-1112z" />
<glyph unicode="3" horiz-adv-x="1226" d="M94 8v287h10q62 -14 154 -25q117 -10 178 -10q183 0 248 41q68 41 68 148q0 106 -72 147q-71 41 -268 41h-138v264h136q175 0 239 37t64 137q0 93 -60.5 130.5t-212.5 37.5q-131 0 -336 -33h-8l-2 289q84 16 201 25q123 12 203 12q608 0 608 -410q0 -125 -67.5 -213.5 t-194.5 -126.5v-14q141 -29 222 -123.5t81 -228.5q0 -217 -166 -331t-481 -114q-274 0 -406 33z" />
<glyph unicode="4" horiz-adv-x="1394" d="M29 518v21l503 997h9l383 -33l16 -33l-522 -886v-9h352l82 373h274v-373h226v-288h-226v-287h-378v287h-678z" />
<glyph unicode="5" horiz-adv-x="1220" d="M94 8v287h80q131 -25 262 -25q171 0 246.5 46t75.5 159q0 103 -101 143q-93 38 -356 41h-156l-34 33l61 824h895v-297h-610l-17 -287q374 -3 545 -109q172 -105 172 -362q0 -107 -36.5 -192t-98.5 -139.5t-149 -90.5t-182.5 -51t-205.5 -15q-141 0 -391 35z" />
<glyph unicode="6" horiz-adv-x="1404" d="M84 684q0 420 210.5 636t620.5 216q152 0 338 -39l-45 -272q-160 32 -278 32q-211 0 -318.5 -94t-136.5 -303q134 107 344 107q244 0 387 -125q146 -125 146 -332q0 -245 -170 -389q-170 -141 -457 -141q-312 0 -476.5 180t-164.5 524zM467 629q6 -195 68 -285t190 -90 q233 0 233 246q0 116 -57 170.5t-178 54.5q-69 0 -141 -27t-115 -69z" />
<glyph unicode="7" horiz-adv-x="1146" d="M37 1483l37 33h1001l51 -205v-33l-524 -1278l-82 -47l-327 47v39l514 1153h-656z" />
<glyph unicode="8" horiz-adv-x="1402" d="M78 389q0 252 250 379q-197 114 -197 362q0 186 162 293q164 111 432 111q257 0 406 -109t149 -295q0 -117 -46.5 -192.5t-152.5 -136.5q240 -111 240 -371q0 -444 -616 -444q-627 0 -627 403zM438 434q0 -93 71.5 -144.5t195.5 -51.5q123 0 189.5 45t66.5 127 q0 84 -64 141q-31 27 -76 45q-12 6 -23.5 11t-20.5 8.5t-21.5 7.5t-19 6.5t-23 7t-23 6.5t-28 7.5t-31.5 8.5l-37 9q-156 -95 -156 -234zM471 1110q0 -69 64 -129q27 -21 77 -41q24 -9 48.5 -16.5t40 -11.5t51 -12.5t57.5 -14.5q133 92 133 221q0 82 -64 129t-173 47 q-107 0 -170.5 -45.5t-63.5 -126.5z" />
<glyph unicode="9" horiz-adv-x="1404" d="M55 1006q0 247 168 387q168 143 459 143q310 0 475.5 -181t165.5 -524q0 -419 -210.5 -635t-620.5 -216q-162 0 -338 38l45 271q178 -31 276 -31q211 0 320 94t135 303q-132 -106 -344 -106q-243 0 -387 123q-144 126 -144 334zM449 1016q0 -115 57 -170t176 -55 q71 0 143 27t115 69q-8 195 -69.5 285t-188.5 90q-233 0 -233 -246z" />
<glyph unicode=":" horiz-adv-x="614" d="M96 180q0 98 56 148q55 49 155 49q101 0 156 -49t55 -148q0 -98 -55 -147t-156 -49q-100 0 -155 49q-56 50 -56 147zM96 928q0 100 56 147q55 49 155 49q101 0 156 -49q55 -46 55 -147q0 -99 -55 -148t-156 -49q-100 0 -155 49q-56 50 -56 148z" />
<glyph unicode=";" horiz-adv-x="632" d="M59 -297l88 666h379l-186 -686zM119 928q0 101 55 147q55 49 156 49q100 0 155 -49q56 -50 56 -147q0 -99 -58 -148q-55 -49 -155 -49q-99 0 -154 49t-55 148z" />
<glyph unicode="A" horiz-adv-x="1540" d="M-2 0v20l489 1496h572l489 -1496v-20h-372l-109 340h-590l-106 -340h-373zM571 651h402l-96 297l-89 303h-32l-88 -307z" />
<glyph unicode="B" horiz-adv-x="1482" d="M141 10v1495q321 31 561 31q348 0 508 -103.5t160 -326.5q0 -259 -262 -324v-8q150 -29 229.5 -121t79.5 -239q0 -221 -161 -327.5t-498 -106.5h-2q-286 0 -615 30zM508 262q55 -12 244 -12q143 0 212.5 49.5t69.5 151.5t-64 146t-212 44h-250v-379zM508 891h223 q141 0 198.5 42.5t57.5 145.5q0 100 -60 143.5t-202 43.5q-129 0 -217 -15v-360z" />
<glyph unicode="C" horiz-adv-x="1247" d="M76 756q0 397 185 591.5t560 194.5q130 0 357 -33v-305q-230 25 -308 25q-83 -2 -140 -11t-103.5 -31t-74 -54.5t-46 -86.5t-26 -122.5t-9.5 -167.5q0 -273 82 -371q84 -96 309 -96q181 0 316 30v-307q-160 -39 -330 -39q-392 0 -582 193t-190 590z" />
<glyph unicode="D" horiz-adv-x="1601" d="M141 4v1509q407 23 529 23q452 0 653 -186q205 -184 205 -594q0 -417 -217 -598q-214 -181 -717 -181q-274 0 -453 27zM524 299q109 -16 219 -16q221 0 304 102q86 106 86 371q0 260 -91 368q-88 105 -315 105q-66 0 -203 -10v-920z" />
<glyph unicode="E" horiz-adv-x="1361" d="M141 0v1516h1127v-297h-742v-310h-178v-297h178v-313h760v-299h-1145zM526 612v297h670v-297h-670z" />
<glyph unicode="F" horiz-adv-x="1312" d="M141 0v1516h1121v-297h-736v-355h-159v-299h159v-565h-385zM526 565v299h660v-299h-660z" />
<glyph unicode="G" horiz-adv-x="1452" d="M74 756q0 786 815 786q242 0 442 -49v-307q-246 43 -411 43q-263 0 -357 -101q-94 -98 -94 -372q0 -268 84 -369q82 -98 313 -98q57 0 133 6v-240l353 -4q-291 -78 -500 -78q-394 0 -586 194t-192 589zM999 295v475h353v-719l-172 268q-65 -15 -181 -24z" />
<glyph unicode="H" horiz-adv-x="1687" d="M141 0v1516h385v-590h637v590h385v-1516h-385v627h-637v-627h-385z" />
<glyph unicode="I" horiz-adv-x="665" d="M141 0v1516h385v-1516h-385z" />
<glyph unicode="J" horiz-adv-x="665" d="M-10 -324q88 202 123 359q34 154 34 368v1113h385v-1143q0 -209 -65 -389q-67 -185 -229 -416z" />
<glyph unicode="K" horiz-adv-x="1515" d="M141 0v1516h385v-603h201l340 603h428l-403 -664l-113 -55v-17l117 -55l436 -725h-428l-352 616h-226v-616h-385z" />
<glyph unicode="L" horiz-adv-x="1193" d="M141 0v1516h385v-1219h641v-297h-1026z" />
<glyph unicode="M" horiz-adv-x="2064" d="M141 0v1516h521l274 -701l88 -315h18l88 315l277 701h518v-1516h-344v1098l-18 2l-136 -424l-241 -615h-305l-242 615l-135 424l-19 -2v-1098h-344z" />
<glyph unicode="N" horiz-adv-x="1677" d="M141 0v1516h299l617 -775l121 -174h18v949h342v-1516h-299l-602 758l-135 192h-19v-950h-342z" />
<glyph unicode="O" horiz-adv-x="1640" d="M76 756q0 383 189.5 581.5t555.5 198.5q364 0 555 -199.5t191 -580.5q0 -380 -191 -578t-555 -198t-554.5 198t-190.5 578zM469 756q0 -268 76 -369q75 -100 276 -100q200 0 275 100q78 104 78 369q0 262 -80 368q-76 105 -273 105q-195 0 -274 -105q-78 -104 -78 -368z " />
<glyph unicode="P" horiz-adv-x="1452" d="M141 0h385v428q-121 5 -385 31v-459zM141 459v1046q257 31 467 31q423 0 612 -130t189 -423q0 -282 -194 -419.5t-592 -137.5q-66 0 -97 2v985h-385v-954zM526 739q70 -12 158 -12q192 0 262 55q72 57 72 201t-70 199q-67 55 -254 55q-90 0 -168 -10v-488z" />
<glyph unicode="Q" horiz-adv-x="1638" d="M72 756q0 373 195 576.5t552 203.5q358 0 554 -203t196 -577q0 -323 -164 -502q-154 -168 -425 -168h-28v-25q201 -39 355 -63q93 -15 231 -27l-86 -309q-262 65 -473 133q-408 130 -619 293q-154 122 -221 282t-67 386zM463 756q0 -255 81 -363t275 -108q199 0 277 106 q82 107 82 365q0 257 -83 366t-276 109q-191 0 -273.5 -109.5t-82.5 -365.5z" />
<glyph unicode="R" horiz-adv-x="1486" d="M141 0v1505q254 31 467 31q422 0 611.5 -123.5t189.5 -400.5q0 -326 -299 -449l369 -563h-432l-273 494q-113 -5 -143 -5q-55 0 -105 5v-494h-385zM526 799q50 -13 158 -13q191 0 262 50q72 51 72 176q0 130 -70 176q-70 49 -256 49q-78 0 -166 -10v-428z" />
<glyph unicode="S" horiz-adv-x="1320" d="M76 41l2 311q317 -73 528 -73q136 0 199 34.5t63 106.5q0 73 -60 111t-206 65q-267 45 -388.5 158.5t-121.5 330.5q0 212 164 332q165 121 451 121q188 0 479 -57v-310q-223 66 -438 66q-254 0 -254 -143q0 -74 62 -116t220 -79q258 -51 375 -154t117 -294 q0 -233 -159 -354.5t-466 -121.5h-2q-269 0 -565 66z" />
<glyph unicode="T" horiz-adv-x="1327" d="M39 1217v299h1251v-299h-434v-1217h-385v1217h-432z" />
<glyph unicode="U" horiz-adv-x="1654" d="M125 627v891h385v-902q0 -167 77 -247t240 -80q165 0 241.5 80t76.5 247v902h385v-891q0 -171 -36 -289t-118.5 -199t-216.5 -119t-332 -40q-197 2 -330.5 40t-216 119t-118.5 199t-37 289z" />
<glyph unicode="V" horiz-adv-x="1527" d="M-2 1516h408l278 -838l74 -318h22l76 318l279 838h397l-510 -1516h-512z" />
<glyph unicode="W" horiz-adv-x="2256" d="M20 1516h416l172 -873l37 -266h29l51 266l217 873h375l215 -873l53 -266h27l39 266l172 873h415l-370 -1516h-506l-174 692l-49 357h-19l-49 -357l-176 -692h-506z" />
<glyph unicode="X" horiz-adv-x="1521" d="M-25 0l545 793l-504 723h437l249 -383l56 -99h12l55 99l256 383h432l-518 -738l559 -778h-434l-301 449l-49 88h-14l-47 -88l-299 -449h-435z" />
<glyph unicode="Y" horiz-adv-x="1490" d="M-16 1516h419l277 -517l57 -157h21l59 157l275 517h417l-565 -1022v-494h-385l-2 481z" />
<glyph unicode="Z" horiz-adv-x="1353" d="M63 0v283l730 915v19h-701v299h1168v-277l-732 -922v-18h768v-299h-1233z" />
<glyph unicode="a" horiz-adv-x="1220" d="M59 315q0 164 103.5 250t318.5 99l254 18q0 112 -45 141q-42 33 -203 33q-136 0 -333 -37l-25 260q234 41 457 41q526 0 526 -379v-741h-307l-35 135h-16q-157 -145 -373 -145q-153 0 -237.5 85.5t-84.5 239.5zM440 356q0 -58 27 -85t86 -27q44 0 97.5 19.5t84.5 45.5 v185l-137 -15q-87 -7 -122.5 -35t-35.5 -88z" />
<glyph unicode="b" horiz-adv-x="1368" d="M117 45v1610h377v-664q115 133 335 133q469 0 469 -544q0 -288 -164 -444.5t-464 -158.5q-222 0 -553 68zM496 248q80 -17 170 -17q148 0 200 64q54 66 54 256q0 170 -43 231q-44 62 -164 62q-110 0 -163.5 -53.5t-53.5 -167.5v-375z" />
<glyph unicode="c" horiz-adv-x="1077" d="M70 553q0 571 573 571q200 0 354 -34v-295q-181 24 -315 24q-130 0 -185 -60.5t-55 -203.5q0 -146 54 -207t182 -61q172 0 317 22l2 -291q-138 -36 -354 -36q-573 0 -573 571z" />
<glyph unicode="d" d="M70 526q0 291 164 445.5t462 154.5q66 0 176 -10v539h377v-1655h-329l-29 137h-17q-109 -160 -335 -160q-469 0 -469 549zM449 555q0 -174 43 -238q42 -63 161 -63q110 0 164 54.5t55 174.5v365q-94 18 -186 18q-140 0 -188 -63q-49 -64 -49 -248z" />
<glyph unicode="e" horiz-adv-x="1228" d="M70 545q0 288 148 433.5t441 145.5q500 0 500 -491q0 -106 -20 -176h-695q12 -114 63 -153.5t181 -39.5q235 0 418 49l10 -268q-210 -63 -461 -63q-585 0 -585 563zM442 645h385q-1 118 -44 168.5t-140 50.5q-100 0 -145.5 -49t-55.5 -170z" />
<glyph unicode="f" horiz-adv-x="964" d="M31 791v315h239v49q0 282 154 397q153 114 539 117l18 -270q-191 -5 -263.5 -52.5t-72.5 -170.5v-70h295v-315h-295v-791h-379l2 791h-237z" />
<glyph unicode="g" horiz-adv-x="1368" d="M72 545q0 282 164 431.5t462 149.5q118 0 232 -20q127 -19 321 -76v-891q0 -159 -50.5 -276t-141 -184t-203 -98.5t-250.5 -31.5q-275 0 -459 45l21 269q196 -41 364 -41q364 0 367 270v111h-16q-102 -166 -340 -166q-471 0 -471 508zM451 573q0 -155 43 -211.5 t161 -56.5q111 0 165 57t54 175v311q-94 18 -186 18q-138 0 -188 -59q-49 -58 -49 -234z" />
<glyph unicode="h" d="M119 0v1655h377v-664q285 135 446 135q147 0 231 -81.5t84 -227.5v-817h-376v692q0 73 -27.5 106t-89.5 33q-103 0 -268 -65v-766h-377z" />
<glyph unicode="i" horiz-adv-x="616" d="M106 1450q0 105 47.5 152t155.5 47t156.5 -48t48.5 -151q0 -104 -49 -152.5t-158 -48.5h2q-108 0 -155.5 48t-47.5 153zM121 0v1106h377v-1106h-377z" />
<glyph unicode="j" horiz-adv-x="612" d="M33 -401q50 162 69 325q21 156 21 402q0 448 -4 780h377v-954q-27 -327 -189 -603zM100 1450q0 105 48.5 152t156.5 47t156.5 -48t48.5 -151q0 -104 -48.5 -152.5t-156.5 -48.5t-156.5 48t-48.5 153z" />
<glyph unicode="k" horiz-adv-x="1286" d="M119 0v1655h377v-967h106l258 418h414l-359 -518l-53 -15v-8l53 -12l394 -553h-410l-299 453h-104v-453h-377z" />
<glyph unicode="l" horiz-adv-x="618" d="M121 0v1655h377v-1655h-377z" />
<glyph unicode="m" horiz-adv-x="1996" d="M121 0v1106h313l21 -127h14q237 147 403 147q205 0 281 -149h10q229 149 404 149q148 0 232.5 -81.5t84.5 -227.5v-817h-375v686q0 72 -28.5 105.5t-89.5 33.5q-80 0 -201 -59v-766h-375v686q0 73 -28.5 106t-90.5 33q-79 0 -200 -59v-766h-375z" />
<glyph unicode="n" d="M121 0v1106h315l21 -127h16q289 147 469 147q148 0 233 -81.5t85 -227.5v-817h-377v692q0 73 -28 105t-89 32q-113 0 -268 -63v-766h-377z" />
<glyph unicode="o" horiz-adv-x="1347" d="M68 553q0 278 156.5 425.5t451.5 147.5t450.5 -146t155.5 -427q0 -279 -156 -427.5t-450 -148.5t-451 149t-157 427zM446 553q0 -164 50.5 -226.5t179.5 -62.5t178 62t49 227q0 163 -49.5 225t-177.5 62q-130 0 -180 -61.5t-50 -225.5z" />
<glyph unicode="p" horiz-adv-x="1372" d="M121 -451v1557h330l26 -137h17q109 157 342 157q232 0 349.5 -137.5t117.5 -408.5q0 -289 -165.5 -446t-461.5 -157q-57 0 -178 11v-439h-377zM498 258q80 -18 188 -18q140 0 188 63q50 65 50 250q0 174 -43 235q-43 64 -164 64q-111 0 -165 -58t-54 -182v-354z" />
<glyph unicode="q" horiz-adv-x="1368" d="M70 526q0 292 164.5 447t467.5 155q192 0 549 -53v-1526h-360v590q-126 -159 -352 -159q-469 0 -469 546zM446 559q0 -178 43 -242q42 -63 166 -63q113 0 166 59t53 183v352q-86 18 -188 18q-143 0 -192 -61q-48 -63 -48 -246z" />
<glyph unicode="r" horiz-adv-x="950" d="M121 0v1106h315l21 -166h8q79 64 173 115t171 71h121v-309h-131q-81 -7 -162.5 -36t-138.5 -68v-713h-377z" />
<glyph unicode="s" horiz-adv-x="1116" d="M80 27v256q256 -54 436 -54q176 0 176 84q0 44 -41 67.5t-139 33.5q-6 0 -12 2l-80 8q-91 14 -160 41q-35 16 -70 43t-53 59q-51 89 -51 201q0 170 131 265t363 95q168 0 426 -41l-9 -274q-233 51 -379 51q-172 0 -172 -86q0 -43 46 -63.5t172 -38.5q196 -21 292.5 -99.5 t96.5 -234.5q0 -180 -131 -272.5t-387 -92.5q-213 0 -455 50z" />
<glyph unicode="t" horiz-adv-x="935" d="M37 791v315h213l57 328l291 32v-360h276v-315h-272v-367q0 -92 34 -129t116 -37q55 0 125 25v-279q-100 -33 -252 -33v2q-197 0 -298.5 92.5t-101.5 270.5v455h-188z" />
<glyph unicode="u" d="M113 289v817h376v-705q0 -73 27.5 -106t87.5 -33q97 0 270 66v778h377v-1106h-315l-21 127h-8q-174 -91 -254 -119q-89 -28 -219 -28q-153 0 -237 81t-84 228z" />
<glyph unicode="v" horiz-adv-x="1302" d="M14 1069v37h408l166 -543l57 -262h21l57 262l170 543h399v-37l-411 -1069h-459z" />
<glyph unicode="w" horiz-adv-x="1771" d="M23 1096v10h372l127 -617l21 -143h22l23 143l143 617h307l148 -617l20 -143h25l18 143l127 617h371v-10l-295 -1096h-412l-125 537l-18 131h-23l-18 -131l-125 -537h-409z" />
<glyph unicode="x" horiz-adv-x="1290" d="M6 35l383 538l-366 512v21h397l162 -238l55 -92h18l56 92l159 238h398v-21l-365 -520l381 -530v-35h-397l-176 256l-58 106h-18l-57 -106l-172 -256h-398z" />
<glyph unicode="y" horiz-adv-x="1306" d="M6 1069v37h408l172 -500l59 -227h19l59 227l178 500h397v-37l-628 -1520l-357 50v30l154 389z" />
<glyph unicode="z" horiz-adv-x="1167" d="M72 0v238l530 577v19h-512v272h989v-236l-510 -575v-21h531v-274h-1028z" />
<glyph unicode="&#x2000;" horiz-adv-x="834" />
<glyph unicode="&#x2001;" horiz-adv-x="1669" />
<glyph unicode="&#x2002;" horiz-adv-x="834" />
<glyph unicode="&#x2003;" horiz-adv-x="1669" />
<glyph unicode="&#x2004;" horiz-adv-x="556" />
<glyph unicode="&#x2005;" horiz-adv-x="417" />
<glyph unicode="&#x2006;" horiz-adv-x="278" />
<glyph unicode="&#x2007;" horiz-adv-x="278" />
<glyph unicode="&#x2008;" horiz-adv-x="208" />
<glyph unicode="&#x2009;" horiz-adv-x="333" />
<glyph unicode="&#x200a;" horiz-adv-x="92" />
<glyph unicode="&#x202f;" horiz-adv-x="333" />
<glyph unicode="&#x205f;" horiz-adv-x="417" />
<glyph unicode="&#x25fc;" horiz-adv-x="1105" d="M0 0v1106h1106v-1106h-1106z" />
</font>
</defs>
</svg>
