<?xml version="1.0" standalone="no"?>
<!DOCTYPE svg PUBLIC "-//W3C//DTD SVG 1.1//EN" "http://www.w3.org/Graphics/SVG/1.1/DTD/svg11.dtd" >
<svg xmlns="http://www.w3.org/2000/svg">
<metadata></metadata>
<defs>
<font id="enc7050regular" horiz-adv-x="1296" >
<font-face units-per-em="2048" ascent="1638" descent="-410" />
<missing-glyph horiz-adv-x="1024" />
<glyph horiz-adv-x="2048" />
<glyph horiz-adv-x="2048" />
<glyph unicode="&#xd;" horiz-adv-x="2048" />
<glyph unicode=" "  horiz-adv-x="1024" />
<glyph unicode="&#x09;" horiz-adv-x="1024" />
<glyph unicode="&#xa0;" horiz-adv-x="1024" />
<glyph unicode="," horiz-adv-x="530" d="M57 -297l90 578h271l-160 -598z" />
<glyph unicode="." horiz-adv-x="526" d="M106 137q0 73 41 111.5t115 38.5q76 0 118 -38.5t42 -111.5t-42 -111t-118 -38q-74 0 -115 38t-41 111z" />
<glyph unicode="0" horiz-adv-x="1415" d="M98 756q0 384 156.5 582t454.5 198q297 0 452.5 -198t155.5 -582q0 -381 -155.5 -578.5t-452.5 -197.5t-454 197.5t-157 578.5zM369 756q0 -292 81 -424.5t259 -132.5q173 0 256.5 134.5t83.5 422.5q0 291 -83.5 425t-256.5 134q-175 0 -257.5 -134t-82.5 -425z" />
<glyph unicode="1" horiz-adv-x="897" d="M33 1237l4 12l471 267h205v-1516h-275v1219h-6l-346 -140h-16z" />
<glyph unicode="2" horiz-adv-x="1196" d="M86 2v211q0 207 125 338q61 66 134.5 116t189.5 109q155 81 219.5 151.5t64.5 162.5q0 113 -71.5 167t-223.5 54q-163 0 -372 -49l-21 221q251 51 451 51q508 0 508 -420q0 -163 -87 -275.5t-282 -220.5q-189 -110 -248 -169q-70 -70 -70 -160v-70h689v-217h-1006z" />
<glyph unicode="3" horiz-adv-x="1144" d="M104 1501q172 35 357 35q268 0 407.5 -104.5t139.5 -305.5q0 -127 -65 -215t-187 -125v-12q137 -31 215 -125.5t78 -234.5q0 -211 -151.5 -322.5t-438.5 -111.5q-213 0 -353 28v209h9q126 -33 303 -33q185 0 268.5 60t83.5 190q0 129 -82 184.5t-276 55.5h-138v194h136 q171 0 245 54t74 176q0 118 -72 171.5t-233 53.5q-92 0 -309 -29h-9z" />
<glyph unicode="4" horiz-adv-x="1306" d="M39 487v17l506 1032h8l262 -29l10 -24l-506 -938v-10h453l66 446h190v-446h227v-209h-227v-326h-266v326h-684z" />
<glyph unicode="5" horiz-adv-x="1146" d="M102 8v209h56q126 -27 262 -27q192 0 279 62.5t87 208.5q0 135 -108 188q-111 57 -371 60h-155l-25 24l59 783h803v-216h-600l-22 -393q366 -3 534 -106q166 -102 166 -350q0 -166 -84 -279q-82 -106 -211 -151.5t-319 -45.5q-157 0 -351 33z" />
<glyph unicode="6" horiz-adv-x="1327" d="M98 676q0 419 194.5 640.5t563.5 221.5q136 0 303 -37l-29 -201q-155 35 -264 35q-225 0 -345.5 -128.5t-145.5 -391.5q155 131 375 131q231 0 370 -121q137 -119 137 -327q0 -238 -153 -379q-154 -142 -416 -142q-288 0 -439 178.5t-151 520.5zM369 639q6 -237 83 -348 t236 -111q139 0 215 81.5t76 230.5q0 135 -74 204.5t-217 69.5q-83 0 -170.5 -35.5t-148.5 -91.5z" />
<glyph unicode="7" horiz-adv-x="1067" d="M45 1491l25 25h925l41 -144v-45l-534 -1327l-60 -37l-229 37v33l530 1249h-686z" />
<glyph unicode="8" horiz-adv-x="1323" d="M94 389q0 265 262 391q-213 115 -213 361q0 183 146 289q141 106 387 106q236 0 372 -104.5t136 -292.5q0 -126 -56 -210.5t-165 -144.5q131 -54 198.5 -142.5t67.5 -229.5q0 -204 -144.5 -314t-420.5 -110q-570 0 -570 401zM348 418q0 -117 84 -179.5t232 -62.5 q145 0 227 58t82 165q0 101 -68 162q-32 32 -78 53q-68 33 -204 70l-72 21q-203 -105 -203 -287zM387 1126q0 -92 70 -155q25 -25 82 -51q67 -29 211 -68q4 -2 12 -2q180 104 180 274q0 105 -75 164.5t-203 59.5q-126 0 -201.5 -59t-75.5 -163z" />
<glyph unicode="9" horiz-adv-x="1327" d="M70 1018q0 238 153 379q156 141 416 141q289 0 439.5 -178t150.5 -520q0 -420 -194 -641.5t-564 -221.5q-136 0 -303 37l29 201q158 -35 266 -35q223 0 344.5 129t146.5 391q-155 -131 -376 -131q-232 0 -371 121q-137 119 -137 328zM348 1024q0 -134 74.5 -204 t216.5 -70q84 0 173 35.5t146 91.5q-4 237 -82 347.5t-237 110.5q-137 0 -214 -81.5t-77 -229.5z" />
<glyph unicode=":" horiz-adv-x="548" d="M117 137q0 150 157 150q75 0 117 -39q43 -37 43 -111q0 -72 -43 -112q-40 -37 -117 -37q-74 0 -115.5 38t-41.5 111zM117 971q0 72 41 110q40 37 114 37q77 0 119 -39q43 -37 43 -110q0 -71 -42 -109.5t-118 -38.5q-157 0 -157 150z" />
<glyph unicode=";" horiz-adv-x="587" d="M86 -297l92 578h271l-160 -598zM147 971q0 72 41.5 109.5t116.5 37.5q76 0 118 -38t42 -109q0 -150 -158 -150q-76 0 -118 38.5t-42 111.5z" />
<glyph unicode="A" horiz-adv-x="1458" d="M6 0v16l520 1500h408l518 -1500v-16h-264l-139 401h-639l-140 -401h-264zM479 625h500l-148 419l-90 281h-24l-90 -285z" />
<glyph unicode="B" horiz-adv-x="1415" d="M164 10v1495q305 31 508 31q321 0 465.5 -100t144.5 -320q0 -131 -69 -220t-193 -118v-8q152 -26 231.5 -120t79.5 -244q0 -426 -622 -426q-255 0 -545 30zM422 193q94 -17 283 -17q182 0 269 62t87 190t-81 187t-259 59h-299v-481zM422 860h283q167 0 237 54.5t70 185.5 q0 128 -75 182.5t-253 54.5q-144 0 -262 -16v-461z" />
<glyph unicode="C" horiz-adv-x="1224" d="M92 754q0 397 177 591.5t534 194.5q134 0 346 -37v-221q-219 31 -313 31q-250 0 -359 -127q-106 -124 -106 -430q0 -299 104 -424q106 -127 348 -127q177 0 326 35v-222q-169 -41 -334 -41q-723 0 -723 777z" />
<glyph unicode="D" horiz-adv-x="1540" d="M164 6v1505q330 25 471 25q424 0 619.5 -187t195.5 -591q0 -410 -207 -596q-206 -185 -665 -185q-259 0 -414 29zM434 215q125 -16 242 -16q265 0 380 129t115 428q0 303 -116 428q-114 129 -383 129q-102 0 -238 -13v-1085z" />
<glyph unicode="E" horiz-adv-x="1306" d="M164 0v1516h1034v-216h-764v-428h-123v-215h123v-440h783v-217h-1053zM434 657v215h703v-215h-703z" />
<glyph unicode="F" horiz-adv-x="1251" d="M164 0v1516h1028v-216h-758v-456h-110v-217h110v-627h-270zM434 627v217h684v-217h-684z" />
<glyph unicode="G" horiz-adv-x="1396" d="M90 754q0 786 766 786q216 0 410 -51v-223q-237 47 -392 47q-274 0 -391 -129q-114 -126 -114 -428q0 -300 106 -424q109 -127 359 -127q87 0 196 14v-170l250 -2q-250 -70 -455 -70q-735 0 -735 777zM1030 219v551h250v-723l-125 195q-59 -15 -125 -23z" />
<glyph unicode="H" horiz-adv-x="1622" d="M164 0v1516h270v-631h754v631h270v-1516h-270v668h-754v-668h-270z" />
<glyph unicode="I" horiz-adv-x="598" d="M164 0v1516h270v-1516h-270z" />
<glyph unicode="J" horiz-adv-x="598" d="M8 -324q89 194 125 351q35 155 35 364v1125h272v-1143q0 -209 -55 -377q-56 -171 -197 -402z" />
<glyph unicode="K" horiz-adv-x="1433" d="M164 0v1516h270v-639h250l408 639h305l-443 -672l-88 -53v-15l95 -53l473 -723h-306l-423 659h-271v-659h-270z" />
<glyph unicode="L" horiz-adv-x="1132" d="M164 0v1516h270v-1301h670v-215h-940z" />
<glyph unicode="M" horiz-adv-x="1974" d="M164 0v1516h368l340 -828l107 -321h16l107 321l344 828h366v-1516h-245v1204h-15l-155 -426l-295 -717h-228l-296 717l-152 426h-16v-1204h-246z" />
<glyph unicode="N" horiz-adv-x="1632" d="M164 0v1516h217l709 -932l120 -178h15v1110h245v-1516h-217l-704 926l-127 184h-14v-1110h-244z" />
<glyph unicode="O" horiz-adv-x="1579" d="M92 756q0 382 178.5 581t517.5 199q340 0 519.5 -199.5t179.5 -580.5q0 -379 -179.5 -577.5t-519.5 -198.5q-339 0 -517.5 198t-178.5 578zM369 756q0 -295 100 -424q101 -131 319 -131q221 0 322 131q100 129 100 424q0 292 -100.5 425.5t-318.5 133.5 q-222 0 -322 -132.5t-100 -426.5z" />
<glyph unicode="P" horiz-adv-x="1378" d="M164 0v492v921v92q228 31 418 31q387 0 562 -127t175 -410q0 -277 -177 -408.5t-548 -131.5q-78 0 -160 6v-465h-270zM434 692q88 -16 201 -16q227 0 318 72t91 251q0 175 -92 246q-89 74 -315 74q-115 0 -203 -12v-615z" />
<glyph unicode="Q" horiz-adv-x="1574" d="M88 756q0 375 181 577.5t517 202.5q337 0 519 -202.5t182 -577.5q0 -342 -163 -526q-158 -179 -440 -179h-18v-18q343 -73 592 -94l-57 -226q-249 54 -447 109q-385 110 -587 264q-149 120 -214 279.5t-65 390.5zM362 756q0 -285 102.5 -420t321.5 -135q220 0 322 134 t102 421q0 288 -103.5 423.5t-320.5 135.5t-320.5 -136t-103.5 -423z" />
<glyph unicode="R" horiz-adv-x="1417" d="M164 0v1505q225 31 418 31q387 0 562 -120t175 -384q0 -343 -315 -450l374 -582h-305l-309 532q-76 -6 -166 -6q-63 0 -164 11v-537h-270zM434 758q73 -17 201 -17q225 0 317 65.5t92 225.5q0 156 -92.5 221.5t-314.5 65.5q-104 0 -203 -12v-549z" />
<glyph unicode="S" horiz-adv-x="1245" d="M82 41l4 223q283 -67 492 -67q319 0 319 204q0 100 -70 151.5t-243 94.5q-256 56 -368 162t-112 301q0 198 152 317q150 117 412 117q169 0 434 -55l-2 -223q-210 59 -408 59q-143 0 -225 -56t-82 -155q0 -93 71 -147.5t249 -102.5q243 -59 356 -155q119 -94 119 -287 q0 -217 -149 -332t-431 -115q-245 0 -518 66z" />
<glyph unicode="T" horiz-adv-x="1271" d="M37 1298v218h1200v-218h-465v-1298h-272v1298h-463z" />
<glyph unicode="U" horiz-adv-x="1593" d="M147 618v898h273v-900q0 -215 91.5 -314t287.5 -99q194 0 285.5 99t91.5 314v900h270v-898q0 -337 -150 -487q-151 -151 -497 -151q-351 0 -502 151q-150 153 -150 487z" />
<glyph unicode="V" horiz-adv-x="1449" d="M8 1516h287l338 -955l86 -303h16l88 303l338 955h281l-535 -1516h-362z" />
<glyph unicode="W" horiz-adv-x="2156" d="M31 1516h293l225 -963l55 -279h21l63 279l258 963h268l252 -963l66 -279h20l58 279l225 963h295l-397 -1516h-361l-229 864l-56 307h-14l-57 -309l-234 -862h-358z" />
<glyph unicode="X" horiz-adv-x="1439" d="M-6 0l555 786l-518 730h311l334 -484l41 -74h10l41 74l340 484h307l-528 -742l565 -774h-311l-377 537l-37 65h-12l-37 -65l-373 -537h-311z" />
<glyph unicode="Y" horiz-adv-x="1382" d="M-4 1516h295l332 -617l61 -145h14l60 145l332 617h294l-555 -1012v-504h-272v496z" />
<glyph unicode="Z" horiz-adv-x="1267" d="M66 0v201l778 1083v14h-750v218h1082v-197l-779 -1090v-12h807v-217h-1138z" />
<glyph unicode="a" horiz-adv-x="1146" d="M72 295q0 162 102.5 246.5t317.5 97.5l262 23v43q0 131 -54 176q-51 45 -213 45q-130 0 -327 -37l-21 190q209 39 414 39q236 0 351.5 -90t115.5 -278v-750h-219l-27 137h-12q-188 -147 -385 -147q-147 0 -226 79t-79 226zM340 324q0 -146 149 -146q125 0 265 96v242 l-183 -16q-128 -12 -179.5 -51.5t-51.5 -124.5z" />
<glyph unicode="b" horiz-adv-x="1294" d="M137 33v1622h266v-668q121 139 342 139q463 0 463 -555q0 -284 -152 -437.5t-431 -153.5q-212 0 -488 53zM403 184q102 -18 220 -18q173 0 245 86.5t72 300.5q0 202 -61 285.5t-207 83.5q-121 0 -195 -61.5t-74 -168.5v-508z" />
<glyph unicode="c" horiz-adv-x="1017" d="M86 553q0 571 545 571q168 0 303 -30v-215q-144 26 -275 26q-161 0 -235 -84t-74 -268q0 -185 72 -268.5t233 -83.5q141 0 279 24v-211q-114 -32 -303 -32q-545 0 -545 571z" />
<glyph unicode="d" d="M86 537q0 285 153.5 437t428.5 152q43 0 221 -16v545h266v-1655h-231l-23 135h-12q-113 -155 -340 -155q-463 0 -463 557zM354 553q0 -203 61.5 -288t207.5 -85q121 0 193.5 63.5t72.5 178.5v491q-120 21 -230 21q-163 0 -234 -86.5t-71 -294.5z" />
<glyph unicode="e" horiz-adv-x="1165" d="M86 541q0 287 137.5 435t403.5 148q223 0 338.5 -124t115.5 -365q0 -101 -14 -156h-717q12 -161 81 -227q67 -64 215 -64h9q193 0 377 54l8 -197q-189 -63 -409 -63q-270 0 -407.5 141t-137.5 418zM350 623h494q-5 167 -57.5 239t-170.5 72q-129 0 -192 -74.5t-74 -236.5 z" />
<glyph unicode="f" horiz-adv-x="856" d="M33 881v225h237v53q0 151 29 242.5t100 150.5q70 59 178.5 84.5t286.5 30.5l13 -194q-202 -9 -271 -66q-66 -51 -69 -215v-86h294v-225h-294v-881h-267v881h-237z" />
<glyph unicode="g" horiz-adv-x="1294" d="M86 549q0 279 153.5 428t428.5 149q227 0 489 -75v-928q0 -128 -30 -227t-82.5 -163.5t-128 -106.5t-160.5 -59.5t-187 -17.5q-229 0 -405 45l16 201q179 -45 348 -45q185 0 281 80.5t96 259.5v88h-12q-110 -162 -344 -162q-463 0 -463 533zM356 565q0 -192 60.5 -272 t206.5 -80q123 0 195.5 64t72.5 178v458q-120 21 -229 21q-165 0 -235.5 -84t-70.5 -285z" />
<glyph unicode="h" d="M139 0v1655h267v-670q298 141 456 141q147 0 224 -78t77 -227v-821h-266v733q0 94 -36 136t-116 42q-124 0 -339 -96v-815h-267z" />
<glyph unicode="i" horiz-adv-x="546" d="M123 1446q0 78 36 113.5t115 35.5t115.5 -36.5t36.5 -112.5t-36.5 -112t-115.5 -36q-80 0 -115.5 35t-35.5 113zM139 0v1106h267v-1106h-267z" />
<glyph unicode="j" horiz-adv-x="542" d="M25 -406q62 152 90 316q28 159 28 381q0 603 -4 815h267v-942q-18 -334 -187 -615zM115 1446q0 78 36.5 113.5t116.5 35.5q154 0 154 -149q0 -148 -154 -148q-80 0 -116.5 35t-36.5 113z" />
<glyph unicode="k" horiz-adv-x="1198" d="M139 0v1655h267v-1000h153l320 451h297l-390 -518l-45 -15v-8l45 -16l422 -549h-293l-360 481h-149v-481h-267z" />
<glyph unicode="l" horiz-adv-x="550" d="M143 0v1655h267v-1655h-267z" />
<glyph unicode="m" horiz-adv-x="1910" d="M139 0v1106h221l17 -127h12q243 147 402 147q202 0 270 -151h10q245 151 404 151q148 0 225.5 -78t77.5 -227v-821h-265v729q0 94 -36.5 137t-116.5 43q-102 0 -266 -92v-817h-267v729q0 94 -36.5 137t-114.5 43q-107 0 -270 -94v-815h-267z" />
<glyph unicode="n" d="M139 0v1106h223l15 -127h16q299 147 471 147q144 0 222.5 -78.5t78.5 -226.5v-821h-266v733q0 93 -36.5 135.5t-114.5 42.5q-130 0 -342 -96v-815h-267z" />
<glyph unicode="o" horiz-adv-x="1273" d="M84 553q0 278 142.5 425.5t412.5 147.5q269 0 411 -147.5t142 -425.5q0 -280 -143 -426q-141 -147 -412 -147q-268 0 -412 147q-141 147 -141 426zM352 553q0 -196 66 -280.5t219 -84.5q154 0 219.5 84t65.5 281q0 195 -66.5 280t-216.5 85q-154 0 -220.5 -84.5 t-66.5 -280.5z" />
<glyph unicode="p" horiz-adv-x="1298" d="M139 -451v1557h234l20 -133h13q114 153 344 153q462 0 462 -553q0 -287 -153 -440t-430 -153q-75 0 -223 14v-445h-267zM406 193q111 -21 229 -21q166 0 236.5 86t70.5 295q0 204 -60 288.5t-206 84.5q-125 0 -197.5 -64.5t-72.5 -181.5v-487z" />
<glyph unicode="q" horiz-adv-x="1294" d="M86 537q0 286 152 437.5t432 151.5q223 0 487 -45v-1532h-256v588q-127 -157 -352 -157q-463 0 -463 557zM352 557q0 -204 62 -290.5t209 -86.5q125 0 196.5 66t71.5 184v483q-117 21 -232 21q-166 0 -236.5 -85.5t-70.5 -291.5z" />
<glyph unicode="r" horiz-adv-x="866" d="M139 0v1106h223l15 -158h10q232 148 371 178h86v-225h-92q-166 -18 -346 -125v-776h-267z" />
<glyph unicode="s" horiz-adv-x="1030" d="M86 25v190q219 -51 397 -51q217 0 217 139q0 67 -49.5 101.5t-158.5 52.5q-7 0 -13 2l-78 12q-95 17 -145 43q-82 42 -115 96q-43 74 -43 185q0 158 118 246.5t327 88.5q142 0 370 -40l-8 -201q-220 47 -336 47q-217 0 -217 -133q0 -69 52 -99t190 -55 q185 -27 273.5 -102t88.5 -225q0 -166 -119 -255.5t-341 -89.5q-162 0 -410 48z" />
<glyph unicode="t" horiz-adv-x="868" d="M35 879v227h227l41 299l209 25v-324h303v-227h-303v-506q0 -99 41 -144t131 -45q57 0 137 25v-203q-110 -29 -221 -29q-173 0 -263.5 86t-90.5 250v566h-211z" />
<glyph unicode="u" d="M131 285v821h266v-741q0 -92 35.5 -136.5t108.5 -44.5q117 0 350 103v819h266v-1106h-223l-16 131h-9q-191 -96 -270 -123q-89 -28 -209 -28q-146 0 -222.5 78.5t-76.5 226.5z" />
<glyph unicode="v" horiz-adv-x="1210" d="M29 1077v29h284l236 -684l51 -209h14l54 209l237 684h281v-29l-416 -1077h-332z" />
<glyph unicode="w" horiz-adv-x="1691" d="M37 1094v12h262l168 -698l29 -154h18l31 154l186 698h227l189 -698l33 -154h18l29 154l162 698h262v-12l-295 -1094h-295l-180 653l-29 142h-16l-27 -142l-174 -653h-295z" />
<glyph unicode="x" horiz-adv-x="1200" d="M16 0v29l404 544l-383 514v19h282l213 -291l64 -94h14l62 94l209 291h284v-19l-383 -522l402 -536v-29h-281l-229 311l-68 107h-14l-68 -107l-225 -311h-283z" />
<glyph unicode="y" horiz-adv-x="1222" d="M20 1077v29h287l242 -643l53 -187h16l54 187l252 643h278v-29l-637 -1528l-250 39v23l162 401z" />
<glyph unicode="z" horiz-adv-x="1077" d="M74 0v172l569 721v14h-549v199h891v-168l-555 -721v-16h576v-201h-932z" />
<glyph unicode="&#x2000;" horiz-adv-x="833" />
<glyph unicode="&#x2001;" horiz-adv-x="1667" />
<glyph unicode="&#x2002;" horiz-adv-x="833" />
<glyph unicode="&#x2003;" horiz-adv-x="1667" />
<glyph unicode="&#x2004;" horiz-adv-x="555" />
<glyph unicode="&#x2005;" horiz-adv-x="416" />
<glyph unicode="&#x2006;" horiz-adv-x="277" />
<glyph unicode="&#x2007;" horiz-adv-x="277" />
<glyph unicode="&#x2008;" horiz-adv-x="208" />
<glyph unicode="&#x2009;" horiz-adv-x="333" />
<glyph unicode="&#x200a;" horiz-adv-x="92" />
<glyph unicode="&#x202f;" horiz-adv-x="333" />
<glyph unicode="&#x205f;" horiz-adv-x="416" />
<glyph unicode="&#x25fc;" horiz-adv-x="1105" d="M0 0v1106h1106v-1106h-1106z" />
</font>
</defs>
</svg>
