<?xml version="1.0" standalone="no"?>
<!DOCTYPE svg PUBLIC "-//W3C//DTD SVG 1.1//EN" "http://www.w3.org/Graphics/SVG/1.1/DTD/svg11.dtd" >
<svg xmlns="http://www.w3.org/2000/svg">
<metadata></metadata>
<defs>
<font id="enc7040regular" horiz-adv-x="1269" >
<font-face units-per-em="2048" ascent="1638" descent="-410" />
<missing-glyph horiz-adv-x="1024" />
<glyph horiz-adv-x="2048" />
<glyph horiz-adv-x="2048" />
<glyph unicode="&#xd;" horiz-adv-x="2048" />
<glyph unicode=" "  horiz-adv-x="1024" />
<glyph unicode="&#x09;" horiz-adv-x="1024" />
<glyph unicode="&#xa0;" horiz-adv-x="1024" />
<glyph unicode="," horiz-adv-x="507" d="M61 -297l93 549h233l-149 -569z" />
<glyph unicode="." horiz-adv-x="507" d="M115 123q0 65 36 99t103 34t104 -34t37 -99t-37 -99t-104 -34t-103 34t-36 99z" />
<glyph unicode="0" horiz-adv-x="1390" d="M104 756q0 384 151 582t441 198q289 0 439.5 -197.5t150.5 -582.5q0 -382 -151.5 -580.5t-440.5 -198.5q-288 0 -439 198.5t-151 580.5zM338 756q0 -302 86.5 -444t271.5 -142q181 0 270 143t89 443t-89 443.5t-270 143.5q-183 0 -270.5 -142.5t-87.5 -444.5z" />
<glyph unicode="1" horiz-adv-x="866" d="M39 1237l2 12l461 267h176v-1516h-236v1255h-6l-350 -153h-16z" />
<glyph unicode="2" horiz-adv-x="1167" d="M90 2v207q0 204 119 332q59 65 132.5 117t190.5 114q159 88 225 161t66 169q0 237 -299 237q-165 0 -368 -51l-23 193q251 53 434 53q490 0 490 -412q0 -162 -88 -272q-91 -111 -281 -217q-178 -103 -254 -182q-74 -77 -74 -181v-77h701v-191h-971z" />
<glyph unicode="3" horiz-adv-x="1116" d="M109 8v182h10q126 -30 291 -30q189 0 276.5 66t87.5 204q0 135 -84.5 195.5t-277.5 60.5h-136v170h134q171 0 248 60t77 188t-76 188t-241 60q-96 0 -299 -31h-8l-2 180q158 35 340 35q256 0 391 -105t135 -303q0 -129 -64.5 -218t-183.5 -126v-10q137 -31 213 -125 t76 -235q0 -211 -147.5 -322.5t-424.5 -111.5q-195 0 -335 28z" />
<glyph unicode="4" horiz-adv-x="1277" d="M43 475v17l506 1044h10l219 -27l8 -20l-497 -959v-10h485l60 471h163v-471h226v-180h-226v-340h-231v340h-684z" />
<glyph unicode="5" horiz-adv-x="1122" d="M104 8v182h48q121 -26 262 -26q199 0 290 68.5t91 224.5q0 142 -111.5 203t-374.5 63l-153 2l-23 23l57 768h773v-189h-594l-29 -428q370 -3 532 -104q164 -102 164 -346q0 -100 -29 -180t-81 -134.5t-127 -91t-163.5 -52.5t-193.5 -16q-159 0 -338 33z" />
<glyph unicode="6" horiz-adv-x="1300" d="M102 674q0 418 190 641t546 223q129 0 290 -35l-24 -178q-149 35 -258 35q-458 0 -504 -559q165 139 383 139q231 0 367 -121q135 -120 135 -325q0 -236 -150 -377q-152 -140 -399 -140q-282 0 -429 177t-147 520zM336 641q6 -251 89 -369t253 -118q146 0 227.5 88.5 t81.5 244.5q0 142 -80.5 217.5t-230.5 75.5q-88 0 -181 -38t-159 -101z" />
<glyph unicode="7" horiz-adv-x="1040" d="M47 1495l21 21h899l39 -125v-45l-537 -1348l-53 -31l-197 33v31l537 1284h-697z" />
<glyph unicode="8" horiz-adv-x="1296" d="M100 389q0 268 267 397q-217 114 -217 359q0 183 138.5 287t373.5 104q228 0 358.5 -103t130.5 -290q0 -244 -227 -363q136 -57 205 -144.5t69 -229.5q0 -202 -141 -310t-408 -108q-271 0 -410 102t-139 299zM319 412q0 -123 88 -190.5t242 -67.5q153 0 240.5 63 t87.5 178q0 102 -68 170q-30 30 -80 53q-68 35 -208 76l-82 25q-81 -40 -142 -101q-78 -78 -78 -206zM358 1133q0 -94 72 -166q28 -25 84 -54q78 -36 213 -71l18 -4q195 109 195 292q0 115 -77.5 177.5t-213.5 62.5q-133 0 -212 -62t-79 -175z" />
<glyph unicode="9" horiz-adv-x="1300" d="M76 1022q0 237 147 375q150 141 402 141q282 0 427.5 -176t145.5 -520q0 -418 -188.5 -641.5t-544.5 -223.5q-130 0 -291 35l23 178q148 -34 260 -34q458 0 504 559q-78 -66 -180 -103t-206 -37q-229 0 -364 121.5t-135 325.5zM315 1028q0 -143 80 -218t232 -75 q87 0 181.5 38.5t156.5 100.5q-5 251 -87.5 369.5t-252.5 118.5q-146 0 -228 -89t-82 -245z" />
<glyph unicode=":" horiz-adv-x="526" d="M123 123q0 65 36 99t103 34q68 0 106 -34t38 -99t-38 -99t-106 -34q-67 0 -103 34t-36 99zM123 983q0 66 36.5 100.5t102.5 34.5q68 0 106 -35t38 -100t-37.5 -98t-106.5 -33q-67 0 -103 33t-36 98z" />
<glyph unicode=";" horiz-adv-x="571" d="M96 -297l92 549h234l-152 -569zM158 983q0 66 36.5 100.5t102.5 34.5q68 0 105.5 -35t37.5 -100t-37 -98t-106 -33q-67 0 -103 33t-36 98z" />
<glyph unicode="A" horiz-adv-x="1429" d="M10 0v14l531 1502h350l530 -1500v-16h-229l-150 422h-655l-149 -422h-228zM449 616h532l-166 459l-90 275h-20l-91 -277z" />
<glyph unicode="B" horiz-adv-x="1390" d="M172 10v1495q306 29 487 29q313 0 453.5 -98.5t140.5 -315.5q0 -135 -69.5 -225.5t-192.5 -116.5v-8q152 -29 232 -123.5t80 -243.5q0 -423 -611 -423q-247 0 -520 30zM395 170q88 -16 295 -16q192 0 285.5 65.5t93.5 200.5q0 137 -86 200.5t-272 63.5h-316v-514z M395 848h301q177 0 251.5 59t74.5 199q0 137 -81 196.5t-269 59.5q-157 0 -277 -19v-495z" />
<glyph unicode="C" horiz-adv-x="1216" d="M98 754q0 394 174.5 589t526.5 195q132 0 340 -35v-194q-191 32 -316 32q-258 0 -371.5 -136.5t-113.5 -448.5q0 -307 111 -443.5t362 -136.5q53 0 166 10q105 12 162 27v-193q-167 -40 -334 -40q-707 0 -707 774z" />
<glyph unicode="D" horiz-adv-x="1519" d="M172 6v1505q320 23 451 23q416 0 608 -186t192 -590q0 -409 -202 -596q-200 -185 -648 -185q-259 0 -401 29zM403 186q131 -16 248 -16q283 0 408 138t125 450q0 311 -125 447t-408 136q-128 0 -248 -14v-1141z" />
<glyph unicode="E" horiz-adv-x="1286" d="M172 0v1516h1004v-189h-770v-467h-109v-188h109v-484h788v-188h-1022zM406 672v188h710v-188h-710z" />
<glyph unicode="F" horiz-adv-x="1230" d="M172 0v1516h995v-189h-761v-489h-99v-189h99v-649h-234zM406 649v189h692v-189h-692z" />
<glyph unicode="G" horiz-adv-x="1378" d="M96 754q0 784 748 784q205 0 399 -51v-193q-233 47 -383 47q-278 0 -401 -138t-123 -447q0 -306 115 -443t372 -137q81 0 217 19v-148l215 -2q-235 -65 -422 -65h-16q-721 0 -721 774zM1040 195v575h215v-725l-106 170q-71 -15 -109 -20z" />
<glyph unicode="H" horiz-adv-x="1599" d="M172 0v1516h234v-646h788v646h236v-1516h-236v682h-788v-682h-234z" />
<glyph unicode="I" horiz-adv-x="575" d="M172 0v1516h234v-1516h-234z" />
<glyph unicode="J" horiz-adv-x="575" d="M14 -326q93 202 127 351q35 152 35 362v1129h234v-1145q0 -200 -54 -371q-51 -164 -184 -397z" />
<glyph unicode="K" horiz-adv-x="1404" d="M172 0v1516h234v-654h266l428 654h266l-457 -674l-80 -51v-17l86 -51l488 -723h-266l-449 676h-282v-676h-234z" />
<glyph unicode="L" horiz-adv-x="1112" d="M172 0v1516h234v-1328h677v-188h-911z" />
<glyph unicode="M" horiz-adv-x="1943" d="M172 0v1516h315l365 -871l113 -323h14l115 323l364 871h318v-1516h-213v1239l-15 2l-162 -430l-313 -750h-201l-313 750l-160 430l-14 -2v-1239h-213z" />
<glyph unicode="N" horiz-adv-x="1617" d="M172 0v1516h188l740 -986l121 -178h14v1164h211v-1516h-189l-737 981l-123 182h-14v-1163h-211z" />
<glyph unicode="O" horiz-adv-x="1556" d="M98 756q0 380 174.5 580t505.5 200t506.5 -200t175.5 -580q0 -379 -175.5 -577.5t-506.5 -198.5t-505.5 198t-174.5 578zM336 756q0 -301 107 -441.5t335 -140.5q229 0 337 141t108 441q0 301 -108.5 443t-336.5 142t-335 -141.5t-107 -443.5z" />
<glyph unicode="P" horiz-adv-x="1353" d="M172 0v502v909v94q219 31 401 31q375 0 546 -126t171 -404q0 -276 -171.5 -406.5t-534.5 -130.5q-94 0 -178 8v-477h-234zM406 676q94 -17 212 -17q240 0 336 78q99 77 99 269q0 185 -99 263.5t-336 78.5q-105 0 -212 -17v-655z" />
<glyph unicode="Q" horiz-adv-x="1552" d="M94 756q0 375 177.5 577.5t504.5 202.5t505.5 -203t178.5 -577q0 -346 -163 -534q-158 -183 -441 -183h-18v-16q342 -73 596 -93l-50 -198q-272 53 -438 100q-375 101 -577 254q-146 117 -210.5 277.5t-64.5 392.5zM330 756q0 -297 109.5 -440.5t336.5 -143.5 q226 0 335.5 144t109.5 440q0 299 -109.5 443t-335.5 144t-336 -144t-110 -443z" />
<glyph unicode="R" horiz-adv-x="1392" d="M172 0v1505q215 31 401 31q377 0 547 -118t170 -380q0 -348 -321 -450l377 -588h-265l-321 547q-71 -8 -172 -8q-80 0 -182 12v-551h-234zM406 743q75 -16 212 -16q238 0 336.5 70.5t98.5 240.5q0 166 -100.5 238t-334.5 72q-96 0 -212 -17v-588z" />
<glyph unicode="S" horiz-adv-x="1220" d="M86 41l2 195q275 -68 479 -68q167 0 253.5 57.5t86.5 167.5q0 123 -94 180q-76 48 -235 91q-250 59 -361 161q-108 102 -108 293q0 198 147 312t397 114q163 0 420 -53l-2 -195q-204 58 -395 58q-152 0 -239 -61.5t-87 -170.5q0 -102 72.5 -160t257.5 -110 q122 -31 199 -62.5t141 -80.5q131 -98 131 -297q0 -211 -145 -324t-420 -113q-233 0 -500 66z" />
<glyph unicode="T" horiz-adv-x="1251" d="M35 1327v189h1184v-189h-476v-1327h-233v1327h-475z" />
<glyph unicode="U" horiz-adv-x="1572" d="M156 616v900h233v-900q0 -231 96.5 -336.5t302.5 -105.5q204 0 300 105.5t96 336.5v900h233v-900q0 -338 -146.5 -487t-482.5 -149t-484 150.5t-148 485.5z" />
<glyph unicode="V" horiz-adv-x="1425" d="M10 1516h248l358 -992l91 -299h14l90 299l360 992h242l-543 -1516h-313z" />
<glyph unicode="W" horiz-adv-x="2123" d="M35 1516h252l241 -994l62 -282h18l70 282l270 994h232l266 -994l67 -282h19l63 282l246 994h252l-407 -1516h-310l-250 922l-55 292h-14l-58 -294l-254 -920h-309z" />
<glyph unicode="X" horiz-adv-x="1411" d="M2 0l557 784l-524 732h268l365 -517l34 -65h13l35 65l366 517h266l-532 -742l567 -774h-270l-404 565l-32 60h-11l-30 -60l-402 -565h-266z" />
<glyph unicode="Y" horiz-adv-x="1345" d="M0 1516h256l350 -650l60 -141h14l59 141l353 650h254l-553 -1008v-508h-236v500z" />
<glyph unicode="Z" horiz-adv-x="1236" d="M66 0v174l794 1139v14h-766v189h1053v-170l-793 -1145v-13h817v-188h-1105z" />
<glyph unicode="a" horiz-adv-x="1122" d="M76 289q0 159 102 242t318 102l262 20v62q0 137 -56 184q-52 49 -213 49q-133 0 -327 -37l-19 168q204 39 398 39q227 0 336.5 -90t109.5 -276v-752h-188l-23 139h-12q-198 -149 -387 -149q-146 0 -223.5 78t-77.5 221zM307 311q0 -79 40 -117t122 -38q133 0 289 108v260 l-195 -18q-140 -12 -198 -56.5t-58 -138.5z" />
<glyph unicode="b" d="M143 31v1624h230v-670q123 141 346 141q461 0 461 -557q0 -283 -149.5 -436t-420.5 -153q-216 0 -467 51zM373 164q114 -21 235 -21q180 0 259 95t79 315q0 213 -66.5 303t-222.5 90q-124 0 -204 -63.5t-80 -167.5v-551z" />
<glyph unicode="c" horiz-adv-x="999" d="M90 551q0 573 539 573q147 0 284 -28v-189q-144 25 -262 25q-172 0 -252 -91.5t-80 -287.5q0 -198 78 -288.5t250 -90.5q119 0 264 23l2 -185q-114 -30 -284 -30q-539 0 -539 569z" />
<glyph unicode="d" d="M90 541q0 284 149 434.5t418 150.5q35 0 238 -16v545h229v-1655h-198l-21 135h-12q-116 -155 -342 -155q-461 0 -461 561zM324 553q0 -214 66 -305.5t220 -91.5q125 0 205 66t80 177v537q-135 22 -244 22q-172 0 -249.5 -94t-77.5 -311z" />
<glyph unicode="e" horiz-adv-x="1142" d="M90 539q0 287 134 436t392 149q215 0 327 -124t112 -363q0 -89 -13 -152h-723q10 -173 86 -248t240 -75q189 0 363 55l8 -170q-186 -65 -393 -65q-263 0 -398 141t-135 416zM319 614h531q-4 184 -60.5 263t-181.5 79q-140 0 -211 -83t-78 -259z" />
<glyph unicode="f" horiz-adv-x="819" d="M33 909v197h239v53q0 99 11 171.5t38 129.5t68 93.5t106 61t145.5 36.5t193.5 16l10 -170q-210 -12 -277 -70q-64 -58 -67 -229v-92h295v-197h-295v-909h-230v909h-237z" />
<glyph unicode="g" d="M90 549q0 280 149.5 428.5t417.5 148.5q228 0 469 -69v-940q0 -568 -567 -568v2q-217 0 -391 46l14 174q179 -45 344 -45q187 0 284.5 86t98.5 276v82h-12q-115 -160 -344 -160q-463 0 -463 539zM324 563q0 -204 67 -292.5t221 -88.5q126 0 205.5 66.5t79.5 179.5v508 q-135 22 -244 22q-173 0 -251 -92.5t-78 -302.5z" />
<glyph unicode="h" horiz-adv-x="1271" d="M145 0v1655h230v-672q163 76 269 109.5t192 33.5q143 0 220 -77.5t77 -225.5v-823h-230v745q0 102 -38.5 147.5t-123.5 45.5q-140 0 -366 -107v-831h-230z" />
<glyph unicode="i" horiz-adv-x="524" d="M129 1446q0 68 32 99.5t101 31.5q135 0 135 -131q0 -133 -135 -133q-69 0 -101 32t-32 101zM147 0v1106h230v-1106h-230z" />
<glyph unicode="j" horiz-adv-x="518" d="M23 -408q69 160 96 314q31 158 31 373q0 698 -3 827h230v-936q-15 -332 -187 -621zM121 1446q0 67 33 99t102 32q137 0 137 -131q0 -133 -137 -133q-69 0 -102 32t-33 101z" />
<glyph unicode="k" horiz-adv-x="1169" d="M145 0v1655h230v-1010h170l340 461h256l-398 -518l-41 -17v-8l43 -16l431 -547h-254l-381 492h-166v-492h-230z" />
<glyph unicode="l" horiz-adv-x="528" d="M150 0v1655h229v-1655h-229z" />
<glyph unicode="m" horiz-adv-x="1882" d="M147 0v1106h189l14 -129h12q244 149 402 149q203 0 268 -151h8q248 151 406 151q143 0 220 -77.5t77 -225.5v-823h-227v741q0 102 -39.5 148.5t-124.5 46.5q-110 0 -291 -102v-834h-227v741q0 102 -40.5 148.5t-125.5 46.5q-112 0 -293 -102v-834h-228z" />
<glyph unicode="n" horiz-adv-x="1271" d="M147 0v1106h191l14 -129h13q162 80 271 114.5t202 34.5q143 0 220 -77.5t77 -225.5v-823h-230v745q0 102 -39.5 147.5t-124.5 45.5q-141 0 -364 -107v-831h-230z" />
<glyph unicode="o" horiz-adv-x="1249" d="M90 553q0 278 138.5 425.5t396.5 147.5q260 0 398 -147.5t138 -425.5t-138 -425.5t-396 -147.5h-2q-258 0 -396.5 147.5t-138.5 425.5zM322 553q0 -206 72 -298.5t231 -92.5q161 0 233 92t72 299q0 206 -72.5 298.5t-232.5 92.5t-231.5 -92t-71.5 -299z" />
<glyph unicode="p" horiz-adv-x="1271" d="M147 -451v1557h199l19 -131h12q115 151 346 151q459 0 459 -557q0 -283 -150 -436t-420 -153q-41 0 -235 16v-447h-230zM377 170q135 -23 241 -23q174 0 253 95t79 313q0 214 -66.5 304.5t-221.5 90.5q-127 0 -206 -65.5t-79 -179.5v-535z" />
<glyph unicode="q" d="M90 541q0 282 148.5 433.5t420.5 151.5q229 0 467 -45v-1532h-221v588q-127 -157 -354 -157q-461 0 -461 561zM322 555q0 -215 66.5 -307t223.5 -92q129 0 207 68t78 184v528q-132 22 -246 22q-177 0 -253 -93.5t-76 -309.5z" />
<glyph unicode="r" horiz-adv-x="837" d="M147 0v1106h191l14 -156h8q249 150 381 174h74v-194h-80q-159 -17 -358 -133v-797h-230z" />
<glyph unicode="s" horiz-adv-x="1001" d="M90 25v168q215 -52 383 -52q112 0 170.5 41t58.5 117q0 77 -51 114.5t-166 57.5q-6 0 -12 2l-76 12q-100 23 -143 45q-71 38 -112.5 102t-41.5 171q0 154 114.5 240.5t315.5 86.5q133 0 351 -40l-9 -177q-212 48 -321 48q-229 0 -229 -152q0 -61 45 -102q74 -47 204 -66 q181 -31 267 -104.5t86 -221.5q0 -161 -115 -249.5t-326 -88.5q-148 0 -393 48z" />
<glyph unicode="t" horiz-adv-x="845" d="M35 907v199h231l35 289l180 22v-311h314v-199h-312v-551q0 -102 43.5 -148t137.5 -46q59 0 139 22v-178q-98 -26 -211 -26q-166 0 -252 82.5t-86 242.5v602h-219z" />
<glyph unicode="u" horiz-adv-x="1271" d="M139 283v823h230v-754q0 -100 36.5 -146t114.5 -46q76 0 158.5 25.5t218.5 86.5v834h229v-1106h-192l-14 133h-9q-191 -96 -276 -125q-89 -28 -205 -28h-2q-141 0 -215 77.5t-74 225.5z" />
<glyph unicode="v" horiz-adv-x="1179" d="M33 1079v27h243l261 -731l49 -191h12l51 191l262 731h240v-27l-416 -1079h-291z" />
<glyph unicode="w" horiz-adv-x="1665" d="M41 1094v12h225l183 -725l32 -160h17l34 160l199 725h199l205 -725l36 -160h17l31 160l176 725h223v-12l-295 -1094h-256l-199 692l-30 144h-15l-30 -144l-191 -692h-254z" />
<glyph unicode="x" horiz-adv-x="1171" d="M20 0v29l410 544l-389 514v19h246l231 -309l64 -95h12l65 95l226 309h245v-19l-389 -520l410 -538v-29h-242l-247 332l-72 106h-12l-70 -106l-246 -332h-242z" />
<glyph unicode="y" horiz-adv-x="1193" d="M27 1081v25h245l267 -690l51 -174h14l51 174l277 690h237v-25l-641 -1532l-213 35v23l166 405z" />
<glyph unicode="z" horiz-adv-x="1046" d="M76 2v148l579 768v14h-561v174h860v-143l-571 -773v-14h592v-174h-899z" />
<glyph unicode="&#x2000;" horiz-adv-x="833" />
<glyph unicode="&#x2001;" horiz-adv-x="1667" />
<glyph unicode="&#x2002;" horiz-adv-x="833" />
<glyph unicode="&#x2003;" horiz-adv-x="1667" />
<glyph unicode="&#x2004;" horiz-adv-x="555" />
<glyph unicode="&#x2005;" horiz-adv-x="416" />
<glyph unicode="&#x2006;" horiz-adv-x="277" />
<glyph unicode="&#x2007;" horiz-adv-x="277" />
<glyph unicode="&#x2008;" horiz-adv-x="208" />
<glyph unicode="&#x2009;" horiz-adv-x="333" />
<glyph unicode="&#x200a;" horiz-adv-x="92" />
<glyph unicode="&#x202f;" horiz-adv-x="333" />
<glyph unicode="&#x205f;" horiz-adv-x="416" />
<glyph unicode="&#x25fc;" horiz-adv-x="1105" d="M0 0v1106h1106v-1106h-1106z" />
</font>
</defs>
</svg>
