<?xml version="1.0" encoding="utf-8"?>
<!-- Generator: Adobe Illustrator 18.0.0, SVG Export Plug-In . SVG Version: 6.00 Build 0)  -->
<!DOCTYPE svg PUBLIC "-//W3C//DTD SVG 1.1//EN" "http://www.w3.org/Graphics/SVG/1.1/DTD/svg11.dtd">
<svg version="1.1" id="Layer_1" xmlns="http://www.w3.org/2000/svg" xmlns:xlink="http://www.w3.org/1999/xlink" x="0px" y="0px"
	 viewBox="44 581.9 551.3 260" enable-background="new 44 581.9 551.3 260" xml:space="preserve">
<line fill="none" stroke="#000000" stroke-width="40" stroke-miterlimit="10" x1="202.7" y1="653.6" x2="202.7" y2="804.1"/>
<path fill="none" stroke="#000000" stroke-width="40" stroke-miterlimit="10" d="M203.3,741.6c0,0-74.8,0-80.4,0
	c-5.6,0-9.1,1.9-9.1,8.7c0,4.1,2.5,7.7,7.7,7.7c5.8,0,9.6-1.8,9.6-8.4c0-6.7,0-93.2,0-93.2"/>
<path fill="none" stroke="#000000" stroke-width="40" stroke-miterlimit="10" d="M318.8,651.6v45.9c0,0-68.4,2.7-68.4,51.5
	c0,48.8,37,55.5,69.6,55.5c0,0,33.5,2.7,33.5-27.2c0-23.9-13.5-28.4-26.2-28.4c-32.2,0-47.9,55.5-7.3,55.5"/>
<path fill="none" stroke="#000000" stroke-width="40" stroke-miterlimit="10" d="M381.7,780.6"/>
<path fill="none" stroke="#000000" stroke-width="40" stroke-miterlimit="10" d="M400.1,705c-6.7-9.8-11.2-42.6,14.2-42.6
	c25.4,0,29.9,15.7,29.9,34.4c0,17.2-15,35.1-56.8,32.2c0,0-10.2,58.3,48.1,58.3c44.9,0,59.1-29.9,59.1-29.9"/>
<line fill="none" stroke="#000000" stroke-width="40" stroke-miterlimit="10" x1="494.5" y1="645.2" x2="494.5" y2="804.1"/>
<line fill="none" stroke="#000000" stroke-width="40" stroke-miterlimit="10" x1="86.8" y1="649.4" x2="348.7" y2="649.4"/>
<line fill="none" stroke="#000000" stroke-width="40" stroke-miterlimit="10" x1="459.2" y1="649.4" x2="557.4" y2="649.4"/>
</svg>
