<?xml version="1.0" encoding="UTF-8" standalone="no"?>
<svg width="750px" height="1458px" viewBox="0 0 750 1458" version="1.1" xmlns="http://www.w3.org/2000/svg" xmlns:xlink="http://www.w3.org/1999/xlink" xmlns:sketch="http://www.bohemiancoding.com/sketch/ns">
    <!-- Generator: Sketch 3.0.4 (8054) - http://www.bohemiancoding.com/sketch -->
    <title>Artboard 1</title>
    <desc>Created with Sketch.</desc>
    <defs></defs>
    <g id="Page-1" stroke="none" stroke-width="1" fill="none" fill-rule="evenodd" sketch:type="MSPage">
        <g id="Artboard-1" sketch:type="MSArtboardGroup" fill="#000000">
            <path d="M364.761183,173.476454 C335.428355,173.476454 316.057619,153.808864 316.057619,124.445983 L316.057619,31.0941828 L410.974223,31.0941828 L410.974223,147.99169 C401.288855,165.443213 385.792267,173.476454 364.761183,173.476454 L364.761183,173.476454 Z M248.260045,225 L254.347991,225 L254.347991,31.0941828 L309.969674,31.0941828 L309.969674,123.614958 C309.969674,157.132964 330.724033,179.847645 363.654284,179.847645 C384.131918,179.847645 400.458681,172.645429 410.974223,157.409972 L410.974223,225 L417.062168,225 L417.062168,31.0941828 L557.638362,31.0941828 L557.638362,103.393352 C547.12282,84.833795 528.582259,75.4155125 505.890826,75.4155125 C475.451099,75.4155125 452.482942,94.2520776 452.482942,123.33795 C452.482942,153.254848 474.620925,173.476454 505.060652,173.476454 C528.582259,173.476454 547.399545,162.67313 557.638362,143.282548 L557.638362,225 L563.726308,225 L563.726308,116.412742 C571.197877,93.1440443 588.908264,78.1855956 613.53677,78.1855956 C640.932525,78.1855956 661.963609,94.5290859 661.963609,120.844875 C661.963609,146.883657 643.699773,165.166205 617.687642,165.166205 C604.128127,165.166205 592.782411,162.396122 582.543594,153.808864 L580.329795,158.795014 C591.675512,167.65928 603.297953,170.429363 617.687642,170.429363 C647.02047,170.429363 667.774829,150.207756 667.774829,121.121884 C667.774829,91.4819945 644.253222,72.3684211 613.53677,72.3684211 C590.568613,72.3684211 573.134951,84.2797784 563.726308,103.67036 L563.726308,31.0941828 L695.170584,31.0941828 L695.170584,225 L701.258529,225 L701.258529,31.0941828 L740,31.0941828 L740,25 L138.123578,25 L138.123578,31.0941828 L177.141774,31.0941828 L177.141774,115.027701 C141.167551,132.202216 109.3442,128.3241 68.9423806,121.6759 C96.338135,115.581717 115.432146,97.8531856 115.432146,71.8144044 C115.432146,44.1135734 94.954511,28.601108 66.4518575,28.601108 C47.0811221,28.601108 33.2448825,34.1412742 17.7482942,45.7756233 L21.6224412,50.2077562 C35.7354056,39.6814404 47.9112964,34.1412742 65.6216831,34.1412742 C91.3570887,34.1412742 109.620925,47.7146814 109.3442,72.3684211 C109.067475,101.177285 82.2251706,118.905817 47.3578469,118.905817 L47.3578469,124.722992 C86.929492,124.722992 117.369219,142.451524 117.922669,171.814404 C118.476118,201.177285 95.7846854,219.459834 63.13116,218.351801 C43.206975,218.351801 25.4965883,208.65651 13.3206975,194.529086 L10,198.961219 C23.0060652,215.027701 41.5466262,224.168975 62.5777104,224.168975 C99.1053829,225.554017 124.287339,204.501385 123.733889,170.98338 C123.457165,153.254848 113.218347,139.404432 96.6148597,130.817175 C124.287339,134.141274 149.19257,133.310249 177.141774,121.398892 L177.141774,225 L183.229719,225 L183.229719,31.0941828 L248.260045,31.0941828 L248.260045,225 L248.260045,225 Z M504.783927,167.65928 C477.941622,167.65928 458.294162,149.930748 458.294162,123.33795 C458.294162,97.299169 478.771797,80.9556787 505.890826,80.9556787 C529.689158,80.9556787 547.399545,93.4210526 557.638362,115.027701 L557.638362,131.925208 C549.613343,154.916898 529.965883,167.65928 504.783927,167.65928 L504.783927,167.65928 Z" id="Devanagari" sketch:type="MSShapeGroup"></path>
            <g id="Alice" sketch:type="MSLayerGroup" transform="translate(10.000000, 1191.000000)">
                <path d="M144.333934,172.731589 L166.431231,230.607477 L193.579339,230.607477 L112.135015,21.8747664 L82.1458258,21.8747664 L0.385825826,230.607477 L27.5339339,230.607477 L49.6312312,172.731589 L144.333934,172.731589 Z M135.179339,149.011963 L58.7858258,149.011963 L96.9825826,49.073271 L135.179339,149.011963 Z" id="Path" sketch:type="MSShapeGroup"></path>
                <path d="M257.661502,-0.263551402 L232.407447,-0.263551402 L232.407447,191.391028 C232.407447,220.170841 244.718799,233.770093 270.288529,233.770093 C278.496096,233.770093 287.019339,232.188785 293.648529,229.34243 L297.752312,204.99028 C289.86042,207.836636 284.493934,209.417944 274.707988,209.417944 C261.765285,209.417944 257.661502,204.357757 257.661502,188.228411 L257.661502,-0.263551402 Z" id="Path" sketch:type="MSShapeGroup"></path>
                <path d="M344.156637,4.16411215 C333.739339,4.16411215 325.216096,12.7031776 325.216096,23.1398131 C325.216096,33.5764486 333.739339,42.115514 344.156637,42.115514 C354.573934,42.115514 363.097177,33.5764486 363.097177,23.1398131 C363.097177,12.7031776 354.573934,4.16411215 344.156637,4.16411215 L344.156637,4.16411215 Z" id="Path" sketch:type="MSShapeGroup"></path>
                <path d="M356.783664,230.607477 L356.783664,72.4766355 L331.52961,72.4766355 L331.52961,230.607477 L356.783664,230.607477 Z" id="Path" sketch:type="MSShapeGroup"></path>
                <path d="M482.422583,69.3140187 C434.755556,69.3140187 406.029069,100.307664 406.029069,151.542056 C406.029069,202.776449 434.755556,233.770093 482.422583,233.770093 C515.884204,233.770093 538.612853,216.059439 548.714474,186.963364 L525.985826,179.056822 C519.672312,199.930093 504.835556,211.631776 481.791231,211.631776 C450.223664,211.631776 431.283123,189.177196 431.283123,151.542056 C431.283123,113.906916 450.223664,91.4523364 481.791231,91.4523364 C502.31015,91.4523364 516.515556,102.837757 523.144745,122.762243 L547.136096,111.376822 C536.087447,85.4433645 514.937177,69.3140187 482.422583,69.3140187 L482.422583,69.3140187 Z" id="Path" sketch:type="MSShapeGroup"></path>
                <path d="M729.912312,161.029907 L729.912312,149.960748 C729.912312,100.307664 704.658258,69.3140187 658.885285,69.3140187 C611.218258,69.3140187 584.385826,100.307664 584.385826,151.542056 C584.385826,202.776449 613.112312,233.770093 660.779339,233.770093 C694.872312,233.770093 714.444204,220.803364 726.43988,199.29757 L705.28961,188.228411 C699.607447,203.408972 683.823664,211.631776 660.779339,211.631776 C631.737177,211.631776 612.480961,192.972336 609.324204,161.029907 L729.912312,161.029907 Z M609.63988,138.575327 C613.427988,108.846729 630.79015,91.4523364 658.885285,91.4523364 C685.402042,91.4523364 702.764204,109.479252 705.605285,138.575327 L609.63988,138.575327 Z" id="Path" sketch:type="MSShapeGroup"></path>
            </g>
            <path d="M438.350442,397.602732 C444.540974,401.185171 450.017214,409.783024 452.874383,413.843122 L458.350623,410.618927 C456.564892,406.32 450.612458,397.602732 445.493364,392.467902 L438.350442,397.602732 Z M100.014043,414.917854 C97.9902152,408.350049 90.8472933,399.513366 84.0615176,394.856195 L77.2757418,399.752195 C84.7758097,403.931707 91.9187316,412.887805 93.9425595,419.097366 L100.014043,414.917854 Z M404.064417,409.066537 L404.064417,401.065756 L334.420929,401.065756 L334.420929,409.066537 L404.064417,409.066537 Z M659.661971,425.545756 L659.661971,411.216 L730.376897,411.216 L730.376897,425.545756 L738.591257,425.545756 L738.591257,403.692878 L702.043307,403.692878 C701.090917,399.393951 697.757554,393.542634 692.162265,389.601951 L683.590759,393.781463 C687.995561,395.811512 693.709898,400.349268 693.947995,403.692878 L651.923805,403.692878 L651.923805,425.545756 L659.661971,425.545756 Z M437.874247,418.142049 L437.874247,490.387902 L445.969558,490.387902 L445.969558,418.142049 L437.874247,418.142049 Z M461.207792,420.888585 L461.207792,472.714537 L498.946229,472.714537 L498.946229,420.888585 L461.207792,420.888585 Z M468.350713,442.980293 L468.350713,427.575805 L491.446161,427.575805 L491.446161,442.980293 L468.350713,442.980293 Z M91.9187316,482.267707 C87.8710759,482.267707 84.4186636,477.252293 81.4424462,469.251512 C90.7282446,461.370146 97.8711665,451.578146 99.8949943,442.860878 L91.7996829,440.353171 C90.3710985,447.876293 85.7281993,455.28 78.9424236,461.489561 C76.6804983,453.011122 75.0138165,442.741463 73.9423783,432.232976 L104.537894,432.232976 L104.537894,424.590439 L73.2280861,424.590439 C72.3947452,413.484878 72.2756965,402.379317 72.9899887,393.303805 L64.8946772,393.303805 C64.2994337,402.856976 64.4184824,413.723707 65.1327746,424.590439 L43.1087656,424.590439 L43.1087656,405.364683 C47.9897622,403.931707 52.8707588,402.379317 57.9898528,400.588098 L55.2517327,393.42322 C45.2516421,397.602732 28.7038732,402.379317 13.5846886,403.334634 L15.4894677,410.260683 C22.0371461,410.021854 28.5848245,408.947122 35.2515515,407.394732 L35.2515515,424.590439 L12.0370555,424.590439 L12.0370555,432.232976 L35.2515515,432.232976 L35.2515515,453.369366 C27.5133862,456.235317 19.299026,458.38478 10.251325,459.937171 L13.2275425,467.340878 C20.9657078,465.907902 28.3467271,463.997268 35.2515515,461.72839 L35.2515515,478.446439 C35.2515515,483.461854 27.2752888,484.894829 19.7752208,480.476488 L16.7990034,486.924878 C28.4657758,494.806244 43.1087656,490.149073 43.1087656,478.685268 L43.1087656,458.862439 C48.9421518,456.593561 54.5374405,453.966439 60.0136806,450.981073 L55.4898301,443.93561 C51.4421744,446.323902 47.27547,448.353951 43.1087656,450.264585 L43.1087656,432.232976 L65.8470668,432.232976 C67.1566025,444.652098 69.299479,456.712976 72.5137939,466.62439 C66.0851642,471.042732 58.4660476,474.386341 50.2516874,476.177561 L54.1802945,483.461854 C61.2041676,482.148293 68.5851869,478.685268 75.2519139,474.028098 C79.6567157,484.058927 85.3710532,490.626732 92.5139751,490.626732 C99.0616535,490.626732 105.728381,484.894829 105.728381,466.504976 L98.5854587,465.430244 C98.5854587,478.565854 96.3235334,482.267707 91.9187316,482.267707 Z M323.111302,432.35239 L323.111302,440.353171 L359.659253,440.353171 C355.849694,451.93639 345.135311,464.355512 329.420883,478.446439 L332.873296,485.850146 L402.397735,479.998829 C404.65966,483.700683 406.564439,487.521951 408.112072,491.223805 L414.421653,487.880195 C409.064462,473.908683 397.278641,457.787707 386.326161,449.428683 L380.01658,455.28 C386.44521,459.578927 392.635742,465.907902 397.754836,473.07278 L340.254315,477.729951 C351.325844,469.609756 364.064054,452.533463 369.897441,440.353171 L415.135946,440.353171 L415.135946,432.35239 L323.111302,432.35239 Z M468.350713,466.146732 L468.350713,449.548098 L491.446161,449.548098 L491.446161,466.146732 L468.350713,466.146732 Z M129.895266,399.991024 L129.895266,440.950244 C129.895266,464.355512 129.061925,479.401756 115.371325,484.417171 L119.776127,491.10439 C132.514337,485.850146 136.800091,474.983415 137.633431,457.668293 L162.633658,457.668293 L162.633658,484.536585 L170.609921,484.536585 L170.609921,457.668293 L197.514926,457.668293 L197.514926,478.685268 C197.514926,484.417171 189.89581,484.775415 181.205255,482.148293 L179.419524,489.432585 C193.824417,493.373268 205.37214,490.387902 205.37214,479.521171 L205.37214,399.991024 L129.895266,399.991024 Z M197.514926,407.633561 L197.514926,424.829268 L170.609921,424.829268 L170.609921,407.633561 L197.514926,407.633561 Z M137.75248,407.633561 L162.633658,407.633561 L162.633658,424.829268 L137.75248,424.829268 L137.75248,407.633561 Z M197.514926,450.025756 L170.609921,450.025756 L170.609921,432.232976 L197.514926,432.232976 L197.514926,450.025756 Z M162.633658,450.025756 L137.75248,450.025756 L137.75248,432.232976 L162.633658,432.232976 L162.633658,450.025756 Z M637.399864,419.097366 L637.399864,411.216 L595.73282,411.216 C594.066138,405.722927 590.137531,397.722146 585.613681,391.870829 L575.137395,394.617366 C579.661246,398.796878 584.899388,405.722927 587.399411,411.216 L543.946636,411.216 L543.946636,419.097366 L559.899162,419.097366 C562.756331,434.979512 571.92308,450.264585 584.899388,462.683707 C572.994519,471.998049 558.351529,479.162927 542.756149,482.625951 L547.041903,490.507317 C563.70872,486.327805 578.827905,478.327024 591.208969,468.296195 C603.709083,478.565854 618.828267,486.20839 634.780793,489.910244 L639.661789,482.148293 C624.661653,479.282341 609.899615,472.117463 597.756648,462.444878 C610.613907,449.906341 619.304462,434.740683 621.447339,419.097366 L637.399864,419.097366 Z M612.637735,419.097366 C610.852005,432.830049 602.99479,446.085073 591.447067,457.07122 C579.661246,446.085073 571.208788,432.710634 568.589717,419.097366 L612.637735,419.097366 Z M739.662695,458.62361 L739.662695,451.100488 L700.733771,451.100488 L700.733771,448.83161 C709.186229,444.652098 717.162492,435.934829 721.924439,428.650537 L721.924439,422.440976 L668.114428,422.440976 L668.114428,429.964098 L703.948086,429.964098 L711.924349,429.367024 C708.11479,435.098927 701.924258,441.189073 695.733726,444.293854 L692.519411,444.293854 L692.519411,451.100488 L650.61427,451.100488 L650.61427,458.62361 L692.519411,458.62361 L692.519411,479.282341 C692.519411,483.700683 684.186002,483.581268 675.852593,480.237659 L673.828766,487.99961 C688.709853,493.850927 700.733771,490.149073 700.733771,480.595902 L700.733771,458.62361 L739.662695,458.62361 Z M465.731642,398.558049 L465.731642,405.961756 L514.422559,405.961756 L514.422559,481.31239 C514.422559,484.417171 507.99393,485.372488 503.112933,482.148293 L501.089105,489.313171 C510.613001,494.328585 522.517871,490.865561 522.517871,481.073561 L522.517871,398.558049 L465.731642,398.558049 Z M270.610827,391.870829 C267.515561,398.08039 265.610781,402.737561 257.396421,409.544195 L231.324757,409.544195 L231.324757,490.865561 L239.181971,490.865561 L239.181971,485.253073 L296.444394,485.253073 L296.444394,490.387902 L304.658754,490.387902 L304.658754,409.544195 L266.563171,409.544195 C272.396557,405.006439 275.372775,402.856976 279.539479,396.169756 L270.610827,391.870829 Z M239.181971,417.544976 L296.444394,417.544976 L296.444394,443.816195 L239.181971,443.816195 L239.181971,417.544976 Z M296.444394,451.697561 L296.444394,477.252293 L239.181971,477.252293 L239.181971,451.697561 L296.444394,451.697561 Z" id="Chinese" sketch:type="MSShapeGroup"></path>
            <g id="Breite" sketch:type="MSLayerGroup" transform="translate(10.000000, 516.000000)">
                <path d="M-0.168299712,208.89 L67.6901441,208.89 C117.978098,208.89 145.545591,187.6212 145.545591,146.29896 C145.545591,118.04184 132.519193,98.59608 112.525187,88.26552 C121.310432,79.15032 126.157464,67.30056 126.157464,53.9316 C126.157464,23.24376 102.831124,0.7596 72.8401153,0.7596 L-0.168299712,0.7596 L-0.168299712,208.89 Z M76.1724496,30.83976 C87.9870893,30.83976 96.1664553,41.47416 96.1664553,55.4508 C96.1664553,69.42744 85.260634,79.45416 71.9312968,79.45416 L30.7315274,79.45416 L30.7315274,30.83976 L76.1724496,30.83976 Z M73.1430548,109.83816 C96.4693948,109.83816 112.828127,121.38408 112.828127,146.29896 C112.828127,168.78312 93.44,178.80984 69.8107205,178.80984 L30.7315274,178.80984 L30.7315274,109.83816 L73.1430548,109.83816 Z" id="Path" sketch:type="MSShapeGroup"></path>
                <path d="M203.709971,208.89 L203.709971,113.48424 C203.709971,96.77304 219.765764,85.22712 236.730375,85.22712 C243.395043,85.22712 250.059712,87.05016 255.815562,91.00008 L265.206686,65.78136 C257.633199,58.18536 248.242075,54.53928 239.15389,54.53928 C225.824553,54.53928 212.798156,61.83144 203.709971,74.28888 L203.709971,56.97 L172.810144,56.97 L172.810144,208.89 L203.709971,208.89 Z" id="Path" sketch:type="MSShapeGroup"></path>
                <path d="M341.850375,211.9284 C368.509049,211.9284 396.076542,197.04024 404.861787,170.91 L379.41487,159.66792 C373.356081,173.9484 359.723804,184.5828 343.365072,184.88664 C317.009337,184.88664 302.771182,166.3524 300.347666,141.43752 L407.588242,141.43752 C407.588242,82.49256 385.47366,53.9316 338.51804,53.9316 C300.347666,53.9316 271.265476,81.58104 271.265476,133.53768 C271.265476,184.5828 299.438847,211.9284 341.850375,211.9284 Z M338.51804,80.66952 C361.84438,80.66952 372.144323,95.25384 376.082536,116.52264 L301.256484,116.52264 C305.194697,94.03848 317.615216,80.66952 338.51804,80.66952 Z" id="Path" sketch:type="MSShapeGroup"></path>
                <path d="M466.661441,35.7012 L466.661441,0.7596 L435.761614,0.7596 L435.761614,35.7012 L466.661441,35.7012 Z" id="Path" sketch:type="MSShapeGroup"></path>
                <path d="M466.661441,208.89 L466.661441,56.97 L435.761614,56.97 L435.761614,208.89 L466.661441,208.89 Z" id="Path" sketch:type="MSShapeGroup"></path>
                <path d="M574.810836,207.06696 L573.296138,180.93672 C556.937406,186.70968 544.213948,181.84824 544.213948,170.91 L544.213948,81.88488 L573.902017,81.88488 L573.902017,56.97 L544.213948,56.97 L544.213948,22.93992 L513.314121,22.93992 L513.314121,56.97 L487.867205,56.97 L487.867205,81.88488 L513.314121,81.88488 L513.314121,180.32904 C513.314121,202.8132 534.822824,218.30904 574.810836,207.06696 L574.810836,207.06696 Z" id="Path" sketch:type="MSShapeGroup"></path>
                <path d="M663.572104,211.9284 C690.230778,211.9284 717.798271,197.04024 726.583516,170.91 L701.136599,159.66792 C695.07781,173.9484 681.445533,184.5828 665.086801,184.88664 C638.731066,184.88664 624.492911,166.3524 622.069395,141.43752 L729.309971,141.43752 C729.309971,82.49256 707.195389,53.9316 660.239769,53.9316 C622.069395,53.9316 592.987205,81.58104 592.987205,133.53768 C592.987205,184.5828 621.160576,211.9284 663.572104,211.9284 Z M660.239769,80.66952 C683.56611,80.66952 693.866052,95.25384 697.804265,116.52264 L622.978213,116.52264 C626.916427,94.03848 639.336945,80.66952 660.239769,80.66952 Z" id="Path" sketch:type="MSShapeGroup"></path>
            </g>
            <path d="M115.165261,353.447846 L115.165261,259.862576 L130.474128,254.180613 L130.474128,249 L82.8835195,249 L82.8835195,254.180613 L98.1923866,259.862576 L98.1923866,297.798033 L42.2817415,297.798033 L42.2817415,259.862576 L57.5906086,254.180613 L57.5906086,249 L10,249 L10,254.180613 L25.3088671,259.862576 L25.3088671,353.447846 L10,359.129808 L10,364.310422 L57.5906086,364.310422 L57.5906086,359.129808 L42.2817415,353.447846 L42.2817415,308.827726 L98.1923866,308.827726 L98.1923866,353.447846 L82.8835195,359.129808 L82.8835195,364.310422 L130.474128,364.310422 L130.474128,359.129808 L115.165261,353.447846 Z M210.67928,351.442447 L206.352861,346.094717 C202.192842,350.105515 195.370413,354.617661 183.223159,354.617661 C168.247094,354.617661 156.266241,343.420852 155.267837,324.703798 L209.181673,322.19705 C209.181673,292.61742 198.532026,279.248096 178.73034,279.08098 C154.935035,279.248096 138.627764,300.137665 138.627764,325.038032 C138.627764,351.108214 153.603829,366.482937 176.234329,365.981587 C195.204012,366.482937 205.520857,356.62306 210.67928,351.442447 Z M174.903123,289.943555 C184.554365,289.943555 191.043994,298.967849 192.708001,314.676805 L155.267837,316.515087 C156.765443,300.639015 164.253476,289.943555 174.903123,289.943555 Z M251.114657,353.447846 L251.114657,301.307481 C256.106679,296.628218 261.930704,294.622819 269.917939,294.622819 C278.071575,294.622819 282.564395,296.628218 288.22202,300.304782 L292.88124,287.436807 C288.38842,282.423311 281.066788,279.415213 274.077958,279.08098 C264.260315,279.248096 256.605881,283.92736 251.114657,292.784537 L251.114657,279.08098 L218.832915,280.752145 L218.832915,285.932758 L234.141783,291.614721 L234.141783,353.447846 L218.832915,359.129808 L218.832915,364.310422 L266.423524,364.310422 L266.423524,359.129808 L251.114657,353.447846 Z M439.313882,353.447846 L439.313882,311.334474 C439.313882,289.943555 431.99225,279.08098 413.355368,279.08098 C401.208115,279.08098 388.395259,285.097175 381.572829,291.948954 C377.745612,283.42601 370.42398,279.08098 358.775929,279.08098 C347.959881,279.08098 336.478231,283.92736 329.323,289.776439 L329.323,279.08098 L297.041258,280.752145 L297.041258,285.932758 L312.350125,291.614721 L312.350125,353.447846 L297.041258,359.129808 L297.041258,364.310422 L344.631867,364.310422 L344.631867,359.129808 L329.323,353.447846 L329.323,298.299383 C335.147025,294.622819 343.633463,291.781838 350.955095,291.781838 C362.935947,291.781838 367.761568,297.96515 367.761568,313.00564 L367.761568,353.447846 L352.452701,359.129808 L352.452701,364.310422 L400.04331,364.310422 L400.04331,359.129808 L384.734443,353.447846 L384.734443,311.334474 C384.734443,306.488094 384.401641,302.31018 383.569638,298.633616 C389.393663,294.789936 398.046501,291.781838 405.534534,291.781838 C417.515386,291.781838 422.341008,297.96515 422.341008,313.00564 L422.341008,353.447846 L407.03214,359.129808 L407.03214,364.310422 L454.622749,364.310422 L454.622749,359.129808 L439.313882,353.447846 Z M500.216549,365.981587 C526.008662,365.981587 546.14315,347.43165 546.14315,320.358768 C546.14315,296.126868 529.170276,279.08098 506.706177,279.08098 C481.413266,279.08098 461.278778,297.630917 461.278778,324.536682 C461.278778,348.601466 478.085252,365.981587 500.216549,365.981587 Z M527.506269,321.695701 C527.506269,339.744288 519.685434,356.12171 504.043766,356.12171 C489.400501,356.12171 479.91566,341.415454 479.91566,323.19975 C479.91566,304.984045 488.069296,288.77374 504.542968,288.77374 C518.354228,288.77374 527.506269,303.31288 527.506269,321.695701 Z M642.156371,353.447846 L642.156371,311.334474 C642.156371,289.943555 634.834739,279.08098 616.197857,279.08098 C605.38181,279.08098 593.90016,283.92736 586.744928,289.776439 L586.744928,279.08098 L554.463187,280.752145 L554.463187,285.932758 L569.772054,291.614721 L569.772054,353.447846 L554.463187,359.129808 L554.463187,364.310422 L602.053795,364.310422 L602.053795,359.129808 L586.744928,353.447846 L586.744928,298.299383 C592.568954,294.622819 601.055391,291.781838 608.377023,291.781838 C620.357876,291.781838 625.183497,297.96515 625.183497,313.00564 L625.183497,353.447846 L609.87463,359.129808 L609.87463,364.310422 L657.465238,364.310422 L657.465238,359.129808 L642.156371,353.447846 Z M736.006382,351.442447 L731.679964,346.094717 C727.519945,350.105515 720.697515,354.617661 708.550262,354.617661 C693.574196,354.617661 681.593344,343.420852 680.59494,324.703798 L734.508776,322.19705 C734.508776,292.61742 723.859129,279.248096 704.057442,279.08098 C680.262138,279.248096 663.954867,300.137665 663.954867,325.038032 C663.954867,351.108214 678.930932,366.482937 701.561432,365.981587 C720.531115,366.482937 730.84796,356.62306 736.006382,351.442447 Z M700.230226,289.943555 C709.881468,289.943555 716.371096,298.967849 718.035104,314.676805 L680.59494,316.515087 C682.092546,300.639015 689.580579,289.943555 700.230226,289.943555 Z" id="Hermone" sketch:type="MSShapeGroup"></path>
            <path d="M123.846178,1167.65861 L123.846178,1028 L31.7139768,1028 L31.7139768,1101.80499 C31.7139768,1134.01822 22.9877992,1145.23168 10,1145.23168 L10,1167.45473 C36.3814672,1167.45473 52.4132819,1145.84333 52.4132819,1108.53307 L52.4132819,1048.18424 L103.146873,1048.18424 L103.146873,1167.65861 L123.846178,1167.65861 Z M237.489421,1168.67802 L240.127568,1150.12483 C226.7339,1152.36752 228.357375,1146.45497 228.15444,1139.52301 L229.169112,1102.41663 C230.386718,1073.87327 209.484479,1064.69861 187.161699,1064.69861 C168.288803,1064.69861 152.662857,1070.20341 140.892664,1088.55271 L157.533282,1096.91184 C164.635985,1086.5139 174.1739,1082.43628 185.944093,1082.43628 C197.91722,1082.43628 208.875676,1086.92166 208.469807,1101.60111 L208.266873,1104.86321 C173.970965,1103.8438 140.080927,1114.6495 140.080927,1139.72689 C140.080927,1162.15382 156.721544,1170.30907 174.985637,1170.30907 C190.408649,1170.30907 200.758301,1163.78487 208.266873,1154.61022 C211.513822,1168.06638 221.051737,1170.92071 237.489421,1168.67802 Z M176.609112,1153.18305 C165.244788,1153.18305 159.76556,1147.06661 159.76556,1139.31913 C159.76556,1123.00863 188.176371,1120.56206 207.658069,1121.1737 L207.252201,1134.2221 C199.946564,1144.62004 187.567568,1153.18305 176.609112,1153.18305 Z M336.318456,1094.26139 C330.636293,1074.48491 313.995676,1063.67921 292.890502,1063.67921 C267.726641,1063.67921 244.795058,1083.2518 244.795058,1117.70772 C244.795058,1155.22186 268.13251,1169.69743 293.905174,1169.69743 C312.169266,1169.69743 329.012819,1159.91113 336.724324,1140.7463 L319.069035,1133.20269 C314.807413,1143.19287 305.675367,1151.95976 294.311042,1151.95976 C272.8,1151.95976 265.088494,1135.2415 265.088494,1117.09608 C265.088494,1098.33901 275.844015,1081.21299 292.890502,1081.21299 C305.066564,1081.21299 314.401544,1089.16436 317.851429,1102.00887 L336.318456,1094.26139 Z M372.643707,1167.65861 L372.643707,1138.5036 L386.646178,1122.60087 L417.086332,1167.65861 L440.829653,1167.65861 L400.039846,1107.30978 L436.568031,1065.71802 L412.215907,1065.71802 L372.643707,1110.57188 L372.643707,1065.71802 L351.944402,1065.71802 L351.944402,1167.65861 L372.643707,1167.65861 Z M541.282162,1168.67802 L543.920309,1150.12483 C530.526641,1152.36752 532.150116,1146.45497 531.947181,1139.52301 L532.961853,1102.41663 C534.179459,1073.87327 513.27722,1064.69861 490.95444,1064.69861 C472.081544,1064.69861 456.455598,1070.20341 444.685405,1088.55271 L461.326023,1096.91184 C468.428726,1086.5139 477.966641,1082.43628 489.736834,1082.43628 C501.709961,1082.43628 512.668417,1086.92166 512.262548,1101.60111 L512.059614,1104.86321 C477.763707,1103.8438 443.873668,1114.6495 443.873668,1139.72689 C443.873668,1162.15382 460.514286,1170.30907 478.778378,1170.30907 C494.20139,1170.30907 504.551042,1163.78487 512.059614,1154.61022 C515.306564,1168.06638 524.844479,1170.92071 541.282162,1168.67802 Z M480.401853,1153.18305 C469.037529,1153.18305 463.558301,1147.06661 463.558301,1139.31913 C463.558301,1123.00863 491.969112,1120.56206 511.450811,1121.1737 L511.044942,1134.2221 C503.739305,1144.62004 491.360309,1153.18305 480.401853,1153.18305 Z M554.67583,1167.65861 L588.768803,1167.65861 C609.873977,1167.65861 625.905792,1155.8335 625.905792,1136.05703 C625.905792,1125.25133 619.817761,1115.66891 610.279846,1109.75636 C615.15027,1105.06709 618.194286,1098.95065 618.194286,1092.42646 C618.194286,1077.74701 606.018224,1065.71802 590.798147,1065.71802 L554.67583,1065.71802 L554.67583,1167.65861 Z M587.754131,1082.02851 C593.842162,1082.02851 598.712587,1087.12554 598.712587,1093.24198 C598.712587,1098.95065 593.842162,1103.43604 587.754131,1103.43604 L572.939923,1103.43604 L572.939923,1082.02851 L587.754131,1082.02851 Z M587.348263,1119.13489 C597.292046,1119.13489 605.409421,1126.6785 605.409421,1136.05703 C605.409421,1145.43556 596.277375,1150.73648 586.333591,1150.73648 L572.939923,1150.73648 L572.939923,1119.13489 L587.348263,1119.13489 Z M739.751969,1116.8922 C739.751969,1084.06733 717.02332,1063.67921 690.235985,1063.67921 C663.448649,1063.67921 640.72,1084.06733 640.72,1116.8922 C640.72,1149.71707 662.433977,1169.69743 690.235985,1169.69743 C718.037992,1169.69743 739.751969,1149.71707 739.751969,1116.8922 Z M661.013436,1116.8922 C661.013436,1095.89244 671.971892,1083.04792 690.235985,1083.04792 C708.500077,1083.04792 719.458533,1095.89244 719.458533,1116.8922 C719.458533,1137.4842 708.500077,1150.32871 690.235985,1150.32871 C671.971892,1150.32871 661.013436,1137.4842 661.013436,1116.8922 Z" id="Russian" sketch:type="MSShapeGroup"></path>
            <g id="Sean" sketch:type="MSLayerGroup" transform="translate(10.000000, 747.000000)">
                <path d="M-2.3083103,237.479566 C20.1975971,250.993711 38.5485677,257.577525 64.8631671,257.577525 C109.528737,257.577525 143.460721,237.479566 143.460721,195.897584 C143.460721,156.3947 112.298695,139.761907 75.5967537,122.089564 C43.0497492,106.496321 13.965192,94.0217257 13.965192,59.0235568 C13.965192,26.7975202 37.1635888,7.73911136 70.7493275,7.73911136 C95.678948,7.73911136 112.991184,13.9764088 134.458358,26.4510036 L137.920805,20.9067393 C115.414898,7.73911136 97.4101717,0.462264372 71.0955723,0.462264372 C33.0086521,0.462264372 6.34780793,21.9462888 6.34780793,59.0235568 C6.34780793,94.7147588 34.393631,109.961486 67.633125,126.247762 C103.642577,143.227072 135.843337,157.087733 135.843337,195.551067 C135.843337,232.281819 105.720045,250.300678 65.9019013,250.300678 C40.6260361,250.300678 22.9675549,243.716864 1.84662645,230.202719 L-2.3083103,237.479566 Z" id="Path" sketch:type="MSShapeGroup"></path>
                <path d="M338.050436,231.935302 L333.20301,226.737554 C317.968242,241.984281 302.387229,249.607645 280.920056,249.607645 C233.138283,249.607645 208.208663,210.451278 206.131194,159.166832 L338.742925,159.166832 L338.742925,150.503919 C338.742925,102.338122 315.890773,65.6073708 271.571448,65.6073708 C223.443431,65.6073708 198.51381,105.110254 198.51381,156.741216 C198.51381,213.569926 226.213389,257.577525 279.188832,257.577525 C303.425963,257.577525 321.084444,249.261128 338.050436,231.935302 Z M270.186469,73.2307343 C310.350858,73.2307343 331.471786,105.456771 331.471786,148.42482 L331.471786,152.583018 L206.477439,152.583018 C208.554907,107.882387 228.637102,73.2307343 270.186469,73.2307343 Z" id="Path" sketch:type="MSShapeGroup"></path>
                <path d="M519.482866,254.11236 L527.10025,254.11236 L527.10025,133.871126 C527.10025,92.2891431 499.054427,65.6073708 457.158814,65.6073708 C432.921683,65.6073708 415.263202,73.5772508 397.950966,90.210044 L402.798392,95.7543083 C418.725649,80.8540978 434.306662,72.8842178 456.12008,72.8842178 C494.207,72.8842178 519.482866,97.8334075 519.482866,135.950225 L519.482866,145.306171 C497.669448,145.999204 481.395945,145.999204 459.582527,148.078303 C419.764384,151.196952 388.256113,167.483229 388.256113,204.21398 C388.256113,237.479566 412.493244,257.577525 446.771472,257.577525 C479.318477,257.577525 499.746916,239.558666 519.482866,213.916443 L519.482866,254.11236 Z M448.156451,250.647194 C417.686915,250.647194 395.873497,232.974852 395.873497,203.520947 C395.873497,171.29491 423.91932,157.780766 458.890038,154.315601 C481.049701,152.236502 497.669448,152.236502 519.482866,151.543469 L519.482866,204.560497 C499.054427,229.856203 480.703456,250.647194 448.156451,250.647194 Z" id="Path" sketch:type="MSShapeGroup"></path>
                <path d="M667.675785,73.9237673 C704.377727,73.9237673 721.689963,97.8334075 721.689963,136.643258 L721.689963,254.11236 L729.307347,254.11236 L729.307347,134.910675 C729.307347,92.2891431 709.917642,65.9538873 669.060764,65.9538873 C637.552494,65.9538873 614.700342,80.5075813 600.504308,100.952056 L600.504308,69.4190525 L592.886924,69.4190525 L592.886924,254.11236 L600.504308,254.11236 L600.504308,113.080134 C614.007852,91.9426266 635.82127,73.9237673 667.675785,73.9237673 L667.675785,73.9237673 Z" id="Path" sketch:type="MSShapeGroup"></path>
            </g>
        </g>
    </g>
</svg>