<?xml version="1.0" encoding="UTF-8" standalone="no"?>
<svg width="750px" height="760px" viewBox="0 0 750 760" version="1.1" xmlns="http://www.w3.org/2000/svg" xmlns:xlink="http://www.w3.org/1999/xlink" xmlns:sketch="http://www.bohemiancoding.com/sketch/ns">
    <!-- Generator: Sketch 3.0.4 (8054) - http://www.bohemiancoding.com/sketch -->
    <title>Font</title>
    <desc>Created with Sketch.</desc>
    <defs></defs>
    <g id="Page-1" stroke="none" stroke-width="1" fill="none" fill-rule="evenodd" sketch:type="MSPage">
        <g id="Font" sketch:type="MSArtboardGroup" fill="#3C3C3C">
            <path d="M10,216.125121 L77.8593622,216.125121 C128.147997,216.125121 155.715863,195.06124 155.715863,154.137128 C155.715863,126.152258 142.689289,106.893852 122.695012,96.6628246 C131.480376,87.635447 136.327473,75.8998562 136.327473,62.6597024 C136.327473,32.2675313 113.000818,10 83.0094031,10 L10,10 L10,216.125121 Z M86.3417825,39.790346 C98.1565822,39.790346 106.336059,50.3222864 106.336059,64.1642654 C106.336059,78.0062443 95.4300899,87.9363596 82.1005724,87.9363596 L40.9002453,87.9363596 L40.9002453,39.790346 L86.3417825,39.790346 Z M83.3123467,118.027618 C106.639002,118.027618 122.997956,129.462296 122.997956,154.137128 C122.997956,176.40466 103.609567,186.334775 79.9799673,186.334775 L40.9002453,186.334775 L40.9002453,118.027618 L83.3123467,118.027618 Z M213.88103,216.125121 L213.88103,121.638569 C213.88103,105.088377 229.93704,93.6536987 246.901881,93.6536987 C253.566639,93.6536987 260.231398,95.4591742 265.987326,99.3710379 L275.378577,74.3952933 C267.804988,66.8724786 258.413737,63.2615276 249.325429,63.2615276 C235.995912,63.2615276 222.969338,70.4834297 213.88103,82.8208457 L213.88103,65.6688283 L182.980785,65.6688283 L182.980785,216.125121 L213.88103,216.125121 Z M352.023303,219.134247 C378.682339,219.134247 406.250204,204.38953 415.035568,178.511048 L389.588307,167.377282 C383.529436,181.520174 369.896975,192.052114 353.538021,192.353027 C327.18193,192.353027 312.943581,173.997359 310.520033,149.322527 L417.762061,149.322527 C417.762061,82.8208457 389.285364,62.6597024 348.690924,62.6597024 C310.520033,62.6597024 281.437449,90.0427477 281.437449,141.4988 C281.437449,196.26489 313.852412,219.134247 352.023303,219.134247 Z M348.690924,89.14001 C372.01758,89.14001 382.317661,103.583814 386.255928,124.647695 L311.428863,124.647695 C315.36713,102.380164 327.787817,89.14001 348.690924,89.14001 Z M476.836059,44.6049473 L476.836059,10 L445.935814,10 L445.935814,44.6049473 L476.836059,44.6049473 Z M476.836059,216.125121 L476.836059,65.6688283 L445.935814,65.6688283 L445.935814,216.125121 L476.836059,216.125121 Z M584.986917,214.319645 L583.4722,188.441163 C567.113246,194.158502 554.389616,189.343901 554.389616,178.511048 L554.389616,90.3436603 L584.078087,90.3436603 L584.078087,65.6688283 L554.389616,65.6688283 L554.389616,31.9666187 L523.48937,31.9666187 L523.48937,65.6688283 L498.04211,65.6688283 L498.04211,90.3436603 L523.48937,90.3436603 L523.48937,187.839338 C523.48937,210.106869 544.998365,225.453411 584.986917,214.319645 Z M673.749387,219.134247 C700.408422,219.134247 727.976288,204.38953 736.761652,178.511048 L711.314391,167.377282 C705.255519,181.520174 691.623058,192.052114 675.264105,192.353027 C648.908013,192.353027 634.669665,173.997359 632.246116,149.322527 L739.488144,149.322527 C739.488144,82.8208457 711.011447,62.6597024 670.417007,62.6597024 C632.246116,62.6597024 603.163532,90.0427477 603.163532,141.4988 C603.163532,196.26489 635.578496,219.134247 673.749387,219.134247 Z M670.417007,89.14001 C693.743663,89.14001 704.043745,103.583814 707.982011,124.647695 L633.154947,124.647695 C637.093213,102.380164 649.5139,89.14001 670.417007,89.14001 Z" id="Breite" sketch:type="MSShapeGroup"></path>
            <path d="M7.01468737,472.144022 C29.5503035,485.665392 47.9254982,492.252726 74.274834,492.252726 C118.999364,492.252726 152.97614,472.144022 152.97614,430.539808 C152.97614,391.015804 121.772979,374.374118 85.0225894,356.692327 C52.4326214,341.090747 23.3096713,328.609482 23.3096713,293.592602 C23.3096713,261.349336 46.5386911,242.280738 80.1687644,242.280738 C105.131293,242.280738 122.466382,248.52137 143.961893,261.002634 L147.428911,255.455405 C124.893295,242.280738 106.864802,235 80.5154662,235 C42.3782696,235 15.682232,256.495511 15.682232,293.592602 C15.682232,329.302886 43.7650768,344.557765 77.0484483,360.852749 C113.105434,377.841136 145.3487,391.709208 145.3487,430.193106 C145.3487,466.943495 115.185645,484.971988 75.3149394,484.971988 C50.0057089,484.971988 32.3239178,478.384654 11.1751088,464.863285 L7.01468737,472.144022 Z M347.822722,466.596794 L342.968897,461.396267 C327.714018,476.651145 312.112438,484.278585 290.616927,484.278585 C242.77208,484.278585 217.809552,445.101283 215.729341,393.789418 L348.516125,393.789418 L348.516125,385.121874 C348.516125,336.930325 325.633807,300.179936 281.255979,300.179936 C233.06443,300.179936 208.101902,339.70394 208.101902,391.362506 C208.101902,448.221599 235.838045,492.252726 288.883418,492.252726 C313.152543,492.252726 330.834334,483.931883 347.822722,466.596794 Z M279.869171,307.807375 C320.086579,307.807375 341.235388,340.050641 341.235388,383.041663 L341.235388,387.202084 L216.076043,387.202084 C218.156253,342.477554 238.264957,307.807375 279.869171,307.807375 Z M529.49465,488.785708 L537.122089,488.785708 L537.122089,368.480188 C537.122089,326.875973 509.039244,300.179936 467.088328,300.179936 C442.819203,300.179936 425.137412,308.154077 407.802323,324.795763 L412.656148,330.342991 C428.60443,315.434815 444.20601,307.460673 466.048223,307.460673 C504.185419,307.460673 529.49465,332.423202 529.49465,370.560399 L529.49465,379.921347 C507.652437,380.61475 491.357453,380.61475 469.515241,382.694961 C429.644535,385.815277 398.094673,402.110261 398.094673,438.860651 C398.094673,472.144022 422.363798,492.252726 456.687274,492.252726 C489.277242,492.252726 509.732648,474.224233 529.49465,448.568301 L529.49465,488.785708 Z M458.074082,485.31869 C427.564324,485.31869 405.722112,467.636899 405.722112,438.167247 C405.722112,405.923981 433.804957,392.402611 468.821837,388.935593 C491.010751,386.855383 507.652437,386.855383 529.49465,386.161979 L529.49465,439.207352 C509.039244,464.516583 490.66405,485.31869 458.074082,485.31869 Z M677.88319,308.500779 C714.63358,308.500779 731.968669,332.423202 731.968669,371.253802 L731.968669,488.785708 L739.596108,488.785708 L739.596108,369.520293 C739.596108,326.875973 720.180808,300.526638 679.269997,300.526638 C647.720135,300.526638 624.837817,315.088113 610.623044,335.543518 L610.623044,303.993656 L602.995604,303.993656 L602.995604,488.785708 L610.623044,488.785708 L610.623044,347.678081 C624.144413,326.529272 645.986626,308.500779 677.88319,308.500779 L677.88319,308.500779 Z" id="Sean" sketch:type="MSShapeGroup"></path>
            <path d="M153.245684,689.41306 L175.693425,748.097867 L203.272078,748.097867 L120.536119,536.447741 L90.071328,536.447741 L7.01468737,748.097867 L34.5933402,748.097867 L57.0410809,689.41306 L153.245684,689.41306 Z M143.945906,665.361909 L66.3408592,665.361909 L105.143382,564.026394 L143.945906,665.361909 Z M268.691208,514 L243.036647,514 L243.036647,708.333298 C243.036647,738.798089 255.543245,751.304688 281.518488,751.304688 C289.85622,751.304688 298.514635,749.701277 305.248957,746.815139 L309.417823,722.122625 C301.400773,725.008763 295.949178,726.612173 286.008036,726.612173 C274.784166,726.612173 268.691208,717.953758 268.691208,705.126478 L268.691208,514 Z M356.87876,518.489548 C346.296254,518.489548 337.63784,527.147962 337.63784,537.730469 C337.63784,548.312975 346.296254,556.971389 356.87876,556.971389 C367.461267,556.971389 376.119681,548.312975 376.119681,537.730469 C376.119681,527.147962 367.461267,518.489548 356.87876,518.489548 Z M369.706041,748.097867 L369.706041,587.756862 L344.05148,587.756862 L344.05148,748.097867 L369.706041,748.097867 Z M496.375435,584.550042 C447.952451,584.550042 418.770388,615.976879 418.770388,667.927365 C418.770388,719.877851 447.952451,751.304688 496.375435,751.304688 C530.367728,751.304688 553.456833,733.346495 563.718657,703.84375 L540.629552,695.8267 C534.215912,716.991712 519.143858,728.856947 495.734071,728.856947 C463.66587,728.856947 444.424949,706.088524 444.424949,667.927365 C444.424949,629.766206 463.66587,606.997783 495.734071,606.997783 C516.578401,606.997783 531.009092,618.542335 537.743414,638.745302 L562.115247,627.20075 C550.891377,600.904825 529.405682,584.550042 496.375435,584.550042 Z M740.735127,677.547825 L740.735127,666.323955 C740.735127,615.976879 715.080566,584.550042 668.581674,584.550042 C620.158691,584.550042 592.90072,615.976879 592.90072,667.927365 C592.90072,719.877851 622.082783,751.304688 670.505766,751.304688 C705.139423,751.304688 725.021708,738.156725 737.207624,716.350348 L715.72193,705.126478 C709.949654,720.519215 693.915553,728.856947 670.505766,728.856947 C641.003021,728.856947 621.441419,709.936708 618.234599,677.547825 L740.735127,677.547825 Z M618.555281,654.779402 C622.403465,624.635293 640.040975,606.997783 668.581674,606.997783 C695.518963,606.997783 713.156474,625.276658 716.042612,654.779402 L618.555281,654.779402 Z" id="Alice" sketch:type="MSShapeGroup"></path>
        </g>
    </g>
</svg>