<?xml version="1.0" encoding="UTF-8" standalone="no"?>
<svg width="600px" height="300px" viewBox="0 0 600 300" version="1.1" xmlns="http://www.w3.org/2000/svg" xmlns:xlink="http://www.w3.org/1999/xlink" xmlns:sketch="http://www.bohemiancoding.com/sketch/ns">
    <!-- Generator: Sketch 3.0.4 (8054) - http://www.bohemiancoding.com/sketch -->
    <title>Helvetica</title>
    <desc>Created with Sketch.</desc>
    <defs></defs>
    <g id="The-CrossSkeletonPoint" stroke="none" stroke-width="1" fill="none" fill-rule="evenodd" sketch:type="MSPage">
        <g id="Helvetica" sketch:type="MSArtboardGroup">
            <g id="Group" sketch:type="MSLayerGroup" transform="translate(64.000000, 61.500000)" stroke="#535353" stroke-width="2" stroke-linecap="square">
                <path d="M218.5,-5.55111512e-17 L218.5,198.040405" id="Line" sketch:type="MSShapeGroup"></path>
                <path d="M119.5,99 L317.540405,99" id="Line-2" sketch:type="MSShapeGroup"></path>
                <path d="M-0.5,99 L461.5,99" id="Line-5" stroke-dasharray="4,10" sketch:type="MSShapeGroup"></path>
                <path d="M255.607906,7.20435226 L181.420665,190.824219" id="Line-4" sketch:type="MSShapeGroup"></path>
                <g id="Line-3" transform="translate(132.000000, 65.000000)" sketch:type="MSShapeGroup">
                    <path d="M0.0241988644,0.0186488806 L173.348317,69.260515"></path>
                </g>
            </g>
            <path d="M370.616956,159 C370.616956,104.047667 330.856046,59.5 281.808478,59.5 C273.004558,59.5 264.499849,60.9352982 256.470592,63.6084355 C219.768008,75.8276286 193,113.911478 193,159 C193,213.952333 232.76091,258.5 281.808478,258.5 C330.856046,258.5 370.616956,213.952333 370.616956,159 Z" id="Oval-1" stroke="#979797" opacity="0.4" sketch:type="MSShapeGroup" transform="translate(282.000000, 159.000000) rotate(-319.000000) translate(-282.000000, -159.000000) "></path>
            <text sketch:type="MSTextLayer" font-family="Helvetica Neue" font-size="12" font-weight="260" sketch:alignment="middle" fill="#000000">
                <tspan x="483.546" y="183.5">Helvetica</tspan>
            </text>
            <path d="M477.734375,94.2460938 L487.753906,94.2460938 L487.753906,103.152344 C490.722671,99.4804504 493.867171,96.843758 497.1875,95.2421875 C500.507829,93.640617 504.199198,92.8398438 508.261719,92.8398438 C517.168013,92.8398438 523.183578,95.9452814 526.308594,102.15625 C528.027352,105.554704 528.886719,110.417937 528.886719,116.746094 L528.886719,157 L518.164062,157 L518.164062,117.449219 C518.164062,113.621075 517.597662,110.535168 516.464844,108.191406 C514.589834,104.285137 511.191431,102.332031 506.269531,102.332031 C503.769519,102.332031 501.718758,102.585935 500.117188,103.09375 C497.226548,103.953129 494.687511,105.671862 492.5,108.25 C490.742179,110.320323 489.599612,112.458973 489.072266,114.666016 C488.544919,116.873058 488.28125,120.027323 488.28125,124.128906 L488.28125,157 L477.734375,157 L477.734375,94.2460938 Z" id="n" fill="#000000" sketch:type="MSShapeGroup"></path>
        </g>
    </g>
</svg>