<?xml version="1.0" encoding="utf-8"?>
<!-- Generator: Adobe Illustrator 18.0.0, SVG Export Plug-In . SVG Version: 6.00 Build 0)  -->
<!DOCTYPE svg PUBLIC "-//W3C//DTD SVG 1.1//EN" "http://www.w3.org/Graphics/SVG/1.1/DTD/svg11.dtd">
<svg version="1.1" id="Calque_1" xmlns="http://www.w3.org/2000/svg" xmlns:xlink="http://www.w3.org/1999/xlink" x="0px" y="0px"
	 viewBox="760.9 265.1 595.3 548.5" enable-background="new 760.9 265.1 595.3 548.5" xml:space="preserve">
<g id="XMLID_1_">
	<path fill="#1A1A1A" d="M1054.6,554.9l-74.1,127.4c0.6,0.6,1.3,1.3,2.6,3.2c4.5,7.8,1.3,17.5-5.8,22.7c-2.6,1.3-5.8,2.6-7.8,2.6
		c-5.8,0-11-3.2-14.3-7.8c-2.6-3.9-2.6-7.8-1.3-12.3c1.3-4.5,3.9-7.8,7.1-9.7c3.9-2.6,7.8-2.6,12.3-1.3l74.1-127.4l-124.8,72.1
		l-36.4,159.9l49.4,29.2l120.2-111.1V554.9H1054.6z M917.5,616l125.4-72.1H896.1c-0.6,1.3-0.6,2.6-1.3,3.2
		c-3.9,7.1-14.3,10.4-22.7,5.8c-7.8-4.5-10.4-14.3-5.8-22.7c4.5-7.1,14.3-10.4,22.7-5.8c3.9,2.6,6.5,5.8,7.1,9.7h146.9L918.2,462
		l-157.3,48.7v57.8L917.5,616z"/>
	<path fill="#1A1A1A" d="M1356.2,510.1v57.8L1199.6,616l-82.5-48.1l-42.2-24H1221c0.6,3.9,3.9,7.1,7.1,9.7c2.6,1.3,5.8,2.6,7.8,2.6
		c5.8,0,11-3.2,13.6-7.8c4.5-7.8,1.3-17.5-5.8-22.7c-7.1-3.9-17.5-1.3-22.7,5.8c-0.6,0.6-0.6,2.6-1.3,3.2h-146.2l125.4-72.8
		L1356.2,510.1z"/>
	<path fill="#1A1A1A" d="M1232.1,295.6l-36.4,159.9l-124.8,72.1l74.1-127.4c3.9,0.6,7.8,0,12.3-1.3c7.8-3.9,10.4-14.3,5.8-22.1
		c-3.2-4.5-7.8-7.8-14.3-7.8c-3.2,0-5.8,0.6-7.8,2.6c-3.9,2.6-6.5,5.8-7.8,9.7c-0.6,3.9-0.6,9.1,1.3,12.3c0.6,0.6,1.3,2.6,2.6,3.2
		l-74.1,127.4V379.5L1184,267.7L1232.1,295.6z"/>
	<path fill="#1A1A1A" d="M1195.7,623.2l36.4,159.9l-49.4,28.6l-120.2-111.8V555.6l72.8,127.4c-3.2,3.2-4.5,7.1-4.5,11
		c0,3.9,1.3,7.8,4.5,11c3.2,3.2,7.1,4.5,11,4.5c3.9,0,7.8-1.3,11-4.5c3.2-3.2,4.5-7.1,4.5-11c0-9.1-7.1-16.2-16.2-16.2
		c-1.3,0-2.6,0-3.9,0l-72.8-127.4L1195.7,623.2z"/>
	<path fill="#1A1A1A" d="M1054.6,378.2v144.3L981.9,395c3.2-3.2,4.5-7.1,4.5-11c0-3.9-1.3-7.8-4.5-11s-7.1-4.5-11-4.5
		c-9.1,0-16.2,7.1-16.2,16.2s7.1,16.2,16.2,16.2c1.3,0,2.6,0,3.9-0.6l72.8,127.4l-81.9-46.8l-43.5-25.3l-36.4-159.2l49.4-29.2
		L1054.6,378.2z"/>
</g>
</svg>
