<?xml version="1.0" encoding="utf-8"?>
<!-- Generator: Adobe Illustrator 18.0.0, SVG Export Plug-In . SVG Version: 6.00 Build 0)  -->
<!DOCTYPE svg PUBLIC "-//W3C//DTD SVG 1.1//EN" "http://www.w3.org/Graphics/SVG/1.1/DTD/svg11.dtd">
<svg version="1.1" id="Calque_1" xmlns="http://www.w3.org/2000/svg" xmlns:xlink="http://www.w3.org/1999/xlink" x="0px" y="0px"
	 viewBox="0 506.5 595.3 541.5" enable-background="new 0 506.5 595.3 541.5" xml:space="preserve">
<polygon fill="#231F20" points="572.6,747.7 572.3,747.7 572.3,747.9 432,704 464.7,560.4 407.5,527.2 299.8,627.3 192.4,527.2 
	134.8,560.2 167.4,703.6 26.9,746.5 26.9,812.6 167,856 133.9,999.2 191.4,1032.5 299.2,932.6 406.5,1032.8 464.1,1000 431.7,856.5 
	572.6,813.5 "/>
<polygon fill="#FFFFFF" points="304,634.6 408.6,537.6 455.1,564.4 423.1,703.6 311.1,768.2 365.9,673 358.5,668.8 304,763.6 "/>
<polygon fill="#FFFFFF" points="283.4,784.2 225.4,817.6 171.5,848.6 35.2,806.4 35.2,752.6 171.5,710.8 262.2,763 284,775.6 
	173.2,775.6 173.2,784.2 "/>
<polygon fill="#FFFFFF" points="408,1022.8 303.6,925.2 303.9,795.4 359.2,890.8 366.6,886.5 311.7,791.8 423.2,856.6 454.5,996 "/>
<polygon fill="#FFFFFF" points="425.3,775.6 302.2,775.6 240.3,669.4 232.9,673.7 294.8,780 233.3,886.8 240.7,891 302.3,784.2 
	425.3,784.2 "/>
<path fill="#F033A3" d="M451.8,762.1c-10,0-18.5,8.3-18.5,18.5c0,10.2,8.3,18.5,18.5,18.5c10.2,0,18.5-8.3,18.5-18.5
	C470.4,770.1,461.8,762.1,451.8,762.1"/>
<path fill="#FFFFFF" d="M451.8,799.1c-10.2,0-18.5-8.3-18.5-18.5c0-10.2,8.5-18.5,18.5-18.5c10,0,18.5,8.1,18.5,18.5
	C470.4,790.8,462.1,799.1,451.8,799.1 M451.8,753c-15,0-27.2,12.1-27.2,27.2c0,15,12.3,27.2,27.2,27.2c14.8,0,27.2-12.3,27.2-27.2
	C479,765.2,466.9,753,451.8,753"/>
<path fill="#FFD23A" d="M375.7,629.8c-6.6,0-12.7,3.5-16,9c-5,8.9-2.2,20.1,7,25.2c2.6,1.6,6,2.5,9,2.5c6.6,0,12.7-3.5,16-9
	c2.5-4.4,3.2-9,1.7-13.9c-1.3-4.8-4.4-8.7-8.7-11.2C382.1,630.8,379.1,629.8,375.7,629.8"/>
<path fill="#343434" d="M375.7,666.6c-3,0-6.4-1-9-2.5c-9.1-5.2-12-16.4-7-25.2c3.2-5.5,9.4-9,16-9c3.4,0,6.4,1,9,2.6
	c4.2,2.5,7.3,6.4,8.7,11.2c1.6,4.9,0.8,9.5-1.7,13.9C388.5,663.1,382.3,666.6,375.7,666.6 M375.7,621c-9.6,0-18.5,5.2-23.3,13.5
	c-7.5,13.3-2.9,29.7,9.9,37c4,2.4,8.8,3.6,13.5,3.6c9.7,0,18.5-4.9,23.3-13.8c3.6-6.1,4.3-13.5,2.6-20.4
	c-1.7-6.7-6.4-12.6-12.5-16.2C385.2,622.2,380.4,621,375.7,621"/>
<path fill="#6081BD" d="M223.4,629.8c-3.2,0-6.4,1-9,2.5c-8.7,5-11.8,16.4-6.6,25.2c3.2,5.8,9.5,9,16,9c3.2,0,6.4-1,9-2.5
	c8.7-5,11.8-16.4,6.6-25.2C236.1,633.5,230.1,629.8,223.4,629.8"/>
<path fill="#FFFFFF" d="M223.8,666.6c-6.5,0-12.7-3.2-16-9c-5.2-8.9-2-20.2,6.6-25.2c2.6-1.6,5.8-2.5,9-2.5c6.7,0,12.7,3.7,16,9
	c5.2,8.9,2,20.2-6.6,25.2C230.1,665.6,227,666.6,223.8,666.6 M223.2,621.6c-4.8,0-9.4,1.3-13.5,3.6c-12.9,7.7-17.2,24.3-9.6,37
	c4.8,8.3,13.7,13.3,23.3,13.3c4.8,0,9.4-1.6,13.5-3.6c12.9-7.7,17.2-24.3,9.6-37C241.7,626.7,232.8,621.6,223.2,621.6"/>
<path fill="#F15C50" d="M147.8,761c-10,0-18.5,8.3-18.5,18.5c0,10,8.3,18.5,18.5,18.5l0,0c10,0,18.5-8.3,18.5-18.5
	c0-5-1.7-9.6-5.4-13.1C157.3,762.8,152.6,761,147.8,761"/>
<path fill="#343434" d="M147.8,798c-10.2,0-18.5-8.5-18.5-18.5c0-10.2,8.5-18.5,18.5-18.5c4.8,0,9.5,1.8,13.1,5.4
	c3.7,3.5,5.4,8.1,5.4,13.1C166.3,789.7,157.7,798,147.8,798 M147.5,752.1c-15,0-27.2,12.1-27.2,27.2s12.3,27.2,27.2,27.2
	c14.9,0,27.1-12.3,26.6-27.8c0-7-2.6-13.8-7.7-18.9C161.5,754.7,154.6,752.1,147.5,752.1"/>
<path fill="#A7E0F7" d="M223.4,893c-6.6,0-12.7,3.5-16,9c-2.5,4.4-3.2,9-1.7,13.9c1.3,4.8,4.4,8.7,8.7,11.2c2.6,1.6,6,2.5,9,2.5
	c6.6,0,12.7-3.5,16-9c2.5-4.4,3.2-9,1.7-13.9c-1.3-4.8-4.4-8.7-8.7-11.2C229.9,894,226.6,893,223.4,893"/>
<path fill="#FFFFFF" d="M223.4,929.7c-3,0-6.4-1-9-2.5c-4.2-2.5-7.3-6.4-8.7-11.2c-1.6-4.9-0.8-9.5,1.7-13.9c3.2-5.5,9.4-9,16-9
	c3.2,0,6.5,1,9,2.5c4.2,2.5,7.3,6.4,8.7,11.2c1.6,4.9,0.8,9.5-1.7,13.9C236.1,926.2,230,929.7,223.4,929.7 M223.4,884.6
	c-9.6,0-18.5,5.2-23.3,13.5c-3.6,6.1-4.3,13.5-2.6,20.4c1.7,6.7,6.4,12.6,12.5,16.2c4,2.4,8.8,3.6,13.5,3.6c9.6,0,18.8-5,23.3-13.5
	c3.6-6.1,4.3-13.5,2.6-20.4c-1.7-6.7-6.4-12.6-12.5-16.2C232.9,885.8,228.2,884.6,223.4,884.6"/>
<path fill="#B4D999" d="M375.6,893.2c-3.2,0-6.4,1-9,2.5c-4.4,2.5-7.3,6.4-8.5,11.2c-1.3,4.8-0.7,9.9,1.7,13.9c3.2,5.8,9.5,9,16,9
	c3.2,0,6.4-1,9-2.5c8.7-5,11.9-16.4,6.6-25.2C388.4,896.6,382.1,893.2,375.6,893.2"/>
<path fill="#343434" d="M375.7,929.9c-6.5,0-12.7-3.2-16-9c-2.4-4.1-3-9.1-1.7-13.9c1.2-4.8,4.1-8.7,8.5-11.2c2.6-1.6,5.8-2.5,9-2.5
	c6.5,0,12.7,3.4,15.8,8.9c5.3,8.9,2,20.2-6.6,25.2C382.1,928.9,379,929.9,375.7,929.9 M375.6,884.7c-4.8,0-9.4,1.3-13.5,3.6
	c-6.4,3.6-10.6,9.4-12.5,16.4c-2,7-1,14.3,2.6,20.4c4.8,8.4,13.7,13.5,23.3,13.5c4.8,0,9.4-1.2,13.5-3.4c12.7-7.7,17.4-24.3,9.9-37
	C394.1,889.7,385.2,884.7,375.6,884.7"/>
</svg>
