<?xml version="1.0" encoding="UTF-8" standalone="no"?>
<svg width="101px" height="93px" viewBox="0 0 101 93" version="1.1" xmlns="http://www.w3.org/2000/svg" xmlns:xlink="http://www.w3.org/1999/xlink" xmlns:sketch="http://www.bohemiancoding.com/sketch/ns">
    <!-- Generator: Sketch 3.0.4 (8054) - http://www.bohemiancoding.com/sketch -->
    <title>MN</title>
    <desc>Created with Sketch.</desc>
    <defs></defs>
    <g id="Page-1" stroke="none" stroke-width="1" fill="none" fill-rule="evenodd" sketch:type="MSPage">
        <g id="MN" sketch:type="MSLayerGroup" transform="translate(1.000000, 0.000000)">
            <path d="M99.9267399,40.5634387 L99.8717949,40.5634387 L99.8717949,40.6001976 L74.1758242,32.5316206 L80.1648352,6.13873518 L69.6886447,0.0367588933 L49.96337,18.434585 L30.2930403,0.0367588933 L19.7435897,6.10197628 L25.7142857,32.4581028 L-0.0183150183,40.3428854 L-0.0183150183,52.4916996 L25.6410256,60.4683794 L19.5787546,86.787747 L30.1098901,92.9081028 L49.8534799,74.5470356 L69.5054945,92.9632411 L80.0549451,86.9347826 L74.1208791,60.5602767 L99.9267399,52.6571146 L99.9267399,40.5634387 Z" id="Shape" fill="#231F20" sketch:type="MSShapeGroup"></path>
            <path d="M50.7326007,19.7762846 L69.8901099,1.94822134 L78.4065934,6.87391304 L72.5457875,32.4581028 L52.032967,44.3312253 L62.0695971,26.8339921 L60.7142857,26.0620553 L50.7326007,43.4857708 L50.7326007,19.7762846 Z" id="Shape" fill="#FFFFFF" sketch:type="MSShapeGroup"></path>
            <path d="M46.959707,47.2719368 L36.3369963,53.4106719 L26.4652015,59.1083004 L1.5018315,51.3521739 L1.5018315,41.4640316 L26.4652015,33.7814229 L43.0769231,43.3754941 L47.0695971,45.6913043 L26.7765568,45.6913043 L26.7765568,47.2719368 L46.959707,47.2719368 Z" id="Shape" fill="#FFFFFF" sketch:type="MSShapeGroup"></path>
            <path d="M69.7802198,91.1252964 L50.6593407,73.1869565 L50.7142857,49.3304348 L60.8424908,66.8644269 L62.1978022,66.0741107 L52.1428571,48.6687747 L72.5641026,60.5786561 L78.2967033,86.1996047 L69.7802198,91.1252964 Z" id="Shape" fill="#FFFFFF" sketch:type="MSShapeGroup"></path>
            <path d="M72.9487179,45.6913043 L50.4029304,45.6913043 L39.0659341,26.172332 L37.7106227,26.9626482 L49.047619,46.5 L37.7838828,66.129249 L39.1391941,66.9011858 L50.4212454,47.2719368 L72.9487179,47.2719368 L72.9487179,45.6913043 Z" id="Shape" fill="#FFFFFF" sketch:type="MSShapeGroup"></path>
            <path d="M77.8021978,43.2100791 C75.970696,43.2100791 74.4139194,44.7355731 74.4139194,46.6102767 C74.4139194,48.4849802 75.9340659,50.0104743 77.8021978,50.0104743 C79.6703297,50.0104743 81.1904762,48.4849802 81.1904762,46.6102767 C81.2087912,44.6804348 79.6336996,43.2100791 77.8021978,43.2100791" id="Shape" fill="#F033A3" sketch:type="MSShapeGroup"></path>
            <path d="M77.8021978,50.0104743 C75.9340659,50.0104743 74.4139194,48.4849802 74.4139194,46.6102767 C74.4139194,44.7355731 75.970696,43.2100791 77.8021978,43.2100791 C79.6336996,43.2100791 81.1904762,44.6988142 81.1904762,46.6102767 C81.2087912,48.4849802 79.6886447,50.0104743 77.8021978,50.0104743 M77.8021978,41.5375494 C75.0549451,41.5375494 72.8205128,43.7614625 72.8205128,46.5367589 C72.8205128,49.2936759 75.0732601,51.5359684 77.8021978,51.5359684 C80.5128205,51.5359684 82.7838828,49.2752964 82.7838828,46.5367589 C82.7838828,43.7798419 80.5677656,41.5375494 77.8021978,41.5375494" id="Shape" fill="#FFFFFF" sketch:type="MSShapeGroup"></path>
            <path d="M63.8644689,18.8940711 C62.6556777,18.8940711 61.5384615,19.5373518 60.9340659,20.5482213 C60.018315,22.1839921 60.5311355,24.2424901 62.2161172,25.1798419 C62.6923077,25.473913 63.3150183,25.6393281 63.8644689,25.6393281 C65.0732601,25.6393281 66.1904762,24.9960474 66.7948718,23.9851779 C67.2527473,23.1764822 67.3809524,22.3310277 67.1062271,21.4304348 C66.8681319,20.5482213 66.3003663,19.8314229 65.5128205,19.3719368 C65.03663,19.0778656 64.4871795,18.8940711 63.8644689,18.8940711" id="Shape" fill="#FFD23A" sketch:type="MSShapeGroup"></path>
            <path d="M63.8644689,25.6577075 C63.3150183,25.6577075 62.6923077,25.473913 62.2161172,25.1982213 C60.5494505,24.2424901 60.018315,22.1839921 60.9340659,20.5666008 C61.5201465,19.5557312 62.6556777,18.9124506 63.8644689,18.9124506 C64.4871795,18.9124506 65.03663,19.0962451 65.5128205,19.3903162 C66.2820513,19.8498024 66.8498168,20.5666008 67.1062271,21.4488142 C67.3992674,22.3494071 67.2527473,23.1948617 66.7948718,24.0035573 C66.2087912,25.0144269 65.0732601,25.6577075 63.8644689,25.6577075 M63.8644689,17.2766798 C62.1062271,17.2766798 60.4761905,18.2324111 59.5970696,19.7579051 C58.2234432,22.2023715 59.0659341,25.2166008 61.4102564,26.5583004 C62.1428571,26.9994071 63.021978,27.2199605 63.8827839,27.2199605 C65.6593407,27.2199605 67.2710623,26.3193676 68.1501832,24.6835968 C68.8095238,23.5624506 68.9377289,22.2023715 68.6263736,20.9341897 C68.3150183,19.7027668 67.4542125,18.6183794 66.3369963,17.9567194 C65.6043956,17.4972332 64.7252747,17.2766798 63.8644689,17.2766798" id="Shape" fill="#343434" sketch:type="MSShapeGroup"></path>
            <path d="M35.970696,18.8940711 C35.3846154,18.8940711 34.7985348,19.0778656 34.3223443,19.3535573 C32.7289377,20.2725296 32.1611722,22.3677866 33.1135531,23.9851779 C33.6996337,25.0511858 34.8534799,25.6393281 36.043956,25.6393281 C36.6300366,25.6393281 37.2161172,25.4555336 37.6923077,25.1798419 C39.2857143,24.2608696 39.8534799,22.1656126 38.9010989,20.5482213 C38.2967033,19.5741107 37.1978022,18.8940711 35.970696,18.8940711" id="Shape" fill="#6081BD" sketch:type="MSShapeGroup"></path>
            <path d="M36.043956,25.6577075 C34.8534799,25.6577075 33.7179487,25.0695652 33.1135531,24.0035573 C32.1611722,22.3677866 32.7472527,20.2909091 34.3223443,19.3719368 C34.7985348,19.0778656 35.3846154,18.9124506 35.970696,18.9124506 C37.1978022,18.9124506 38.2967033,19.5924901 38.9010989,20.5666008 C39.8534799,22.2023715 39.2673993,24.279249 37.6923077,25.1982213 C37.1978022,25.473913 36.6300366,25.6577075 36.043956,25.6577075 M35.9340659,17.3869565 C35.0549451,17.3869565 34.2124542,17.6258893 33.4615385,18.0486166 C31.0989011,19.463834 30.3113553,22.5148221 31.7032967,24.8490119 C32.5824176,26.3745059 34.2124542,27.2934783 35.970696,27.2934783 C36.8498168,27.2934783 37.6923077,26.9994071 38.4432234,26.6318182 C40.8058608,25.2166008 41.5934066,22.1656126 40.2014652,19.8314229 C39.3223443,18.3243083 37.6923077,17.3869565 35.9340659,17.3869565" id="Shape" fill="#FFFFFF" sketch:type="MSShapeGroup"></path>
            <path d="M22.1245421,43.0079051 C20.2930403,43.0079051 18.7362637,44.5333992 18.7362637,46.4081028 C18.7362637,48.2460474 20.2564103,49.8083004 22.1245421,49.8083004 L22.1245421,49.8083004 C23.956044,49.8083004 25.5128205,48.2828063 25.5128205,46.4081028 C25.5128205,45.4891304 25.2014652,44.6436759 24.5238095,44.0003953 C23.8644689,43.3387352 23.003663,43.0079051 22.1245421,43.0079051" id="Shape" fill="#F15C50" sketch:type="MSShapeGroup"></path>
            <path d="M22.1245421,49.8083004 C20.2564103,49.8083004 18.7362637,48.2460474 18.7362637,46.4081028 C18.7362637,44.5333992 20.2930403,43.0079051 22.1245421,43.0079051 C23.003663,43.0079051 23.8644689,43.3387352 24.5238095,44.0003953 C25.2014652,44.6436759 25.5128205,45.4891304 25.5128205,46.4081028 C25.5128205,48.2828063 23.9377289,49.8083004 22.1245421,49.8083004 M22.0695971,41.3721344 C19.3223443,41.3721344 17.0879121,43.5960474 17.0879121,46.3713439 C17.0879121,49.1466403 19.3406593,51.3705534 22.0695971,51.3705534 C24.7985348,51.3705534 27.032967,49.1098814 26.9413919,46.2610672 C26.9413919,44.9745059 26.4652015,43.7247036 25.5311355,42.7873518 C24.6336996,41.85 23.3699634,41.3721344 22.0695971,41.3721344" id="Shape" fill="#343434" sketch:type="MSShapeGroup"></path>
            <path d="M35.970696,67.2687747 C34.7619048,67.2687747 33.6446886,67.9120553 33.040293,68.9229249 C32.5824176,69.7316206 32.4542125,70.5770751 32.7289377,71.477668 C32.967033,72.3598814 33.5347985,73.0766798 34.3223443,73.536166 C34.7985348,73.8302372 35.4212454,73.9956522 35.970696,73.9956522 C37.1794872,73.9956522 38.2967033,73.3523715 38.9010989,72.341502 C39.3589744,71.5328063 39.4871795,70.6873518 39.2124542,69.7867589 C38.974359,68.9045455 38.4065934,68.187747 37.6190476,67.7282609 C37.1611722,67.4525692 36.5567766,67.2687747 35.970696,67.2687747" id="Shape" fill="#A7E0F7" sketch:type="MSShapeGroup"></path>
            <path d="M35.970696,74.0140316 C35.4212454,74.0140316 34.7985348,73.8302372 34.3223443,73.5545455 C33.5531136,73.0950593 32.985348,72.3782609 32.7289377,71.4960474 C32.4358974,70.5954545 32.5824176,69.75 33.040293,68.9413043 C33.6263736,67.9304348 34.7619048,67.2871542 35.970696,67.2871542 C36.5567766,67.2871542 37.1611722,67.4709486 37.6190476,67.7466403 C38.3882784,68.2061265 38.956044,68.9229249 39.2124542,69.8051383 C39.5054945,70.7057312 39.3589744,71.5511858 38.9010989,72.3598814 C38.2967033,73.370751 37.1794872,74.0140316 35.970696,74.0140316 M35.970696,65.7249012 C34.2124542,65.7249012 32.5824176,66.6806324 31.7032967,68.2061265 C31.043956,69.3272727 30.9157509,70.6873518 31.2271062,71.9555336 C31.5384615,73.1869565 32.3992674,74.2713439 33.5164835,74.933004 C34.2490842,75.3741107 35.1282051,75.594664 35.989011,75.594664 C37.7472527,75.594664 39.4322344,74.6756917 40.2564103,73.1134387 C40.9157509,71.9922925 41.043956,70.6322134 40.7326007,69.3640316 C40.4212454,68.1326087 39.5604396,67.0482213 38.4432234,66.3865613 C37.7106227,65.9454545 36.8498168,65.7249012 35.970696,65.7249012" id="Shape" fill="#FFFFFF" sketch:type="MSShapeGroup"></path>
            <path d="M63.8461538,67.3055336 C63.2600733,67.3055336 62.6739927,67.4893281 62.1978022,67.7650198 C61.3919414,68.2245059 60.8608059,68.9413043 60.6410256,69.8235178 C60.4029304,70.7057312 60.5128205,71.643083 60.952381,72.3782609 C61.5384615,73.4442688 62.6923077,74.0324111 63.8827839,74.0324111 C64.4688645,74.0324111 65.0549451,73.8486166 65.5311355,73.5729249 C67.1245421,72.6539526 67.7106227,70.5586957 66.7399267,68.9413043 C66.1904762,67.9304348 65.03663,67.3055336 63.8461538,67.3055336" id="Shape" fill="#B4D999" sketch:type="MSShapeGroup"></path>
            <path d="M63.8644689,74.0507905 C62.6739927,74.0507905 61.5384615,73.4626482 60.9340659,72.3966403 C60.4945055,71.643083 60.3846154,70.7241107 60.6227106,69.8418972 C60.8424908,68.9596838 61.3736264,68.2428854 62.1794872,67.7833992 C62.6556777,67.4893281 63.2417582,67.323913 63.8278388,67.323913 C65.018315,67.323913 66.1538462,67.9488142 66.7216117,68.9596838 C67.6923077,70.5954545 67.0879121,72.672332 65.5128205,73.5913043 C65.03663,73.866996 64.4688645,74.0507905 63.8644689,74.0507905 M63.8461538,65.7432806 C62.967033,65.7432806 62.1245421,65.9822134 61.3736264,66.4049407 C60.2014652,67.0666008 59.4322344,68.1326087 59.0842491,69.41917 C58.7179487,70.7057312 58.9010989,72.0474308 59.5604396,73.1685771 C60.4395604,74.7124506 62.0695971,75.6498024 63.8278388,75.6498024 C64.7069597,75.6498024 65.5494505,75.429249 66.3003663,75.0249012 C68.6263736,73.6096838 69.4871795,70.5586957 68.1135531,68.2245059 C67.2344322,66.662253 65.6043956,65.7432806 63.8461538,65.7432806" id="Shape" fill="#343434" sketch:type="MSShapeGroup"></path>
        </g>
    </g>
</svg>