<?xml version="1.0" encoding="utf-8"?>
<!-- Generator: Adobe Illustrator 18.0.0, SVG Export Plug-In . SVG Version: 6.00 Build 0)  -->
<!DOCTYPE svg PUBLIC "-//W3C//DTD SVG 1.1//EN" "http://www.w3.org/Graphics/SVG/1.1/DTD/svg11.dtd">
<svg version="1.1" id="Calque_1" xmlns="http://www.w3.org/2000/svg" xmlns:xlink="http://www.w3.org/1999/xlink" x="0px" y="0px"
	 viewBox="-94 159.9 371 368" enable-background="new -94 159.9 371 368" xml:space="preserve">
<g id="Layer_1">
	<g>
		<polygon fill="#FFFFFF" points="92.3,269.4 148.4,217.4 175.4,232.8 158.3,307.5 92.3,345.5 		"/>
	</g>
	<g>
		<path fill="#231F20" d="M148.8,220l24.1,13.9l-16.6,72.2l-61.9,35.7v-71.4L148.8,220z M148.2,214.6l-58,53.9v80.9l70.1-40.4
			l17.6-77.2L148.2,214.6z"/>
	</g>
	<g>
		<polygon fill="#231F20" points="26.4,307.5 9.4,232.8 36.3,217.2 92.4,269.4 92.3,345.5 		"/>
	</g>
	<g>
		<path fill="#231F20" d="M11.8,233.8l24.1-13.9l54.2,50.4v71.5l-61.8-35.8L11.8,233.8z M6.9,231.7l17.6,77.2l70.1,40.4v-80.8
			l-57.9-53.9L6.9,231.7z"/>
	</g>
	<g>
		<polygon fill="#FFFFFF" points="26.3,383.6 -46.8,361 -46.8,329.8 26.4,307.4 92.3,345.5 		"/>
	</g>
	<g>
		<path fill="#231F20" d="M-44.7,359.3v-27.9l70.8-21.7l61.8,35.8L26,381.2L-44.7,359.3z M-49,362.5L26.7,386l70.1-40.3l-70.1-40.5
			L-49,328.3V362.5z"/>
	</g>
	<g>
		<polygon fill="#231F20" points="92.2,421.8 35.9,473.7 9.1,458.2 26.3,383.6 92.3,345.5 		"/>
	</g>
	<g>
		<path fill="#231F20" d="M35.6,471.1l-24.1-14l16.7-72.2l61.9-35.5l-0.1,71.5L35.6,471.1z M36.2,476.5l58.1-53.8l0.1-80.9
			l-70.2,40.3L6.4,459.2L36.2,476.5z"/>
	</g>
	<g>
		<polygon fill="#FFFFFF" points="158.2,383.8 175.1,458.7 148.1,474.1 92.1,421.8 92.3,345.5 		"/>
	</g>
	<g>
		<path fill="#231F20" d="M172.6,457.6l-24.1,13.9l-54.1-50.6l0.2-71.5l61.8,35.9L172.6,457.6z M177.6,459.7l-17.5-77.2l-70-40.6
			l-0.2,80.8l57.8,54L177.6,459.7z"/>
	</g>
	<g>
		<polygon fill="#231F20" points="158.5,307.7 231.6,330.6 231.4,361.6 158.2,384 92.3,345.5 		"/>
	</g>
	<g>
		<path fill="#231F20" d="M229.4,332.1l-0.1,27.9l-70.9,21.5l-61.8-35.9l62.1-35.5L229.4,332.1z M233.7,329l-75.5-23.6L88,345.6
			l70,40.6l75.8-23.1V329z"/>
	</g>
	<g>
		
			<rect x="106.3" y="284.8" transform="matrix(0.867 0.4984 -0.4984 0.867 172.5946 -11.8733)" fill="#231F20" width="4.4" height="65.1"/>
	</g>
	<g>
		<rect x="27.3" y="343.4" fill="#231F20" width="65" height="4.4"/>
	</g>
	<g>
		
			<rect x="76.2" y="371.6" transform="matrix(0.5017 0.865 -0.865 0.5017 377.5625 92.1876)" fill="#231F20" width="65.1" height="4.4"/>
	</g>
</g>
<g id="Layer_2">
	<g>
		<rect x="92.3" y="343.4" fill="#FFFFFF" width="65.1" height="4.4"/>
	</g>
	<g>
		
			<rect x="43.5" y="315.3" transform="matrix(0.5033 0.8641 -0.8641 0.5033 312.1213 92.056)" fill="#FFFFFF" width="65" height="4.4"/>
	</g>
	<g>
		
			<rect x="73.9" y="341.3" transform="matrix(0.8664 0.4994 -0.4994 0.8664 196.8634 11.9693)" fill="#FFFFFF" width="4.4" height="65.1"/>
	</g>
</g>
<g id="Layer_3">
	<g opacity="0.8" enable-background="new    ">
		<circle fill="#EC008C" cx="171.2" cy="345.7" r="11.7"/>
		<path fill="#FFFFFF" d="M171.2,359.8c-7.7,0-14.1-6.3-14.1-14.1s6.3-14.1,14.1-14.1s14.1,6.3,14.1,14.1S178.9,359.8,171.2,359.8z
			 M171.2,336.3c-5.2,0-9.6,4.3-9.6,9.6c0,5.3,4.3,9.6,9.6,9.6c5.3,0,9.6-4.3,9.6-9.6C180.8,340.5,176.4,336.3,171.2,336.3z"/>
	</g>
	<g opacity="0.8" enable-background="new    ">
		<path fill="#FFC709" d="M137.6,267.2c5.6,3.2,7.6,10.4,4.4,16.1c-3.2,5.6-10.4,7.6-16.1,4.4c-5.6-3.2-7.6-10.4-4.4-16.1
			C124.8,265.9,132.1,264,137.6,267.2z"/>
		<path fill="#010101" d="M131.8,291.3c-2.4,0-4.9-0.6-7-1.9c-6.6-3.8-9-12.3-5.1-19.2c2.5-4.3,7.1-7,12.1-7c2.4,0,4.9,0.6,7,1.9
			c3.2,1.9,5.6,4.9,6.5,8.4c0.9,3.6,0.5,7.4-1.4,10.6C141.4,288.7,136.8,291.3,131.8,291.3z M131.8,267.8c-3.4,0-6.6,1.8-8.3,4.7
			c-2.6,4.6-1.1,10.4,3.6,13.1c1.4,0.8,3.1,1.3,4.7,1.3c3.4,0,6.6-1.8,8.3-4.7c1.3-2.3,1.7-4.7,0.9-7.2c-0.7-2.5-2.3-4.5-4.5-5.8
			C135.1,268.3,133.5,267.8,131.8,267.8z"/>
	</g>
	<g opacity="0.8" enable-background="new    ">
		<path fill="#3861AD" d="M46.9,267.2c5.6-3.3,12.8-1.4,16.2,4.3c3.3,5.6,1.4,12.8-4.3,16.2c-5.6,3.3-12.8,1.4-16.1-4.3
			C39.4,277.8,41.3,270.5,46.9,267.2z"/>
		<path fill="#FFFFFF" d="M52.8,291.5c-5,0-9.6-2.6-12.1-6.9c-3.9-6.6-1.7-15.2,5-19.2c2.1-1.2,4.5-1.9,7-1.9c5,0,9.6,2.6,12.1,6.9
			c3.9,6.6,1.7,15.2-5,19.2C57.7,290.7,55.3,291.5,52.8,291.5z M52.8,267.8c-1.7,0-3.3,0.5-4.7,1.3c-4.5,2.6-6.1,8.5-3.4,13.1
			c1.7,3,4.9,4.7,8.3,4.7c1.7,0,3.3-0.5,4.7-1.3c4.5-2.6,6.1-8.5,3.4-13.1C59.4,269.7,56.3,267.8,52.8,267.8z"/>
	</g>
	<g opacity="0.8" enable-background="new    ">
		<path fill="#EE3324" d="M1.7,345.4c0-6.5,5.2-11.7,11.7-11.7s11.7,5.2,11.7,11.7s-5.2,11.7-11.7,11.7C7,357.2,1.7,351.9,1.7,345.4
			z"/>
		<path fill="#010101" d="M13.5,359.3L13.5,359.3c-7.7,0-14.1-6.3-14.1-14.1s6.3-14.1,14.1-14.1c3.7,0,7.2,1.4,9.8,4
			c2.6,2.6,4,6.2,4,9.8C27.5,353,21.2,359.3,13.5,359.3z M13.6,335.8c-5.2,0-9.6,4.3-9.6,9.6c0,5.2,4.3,9.6,9.6,9.6v2.1v-2.1
			c5.2,0,9.6-4.3,9.6-9.6c0-2.6-0.9-5-2.8-6.8C18.5,336.7,16.1,335.8,13.6,335.8z"/>
	</g>
	<g opacity="0.8" enable-background="new    ">
		<path fill="#91D8F5" d="M46.9,424c-5.6-3.2-7.6-10.4-4.3-16.1c3.2-5.6,10.4-7.6,16.1-4.3c5.6,3.2,7.6,10.4,4.3,16.1
			C59.7,425.3,52.6,427.2,46.9,424z"/>
		<path fill="#FFFFFF" d="M52.8,427.7c-2.4,0-4.9-0.6-7-1.9c-3.2-1.9-5.6-4.9-6.5-8.4c-0.9-3.6-0.5-7.4,1.4-10.6
			c2.5-4.3,7.1-7,12.1-7c2.5,0,4.9,0.6,7,1.9c3.2,1.9,5.6,4.9,6.5,8.4c0.9,3.6,0.5,7.4-1.4,10.6C62.5,425.1,57.8,427.7,52.8,427.7z
			 M52.8,404.2c-3.4,0-6.6,1.8-8.3,4.7c-1.3,2.3-1.7,4.7-0.9,7.2c0.7,2.5,2.3,4.5,4.5,5.8c1.4,0.8,3.1,1.3,4.7,1.3
			c3.4,0,6.6-1.8,8.3-4.7c1.3-2.3,1.7-4.7,0.9-7.2c-0.7-2.5-2.3-4.5-4.5-5.8C56.2,404.7,54.5,404.2,52.8,404.2z"/>
	</g>
	<g opacity="0.8" enable-background="new    ">
		<path fill="#A1D080" d="M137.6,424c-5.6,3.2-12.8,1.3-16.1-4.3c-3.2-5.6-1.3-12.8,4.3-16.1c5.6-3.3,12.8-1.3,16.1,4.3
			C145.2,413.6,143.2,420.8,137.6,424z"/>
		<path fill="#010101" d="M131.7,427.8c-5,0-9.6-2.6-12.1-7c-1.9-3.2-2.4-7-1.4-10.6s3.2-6.6,6.5-8.5c2.1-1.2,4.5-1.9,7-1.9
			c5,0,9.6,2.6,12.1,7c3.9,6.6,1.5,15.2-5.1,19.2C136.6,427.2,134.2,427.8,131.7,427.8z M131.7,404.3c-1.7,0-3.3,0.5-4.7,1.3
			c-2.3,1.3-3.8,3.3-4.4,5.8c-0.7,2.5-0.4,5.1,0.9,7.2c1.7,3,4.9,4.7,8.3,4.7c1.7,0,3.3-0.5,4.7-1.3c4.5-2.6,6.2-8.5,3.4-13.1
			C138.3,406.1,135.1,404.3,131.7,404.3z"/>
	</g>
</g>
</svg>
