<?xml version="1.0" encoding="utf-8"?>
<!-- Generator: Adobe Illustrator 18.0.0, SVG Export Plug-In . SVG Version: 6.00 Build 0)  -->
<!DOCTYPE svg PUBLIC "-//W3C//DTD SVG 1.1//EN" "http://www.w3.org/Graphics/SVG/1.1/DTD/svg11.dtd">
<svg version="1.1" id="Calque_1" xmlns="http://www.w3.org/2000/svg" xmlns:xlink="http://www.w3.org/1999/xlink" x="0px" y="0px"
	 viewBox="-204 -76 1003.3 993.9" enable-background="new -204 -76 1003.3 993.9" xml:space="preserve">
<g id="Layer_1">
	<g>
		<polygon fill="#FFFFFF" points="295.4,293.7 390,205.9 435.5,231.9 406.7,357.8 295.4,421.9 		"/>
	</g>
	<g>
		<path fill="#231F20" d="M390.6,210.3l40.7,23.5l-27.9,121.7L299,415.7V295.3L390.6,210.3z M389.6,201.3l-97.8,90.8v136.3
			l118.1-68.1l29.7-130.1L389.6,201.3z"/>
	</g>
	<g>
		<polygon fill="#231F20" points="184.4,357.8 155.7,231.9 201,205.7 295.6,293.7 295.4,421.9 		"/>
	</g>
	<g>
		<path fill="#231F20" d="M159.7,233.7l40.7-23.5l91.4,85v120.5l-104.2-60.3L159.7,233.7z M151.5,230.1l29.7,130.1l118.1,68.1V292.1
			l-97.6-90.8L151.5,230.1z"/>
	</g>
	<g>
		<polygon fill="#FFFFFF" points="184.2,486.1 60.9,448 60.9,395.5 184.4,357.6 295.4,421.9 		"/>
	</g>
	<g>
		<path fill="#231F20" d="M64.5,445.2v-47.1l119.3-36.5L288,421.9l-104.4,60.1L64.5,445.2z M57.3,450.6l127.5,39.5l118.1-67.9
			l-118.1-68.3L57.3,392.9V450.6z"/>
	</g>
	<g>
		<polygon fill="#231F20" points="295.2,550.4 200.4,638 155.1,611.8 184.2,486.1 295.4,421.9 		"/>
	</g>
	<g>
		<path fill="#231F20" d="M199.8,633.6L159.1,610l28.1-121.7l104.4-59.9l-0.2,120.5L199.8,633.6z M200.8,642.6l98-90.6l0.2-136.3
			l-118.3,67.9l-30.1,129.9L200.8,642.6z"/>
	</g>
	<g>
		<polygon fill="#FFFFFF" points="406.5,486.5 434.9,612.6 389.4,638.6 295,550.4 295.4,421.9 		"/>
	</g>
	<g>
		<path fill="#231F20" d="M430.7,610.8L390,634.2L298.8,549l0.4-120.5l104.2,60.5L430.7,610.8z M439.1,614.4l-29.5-130.1
			l-117.9-68.5L291.4,552l97.4,91L439.1,614.4z"/>
	</g>
	<g>
		<polygon fill="#231F20" points="406.9,358.2 530.1,396.7 529.9,449 406.5,486.7 295.4,421.9 		"/>
	</g>
	<g>
		<path fill="#231F20" d="M526.5,399.3l-0.2,47.1l-119.5,36.3l-104.2-60.5l104.6-59.9L526.5,399.3z M533.7,394.1l-127.3-39.7
			l-118.3,67.7l117.9,68.5l127.7-38.9V394.1z"/>
	</g>
	<g>
		
			<rect x="319.1" y="319.5" transform="matrix(-0.867 -0.4984 0.4984 -0.867 416.0236 859.9118)" fill="#231F20" width="7.4" height="109.8"/>
	</g>
	<g>
		<rect x="185.8" y="418.3" fill="#231F20" width="109.6" height="7.4"/>
	</g>
	<g>
		
			<rect x="268.2" y="465.9" transform="matrix(-0.5017 -0.865 0.865 -0.5017 79.0307 984.702)" fill="#231F20" width="109.8" height="7.4"/>
	</g>
</g>
<g id="Layer_2">
	<g>
		<rect x="295.4" y="418.3" fill="#FFFFFF" width="109.8" height="7.4"/>
	</g>
	<g>
		
			<rect x="213" y="371" transform="matrix(-0.5033 -0.8641 0.8641 -0.5033 78.8991 794.7356)" fill="#FFFFFF" width="109.6" height="7.4"/>
	</g>
	<g>
		
			<rect x="264.4" y="414.7" transform="matrix(-0.8664 -0.4994 0.4994 -0.8664 265.7922 1010.4294)" fill="#FFFFFF" width="7.4" height="109.8"/>
	</g>
</g>
<g id="Layer_3">
	<g opacity="0.8" enable-background="new    ">
		<circle fill="#EC008C" cx="428.3" cy="422.3" r="19.8"/>
		<path fill="#FFFFFF" d="M428.3,446c-13,0-23.7-10.6-23.7-23.7s10.6-23.7,23.7-23.7s23.7,10.6,23.7,23.7S441.3,446,428.3,446z
			 M428.3,406.3c-8.8,0-16.2,7.2-16.2,16.2c0,9,7.2,16.2,16.2,16.2c9,0,16.2-7.2,16.2-16.2C444.6,413.5,437.1,406.3,428.3,406.3z"/>
	</g>
	<g opacity="0.8" enable-background="new    ">
		<path fill="#FFC709" d="M371.8,289.9c9.4,5.4,12.8,17.6,7.4,27.1s-17.6,12.8-27.1,7.4c-9.4-5.4-12.8-17.6-7.4-27.1
			S362.4,284.5,371.8,289.9z"/>
		<path fill="#010101" d="M362,330.6c-4,0-8.2-1-11.8-3.2c-11.2-6.4-15.2-20.8-8.6-32.3c4.2-7.2,12-11.8,20.4-11.8
			c4,0,8.2,1,11.8,3.2c5.4,3.2,9.4,8.2,11,14.2c1.6,6,0.8,12.4-2.4,17.8C378.2,326.1,370.4,330.6,362,330.6z M362,290.9
			c-5.8,0-11.2,3-14,8c-4.4,7.8-1.8,17.6,6,22c2.4,1.4,5.2,2.2,8,2.2c5.8,0,11.2-3,14-8c2.2-3.8,2.8-8,1.6-12.2
			c-1.2-4.2-3.8-7.6-7.6-9.8C367.6,291.7,364.8,290.9,362,290.9z"/>
	</g>
	<g opacity="0.8" enable-background="new    ">
		<path fill="#3861AD" d="M218.9,289.9c9.4-5.6,21.6-2.4,27.3,7.2c5.6,9.4,2.4,21.6-7.2,27.3c-9.4,5.6-21.6,2.4-27.1-7.2
			C206.2,307.7,209.5,295.5,218.9,289.9z"/>
		<path fill="#FFFFFF" d="M228.9,330.8c-8.4,0-16.2-4.4-20.4-11.6c-6.6-11.2-2.8-25.7,8.4-32.3c3.6-2,7.6-3.2,11.8-3.2
			c8.4,0,16.2,4.4,20.4,11.6c6.6,11.2,2.8,25.7-8.4,32.3C237.1,329.5,233.1,330.8,228.9,330.8z M228.9,290.9c-2.8,0-5.6,0.8-8,2.2
			c-7.6,4.4-10.2,14.4-5.8,22c2.8,5,8.2,8,14,8c2.8,0,5.6-0.8,8-2.2c7.6-4.4,10.2-14.4,5.8-22C239.9,294.1,234.7,290.9,228.9,290.9z
			"/>
	</g>
	<g opacity="0.8" enable-background="new    ">
		<path fill="#EE3324" d="M142.7,421.7c0-11,8.8-19.8,19.8-19.8c11,0,19.8,8.8,19.8,19.8c0,11-8.8,19.8-19.8,19.8
			C151.7,441.6,142.7,432.6,142.7,421.7z"/>
		<path fill="#010101" d="M162.5,445.2L162.5,445.2c-13,0-23.7-10.6-23.7-23.7s10.6-23.7,23.7-23.7c6.2,0,12.2,2.4,16.6,6.8
			c4.4,4.4,6.8,10.4,6.8,16.6C186.2,434.6,175.6,445.2,162.5,445.2z M162.7,405.5c-8.8,0-16.2,7.2-16.2,16.2
			c0,8.8,7.2,16.2,16.2,16.2v3.6V438c8.8,0,16.2-7.2,16.2-16.2c0-4.4-1.6-8.4-4.8-11.4C171,407.1,167,405.5,162.7,405.5z"/>
	</g>
	<g opacity="0.8" enable-background="new    ">
		<path fill="#91D8F5" d="M218.9,554.2c-9.4-5.4-12.8-17.6-7.2-27.1c5.4-9.4,17.6-12.8,27.1-7.2c9.4,5.4,12.8,17.6,7.2,27.1
			C240.5,556.4,228.5,559.6,218.9,554.2z"/>
		<path fill="#FFFFFF" d="M228.9,560.4c-4,0-8.2-1-11.8-3.2c-5.4-3.2-9.4-8.2-11-14.2s-0.8-12.4,2.4-17.8c4.2-7.2,12-11.8,20.4-11.8
			c4.2,0,8.2,1,11.8,3.2c5.4,3.2,9.4,8.2,11,14.2c1.6,6,0.8,12.4-2.4,17.8C245.1,556,237.3,560.4,228.9,560.4z M228.9,520.8
			c-5.8,0-11.2,3-14,8c-2.2,3.8-2.8,8-1.6,12.2s3.8,7.6,7.6,9.8c2.4,1.4,5.2,2.2,8,2.2c5.8,0,11.2-3,14-8c2.2-3.8,2.8-8,1.6-12.2
			c-1.2-4.2-3.8-7.6-7.6-9.8C234.5,521.6,231.7,520.8,228.9,520.8z"/>
	</g>
	<g opacity="0.8" enable-background="new    ">
		<path fill="#A1D080" d="M371.8,554.2c-9.4,5.4-21.6,2.2-27.1-7.2c-5.4-9.4-2.2-21.6,7.2-27.1s21.6-2.2,27.1,7.2
			C384.6,536.6,381.2,548.8,371.8,554.2z"/>
		<path fill="#010101" d="M361.8,560.6c-8.4,0-16.2-4.4-20.4-11.8c-3.2-5.4-4-11.8-2.4-17.8s5.4-11.2,11-14.4
			c3.6-2,7.6-3.2,11.8-3.2c8.4,0,16.2,4.4,20.4,11.8c6.6,11.2,2.6,25.7-8.6,32.3C370,559.6,366,560.6,361.8,560.6z M361.8,521
			c-2.8,0-5.6,0.8-8,2.2c-3.8,2.2-6.4,5.6-7.4,9.8c-1.2,4.2-0.6,8.6,1.6,12.2c2.8,5,8.2,8,14,8c2.8,0,5.6-0.8,8-2.2
			c7.6-4.4,10.4-14.4,5.8-22C373,524,367.6,521,361.8,521z"/>
	</g>
</g>
</svg>
