<?xml version="1.0" encoding="utf-8"?>
<!-- Generator: Adobe Illustrator 18.0.0, SVG Export Plug-In . SVG Version: 6.00 Build 0)  -->
<!DOCTYPE svg PUBLIC "-//W3C//DTD SVG 1.1//EN" "http://www.w3.org/Graphics/SVG/1.1/DTD/svg11.dtd">
<svg version="1.1" id="Calque_1" xmlns="http://www.w3.org/2000/svg" xmlns:xlink="http://www.w3.org/1999/xlink" x="0px" y="0px"
	 viewBox="0 356.5 495.1 450" enable-background="new 0 356.5 495.1 450" xml:space="preserve">
<g>
	<g id="Layer_1">
		<g>
			<polygon fill="#FFFFFF" points="249.2,461.3 339.2,377.9 382.5,402.6 355.1,522.4 249.2,583.4 			"/>
		</g>
		<g>
			<path fill="#231F20" d="M339.8,382l38.7,22.3l-26.6,115.8l-99.3,57.3V462.9L339.8,382z M338.9,373.4l-93.1,86.5v129.8l112.5-64.8
				L386.5,401L338.9,373.4z"/>
		</g>
		<g>
			<polygon fill="#231F20" points="143.4,522.4 116.1,402.6 159.3,377.6 249.3,461.3 249.2,583.4 			"/>
		</g>
		<g>
			<path fill="#231F20" d="M120,404.2l38.7-22.3l87,80.9v114.7L146.5,520L120,404.2z M112.1,400.8l28.2,123.9l112.5,64.8V459.9
				L160,373.4L112.1,400.8z"/>
		</g>
		<g>
			<polygon fill="#FFFFFF" points="143.3,644.5 26,608.3 26,558.2 143.4,522.3 249.2,583.4 			"/>
		</g>
		<g>
			<path fill="#231F20" d="M29.3,605.6v-44.8L142.9,526l99.2,57.4l-99.3,57.3L29.3,605.6z M22.4,610.7l121.5,37.7l112.5-64.7
				l-112.5-65L22.4,555.8V610.7z"/>
		</g>
		<g>
			<polygon fill="#231F20" points="249,705.8 158.7,789.1 115.7,764.2 143.3,644.5 249.2,583.4 			"/>
		</g>
		<g>
			<path fill="#231F20" d="M158.2,784.9l-38.7-22.5l26.8-115.8l99.3-57l-0.2,114.7L158.2,784.9z M159.2,793.6l93.2-86.3l0.2-129.8
				l-112.6,64.7l-28.6,123.7L159.2,793.6z"/>
		</g>
		<g>
			<polygon fill="#FFFFFF" points="354.9,644.9 382,765 338.7,789.8 248.8,705.8 249.2,583.4 			"/>
		</g>
		<g>
			<path fill="#231F20" d="M378,763.3l-38.7,22.3l-86.8-81.2l0.3-114.7l99.2,57.6L378,763.3z M386,766.6L358,642.8l-112.3-65.1
				l-0.3,129.6l92.7,86.6L386,766.6z"/>
		</g>
		<g>
			<polygon fill="#231F20" points="355.4,522.8 472.7,559.5 472.4,609.2 354.9,645.2 249.2,583.4 			"/>
		</g>
		<g>
			<path fill="#231F20" d="M469.1,561.9l-0.2,44.8l-113.8,34.5l-99.2-57.6l99.6-57L469.1,561.9z M476,556.9l-121.1-37.9l-112.6,64.5
				l112.3,65.1l121.6-37.1v-54.7H476z"/>
		</g>
		<g>
			
				<rect x="271.6" y="486" transform="matrix(-0.867 -0.4984 0.4984 -0.867 245.4549 1141.9985)" fill="#231F20" width="7.1" height="104.5"/>
		</g>
		<g>
			<rect x="144.9" y="580" fill="#231F20" width="104.3" height="7.1"/>
		</g>
		<g>
			
				<rect x="223.4" y="625.3" transform="matrix(-0.5017 -0.865 0.865 -0.5017 -130.0401 1182.7079)" fill="#231F20" width="104.5" height="7.1"/>
		</g>
	</g>
	<g id="Layer_2">
		<g>
			<rect x="249.2" y="580" fill="#FFFFFF" width="104.5" height="7.1"/>
		</g>
		<g>
			
				<rect x="170.9" y="535" transform="matrix(-0.5033 -0.8641 0.8641 -0.5033 -130.0421 1002.3033)" fill="#FFFFFF" width="104.3" height="7.1"/>
		</g>
		<g>
			
				<rect x="219.6" y="576.7" transform="matrix(-0.8664 -0.4994 0.4994 -0.8664 102.423 1285.2942)" fill="#FFFFFF" width="7.1" height="104.5"/>
		</g>
	</g>
	<g id="Layer_3">
		<g opacity="0.8" enable-background="new    ">
			<circle fill="#EC008C" cx="375.8" cy="583.7" r="18.8"/>
			<path fill="#FFFFFF" d="M375.8,606.4c-12.4,0-22.6-10.1-22.6-22.6c0-12.5,10.1-22.6,22.6-22.6c12.5,0,22.6,10.1,22.6,22.6
				C398.4,596.2,388.1,606.4,375.8,606.4z M375.8,568.7c-8.3,0-15.4,6.9-15.4,15.4c0,8.5,6.9,15.4,15.4,15.4
				c8.5,0,15.4-6.9,15.4-15.4C391.2,575.4,384.1,568.7,375.8,568.7z"/>
		</g>
		<g opacity="0.8" enable-background="new    ">
			<path fill="#FFC709" d="M321.9,457.8c9,5.1,12.2,16.7,7.1,25.8c-5.1,9-16.7,12.2-25.8,7.1c-9-5.1-12.2-16.7-7.1-25.8
				C301.3,455.7,313,452.6,321.9,457.8z"/>
			<path fill="#010101" d="M312.5,496.4c-3.9,0-7.9-1-11.2-3c-10.6-6.1-14.4-19.7-8.2-30.8c4-6.9,11.4-11.2,19.4-11.2
				c3.9,0,7.9,1,11.2,3c5.1,3,9,7.9,10.4,13.5c1.4,5.8,0.8,11.9-2.2,17C327.9,492.3,320.6,496.4,312.5,496.4z M312.5,458.7
				c-5.5,0-10.6,2.9-13.3,7.5c-4.2,7.4-1.8,16.7,5.8,21c2.2,1.3,5,2.1,7.5,2.1c5.5,0,10.6-2.9,13.3-7.5c2.1-3.7,2.7-7.5,1.4-11.6
				c-1.1-4-3.7-7.2-7.2-9.3C317.8,459.5,315.3,458.7,312.5,458.7z"/>
		</g>
		<g opacity="0.8" enable-background="new    ">
			<path fill="#3861AD" d="M176.3,457.8c9-5.3,20.5-2.2,26,6.9c5.3,9,2.2,20.5-6.9,26c-9,5.3-20.5,2.2-25.8-6.9
				C164.3,474.8,167.3,463.1,176.3,457.8z"/>
			<path fill="#FFFFFF" d="M185.8,496.8c-8,0-15.4-4.2-19.4-11.1c-6.3-10.6-2.7-24.4,8-30.8c3.4-1.9,7.2-3,11.2-3
				c8,0,15.4,4.2,19.4,11.1c6.3,10.6,2.7,24.4-8,30.8C193.6,495.5,189.8,496.8,185.8,496.8z M185.8,458.7c-2.7,0-5.3,0.8-7.5,2.1
				c-7.2,4.2-9.8,13.6-5.5,21c2.7,4.8,7.9,7.5,13.3,7.5c2.7,0,5.3-0.8,7.5-2.1c7.2-4.2,9.8-13.6,5.5-21
				C196.4,461.8,191.4,458.7,185.8,458.7z"/>
		</g>
		<g opacity="0.8" enable-background="new    ">
			<path fill="#EE3324" d="M103.8,583.3c0-10.4,8.3-18.8,18.8-18.8s18.8,8.3,18.8,18.8S133,602,122.6,602
				C112.3,602.2,103.8,593.7,103.8,583.3z"/>
			<path fill="#010101" d="M122.7,605.6L122.7,605.6c-12.4,0-22.6-10.1-22.6-22.6c0-12.5,10.1-22.6,22.6-22.6
				c5.9,0,11.6,2.2,15.7,6.4c4.2,4.2,6.4,9.9,6.4,15.7C145.2,595.4,135.1,605.6,122.7,605.6z M122.9,567.8
				c-8.3,0-15.4,6.9-15.4,15.4c0,8.3,6.9,15.4,15.4,15.4v3.4v-3.4c8.3,0,15.4-6.9,15.4-15.4c0-4.2-1.4-8-4.5-10.9
				C130.8,569.3,126.9,567.8,122.9,567.8z"/>
		</g>
		<g opacity="0.8" enable-background="new    ">
			<path fill="#91D8F5" d="M176.3,709.4c-9-5.1-12.2-16.7-6.9-25.8c5.1-9,16.7-12.2,25.8-6.9c9,5.1,12.2,16.7,6.9,25.8
				C196.9,711.5,185.5,714.5,176.3,709.4z"/>
			<path fill="#FFFFFF" d="M185.8,715.3c-3.9,0-7.9-1-11.2-3c-5.1-3-9-7.9-10.4-13.5c-1.4-5.8-0.8-11.9,2.2-17
				c4-6.9,11.4-11.2,19.4-11.2c4,0,7.9,1,11.2,3c5.1,3,9,7.9,10.4,13.5c1.4,5.8,0.8,11.9-2.2,17
				C201.4,711.1,193.8,715.3,185.8,715.3z M185.8,677.6c-5.5,0-10.6,2.9-13.3,7.5c-2.1,3.7-2.7,7.5-1.4,11.6c1.1,4,3.7,7.2,7.2,9.3
				c2.2,1.3,5,2.1,7.5,2.1c5.5,0,10.6-2.9,13.3-7.5c2.1-3.7,2.7-7.5,1.4-11.6c-1.1-4-3.7-7.2-7.2-9.3
				C191.2,678.4,188.5,677.6,185.8,677.6z"/>
		</g>
		<g opacity="0.8" enable-background="new    ">
			<path fill="#A1D080" d="M321.9,709.4c-9,5.1-20.5,2.1-25.8-6.9c-5.1-9-2.1-20.5,6.9-25.8c9-5.3,20.5-2.1,25.8,6.9
				C334,692.7,330.8,704.2,321.9,709.4z"/>
			<path fill="#010101" d="M312.4,715.5c-8,0-15.4-4.2-19.4-11.2c-3-5.1-3.9-11.2-2.2-17c1.6-5.8,5.1-10.6,10.4-13.6
				c3.4-1.9,7.2-3,11.2-3c8,0,15.4,4.2,19.4,11.2c6.3,10.6,2.4,24.4-8.2,30.8C320.2,714.5,316.4,715.5,312.4,715.5z M312.4,677.8
				c-2.7,0-5.3,0.8-7.5,2.1c-3.7,2.1-6.1,5.3-7.1,9.3c-1.1,4-0.6,8.2,1.4,11.6c2.7,4.8,7.9,7.5,13.3,7.5c2.7,0,5.3-0.8,7.5-2.1
				c7.2-4.2,9.9-13.6,5.5-21C323,680.6,317.8,677.8,312.4,677.8z"/>
		</g>
	</g>
</g>
</svg>
