<?xml version="1.0" encoding="utf-8"?>
<!-- Generator: Adobe Illustrator 18.0.0, SVG Export Plug-In . SVG Version: 6.00 Build 0)  -->
<!DOCTYPE svg PUBLIC "-//W3C//DTD SVG 1.1//EN" "http://www.w3.org/Graphics/SVG/1.1/DTD/svg11.dtd">
<svg version="1.1" xmlns="http://www.w3.org/2000/svg" xmlns:xlink="http://www.w3.org/1999/xlink" x="0px" y="0px"
	 viewBox="0 0 629.1 359.3" enable-background="new 0 0 629.1 359.3" xml:space="preserve">
<g id="Layer_3">
</g>
<g id="Layer_2">
</g>
<g id="Layer_1">
	<rect x="0" y="0" opacity="0.1" fill="#CED7D5" width="629.1" height="359.3"/>
	<g>
		<path fill="#575756" d="M489.2,306.2c0,0,0-215.4,0-235.9c0-33.3-20.4-32.7-20.4-32.7s81.3-1.6,81.3,69.9c0,71.8,0,198.7,0,198.7
			H489.2z"/>
		<path fill="#575756" d="M136.3,297.4c0,0-47.2-60,29.3-139.6c48.8-49.8,54.4-56,71.6-73.9c17.2-18,21.8-30.3,18.5-36.4
			c-3.3-6.2-12.6-8.2-16.7-8.2c0,0,18.8,0.2,30.3,13.8c14.4,17,20.8,51.2-4.1,80.6c-38.4,45.3-105.4,122.2-121.8,140.8
			C128.5,291.2,134,294.2,136.3,297.4z"/>
		<path fill="none" stroke="#322F2C" stroke-width="0.5244" stroke-miterlimit="10" d="M123.8,107.5c28.2-28.8,78.9-68,113.5-68
			c16.7,0,31.4,10.3,31.4,22.4c0,21.2-3.8,31.4-59.6,92.3c-60.3,65.9-112.8,151.9-46.2,151.9c44.9,0,150.2-135.4,192.3-178.2
			c42.2-42.8,75.6-90.4,114.1-90.4c38.5,0,52.6,36.5,52.6,73.1c0,36.5,0,194.9,0,194.9"/>
		<line fill="none" stroke="#322F2C" stroke-width="0.5244" stroke-miterlimit="10" x1="550.1" y1="105.5" x2="489.2" y2="70.3"/>
		
			<line opacity="0.8" fill="none" stroke="#322F2C" stroke-width="0.5244" stroke-miterlimit="10" x1="209.9" y1="197.2" x2="184.7" y2="174"/>
		
			<line opacity="0.8" fill="none" stroke="#322F2C" stroke-width="0.5244" stroke-miterlimit="10" x1="84.4" y1="290.8" x2="294.3" y2="61.3"/>
		
			<line opacity="0.8" fill="none" stroke="#322F2C" stroke-width="0.5244" stroke-miterlimit="10" x1="185.9" y1="175.3" x2="166.5" y2="156.8"/>
		<path fill="none" stroke="#FFFFFF" stroke-width="0.5244" stroke-miterlimit="10" d="M169.2,177.4"/>
		<path opacity="0.8" fill="#FEC800" d="M516.9,101.7c-6.5-2.6-9.7-9.9-7.2-16.5c2.6-6.5,9.9-9.8,16.5-7.2c6.5,2.6,9.7,9.9,7.2,16.5
			C530.8,101.1,523.5,104.3,516.9,101.7z"/>
		<path opacity="0.8" fill="#FEC800" d="M517.3,317.8c-6.5-2.6-9.7-9.9-7.2-16.5c2.6-6.5,9.9-9.7,16.5-7.2c6.5,2.6,9.7,9.9,7.2,16.5
			C531.2,317.2,523.9,320.4,517.3,317.8z"/>
		<circle opacity="0.8" fill="#CED7D5" cx="166.6" cy="156.2" r="12.7"/>
		<path opacity="0.8" fill="#606FB3" d="M205,208.5c-6.5-2.6-9.7-9.9-7.2-16.5c2.6-6.5,9.9-9.7,16.5-7.2c6.5,2.6,9.7,9.9,7.2,16.5
			C218.9,207.9,211.5,211.1,205,208.5z"/>
		<circle opacity="0.8" fill="#FEC800" cx="294.4" cy="61.4" r="12.7"/>
		<path opacity="0.8" fill="#FEC800" d="M184.1,189c-6.5-2.6-9.7-9.9-7.2-16.5c2.6-6.5,9.9-9.8,16.5-7.2c6.5,2.6,9.8,9.9,7.2,16.5
			C198,188.3,190.6,191.5,184.1,189z"/>
	</g>
	<rect x="311.6" y="202.3" fill="none" width="229.4" height="36.1"/>
	<text transform="matrix(1 0 0 1 311.6373 210.6718)" font-family="'Roboto-Regular'" font-size="11.0992">Skeleton</text>
	<rect x="295.9" y="28.5" fill="none" width="229.4" height="37.1"/>
	<text transform="matrix(1 0 0 1 295.9127 36.7851)" font-family="'Roboto-Regular'" font-size="11.0992">Curve off</text>
	<rect x="37.9" y="318" fill="none" width="229.4" height="22.1"/>
	<text transform="matrix(1 0 0 1 37.855 326.2881)" font-family="'Roboto-Regular'" font-size="11.0992">Curve on</text>
	<rect x="110.9" y="127.4" fill="none" width="229.4" height="31.1"/>
	<text transform="matrix(1 0 0 1 110.9273 135.7519)" font-family="'Roboto-Regular'" font-size="11.0992">Pen width</text>
	<rect x="201.6" y="215.3" fill="none" width="229.4" height="29.1"/>
	<text transform="matrix(1 0 0 1 201.5689 223.622)" font-family="'Roboto-Regular'" font-size="11.0992">Pen angle</text>
	<circle opacity="0.8" fill="#E4191C" cx="78.2" cy="295.2" r="12.7"/>
</g>
</svg>
