<?xml version="1.0" encoding="utf-8"?>
<!-- Generator: Adobe Illustrator 18.0.0, SVG Export Plug-In . SVG Version: 6.00 Build 0)  -->
<!DOCTYPE svg PUBLIC "-//W3C//DTD SVG 1.1//EN" "http://www.w3.org/Graphics/SVG/1.1/DTD/svg11.dtd">
<svg version="1.1" id="Layer_1" xmlns="http://www.w3.org/2000/svg" xmlns:xlink="http://www.w3.org/1999/xlink" x="0px" y="0px"
	 viewBox="29 235.9 556 371.5" enable-background="new 29 235.9 556 371.5" xml:space="preserve">
<path d="M451.7,558.6v2.3h24v-2.3H451.7z M460.5,579.9c0,5.4,2.5,9.5,7.6,9.5c2.5,0,4.4-0.6,6.7-1.7l-1.3-2.1
	c-1.6,0.9-3,1.3-4.8,1.3c-4,0-5.7-3.3-5.7-7.6v-30.8l-2.5,1.2L460.5,579.9L460.5,579.9z"/>
<path d="M533.9,585.5c3.5,2.6,6.5,3.7,10.8,3.7c6.5,0,11.4-2.5,11.4-8.4c-0.1-5.2-3.9-7.8-9.1-9.5c-4.4-1.6-8-3.3-8-7.7
	c0-3.7,2.8-5.6,6.7-5.6c3,0,5.2,0.7,7.8,2.3l1.6-2.1c-3-1.8-5.4-2.8-8.8-2.8c-5.7,0-10,2.7-10,8.1c0,5.2,3.3,8.2,8.3,10
	c4.5,1.6,8.5,2.8,8.5,7.4c0,4-3.3,5.7-7.8,5.7c-3.9,0-6.5-1.1-9.7-3.3L533.9,585.5z"/>
<path d="M502.8,588.7h2.7v-21.4c0-7.5-4.9-12.1-12.4-12.1c-4.5,0-7.3,1.5-10.5,4.5l1.6,2c2.6-2.5,4.9-4,8.6-4c6.1,0,10,3.8,10,9.9
	L502.8,588.7L502.8,588.7z M504.1,578.2c-3.6,4.5-6.4,8.4-12.2,8.4c-4.9,0-8.6-2.3-8.6-6.9c0-5.2,4.3-7.2,9.9-7.8
	c4.2-0.4,7.2-0.5,11.5-0.6v-2.2c-4.1,0.1-7,0.1-11,0.5c-7.3,0.6-12.7,3.5-12.7,10.2c0,6,4.2,9.5,10.4,9.5c6.4,0,10-3.7,13.8-8.9
	L504.1,578.2z"/>
<path d="M517.1,556.1h-2.4V589h2.4V556.1z M516.5,564.7c2.7-4.7,6.4-6.9,11.8-6.9l0.6-2.7c-6.2,0-10.6,2.1-13.4,7.6L516.5,564.7z"/>
<path d="M424.9,585.5c3.5,2.6,6.5,3.7,10.8,3.7c6.5,0,11.4-2.5,11.4-8.4c-0.1-5.2-3.9-7.8-9.1-9.5c-4.4-1.6-8-3.3-8-7.7
	c0-3.7,2.8-5.6,6.7-5.6c3,0,5.2,0.7,7.8,2.3l1.6-2.1c-3-1.8-5.4-2.8-8.8-2.8c-5.7,0-10,2.7-10,8.1c0,5.2,3.3,8.2,8.3,10
	c4.5,1.6,8.5,2.8,8.5,7.4c0,4-3.4,5.7-7.8,5.7c-3.9,0-6.5-1.1-9.7-3.3L424.9,585.5z"/>
<path d="M417.7,473c23.2,17.5,43.1,24.4,72.1,24.4c43.1,0,75.7-17.1,75.7-56.1c-0.4-35-26-51.7-60.6-63.5
	c-29.3-10.6-53.3-21.6-53.3-51.3c0-24.4,18.7-37.1,44.8-37.1c20.4,0,34.2,4.9,51.7,15.5l10.6-13.9c-19.9-12.2-35.8-18.7-59-18.7
	c-38.3,0-66.3,17.9-66.3,53.7c0,35,21.6,54.5,55.4,66.7c30.1,10.2,56.6,18.7,56.6,48.9c0,26.4-22.3,37.8-51.7,37.8
	c-26,0-43.6-7.4-64.7-22.3L417.7,473z"/>
<path d="M238.9,585.7c3.5,2.6,6.5,3.7,10.9,3.7c6.4,0,11.3-2.6,11.3-8.4c-0.1-5.4-3.7-8.1-9.1-9.8c-4.9-1.8-9.4-2.8-9.4-7.7
	c0-4.5,3.5-6.9,8.4-6.9c3.4,0,5.6,1,8.5,2.7l0.6-1.1c-3-1.8-5.4-2.8-8.9-2.8c-5.7,0-9.8,2.7-9.8,8.1c0,5.4,3.4,8.3,8.6,10.3
	c4.9,1.7,9.8,2.3,9.8,7.3s-4.2,7.1-9.8,7.1c-4.1,0-6.9-1.1-10.3-3.5L238.9,585.7z"/>
<path d="M347.7,585.7c3.5,2.6,6.5,3.7,10.9,3.7c6.4,0,11.3-2.6,11.3-8.4c-0.1-5.4-3.7-8.1-9.1-9.8c-4.9-1.8-9.4-2.8-9.4-7.7
	c0-4.5,3.5-6.9,8.4-6.9c3.4,0,5.6,1,8.5,2.7l0.6-1.1c-3-1.8-5.4-2.8-8.9-2.8c-5.7,0-9.8,2.7-9.8,8.1c0,5.4,3.4,8.3,8.6,10.3
	c4.9,1.7,9.8,2.3,9.8,7.3s-4.2,7.1-9.8,7.1c-4.1,0-6.9-1.1-10.3-3.5L347.7,585.7z"/>
<rect x="39.4" y="539.7" fill="none" width="248" height="67.7"/>
<g enable-background="new    ">
	<path d="M47.8,584.7c3.3,2.3,6.1,3.4,10,3.4c5.3,0,9.6-2.2,9.6-7c0-4.7-4.3-6.1-9-7.7c-5.1-1.8-9-4.3-9-9.4s4.1-7.9,9.6-7.9
		c3.4,0,5.8,1,8.7,2.8l-0.6,1.1c-2.8-1.7-5.1-2.6-8.3-2.6c-4.7,0-8.2,2.3-8.2,6.7c0,4.8,4,6.7,8.7,8.4c5,1.7,9.3,3.7,9.3,8.7
		c0,5.7-4.9,8.2-11.1,8.2c-4.2,0-7.2-1-10.6-3.6L47.8,584.7z"/>
	<path d="M97.6,558.8v1.3H74.1v-1.3H97.6z M82.7,550.3l1.3-0.8v30.1c0,4.8,2,8.2,6.4,8.2c2.3,0,3.8-0.5,5.8-1.6l0.5,1
		c-2.3,1.1-4,1.7-6.6,1.7c-5,0-7.5-3.9-7.5-9.3V550.3z"/>
	<path d="M127,580.6c-3.7,5.1-7.3,8.7-13.5,8.7c-6,0-10.2-3.5-10.2-9.3c0-6.4,5.5-9.2,12.4-9.7c3.9-0.4,6.9-0.4,10.8-0.5v1.1
		c-4,0.1-7,0.1-10.9,0.5c-6.1,0.6-10.9,2.9-10.9,8.5c0,5.1,3.8,8.2,9.1,8.2c5.8,0,9-3.8,12.7-8.4L127,580.6z M126.1,568.2
		c0-6.6-4.4-10.9-11-10.9c-3.8,0-6.5,1.4-9.3,4l-0.8-1c3-2.9,6.1-4.3,10.3-4.3c7.3,0,12.1,4.6,12.1,11.8v20.9h-1.3V568.2z"/>
	<path d="M138.6,588.7h-1.3v-32.1h1.3V588.7z M137.7,563.2c2.6-5.2,7.2-7.4,13.1-7.4l-0.2,1.4c-5.5,0-9.6,2-12.3,6.7L137.7,563.2z"
		/>
	<path d="M157.2,584.7c3.3,2.3,6.1,3.4,10,3.4c5.3,0,9.6-2.2,9.6-7c0-4.7-4.3-6.1-9-7.7c-5.1-1.8-9-4.3-9-9.4s4.1-7.9,9.6-7.9
		c3.4,0,5.8,1,8.7,2.8l-0.6,1.1c-2.8-1.7-5.1-2.6-8.3-2.6c-4.7,0-8.2,2.3-8.2,6.7c0,4.8,4,6.7,8.7,8.4c5,1.7,9.3,3.7,9.3,8.7
		c0,5.7-4.9,8.2-11.1,8.2c-4.2,0-7.2-1-10.6-3.6L157.2,584.7z"/>
</g>
<g>
	<path d="M48.4,466.4c22.3,15.8,40.9,22.7,67.7,22.7c35.7,0,64.5-14.6,64.5-47c0-31.6-28.8-40.9-60.4-51.9
		C86.2,378,59.5,361,59.5,326.5s28-53.1,64.8-53.1c22.7,0,39.3,6.9,58.8,18.7l-4,7.3c-18.7-11.4-34.1-17.9-56-17.9
		c-31.6,0-55.6,15.8-55.6,45.4c0,32,27.2,45,58.8,56.4c33.7,11.4,62.4,24.7,62.9,58.8c0,38.1-32.8,55.5-74.6,55.5
		c-28.4,0-48.6-6.9-71.8-24.3L48.4,466.4z"/>
</g>
<path d="M282.3,589.2c-5.1,0-7.6-4-7.6-9.5v-20.1h-8.8v-1.3h8.8v-8.6l1.3-0.8v9.5h13.9v1.3H276v20c0,4.9,2.1,8.4,6.6,8.4
	c2.3,0,3.9-0.5,5.9-1.6l0.6,1.1C286.7,588.7,284.9,589.2,282.3,589.2z"/>
<path d="M318.3,581.7c-3.5,4.5-7.1,7.7-12.9,7.7c-6.1,0-10.4-3.5-10.4-9.5c0-6.5,5.6-9.4,12.7-10c3.9-0.4,6.8-0.4,10.6-0.5v-1.6
	c0-6.8-4.5-11.2-11.2-11.2c-3.9,0-6.6,1.4-9.5,4l-0.8-1c3-3,6.2-4.4,10.5-4.4c7.4,0,12.4,4.7,12.4,12.1v21.3h-1.3L318.3,581.7
	L318.3,581.7z M318.3,580.1v-9.4c-3.9,0.1-6.8,0.1-10.7,0.5c-6.2,0.6-11.2,3-11.2,8.7c0,5.2,3.9,8.3,9.3,8.3
	C311.4,588.3,314.6,584.5,318.3,580.1z"/>
<path d="M328.9,588.8v-32.7h1.3v5.1c2.8-4.2,7-5.9,12.4-5.9l-0.2,1.4c-5.4,0-9.5,1.8-12.2,6.3v25.9L328.9,588.8L328.9,588.8z"/>
<path d="M231.6,472.6c23.1,17.5,43.1,24.4,71.9,24.4c42.2,0,74.7-17,74.7-55.6c-0.4-35.4-24.7-53.2-59.7-64.6
	c-32.1-11.8-62.2-18.2-62.2-50.8c0-30.1,23.5-45.5,55.6-45.5c22.3,0,37,6.5,56.1,17.9l4-7.3c-19.9-12.2-35.7-18.7-58.9-18.7
	c-37.8,0-65,17.9-65,53.2c0,35.7,22.3,55.2,56.8,67.8c32.5,11,64.6,15.4,64.6,47.9c0,32.9-28,47.1-64.6,47.1
	c-27.2,0-45.9-6.9-67.8-22.8L231.6,472.6z"/>
<path opacity="0.6" enable-background="new    " d="M42.6,473.3c23.1,17.5,43.1,24.4,71.9,24.4c42.2,0,74.7-17,74.7-55.6
	c-0.4-35.4-24.7-53.2-59.7-64.6c-32.1-11.8-62.2-18.2-62.2-50.8c0-30.1,23.5-45.5,55.6-45.5c22.3,0,37,6.5,56.1,17.9l4-7.3
	c-19.9-12.2-35.7-18.7-58.9-18.7c-37.8,0-65,17.9-65,53.2c0,35.7,22.3,55.2,56.8,67.8c32.5,11,64.6,15.4,64.6,47.9
	c0,32.9-28,47.1-64.6,47.1c-27.2,0-45.9-6.9-67.8-22.8L42.6,473.3z"/>
<rect x="261.5" y="249.4" fill="none" width="100.5" height="39"/>
<text transform="matrix(1 0 0 1 289.9766 254.4183)" font-family="'HelveticaNeue-Light'" font-size="7.0754">Local Mode</text>
<rect x="110.6" y="303.9" fill="none" width="59.3" height="58.2"/>
<text transform="matrix(1 0 0 1 110.5606 308.4956)" font-family="'HelveticaNeue-Light'" font-size="6.4199">angle =     </text>
<text transform="matrix(1 0 0 1 110.5606 317.0668)" font-family="'HelveticaNeue-Light'" font-size="6.4199">width =  </text>
<text transform="matrix(1 0 0 1 110.5606 325.638)" font-family="'HelveticaNeue-Light'" font-size="6.4199">tension out =     </text>
<text transform="matrix(1 0 0 1 158.2978 325.638)" font-family="'HelveticaNeue-Light'" font-size="6.4199"> </text>
<text transform="matrix(1 0 0 1 159.4405 325.638)" font-family="'HelveticaNeue-Light'" font-size="6.4199"> </text>
<text transform="matrix(1 0 0 1 110.5606 334.2083)" font-family="'HelveticaNeue-Light'" font-size="6.4199">direction out =     </text>
<text transform="matrix(1 0 0 1 162.5791 334.2083)" font-family="'HelveticaNeue-Light'" font-size="6.4199"> </text>
<text transform="matrix(1 0 0 1 110.5606 342.7792)" font-family="'HelveticaNeue-Light'" font-size="6.4199">tension in =     </text>
<text transform="matrix(1 0 0 1 153.8994 342.7792)" font-family="'HelveticaNeue-Light'" font-size="6.4199"> </text>
<text transform="matrix(1 0 0 1 155.0425 342.7792)" font-family="'HelveticaNeue-Light'" font-size="6.4199"> </text>
<text transform="matrix(1 0 0 1 110.5606 351.3504)" font-family="'HelveticaNeue-Light'" font-size="6.4199">direction in =</text>
<text transform="matrix(1 0 0 1 110.5606 359.9213)" font-family="'HelveticaNeue-Light'" font-size="6.4199">contrast =      </text>
<text transform="matrix(1 0 0 1 151.4034 359.9213)" font-family="'HelveticaNeue-Light'" font-size="6.4199"> </text>
<text transform="matrix(1 0 0 1 152.5459 359.9213)" font-family="'HelveticaNeue-Light'" font-size="6.4199"> </text>
<rect x="450.9" y="249.4" fill="none" width="100.5" height="39"/>
<text transform="matrix(1 0 0 1 477.3321 254.4183)" font-family="'HelveticaNeue-Light'" font-size="7.0754">Global Mode</text>
<g opacity="0.8">
	<circle fill="#8FFF8D" cx="145.6" cy="358.1" r="3.3"/>
	<path d="M145.6,361.6c-2,0-3.6-1.6-3.6-3.6s1.6-3.6,3.6-3.6c2,0,3.6,1.6,3.6,3.6C149.1,360,147.5,361.6,145.6,361.6z M145.6,355.1
		c-1.6,0-2.9,1.3-2.9,2.9c0,1.6,1.3,2.9,2.9,2.9c1.6,0,2.9-1.3,2.9-2.9C148.5,356.4,147.1,355.1,145.6,355.1z"/>
</g>
<g opacity="0.8">
	<circle fill="#C3D0CD" cx="137.9" cy="306.9" r="3.3"/>
	<path d="M137.9,310.5c-2,0-3.6-1.6-3.6-3.6s1.6-3.6,3.6-3.6c2,0,3.6,1.6,3.6,3.6S139.9,310.5,137.9,310.5z M137.9,304
		c-1.6,0-2.9,1.3-2.9,2.9c0,1.6,1.3,2.9,2.9,2.9s2.9-1.3,2.9-2.9C140.8,305.3,139.5,304,137.9,304z"/>
</g>
<g opacity="0.8">
	<circle fill="#5578FF" cx="137.8" cy="315.6" r="3.3"/>
	<path d="M137.8,319.2c-2,0-3.6-1.6-3.6-3.6c0-2,1.6-3.6,3.6-3.6c2,0,3.6,1.6,3.6,3.6C141.4,317.6,139.8,319.2,137.8,319.2z
		 M137.8,312.7c-1.6,0-2.9,1.3-2.9,2.9c0,1.6,1.3,2.9,2.9,2.9c1.6,0,2.9-1.3,2.9-2.9C140.7,314,139.4,312.7,137.8,312.7z"/>
</g>
<g opacity="0.8">
	<circle fill="#FFC600" cx="154.4" cy="323.8" r="3.3"/>
	<path d="M154.4,327.4c-2,0-3.6-1.6-3.6-3.6s1.6-3.6,3.6-3.6c2,0,3.6,1.6,3.6,3.6C158,325.8,156.3,327.4,154.4,327.4z M154.4,320.9
		c-1.6,0-2.9,1.3-2.9,2.9c0,1.6,1.3,2.9,2.9,2.9s2.9-1.3,2.9-2.9C157.3,322.2,156,320.9,154.4,320.9z"/>
</g>
<g opacity="0.8">
	<circle fill="#FFC600" cx="158.6" cy="332.4" r="3.3"/>
	<path d="M158.6,335.9c-2,0-3.6-1.6-3.6-3.6c0-2,1.6-3.6,3.6-3.6c2,0,3.6,1.6,3.6,3.6C162.2,334.3,160.6,335.9,158.6,335.9z
		 M158.6,329.4c-1.6,0-2.9,1.3-2.9,2.9c0,1.6,1.3,2.9,2.9,2.9s2.9-1.3,2.9-2.9C161.5,330.8,160.2,329.4,158.6,329.4z"/>
</g>
<g opacity="0.8">
	<circle fill="#FF161C" cx="150.1" cy="341" r="3.3"/>
	<path d="M150.1,344.6c-2,0-3.6-1.6-3.6-3.6c0-2,1.6-3.6,3.6-3.6c2,0,3.6,1.6,3.6,3.6C153.6,343,152.1,344.6,150.1,344.6z
		 M150.1,338.1c-1.6,0-2.9,1.3-2.9,2.9c0,1.6,1.3,2.9,2.9,2.9c1.6,0,2.9-1.3,2.9-2.9C153,339.5,151.7,338.1,150.1,338.1z"/>
</g>
<g opacity="0.8">
	<circle fill="#FF161C" cx="154.4" cy="349.4" r="3.3"/>
	<path d="M154.4,353c-2,0-3.6-1.6-3.6-3.6s1.6-3.6,3.6-3.6c2,0,3.6,1.6,3.6,3.6C158,351.4,156.3,353,154.4,353z M154.4,346.5
		c-1.6,0-2.9,1.3-2.9,2.9c0,1.6,1.3,2.9,2.9,2.9s2.9-1.3,2.9-2.9S156,346.5,154.4,346.5z"/>
</g>
<g opacity="0.8">
	<circle fill="#FF161C" cx="160.2" cy="401.5" r="3.3"/>
	<path d="M160.2,405.1c-2,0-3.6-1.6-3.6-3.6s1.6-3.6,3.6-3.6c2,0,3.6,1.6,3.6,3.6C163.8,403.4,162.1,405.1,160.2,405.1z
		 M160.2,398.6c-1.6,0-2.9,1.3-2.9,2.9c0,1.6,1.3,2.9,2.9,2.9s2.9-1.3,2.9-2.9C163.1,399.9,161.8,398.6,160.2,398.6z"/>
</g>
<path fill="none" stroke="#FF00FF" stroke-miterlimit="10" d="M72.1,355.7"/>
<g>
	<g opacity="0.8">
		<circle fill="#C3D0CD" cx="117.5" cy="395" r="3.3"/>
		<path d="M117.5,398.6c-2,0-3.6-1.6-3.6-3.6s1.6-3.6,3.6-3.6s3.6,1.6,3.6,3.6S119.5,398.6,117.5,398.6z M117.5,392.1
			c-1.6,0-2.9,1.3-2.9,2.9c0,1.6,1.3,2.9,2.9,2.9c1.6,0,2.9-1.3,2.9-2.9C120.4,393.5,119.1,392.1,117.5,392.1z"/>
	</g>
	<g opacity="0.8">
		<circle fill="#8FFF8D" cx="114.8" cy="381.3" r="3.3"/>
		<path d="M114.8,384.8c-2,0-3.6-1.6-3.6-3.6s1.6-3.6,3.6-3.6s3.6,1.6,3.6,3.6C118.3,383.3,116.7,384.8,114.8,384.8z M114.8,378.3
			c-1.6,0-2.9,1.3-2.9,2.9c0,1.6,1.3,2.9,2.9,2.9s2.9-1.3,2.9-2.9C117.7,379.7,116.4,378.3,114.8,378.3z"/>
	</g>
	<g opacity="0.8">
		<circle fill="#8FFF8D" cx="131.9" cy="393.2" r="3.3"/>
		<path d="M131.9,396.7c-2,0-3.6-1.6-3.6-3.6s1.6-3.6,3.6-3.6c2,0,3.6,1.6,3.6,3.6S133.8,396.7,131.9,396.7z M131.9,390.3
			c-1.6,0-2.9,1.3-2.9,2.9c0,1.6,1.3,2.9,2.9,2.9c1.6,0,2.9-1.3,2.9-2.9C134.8,391.6,133.5,390.3,131.9,390.3z"/>
	</g>
	<g opacity="0.8">
		<circle fill="#5578FF" cx="129.7" cy="377.7" r="3.3"/>
		<path d="M129.7,381.2c-2,0-3.6-1.6-3.6-3.6s1.6-3.6,3.6-3.6c2,0,3.6,1.6,3.6,3.6C133.2,379.7,131.7,381.2,129.7,381.2z
			 M129.7,374.7c-1.6,0-2.9,1.3-2.9,2.9c0,1.6,1.3,2.9,2.9,2.9s2.9-1.3,2.9-2.9C132.6,376.1,131.2,374.7,129.7,374.7z"/>
	</g>
	<g opacity="0.8">
		<circle fill="#FFC600" cx="86.1" cy="372.8" r="3.3"/>
		<path d="M86.1,376.4c-2,0-3.6-1.6-3.6-3.6s1.6-3.6,3.6-3.6s3.6,1.6,3.6,3.6S88.1,376.4,86.1,376.4z M86.1,369.9
			c-1.6,0-2.9,1.3-2.9,2.9c0,1.6,1.3,2.9,2.9,2.9c1.6,0,2.9-1.3,2.9-2.9C89,371.3,87.7,369.9,86.1,369.9z"/>
	</g>
	<g opacity="0.8">
		
			<rect x="126.3" y="376.3" transform="matrix(0.8277 0.5612 -0.5612 0.8277 236.296 -5.1962)" fill="#FFFFFF" width="0.6" height="11.8"/>
		<g>
			
				<rect x="121.9" y="394" transform="matrix(0.9316 0.3634 -0.3634 0.9316 152.9965 -24.603)" fill="#FFFFFF" width="39.9" height="0.6"/>
			
				<rect x="84.7" y="379.5" transform="matrix(0.9318 0.3629 -0.3629 0.9318 144.9754 -12.0894)" fill="#FFFFFF" width="39.9" height="0.6"/>
		</g>
		
			<rect x="120.3" y="386.3" transform="matrix(0.8285 0.5599 -0.5599 0.8285 239.627 -0.4931)" fill="#FFFFFF" width="0.6" height="9.5"/>
	</g>
	<path fill="none" stroke="#FFFFFF" stroke-width="2" stroke-miterlimit="10" d="M125.4,392.1"/>
	
		<rect x="112.8" y="386.9" transform="matrix(0.8278 0.561 -0.561 0.8278 238.5287 -2.6143)" opacity="0.8" fill="#FFFFFF" enable-background="new    " width="21.4" height="0.6"/>
</g>
<g>
	<g opacity="0.8">
		<circle fill="#FF161C" cx="351.1" cy="401.5" r="3.3"/>
		<path d="M351.1,405.1c-2,0-3.6-1.6-3.6-3.6s1.6-3.6,3.6-3.6c2,0,3.6,1.6,3.6,3.6C354.7,403.4,353.1,405.1,351.1,405.1z
			 M351.1,398.6c-1.6,0-2.9,1.3-2.9,2.9c0,1.6,1.3,2.9,2.9,2.9c1.6,0,2.9-1.3,2.9-2.9C354,399.9,352.8,398.6,351.1,398.6z"/>
	</g>
	<g>
		<g opacity="0.8">
			<circle fill="#C3D0CD" cx="308.5" cy="395" r="3.3"/>
			<path d="M308.5,398.6c-2,0-3.6-1.6-3.6-3.6s1.6-3.6,3.6-3.6c2,0,3.6,1.6,3.6,3.6C312,397,310.5,398.6,308.5,398.6z M308.5,392.1
				c-1.6,0-2.9,1.3-2.9,2.9c0,1.6,1.3,2.9,2.9,2.9c1.6,0,2.9-1.3,2.9-2.9C311.4,393.5,310,392.1,308.5,392.1z"/>
		</g>
		<g opacity="0.8">
			<circle fill="#8FFF8D" cx="305.7" cy="381.3" r="3.3"/>
			<path d="M305.7,384.8c-2,0-3.6-1.6-3.6-3.6s1.6-3.6,3.6-3.6c2,0,3.6,1.6,3.6,3.6C309.3,383.3,307.6,384.8,305.7,384.8z
				 M305.7,378.3c-1.6,0-2.9,1.3-2.9,2.9c0,1.6,1.3,2.9,2.9,2.9c1.6,0,2.9-1.3,2.9-2.9C308.6,379.7,307.3,378.3,305.7,378.3z"/>
		</g>
		<g opacity="0.8">
			<circle fill="#8FFF8D" cx="322.8" cy="393.2" r="3.3"/>
			<path d="M322.8,396.7c-2,0-3.6-1.6-3.6-3.6s1.6-3.6,3.6-3.6s3.6,1.6,3.6,3.6S324.8,396.7,322.8,396.7z M322.8,390.3
				c-1.6,0-2.9,1.3-2.9,2.9c0,1.6,1.3,2.9,2.9,2.9c1.6,0,2.9-1.3,2.9-2.9C325.7,391.6,324.4,390.3,322.8,390.3z"/>
		</g>
		<g opacity="0.8">
			<circle fill="#5578FF" cx="320.6" cy="377.7" r="3.3"/>
			<path d="M320.6,381.2c-2,0-3.6-1.6-3.6-3.6s1.6-3.6,3.6-3.6s3.6,1.6,3.6,3.6C324.2,379.7,322.6,381.2,320.6,381.2z M320.6,374.7
				c-1.6,0-2.9,1.3-2.9,2.9c0,1.6,1.3,2.9,2.9,2.9c1.6,0,2.9-1.3,2.9-2.9C323.5,376.1,322.2,374.7,320.6,374.7z"/>
		</g>
		<g opacity="0.8">
			<circle fill="#FFC600" cx="277" cy="372.8" r="3.3"/>
			<path d="M277,376.4c-2,0-3.6-1.6-3.6-3.6s1.6-3.6,3.6-3.6c2,0,3.6,1.6,3.6,3.6S279,376.4,277,376.4z M277,369.9
				c-1.6,0-2.9,1.3-2.9,2.9c0,1.6,1.3,2.9,2.9,2.9c1.6,0,2.9-1.3,2.9-2.9C279.9,371.3,278.7,369.9,277,369.9z"/>
		</g>
		<g opacity="0.8">
			
				<rect x="317.2" y="376.2" transform="matrix(0.8277 0.5612 -0.5612 0.8277 269.1772 -112.3501)" fill="#FFFFFF" width="0.6" height="11.8"/>
			<g>
				
					<rect x="312.8" y="394" transform="matrix(0.9316 0.3634 -0.3634 0.9316 166.0448 -93.9777)" fill="#FFFFFF" width="39.9" height="0.6"/>
				
					<rect x="275.7" y="379.5" transform="matrix(0.9318 0.3629 -0.3629 0.9318 158.0027 -81.3896)" fill="#FFFFFF" width="39.9" height="0.6"/>
			</g>
			
				<rect x="311.2" y="386.2" transform="matrix(0.8284 0.5602 -0.5602 0.8284 272.4865 -107.4224)" fill="#FFFFFF" width="0.6" height="9.5"/>
		</g>
		<path fill="none" stroke="#FFFFFF" stroke-width="2" stroke-miterlimit="10" d="M316.3,392.1"/>
		
			<rect x="303.8" y="386.9" transform="matrix(0.8278 0.561 -0.561 0.8278 271.3839 -109.7189)" opacity="0.8" fill="#FFFFFF" enable-background="new    " width="21.4" height="0.6"/>
	</g>
</g>
<g>
	<g opacity="0.8">
		<circle fill="#FF161C" cx="535.5" cy="401.5" r="3.3"/>
		<path d="M535.5,405.1c-2,0-3.6-1.6-3.6-3.6s1.6-3.6,3.6-3.6s3.6,1.6,3.6,3.6C539.1,403.4,537.5,405.1,535.5,405.1z M535.5,398.6
			c-1.6,0-2.9,1.3-2.9,2.9c0,1.6,1.3,2.9,2.9,2.9c1.6,0,2.9-1.3,2.9-2.9C538.4,399.9,537.2,398.6,535.5,398.6z"/>
	</g>
	<g>
		<g opacity="0.8">
			<circle fill="#C3D0CD" cx="492.9" cy="395" r="3.3"/>
			<path d="M492.9,398.6c-2,0-3.6-1.6-3.6-3.6s1.6-3.6,3.6-3.6c2,0,3.6,1.6,3.6,3.6C496.4,397,494.9,398.6,492.9,398.6z
				 M492.9,392.1c-1.6,0-2.9,1.3-2.9,2.9c0,1.6,1.3,2.9,2.9,2.9c1.6,0,2.9-1.3,2.9-2.9C495.8,393.5,494.5,392.1,492.9,392.1z"/>
		</g>
		<g opacity="0.8">
			<circle fill="#8FFF8D" cx="490.1" cy="381.3" r="3.3"/>
			<path d="M490.1,384.8c-2,0-3.6-1.6-3.6-3.6s1.6-3.6,3.6-3.6c2,0,3.6,1.6,3.6,3.6C493.7,383.3,492,384.8,490.1,384.8z
				 M490.1,378.3c-1.6,0-2.9,1.3-2.9,2.9c0,1.6,1.3,2.9,2.9,2.9c1.6,0,2.9-1.3,2.9-2.9C493,379.7,491.7,378.3,490.1,378.3z"/>
		</g>
		<g opacity="0.8">
			<circle fill="#8FFF8D" cx="507.2" cy="393.2" r="3.3"/>
			<path d="M507.2,396.7c-2,0-3.6-1.6-3.6-3.6s1.6-3.6,3.6-3.6c2,0,3.6,1.6,3.6,3.6C510.8,395.2,509.2,396.7,507.2,396.7z
				 M507.2,390.3c-1.6,0-2.9,1.3-2.9,2.9c0,1.6,1.3,2.9,2.9,2.9c1.6,0,2.9-1.3,2.9-2.9C510.1,391.6,508.8,390.3,507.2,390.3z"/>
		</g>
		<g opacity="0.8">
			<circle fill="#5578FF" cx="505" cy="377.7" r="3.3"/>
			<path d="M505,381.2c-2,0-3.6-1.6-3.6-3.6s1.6-3.6,3.6-3.6c2,0,3.6,1.6,3.6,3.6C508.6,379.7,507,381.2,505,381.2z M505,374.7
				c-1.6,0-2.9,1.3-2.9,2.9c0,1.6,1.3,2.9,2.9,2.9c1.6,0,2.9-1.3,2.9-2.9C507.9,376.1,506.6,374.7,505,374.7z"/>
		</g>
		<g opacity="0.8">
			<circle fill="#FFC600" cx="461.4" cy="372.8" r="3.3"/>
			<path d="M461.4,376.4c-2,0-3.6-1.6-3.6-3.6s1.6-3.6,3.6-3.6c2,0,3.6,1.6,3.6,3.6S463.4,376.4,461.4,376.4z M461.4,369.9
				c-1.6,0-2.9,1.3-2.9,2.9c0,1.6,1.3,2.9,2.9,2.9c1.6,0,2.9-1.3,2.9-2.9C464.3,371.3,463.1,369.9,461.4,369.9z"/>
		</g>
		<g opacity="0.8">
			
				<rect x="501.6" y="376.2" transform="matrix(0.8277 0.5612 -0.5612 0.8277 300.948 -215.8459)" fill="#FFFFFF" width="0.6" height="11.8"/>
			<g>
				
					<rect x="497.2" y="394" transform="matrix(0.9316 0.3634 -0.3634 0.9316 178.6514 -160.9892)" fill="#FFFFFF" width="39.9" height="0.6"/>
				
					<rect x="460.1" y="379.5" transform="matrix(0.9318 0.3629 -0.3629 0.9318 170.5782 -148.3028)" fill="#FFFFFF" width="39.9" height="0.6"/>
			</g>
			
				<rect x="495.7" y="386.3" transform="matrix(0.8281 0.5606 -0.5606 0.8281 304.4559 -210.8344)" fill="#FFFFFF" width="0.6" height="9.5"/>
		</g>
		<path fill="none" stroke="#FFFFFF" stroke-width="2" stroke-miterlimit="10" d="M500.7,392.1"/>
		
			<rect x="488.2" y="386.9" transform="matrix(0.8278 0.561 -0.561 0.8278 303.1328 -213.1716)" opacity="0.8" fill="#FFFFFF" enable-background="new    " width="21.4" height="0.6"/>
	</g>
</g>
</svg>
