<?xml version="1.0" encoding="utf-8"?>
<!-- Generator: Adobe Illustrator 16.0.0, SVG Export Plug-In . SVG Version: 6.00 Build 0)  -->
<!DOCTYPE svg PUBLIC "-//W3C//DTD SVG 1.1//EN" "http://www.w3.org/Graphics/SVG/1.1/DTD/svg11.dtd" [
	<!ENTITY ns_extend "http://ns.adobe.com/Extensibility/1.0/">
	<!ENTITY ns_ai "http://ns.adobe.com/AdobeIllustrator/10.0/">
	<!ENTITY ns_graphs "http://ns.adobe.com/Graphs/1.0/">
	<!ENTITY ns_vars "http://ns.adobe.com/Variables/1.0/">
	<!ENTITY ns_imrep "http://ns.adobe.com/ImageReplacement/1.0/">
	<!ENTITY ns_sfw "http://ns.adobe.com/SaveForWeb/1.0/">
	<!ENTITY ns_custom "http://ns.adobe.com/GenericCustomNamespace/1.0/">
	<!ENTITY ns_adobe_xpath "http://ns.adobe.com/XPath/1.0/">
]>
<svg version="1.1" id="Layer_1" xmlns:x="&ns_extend;" xmlns:i="&ns_ai;" xmlns:graph="&ns_graphs;"
	 xmlns="http://www.w3.org/2000/svg" xmlns:xlink="http://www.w3.org/1999/xlink" x="0px" y="0px" width="841.89px"
	 height="595.28px" viewBox="0 0 841.89 595.28" enable-background="new 0 0 841.89 595.28" xml:space="preserve">
<metadata>
	<sfw  xmlns="&ns_sfw;">
		<slices></slices>
		<sliceSourceBounds  height="507.868" width="743.841" x="55.724" y="-547.025" bottomLeftOrigin="true"></sliceSourceBounds>
	</sfw>
</metadata>
<path d="M638.845,477.856v3.211h33.922v-3.211H638.845z M651.251,508.048c0,7.723,3.557,13.447,10.758,13.447
	c3.644,0,6.159-0.781,9.457-2.43l-1.822-2.949c-2.343,1.301-4.165,1.91-6.768,1.91c-5.552,0-8.068-4.6-8.068-10.674v-43.465
	l-3.557,1.734V508.048z"/>
<path d="M755.128,516.028c4.921,3.713,9.151,5.182,15.282,5.182c9.151,0,16.059-3.627,16.059-11.914
	c-0.086-7.426-5.525-10.967-12.864-13.471c-6.217-2.244-11.312-4.576-11.312-10.879c0-5.18,3.973-7.855,9.498-7.855
	c4.316,0,7.253,1.035,10.966,3.279l2.244-2.936c-4.23-2.59-7.598-3.971-12.519-3.971c-8.117,0-14.073,3.799-14.073,11.396
	c0,7.426,4.574,11.57,11.742,14.16c6.389,2.158,12.001,3.971,12.001,10.361c0,5.611-4.749,8.027-10.966,8.027
	c-5.525,0-9.238-1.553-13.729-4.748L755.128,516.028z"/>
<path d="M711.142,520.505h3.825v-30.168c0-10.607-6.868-17.127-17.562-17.127c-6.26,0-10.346,2.086-14.866,6.434l2.347,2.781
	c3.738-3.477,7.043-5.564,12.172-5.564c8.607,0,14.084,5.391,14.084,13.998V520.505z M712.968,505.638
	c-5.13,6.434-9.129,11.91-17.301,11.91c-7.043,0-12.172-3.217-12.172-9.736c0-7.303,6.086-10.172,13.997-10.955
	c5.998-0.521,10.172-0.695,16.171-0.869v-3.129c-5.825,0.174-9.911,0.174-15.649,0.695c-10.259,0.781-17.909,4.955-17.909,14.432
	c0,8.52,5.912,13.389,14.692,13.389c9.042,0,14.084-5.217,19.474-12.605L712.968,505.638z"/>
<path d="M731.328,474.431h-3.4v46.48h3.4V474.431z M730.543,486.64c3.751-6.715,8.982-9.68,16.656-9.68l0.872-3.75
	c-8.721,0-14.999,2.965-18.924,10.727L730.543,486.64z"/>
<path d="M601.002,516.028c4.922,3.713,9.152,5.182,15.282,5.182c9.152,0,16.06-3.627,16.06-11.914
	c-0.086-7.426-5.525-10.967-12.865-13.471c-6.216-2.244-11.311-4.576-11.311-10.879c0-5.18,3.973-7.855,9.498-7.855
	c4.316,0,7.253,1.035,10.965,3.279l2.245-2.936c-4.23-2.59-7.599-3.971-12.519-3.971c-8.117,0-14.074,3.799-14.074,11.396
	c0,7.426,4.575,11.57,11.742,14.16c6.39,2.158,12.002,3.971,12.002,10.361c0,5.611-4.75,8.027-10.966,8.027
	c-5.525,0-9.238-1.553-13.729-4.748L601.002,516.028z"/>
<path d="M590.681,356.909c32.801,24.742,60.997,34.527,101.852,34.527c60.997,0,107.032-24.17,107.032-79.41
	c-0.574-49.488-36.828-73.083-85.739-89.77c-41.432-14.964-75.385-30.499-75.385-72.51c0-34.523,26.473-52.359,63.299-52.359
	c28.772,0,48.338,6.906,73.082,21.864l14.961-19.565c-28.197-17.26-50.64-26.468-83.438-26.468
	c-54.093,0-93.796,25.322-93.796,75.955c0,49.49,30.497,77.11,78.258,94.373c42.582,14.385,79.986,26.474,79.986,69.054
	c0,37.402-31.649,53.514-73.078,53.514c-36.83,0-61.575-10.355-91.499-31.645L590.681,356.909z"/>
<path d="M337.933,516.259c4.959,3.74,9.222,5.221,15.399,5.221c9.047,0,16.008-3.654,16.008-11.92
	c-0.087-7.568-5.308-11.395-12.789-13.832c-6.873-2.523-13.311-3.914-13.311-10.873c0-6.439,5.046-9.744,11.918-9.744
	c4.785,0,7.917,1.393,12.006,3.826l0.87-1.564c-4.262-2.611-7.655-4.002-12.614-4.002c-8.091,0-13.919,3.826-13.919,11.396
	c0,7.654,4.785,11.83,12.179,14.527c6.96,2.35,13.833,3.307,13.833,10.266c0,7.047-6.002,10.092-13.833,10.092
	c-5.829,0-9.831-1.479-14.528-4.871L337.933,516.259z"/>
<path d="M491.731,516.259c4.958,3.74,9.222,5.221,15.397,5.221c9.048,0,16.008-3.654,16.008-11.92
	c-0.087-7.568-5.307-11.395-12.788-13.832c-6.873-2.523-13.311-3.914-13.311-10.873c0-6.439,5.046-9.744,11.918-9.744
	c4.785,0,7.918,1.393,12.006,3.826l0.87-1.564c-4.263-2.611-7.655-4.002-12.614-4.002c-8.091,0-13.919,3.826-13.919,11.396
	c0,7.654,4.784,11.83,12.179,14.527c6.96,2.35,13.832,3.307,13.832,10.266c0,7.047-6.002,10.092-13.832,10.092
	c-5.829,0-9.831-1.479-14.528-4.871L491.731,516.259z"/>
<rect x="55.724" y="451.228" fill="none" width="350.785" height="95.797"/>
<text transform="matrix(1 0 0 1 60.936 520.7236)" font-family="'Sean-Hairline'" font-size="86.8699" letter-spacing="-3">stars</text>
<g>
	<path d="M68.549,347.456c31.535,22.361,57.909,32.107,95.751,32.107c50.457,0,91.165-20.641,91.165-66.51
		c0-44.724-40.708-57.911-85.432-73.391c-48.163-17.202-86.004-41.284-86.004-90.019c0-48.736,39.562-75.111,91.738-75.111
		c32.109,0,55.617,9.748,83.138,26.375l-5.734,10.32c-26.375-16.054-48.162-25.227-79.124-25.227
		c-44.723,0-78.551,22.36-78.551,64.217c0,45.295,38.416,63.644,83.138,79.698c47.588,16.053,88.297,34.974,88.872,83.138
		c0,53.896-46.442,78.549-105.5,78.549c-40.136,0-68.804-9.746-101.485-34.398L68.549,347.456z"/>
</g>
<path d="M399.312,521.245c-7.21,0-10.772-5.646-10.772-13.465v-28.406h-12.421v-1.822h12.421v-12.25l1.824-1.127v13.377h19.719
	v1.822h-19.719v28.32c0,6.861,2.954,11.9,9.295,11.9c3.301,0,5.473-0.695,8.339-2.26l0.782,1.477
	C405.48,520.464,402.96,521.245,399.312,521.245z"/>
<path d="M450.13,510.646c-4.951,6.43-10.075,10.947-18.241,10.947c-8.601,0-14.681-5.039-14.681-13.377
	c0-9.209,7.905-13.291,17.894-14.074c5.473-0.52,9.556-0.52,15.028-0.693v-2.348c0-9.555-6.341-15.809-15.896-15.809
	c-5.474,0-9.383,1.998-13.378,5.732l-1.216-1.389c4.344-4.17,8.774-6.168,14.854-6.168c10.511,0,17.548,6.689,17.548,17.113v30.143
	h-1.912V510.646z M450.13,508.302v-13.291c-5.473,0.174-9.642,0.174-15.201,0.695c-8.773,0.869-15.81,4.256-15.81,12.336
	c0,7.383,5.473,11.812,13.116,11.812C440.4,519.854,445.005,514.644,450.13,508.302z"/>
<path d="M465.158,520.724v-46.301h1.911v7.211c3.91-5.908,9.903-8.426,17.548-8.426l-0.349,1.998
	c-7.557,0-13.376,2.605-17.199,8.859v36.658H465.158z"/>
<path d="M327.553,356.335c32.736,24.697,60.878,34.459,101.654,34.459c59.729,0,105.676-24.121,105.676-78.682
	c-0.575-49.966-35.034-75.236-84.426-91.317c-45.371-16.655-87.871-25.844-87.871-71.791c0-42.499,33.312-64.324,78.682-64.324
	c31.588,0,52.264,9.189,79.257,25.27l5.743-10.337c-28.143-17.23-50.54-26.419-83.276-26.419c-53.412,0-91.892,25.27-91.892,75.236
	c0,50.54,31.588,78.108,80.404,95.911c45.946,15.507,91.317,21.824,91.317,67.771c0,46.521-39.628,66.623-91.317,66.623
	c-38.479,0-64.897-9.766-95.911-32.164L327.553,356.335z"/>
<path opacity="0.6" d="M60.325,357.282c32.736,24.695,60.878,34.461,101.655,34.461c59.729,0,105.675-24.123,105.675-78.684
	c-0.575-49.965-35.034-75.236-84.425-91.317c-45.371-16.655-87.871-25.844-87.871-71.791c0-42.499,33.311-64.324,78.682-64.324
	c31.587,0,52.263,9.189,79.256,25.27l5.743-10.337c-28.142-17.229-50.54-26.419-83.276-26.419c-53.412,0-91.892,25.27-91.892,75.236
	c0,50.541,31.588,78.108,80.405,95.911c45.946,15.507,91.317,21.825,91.317,67.771c0,46.52-39.628,66.621-91.317,66.621
	c-38.479,0-64.898-9.764-95.912-32.162L60.325,357.282z"/>
<rect x="369.932" y="40.588" fill="none" width="142.069" height="55.225"/>
<text transform="matrix(1 0 0 1 410.1113 47.7329)" font-family="'HelveticaNeue-Medium'" font-size="10.0067">Local Mode</text>
<rect x="156.365" y="117.73" fill="none" width="83.878" height="82.334"/>
<text transform="matrix(1 0 0 1 156.3652 124.2139)"><tspan x="0" y="0" font-family="'HelveticaNeue-Medium'" font-size="9.0796">angle =     </tspan><tspan x="0" y="12.122" font-family="'HelveticaNeue-Medium'" font-size="9.0796">width =  </tspan><tspan x="0" y="24.244" font-family="'HelveticaNeue-Medium'" font-size="9.0796">tension out =     </tspan><tspan x="67.514" y="24.244" font-family="'HelveticaNeue-Medium'" font-size="9.0796"> </tspan><tspan x="69.13" y="24.244" font-family="'HelveticaNeue-Medium'" font-size="9.0796"> </tspan><tspan x="0" y="36.365" font-family="'HelveticaNeue-Medium'" font-size="9.0796">direction out =     </tspan><tspan x="73.569" y="36.365" font-family="'HelveticaNeue-Medium'" font-size="9.0796"> </tspan><tspan x="0" y="48.487" font-family="'HelveticaNeue-Medium'" font-size="9.0796">tension in =     </tspan><tspan x="61.294" y="48.487" font-family="'HelveticaNeue-Medium'" font-size="9.0796"> </tspan><tspan x="62.91" y="48.487" font-family="'HelveticaNeue-Medium'" font-size="9.0796"> </tspan><tspan x="0" y="60.609" font-family="'HelveticaNeue-Medium'" font-size="9.0796">direction in =</tspan><tspan x="0" y="72.731" font-family="'HelveticaNeue-Medium'" font-size="9.0796">contrast =      </tspan><tspan x="57.763" y="72.731" font-family="'HelveticaNeue-Medium'" font-size="9.0796"> </tspan><tspan x="59.379" y="72.731" font-family="'HelveticaNeue-Medium'" font-size="9.0796"> </tspan></text>
<rect x="637.716" y="40.588" fill="none" width="142.067" height="55.225"/>
<text transform="matrix(1 0 0 1 675.0879 47.7329)" font-family="'HelveticaNeue-Medium'" font-size="10.0067">Global Mode</text>
<g opacity="0.8">
	<circle fill="#8FFF8D" cx="205.85" cy="194.266" r="4.593"/>
	<path d="M205.85,199.323c-2.789,0-5.057-2.269-5.057-5.057c0-2.789,2.268-5.057,5.057-5.057c2.788,0,5.056,2.268,5.056,5.057
		C210.906,197.054,208.638,199.323,205.85,199.323z M205.85,190.137c-2.277,0-4.13,1.853-4.13,4.129s1.853,4.129,4.13,4.129
		c2.277,0,4.129-1.853,4.129-4.129S208.127,190.137,205.85,190.137z"/>
</g>
<g opacity="0.8">
	<circle fill="#C3D0CD" cx="195.045" cy="121.961" r="4.593"/>
	<path d="M195.045,127.018c-2.788,0-5.057-2.269-5.057-5.057s2.269-5.057,5.057-5.057s5.056,2.269,5.056,5.057
		S197.833,127.018,195.045,127.018z M195.045,117.832c-2.277,0-4.129,1.853-4.129,4.129c0,2.277,1.853,4.13,4.129,4.13
		s4.129-1.853,4.129-4.13C199.174,119.685,197.322,117.832,195.045,117.832z"/>
</g>
<g opacity="0.8">
	<circle fill="#5578FF" cx="194.89" cy="134.323" r="4.593"/>
	<path d="M194.89,139.379c-2.788,0-5.056-2.269-5.056-5.057c0-2.789,2.268-5.057,5.056-5.057s5.056,2.268,5.056,5.057
		C199.946,137.111,197.678,139.379,194.89,139.379z M194.89,130.193c-2.277,0-4.129,1.853-4.129,4.13
		c0,2.277,1.853,4.129,4.129,4.129s4.129-1.853,4.129-4.129C199.02,132.045,197.167,130.193,194.89,130.193z"/>
</g>
<g opacity="0.8">
	<circle fill="#FFC600" cx="218.299" cy="145.911" r="4.593"/>
	<path d="M218.298,150.967c-2.788,0-5.056-2.268-5.056-5.057c0-2.788,2.269-5.056,5.056-5.056c2.789,0,5.057,2.269,5.057,5.056
		C223.355,148.699,221.087,150.967,218.298,150.967z M218.298,141.782c-2.277,0-4.129,1.852-4.129,4.129
		c0,2.277,1.852,4.13,4.129,4.13c2.277,0,4.129-1.853,4.129-4.13C222.428,143.634,220.576,141.782,218.298,141.782z"/>
</g>
<g opacity="0.8">
	<circle fill="#FFC600" cx="224.324" cy="157.963" r="4.593"/>
	<path d="M224.325,163.02c-2.788,0-5.056-2.269-5.056-5.057s2.268-5.057,5.056-5.057c2.788,0,5.056,2.269,5.056,5.057
		S227.112,163.02,224.325,163.02z M224.325,153.833c-2.277,0-4.129,1.853-4.129,4.129s1.853,4.129,4.129,4.129
		s4.129-1.853,4.129-4.129S226.602,153.833,224.325,153.833z"/>
</g>
<g opacity="0.8">
	<circle fill="#FF161C" cx="212.272" cy="170.246" r="4.593"/>
	<path d="M212.273,175.303c-2.789,0-5.057-2.269-5.057-5.057c0-2.788,2.268-5.056,5.057-5.056c2.788,0,5.056,2.269,5.056,5.056
		C217.329,173.035,215.061,175.303,212.273,175.303z M212.273,166.117c-2.277,0-4.129,1.852-4.129,4.129
		c0,2.277,1.853,4.13,4.129,4.13s4.129-1.853,4.129-4.13C216.402,167.969,214.55,166.117,212.273,166.117z"/>
</g>
<g opacity="0.8">
	<circle fill="#FF161C" cx="218.299" cy="182.066" r="4.593"/>
	<path d="M218.298,187.123c-2.788,0-5.056-2.268-5.056-5.057c0-2.788,2.269-5.056,5.056-5.056c2.789,0,5.057,2.269,5.057,5.056
		C223.355,184.855,221.087,187.123,218.298,187.123z M218.298,177.938c-2.277,0-4.129,1.852-4.129,4.129
		c0,2.277,1.852,4.13,4.129,4.13c2.277,0,4.129-1.853,4.129-4.13C222.428,179.79,220.576,177.938,218.298,177.938z"/>
</g>
<g opacity="0.8">
	<circle fill="#FF161C" cx="226.558" cy="255.699" r="4.593"/>
	<path d="M226.558,260.756c-2.788,0-5.056-2.269-5.056-5.057c0-2.788,2.268-5.057,5.056-5.057s5.056,2.269,5.056,5.057
		C231.614,258.487,229.346,260.756,226.558,260.756z M226.558,251.57c-2.277,0-4.129,1.852-4.129,4.129s1.853,4.13,4.129,4.13
		s4.129-1.853,4.129-4.13S228.835,251.57,226.558,251.57z"/>
</g>
<path fill="none" stroke="#FF00FF" stroke-miterlimit="10" d="M101.956,190.997"/>
<g>
	<g opacity="0.8">
		<circle fill="#C3D0CD" cx="166.218" cy="246.645" r="4.593"/>
		<path d="M166.217,251.702c-2.788,0-5.056-2.268-5.056-5.057c0-2.788,2.269-5.056,5.056-5.056c2.788,0,5.057,2.269,5.057,5.056
			C171.274,249.434,169.005,251.702,166.217,251.702z M166.217,242.516c-2.277,0-4.129,1.853-4.129,4.129
			c0,2.277,1.853,4.13,4.129,4.13c2.277,0,4.13-1.853,4.13-4.13C170.347,244.368,168.495,242.516,166.217,242.516z"/>
	</g>
	<g opacity="0.8">
		<circle fill="#8FFF8D" cx="162.278" cy="227.177" r="4.593"/>
		<path d="M162.277,232.233c-2.788,0-5.056-2.268-5.056-5.057c0-2.788,2.268-5.056,5.056-5.056c2.789,0,5.057,2.268,5.057,5.056
			C167.334,229.965,165.066,232.233,162.277,232.233z M162.277,223.048c-2.277,0-4.129,1.852-4.129,4.129s1.852,4.13,4.129,4.13
			s4.13-1.853,4.13-4.13S164.554,223.048,162.277,223.048z"/>
	</g>
	<g opacity="0.8">
		<circle fill="#8FFF8D" cx="186.497" cy="243.98" r="4.593"/>
		<path d="M186.497,249.037c-2.788,0-5.056-2.269-5.056-5.057c0-2.788,2.269-5.057,5.056-5.057c2.789,0,5.057,2.269,5.057,5.057
			C191.554,246.768,189.286,249.037,186.497,249.037z M186.497,239.851c-2.277,0-4.129,1.853-4.129,4.129
			c0,2.277,1.852,4.13,4.129,4.13s4.13-1.853,4.13-4.13C190.627,241.703,188.774,239.851,186.497,239.851z"/>
	</g>
	<g opacity="0.8">
		<circle fill="#5578FF" cx="183.368" cy="222.078" r="4.593"/>
		<path d="M183.368,227.135c-2.788,0-5.056-2.269-5.056-5.057c0-2.788,2.269-5.056,5.056-5.056c2.789,0,5.057,2.269,5.057,5.056
			C188.425,224.866,186.157,227.135,183.368,227.135z M183.368,217.949c-2.277,0-4.129,1.852-4.129,4.129
			c0,2.277,1.852,4.13,4.129,4.13s4.13-1.853,4.13-4.13C187.498,219.801,185.645,217.949,183.368,217.949z"/>
	</g>
	<g opacity="0.8">
		<circle fill="#FFC600" cx="121.766" cy="215.245" r="4.593"/>
		<path d="M121.766,220.302c-2.788,0-5.056-2.269-5.056-5.057s2.268-5.057,5.056-5.057c2.789,0,5.057,2.269,5.057,5.057
			S124.555,220.302,121.766,220.302z M121.766,211.116c-2.277,0-4.129,1.853-4.129,4.129c0,2.277,1.852,4.129,4.129,4.129
			s4.13-1.852,4.13-4.129C125.896,212.968,124.043,211.116,121.766,211.116z"/>
	</g>
	<g opacity="0.8">
		
			<rect x="178.588" y="220.028" transform="matrix(0.8277 0.5612 -0.5612 0.8277 159.0412 -61.129)" fill="#FFFFFF" width="0.927" height="16.722"/>
		<g>
			
				<rect x="172.435" y="245.097" transform="matrix(0.9316 0.3634 -0.3634 0.9316 102.9524 -56.1245)" fill="#FFFFFF" width="56.412" height="0.927"/>
			
				<rect x="119.873" y="224.612" transform="matrix(0.9318 0.3629 -0.3629 0.9318 91.7645 -38.3921)" fill="#FFFFFF" width="56.413" height="0.927"/>
		</g>
		
			<rect x="170.129" y="234.152" transform="matrix(0.8285 0.5599 -0.5599 0.8285 164.1146 -54.2205)" fill="#FFFFFF" width="0.927" height="13.433"/>
	</g>
	<path fill="none" stroke="#FFFFFF" stroke-width="2" stroke-miterlimit="10" d="M177.321,242.368"/>
	
		<rect x="159.619" y="235.124" transform="matrix(0.8278 0.561 -0.561 0.8278 162.2601 -57.4409)" opacity="0.8" fill="#FFFFFF" width="30.154" height="0.927"/>
</g>
<g>
	<g opacity="0.8">
		<circle fill="#FF161C" cx="496.606" cy="255.699" r="4.593"/>
		<path d="M496.605,260.756c-2.788,0-5.057-2.269-5.057-5.057c0-2.788,2.269-5.057,5.057-5.057c2.789,0,5.057,2.269,5.057,5.057
			C501.662,258.487,499.395,260.756,496.605,260.756z M496.605,251.57c-2.277,0-4.129,1.852-4.129,4.129s1.852,4.13,4.129,4.13
			s4.13-1.853,4.13-4.13S498.883,251.57,496.605,251.57z"/>
	</g>
	<g>
		<g opacity="0.8">
			<circle fill="#C3D0CD" cx="436.265" cy="246.645" r="4.593"/>
			<path d="M436.265,251.702c-2.788,0-5.056-2.268-5.056-5.057c0-2.788,2.268-5.056,5.056-5.056c2.789,0,5.058,2.269,5.058,5.056
				C441.322,249.434,439.054,251.702,436.265,251.702z M436.265,242.516c-2.276,0-4.129,1.853-4.129,4.129
				c0,2.277,1.853,4.13,4.129,4.13c2.277,0,4.13-1.853,4.13-4.13C440.395,244.368,438.542,242.516,436.265,242.516z"/>
		</g>
		<g opacity="0.8">
			<circle fill="#8FFF8D" cx="432.325" cy="227.177" r="4.593"/>
			<path d="M432.324,232.233c-2.787,0-5.056-2.268-5.056-5.057c0-2.788,2.269-5.056,5.056-5.056c2.789,0,5.057,2.268,5.057,5.056
				C437.381,229.965,435.113,232.233,432.324,232.233z M432.324,223.048c-2.275,0-4.129,1.852-4.129,4.129s1.854,4.13,4.129,4.13
				c2.277,0,4.131-1.853,4.131-4.13S434.602,223.048,432.324,223.048z"/>
		</g>
		<g opacity="0.8">
			<circle fill="#8FFF8D" cx="456.545" cy="243.98" r="4.593"/>
			<path d="M456.544,249.037c-2.787,0-5.056-2.269-5.056-5.057c0-2.788,2.269-5.057,5.056-5.057c2.789,0,5.057,2.269,5.057,5.057
				C461.601,246.768,459.333,249.037,456.544,249.037z M456.544,239.851c-2.276,0-4.129,1.853-4.129,4.129
				c0,2.277,1.853,4.13,4.129,4.13c2.277,0,4.131-1.853,4.131-4.13C460.675,241.703,458.821,239.851,456.544,239.851z"/>
		</g>
		<g opacity="0.8">
			<circle fill="#5578FF" cx="453.416" cy="222.078" r="4.593"/>
			<path d="M453.416,227.135c-2.788,0-5.057-2.269-5.057-5.057c0-2.788,2.269-5.056,5.057-5.056s5.057,2.269,5.057,5.056
				C458.473,224.866,456.204,227.135,453.416,227.135z M453.416,217.949c-2.277,0-4.13,1.852-4.13,4.129
				c0,2.277,1.853,4.13,4.13,4.13s4.13-1.853,4.13-4.13C457.546,219.801,455.693,217.949,453.416,217.949z"/>
		</g>
		<g opacity="0.8">
			<circle fill="#FFC600" cx="391.814" cy="215.245" r="4.593"/>
			<path d="M391.814,220.302c-2.788,0-5.057-2.269-5.057-5.057s2.269-5.057,5.057-5.057c2.789,0,5.057,2.269,5.057,5.057
				S394.603,220.302,391.814,220.302z M391.814,211.116c-2.277,0-4.129,1.853-4.129,4.129c0,2.277,1.852,4.129,4.129,4.129
				c2.276,0,4.13-1.852,4.13-4.129C395.944,212.968,394.09,211.116,391.814,211.116z"/>
		</g>
		<g opacity="0.8">
			
				<rect x="448.635" y="220.028" transform="matrix(0.8277 0.5612 -0.5612 0.8277 205.5838 -212.6915)" fill="#FFFFFF" width="0.927" height="16.722"/>
			<g>
				
					<rect x="442.483" y="245.097" transform="matrix(0.9316 0.3634 -0.3634 0.9316 121.4118 -154.2567)" fill="#FFFFFF" width="56.413" height="0.927"/>
				
					<rect x="389.921" y="224.612" transform="matrix(0.9318 0.3629 -0.3629 0.9318 110.1715 -136.3837)" fill="#FFFFFF" width="56.412" height="0.927"/>
			</g>
			
				<rect x="440.177" y="234.153" transform="matrix(0.8284 0.5602 -0.5602 0.8284 210.5461 -205.4922)" fill="#FFFFFF" width="0.927" height="13.433"/>
		</g>
		<path fill="none" stroke="#FFFFFF" stroke-width="2" stroke-miterlimit="10" d="M447.368,242.368"/>
		
			<rect x="429.666" y="235.123" transform="matrix(0.8278 0.561 -0.561 0.8278 208.754 -208.9432)" opacity="0.8" fill="#FFFFFF" width="30.156" height="0.928"/>
	</g>
</g>
<g>
	<g opacity="0.8">
		<circle fill="#FF161C" cx="757.403" cy="255.699" r="4.593"/>
		<path d="M757.402,260.756c-2.787,0-5.057-2.269-5.057-5.057c0-2.788,2.27-5.057,5.057-5.057c2.789,0,5.058,2.269,5.058,5.057
			C762.46,258.487,760.191,260.756,757.402,260.756z M757.402,251.57c-2.276,0-4.129,1.852-4.129,4.129s1.853,4.13,4.129,4.13
			s4.13-1.853,4.13-4.13S759.679,251.57,757.402,251.57z"/>
	</g>
	<g>
		<g opacity="0.8">
			<circle fill="#C3D0CD" cx="697.062" cy="246.645" r="4.593"/>
			<path d="M697.062,251.702c-2.788,0-5.057-2.268-5.057-5.057c0-2.788,2.269-5.056,5.057-5.056s5.057,2.269,5.057,5.056
				C702.119,249.434,699.851,251.702,697.062,251.702z M697.062,242.516c-2.277,0-4.129,1.853-4.129,4.129
				c0,2.277,1.852,4.13,4.129,4.13c2.276,0,4.13-1.853,4.13-4.13C701.192,244.368,699.339,242.516,697.062,242.516z"/>
		</g>
		<g opacity="0.8">
			<circle fill="#8FFF8D" cx="693.123" cy="227.177" r="4.592"/>
			<path d="M693.122,232.233c-2.787,0-5.057-2.268-5.057-5.057c0-2.788,2.27-5.056,5.057-5.056c2.788,0,5.057,2.268,5.057,5.056
				C698.179,229.965,695.91,232.233,693.122,232.233z M693.122,223.048c-2.276,0-4.129,1.852-4.129,4.129s1.853,4.13,4.129,4.13
				c2.277,0,4.13-1.853,4.13-4.13S695.399,223.048,693.122,223.048z"/>
		</g>
		<g opacity="0.8">
			<circle fill="#8FFF8D" cx="717.342" cy="243.98" r="4.592"/>
			<path d="M717.342,249.037c-2.787,0-5.057-2.269-5.057-5.057c0-2.788,2.27-5.057,5.057-5.057c2.788,0,5.057,2.269,5.057,5.057
				C722.398,246.768,720.13,249.037,717.342,249.037z M717.342,239.851c-2.276,0-4.129,1.853-4.129,4.129
				c0,2.277,1.853,4.13,4.129,4.13c2.277,0,4.13-1.853,4.13-4.13C721.472,241.703,719.619,239.851,717.342,239.851z"/>
		</g>
		<g opacity="0.8">
			<circle fill="#5578FF" cx="714.213" cy="222.078" r="4.593"/>
			<path d="M714.213,227.135c-2.788,0-5.056-2.269-5.056-5.057c0-2.788,2.268-5.056,5.056-5.056c2.789,0,5.057,2.269,5.057,5.056
				C719.27,224.866,717.002,227.135,714.213,227.135z M714.213,217.949c-2.276,0-4.129,1.852-4.129,4.129
				c0,2.277,1.853,4.13,4.129,4.13c2.277,0,4.13-1.853,4.13-4.13C718.343,219.801,716.49,217.949,714.213,217.949z"/>
		</g>
		<g opacity="0.8">
			<circle fill="#FFC600" cx="652.611" cy="215.245" r="4.593"/>
			<path d="M652.611,220.302c-2.788,0-5.057-2.269-5.057-5.057s2.269-5.057,5.057-5.057s5.057,2.269,5.057,5.057
				S655.399,220.302,652.611,220.302z M652.611,211.116c-2.277,0-4.13,1.853-4.13,4.129c0,2.277,1.853,4.129,4.13,4.129
				c2.276,0,4.129-1.852,4.129-4.129C656.74,212.968,654.888,211.116,652.611,211.116z"/>
		</g>
		<g opacity="0.8">
			
				<rect x="709.432" y="220.028" transform="matrix(0.8277 0.5612 -0.5612 0.8277 250.532 -359.0621)" fill="#FFFFFF" width="0.927" height="16.722"/>
			<g>
				
					<rect x="703.28" y="245.097" transform="matrix(0.9316 0.3634 -0.3634 0.9316 139.2438 -249.0314)" fill="#FFFFFF" width="56.412" height="0.927"/>
				
					<rect x="650.718" y="224.612" transform="matrix(0.9318 0.3629 -0.3629 0.9318 127.9444 -231.015)" fill="#FFFFFF" width="56.413" height="0.927"/>
			</g>
			
				<rect x="700.974" y="234.153" transform="matrix(0.8281 0.5606 -0.5606 0.8281 255.6532 -351.8439)" fill="#FFFFFF" width="0.926" height="13.432"/>
		</g>
		<path fill="none" stroke="#FFFFFF" stroke-width="2" stroke-miterlimit="10" d="M708.165,242.368"/>
		
			<rect x="690.464" y="235.124" transform="matrix(0.8278 0.561 -0.561 0.8278 253.6629 -355.2561)" opacity="0.8" fill="#FFFFFF" width="30.156" height="0.927"/>
	</g>
</g>
</svg>
