<?xml version="1.0" encoding="utf-8"?>
<!-- Generator: Adobe Illustrator 18.0.0, SVG Export Plug-In . SVG Version: 6.00 Build 0)  -->
<!DOCTYPE svg PUBLIC "-//W3C//DTD SVG 1.1//EN" "http://www.w3.org/Graphics/SVG/1.1/DTD/svg11.dtd">
<svg version="1.1" id="Calque_1" xmlns:sketch="http://www.bohemiancoding.com/sketch/ns"
	 xmlns="http://www.w3.org/2000/svg" xmlns:xlink="http://www.w3.org/1999/xlink" x="0px" y="0px" viewBox="-972 -1588.1 512 512"
	 enable-background="new -972 -1588.1 512 512" xml:space="preserve">
<title>Artboard 10</title>
<g>
	<path fill="#FFFFFF" d="M-645.8-1431.1c0,0,5.1-72.4-40.6-72.4s-147.5,0-147.5,0v342.1h258.4c0,0,0-189.3,0-230.8
		S-645.8-1431.1-645.8-1431.1z"/>
	<g>
		
			<image overflow="visible" opacity="0.35" width="329" height="413" xlink:href="E3CB36827E32B743.png"  transform="matrix(1 0 0 1 -863.0157 -1516.1257)">
		</image>
		<g>
			<path fill="#FAFAFA" d="M-645.8-1431.1c0,0,5.1-72.4-40.6-72.4s-147.5,0-147.5,0v342.1h258.4c0,0,0-189.3,0-230.8
				S-645.8-1431.1-645.8-1431.1z"/>
			<path fill="none" stroke="#D9D9D9" stroke-miterlimit="10" d="M-645.8-1431.1c0,0,5.1-72.4-40.6-72.4s-147.5,0-147.5,0v342.1
				h258.4c0,0,0-189.3,0-230.8S-645.8-1431.1-645.8-1431.1z"/>
		</g>
	</g>
	<g>
		<path d="M-753.7-1216.7v22.3c0,1.1,0.2,2.3,0.5,3.5c0.3,1.2,0.8,2.3,1.5,3.4c0.7,1,1.7,1.9,2.8,2.5c1.2,0.6,2.6,1,4.3,1
			c1.7,0,3.1-0.3,4.3-1c1.2-0.6,2.1-1.5,2.8-2.5c0.7-1,1.2-2.1,1.5-3.4c0.3-1.2,0.5-2.4,0.5-3.5v-22.3h4.9v23c0,2.1-0.4,4-1.1,5.8
			c-0.7,1.7-1.7,3.2-3,4.5c-1.3,1.3-2.8,2.2-4.5,2.9c-1.7,0.7-3.6,1-5.5,1c-2,0-3.8-0.3-5.5-1c-1.7-0.7-3.2-1.7-4.5-2.9
			c-1.3-1.3-2.3-2.8-3-4.5c-0.7-1.7-1.1-3.7-1.1-5.8v-23H-753.7z"/>
		<path d="M-721.8-1216.7h22.8v4.6h-17.9v11.4h16.7v4.6h-16.7v15.7h-4.9V-1216.7z"/>
		<path d="M-675.7-1179.4c-2.8,0-5.3-0.5-7.6-1.5c-2.3-1-4.3-2.3-6-4c-1.7-1.7-3-3.7-3.9-6.1c-0.9-2.3-1.4-4.8-1.4-7.5
			c0-2.7,0.5-5.2,1.4-7.5c0.9-2.3,2.2-4.3,3.9-6.1c1.7-1.7,3.7-3.1,6-4c2.3-1,4.9-1.5,7.6-1.5s5.3,0.5,7.6,1.5c2.3,1,4.3,2.3,6,4
			c1.7,1.7,3,3.7,3.9,6.1c0.9,2.3,1.4,4.8,1.4,7.5c0,2.7-0.5,5.2-1.4,7.5c-0.9,2.3-2.2,4.3-3.9,6.1c-1.7,1.7-3.7,3.1-6,4
			C-670.4-1179.9-672.9-1179.4-675.7-1179.4z M-675.7-1184c2.1,0,4-0.4,5.6-1.2c1.7-0.8,3.1-1.8,4.3-3.1c1.2-1.3,2.1-2.8,2.8-4.6
			c0.7-1.8,1-3.6,1-5.6c0-2-0.3-3.9-1-5.6c-0.6-1.8-1.6-3.3-2.8-4.6c-1.2-1.3-2.6-2.3-4.3-3.1c-1.7-0.8-3.6-1.2-5.6-1.2
			c-2.1,0-4,0.4-5.6,1.2c-1.7,0.8-3.1,1.8-4.3,3.1c-1.2,1.3-2.1,2.8-2.8,4.6c-0.7,1.8-1,3.6-1,5.6c0,2,0.3,3.9,1,5.6
			c0.6,1.8,1.6,3.3,2.8,4.6c1.2,1.3,2.6,2.3,4.3,3.1C-679.6-1184.4-677.8-1184-675.7-1184z"/>
	</g>
	<line fill="none" stroke="#999999" x1="-793.8" y1="-1431.9" x2="-793.8" y2="-1240.7"/>
	<line fill="none" stroke="#999999" x1="-617.9" y1="-1428.8" x2="-617.9" y2="-1240.7"/>
	<line fill="none" stroke="#999999" x1="-818.5" y1="-1267.8" x2="-590.8" y2="-1267.8"/>
	<line fill="none" stroke="#999999" x1="-818.5" y1="-1362.5" x2="-590.8" y2="-1362.5"/>
	<line fill="none" stroke="#999999" x1="-818.5" y1="-1411.7" x2="-590.8" y2="-1411.7"/>
	<g>
		<path d="M-641.3-1325.1c0,9.3-1.4,17.9-4.2,25.8c-2.8,7.9-7,14.7-12.6,20.5c-5.6,5.8-12.5,10.3-20.8,13.6
			c-8.3,3.3-17.9,4.9-28.7,4.9c-11,0-20.6-1.6-28.9-4.9c-8.3-3.3-15.2-7.8-20.8-13.6c-5.6-5.8-9.8-12.6-12.6-20.5
			c-2.8-7.9-4.2-16.5-4.2-25.8v-86.6h34.7v85.3c0,4.9,0.8,9.4,2.3,13.6c1.6,4.2,3.7,7.8,6.6,10.8c2.8,3,6.2,5.4,10.1,7.1
			c3.9,1.7,8.2,2.6,12.8,2.6c4.6,0,8.8-0.9,12.7-2.6c3.8-1.7,7.2-4.1,10-7.1c2.8-3,5-6.6,6.6-10.8c1.6-4.1,2.3-8.7,2.3-13.6v-85.3
			h34.7V-1325.1z"/>
	</g>
</g>
</svg>
