<?xml version="1.0" encoding="utf-8"?>
<!-- Generator: Adobe Illustrator 18.0.0, SVG Export Plug-In . SVG Version: 6.00 Build 0)  -->
<!DOCTYPE svg PUBLIC "-//W3C//DTD SVG 1.1//EN" "http://www.w3.org/Graphics/SVG/1.1/DTD/svg11.dtd">
<svg version="1.1" id="Calque_1" xmlns:sketch="http://www.bohemiancoding.com/sketch/ns"
	 xmlns="http://www.w3.org/2000/svg" xmlns:xlink="http://www.w3.org/1999/xlink" x="0px" y="0px" viewBox="27.7 559.7 594.8 316.1"
	 enable-background="new 27.7 559.7 594.8 316.1" xml:space="preserve">
<rect id="Rectangle-36" x="207.2" y="668.1" sketch:type="MSShapeGroup" fill="#333333" width="108.4" height="45.1">
</rect>
<rect id="Rectangle-36_1_" x="207.7" y="613.8" sketch:type="MSShapeGroup" opacity="8.000000e-02" fill="#333333" enable-background="new    " width="108.4" height="45.1">
</rect>
<rect id="Rectangle-36_2_" x="27.3" y="613.8" sketch:type="MSShapeGroup" opacity="8.000000e-02" fill="#333333" enable-background="new    " width="161.2" height="45.1">
</rect>
<rect id="Rectangle-36_3_" x="27.3" y="668.1" sketch:type="MSShapeGroup" opacity="8.000000e-02" fill="#333333" enable-background="new    " width="161.2" height="45.1">
</rect>
<rect id="Rectangle-36_4_" x="27.3" y="776.5" sketch:type="MSShapeGroup" opacity="8.000000e-02" fill="#333333" enable-background="new    " width="161.2" height="45.1">
</rect>
<rect id="Rectangle-36_5_" x="27.7" y="830.7" sketch:type="MSShapeGroup" opacity="8.000000e-02" fill="#333333" enable-background="new    " width="161.2" height="45.1">
</rect>
<rect id="Rectangle-36_6_" x="27.3" y="722.2" sketch:type="MSShapeGroup" opacity="8.000000e-02" fill="#333333" enable-background="new    " width="161.2" height="45.1">
</rect>
<rect id="Rectangle-36_7_" x="208.2" y="722.2" sketch:type="MSShapeGroup" opacity="8.000000e-02" fill="#333333" enable-background="new    " width="108.4" height="45.1">
</rect>
<rect id="Rectangle-36_8_" x="330.1" y="722.2" sketch:type="MSShapeGroup" opacity="8.000000e-02" fill="#333333" enable-background="new    " width="139.4" height="45.1">
</rect>
<rect id="Rectangle-36_9_" x="330.1" y="668.1" sketch:type="MSShapeGroup" opacity="8.000000e-02" fill="#333333" enable-background="new    " width="139.4" height="45.1">
</rect>
<rect id="Rectangle-36_10_" x="329" y="613.8" sketch:type="MSShapeGroup" opacity="8.000000e-02" fill="#333333" enable-background="new    " width="139.4" height="45.1">
</rect>
<rect id="Rectangle-36_11_" x="330.1" y="776.5" sketch:type="MSShapeGroup" opacity="8.000000e-02" fill="#333333" enable-background="new    " width="139.4" height="45.1">
</rect>
<rect id="Rectangle-36_12_" x="497.5" y="722.2" sketch:type="MSShapeGroup" opacity="8.000000e-02" fill="#333333" enable-background="new    " width="125" height="45.1">
</rect>
<rect id="Rectangle-36_13_" x="497.5" y="668.1" sketch:type="MSShapeGroup" opacity="8.000000e-02" fill="#333333" enable-background="new    " width="125" height="45.1">
</rect>
<rect id="Rectangle-36_14_" x="497.5" y="613.8" sketch:type="MSShapeGroup" opacity="8.000000e-02" fill="#333333" enable-background="new    " width="125" height="45.1">
</rect>
<rect id="Rectangle-36_15_" x="497.5" y="559.7" sketch:type="MSShapeGroup" opacity="8.000000e-02" fill="#333333" enable-background="new    " width="125" height="45.1">
</rect>
<rect id="Rectangle-36_16_" x="208.2" y="776.5" sketch:type="MSShapeGroup" opacity="8.000000e-02" fill="#333333" enable-background="new    " width="108.4" height="45.1">
</rect>
<path id="Fill-1" fill="#FFFFFF" d="M226.7,685.4c-0.8,0-1.3-0.2-2-0.6l-0.4-0.2l-0.5,1l0.3,0.2c0.8,0.5,1.5,0.8,2.6,0.8
	c2,0,3.2-1,3.2-2.6c0-1.7-1.5-2.4-2.6-3l-0.2-0.1c-1.2-0.5-1.8-0.9-1.8-1.8s0.6-1.4,1.6-1.4c0.8,0,1.3,0.2,2,0.6l0.3,0.2l0.5-0.9
	l-0.4-0.2c-0.8-0.5-1.6-0.8-2.6-0.8c-1.6,0-2.7,1-2.7,2.5c0,1.6,1.3,2.2,2.4,2.7l0.1,0.1c1.3,0.6,2,1,2,2
	C228.8,685.2,227.3,685.4,226.7,685.4"/>
<path id="Fill-2" fill="#FFFFFF" d="M234.3,686.4c1,0,1.7-0.3,2.4-1l0.3-0.3l-0.8-0.8l-0.3,0.3c-0.5,0.5-1,0.7-1.6,0.7
	c-1.7,0-2.1-1.5-2.2-2.4h4.7v-0.7c0-2.1-1.1-3.4-2.8-3.4c-1.8,0-3,1.5-3,3.7C231,684.9,232.3,686.4,234.3,686.4L234.3,686.4z
	 M234,679.9c1.5,0,1.7,1.3,1.8,2h-3.5C232.3,681.1,232.6,679.9,234,679.9L234,679.9z"/>
<path id="Fill-3" fill="#FFFFFF" d="M240.6,681.7c-1.8,0.2-2.9,1-2.9,2.4s1,2.3,2.5,2.3c0.9,0,1.6-0.4,2.1-0.9v0.8h1.1v-4.7
	c0-1.7-1.2-2.8-2.9-2.8c-0.9,0-1.7,0.3-2.4,1l-0.3,0.3l0.7,0.8l0.3-0.3c0.5-0.5,1-0.7,1.6-0.7c1.1,0,1.8,0.7,1.8,1.8
	c-0.1,0-0.1,0-0.1,0C241.7,681.7,241.2,681.7,240.6,681.7L240.6,681.7z M242.3,682.7v1.3c-0.7,0.8-1.2,1.4-2.1,1.4
	c-0.7,0-1.5-0.3-1.5-1.2c0-0.8,0.6-1.2,1.9-1.3C241.2,682.8,241.7,682.8,242.3,682.7C242.3,682.7,242.3,682.7,242.3,682.7
	L242.3,682.7z"/>
<path id="Fill-4" fill="#FFFFFF" d="M244.9,679v7.4h1.1v-5.3c0.4-0.5,1-1.1,2-1.1c1,0,1.5,0.6,1.5,1.8v4.6h1.1v-4.6
	c0-1.8-0.9-2.8-2.5-2.8c-0.8,0-1.5,0.2-2,0.6v-0.5L244.9,679"/>
<path id="Fill-5" fill="#FFFFFF" d="M230.2,697c0-1.6-1.3-2.7-3.2-2.7h-2.5v9.7h1.1v-4.2h1.2c0.2,0,0.4,0,0.5,0l3.4,4.2h1.4
	l-3.6-4.5C229.5,699.1,230.2,698.2,230.2,697L230.2,697z M226.8,698.7h-1.3v-3.4h1.4c0.5,0,2.2,0.1,2.2,1.6
	C229,698.6,227.3,698.7,226.8,698.7L226.8,698.7z"/>
<path id="Fill-6" fill="#FFFFFF" d="M235.2,696.5c-1.8,0-3,1.5-3,3.7c0,2.4,1.3,4,3.3,4c1,0,1.7-0.3,2.4-1l0.3-0.3l-0.8-0.8
	l-0.3,0.3c-0.5,0.5-1,0.7-1.6,0.7c-1.7,0-2.1-1.5-2.2-2.4h4.7V700C238,697.9,236.9,696.5,235.2,696.5L235.2,696.5z M233.4,699.6
	c0.1-0.8,0.5-2,1.8-2c1.5,0,1.7,1.3,1.8,2H233.4L233.4,699.6z"/>
<path id="Fill-7" fill="#FFFFFF" d="M242,696.6c-1.7,0-2.7,1-2.7,2.6c0,0.6,0.2,1.2,0.5,1.6c-0.3,0.3-0.5,0.8-0.5,1.3
	c0,0.4,0.1,0.8,0.3,1c-0.6,0.5-0.9,1.1-0.9,2c0,1.6,1.1,2.6,2.8,2.6c0.1,0,0.1,0,0.2,0c1.3,0,2.4-0.3,3-1c0.4-0.4,0.7-1.1,0.6-1.8
	c0-1.3-0.9-2-2.5-2.1c-0.3,0-0.5,0-0.8,0s-0.5,0-0.8,0c-0.5,0-0.8-0.3-0.8-0.8c0-0.3,0.1-0.5,0.3-0.6c0.4,0.2,0.9,0.3,1.3,0.3
	c1.7,0,2.7-1,2.7-2.5c0-0.3-0.1-0.5-0.1-0.8h1.2v-1.1h-1.9C243.4,696.8,242.8,696.6,242,696.6L242,696.6z M240.5,703.7
	c0.2,0.1,0.4,0.1,0.7,0.1s0.5,0,0.8,0s0.5,0,0.8,0c1.6,0.1,1.6,0.9,1.6,1.1c0,0.4,0,1.6-2.6,1.6c-0.6,0-1.9-0.2-1.9-1.6
	C239.8,704.4,240.1,703.9,240.5,703.7L240.5,703.7z M242,700.6c-1,0-1.6-0.5-1.6-1.5c0-1,0.6-1.5,1.6-1.5c1,0,1.6,0.5,1.6,1.5
	C243.6,700,243,700.6,242,700.6L242,700.6z"/>
<path id="Fill-8" fill="#FFFFFF" d="M252.2,704v-7.4h-1.1v5.5c-0.3,0.6-0.9,0.9-1.7,0.9c-1.1,0-1.7-0.6-1.7-1.7v-4.7h-1.1v4.6
	c0,1.7,1.1,2.9,2.7,2.9c0.7,0,1.3-0.2,1.7-0.5v0.3L252.2,704"/>
<path id="Fill-9" fill="#FFFFFF" d="M253.9,693.4h1.1V704h-1.1V693.4z"/>
<path id="Fill-10" fill="#FFFFFF" d="M259.1,696.5c-0.9,0-1.7,0.3-2.4,1l-0.3,0.3l0.7,0.8l0.3-0.3c0.5-0.5,1-0.7,1.6-0.7
	c1.1,0,1.8,0.7,1.8,1.8c-0.1,0-0.1,0-0.1,0c-0.5,0-1.1,0.1-1.7,0.1c-1.8,0.2-2.9,1-2.9,2.4c0,1.4,1,2.3,2.5,2.3
	c0.9,0,1.6-0.4,2.1-0.9v0.8h1.1v-4.7C262,697.7,260.8,696.5,259.1,696.5L259.1,696.5z M260.8,701.7c-0.7,0.8-1.2,1.4-2.1,1.4
	c-0.7,0-1.5-0.3-1.5-1.2c0-0.8,0.6-1.2,1.9-1.3c0.6-0.1,1.1-0.1,1.6-0.1h0.1V701.7L260.8,701.7z"/>
<path id="Fill-11" fill="#FFFFFF" d="M264.5,697.1v-0.4h-1.1v7.4h1.1v-5.5c0.4-0.6,1.1-1,2-1h0.3l0.2-1.1h-0.5
	C265.8,696.5,265.1,696.7,264.5,697.1"/>
<path id="Fill-12" opacity="0.25" enable-background="new    " d="M226.7,741.1c2.1,0,3.4-1.1,3.4-2.8c0-1.9-1.6-2.6-2.8-3.2
	l-0.2-0.1c-1.2-0.6-1.7-0.9-1.7-1.6c0-1.1,1-1.2,1.3-1.2c0.7,0,1.2,0.2,1.9,0.6l0.5,0.3l0.8-1.3l-0.6-0.3c-0.9-0.5-1.6-0.8-2.7-0.8
	c-1.8,0-3,1.1-3,2.7c0,1.7,1.4,2.4,2.6,3l0.1,0.1c1.3,0.6,1.9,1,1.9,1.8c0,0.5-0.2,1.3-1.8,1.3c-0.7,0-1.2-0.2-1.9-0.6l-0.6-0.4
	l-0.8,1.4l0.5,0.3C224.7,740.7,225.5,741.1,226.7,741.1"/>
<path id="Fill-13" opacity="0.25" enable-background="new    " d="M230.8,736.8c0,2.5,1.4,4.2,3.5,4.2c1,0,1.8-0.4,2.6-1.1l0.4-0.4
	l-1.1-1.1l-0.5,0.5c-0.4,0.4-0.9,0.6-1.4,0.6c-1.3,0-1.8-1.1-1.9-1.9h4.6v-1c0-2.2-1.2-3.7-3.1-3.7S230.8,734.5,230.8,736.8
	L230.8,736.8z M234,734.5c1.1,0,1.4,0.9,1.5,1.5h-3C232.6,735.3,233,734.5,234,734.5L234,734.5z"/>
<path id="Fill-14" opacity="0.25" enable-background="new    " d="M243.7,740.9V736c0-1.8-1.3-3.1-3.1-3.1c-1,0-1.8,0.3-2.6,1.1
	l-0.4,0.4l1,1.2l0.5-0.5c0.5-0.5,0.9-0.6,1.5-0.6c0.9,0,1.5,0.5,1.6,1.3c-0.5,0-1,0.1-1.5,0.1c-2.8,0.2-3.1,1.9-3.1,2.6
	c0,1.5,1.1,2.5,2.7,2.5c0.8,0,1.4-0.3,1.9-0.6v0.5H243.7L243.7,740.9z M240.2,739.5c-0.4,0-1.2-0.1-1.2-1c0-0.2,0-0.9,1.7-1.1
	c0.5-0.1,1-0.1,1.5-0.1v1C241.5,739,241,739.5,240.2,739.5L240.2,739.5z"/>
<path id="Fill-15" opacity="0.25" enable-background="new    " d="M250.9,740.9V736c0-1.9-1-3.1-2.8-3.1c-0.6,0-1.2,0.2-1.8,0.4V733
	h-1.6v7.8h1.6v-5.5c0.4-0.6,1-0.9,1.7-0.9c0.6,0,1.3,0.2,1.3,1.6v4.8L250.9,740.9"/>
<path id="Fill-16" opacity="0.25" enable-background="new    " d="M227.4,748.4h-2.9v10.2h2.9c1.2,0,2.1-0.4,2.8-1
	c0.5-0.6,0.8-1.3,0.8-2.2c0-1.1-0.5-1.9-1.3-2.5c0.5-0.4,0.7-1.1,0.7-1.8C230.4,749.5,229.2,748.4,227.4,748.4L227.4,748.4z
	 M226.1,750h1.3c0.6,0,1.5,0.2,1.5,1.2c0,0.7-0.5,1.1-1.6,1.1h-1.1L226.1,750L226.1,750z M229,756.5c-0.3,0.4-1,0.5-1.7,0.5H226
	v-3.3h1.1c1.9,0,2.2,1,2.2,1.7l0,0C229.4,755.9,229.3,756.3,229,756.5L229,756.5z"/>
<path id="Fill-17" opacity="0.25" enable-background="new    " d="M235.1,750.7c-2,0-3.4,1.6-3.4,4c0,2.4,1.4,4,3.4,4
	c2.1,0,3.5-1.6,3.5-4C238.6,752.3,237.2,750.7,235.1,750.7L235.1,750.7z M235.2,757.1c-1.4,0-1.9-1.3-1.9-2.5c0-1.1,0.5-2.4,1.8-2.4
	c1.5,0,1.9,1.2,1.9,2.4S236.6,757.1,235.2,757.1L235.2,757.1z"/>
<path id="Fill-18" opacity="0.25" enable-background="new    " d="M239.6,747.5h1.6v11.2h-1.6V747.5z"/>
<path id="Fill-19" opacity="0.25" enable-background="new    " d="M247.6,758.4v0.3h1.6v-11.2h-1.6v3.5c-0.5-0.3-1.1-0.4-1.8-0.4
	c-2.1,0-3.4,1.6-3.4,4.1c0,2.4,1.5,4,3.6,4C246.6,758.8,247.1,758.6,247.6,758.4L247.6,758.4z M243.9,754.7c0-0.6,0.2-2.5,1.9-2.5
	c0.8,0,1.3,0.2,1.8,0.6v3.5c-0.4,0.6-1,0.9-1.7,0.9C244.1,757.2,243.9,755.2,243.9,754.7L243.9,754.7z"/>
<path id="Fill-20" opacity="0.25" enable-background="new    " d="M226.7,795.4c2.2,0,3.6-1.2,3.6-3c0-2-1.7-2.8-2.9-3.4l-0.2-0.1
	c-1.1-0.5-1.6-0.8-1.6-1.5c0-0.8,0.6-1,1.2-1c0.7,0,1.1,0.2,1.8,0.5l0.7,0.4l1-1.6l-0.8-0.4c-0.9-0.5-1.7-0.9-2.8-0.9
	c-1.9,0-3.1,1.2-3.1,2.9c0,1.8,1.5,2.6,2.6,3.1l0.1,0.1c1.3,0.6,1.8,0.9,1.8,1.7c0,0.4-0.2,1.1-1.7,1.1c-0.7,0-1.2-0.2-1.8-0.6
	l-0.8-0.5l-1,1.7l0.7,0.4C224.7,795,225.5,795.4,226.7,795.4"/>
<path id="Fill-21" opacity="0.25" enable-background="new    " d="M234.3,795.4c1.1,0,1.9-0.4,2.7-1.2l0.5-0.5l-1.3-1.4l-0.6,0.6
	c-0.4,0.4-0.8,0.6-1.3,0.6c-1.1,0-1.6-0.8-1.7-1.6h4.6v-1.2c0-2.3-1.3-3.8-3.2-3.8c-2,0-3.4,1.6-3.4,4
	C230.6,793.6,232.1,795.4,234.3,795.4L234.3,795.4z M234,788.8c0.9,0,1.2,0.6,1.3,1.2h-2.6C232.8,789.4,233.2,788.8,234,788.8
	L234,788.8z"/>
<path id="Fill-22" opacity="0.25" enable-background="new    " d="M243.8,795.3v-5.1c0-1.9-1.3-3.2-3.3-3.2c-1,0-1.9,0.4-2.7,1.1
	l-0.6,0.5l1.2,1.5l0.6-0.6c0.5-0.4,0.8-0.6,1.3-0.6c0.8,0,1.2,0.3,1.4,1c-0.4,0-0.9,0.1-1.3,0.1c-2,0.2-3.3,1.2-3.3,2.8
	c0,1.6,1.2,2.7,2.9,2.7c0.7,0,1.3-0.2,1.8-0.5v0.4L243.8,795.3L243.8,795.3z M240.2,793.5c-0.4,0-1-0.1-1-0.9c0-0.2,0-0.8,1.5-0.9
	c0.5-0.1,0.9-0.1,1.2-0.1v0.8C241.3,793.1,240.9,793.5,240.2,793.5L240.2,793.5z"/>
<path id="Fill-23" opacity="0.25" enable-background="new    " d="M251,795.3v-5c0-2-1.1-3.3-3-3.3c-0.6,0-1.1,0.1-1.6,0.3v-0.2
	h-1.9v8.2h1.9v-5.6c0.4-0.5,0.9-0.8,1.6-0.8c0.5,0,1.1,0.2,1.1,1.4v5L251,795.3"/>
<path id="Fill-24" opacity="0.25" enable-background="new    " d="M230,807.1c0.4-0.5,0.6-1.1,0.6-1.8c0-1.8-1.2-2.9-3.2-2.9h-3.1
	v4.7l-0.7,0.2l0.7,0.1v5.5h3.1c1.2,0,2.3-0.4,2.9-1.1c0.6-0.6,0.9-1.4,0.9-2.3C231.1,808.5,230.7,807.6,230,807.1L230,807.1z
	 M226.2,804.3h1.1c0.4,0,0.8,0.1,1,0.3c0.2,0.2,0.3,0.4,0.3,0.8c0,0.2,0,0.9-1.5,0.9h-1L226.2,804.3L226.2,804.3z M228.9,810.6
	c-0.3,0.3-0.9,0.5-1.6,0.5h-1.1v-2.9h1c0.9,0,2,0.3,2,1.5v0.1C229.3,810,229.1,810.3,228.9,810.6L228.9,810.6z"/>
<path id="Fill-25" opacity="0.25" enable-background="new    " d="M231.6,801.5h1.9V813h-1.9V801.5z"/>
<path id="Fill-26" opacity="0.25" enable-background="new    " d="M237.2,804.6c-1,0-1.9,0.4-2.7,1.1l-0.6,0.5l1.2,1.5l0.6-0.6
	c0.5-0.4,0.8-0.6,1.3-0.6c0.8,0,1.2,0.3,1.4,1c-0.4,0-0.9,0.1-1.3,0.1c-2,0.2-3.3,1.2-3.3,2.8c0,1.6,1.2,2.7,2.9,2.7
	c0.7,0,1.3-0.2,1.8-0.5v0.4h1.9v-5.1C240.4,805.9,239,804.6,237.2,804.6L237.2,804.6z M238.6,810.1c-0.6,0.8-1,1.1-1.7,1.1
	c-0.4,0-1-0.1-1-0.9c0-0.2,0-0.8,1.5-0.9c0.5-0.1,0.9-0.1,1.2-0.1V810.1L238.6,810.1z"/>
<path id="Fill-27" opacity="0.25" enable-background="new    " d="M245.6,810.5c-0.3,0.4-0.7,0.6-1.2,0.6c-1.5,0-1.7-1.5-1.7-2.3
	c0-2.1,1.3-2.3,1.7-2.3c0.4,0,0.8,0.2,1.1,0.4l0.7,0.6l1.1-1.6l-0.5-0.5c-0.6-0.6-1.5-0.9-2.3-0.9c-2.2,0-3.7,1.7-3.7,4.2
	c0,2.6,1.4,4.2,3.5,4.2c1.1,0,2-0.5,2.7-1.3l0.4-0.6l-1.3-1.3L245.6,810.5"/>
<path id="Fill-28" opacity="0.25" enable-background="new    " d="M256,804.6h-3.1l-3.2,2.3v-5.4h-1.9v7.1l0,0l0,0v4.4h1.9v-2.6
	l3.5,2.6h3.1l-5.7-4.4L256,804.6"/>
<path id="Fill-29" opacity="0.25" enable-background="new    " d="M229.5,629.7c0-1.4-1.1-2-2.4-2.6c-1.2-0.5-2.2-1-2.2-2.3
	c0-1.1,0.8-1.8,2-1.8c0.9,0,1.5,0.2,2.3,0.6l0.1-0.2c-0.8-0.5-1.5-0.8-2.4-0.8c-1.3,0-2.3,0.8-2.3,2.1s1,1.8,2.2,2.4
	c1.3,0.6,2.4,1.1,2.4,2.5c0,1.3-1.1,1.9-2.5,1.9c-0.9,0-1.5-0.2-2.3-0.7l-0.2,0.3c0.8,0.5,1.5,0.7,2.4,0.7
	C228.2,631.9,229.5,631.1,229.5,629.7"/>
<path id="Fill-30" opacity="0.25" enable-background="new    " d="M234.3,631.9c0.9,0,1.5-0.3,2.1-0.9l-0.2-0.2
	c-0.5,0.5-1.1,0.8-1.9,0.8c-1.7,0-2.6-1.4-2.6-3.2h4.7v-0.3c0-1.7-0.8-3-2.4-3c-1.7,0-2.6,1.4-2.6,3.2
	C231.4,630.3,232.4,631.9,234.3,631.9L234.3,631.9z M234,625.3c1.5,0,2.2,1.1,2.2,2.7v0.2h-4.5C231.8,626.5,232.5,625.3,234,625.3
	L234,625.3z"/>
<path id="Fill-31" opacity="0.25" enable-background="new    " d="M240.6,627.9c-1.4,0.1-2.5,0.7-2.5,2c0,1.2,0.9,1.9,2.1,1.9
	c1.2,0,1.9-0.6,2.6-1.6v1.5h0.3v-4.2c0-1.5-1-2.4-2.5-2.4c-0.9,0-1.5,0.3-2.1,0.9l0.2,0.2c0.6-0.5,1.1-0.8,1.9-0.8
	c1.3,0,2.3,0.9,2.3,2.3v0.3C242,627.9,241.4,627.9,240.6,627.9L240.6,627.9z M242.7,630c-0.8,0.9-1.4,1.6-2.5,1.6s-1.9-0.6-1.9-1.7
	c0-1.1,1-1.6,2.3-1.8c0.8-0.1,1.4-0.1,2.1-0.1L242.7,630L242.7,630z"/>
<path id="Fill-32" opacity="0.25" enable-background="new    " d="M245.6,626.7c0.5-0.8,1.2-1.4,2.4-1.4c1.3,0,1.9,0.9,1.9,2.2v4.2
	h0.3v-4.2c0-1.5-0.7-2.5-2.1-2.5c-1.1,0-1.9,0.5-2.4,1.2v-1.1h-0.3v6.6h0.3L245.6,626.7"/>
<path id="Fill-33" opacity="0.25" enable-background="new    " d="M225.4,640.6h-0.3v8.9h5.3v-0.3h-5V640.6"/>
<path id="Fill-34" opacity="0.25" enable-background="new    " d="M232.6,642.9h0.3v6.6h-0.3V642.9z"/>
<path id="Fill-35" opacity="0.25" enable-background="new    " d="M232.6,639.7h0.3v1.2h-0.3V639.7z"/>
<path id="Fill-36" opacity="0.25" enable-background="new    " d="M235.4,645c0,0.8,0.3,1.3,0.8,1.7c-0.5,0.2-0.8,0.6-0.8,1.2
	c0,0.5,0.2,0.9,0.6,1.1c-0.8,0.4-1.2,1-1.2,1.9c0,1.4,1,2.2,2.5,2.2c1.9,0.1,3.4-0.6,3.4-2.3c0-1.2-0.9-1.7-2.1-1.7
	c-0.6,0-1,0-1.6-0.1c-0.8,0-1.2-0.4-1.2-1.2c0-0.5,0.2-0.9,0.6-1c0.4,0.2,0.8,0.3,1.3,0.3c1.4,0,2.3-0.8,2.3-2.1
	c0-0.5-0.1-0.9-0.3-1.2h1.5v-0.3h-1.6c-0.4-0.4-1-0.6-1.7-0.6C236.3,642.8,235.4,643.6,235.4,645L235.4,645z M236.9,649.2
	c0.5,0,1,0,1.5,0.1c1.1,0.1,2,0.5,2,1.6c0,1.5-1.3,2-3,2c-1.3,0-2.3-0.7-2.3-2c0-0.9,0.4-1.4,1.1-1.8
	C236.4,649.1,236.7,649.2,236.9,649.2L236.9,649.2z M237.7,643c1.2,0,2,0.7,2,1.9c0,1.2-0.8,1.9-2,1.9s-2-0.7-2-1.8
	C235.6,643.7,236.4,643,237.7,643L237.7,643z"/>
<path id="Fill-37" opacity="0.25" enable-background="new    " d="M242.8,639.6h-0.3v9.8h0.3v-5.2c0.4-0.9,1.2-1.2,2.1-1.2
	c1.3,0,2.1,0.9,2.1,2.2v4.2h0.3v-4.2c0-1.5-0.9-2.5-2.4-2.5c-1,0-1.7,0.4-2.2,1.1L242.8,639.6"/>
<path id="Fill-38" opacity="0.25" enable-background="new    " d="M249.2,643.6h1.8v4c0,1.1,0.5,1.9,1.5,1.9c0.5,0,0.9-0.1,1.3-0.3
	l-0.1-0.2c-0.4,0.2-0.7,0.3-1.2,0.3c-0.9,0-1.3-0.7-1.3-1.7v-4h2.8v-0.3h-2.8v-1.9l-0.3,0.2v1.7h-1.8L249.2,643.6"/>
<path id="Fill-39" opacity="0.25" enable-background="new    " d="M338.6,685.4c-0.5,0-0.9-0.2-1.5-0.6l-0.4-0.4l-0.4,1.1l0.3,0.2
	c0.6,0.5,1.2,0.8,2,0.8c1.5,0,2.5-1,2.5-2.6c0-1.7-1.1-2.4-2-3l-0.1-0.1c-0.8-0.5-1.3-0.9-1.3-1.8s0.4-1.4,1.1-1.4
	c0.5,0,0.9,0.2,1.5,0.6l0.4,0.3l0.4-1l-0.3-0.2c-0.6-0.5-1.2-0.8-2-0.8c-1.3,0-2.1,1-2.1,2.5c0,1.6,1,2.2,1.8,2.7l0.1,0.1
	c0.9,0.5,1.6,1,1.6,2C340.1,684.8,339.5,685.4,338.6,685.4"/>
<path id="Fill-40" opacity="0.25" enable-background="new    " d="M344.3,686.4c0.8,0,1.3-0.3,1.9-1.1l0.2-0.2l-0.6-0.9l-0.3,0.4
	c-0.3,0.5-0.6,0.6-1.1,0.6c-1,0-1.5-1.2-1.6-2.4h3.5v-0.7c0-2.1-0.9-3.4-2.2-3.4c-1.5,0-2.4,1.5-2.4,3.7
	C341.7,684.9,342.8,686.4,344.3,686.4L344.3,686.4z M344.1,679.9c0.8,0,1.2,1,1.2,2h-2.5C342.9,681.1,343.2,679.9,344.1,679.9
	L344.1,679.9z"/>
<path id="Fill-41" opacity="0.25" enable-background="new    " d="M346.8,684.1c0,1.4,0.8,2.3,2,2.3c0.6,0,1.1-0.3,1.5-0.7v0.5h1
	v-4.7c0-1.7-0.9-2.8-2.3-2.8c-0.8,0-1.3,0.3-1.9,1l-0.2,0.2l0.6,0.9l0.4-0.4c0.4-0.5,0.7-0.6,1.1-0.6c0.8,0,1.2,0.7,1.3,1.8
	c-0.4,0-0.8,0.1-1.2,0.1C347.6,681.9,346.8,682.8,346.8,684.1L346.8,684.1z M350.3,682.7v1.3c-0.5,0.8-0.9,1.3-1.5,1.3s-1-0.5-1-1.2
	c0-0.5,0.2-1.2,1.3-1.3C349.6,682.7,349.9,682.7,350.3,682.7L350.3,682.7z"/>
<path id="Fill-42" opacity="0.25" enable-background="new    " d="M352.3,679v7.4h1v-5.3c0.3-0.5,0.7-1.1,1.4-1.1c0.7,0,1,0.6,1,1.8
	v4.6h1v-4.6c0-0.9-0.2-2.8-2-2.8c-0.5,0-1,0.2-1.4,0.5v-0.4L352.3,679"/>
<path id="Fill-43" opacity="0.25" enable-background="new    " d="M336.9,699.4c0,3,1.2,4.7,3.2,4.7c1.1,0,1.9-0.4,2.7-1.5l0.2-0.2
	l-0.6-1l-0.4,0.5c-0.6,0.8-1.1,1.1-2,1.1c-0.5,0-2.1-0.3-2.1-3.7c0-1,0.2-4.1,2.3-4.1c0.8,0,1.2,0.2,1.9,0.8l0.4,0.4l0.5-1l-0.2-0.2
	c-0.8-0.8-1.5-1.1-2.5-1.1C338.2,694.2,336.9,696.2,336.9,699.4"/>
<path id="Fill-44" opacity="0.25" enable-background="new    " d="M343.4,700.3c0,2.3,1,3.8,2.5,3.8c1.6,0,2.5-1.5,2.5-3.8
	c0-2.2-1-3.7-2.5-3.7S343.4,698,343.4,700.3L343.4,700.3z M347.5,700.3c0,1.3-0.4,2.7-1.5,2.7c-1.1,0-1.5-1.3-1.5-2.7
	c0-1.3,0.4-2.6,1.5-2.6C347,697.7,347.5,699,347.5,700.3L347.5,700.3z"/>
<path id="Fill-45" opacity="0.25" enable-background="new    " d="M350.7,697v-0.4h-1v7.4h1v-5.3c0.3-0.5,0.7-1.1,1.4-1.1
	c0.7,0,1,0.6,1,1.8v4.6h1v-4.6c0-0.9-0.2-2.8-2-2.8C351.6,696.5,351.1,696.7,350.7,697"/>
<path id="Fill-46" opacity="0.25" enable-background="new    " d="M359.1,696.9c-0.4-0.3-0.9-0.4-1.5-0.4c-1.5,0-2.5,1.5-2.5,3.9
	c0,2.3,1,3.8,2.6,3.8c0.5,0,1-0.2,1.3-0.5v0.3h1v-10.6h-1L359.1,696.9L359.1,696.9z M359.1,702c-0.4,1-1,1.1-1.4,1.1
	c-1.1,0-1.5-1.5-1.5-2.7c0-1.3,0.4-2.7,1.5-2.7c0.6,0,1,0.2,1.4,0.7V702L359.1,702z"/>
<path id="Fill-47" opacity="0.25" enable-background="new    " d="M363.6,704.2c0.8,0,1.3-0.3,1.9-1.1l0.2-0.2l-0.6-0.9l-0.3,0.4
	c-0.3,0.5-0.6,0.6-1.1,0.6c-1,0-1.5-1.2-1.6-2.4h3.5v-0.7c0-2.1-0.9-3.4-2.2-3.4c-1.5,0-2.4,1.5-2.4,3.7
	C361,702.6,362,704.2,363.6,704.2L363.6,704.2z M363.4,697.6c0.8,0,1.2,1,1.2,2h-2.5C362.2,698.8,362.5,697.6,363.4,697.6
	L363.4,697.6z"/>
<path id="Fill-48" opacity="0.25" enable-background="new    " d="M367.7,698.7c0.3-0.5,0.7-1.1,1.4-1.1s1,0.6,1,1.8v4.6h1v-4.6
	c0-0.9-0.2-2.8-2-2.8c-0.5,0-1,0.2-1.4,0.5v-0.4h-1v7.4h1V698.7"/>
<path id="Fill-49" opacity="0.25" enable-background="new    " d="M374,703.1c-0.5,0-0.8-0.2-1.2-0.6l-0.4-0.3l-0.5,0.9l0.2,0.2
	c0.6,0.6,1.2,0.9,1.9,0.9c1.3,0,2.1-0.8,2.1-2.1c0-1.4-1.1-1.9-1.7-2.1c-0.8-0.4-1.1-0.6-1.1-1.3c0-0.6,0.3-1,0.9-1
	c0.3,0,0.6,0.1,1,0.4l0.4,0.3l0.4-1l-0.2-0.2c-0.4-0.3-0.9-0.6-1.6-0.6c-1.1,0-1.9,0.8-1.9,2c0,1.4,0.9,2,1.6,2.3h0.1
	c0.8,0.3,1.1,0.5,1.1,1.2C375.1,702.9,374.5,703.1,374,703.1"/>
<path id="Fill-50" opacity="0.25" enable-background="new    " d="M379.3,704.2c0.8,0,1.3-0.3,1.9-1.1l0.2-0.2l-0.6-0.9l-0.3,0.4
	c-0.3,0.5-0.6,0.6-1.1,0.6c-1,0-1.5-1.2-1.6-2.4h3.5v-0.7c0-2.1-0.9-3.4-2.2-3.4c-1.5,0-2.4,1.5-2.4,3.7
	C376.8,702.6,377.8,704.2,379.3,704.2L379.3,704.2z M379.1,697.6c0.8,0,1.2,1,1.2,2h-2.5C377.9,698.8,378.2,697.6,379.1,697.6
	L379.1,697.6z"/>
<path id="Fill-51" opacity="0.25" enable-background="new    " d="M384.7,704.2c0.5,0,1-0.2,1.3-0.5v0.3h1v-10.6h-1v3.5
	c-0.4-0.3-0.9-0.4-1.5-0.4c-1.5,0-2.5,1.5-2.5,3.9C382.1,702.7,383.1,704.2,384.7,704.2L384.7,704.2z M384.6,697.5
	c0.6,0,1,0.2,1.4,0.7v3.8c-0.4,1-1,1.1-1.4,1.1c-1.1,0-1.5-1.5-1.5-2.7C383.1,699.1,383.5,697.5,384.6,697.5L384.6,697.5z"/>
<path id="Fill-52" opacity="0.25" enable-background="new    " d="M391.6,699.9h0.9c0.1,0,0.2,0,0.3,0l2.5,4.2h1.2l-2.7-4.5
	c0.9-0.5,1.3-1.3,1.3-2.5c0-1.6-1-2.7-2.5-2.7h-2v9.7h1L391.6,699.9L391.6,699.9z M391.6,695.4h0.9c1,0,1.6,0.6,1.6,1.6
	c0,1.1-0.6,1.7-1.6,1.7h-0.9V695.4L391.6,695.4z"/>
<path id="Fill-53" opacity="0.25" enable-background="new    " d="M399.1,704.2c0.8,0,1.3-0.3,1.9-1.1l0.2-0.2l-0.6-0.9l-0.3,0.4
	c-0.3,0.5-0.6,0.6-1.1,0.6c-1,0-1.5-1.2-1.6-2.4h3.5v-0.7c0-2.1-0.9-3.4-2.2-3.4c-1.5,0-2.4,1.5-2.4,3.7
	C396.5,702.6,397.5,704.2,399.1,704.2L399.1,704.2z M398.8,697.6c0.8,0,1.2,1,1.2,2h-2.5C397.7,698.8,397.9,697.6,398.8,697.6
	L398.8,697.6z"/>
<path id="Fill-54" opacity="0.25" enable-background="new    " d="M401.9,699.2c0,0.6,0.2,1.2,0.4,1.6c-0.3,0.3-0.4,0.8-0.4,1.3
	c0,0.4,0.1,0.8,0.3,1c-0.5,0.5-0.7,1.1-0.7,1.9c0,1.6,0.9,2.6,2.3,2.6l0,0c0.1,0,0.1,0,0.1,0c0.9,0,1.6-0.3,2.1-0.8
	c0.5-0.5,0.7-1.1,0.7-1.9c0-1.2-0.8-2-2-2.1c-0.2,0-0.4,0-0.6,0c-0.2,0-0.4,0-0.6,0c-0.3,0-0.5-0.3-0.5-0.8c0-0.2,0-0.4,0.1-0.5
	c0.3,0.2,0.6,0.2,1,0.2c1.3,0,2.1-1,2.1-2.5c0-0.3,0-0.5-0.1-0.8h0.9v-1.1h-1.5c-0.4-0.4-0.9-0.6-1.5-0.6
	C402.8,696.6,401.9,697.6,401.9,699.2L401.9,699.2z M403,703.7c0.2,0.1,0.3,0.1,0.5,0.1c0.2,0,0.4,0,0.6,0c0.2,0,0.3,0,0.5,0
	c1,0.1,1.1,0.7,1.1,1.1c0,0.7-0.2,1.6-1.9,1.6c-0.8,0-1.3-0.6-1.3-1.6C402.5,704.4,402.6,704,403,703.7L403,703.7z M404,697.7
	c1,0,1.1,1,1.1,1.5s-0.1,1.5-1.1,1.5c-1,0-1.1-1-1.1-1.5S403,697.7,404,697.7L404,697.7z"/>
<path id="Fill-55" opacity="0.25" enable-background="new    " d="M407.4,696.6v4.6c0,1.7,0.9,2.9,2.1,2.9c0.5,0,0.9-0.1,1.2-0.4
	v0.2h1v-7.4h-1v5.5c-0.3,0.6-0.6,0.9-1.2,0.9c-0.7,0-1.2-0.7-1.2-1.7v-4.7L407.4,696.6"/>
<path id="Fill-56" opacity="0.25" enable-background="new    " d="M412.9,693.4h1V704h-1V693.4z"/>
<path id="Fill-57" opacity="0.25" enable-background="new    " d="M416.8,696.5c-0.8,0-1.3,0.3-1.9,1l-0.2,0.2l0.6,0.9l0.4-0.4
	c0.4-0.5,0.7-0.6,1.1-0.6c0.8,0,1.2,0.7,1.3,1.8c-0.4,0-0.8,0.1-1.2,0.1c-1.5,0.2-2.3,1-2.3,2.4c0,1.4,0.8,2.3,2,2.3
	c0.6,0,1.1-0.3,1.5-0.7v0.5h1v-4.7C419.1,697.7,418.2,696.5,416.8,696.5L416.8,696.5z M418.1,701.7c-0.5,0.8-0.9,1.3-1.5,1.3
	c-0.6,0-1-0.5-1-1.2c0-0.5,0.2-1.2,1.3-1.3c0.4-0.1,0.8-0.1,1.1-0.1L418.1,701.7L418.1,701.7z"/>
<path id="Fill-58" opacity="0.25" enable-background="new    " d="M421.1,696.9v-0.3h-1v7.4h1v-5.5c0.3-0.6,0.8-0.9,1.4-0.9h0.4
	l0.2-1.1h-0.5C421.9,696.5,421.4,696.6,421.1,696.9"/>
<path id="Fill-59" opacity="0.25" enable-background="new    " d="M338.6,741.1c1.7,0,2.7-1.1,2.7-2.8c0-1.8-1.2-2.6-2.1-3.2
	l-0.1-0.1c-0.9-0.5-1.2-0.8-1.2-1.6c0-0.4,0.1-1.2,0.9-1.2c0.5,0,0.8,0.1,1.3,0.5l0.6,0.5l0.6-1.4l-0.4-0.3
	c-0.6-0.5-1.3-0.9-2.2-0.9c-1.5,0-2.4,1.1-2.4,2.7c0,1.7,1.1,2.4,1.9,3l0.1,0.1c1,0.6,1.4,0.9,1.4,1.8c0,1.1-0.6,1.3-1.2,1.3
	c-0.5,0-0.8-0.2-1.3-0.5l-0.7-0.6l-0.6,1.6l0.4,0.3C337,740.6,337.6,741.1,338.6,741.1"/>
<path id="Fill-60" opacity="0.25" enable-background="new    " d="M344.3,741.1c0.9,0,1.5-0.4,2.1-1.2l0.3-0.4l-0.9-1.3l-0.5,0.7
	c-0.3,0.5-0.6,0.5-0.9,0.5c-0.8,0-1.1-0.9-1.3-1.9h3.5v-1c0-2.2-1-3.7-2.5-3.7c-1.6,0-2.6,1.5-2.6,3.9
	C341.5,739.4,342.6,741.1,344.3,741.1L344.3,741.1z M344.1,734.5c0.6,0,0.9,0.8,1,1.5h-1.9C343.2,735.2,343.5,734.5,344.1,734.5
	L344.1,734.5z"/>
<path id="Fill-61" opacity="0.25" enable-background="new    " d="M350.1,740.6v0.3h1.5V736c0-1.8-1-3.1-2.5-3.1
	c-0.8,0-1.5,0.4-2.1,1.1l-0.3,0.4l0.9,1.3l0.6-0.7c0.4-0.5,0.6-0.6,0.9-0.6c0.6,0,1,0.6,1,1.3c-0.3,0-0.6,0.1-1,0.1
	c-1.6,0.2-2.5,1.1-2.5,2.6c0,1.5,0.9,2.5,2.2,2.5C349.3,741.1,349.7,740.9,350.1,740.6L350.1,740.6z M348.1,738.5
	c0-0.5,0.1-1,1.1-1.1c0.3-0.1,0.6-0.1,0.9-0.1v1c-0.5,0.8-0.8,1.2-1.2,1.2C348.2,739.5,348.1,738.8,348.1,738.5L348.1,738.5z"/>
<path id="Fill-62" opacity="0.25" enable-background="new    " d="M355.5,736.1v4.8h1.5V736c0-2.8-1.6-3.1-2.3-3.1
	c-0.4,0-0.8,0.1-1.2,0.3V733H352v7.8h1.5v-5.5c0.2-0.4,0.6-0.9,1.1-0.9C355.2,734.5,355.5,735,355.5,736.1"/>
<path id="Fill-63" opacity="0.25" enable-background="new    " d="M336.7,753.7c0,3.1,1.3,5,3.4,5c1.2,0,2-0.4,3-1.5l0.3-0.4
	l-0.9-1.4l-0.6,0.8c-0.6,0.7-1,1-1.8,1c-1.8,0-1.9-2.6-1.9-3.4c0-0.9,0.2-3.8,2.1-3.8c0.7,0,1.1,0.2,1.7,0.8l0.6,0.6l0.8-1.5
	l-0.4-0.3c-0.9-0.8-1.6-1.1-2.7-1.1C338,748.3,336.7,750.4,336.7,753.7"/>
<path id="Fill-64" opacity="0.25" enable-background="new    " d="M345.9,758.7c1.7,0,2.8-1.6,2.8-4c0-2.4-1.1-4-2.8-4
	c-1.6,0-2.7,1.6-2.7,4C343.2,757.1,344.3,758.7,345.9,758.7L345.9,758.7z M345.9,752.2c0.9,0,1.3,1.2,1.3,2.4s-0.4,2.4-1.2,2.4
	c-0.9,0-1.3-1.2-1.3-2.5C344.7,753.5,345.1,752.2,345.9,752.2L345.9,752.2z"/>
<path id="Fill-65" opacity="0.25" enable-background="new    " d="M354.4,758.6v-4.9c0-2.8-1.6-3.1-2.3-3.1c-0.4,0-0.8,0.1-1.2,0.3
	v-0.2h-1.5v7.8h1.5V753c0.2-0.4,0.6-0.9,1.1-0.9c0.5,0,0.8,0.5,0.8,1.6v4.8L354.4,758.6"/>
<path id="Fill-66" opacity="0.25" enable-background="new    " d="M360.4,758.6v-11.2h-1.5v3.3c-0.4-0.2-0.8-0.3-1.2-0.3
	c-1.7,0-2.7,1.6-2.7,4.1c0,2.4,1.1,4,2.8,4c0.4,0,0.8-0.1,1.1-0.3v0.1h1.6L360.4,758.6L360.4,758.6z M357.7,757.2
	c-0.9,0-1.3-1.3-1.3-2.5s0.3-2.5,1.2-2.5c0.5,0,0.8,0.2,1.2,0.5v3.6C358.5,757.1,358.1,757.2,357.7,757.2L357.7,757.2z"/>
<path id="Fill-67" opacity="0.25" enable-background="new    " d="M363.6,758.7c0.9,0,1.5-0.4,2.1-1.2l0.3-0.4l-0.9-1.3l-0.5,0.7
	c-0.3,0.5-0.6,0.5-0.9,0.5c-0.8,0-1.1-0.9-1.3-1.9h3.5v-1c0-2.2-1-3.7-2.5-3.7c-1.6,0-2.6,1.5-2.6,3.9
	C360.8,757.1,361.9,758.7,363.6,758.7L363.6,758.7z M363.4,752.2c0.6,0,0.9,0.8,1,1.5h-2C362.5,752.9,362.8,752.2,363.4,752.2
	L363.4,752.2z"/>
<path id="Fill-68" opacity="0.25" enable-background="new    " d="M367.9,753.1c0.2-0.4,0.6-0.9,1.1-0.9c0.5,0,0.8,0.5,0.8,1.6v4.8
	h1.5v-4.9c0-2.8-1.6-3.1-2.3-3.1c-0.4,0-0.8,0.1-1.2,0.3v-0.2h-1.5v7.8h1.5L367.9,753.1"/>
<path id="Fill-69" opacity="0.25" enable-background="new    " d="M374,758.7c1.5,0,2.4-0.9,2.4-2.4c0-1.6-1.2-2.1-1.8-2.4
	c-0.8-0.4-1-0.6-1-1.1s0.2-0.7,0.6-0.7c0.3,0,0.5,0.1,0.9,0.4l0.7,0.5l0.6-1.5l-0.4-0.3c-0.5-0.4-1-0.7-1.8-0.7
	c-1.2,0-2.1,0.9-2.1,2.3c0,1.5,1,2.1,1.8,2.5h0.1c0.8,0.4,1,0.5,1,1c0,0.2,0,0.8-0.8,0.8c-0.4,0-0.7-0.1-1.1-0.5l-0.6-0.5l-0.8,1.3
	l0.4,0.4C372.5,758.5,373.2,758.7,374,758.7"/>
<path id="Fill-70" opacity="0.25" enable-background="new    " d="M379.3,758.7c0.9,0,1.5-0.4,2.1-1.2l0.3-0.4l-0.9-1.3l-0.5,0.7
	c-0.3,0.5-0.6,0.5-0.9,0.5c-0.8,0-1.1-0.9-1.3-1.9h3.5v-1c0-2.2-1-3.7-2.5-3.7c-1.6,0-2.6,1.5-2.6,3.9
	C376.5,757.1,377.7,758.7,379.3,758.7L379.3,758.7z M379.1,752.2c0.6,0,0.9,0.8,1,1.5h-1.9C378.3,752.9,378.5,752.2,379.1,752.2
	L379.1,752.2z"/>
<path id="Fill-71" opacity="0.25" enable-background="new    " d="M384.7,758.8c0.4,0,0.8-0.1,1.1-0.3v0.1h1.5v-11.2h-1.5v3.3
	c-0.4-0.2-0.8-0.3-1.2-0.3c-1.7,0-2.7,1.6-2.7,4.1S383,758.8,384.7,758.8L384.7,758.8z M384.6,752.2c0.5,0,0.8,0.2,1.2,0.5v3.6
	c-0.4,0.8-0.8,0.9-1.1,0.9c-0.9,0-1.3-1.3-1.3-2.5S383.7,752.2,384.6,752.2L384.6,752.2z"/>
<path id="Fill-72" opacity="0.25" enable-background="new    " d="M393,748.4h-2.4v10.2h2.3c0.8,0,1.5-0.3,2-0.8
	c0.6-0.6,0.9-1.4,0.8-2.4c0-1.1-0.4-1.9-1-2.5c0.4-0.4,0.6-1.1,0.6-1.8C395.4,749.5,394.5,748.4,393,748.4L393,748.4z M392.2,750
	h0.8c0.6,0,0.9,0.4,0.9,1.2c0,0.5-0.1,1.1-1.1,1.1h-0.7L392.2,750L392.2,750z M393.9,756.7c-0.3,0.3-0.7,0.4-1,0.4h-0.8v-3.3h0.7
	c1,0,1.5,0.6,1.5,1.7C394.3,756,394.2,756.4,393.9,756.7L393.9,756.7z"/>
<path id="Fill-73" opacity="0.25" enable-background="new    " d="M398.8,750.7c-1.6,0-2.7,1.6-2.7,4c0,2.5,1.1,4,2.7,4
	c1.7,0,2.8-1.6,2.8-4C401.6,752.3,400.4,750.7,398.8,750.7L398.8,750.7z M398.8,757.1c-0.9,0-1.3-1.2-1.3-2.5c0-1.2,0.4-2.4,1.2-2.4
	c0.9,0,1.3,1.2,1.3,2.4C400.1,755.9,399.7,757.1,398.8,757.1L398.8,757.1z"/>
<path id="Fill-74" opacity="0.25" enable-background="new    " d="M402.1,747.5h1.5v11.2h-1.5V747.5z"/>
<path id="Fill-75" opacity="0.25" enable-background="new    " d="M409.6,758.6v-11.2h-1.5v3.3c-0.4-0.2-0.8-0.3-1.2-0.3
	c-1.7,0-2.7,1.6-2.7,4.1c0,2.4,1.1,4,2.8,4c0.4,0,0.8-0.1,1.1-0.3v0.1h1.6L409.6,758.6L409.6,758.6z M406.9,757.2
	c-0.9,0-1.3-1.3-1.3-2.5s0.3-2.5,1.2-2.5c0.5,0,0.8,0.2,1.2,0.5v3.6C407.7,757.1,407.3,757.2,406.9,757.2L406.9,757.2z"/>
<path id="Fill-76" opacity="0.25" enable-background="new    " d="M341.5,792.5c0.4,1.8,1.4,2.8,2.8,2.8c1.2,0,1.8-0.7,2.2-1.2
	l0.1-0.2c0.4,0.9,1.1,1.4,2.1,1.4c0.4,0,0.8-0.1,1.1-0.3v0.2h1.8v-5.1c0-1.9-1.1-3.2-2.7-3.2c-0.9,0-1.6,0.4-2.2,1.2l-0.4,0.5
	l1.1,1.6l0.7-0.9c0.4-0.5,0.6-0.5,0.8-0.5c0.5,0,0.8,0.5,0.8,1c-0.3,0-0.5,0.1-0.8,0.1c-1.1,0.1-1.9,0.6-2.3,1.5v-0.7
	c0-2.3-1-3.8-2.6-3.8c-1.7,0-2.7,1.6-2.7,4c0,0.1,0,0.2,0,0.3c-0.4-1.2-1.3-1.8-2-2.3l-0.1-0.1c-0.8-0.5-1.2-0.8-1.2-1.5
	c0-0.4,0.1-1,0.7-1c0.4,0,0.7,0.1,1.2,0.5l0.8,0.6l0.8-1.7l-0.5-0.4c-0.7-0.5-1.3-0.9-2.3-0.9c-1.5,0-2.5,1.2-2.5,2.9
	c0,1.8,1.2,2.5,2,3.1l0.1,0.1c0.9,0.6,1.3,0.9,1.3,1.7s-0.3,1.1-1,1.1c-0.4,0-0.7-0.1-1.2-0.5l-0.9-0.7l-0.8,1.9l0.5,0.4
	c0.6,0.5,1.2,0.9,2.3,0.9C340.3,795.4,341.4,794.2,341.5,792.5L341.5,792.5z M349.2,791.7c0.3-0.1,0.5-0.1,0.7-0.1v0.8
	c-0.4,0.7-0.8,1-1.1,1c-0.5,0-0.6-0.5-0.6-0.9C348.2,792.2,348.3,791.8,349.2,791.7L349.2,791.7z M344.1,788.8
	c0.4,0,0.6,0.5,0.8,1.2h-1.6C343.4,789.3,343.7,788.8,344.1,788.8L344.1,788.8z M346.5,791.9c-0.1,0.3-0.1,0.5-0.1,0.8
	c0,0.1,0,0.2,0,0.3l-0.6-0.9l-0.7,0.9c-0.3,0.4-0.5,0.5-0.8,0.5c-0.6,0-1-0.8-1.1-1.6H346.5L346.5,791.9z"/>
<path id="Fill-77" opacity="0.25" enable-background="new    " d="M355.3,790.3v5h1.8v-5c0-0.8-0.2-3.3-2.4-3.3
	c-0.4,0-0.7,0.1-1,0.2v-0.1h-1.8v8.2h1.8v-5.6c0.2-0.4,0.5-0.8,1-0.8C355.1,788.9,355.3,789.3,355.3,790.3"/>
<path id="Fill-78" opacity="0.25" enable-background="new    " d="M345.9,804.7c-1.7,0-2.9,1.7-2.9,4.1c0,0.6,0.1,1.2,0.2,1.8
	l-0.8-1.3l-0.7,0.9c-0.6,0.8-1,0.9-1.7,0.9c-1.6,0-1.8-2.5-1.8-3.3c0-0.9,0.2-3.7,1.9-3.7c0.6,0,1.1,0.2,1.6,0.7l0.8,0.8l0.9-1.8
	l-0.4-0.4c-0.9-0.9-1.7-1.2-2.8-1.2c-2.3,0-3.8,2.1-3.8,5.6c0,3.2,1.4,5.2,3.6,5.2c1.2,0,2.1-0.5,3.1-1.6l0.3-0.3
	c0.5,1.2,1.3,1.9,2.5,1.9c1.8,0,3-1.7,3-4.2C348.9,806.3,347.7,804.7,345.9,804.7L345.9,804.7z M346,811.1c-0.8,0-1.1-1.2-1.1-2.3
	c0-1.1,0.3-2.2,1-2.2c0.8,0,1.1,1.2,1.1,2.3C347,809.9,346.7,811.1,346,811.1L346,811.1z"/>
<path id="Fill-79" opacity="0.25" enable-background="new    " d="M352.1,804.6c-0.4,0-0.7,0.1-1,0.2v-0.1h-1.8v8.2h1.8v-5.6
	c0.2-0.4,0.5-0.8,1-0.8c0.5,0,0.6,0.5,0.6,1.4v5h1.8v-5C354.5,807.1,354.4,804.6,352.1,804.6"/>
<path id="Fill-80" opacity="0.25" enable-background="new    " d="M358.7,804.8c-0.3-0.1-0.7-0.2-1.1-0.2c-1.8,0-2.9,1.7-2.9,4.3
	c0,2.5,1.2,4.2,3,4.2c0.3,0,0.6-0.1,0.9-0.2h1.8v-11.5h-1.8L358.7,804.8L358.7,804.8z M358.7,810.4c-0.3,0.6-0.6,0.8-1,0.8
	c-0.8,0-1.1-1.2-1.1-2.4c0-1.2,0.3-2.4,1.1-2.4c0.4,0,0.6,0.1,1,0.4V810.4L358.7,810.4z"/>
<path id="Fill-81" opacity="0.25" enable-background="new    " d="M364.4,810.7c-0.3,0.4-0.5,0.5-0.8,0.5c-0.6,0-1-0.8-1.1-1.6h3.4
	v-1.1c0-2.3-1-3.8-2.6-3.8c-1.7,0-2.7,1.6-2.7,4c0,2.7,1.2,4.4,3,4.4c1.2,0,1.8-0.7,2.2-1.2l0.3-0.5l-1.1-1.6L364.4,810.7
	L364.4,810.7z M363.4,806.5c0.4,0,0.6,0.5,0.8,1.2h-1.6C362.7,807,362.9,806.5,363.4,806.5L363.4,806.5z"/>
<path id="Fill-82" opacity="0.25" enable-background="new    " d="M374.6,808c-0.8-0.4-0.9-0.5-0.9-1s0.3-0.5,0.4-0.5
	c0.2,0,0.4,0.1,0.8,0.4l0.9,0.7l0.8-1.8l-0.5-0.4c-0.5-0.4-1-0.8-1.8-0.8c-1.3,0-2.3,1-2.3,2.4c0,1.8,1.4,2.5,1.9,2.7h0.1
	c0.8,0.3,0.9,0.4,0.9,0.8c0,0.3-0.1,0.6-0.6,0.6c-0.3,0-0.5-0.1-1-0.5l-0.8-0.7l-0.8,1.3v-3.4c0-0.8-0.2-3.3-2.4-3.3
	c-0.4,0-0.7,0.1-1,0.2v-0.1h-1.8v8.2h1.8v-5.6c0.2-0.4,0.5-0.8,1-0.8c0.4,0,0.6,0.5,0.6,1.4v5h1.8v-1.1l0.3,0.3c0.7,0.7,1.3,1,2.2,1
	c1.5,0,2.5-1,2.5-2.5C376.5,808.9,375.2,808.3,374.6,808"/>
<path id="Fill-83" opacity="0.25" enable-background="new    " d="M380.1,810.7c-0.3,0.4-0.5,0.5-0.8,0.5c-0.6,0-1-0.8-1.1-1.6h3.4
	v-1.1c0-2.3-1-3.8-2.6-3.8c-1.7,0-2.7,1.6-2.7,4c0,2.7,1.2,4.4,3,4.4c1.2,0,1.8-0.7,2.2-1.2l0.3-0.5l-1.1-1.6L380.1,810.7
	L380.1,810.7z M379.1,806.5c0.4,0,0.6,0.5,0.8,1.2h-1.6C378.5,807,378.7,806.5,379.1,806.5L379.1,806.5z"/>
<path id="Fill-84" opacity="0.25" enable-background="new    " d="M385.6,804.8c-0.3-0.1-0.7-0.2-1.1-0.2c-1.8,0-2.9,1.7-2.9,4.3
	c0,2.5,1.2,4.2,3,4.2c0.3,0,0.6-0.1,0.9-0.2h1.8v-11.5h-1.8L385.6,804.8L385.6,804.8z M385.6,810.4c-0.3,0.6-0.6,0.8-1,0.8
	c-0.8,0-1.1-1.2-1.1-2.4c0-1.2,0.3-2.4,1.1-2.4c0.4,0,0.6,0.1,1,0.4V810.4L385.6,810.4z"/>
<path id="Fill-85" opacity="0.25" enable-background="new    " d="M414.6,804.6H412l-2,2v-5.1h-1.8v4.6l-0.3-0.4c-0.7-0.8-1.5-1-2-1
	c-1.6,0-2.6,1.2-2.8,3.2c0-1.9-1.1-3.2-2.7-3.2c-0.9,0-1.6,0.4-2.2,1.2l-0.3,0.4v-4.7h-1.8v7.5c-0.1-0.8-0.4-1.4-0.9-1.9
	c0.3-0.5,0.5-1.1,0.5-1.8c0-1.7-1-2.9-2.6-2.9h-2.5v4.8l-0.3,0.1l0.3,0.1v5.6h2.5c0.9,0,1.6-0.3,2.1-0.9c0.4-0.5,0.8-1.1,0.9-1.8
	v2.6h1.8v-1.7c0.3,1.1,1.1,1.8,2.3,1.8c0.4,0,0.8-0.1,1.1-0.3v0.2h1.8v-3.1c0.3,1.9,1.3,3.1,2.8,3.1c0.9,0,1.7-0.5,2.3-1.4l0.1-0.2
	v1.5h1.8v-2.2l2.3,2.3h2.6l-4.3-4.4L414.6,804.6L414.6,804.6z M392.3,804.3h0.6c0.2,0,0.8,0,0.8,1c0,0.6-0.3,0.9-0.9,0.9h-0.5V804.3
	L392.3,804.3z M393.8,810.7c-0.3,0.3-0.6,0.3-0.9,0.3h-0.6v-2.9h0.5c0.9,0,1.3,0.5,1.3,1.5l0,0C394.2,810,394.1,810.5,393.8,810.7
	L393.8,810.7z M397.8,809.4v-3.1l1,1.6l0.7-0.9c0.4-0.5,0.6-0.5,0.8-0.5c0.5,0,0.8,0.5,0.8,1c-0.3,0-0.5,0.1-0.8,0.1
	C399,807.7,398.1,808.4,397.8,809.4L397.8,809.4z M401.1,810.1c-0.4,0.7-0.8,1-1.1,1c-0.5,0-0.6-0.5-0.6-0.9c0-0.4,0.1-0.8,1-0.9
	c0.3-0.1,0.5-0.1,0.7-0.1V810.1L401.1,810.1z M408.2,810.9l-1.1-1.4l-0.6,1.1c-0.2,0.3-0.4,0.5-0.6,0.5c-0.2,0-0.5-0.1-0.7-0.5
	c-0.2-0.4-0.3-1.1-0.3-1.8c0-0.9,0.2-2.3,1.1-2.3c0.2,0,0.3,0.1,0.6,0.3l0.8,1l0.9-1.8L408.2,810.9L408.2,810.9z"/>
<path id="Fill-86" opacity="0.25" enable-background="new    " d="M340.7,629.7c0-1.4-0.8-2-1.8-2.6c-0.9-0.5-1.7-1-1.7-2.3
	c0-1.1,0.6-1.8,1.5-1.8c0.6,0,1.1,0.2,1.7,0.6l0.1-0.2c-0.6-0.5-1.1-0.8-1.8-0.8c-1,0-1.7,0.8-1.7,2.1s0.8,1.8,1.6,2.4
	c1,0.6,1.8,1.1,1.8,2.5c0,1.3-0.8,1.9-1.9,1.9c-0.7,0-1.1-0.2-1.7-0.7l-0.1,0.3c0.6,0.5,1.1,0.7,1.8,0.7
	C339.8,631.9,340.7,631.1,340.7,629.7"/>
<path id="Fill-87" opacity="0.25" enable-background="new    " d="M344.3,631.9c0.6,0,1.1-0.3,1.6-0.9l-0.1-0.2
	c-0.4,0.5-0.8,0.8-1.4,0.8c-1.3,0-1.9-1.4-2-3.2h3.5v-0.3c0-1.7-0.6-3-1.8-3c-1.3,0-1.9,1.4-1.9,3.2
	C342.2,630.3,342.9,631.9,344.3,631.9L344.3,631.9z M344.1,625.3c1.1,0,1.6,1.1,1.6,2.7v0.2h-3.3C342.4,626.5,343,625.3,344.1,625.3
	L344.1,625.3z"/>
<path id="Fill-88" opacity="0.25" enable-background="new    " d="M349.1,627.9c-1.1,0.1-1.9,0.7-1.9,2c0,1.2,0.6,1.9,1.6,1.9
	c0.9,0,1.4-0.6,1.9-1.6v1.5h0.2v-4.2c0-1.5-0.8-2.4-1.9-2.4c-0.6,0-1.1,0.3-1.6,0.9l0.1,0.2c0.4-0.5,0.9-0.8,1.4-0.8
	c1,0,1.7,0.9,1.7,2.3v0.3C350.2,627.9,349.7,627.9,349.1,627.9L349.1,627.9z M350.7,630c-0.5,0.9-1,1.6-1.9,1.6
	c-0.8,0-1.4-0.6-1.4-1.7c0-1.1,0.8-1.6,1.7-1.8c0.6-0.1,1-0.1,1.6-0.1L350.7,630L350.7,630z"/>
<path id="Fill-89" opacity="0.25" enable-background="new    " d="M352.9,626.7c0.4-0.8,1-1.4,1.8-1.4c1,0,1.5,0.9,1.5,2.2v4.2h0.2
	v-4.2c0-1.5-0.5-2.5-1.6-2.5c-0.9,0-1.5,0.5-1.8,1.2v-1.1h-0.2v6.6h0.2L352.9,626.7"/>
<path id="Fill-90" opacity="0.25" enable-background="new    " d="M340.2,640.7c0.9,0,1.5,0.3,2.1,0.9l0.1-0.2c-0.8-0.7-1.3-1-2.3-1
	c-1.9,0-3,2-3,4.7c0,2.5,1,4.4,2.8,4.4c1,0,1.7-0.4,2.5-1.3l-0.1-0.2c-0.7,0.9-1.3,1.2-2.3,1.2c-1.7,0-2.6-1.7-2.6-4.1
	C337.5,642.5,338.5,640.7,340.2,640.7"/>
<path id="Fill-91" opacity="0.25" enable-background="new    " d="M343.9,646.1c0,1.9,0.8,3.4,2.1,3.4s2.1-1.5,2.1-3.4
	c0-1.9-0.8-3.3-2.1-3.3C344.6,642.8,343.9,644.2,343.9,646.1L343.9,646.1z M345.9,643c1.2,0,1.9,1.3,1.9,3.1c0,1.8-0.6,3.1-1.9,3.1
	s-1.9-1.3-1.9-3.1C344,644.4,344.7,643,345.9,643L345.9,643z"/>
<path id="Fill-92" opacity="0.25" enable-background="new    " d="M350.3,644v-1.1h-0.2v6.6h0.2v-5c0.4-0.8,1-1.4,1.8-1.4
	c1,0,1.5,0.9,1.5,2.2v4.2h0.2v-4.2c0-1.5-0.5-2.5-1.6-2.5C351.3,642.8,350.6,643.2,350.3,644"/>
<path id="Fill-93" opacity="0.25" enable-background="new    " d="M357.8,649.6c0.8,0,1.3-0.4,1.7-1.3v1.2h0.2v-9.9h-0.2v4
	c-0.5-0.6-1.1-0.9-1.9-0.9c-1.3,0-2,1.5-2,3.5C355.6,648.1,356.4,649.6,357.8,649.6L357.8,649.6z M357.7,643c0.8,0,1.3,0.3,1.8,1v4
	c-0.4,0.9-1,1.4-1.8,1.4c-1.2,0-1.9-1.3-1.9-3.2C355.8,644.3,356.4,643,357.7,643L357.7,643z"/>
<path id="Fill-94" opacity="0.25" enable-background="new    " d="M363.6,649.5c0.6,0,1.1-0.3,1.6-0.9l-0.1-0.2
	c-0.4,0.5-0.8,0.8-1.4,0.8c-1.3,0-1.9-1.4-2-3.2h3.5v-0.3c0-1.7-0.6-3-1.8-3c-1.3,0-1.9,1.4-1.9,3.2
	C361.4,648,362.2,649.5,363.6,649.5L363.6,649.5z M363.4,643c1.1,0,1.6,1.1,1.6,2.7v0.2h-3.3C361.7,644.2,362.2,643,363.4,643
	L363.4,643z"/>
<path id="Fill-95" opacity="0.25" enable-background="new    " d="M367.2,644.4c0.4-0.8,1-1.4,1.8-1.4c1,0,1.5,0.9,1.5,2.2v4.2h0.2
	v-4.2c0-1.5-0.5-2.5-1.6-2.5c-0.9,0-1.5,0.5-1.8,1.2v-1.1h-0.2v6.6h0.2L367.2,644.4"/>
<path id="Fill-96" opacity="0.25" enable-background="new    " d="M375.7,647.9c0-1-0.6-1.5-1.5-1.8c-0.7-0.3-1.3-0.8-1.3-1.7
	c0-0.9,0.5-1.4,1.3-1.4c0.5,0,0.9,0.2,1.3,0.5l0.1-0.2c-0.4-0.4-0.8-0.6-1.3-0.6c-0.9,0-1.5,0.6-1.5,1.6c0,1,0.6,1.6,1.4,1.9
	C374.9,646.5,375.6,646.8,375.7,647.9c-0.1,0.9-0.7,1.4-1.6,1.4c-0.6,0-1-0.2-1.6-0.7l-0.1,0.2c0.5,0.5,1,0.8,1.6,0.8
	C374.9,649.5,375.7,649,375.7,647.9"/>
<path id="Fill-97" opacity="0.25" enable-background="new    " d="M379.3,649.5c0.6,0,1.1-0.3,1.6-0.9l-0.1-0.2
	c-0.4,0.5-0.8,0.8-1.4,0.8c-1.3,0-1.9-1.4-2-3.2h3.5v-0.3c0-1.7-0.6-3-1.8-3c-1.3,0-1.9,1.4-1.9,3.2
	C377.2,648,377.9,649.5,379.3,649.5L379.3,649.5z M379.1,643c1.1,0,1.6,1.1,1.6,2.7v0.2h-3.3C377.4,644.2,378,643,379.1,643
	L379.1,643z"/>
<path id="Fill-98" opacity="0.25" enable-background="new    " d="M384.7,649.6c0.8,0,1.3-0.4,1.7-1.3v1.2h0.2v-9.9h-0.2v4
	c-0.5-0.6-1.1-0.9-1.9-0.9c-1.3,0-2,1.5-2,3.5C382.5,648.1,383.3,649.6,384.7,649.6L384.7,649.6z M384.6,643c0.8,0,1.3,0.3,1.8,1v4
	c-0.4,0.9-1,1.4-1.8,1.4c-1.2,0-1.9-1.3-1.9-3.2C382.7,644.3,383.4,643,384.6,643L384.6,643z"/>
<path id="Fill-99" opacity="0.25" enable-background="new    " d="M395.3,649.2h-3.8v-8.6h-0.2v8.9h4V649.2"/>
<path id="Fill-100" opacity="0.25" enable-background="new    " d="M396.9,642.9h0.2v6.6h-0.2V642.9z"/>
<path id="Fill-101" opacity="0.25" enable-background="new    " d="M396.9,639.7h0.2v1.2h-0.2V639.7z"/>
<path id="Fill-102" opacity="0.25" enable-background="new    " d="M398.6,650.8c0,1.4,0.8,2.2,1.8,2.2c1.5,0.1,2.5-0.6,2.5-2.3
	c0-1.2-0.7-1.7-1.6-1.7c-0.4,0-0.8,0-1.2-0.1c-0.5,0-0.9-0.4-0.9-1.2c0-0.5,0.2-0.9,0.5-1c0.3,0.2,0.6,0.3,1,0.3
	c1,0,1.7-0.8,1.7-2.1c0-0.5-0.1-0.9-0.2-1.2h1.1v-0.3h-1.2c-0.3-0.4-0.8-0.6-1.3-0.6c-1,0-1.7,0.8-1.7,2.1c0,0.8,0.2,1.3,0.6,1.7
	c-0.4,0.2-0.6,0.6-0.6,1.2c0,0.5,0.2,0.9,0.4,1.1C398.9,649.3,398.6,649.9,398.6,650.8L398.6,650.8z M399.2,645
	c0-1.2,0.6-1.9,1.5-1.9s1.5,0.7,1.5,1.9c0,1.2-0.6,1.9-1.5,1.9C399.8,646.8,399.2,646.1,399.2,645L399.2,645z M399.6,649
	c0.2,0.1,0.4,0.2,0.5,0.2c0.4,0,0.7,0,1.1,0.1c0.9,0.1,1.5,0.5,1.5,1.6c0,1.5-1,2-2.3,2c-1,0-1.7-0.7-1.7-2
	C398.8,650,399,649.4,399.6,649L399.6,649z"/>
<path id="Fill-103" opacity="0.25" enable-background="new    " d="M404.6,644.2c0.3-0.9,0.9-1.2,1.6-1.2c1,0,1.6,0.9,1.6,2.2v4.2
	h0.2v-4.2c0-1.5-0.7-2.5-1.8-2.5c-0.8,0-1.3,0.4-1.7,1.1v-4.2h-0.2v9.8h0.2L404.6,644.2"/>
<path id="Fill-104" opacity="0.25" enable-background="new    " d="M410.8,647.6c0,1.1,0.4,1.9,1.1,1.9c0.4,0,0.6-0.1,1-0.3
	l-0.1-0.2c-0.3,0.2-0.5,0.3-0.9,0.3C411.2,649.3,410.9,648.6,410.8,647.6l0.1-4h2.1v-0.3h-2.1v-1.9l-0.2,0.2v1.7h-1.3v0.3h1.3
	L410.8,647.6"/>
<path id="Fill-105" opacity="0.25" enable-background="new    " d="M511.8,685.4c-0.3,0-0.6-0.2-1-0.6l-0.5-0.5l-0.4,1.2l0.2,0.2
	c0.4,0.4,0.9,0.9,1.7,0.9c1,0,2-0.7,2-2.6c0-1.7-0.8-2.4-1.5-3l-0.1-0.1c-0.6-0.5-1-0.9-1-1.9c0-0.9,0.3-1.4,0.7-1.4
	c0.3,0,0.6,0.2,1,0.5l0.5,0.5l0.4-1.1l-0.2-0.2c-0.5-0.5-1-0.9-1.6-0.9c-1,0-1.7,1-1.7,2.5c0,1.5,0.8,2.1,1.4,2.7l0.1,0.1
	c0.6,0.5,1.1,1,1.1,2.1C512.8,684.3,512.7,685.4,511.8,685.4"/>
<path id="Fill-106" opacity="0.25" enable-background="new    " d="M517.6,685.3l0.1-0.2l-0.5-1l-0.4,0.6c-0.3,0.5-0.5,0.6-0.7,0.6
	c-0.5,0-1-1-1.1-2.4h2.6v-0.7c0-2.1-0.6-3.4-1.8-3.4c-1.2,0-1.9,1.3-1.9,3.7c0,2.5,0.8,4,2,4C516.9,686.4,517.4,685.8,517.6,685.3
	L517.6,685.3z M515.9,679.9c0.4,0,0.8,0.8,0.8,2H515C515.2,680.7,515.5,679.9,515.9,679.9L515.9,679.9z"/>
<path id="Fill-107" opacity="0.25" enable-background="new    " d="M520.5,685.9v0.4h1v-4.7c0-1.7-0.7-2.8-1.8-2.8
	c-0.8,0-1.3,0.6-1.6,1.1l-0.1,0.2l0.5,1.1l0.4-0.6c0.3-0.5,0.5-0.6,0.7-0.6c0.5,0,0.9,0.7,0.9,1.8c-0.3,0-0.5,0.1-0.9,0.1
	c-0.5,0.1-1.8,0.5-1.8,2.4c0,1.1,0.5,2.3,1.6,2.3C519.8,686.4,520.2,686.3,520.5,685.9L520.5,685.9z M518.8,684.1
	c0-1.1,0.5-1.3,0.9-1.3c0.3-0.1,0.5-0.1,0.8-0.1v1.3c-0.3,0.8-0.6,1.3-1,1.3C519.1,685.3,518.8,684.9,518.8,684.1L518.8,684.1z"/>
<path id="Fill-108" opacity="0.25" enable-background="new    " d="M524.4,681.8v4.6h1v-4.6c0-2.5-1-2.8-1.6-2.8
	c-0.4,0-0.7,0.1-1,0.3v-0.2h-1v7.4h1v-5.4c0.2-0.4,0.5-1.1,0.9-1.1C524.4,679.9,524.4,681.3,524.4,681.8"/>
<path id="Fill-109" opacity="0.25" enable-background="new    " d="M513,695.3c0.4,0,0.8,0.1,1.3,0.8l0.4,0.6l0.4-1.1l-0.2-0.2
	c-0.6-0.8-1.2-1.1-2-1.1c-1.7,0-2.6,1.9-2.6,5.2c0,3,0.9,4.7,2.5,4.7c0.9,0,1.6-0.4,2.2-1.5l0.1-0.2l-0.5-1.1l-0.4,0.7
	c-0.5,0.9-0.9,1-1.3,1c-0.9,0-1.5-1.5-1.5-3.7C511.4,696.9,512.1,695.3,513,695.3"/>
<path id="Fill-110" opacity="0.25" enable-background="new    " d="M517.3,704.1c1.2,0,2-1.5,2-3.8c0-2.3-0.8-3.7-2-3.7
	s-2,1.5-2,3.7C515.3,702.7,516.1,704.1,517.3,704.1L517.3,704.1z M517.3,697.7c0.6,0,1.1,1.1,1.1,2.7s-0.4,2.7-1,2.7s-1-1.1-1-2.7
	C516.3,698.7,516.7,697.7,517.3,697.7L517.3,697.7z"/>
<path id="Fill-111" opacity="0.25" enable-background="new    " d="M523.4,704v-4.6c0-2.5-1-2.8-1.6-2.8c-0.4,0-0.7,0.1-1,0.3v-0.2
	h-1v7.4h1v-5.3c0.2-0.4,0.5-1.1,0.9-1.1c0.6,0,0.6,1.4,0.6,1.8v4.6L523.4,704"/>
<path id="Fill-112" opacity="0.25" enable-background="new    " d="M528,704v-10.6h-1v3.4c-0.3-0.2-0.6-0.3-1-0.3
	c-1.2,0-1.9,1.5-1.9,3.9s0.8,3.8,2.1,3.8c0.3,0,0.6-0.1,0.9-0.3v0.2L528,704L528,704z M526,703.1c-0.6,0-1-1.1-1-2.7s0.4-2.7,1-2.7
	c0.3,0,0.6,0.1,1,0.6v3.8C526.6,703.1,526.2,703.1,526,703.1L526,703.1z"/>
<path id="Fill-113" opacity="0.25" enable-background="new    " d="M530.4,704.2c0.8,0,1.3-0.6,1.6-1.1l0.1-0.2l-0.5-1l-0.4,0.6
	c-0.3,0.5-0.5,0.6-0.7,0.6c-0.5,0-1-1-1.1-2.4h2.6V700c0-2.1-0.6-3.4-1.8-3.4s-1.9,1.3-1.9,3.7C528.4,702.6,529.2,704.2,530.4,704.2
	L530.4,704.2z M530.3,697.6c0.4,0,0.8,0.8,0.8,2h-1.7C529.5,698.4,529.8,697.6,530.3,697.6L530.3,697.6z"/>
<path id="Fill-114" opacity="0.25" enable-background="new    " d="M533.6,698.7c0.2-0.4,0.5-1.1,0.9-1.1c0.6,0,0.6,1.4,0.6,1.8v4.6
	h1v-4.6c0-2.5-1-2.8-1.6-2.8c-0.4,0-0.7,0.1-1,0.3v-0.2h-1v7.4h1L533.6,698.7"/>
<path id="Fill-115" opacity="0.25" enable-background="new    " d="M538.2,704.2c1.2,0,1.7-1.1,1.7-2.1c0-1.2-0.6-1.7-1.2-2.1
	c-0.5-0.3-0.8-0.6-0.8-1.3c0-0.5,0.2-1,0.5-1c0.2,0,0.3,0.1,0.6,0.4l0.5,0.5l0.4-1.1l-0.2-0.2c-0.3-0.4-0.8-0.7-1.3-0.7
	c-0.8,0-1.5,0.6-1.5,2c0,1.3,0.7,1.9,1.2,2.3h0.1c0.5,0.3,0.8,0.5,0.8,1.2c0,0.4-0.1,1-0.7,1c-0.3,0-0.5-0.1-0.9-0.5l-0.4-0.5
	l-0.5,1l0.2,0.2C537.1,703.9,537.6,704.2,538.2,704.2"/>
<path id="Fill-116" opacity="0.25" enable-background="new    " d="M542.2,704.2c0.8,0,1.3-0.6,1.6-1.1l0.1-0.2l-0.5-1l-0.4,0.6
	c-0.3,0.5-0.5,0.6-0.7,0.6c-0.5,0-1-1-1.1-2.4h2.6V700c0-2.1-0.6-3.4-1.8-3.4c-1.2,0-1.9,1.3-1.9,3.7
	C540.3,702.6,541,704.2,542.2,704.2L542.2,704.2z M542.1,697.6c0.4,0,0.8,0.8,0.8,2h-1.7C541.3,698.4,541.7,697.6,542.1,697.6
	L542.1,697.6z"/>
<path id="Fill-117" opacity="0.25" enable-background="new    " d="M546.3,704.2c0.3,0,0.6-0.1,0.9-0.3v0.2h1v-10.6h-1v3.4
	c-0.3-0.2-0.6-0.3-1-0.3c-1.2,0-1.9,1.5-1.9,3.9C544.3,702.7,545.1,704.2,546.3,704.2L546.3,704.2z M546.3,697.5
	c0.3,0,0.6,0.1,1,0.6v3.8c-0.4,1-0.8,1-0.9,1c-0.6,0-1-1.1-1-2.7S545.7,697.5,546.3,697.5L546.3,697.5z"/>
<path id="Fill-118" opacity="0.25" enable-background="new    " d="M551.6,699.9h0.5c0.1,0,0.1,0,0.2,0l1.9,4.2h1.1l-2-4.5
	c0.6-0.5,1-1.3,1-2.5c0-2-1.1-2.7-2-2.7h-1.6v9.7h1L551.6,699.9L551.6,699.9z M551.6,695.4h0.6c0.6,0,1.1,0.6,1.1,1.6
	c0,1.1-0.4,1.7-1.1,1.7h-0.6V695.4L551.6,695.4z"/>
<path id="Fill-119" opacity="0.25" enable-background="new    " d="M557.1,704.2c0.8,0,1.3-0.6,1.6-1.1l0.1-0.2l-0.5-1l-0.4,0.6
	c-0.3,0.5-0.5,0.6-0.7,0.6c-0.5,0-1-1-1.1-2.4h2.6V700c0-2.1-0.6-3.4-1.8-3.4c-1.2,0-1.9,1.3-1.9,3.7
	C555.1,702.6,555.9,704.2,557.1,704.2L557.1,704.2z M557,697.6c0.4,0,0.8,0.8,0.8,2h-1.7C556.2,698.4,556.5,697.6,557,697.6
	L557,697.6z"/>
<path id="Fill-120" opacity="0.25" enable-background="new    " d="M562.9,704.9c0-1.8-1.1-2.1-1.6-2.1c-0.2,0-0.3,0-0.5,0
	c-0.2,0-0.3,0-0.4,0c-0.2,0-0.3-0.4-0.3-0.8c0-0.2,0-0.4,0.1-0.5c0.2,0.1,0.4,0.2,0.6,0.2c0.8,0,1.7-0.6,1.7-2.5
	c0-0.3,0-0.5-0.1-0.8h0.7v-1.1H562c-0.3-0.4-0.7-0.6-1.2-0.6c-0.8,0-1.7,0.7-1.7,2.6c0,0.6,0.1,1.2,0.3,1.6
	c-0.2,0.3-0.3,0.6-0.3,1.3c0,0.4,0.1,0.8,0.2,1c-0.4,0.5-0.5,1.1-0.5,1.9c0,1.9,0.9,2.6,1.8,2.6l0,0c0.1,0,0.1,0,0.1,0
	c0.6,0,1.1-0.2,1.5-0.6C562.7,706.6,562.9,705.8,562.9,704.9L562.9,704.9z M560.8,697.7c0.5,0,0.7,0.8,0.7,1.5s-0.2,1.5-0.8,1.5
	c-0.5,0-0.7-0.8-0.7-1.5C560.1,698.4,560.3,697.7,560.8,697.7L560.8,697.7z M560.7,706.5c-0.8,0-0.9-1.2-0.9-1.6
	c0-0.5,0.1-1,0.3-1.2c0.1,0.1,0.2,0.1,0.3,0.1c0.2,0,0.3,0,0.4,0c0.1,0,0.3,0,0.4,0c0.3,0.1,0.8,0.2,0.8,1.1
	C562,706.4,561.3,706.5,560.7,706.5L560.7,706.5z"/>
<path id="Fill-121" opacity="0.25" enable-background="new    " d="M565.8,702.2c-0.3,0.9-0.6,0.9-0.8,0.9c-0.4,0-0.8-0.8-0.8-1.7
	v-4.7h-1v4.6c0,1.8,0.7,2.9,1.7,2.9c0.3,0,0.5-0.1,0.8-0.2v0.1h1v-7.4h-1L565.8,702.2"/>
<path id="Fill-122" opacity="0.25" enable-background="new    " d="M567.4,693.4h1V704h-1V693.4z"/>
<path id="Fill-123" opacity="0.25" enable-background="new    " d="M570.4,696.5c-0.8,0-1.3,0.6-1.6,1.1l-0.1,0.2l0.5,1.1l0.4-0.6
	c0.3-0.5,0.5-0.6,0.7-0.6c0.5,0,0.9,0.7,0.9,1.8c-0.3,0-0.5,0.1-0.9,0.1c-0.5,0.1-1.8,0.5-1.8,2.4c0,1.1,0.5,2.3,1.6,2.3
	c0.4,0,0.8-0.2,1-0.5v0.4h1v-4.7C572.2,697.6,571.5,696.5,570.4,696.5L570.4,696.5z M571.3,701.7c-0.3,0.8-0.6,1.3-1,1.3
	c-0.4,0-0.6-0.5-0.6-1.2c0-1.1,0.5-1.3,0.9-1.3c0.3-0.1,0.5-0.1,0.8-0.1L571.3,701.7L571.3,701.7z"/>
<path id="Fill-124" opacity="0.25" enable-background="new    " d="M573.7,696.8v-0.2h-1v7.4h1v-5.5c0.3-0.8,0.6-0.9,1-0.9h0.4
	l0.1-1.1h-0.4C574.4,696.5,574,696.5,573.7,696.8"/>
<path id="Fill-125" opacity="0.25" enable-background="new    " d="M514,738.7c0.3,1.5,1.1,2.4,2.1,2.4c1,0,1.5-0.7,1.8-1.2
	c0.3,0.9,1,1.2,1.6,1.2c0.3,0,0.6-0.1,0.8-0.2v0.1h1.5v-4.9c0-1.9-0.8-3.1-2-3.1c-0.9,0-1.5,0.7-1.8,1.2l-0.2,0.3l0.8,1.6l0.6-1
	c0.3-0.5,0.4-0.5,0.5-0.5c0.3,0,0.5,0.5,0.6,1.3c-0.2,0-0.4,0.1-0.6,0.1c-0.8,0.1-1.3,0.5-1.7,1.2v-0.5c0-2.3-0.8-3.7-2-3.7
	c-1.3,0-2.1,1.5-2.1,3.9v0.1c-0.3-0.8-0.8-1.3-1.4-1.8l-0.1-0.1c-0.6-0.5-0.9-0.8-0.9-1.7c0-0.7,0.2-1.2,0.5-1.2
	c0.2,0,0.4,0.1,0.8,0.5l0.8,0.8l0.5-1.6l-0.3-0.3c-0.4-0.4-1-0.9-1.8-0.9c-0.9,0-1.9,0.7-1.9,2.7c0,1.5,0.6,2.2,1.5,2.9l0.1,0.1
	c0.6,0.5,1.1,0.9,1.1,1.9c0,0.4-0.1,1.3-0.8,1.3c-0.2,0-0.4-0.1-0.8-0.5l-0.8-0.9l-0.5,1.7l0.3,0.3c0.4,0.5,1,0.9,1.8,0.9
	C513.2,741.1,513.9,739.9,514,738.7L514,738.7z M519.8,737.4c0.2-0.1,0.3-0.1,0.4-0.1v1c-0.2,0.4-0.5,1.1-0.8,1.1
	c-0.2,0-0.4-0.4-0.4-1C519.1,737.6,519.5,737.4,519.8,737.4L519.8,737.4z M515.9,734.5c0.2,0,0.5,0.5,0.5,1.5h-1.1
	C515.4,734.9,515.8,734.5,515.9,734.5L515.9,734.5z M517.7,737.6c-0.1,0.3-0.1,0.6-0.1,1c0,0.1,0,0.2,0,0.3l-0.4-0.9l-0.6,1.1
	c-0.3,0.5-0.4,0.5-0.5,0.5c-0.3,0-0.7-0.6-0.8-1.9L517.7,737.6L517.7,737.6z"/>
<path id="Fill-126" opacity="0.25" enable-background="new    " d="M524.2,736.1v4.8h1.5V736c0-2.7-1.2-3.1-1.9-3.1
	c-0.2,0-0.4,0.1-0.7,0.2V733h-1.5v7.8h1.5v-5.5c0.2-0.5,0.5-0.9,0.7-0.9S524.2,735.1,524.2,736.1"/>
<path id="Fill-127" opacity="0.25" enable-background="new    " d="M517.3,750.7c-1.3,0-2.2,1.5-2.2,4c0,0.6,0.1,1.2,0.2,1.7
	l-0.5-1.1l-0.6,1.1c-0.5,0.9-0.8,0.9-1.2,0.9c-0.8,0-1.3-1.4-1.3-3.4c0-2.3,0.5-3.8,1.4-3.8c0.4,0,0.6,0.1,1.1,0.6l0.7,0.9l0.6-1.7
	l-0.2-0.3c-0.7-0.9-1.3-1.2-2.2-1.2c-1.8,0-2.9,2-2.9,5.4c0,3.1,1,5,2.7,5c1.2,0,1.9-0.8,2.4-1.6l0.1-0.2c0.4,1.1,1,1.7,1.9,1.7
	c1.4,0,2.3-1.6,2.3-4C519.6,752.2,518.7,750.7,517.3,750.7L517.3,750.7z M517.3,757.1c-0.3,0-0.8-0.9-0.8-2.5s0.4-2.4,0.8-2.4
	s0.8,0.9,0.8,2.4C518.1,756.3,517.6,757.1,517.3,757.1L517.3,757.1z"/>
<path id="Fill-128" opacity="0.25" enable-background="new    " d="M521.9,750.6c-0.2,0-0.4,0.1-0.7,0.2v-0.1h-1.5v7.8h1.5V753
	c0.2-0.5,0.5-0.9,0.7-0.9s0.4,0.5,0.4,1.6v4.8h1.5v-4.8C523.7,751.1,522.5,750.6,521.9,750.6"/>
<path id="Fill-129" opacity="0.25" enable-background="new    " d="M531,756.7c-0.3,0.5-0.4,0.5-0.5,0.5c-0.3,0-0.6-0.6-0.8-1.9h2.6
	v-1c0-2.3-0.8-3.7-2-3.7s-2,1.3-2.1,3.4v-6.7h-1.5v3.2c-0.2-0.1-0.5-0.1-0.8-0.1c-1.4,0-2.2,1.6-2.2,4.1c0,2.5,0.9,4,2.3,4
	c0.3,0,0.5-0.1,0.7-0.2h1.4v-3.6c0.1,2.4,0.9,3.7,2.3,3.7c1,0,1.5-0.7,1.8-1.2l0.2-0.3l-0.8-1.6L531,756.7L531,756.7z M530.3,752.2
	c0.2,0,0.5,0.5,0.5,1.5h-1.1C529.8,752.7,530.1,752.2,530.3,752.2L530.3,752.2z M526.7,756.3c-0.3,0.9-0.6,0.9-0.7,0.9
	c-0.4,0-0.8-1-0.8-2.5c0-1.7,0.5-2.5,0.8-2.5c0.2,0,0.4,0.1,0.7,0.5V756.3L526.7,756.3z"/>
<path id="Fill-130" opacity="0.25" enable-background="new    " d="M547,750.7c-0.2-0.1-0.5-0.1-0.8-0.1c-1.2,0-1.9,1.1-2.1,3.1
	c-0.1-1.9-0.9-3.1-2-3.1c-1.3,0-2.1,1.5-2.1,3.9c0,0.4,0,0.8,0.1,1.1c-0.2-0.8-0.8-1.2-1.3-1.5c-0.4-0.3-0.7-0.5-0.7-1.1
	c0-0.3,0.1-0.7,0.3-0.7c0.1,0,0.2,0,0.5,0.3l0.8,0.8l0.5-1.7l-0.3-0.3c-0.4-0.4-0.8-0.8-1.5-0.8c-0.9,0-1.8,0.7-1.8,2.3
	c0,1.5,0.8,2.1,1.3,2.5h0.1c0.5,0.3,0.7,0.4,0.7,1c0,0.5-0.2,0.8-0.4,0.8c-0.2,0-0.3-0.1-0.6-0.4l-0.6-0.9l-0.5,1.1v-3.3
	c0-2.7-1.2-3.1-1.9-3.1c-0.2,0-0.4,0.1-0.7,0.2v-0.1h-1.5v7.8h1.5V753c0.2-0.5,0.5-0.9,0.7-0.9s0.4,0.5,0.4,1.6v4.8h1.5v-0.8
	l0.1,0.1c0.3,0.5,0.9,1,1.8,1c0.9,0,1.9-0.6,1.9-2.4c0-0.1,0-0.1,0-0.1c0.3,1.6,1.1,2.4,2.1,2.4c1,0,1.5-0.7,1.8-1.2l0.2-0.3
	l-0.8-1.6l-0.6,1.1c-0.3,0.5-0.4,0.5-0.5,0.5c-0.3,0-0.7-0.6-0.8-1.9h2.6c0.1,2.2,1,3.5,2.3,3.5c0.3,0,0.5-0.1,0.7-0.2h1.4v-11.2
	h-1.5L547,750.7L547,750.7z M541.5,753.7c0.1-1.1,0.4-1.5,0.6-1.5c0.2,0,0.5,0.5,0.5,1.5H541.5L541.5,753.7z M547,756.3
	c-0.3,0.9-0.6,0.9-0.7,0.9c-0.4,0-0.8-1-0.8-2.5c0-1.7,0.5-2.5,0.8-2.5c0.2,0,0.4,0.1,0.7,0.5V756.3L547,756.3z"/>
<path id="Fill-131" opacity="0.25" enable-background="new    " d="M556.9,750.7c-1.3,0-2.1,1.3-2.2,3.5c-0.2-0.5-0.4-0.9-0.6-1.2
	c0.3-0.4,0.5-1.1,0.5-1.8c0-1.2-0.5-2.7-2-2.7h-2v10.2h1.9c0.6,0,1.1-0.2,1.5-0.6c0.4-0.4,0.7-1.1,0.8-1.8c0.3,1.6,1,2.5,2.1,2.5
	c1.4,0,2.3-1.6,2.3-4C559.2,752.2,558.3,750.7,556.9,750.7L556.9,750.7z M552.1,750h0.4c0.5,0,0.5,1,0.5,1.2c0,1.1-0.5,1.1-0.6,1.1
	h-0.3L552.1,750L552.1,750z M553,756.9c-0.1,0.1-0.3,0.2-0.5,0.2h-0.4v-3.3h0.3c0.8,0,1,1,1,1.7C553.4,756.1,553.3,756.6,553,756.9
	L553,756.9z M557,757.1c-0.3,0-0.8-0.9-0.8-2.5s0.4-2.4,0.8-2.4c0.3,0,0.8,0.9,0.8,2.4C557.7,756.3,557.3,757.1,557,757.1L557,757.1
	z"/>
<path id="Fill-132" opacity="0.25" enable-background="new    " d="M559.2,747.5h1.5v11.2h-1.5V747.5z"/>
<path id="Fill-133" opacity="0.25" enable-background="new    " d="M563.7,750.7c-0.2-0.1-0.5-0.1-0.8-0.1c-1.4,0-2.2,1.6-2.2,4.1
	s0.9,4,2.3,4c0.3,0,0.5-0.1,0.7-0.2h1.4v-11.2h-1.5L563.7,750.7L563.7,750.7z M563.7,756.3c-0.3,0.9-0.6,0.9-0.7,0.9
	c-0.4,0-0.8-1-0.8-2.5c0-1.7,0.5-2.5,0.8-2.5c0.2,0,0.4,0.1,0.7,0.5V756.3L563.7,756.3z"/>
<path id="Fill-134" opacity="0.25" enable-background="new    " d="M511.8,632c0.9,0,1.7-0.6,1.7-2.4c0-1.4-0.6-2-1.4-2.7l-0.1-0.1
	c-0.6-0.5-1.1-0.9-1.1-2c0-1,0.4-1.7,1-1.7c0.4,0,0.7,0.2,1.2,0.6l0.2,0.2l0.2-0.5l-0.1-0.1c-0.5-0.5-0.9-0.8-1.5-0.8
	c-0.9,0-1.5,0.9-1.5,2.3c0,1.3,0.5,1.9,1.3,2.5l0.1,0.1c0.7,0.6,1.2,1,1.2,2.3c0,1.1-0.5,1.8-1.2,1.8c-0.4,0-0.8-0.2-1.2-0.6
	l-0.2-0.2l-0.2,0.6l0.1,0.1C510.8,631.7,511.2,632,511.8,632"/>
<path id="Fill-135" opacity="0.25" enable-background="new    " d="M517.4,628c0-1.9-0.6-3.2-1.5-3.2c-1,0-1.6,1.3-1.6,3.4
	c0,2.3,0.7,3.8,1.8,3.8c0.5,0,1-0.3,1.3-1l0.1-0.1l-0.3-0.5l-0.2,0.3c-0.3,0.5-0.5,0.8-0.9,0.8c-0.8,0-1.2-1.1-1.3-2.9h2.6
	L517.4,628L517.4,628z M514.8,627.9c0.1-1.6,0.5-2.5,1.1-2.5s1.1,1,1.1,2.5H514.8L514.8,627.9z"/>
<path id="Fill-136" opacity="0.25" enable-background="new    " d="M520.6,627.7c-0.3,0-0.6,0.1-0.9,0.1c-1,0.2-1.6,0.9-1.6,2.1
	c0,1.2,0.5,2,1.3,2c0.6,0,1-0.4,1.3-1v0.9h0.5v-4.4c0-1.6-0.6-2.6-1.6-2.6c-0.5,0-0.9,0.3-1.3,1l-0.1,0.1l0.3,0.5l0.2-0.3
	c0.3-0.5,0.6-0.8,0.9-0.8c0.6,0,1.1,0.9,1.1,2.1L520.6,627.7C520.7,627.7,520.6,627.7,520.6,627.7L520.6,627.7z M520.8,629.9
	c-0.4,0.9-0.8,1.5-1.2,1.5c-0.5,0-0.9-0.6-0.9-1.5c0-0.9,0.4-1.5,1.1-1.6c0.3-0.1,0.6-0.1,0.9-0.1c0.1,0,0.1,0,0.1,0L520.8,629.9
	L520.8,629.9z"/>
<path id="Fill-137" opacity="0.25" enable-background="new    " d="M522.2,625v6.9h0.5v-5.2c0.2-0.6,0.6-1.2,1.2-1.2
	c0.8,0,0.9,1.3,0.9,2v4.4h0.5v-4.4c0-2.3-0.9-2.6-1.3-2.6c-0.5,0-0.9,0.3-1.2,0.8v-0.6L522.2,625"/>
<path id="Fill-138" opacity="0.25" enable-background="new    " d="M510.7,645.2c0,2.8,0.9,4.5,2.3,4.5c0.8,0,1.4-0.4,2-1.3l0.1-0.1
	l-0.3-0.6l-0.2,0.3c-0.5,0.8-0.9,1.1-1.6,1.1c-1.1,0-1.8-1.5-1.8-3.9c0-2.7,0.7-4.3,1.9-4.3c0.6,0,1,0.2,1.5,0.9l0.2,0.2l0.2-0.6
	l-0.1-0.1c-0.6-0.8-1.1-1-1.8-1C511.6,640.3,510.7,642.1,510.7,645.2"/>
<path id="Fill-139" opacity="0.25" enable-background="new    " d="M515.6,646.1c0,2.1,0.7,3.5,1.7,3.5c1.1,0,1.8-1.4,1.8-3.5
	s-0.7-3.5-1.8-3.5S515.6,644,515.6,646.1L515.6,646.1z M518.6,646.1c0,1.8-0.5,2.9-1.2,2.9c-0.8,0-1.3-1.2-1.3-3
	c0-1.7,0.5-2.8,1.2-2.8C518.1,643.2,518.6,644.4,518.6,646.1L518.6,646.1z"/>
<path id="Fill-140" opacity="0.25" enable-background="new    " d="M520.8,643.3v-0.6h-0.5v6.9h0.5v-5.2c0.2-0.6,0.6-1.2,1.2-1.2
	c0.8,0,0.9,1.3,0.9,2v4.4h0.5v-4.4c0-2.3-0.9-2.6-1.3-2.6C521.5,642.6,521.1,642.8,520.8,643.3"/>
<path id="Fill-141" opacity="0.25" enable-background="new    " d="M527.2,643.1c-0.3-0.4-0.8-0.6-1.2-0.6c-1.1,0-1.7,1.4-1.7,3.7
	c0,2.1,0.7,3.5,1.8,3.5c0.5,0,0.9-0.2,1.1-0.7v0.6h0.5v-10.2h-0.5L527.2,643.1L527.2,643.1z M527.2,647.9c-0.4,1.1-0.9,1.2-1.2,1.2
	c-0.8,0-1.3-1.2-1.3-3c0-1.8,0.5-3,1.2-3c0.5,0,0.9,0.3,1.2,0.9L527.2,647.9L527.2,647.9z"/>
<path id="Fill-142" opacity="0.25" enable-background="new    " d="M530.4,649.7c0.5,0,1-0.3,1.3-1l0.1-0.1l-0.3-0.5l-0.2,0.3
	c-0.3,0.5-0.5,0.8-0.9,0.8c-0.8,0-1.2-1.1-1.3-2.9h2.6v-0.5c0-1.9-0.6-3.2-1.5-3.2c-1,0-1.6,1.3-1.6,3.4
	C528.7,648.3,529.4,649.7,530.4,649.7L530.4,649.7z M530.3,643.1c0.6,0,1.1,1,1.1,2.5h-2.1C529.3,644.1,529.6,643.1,530.3,643.1
	L530.3,643.1z"/>
<path id="Fill-143" opacity="0.25" enable-background="new    " d="M533.4,644.4c0.2-0.6,0.6-1.2,1.2-1.2c0.8,0,0.9,1.3,0.9,2v4.4
	h0.5v-4.4c0-2.3-0.9-2.6-1.3-2.6c-0.5,0-0.9,0.3-1.2,0.8v-0.6H533v6.9h0.5L533.4,644.4"/>
<path id="Fill-144" opacity="0.25" enable-background="new    " d="M538.2,649.7c0.7,0,1.5-0.5,1.5-1.8c0-1.1-0.6-1.6-1.1-1.9
	s-0.9-0.6-0.9-1.6c0-0.8,0.3-1.2,0.8-1.2c0.3,0,0.5,0.1,0.9,0.5l0.2,0.2l0.2-0.6l-0.1-0.1c-0.3-0.4-0.6-0.6-1.1-0.6
	c-0.8,0-1.3,0.7-1.3,1.8c0,1.2,0.6,1.7,1.1,2.1h0.1c0.5,0.3,0.9,0.6,0.9,1.4s-0.3,1.2-0.9,1.2c-0.4,0-0.6-0.2-1-0.6l-0.2-0.2
	l-0.3,0.5l0.1,0.1C537.3,649.5,537.7,649.7,538.2,649.7"/>
<path id="Fill-145" opacity="0.25" enable-background="new    " d="M542.2,649.7c0.5,0,1-0.3,1.3-1l0.1-0.1l-0.3-0.5l-0.2,0.3
	c-0.3,0.5-0.5,0.8-0.9,0.8c-0.8,0-1.2-1.1-1.3-2.9h2.6v-0.5c0-1.9-0.6-3.2-1.5-3.2c-1,0-1.6,1.3-1.6,3.4
	C540.5,648.3,541.2,649.7,542.2,649.7L542.2,649.7z M542.1,643.1c0.6,0,1.1,1,1.1,2.5h-2.1C541.1,644.1,541.4,643.1,542.1,643.1
	L542.1,643.1z"/>
<path id="Fill-146" opacity="0.25" enable-background="new    " d="M546.3,649.7c0.5,0,0.9-0.2,1.1-0.7v0.6h0.5v-10.2h-0.5v3.7
	c-0.3-0.4-0.8-0.6-1.2-0.6c-1.1,0-1.7,1.4-1.7,3.7C544.5,648.4,545.3,649.7,546.3,649.7L546.3,649.7z M546.3,643.1
	c0.5,0,0.9,0.3,1.2,0.9v3.9c-0.4,1.1-0.9,1.2-1.2,1.2c-0.8,0-1.3-1.2-1.3-3S545.5,643.1,546.3,643.1L546.3,643.1z"/>
<path id="Fill-147" opacity="0.25" enable-background="new    " d="M554.4,649h-2.8v-8.6h-0.5v9.2h3.3V649"/>
<path id="Fill-148" opacity="0.25" enable-background="new    " d="M555.4,639.5h0.5v1.6h-0.5V639.5z"/>
<path id="Fill-149" opacity="0.25" enable-background="new    " d="M555.4,642.7h0.5v6.9h-0.5V642.7z"/>
<path id="Fill-150" opacity="0.25" enable-background="new    " d="M556.9,647.9c0,0.4,0.1,0.8,0.3,1.1c-0.4,0.4-0.6,1.1-0.6,1.9
	c0,1.5,0.6,2.4,1.6,2.4c0.1,0,0.1,0,0.1,0c0.5,0,1-0.2,1.3-0.5c0.4-0.4,0.6-1.1,0.6-1.9c0-1.1-0.5-1.8-1.3-1.9c-0.2,0-0.3,0-0.5,0
	c-0.2,0-0.3,0-0.4,0c-0.3,0-0.5-0.4-0.5-1c0-0.4,0.1-0.6,0.2-0.8c0.2,0.2,0.5,0.3,0.8,0.3c0.9,0,1.5-0.9,1.5-2.3
	c0-0.4-0.1-0.7-0.1-1h0.8v-0.6h-1c-0.3-0.4-0.6-0.6-1.1-0.6c-0.9,0-1.5,0.9-1.5,2.3c0,0.7,0.2,1.2,0.4,1.7
	C557.1,646.8,556.9,647.3,556.9,647.9L556.9,647.9z M557.6,649.2c0.1,0.1,0.2,0.1,0.4,0.1s0.3,0,0.4,0c0.1,0,0.3,0,0.4,0
	c0.6,0.1,1,0.5,1,1.4c0,1.2-0.5,1.8-1.6,1.8c-0.7,0-1.1-0.7-1.1-1.8C557.1,650.1,557.2,649.6,557.6,649.2L557.6,649.2z M558.4,643.2
	c0.6,0,1,0.6,1,1.7s-0.4,1.7-1,1.7s-1-0.6-1-1.7C557.4,643.9,557.8,643.2,558.4,643.2L558.4,643.2z"/>
<path id="Fill-151" opacity="0.25" enable-background="new    " d="M561.5,644.2c0.2-0.7,0.5-1.1,1-1.1c0.6,0,1.1,0.8,1.1,2v4.4h0.5
	v-4.4c0-1.6-0.6-2.7-1.5-2.7c-0.3,0-0.8,0.1-1.1,0.6v-3.7H561v10.2h0.5V644.2"/>
<path id="Fill-152" opacity="0.25" enable-background="new    " d="M567.7,649.2l-0.2-0.6l-0.2,0.2c-0.2,0.2-0.3,0.3-0.5,0.3
	c-0.4,0-0.6-0.6-0.6-1.5v-3.9h1.6v-0.6h-1.6V641l-0.5,0.5v1.6h-1v0.6h1v3.9c0,1.3,0.4,2.1,1,2.1
	C567.1,649.7,567.3,649.5,567.7,649.2L567.7,649.2"/>
<path id="Fill-153" opacity="0.25" enable-background="new    " d="M511.8,576.4c1,0,1.7-0.9,1.7-2.3s-0.6-2-1.4-2.7l-0.1-0.1
	c-0.6-0.5-1.1-1-1.1-2.1c0-1.1,0.4-1.7,1.1-1.7c0.4,0,0.8,0.2,1.2,0.6l0.1,0.1l0.1-0.4l-0.1-0.1c-0.5-0.5-0.8-0.8-1.4-0.8
	c-0.9,0-1.4,0.9-1.4,2.1c0,1.2,0.5,1.8,1.2,2.5l0.1,0.1c0.7,0.6,1.3,1.1,1.3,2.4c0,1.2-0.5,1.9-1.3,1.9c-0.4,0-0.8-0.2-1.2-0.7
	l-0.1-0.1l-0.2,0.4l0.1,0.1C510.8,576.2,511.2,576.4,511.8,576.4"/>
<path id="Fill-154" opacity="0.25" enable-background="new    " d="M516.1,576.4c0.5,0,0.9-0.3,1.2-1v-0.1l-0.2-0.4L517,575
	c-0.3,0.5-0.6,0.8-1,0.8c-0.8,0-1.3-1.2-1.4-3.1h2.6v-0.4c0-1.9-0.5-3.1-1.5-3.1c-1,0-1.6,1.3-1.6,3.3
	C514.4,575,515.1,576.4,516.1,576.4L516.1,576.4z M515.9,569.9c0.7,0,1.1,1,1.1,2.6v0.1h-2.3C514.8,570.9,515.2,569.9,515.9,569.9
	L515.9,569.9z"/>
<path id="Fill-155" opacity="0.25" enable-background="new    " d="M520.6,572.3c-0.3,0-0.6,0.1-0.9,0.1c-0.5,0.1-1.5,0.4-1.5,2.1
	c0,1.2,0.5,2,1.2,2c0.6,0,1-0.6,1.4-1.2v1.1h0.3V572c0-1.5-0.6-2.5-1.5-2.5c-0.5,0-0.9,0.3-1.2,0.9v0.1l0.2,0.4l0.1-0.1
	c0.3-0.5,0.6-0.8,1-0.8c0.7,0,1.2,0.9,1.2,2.1v0.3C520.8,572.3,520.7,572.3,520.6,572.3L520.6,572.3z M520.8,574.4
	c-0.4,0.9-0.8,1.6-1.3,1.6c-0.5,0-1-0.6-1-1.6c0-1,0.4-1.5,1.2-1.7c0.3-0.1,0.6-0.1,0.9-0.1c0.1,0,0.1,0,0.2,0L520.8,574.4
	L520.8,574.4z"/>
<path id="Fill-156" opacity="0.25" enable-background="new    " d="M522.5,571.2c0.2-0.6,0.6-1.3,1.2-1.3c0.9,0,1,1.3,1,2.1v4.2h0.3
	v-4.3c0-1.6-0.4-2.5-1.3-2.5c-0.5,0-1,0.3-1.3,1v-0.8h-0.3v6.7h0.3L522.5,571.2"/>
<path id="Fill-157" opacity="0.25" enable-background="new    " d="M513,585.3c0.6,0,1.1,0.2,1.6,0.9l0.1,0.1l0.2-0.4h-0.1
	c-0.6-0.7-1.1-1-1.7-1c-1.5,0-2.3,1.8-2.3,4.8c0,2.8,0.8,4.4,2.1,4.4c0.8,0,1.3-0.4,1.9-1.3l0,0l-0.2-0.4l-0.1,0.2
	c-0.5,0.9-1,1.2-1.7,1.2c-1.1,0-1.9-1.6-1.9-4C511.1,587,511.8,585.3,513,585.3"/>
<path id="Fill-158" opacity="0.25" enable-background="new    " d="M515.7,590.6c0,2.1,0.6,3.5,1.7,3.5s1.7-1.3,1.7-3.5
	c0-2-0.6-3.4-1.7-3.4S515.7,588.6,515.7,590.6L515.7,590.6z M518.7,590.7c0,1.8-0.5,3-1.3,3s-1.3-1.2-1.3-3.1c0-1.8,0.5-3,1.3-3
	C518.1,587.7,518.7,588.8,518.7,590.7L518.7,590.7z"/>
<path id="Fill-159" opacity="0.25" enable-background="new    " d="M520.6,588.1v-0.8h-0.3v6.7h0.3v-5c0.2-0.6,0.6-1.3,1.2-1.3
	c0.9,0,1,1.3,1,2.1v4.2h0.3v-4.2c0-1.6-0.4-2.5-1.3-2.5C521.4,587.2,521,587.5,520.6,588.1"/>
<path id="Fill-160" opacity="0.25" enable-background="new    " d="M526.1,594.2c0.5,0,0.9-0.3,1.2-1v0.8h0.3v-10h-0.3v3.9
	c-0.4-0.5-0.8-0.8-1.3-0.8c-1,0-1.6,1.3-1.6,3.6C524.4,592.8,525,594.2,526.1,594.2L526.1,594.2z M526,587.5c0.5,0,0.9,0.3,1.3,0.9
	v3.9c-0.3,0.9-0.7,1.3-1.2,1.3c-0.8,0-1.3-1.2-1.3-3.1C524.7,588.8,525.2,587.5,526,587.5L526,587.5z"/>
<path id="Fill-161" opacity="0.25" enable-background="new    " d="M530.4,594.2c0.5,0,0.9-0.3,1.2-1v-0.1l-0.2-0.4l-0.1,0.1
	c-0.3,0.5-0.6,0.8-1,0.8c-0.8,0-1.3-1.2-1.4-3.1h2.6v-0.4c0-1.9-0.5-3.1-1.5-3.1c-1,0-1.6,1.3-1.6,3.3
	C528.8,592.8,529.4,594.2,530.4,594.2L530.4,594.2z M530.3,587.6c0.7,0,1.1,1,1.1,2.6v0.1h-2.3C529.1,588.6,529.6,587.6,530.3,587.6
	L530.3,587.6z"/>
<path id="Fill-162" opacity="0.25" enable-background="new    " d="M533.3,588.9c0.2-0.6,0.6-1.3,1.2-1.3c0.9,0,1,1.3,1,2.1v4.2h0.3
	v-4.3c0-1.6-0.5-2.5-1.3-2.5c-0.5,0-1,0.3-1.3,1v-0.8h-0.3v6.7h0.3L533.3,588.9"/>
<path id="Fill-163" opacity="0.25" enable-background="new    " d="M538.2,594.2c0.9,0,1.3-0.6,1.3-1.8c0-1.1-0.5-1.5-1.1-1.8
	c-0.5-0.3-1-0.7-1-1.7c0-0.8,0.3-1.3,0.9-1.3c0.4,0,0.6,0.2,0.9,0.5l0.1,0.1l0.1-0.4l-0.1-0.1c-0.3-0.4-0.6-0.6-1.1-0.6
	c-0.7,0-1.2,0.6-1.2,1.7c0,1.2,0.6,1.7,1.1,2h0.1c0.5,0.3,1,0.6,1,1.5s-0.4,1.3-1,1.3c-0.4,0-0.7-0.2-1.1-0.6l-0.1-0.1l-0.2,0.4
	l0.1,0.1C537.4,593.9,537.7,594.2,538.2,594.2"/>
<path id="Fill-164" opacity="0.25" enable-background="new    " d="M542.2,594.2c0.5,0,0.9-0.3,1.2-1v-0.1l-0.2-0.4l-0.1,0.1
	c-0.3,0.5-0.6,0.8-1,0.8c-0.8,0-1.3-1.2-1.4-3.1h2.6v-0.4c0-1.9-0.5-3.1-1.5-3.1c-1,0-1.6,1.3-1.6,3.3
	C540.6,592.8,541.2,594.2,542.2,594.2L542.2,594.2z M542.1,587.6c0.7,0,1.1,1,1.1,2.6v0.1h-2.3C541,588.6,541.4,587.6,542.1,587.6
	L542.1,587.6z"/>
<path id="Fill-165" opacity="0.25" enable-background="new    " d="M546.3,594.2c0.5,0,0.9-0.3,1.2-1v0.8h0.3v-10h-0.2v3.9
	c-0.4-0.5-0.8-0.8-1.3-0.8c-1,0-1.6,1.3-1.6,3.6C544.6,592.8,545.3,594.2,546.3,594.2L546.3,594.2z M546.3,587.5
	c0.5,0,0.9,0.3,1.3,0.9v3.9c-0.3,0.9-0.7,1.3-1.2,1.3c-0.8,0-1.3-1.2-1.3-3.1C544.9,588.8,545.5,587.5,546.3,587.5L546.3,587.5z"/>
<path id="Fill-166" opacity="0.25" enable-background="new    " d="M553.1,594.1c1.2,0,1.9-1.3,1.9-3.5V585h-0.3v5.6
	c0,1.9-0.6,3-1.5,3c-1,0-1.6-1.2-1.6-3.2V585h-0.3v5.5C551.2,592.7,551.9,594.1,553.1,594.1"/>
<path id="Fill-167" opacity="0.25" enable-background="new    " d="M556.3,584h0.3v10h-0.3V584z"/>
<path id="Fill-168" opacity="0.25" enable-background="new    " d="M558.5,592.1c0,1.2,0.4,2,0.9,2c0.3,0,0.5-0.2,0.8-0.4l0.1-0.1
	l-0.1-0.4l-0.1,0.1c-0.2,0.2-0.4,0.3-0.6,0.3c-0.4,0-0.6-0.6-0.6-1.6v-3.9h1.6v-0.3h-1.6v-2l-0.3,0.3v1.7h-1v0.4h1v3.9"/>
<path id="Fill-169" opacity="0.25" enable-background="new    " d="M561.8,588.8c0.3-0.8,0.7-1.2,1.3-1.2h0.1l0.1-0.4h-0.1
	c-0.6,0-1,0.3-1.3,0.9v-0.7h-0.3v6.7h0.3L561.8,588.8"/>
<path id="Fill-170" opacity="0.25" enable-background="new    " d="M566.2,590c-0.3,0-0.6,0.1-0.9,0.1c-0.5,0.1-1.5,0.4-1.5,2.1
	c0,1.2,0.5,2,1.2,2c0.6,0,1-0.6,1.4-1.2v1.1h0.3v-4.5c0-1.5-0.6-2.5-1.5-2.5c-0.5,0-0.9,0.3-1.2,0.9v0.1l0.2,0.4l0.1-0.1
	c0.3-0.5,0.6-0.8,1-0.8c0.7,0,1.2,0.9,1.2,2.1v0.3C566.3,590,566.3,590,566.2,590L566.2,590z M566.4,592.2c-0.4,0.9-0.8,1.6-1.3,1.6
	s-1-0.6-1-1.6c0-1,0.4-1.5,1.2-1.7c0.3-0.1,0.6-0.1,0.9-0.1c0.1,0,0.1,0,0.2,0L566.4,592.2L566.4,592.2z"/>
<path id="Fill-171" opacity="0.25" enable-background="new    " d="M567.7,590.4h2.2v0.4h-2.2V590.4z"/>
<path id="Fill-172" opacity="0.25" enable-background="new    " d="M574.3,593.6h-2.8V585h-0.3v9h3.2L574.3,593.6"/>
<path id="Fill-173" opacity="0.25" enable-background="new    " d="M575.3,587.3h0.3v6.7h-0.3V587.3z"/>
<path id="Fill-174" opacity="0.25" enable-background="new    " d="M575.3,584.1h0.3v1.4h-0.3V584.1z"/>
<path id="Fill-175" opacity="0.25" enable-background="new    " d="M578.2,587.2c-0.9,0-1.4,0.9-1.4,2.3c0,0.7,0.2,1.3,0.4,1.7
	c-0.3,0.2-0.4,0.6-0.4,1.2c0,0.5,0.1,0.8,0.3,1.1c-0.4,0.4-0.6,1-0.6,1.9c0,1.4,0.5,2.3,1.5,2.3c0.1,0,0.1,0,0.1,0
	c0.5,0,1-0.2,1.3-0.5c0.4-0.4,0.6-1,0.6-1.9c0-1.5-0.8-1.8-1.3-1.8c-0.2,0-0.3,0-0.5,0c-0.2,0-0.3,0-0.4,0c-0.4,0-0.6-0.4-0.6-1.1
	c0-0.4,0.1-0.8,0.3-0.9c0.2,0.2,0.5,0.3,0.8,0.3c0.9,0,1.3-0.9,1.3-2.2c0-0.4-0.1-0.8-0.2-1.1h0.8v-0.4h-1
	C579,587.4,578.7,587.2,578.2,587.2L578.2,587.2z M577.4,593.6c0.1,0.1,0.3,0.1,0.4,0.1c0.2,0,0.3,0,0.4,0s0.3,0,0.4,0
	c0.7,0.1,1,0.6,1,1.5c0,1.3-0.5,1.9-1.6,1.9c-0.8,0-1.2-0.8-1.2-1.9C576.9,594.5,577.1,594,577.4,593.6L577.4,593.6z M578.2,591.2
	c-0.6,0-1-0.7-1-1.8s0.4-1.8,1.1-1.8s1,0.7,1,1.8C579.3,590.6,578.9,591.2,578.2,591.2L578.2,591.2z"/>
<path id="Fill-176" opacity="0.25" enable-background="new    " d="M582.5,587.1c-0.4,0-0.8,0.2-1.1,0.8V584h-0.3v10h0.3v-5.3
	c0.2-0.8,0.6-1.1,1.1-1.1c0.7,0,1.1,0.9,1.1,2.1v4.4h0.3v-4.3C583.9,588.1,583.3,587.1,582.5,587.1"/>
<path id="Fill-177" opacity="0.25" enable-background="new    " d="M587.6,588.1v-0.4H586v-2l-0.3,0.3v1.7h-1v0.4h1v3.9
	c0,1.2,0.4,2,0.9,2c0.3,0,0.5-0.2,0.8-0.4l0.1-0.1l-0.1-0.4l-0.1,0.1c-0.2,0.2-0.4,0.3-0.6,0.3c-0.4,0-0.6-0.6-0.6-1.6V588
	L587.6,588.1"/>
<path id="Fill-178" opacity="0.25" enable-background="new    " d="M43.7,685.4c-0.9,0-1.6-0.2-2.5-0.6l-0.3-0.2l-0.6,1l0.4,0.2
	c0.9,0.4,1.8,0.8,3.1,0.8c2.3,0,3.8-1,3.8-2.6c0-1.7-1.7-2.4-3.2-3l-0.2-0.1c-1.3-0.5-2.2-0.9-2.2-1.8c0-1,1-1.4,2-1.4
	c1,0,1.7,0.2,2.5,0.6l0.3,0.2l0.6-0.9l-0.4-0.2c-1-0.5-1.8-0.8-3-0.8c-1.9,0-3.2,1-3.2,2.5c0,1.6,1.5,2.2,2.8,2.8l0.2,0.1
	c1.6,0.6,2.5,1,2.5,2C46.3,685.2,44.3,685.4,43.7,685.4"/>
<path id="Fill-179" opacity="0.25" enable-background="new    " d="M52.9,686.4c1.1,0,1.9-0.3,2.8-1l0.4-0.3l-0.8-0.8l-0.3,0.2
	c-0.6,0.5-1.2,0.7-2,0.7c-1.5,0-2.5-0.9-2.7-2.4h5.6v-0.7c0-2.1-1.3-3.4-3.3-3.4c-2.1,0-3.5,1.5-3.5,3.7
	C49,684.9,50.5,686.4,52.9,686.4L52.9,686.4z M52.4,679.9c1.3,0,2.1,0.8,2.2,2h-4.5C50.4,680.1,51.7,679.9,52.4,679.9L52.4,679.9z"
	/>
<path id="Fill-180" opacity="0.25" enable-background="new    " d="M60.5,681.7c-3,0.2-3.4,1.6-3.4,2.4c0,1.4,1.2,2.3,2.9,2.3
	c1.2,0,2-0.4,2.7-1v0.9h1.1v-4.7c0-1.7-1.3-2.8-3.4-2.8c-1.1,0-1.9,0.3-2.8,1l-0.4,0.3l0.8,0.7l0.3-0.2c0.6-0.5,1.2-0.7,2-0.7
	c1.3,0,2.3,0.7,2.3,1.8c-0.1,0-0.1,0-0.2,0C61.8,681.7,61.2,681.7,60.5,681.7L60.5,681.7z M62.7,682.7v1.3c-0.8,0.9-1.5,1.4-2.6,1.4
	c-0.9,0-1.8-0.3-1.8-1.2c0-1,1.2-1.2,2.3-1.3C61.3,682.8,61.9,682.8,62.7,682.7C62.6,682.7,62.6,682.7,62.7,682.7L62.7,682.7z"/>
<path id="Fill-181" opacity="0.25" enable-background="new    " d="M69.5,678.8c-1,0-1.8,0.3-2.5,0.8V679h-1.1v7.4H67v-5.3
	c0.4-0.5,1.2-1.1,2.5-1.1s1.9,0.6,1.9,1.8v4.6h1.1v-4.6C72.5,679.9,71.4,678.8,69.5,678.8"/>
<path id="Fill-182" opacity="0.25" enable-background="new    " d="M42.1,699.6h4.7v-1.1h-4.7v-3.1h5.6v-1.1h-6.8v9.7h7.3v-1.1H42
	L42.1,699.6"/>
<path id="Fill-183" opacity="0.25" enable-background="new    " d="M50,704l2.7-3.1l2.7,3.1h1.5l-3.4-3.9l3.1-3.5h-1.5l-2.4,2.7
	l-2.4-2.7h-1.5l3.1,3.5l-3.4,3.9H50"/>
<path id="Fill-184" opacity="0.25" enable-background="new    " d="M59.1,701.8c0,1.5,0.9,2.3,2.3,2.3c0.7,0,1.2-0.2,1.8-0.4
	l0.4-0.2l-0.6-0.9l-0.3,0.2c-0.5,0.2-0.8,0.3-1.2,0.3c-1,0-1.2-0.7-1.2-1.3v-3.7h3.3V697h-3.3v-2.1l-1.1,0.6v1.6h-2.1v1.1h2.1
	L59.1,701.8"/>
<path id="Fill-185" opacity="0.25" enable-background="new    " d="M68.9,704.2c1.1,0,1.9-0.3,2.8-1l0.3-0.4l-0.8-0.8l-0.3,0.2
	c-0.6,0.5-1.2,0.7-2,0.7c-1.5,0-2.5-0.9-2.7-2.4h5.6v-0.7c0-2.1-1.3-3.4-3.3-3.4c-2.1,0-3.5,1.5-3.5,3.7
	C65,702.6,66.5,704.2,68.9,704.2L68.9,704.2z M68.4,697.6c1.3,0,2.1,0.8,2.2,2h-4.5C66.4,697.9,67.7,697.6,68.4,697.6L68.4,697.6z"
	/>
<path id="Fill-186" opacity="0.25" enable-background="new    " d="M75.1,698.7c0.4-0.5,1.2-1.1,2.5-1.1c1.3,0,1.9,0.6,1.9,1.8v4.6
	h1.1v-4.6c0-1.8-1.1-2.8-3-2.8c-1,0-1.8,0.3-2.5,0.8v-0.6H74v7.4h1.1V698.7"/>
<path id="Fill-187" opacity="0.25" enable-background="new    " d="M86.7,704.2c0.9,0,1.7-0.2,2.4-0.7v0.5h1.2v-10.6h-1.2v3.7
	c-0.8-0.4-1.6-0.6-2.6-0.6c-2.3,0-3.7,1.6-3.7,3.9C82.7,702.7,84.3,704.2,86.7,704.2L86.7,704.2z M86.5,697.5c1,0,1.8,0.2,2.5,0.8
	v3.7c-0.6,0.8-1.3,1.1-2.5,1.1c-1.7,0-2.7-1.1-2.7-2.7C83.9,698.6,84.9,697.5,86.5,697.5L86.5,697.5z"/>
<path id="Fill-188" opacity="0.25" enable-background="new    " d="M96,704.2c1.1,0,1.9-0.3,2.8-1l0.4-0.3l-0.8-0.8l-0.3,0.2
	c-0.6,0.5-1.2,0.7-2,0.7c-1.5,0-2.5-0.9-2.7-2.4h5.6v-0.7c0-2.1-1.3-3.4-3.3-3.4c-2.1,0-3.5,1.5-3.5,3.7
	C92.1,702.6,93.7,704.2,96,704.2L96,704.2z M95.6,697.6c1.3,0,2.1,0.8,2.2,2h-4.5C93.6,697.9,94.9,697.6,95.6,697.6L95.6,697.6z"/>
<path id="Fill-189" opacity="0.25" enable-background="new    " d="M104.6,704.2c0.9,0,1.7-0.2,2.4-0.7v0.5h1.2v-10.6H107v3.7
	c-0.8-0.4-1.6-0.6-2.6-0.6c-2.3,0-3.7,1.6-3.7,3.9S102.2,704.2,104.6,704.2L104.6,704.2z M104.5,697.5c1,0,1.8,0.2,2.5,0.8v3.7
	c-0.6,0.8-1.3,1.1-2.5,1.1c-1.7,0-2.7-1.1-2.7-2.7C101.8,698.6,102.8,697.5,104.5,697.5L104.5,697.5z"/>
<path id="Fill-190" opacity="0.25" enable-background="new    " d="M115.5,699.9h1.6c0.3,0,0.5,0,0.7-0.1l4.1,4.2h1.6l-4.3-4.5
	c1.3-0.4,2-1.3,2-2.6c0-1.6-1.5-2.7-3.8-2.7h-3v9.7h1.1L115.5,699.9L115.5,699.9z M115.5,695.4h1.7c1.3,0,2.7,0.4,2.7,1.6
	c0,1.3-1.5,1.7-2.8,1.7h-1.6L115.5,695.4L115.5,695.4z"/>
<path id="Fill-191" opacity="0.25" enable-background="new    " d="M127.6,704.2c1.1,0,1.9-0.3,2.8-1l0.4-0.3l-0.8-0.8l-0.3,0.2
	c-0.6,0.5-1.2,0.7-2,0.7c-1.5,0-2.5-0.9-2.7-2.4h5.6v-0.7c0-2.1-1.3-3.4-3.3-3.4c-2.1,0-3.5,1.5-3.5,3.7
	C123.8,702.6,125.3,704.2,127.6,704.2L127.6,704.2z M127.3,697.6c1.3,0,2.1,0.8,2.2,2H125C125.3,697.9,126.5,697.6,127.3,697.6
	L127.3,697.6z"/>
<path id="Fill-192" opacity="0.25" enable-background="new    " d="M132.4,699.2c0,0.6,0.2,1.2,0.6,1.6c-0.4,0.3-0.6,0.8-0.6,1.3
	c0,0.4,0.1,0.8,0.4,1c-0.7,0.5-1.1,1.1-1.1,2c0,1.6,1.3,2.6,3.3,2.6c0.1,0,0.1,0,0.2,0c1.7,0,3-0.4,3.6-1.1c0.4-0.4,0.6-1,0.6-1.6
	c0-1.3-1.1-2-3-2.1c-0.4,0-0.7,0-1,0c-0.3,0-0.6,0-1,0c-0.5,0-1.1-0.2-1.1-0.8c0-0.3,0.1-0.5,0.4-0.6c0.5,0.2,1,0.3,1.6,0.3
	c1.9,0,3.2-1,3.2-2.5c0-0.3-0.1-0.5-0.1-0.8h1.5v-1.1h-2.2c-0.5-0.4-1.3-0.6-2.3-0.6C133.6,696.6,132.4,697.6,132.4,699.2
	L132.4,699.2z M135.5,697.7c1.2,0,2,0.5,2,1.5c0,1.3-1.6,1.5-2,1.5c-1.8,0-2-1.1-2-1.5C133.5,698.7,133.7,697.7,135.5,697.7
	L135.5,697.7z M133.8,703.6c0.3,0.1,0.5,0.1,0.9,0.1c0.4,0,0.6,0,0.9,0s0.6,0,0.9,0c0.9,0.1,2,0.3,2,1.1c0,1.1-1.1,1.6-3.2,1.6
	c-0.5,0-2.3-0.1-2.3-1.6C132.8,704.4,133.1,703.9,133.8,703.6L133.8,703.6z"/>
<path id="Fill-193" opacity="0.25" enable-background="new    " d="M141.1,696.6v4.6c0,1.7,1.3,2.9,3.2,2.9c0.9,0,1.6-0.2,2.1-0.5
	v0.4h1.1v-7.4h-1.1v5.5c-0.4,0.6-1.1,0.9-2.1,0.9c-1.3,0-2.1-0.7-2.1-1.7v-4.7L141.1,696.6"/>
<path id="Fill-194" opacity="0.25" enable-background="new    " d="M149.9,693.4h1.1V704h-1.1V693.4z"/>
<path id="Fill-195" opacity="0.25" enable-background="new    " d="M158.2,704h1.1v-4.7c0-1.7-1.3-2.8-3.4-2.8c-1.1,0-1.9,0.3-2.8,1
	l-0.4,0.3l0.8,0.8l0.3-0.2c0.6-0.5,1.2-0.7,2-0.7c1.3,0,2.3,0.7,2.3,1.8c-0.1,0-0.1,0-0.2,0c-0.7,0-1.2,0.1-2,0.1
	c-3,0.2-3.4,1.6-3.4,2.4c0,1.4,1.2,2.3,2.9,2.3c1.2,0,2-0.4,2.7-1L158.2,704L158.2,704z M155.6,703.1c-0.9,0-1.8-0.3-1.8-1.2
	c0-1,1.2-1.2,2.3-1.3c0.7-0.1,1.3-0.1,2-0.1c0.1,0,0.1,0,0.2,0v1.3C157.4,702.5,156.7,703.1,155.6,703.1L155.6,703.1z"/>
<path id="Fill-196" opacity="0.25" enable-background="new    " d="M162.5,698.6c0.5-0.6,1.3-1,2.5-1h0.3l0.2-1.1H165
	c-1,0-1.9,0.2-2.6,0.7v-0.5h-1.1v7.4h1.1L162.5,698.6"/>
<path id="Fill-197" opacity="0.25" enable-background="new    " d="M43.7,741.1c2.5,0,4-1.1,4-2.8c0-1.9-1.8-2.6-3.3-3.2l-0.2-0.1
	c-1.5-0.6-2-0.9-2-1.6c0-1.1,1.3-1.2,1.8-1.2c1,0,1.7,0.2,2.4,0.6l0.5,0.2l1-1.3l-0.7-0.3c-1-0.5-1.9-0.8-3.1-0.8
	c-2,0-3.4,1.1-3.4,2.7c0,1.8,1.7,2.4,3,3l0.2,0.1c1.5,0.6,2.4,1,2.4,1.8c0,1.2-1.8,1.3-2.3,1.3c-0.9,0-1.6-0.2-2.4-0.6l-0.5-0.3
	l-1,1.4l0.7,0.3C41.5,740.7,42.4,741.1,43.7,741.1"/>
<path id="Fill-198" opacity="0.25" enable-background="new    " d="M56,736.6c0-2.2-1.4-3.7-3.5-3.7c-2.3,0-3.8,1.5-3.8,3.9
	c0,2.5,1.7,4.2,4.1,4.2c1.2,0,2-0.3,3-1.1l0.6-0.5l-1.2-1.1l-0.4,0.4c-0.5,0.5-1.1,0.6-1.8,0.6c-1.7,0-2.3-1.1-2.4-1.9H56V736.6
	L56,736.6z M50.5,736c0.2-0.8,0.7-1.5,1.9-1.5c1.3,0,1.8,0.9,1.9,1.5H50.5L50.5,736z"/>
<path id="Fill-199" opacity="0.25" enable-background="new    " d="M56.8,738.5c0,1.5,1.3,2.5,3.2,2.5c1,0,1.8-0.3,2.4-0.8v0.6H64
	v-4.9c0-1.8-1.5-3.1-3.7-3.1c-1.1,0-2,0.3-3,1l-0.6,0.5l1.2,1.1l0.4-0.3c0.6-0.5,1.1-0.7,1.9-0.7c0.9,0,1.8,0.3,2,1.3
	c-0.6,0-1.2,0.1-1.9,0.1C59.4,735.9,56.8,736.3,56.8,738.5L56.8,738.5z M62.4,737.3v1c-0.8,0.8-1.3,1.2-2.4,1.2
	c-0.8,0-1.6-0.3-1.6-1s1.1-1,2.1-1.1C61.2,737.3,61.8,737.3,62.4,737.3L62.4,737.3z"/>
<path id="Fill-200" opacity="0.25" enable-background="new    " d="M69.5,733c-0.9,0-1.6,0.2-2.3,0.5v-0.4h-1.6v7.8h1.6v-5.4
	c0.4-0.5,1.1-1,2.2-1c1.1,0,1.7,0.5,1.7,1.6v4.8h1.6V736C72.7,734.1,71.5,733,69.5,733"/>
<path id="Fill-201" opacity="0.25" enable-background="new    " d="M48.5,758v-1h-6.1v-2.8h4.7v-1.5h-4.7v-2.6H48v-1.6h-7.3v10.2
	h9.4l2.6-2.9l2.6,2.9h2.1l-3.6-4.1l3.4-3.8H55l-2.4,2.5l-2.3-2.6h-2.1l3.3,3.8L48.5,758"/>
<path id="Fill-202" opacity="0.25" enable-background="new    " d="M58.8,749.7v1.5h-2.1v1.6h2.1v3.4c0,1.6,1,2.6,2.5,2.6
	c0.8,0,1.3-0.2,1.9-0.4l0.7-0.3l-0.9-1.4l-0.5,0.2c-0.4,0.2-0.7,0.3-1.1,0.3c-0.3,0-0.9,0-0.9-1v-3.3h3.3v-1.6h-3.3V749L58.8,749.7"
	/>
<path id="Fill-203" opacity="0.25" enable-background="new    " d="M68.9,758.7c1.2,0,2-0.3,3-1.1l0.6-0.5l-1.2-1.1l-0.4,0.4
	c-0.5,0.5-1.1,0.6-1.8,0.6c-1.7,0-2.3-1.1-2.4-1.9h5.5v-1c0-2.2-1.4-3.7-3.5-3.7c-2.3,0-3.8,1.5-3.8,3.9
	C64.7,757.1,66.4,758.7,68.9,758.7L68.9,758.7z M68.4,752.2c1.3,0,1.8,0.9,1.9,1.5h-3.9C66.7,753,67.2,752.2,68.4,752.2L68.4,752.2z
	"/>
<path id="Fill-204" opacity="0.25" enable-background="new    " d="M75.4,753.2c0.4-0.5,1.1-1,2.2-1c1.1,0,1.7,0.5,1.7,1.6v4.8h1.6
	v-4.9c0-1.9-1.2-3.1-3.2-3.1c-0.9,0-1.6,0.2-2.3,0.5v-0.4h-1.6v7.8h1.6L75.4,753.2"/>
<path id="Fill-205" opacity="0.25" enable-background="new    " d="M86.7,758.8c0.8,0,1.5-0.2,2.1-0.5v0.4h1.7v-11.2h-1.7v3.5
	c-0.7-0.3-1.5-0.4-2.4-0.4c-2.4,0-4,1.6-4,4.1C82.5,757.2,84.2,758.8,86.7,758.8L86.7,758.8z M86.5,752.2c0.9,0,1.6,0.2,2.3,0.6v3.4
	c-0.5,0.6-1.2,1-2.2,1c-1.5,0-2.4-0.9-2.4-2.5C84.2,753.1,85,752.2,86.5,752.2L86.5,752.2z"/>
<path id="Fill-206" opacity="0.25" enable-background="new    " d="M96,758.7c1.2,0,2-0.3,3-1.1l0.6-0.5l-1.2-1.1l-0.4,0.4
	c-0.5,0.5-1.1,0.6-1.8,0.6c-1.7,0-2.3-1.1-2.4-1.9h5.5v-1c0-2.2-1.4-3.7-3.5-3.7c-2.3,0-3.8,1.5-3.8,3.9
	C91.9,757.1,93.6,758.7,96,758.7L96,758.7z M95.6,752.2c1.3,0,1.8,0.9,1.9,1.5h-3.9C93.8,753,94.3,752.2,95.6,752.2L95.6,752.2z"/>
<path id="Fill-207" opacity="0.25" enable-background="new    " d="M104.6,758.8c0.8,0,1.5-0.2,2.1-0.5v0.4h1.7v-11.2h-1.7v3.5
	c-0.7-0.3-1.5-0.4-2.4-0.4c-2.4,0-4,1.6-4,4.1C100.4,757.2,102.1,758.8,104.6,758.8L104.6,758.8z M104.5,752.2
	c0.9,0,1.6,0.2,2.3,0.6v3.4c-0.5,0.6-1.2,1-2.2,1c-1.5,0-2.4-0.9-2.4-2.5C102.1,753.1,103,752.2,104.5,752.2L104.5,752.2z"/>
<path id="Fill-208" opacity="0.25" enable-background="new    " d="M117.9,758.6c1.5,0,2.7-0.4,3.4-1.2c0.5-0.5,0.8-1.2,0.8-2
	c0-1.1-0.5-1.9-1.5-2.5c0.5-0.4,0.8-1,0.8-1.8c0-1.7-1.3-2.7-3.5-2.7h-3.3v4.7h-0.1h0.1v5.5H117.9L117.9,758.6z M116.2,750h1.7
	c0.6,0,1.9,0.1,1.9,1.2c0,1-1.5,1.1-2.1,1.1h-1.5V750L116.2,750z M116.2,753.8h1.5c0.9,0,2.8,0.2,2.8,1.7l0,0c0,0.4-0.1,0.6-0.3,0.9
	c-0.4,0.4-1.2,0.7-2.3,0.7h-1.7V753.8L116.2,753.8z"/>
<path id="Fill-209" opacity="0.25" enable-background="new    " d="M127.1,750.7c-2.4,0-4,1.6-4,4c0,2.4,1.6,4,4,4c2.4,0,4-1.6,4-4
	C131.2,752.3,129.6,750.7,127.1,750.7L127.1,750.7z M127.2,757.1c-1.8,0-2.4-1.3-2.4-2.5c0-1.1,0.6-2.4,2.3-2.4
	c1.5,0,2.5,0.9,2.5,2.4C129.6,755.8,129,757.1,127.2,757.1L127.2,757.1z"/>
<path id="Fill-210" opacity="0.25" enable-background="new    " d="M132.8,747.5h1.6v11.2h-1.6V747.5z"/>
<path id="Fill-211" opacity="0.25" enable-background="new    " d="M144,758.6v-11.2h-1.7v3.5c-0.7-0.3-1.5-0.4-2.4-0.4
	c-2.4,0-4,1.6-4,4.1c0,2.4,1.7,4,4.2,4c0.8,0,1.5-0.2,2.1-0.5v0.4L144,758.6L144,758.6z M140.1,757.2c-1.5,0-2.4-0.9-2.4-2.5
	s0.9-2.5,2.4-2.5c0.9,0,1.6,0.2,2.3,0.6v3.4C141.8,756.9,141.2,757.2,140.1,757.2L140.1,757.2z"/>
<path id="Fill-212" opacity="0.25" enable-background="new    " d="M43.7,795.4c2.6,0,4.2-1.1,4.2-3c0-2-1.9-2.8-3.4-3.4l-0.2-0.1
	c-1.3-0.5-1.9-0.9-1.9-1.4c0-0.9,1.2-1,1.6-1c0.9,0,1.5,0.2,2.4,0.6l0.6,0.3l1.1-1.6l-0.9-0.4c-1-0.5-1.9-0.8-3.2-0.8
	c-2.1,0-3.6,1.2-3.6,2.9c0,1.9,1.7,2.6,3.1,3.2l0.2,0.1c1.6,0.6,2.3,1,2.3,1.6c0,1-1.7,1.1-2.1,1.1c-0.9,0-1.5-0.2-2.4-0.6l-0.6-0.3
	l-1.1,1.7l0.9,0.4C41.4,795,42.3,795.4,43.7,795.4"/>
<path id="Fill-213" opacity="0.25" enable-background="new    " d="M56.2,790.7c0-2.3-1.5-3.8-3.7-3.8c-2.4,0-3.9,1.6-3.9,4
	c0,2.6,1.7,4.4,4.2,4.4c1.2,0,2.1-0.3,3.1-1.1l0.7-0.6l-1.5-1.3l-0.5,0.4c-0.5,0.4-1,0.6-1.7,0.6c-0.7,0-1.8-0.2-2.3-1.6h5.5
	L56.2,790.7L56.2,790.7z M50.7,790c0.2-0.6,0.7-1.2,1.7-1.2c1.1,0,1.6,0.6,1.7,1.2H50.7L50.7,790z"/>
<path id="Fill-214" opacity="0.25" enable-background="new    " d="M60.4,786.9c-1.2,0-2.1,0.3-3.1,1.1l-0.8,0.6l1.4,1.3l0.5-0.4
	c0.6-0.5,1.1-0.6,1.8-0.6c0.4,0,1.5,0.1,1.8,1c-0.5,0-1.1,0.1-1.7,0.1c-3.4,0.2-3.8,2-3.8,2.8c0,1.6,1.3,2.7,3.3,2.7
	c0.9,0,1.7-0.3,2.3-0.6v0.5h2v-5.1C64.2,788.2,62.7,786.9,60.4,786.9L60.4,786.9z M62.3,792.3c-0.7,0.7-1.3,1.1-2.2,1.1
	c-0.2,0-1.4-0.1-1.4-0.9c0-0.3,0.3-0.8,1.9-0.9c0.6-0.1,1.1-0.1,1.7-0.1V792.3L62.3,792.3z"/>
<path id="Fill-215" opacity="0.25" enable-background="new    " d="M69.5,786.9c-0.8,0-1.5,0.2-2.1,0.4V787h-2v8.2h2v-5.5
	c0.4-0.4,1.1-0.9,2-0.9c1,0,1.5,0.4,1.5,1.4v5h2v-5C72.9,788.1,71.6,786.9,69.5,786.9"/>
<path id="Fill-216" opacity="0.25" enable-background="new    " d="M58.7,807.1v3.2c0,1.7,1,2.7,2.6,2.7c0.8,0,1.3-0.2,1.9-0.4
	l0.9-0.4l-1-1.6l-0.6,0.3c-0.4,0.2-0.6,0.3-1.1,0.3c-0.4,0-0.8-0.1-0.8-0.9v-3.2H64v-1.9h-3.3v-2.4l-1.9,1v1.4h-1.6l0.4-0.4H55
	l-2.3,2.5l-2.2-2.5H48l3.4,3.9l-2.7,3.1v-0.7h-6.2v-2.5h4.7v-1.9h-4.7v-2.3h5.6v-1.9h-7.6V813h9.7l2.5-2.8l2.5,2.8h2.6l-3.8-4.3
	l2.6-3v1.3L58.7,807.1"/>
<path id="Fill-217" opacity="0.25" enable-background="new    " d="M68.9,813c1.2,0,2.1-0.3,3.1-1.1l0.7-0.6l-1.5-1.3l-0.5,0.4
	c-0.5,0.4-1,0.6-1.7,0.6s-1.8-0.2-2.3-1.6h5.5v-1.1c0-2.3-1.5-3.8-3.7-3.8c-2.4,0-3.9,1.6-3.9,4C64.6,811.3,66.3,813,68.9,813
	L68.9,813z M68.4,806.5c1.1,0,1.6,0.6,1.7,1.2h-3.4C66.9,807.1,67.4,806.5,68.4,806.5L68.4,806.5z"/>
<path id="Fill-218" opacity="0.25" enable-background="new    " d="M81,812.9v-5c0-2-1.3-3.3-3.4-3.3c-0.8,0-1.5,0.2-2.1,0.4v-0.3
	h-2v8.2h2v-5.5c0.4-0.4,1.1-0.9,2-0.9c1,0,1.5,0.4,1.5,1.4v5H81"/>
<path id="Fill-219" opacity="0.25" enable-background="new    " d="M90.6,812.9v-11.5h-2v3.5c-0.6-0.2-1.3-0.4-2.2-0.4
	c-2.5,0-4.1,1.7-4.1,4.3c0,2.5,1.8,4.2,4.4,4.2c0.7,0,1.4-0.2,1.9-0.4v0.3L90.6,812.9L90.6,812.9z M86.6,811.2c-2,0-2.3-1.6-2.3-2.4
	c0-0.7,0.2-2.4,2.2-2.4c0.9,0,1.5,0.2,2.1,0.5v3.3C88.1,810.9,87.5,811.2,86.6,811.2L86.6,811.2z"/>
<path id="Fill-220" opacity="0.25" enable-background="new    " d="M98.2,810.1l-0.5,0.4c-0.5,0.4-1,0.6-1.7,0.6s-1.8-0.2-2.3-1.6
	h5.6v-1.1c0-2.3-1.5-3.8-3.7-3.8c-2.4,0-3.9,1.6-3.9,4c0,2.6,1.7,4.4,4.2,4.4c1.2,0,2.1-0.3,3.1-1.1l0.7-0.6L98.2,810.1L98.2,810.1z
	 M95.6,806.5c1.1,0,1.6,0.6,1.7,1.2h-3.4C94.1,807.1,94.6,806.5,95.6,806.5L95.6,806.5z"/>
<path id="Fill-221" opacity="0.25" enable-background="new    " d="M106.6,804.9c-0.6-0.2-1.3-0.4-2.2-0.4c-2.5,0-4.1,1.7-4.1,4.3
	c0,2.5,1.8,4.2,4.4,4.2c0.7,0,1.4-0.2,1.9-0.4v0.3h2v-11.5h-2L106.6,804.9L106.6,804.9z M106.6,810.3c-0.5,0.6-1.1,0.9-2,0.9
	c-2,0-2.3-1.6-2.3-2.4c0-0.7,0.2-2.4,2.2-2.4c0.9,0,1.5,0.2,2.1,0.5L106.6,810.3L106.6,810.3z"/>
<path id="Fill-222" opacity="0.25" enable-background="new    " d="M120.8,807.1c0.4-0.5,0.7-1.1,0.7-1.7c0-1.8-1.5-2.9-3.7-2.9
	h-3.5v4.7l-1,0.2l1,0.1v5.5h3.5c1.6,0,2.8-0.4,3.5-1.2c0.5-0.6,0.9-1.3,0.8-2.1C122.2,808.5,121.7,807.6,120.8,807.1L120.8,807.1z
	 M116.4,804.3h1.5c1.6,0,1.7,0.7,1.7,1c0,0.3-0.2,0.9-1.9,0.9h-1.3L116.4,804.3L116.4,804.3z M120,810.4c-0.4,0.4-1.2,0.6-2.1,0.6
	h-1.5v-2.9h1.3c0.8,0,2.6,0.2,2.6,1.5v0.1C120.3,810,120.2,810.2,120,810.4L120,810.4z"/>
<path id="Fill-223" opacity="0.25" enable-background="new    " d="M123.1,801.5h2V813h-2V801.5z"/>
<path id="Fill-224" opacity="0.25" enable-background="new    " d="M129.6,804.6c-1.2,0-2.1,0.3-3.1,1.1l-0.8,0.6l1.4,1.3l0.5-0.4
	c0.6-0.5,1.1-0.6,1.8-0.6c0.4,0,1.5,0.1,1.8,1c-0.5,0-1.1,0.1-1.7,0.1c-3.4,0.2-3.8,2-3.8,2.8c0,1.6,1.3,2.7,3.3,2.7
	c0.9,0,1.7-0.3,2.3-0.6v0.5h2V808C133.4,805.9,131.9,804.6,129.6,804.6L129.6,804.6z M131.4,810c-0.7,0.7-1.3,1.1-2.2,1.1
	c-0.2,0-1.4-0.1-1.4-0.9c0-0.3,0.3-0.8,1.9-0.9c0.6-0.1,1.1-0.1,1.7-0.1V810L131.4,810z"/>
<path id="Fill-225" opacity="0.25" enable-background="new    " d="M138.4,813c1.2,0,2.3-0.5,3.1-1.3l0.6-0.6l-1.5-1.2l-0.5,0.6
	c-0.4,0.4-1,0.6-1.6,0.6c-1.9,0-2.1-1.5-2.1-2.3c0-0.7,0.2-2.3,2.3-2.3c0.5,0,1,0.2,1.5,0.5l0.6,0.5l1.2-1.5l-0.7-0.5
	c-0.8-0.6-1.6-0.9-2.6-0.9c-2.5,0-4.2,1.7-4.2,4.2C134.3,811.4,136,813,138.4,813"/>
<path id="Fill-226" opacity="0.25" enable-background="new    " d="M148.6,804.6l-4,2.4v-5.6h-2v7.1l-0.1,0.1l0.1,0.1v4.3h2v-2.8
	l4.4,2.8h3.5l-6.9-4.4l6.6-4L148.6,804.6"/>
<path id="Fill-227" opacity="0.25" enable-background="new    " d="M43.7,848.3c2.7,0,4.4-1.3,4.4-3.3c0-2.2-2-3-3.5-3.6l-0.2-0.1
	c-1.3-0.5-1.8-0.8-1.8-1.2c0-0.7,1-0.8,1.3-0.8c0.8,0,1.4,0.2,2.3,0.5l0.8,0.4l1.5-1.9l-1.2-0.6c-1.1-0.5-2-0.9-3.3-0.9
	c-2.3,0-3.8,1.3-3.8,3.2c0,2,1.9,2.8,3.3,3.4l0.2,0.1c1.5,0.6,2.1,0.9,2.1,1.4c0,0.9-1.6,0.9-1.9,0.9c-0.8,0-1.4-0.2-2.2-0.6
	l-0.9-0.4l-1.4,2l1.1,0.5C41.4,848,42.3,848.3,43.7,848.3"/>
<path id="Fill-228" opacity="0.25" enable-background="new    " d="M56.9,843.4c0-2.4-1.6-4.1-3.9-4.1c-2.5,0-4.2,1.7-4.2,4.3
	c0,2.8,1.8,4.6,4.5,4.6c1.2,0,2.3-0.4,3.2-1.2l0.9-0.8l-1.7-1.6h1.2V843.4L56.9,843.4z M53,841.8c0.8,0,1.1,0.3,1.3,0.7h-2.7
	C51.8,842,52.3,841.8,53,841.8L53,841.8z M55,845.3c-0.5,0.4-0.9,0.6-1.6,0.6c-1.1,0-1.6-0.5-1.9-1.1h4L55,845.3L55,845.3z"/>
<path id="Fill-229" opacity="0.25" enable-background="new    " d="M66.1,848.2v-5.3c0-2-1.7-3.5-4-3.5c-1.2,0-2.3,0.3-3.2,1.1
	l-1,0.8l1.7,1.7c-1.4,0.7-1.6,1.9-1.6,2.5c0,1.7,1.5,3,3.5,3c0.8,0,1.5-0.2,2-0.4v0.3L66.1,848.2L66.1,848.2z M60.4,842.4
	c0.5-0.4,1-0.6,1.6-0.6c0.3,0,1,0.1,1.4,0.5c-0.4,0-0.8,0.1-1.3,0.1c-1,0.1-1.7,0.3-2.3,0.5L60.4,842.4L60.4,842.4z M61.7,846
	c-0.1,0-1.2,0-1.2-0.6c0-0.4,0.9-0.6,1.7-0.7c0.5-0.1,1-0.1,1.5-0.1v0.4C63,845.6,62.5,846,61.7,846L61.7,846z"/>
<path id="Fill-230" opacity="0.25" enable-background="new    " d="M76.4,848.2v-5.3c0-2.1-1.4-3.5-3.7-3.5c-0.6,0-1.3,0.1-1.9,0.3
	v-0.2h-2.5v8.7h2.5v-5.7c0.5-0.5,1.1-0.7,1.8-0.7c1,0,1.2,0.4,1.2,1.2v5.2H76.4"/>
<path id="Fill-231" opacity="0.25" enable-background="new    " d="M42.7,861.3h4.7v-2.4h-4.7v-1.8h5.6v-2.4h-8.1v11h8.6v-2.4h-6.2
	L42.7,861.3"/>
<path id="Fill-232" opacity="0.25" enable-background="new    " d="M61,857.1h-3.2l-2.1,2.4l-2.1-2.4h-3.2l3.7,4.2l-4,4.5h3.2
	l2.4-2.7l2.4,2.7h3.2l-4-4.5L61,857.1"/>
<path id="Fill-233" opacity="0.25" enable-background="new    " d="M66.8,863.3c-0.4,0.2-0.6,0.2-1,0.2c-0.3,0-0.5,0-0.5-0.6v-3h3.3
	v-2.4h-3.3v-2.6l-2.4,1.2v1.3h-2.3v2.4h2.3v3c0,1.8,1.2,3,2.9,3c0.8,0,1.4-0.2,2-0.4l1.2-0.5l-1.3-2L66.8,863.3"/>
<path id="Fill-234" opacity="0.25" enable-background="new    " d="M78.4,862.5v-1.4c0-2.4-1.6-4.1-3.9-4.1c-2.5,0-4.2,1.7-4.2,4.3
	c0,2.8,1.8,4.6,4.5,4.6c1.2,0,2.3-0.4,3.2-1.2l0.9-0.8l-1.7-1.6h1.2V862.5z M74.3,859.4c0.8,0,1.1,0.3,1.3,0.7H73
	C73.3,859.6,73.8,859.4,74.3,859.4L74.3,859.4z M76.4,862.9c-0.5,0.4-0.9,0.6-1.6,0.6c-1.1,0-1.6-0.5-1.9-1.1h4L76.4,862.9
	L76.4,862.9z"/>
<path id="Fill-235" opacity="0.25" enable-background="new    " d="M84.7,857c-0.6,0-1.3,0.1-1.9,0.3v-0.2h-2.5v8.7h2.5v-5.6
	c0.5-0.5,1.1-0.7,1.8-0.7c1,0,1.2,0.4,1.2,1.2v5.2h2.5v-5.3C88.3,858.3,86.9,857,84.7,857"/>
<path id="Fill-236" opacity="0.25" enable-background="new    " d="M95.9,857.2c-0.6-0.2-1.2-0.3-1.9-0.3c-2.6,0-4.4,1.8-4.4,4.6
	c0,2.7,1.8,4.5,4.6,4.5c0.6,0,1.2-0.1,1.7-0.3v0.1h2.5v-12H96L95.9,857.2L95.9,857.2z M95.9,862.8c-0.4,0.5-1,0.7-1.8,0.7
	c-1.8,0-2-1.3-2-2.1c0-0.8,0.3-2.1,2-2.1c0.8,0,1.3,0.1,1.8,0.4V862.8L95.9,862.8z"/>
<path id="Fill-237" opacity="0.25" enable-background="new    " d="M107.7,862.5v-1.4c0-2.4-1.6-4.1-3.9-4.1c-2.5,0-4.2,1.7-4.2,4.3
	c0,2.8,1.8,4.6,4.5,4.6c1.2,0,2.3-0.4,3.2-1.2l0.9-0.8l-1.7-1.6h1.2V862.5z M103.7,859.4c0.8,0,1.1,0.3,1.3,0.7h-2.7
	C102.6,859.6,103.1,859.4,103.7,859.4L103.7,859.4z M105.7,862.9c-0.5,0.4-0.9,0.6-1.6,0.6c-1.1,0-1.6-0.5-1.9-1.1h4L105.7,862.9
	L105.7,862.9z"/>
<path id="Fill-238" opacity="0.25" enable-background="new    " d="M115.5,857.2c-0.6-0.2-1.2-0.3-1.9-0.3c-2.6,0-4.4,1.8-4.4,4.6
	c0,2.7,1.8,4.5,4.6,4.5c0.6,0,1.2-0.1,1.7-0.3v0.1h2.5v-12h-2.5L115.5,857.2L115.5,857.2z M115.5,862.8c-0.4,0.5-1,0.7-1.8,0.7
	c-1.8,0-2-1.3-2-2.1c0-0.8,0.3-2.1,2-2.1c0.8,0,1.3,0.1,1.8,0.4V862.8L115.5,862.8z"/>
<path id="Fill-239" opacity="0.25" enable-background="new    " d="M132,859.6c0.3-0.5,0.5-1,0.5-1.6c0-1.9-1.5-3.2-3.9-3.2h-3.7v11
	h3.8c1.6,0,2.9-0.4,3.7-1.3c0.6-0.6,0.9-1.5,0.9-2.4C133.3,861.1,132.8,860.2,132,859.6L132,859.6z M127.4,857.2h1.2
	c0.4,0,1.5,0.1,1.5,0.8c0,0.6-1.4,0.6-1.7,0.6h-1.1L127.4,857.2L127.4,857.2z M130.6,862.8c-0.3,0.3-1.1,0.5-1.9,0.5h-1.3v-2.4h1.1
	c0.7,0,2.4,0.1,2.4,1.2v0.1C130.9,862.5,130.8,862.7,130.6,862.8L130.6,862.8z"/>
<path id="Fill-240" opacity="0.25" enable-background="new    " d="M134.5,853.8h2.5v12h-2.5V853.8z"/>
<path id="Fill-241" opacity="0.25" enable-background="new    " d="M142.4,857L142.4,857c-1.1,0-2.1,0-3.3,0.7l-1.3,0.7l1.8,1.7
	l0.6-0.3c0.6-0.3,1.2-0.4,2.1-0.4c0.3,0,1,0.1,1.4,0.5c-0.4,0-0.8,0.1-1.3,0.1c-3.7,0.2-4,2.2-4,3.1c0,1.7,1.5,3,3.5,3
	c0.8,0,1.5-0.2,2-0.4v0.3h2.5v-5.3C146.5,858.4,144.8,857,142.4,857L142.4,857z M144,862.6c-0.7,0.7-1.2,1-2,1c-0.1,0-1.2,0-1.2-0.6
	c0-0.4,0.9-0.6,1.7-0.7c0.5-0.1,1-0.1,1.5-0.1V862.6L144,862.6z"/>
<path id="Fill-242" opacity="0.25" enable-background="new    " d="M153,862.9c-0.3,0.4-0.9,0.6-1.4,0.6c-1.3,0-1.9-0.7-1.9-2
	c0-1.8,1.2-2,2-2c0.5,0,0.9,0.2,1.3,0.4l0.8,0.6l1.6-1.8l-0.9-0.7c-0.8-0.6-1.7-0.9-2.8-0.9c-2.7,0-4.5,1.8-4.5,4.4
	c0,2.7,1.7,4.5,4.4,4.5c1.2,0,2.4-0.5,3.2-1.3l0.8-0.8l-1.9-1.6L153,862.9"/>
<path id="Fill-243" opacity="0.25" enable-background="new    " d="M167.2,857h-4.5l-3.7,2.3v-5.4h-2.5v12h2.5v-2.6l4.1,2.6h4.4
	l-7.3-4.6L167.2,857"/>
<path id="Fill-244" opacity="0.25" enable-background="new    " d="M47.1,629.7c0-1.4-1.3-2-2.9-2.6c-1.4-0.5-2.6-1-2.6-2.3
	c0-1.1,1-1.8,2.4-1.8c1.1,0,1.8,0.2,2.7,0.6l0.2-0.2c-1-0.5-1.7-0.8-2.8-0.8c-1.6,0-2.7,0.8-2.7,2.1s1.2,1.8,2.6,2.4
	c1.6,0.6,2.9,1.1,2.9,2.5c0,1.3-1.3,1.9-3,1.9c-1.1,0-1.8-0.2-2.7-0.7l-0.3,0.3c1,0.5,1.7,0.7,2.8,0.7
	C45.6,631.9,47.1,631.1,47.1,629.7"/>
<path id="Fill-245" opacity="0.25" enable-background="new    " d="M52.9,631.9c1,0,1.8-0.3,2.5-0.9l-0.2-0.2
	c-0.6,0.5-1.3,0.8-2.2,0.8c-2,0-3.1-1.4-3.2-3.2h5.6v-0.3c0-1.7-1-3-2.8-3c-2,0-3.1,1.4-3.1,3.2C49.4,630.3,50.6,631.9,52.9,631.9
	L52.9,631.9z M52.4,625.3c1.7,0,2.6,1.1,2.6,2.7v0.2h-5.3C49.8,626.5,50.7,625.3,52.4,625.3L52.4,625.3z"/>
<path id="Fill-246" opacity="0.25" enable-background="new    " d="M60.5,627.9c-1.7,0.1-3.1,0.7-3.1,2c0,1.2,1,1.9,2.5,1.9
	c1.4,0,2.3-0.6,3.1-1.6v1.5h0.3v-4.2c0-1.5-1.2-2.4-3-2.4c-1,0-1.8,0.3-2.5,0.9l0.2,0.2c0.7-0.5,1.3-0.8,2.3-0.8
	c1.6,0,2.7,0.9,2.7,2.3v0.3C62.1,627.9,61.5,627.9,60.5,627.9L60.5,627.9z M63.1,630c-0.9,0.9-1.7,1.6-3.1,1.6
	c-1.3,0-2.2-0.6-2.2-1.7c0-1.1,1.2-1.6,2.7-1.8c1-0.1,1.7-0.1,2.6-0.1V630L63.1,630z"/>
<path id="Fill-247" opacity="0.25" enable-background="new    " d="M66.6,626.7c0.6-0.8,1.5-1.4,2.8-1.4c1.6,0,2.3,0.9,2.3,2.2v4.2
	H72v-4.2c0-1.5-0.8-2.5-2.6-2.5c-1.3,0-2.3,0.5-2.9,1.2v-1.1h-0.3v6.6h0.3L66.6,626.7"/>
<path id="Fill-248" opacity="0.25" enable-background="new    " d="M47.3,640.8v-0.3h-6v8.9h6.5v-0.3h-6.2V645h4.7v-0.3h-4.7v-3.9
	H47.3"/>
<path id="Fill-249" opacity="0.25" enable-background="new    " d="M52.6,646.1l2.8,3.2h0.4l-3.1-3.4l2.8-3.1h-0.3l-2.6,2.9
	l-2.6-2.9h-0.3l2.7,3.1l-3.1,3.4h0.4L52.6,646.1"/>
<path id="Fill-250" opacity="0.25" enable-background="new    " d="M59.5,647.6c0,1.1,0.6,1.9,1.8,1.9c0.6,0,1.1-0.1,1.6-0.3
	l-0.1-0.2c-0.5,0.2-0.9,0.3-1.4,0.3c-1.1,0-1.6-0.7-1.6-1.7v-4h3.3v-0.3h-3.3v-1.9l-0.3,0.2v1.7h-2.1v0.3h2.1V647.6"/>
<path id="Fill-251" opacity="0.25" enable-background="new    " d="M68.9,649.5c1,0,1.8-0.3,2.5-0.9l-0.2-0.2
	c-0.6,0.5-1.3,0.8-2.2,0.8c-2,0-3.1-1.4-3.2-3.2h5.6v-0.3c0-1.7-1-3-2.8-3c-2,0-3.1,1.4-3.1,3.2C65.4,648,66.6,649.5,68.9,649.5
	L68.9,649.5z M68.4,643c1.7,0,2.6,1.1,2.6,2.7v0.2h-5.3C65.9,644.2,66.7,643,68.4,643L68.4,643z"/>
<path id="Fill-252" opacity="0.25" enable-background="new    " d="M74.7,644.4c0.6-0.8,1.5-1.4,2.8-1.4c1.6,0,2.3,0.9,2.3,2.2v4.2
	h0.3v-4.2c0-1.5-0.8-2.5-2.6-2.5c-1.3,0-2.3,0.5-2.9,1.2v-1.1h-0.3v6.6h0.3L74.7,644.4"/>
<path id="Fill-253" opacity="0.25" enable-background="new    " d="M86.7,649.6c1.2,0,2.1-0.4,2.7-1.3v1.2h0.3v-9.9h-0.3v4
	c-0.9-0.6-1.8-0.9-3-0.9c-2.2,0-3.3,1.5-3.3,3.5C83.2,648.1,84.4,649.6,86.7,649.6L86.7,649.6z M86.5,643c1.2,0,2.1,0.3,2.9,1v4
	c-0.6,0.9-1.6,1.4-2.8,1.4c-2,0-3.1-1.3-3.1-3.2C83.5,644.3,84.5,643,86.5,643L86.5,643z"/>
<path id="Fill-254" opacity="0.25" enable-background="new    " d="M96,649.5c1,0,1.8-0.3,2.5-0.9l-0.2-0.2
	c-0.6,0.5-1.3,0.8-2.2,0.8c-2,0-3.1-1.4-3.2-3.2h5.6v-0.3c0-1.7-1-3-2.8-3c-2,0-3.1,1.4-3.1,3.2C92.5,648,93.7,649.5,96,649.5
	L96,649.5z M95.6,643c1.7,0,2.6,1.1,2.6,2.7v0.2h-5.3C93,644.2,93.8,643,95.6,643L95.6,643z"/>
<path id="Fill-255" opacity="0.25" enable-background="new    " d="M104.6,649.6c1.2,0,2.1-0.4,2.7-1.3v1.2h0.3v-9.9h-0.3v4
	c-0.9-0.6-1.8-0.9-3-0.9c-2.2,0-3.3,1.5-3.3,3.5C101.1,648.1,102.4,649.6,104.6,649.6L104.6,649.6z M104.5,643c1.2,0,2.1,0.3,2.9,1
	v4c-0.6,0.9-1.6,1.4-2.8,1.4c-2,0-3.1-1.3-3.1-3.2C101.4,644.3,102.5,643,104.5,643L104.5,643z"/>
<path id="Fill-256" opacity="0.25" enable-background="new    " d="M121.6,649.2h-6.1v-8.6h-0.3v8.9h6.4V649.2"/>
<path id="Fill-257" opacity="0.25" enable-background="new    " d="M124.1,639.7h0.3v1.2h-0.3V639.7z"/>
<path id="Fill-258" opacity="0.25" enable-background="new    " d="M124.1,642.9h0.3v6.6h-0.3V642.9z"/>
<path id="Fill-259" opacity="0.25" enable-background="new    " d="M129.8,653c2.3,0.1,4.1-0.6,4-2.3c0-1.2-1.1-1.7-2.6-1.7
	c-0.7,0-1.2,0-1.9-0.1c-0.9,0-1.5-0.4-1.5-1.2c0-0.5,0.3-0.9,0.8-1c0.4,0.2,1,0.3,1.6,0.3c1.7,0,2.7-0.8,2.7-2.1
	c0-0.5-0.1-0.9-0.4-1.2h1.7v-0.3h-2c-0.5-0.4-1.2-0.6-2.1-0.6c-1.7,0-2.7,0.8-2.7,2.1c0,0.8,0.4,1.3,1,1.7c-0.6,0.2-0.9,0.6-0.9,1.2
	c0,0.5,0.3,0.9,0.7,1.1c-1,0.4-1.4,1-1.4,1.9C126.8,652.2,128,653,129.8,653L129.8,653z M127.8,645c0-1.2,1-1.9,2.4-1.9
	c1.4,0,2.4,0.7,2.4,1.9c0,1.2-1,1.9-2.4,1.9C128.8,646.8,127.8,646.1,127.8,645L127.8,645z M128.4,649c0.3,0.1,0.5,0.2,0.9,0.2
	c0.6,0,1.1,0,1.8,0.1c1.4,0.1,2.4,0.5,2.4,1.6c0,1.5-1.6,2-3.7,2c-1.6,0-2.7-0.7-2.7-2C127.1,650,127.6,649.4,128.4,649L128.4,649z"
	/>
<path id="Fill-260" opacity="0.25" enable-background="new    " d="M136.5,644.2c0.5-0.9,1.4-1.2,2.6-1.2c1.6,0,2.6,0.9,2.6,2.2v4.2
	h0.3v-4.2c0-1.5-1.1-2.5-2.8-2.5c-1.2,0-2.1,0.4-2.6,1.1v-4.2h-0.3v9.8h0.3L136.5,644.2"/>
<path id="Fill-261" opacity="0.25" enable-background="new    " d="M146.3,647.6c0,1.1,0.6,1.9,1.8,1.9c0.6,0,1.1-0.1,1.6-0.3
	l-0.1-0.2c-0.5,0.2-0.9,0.3-1.4,0.3c-1.1,0-1.6-0.7-1.6-1.7v-4h3.3v-0.3h-3.3v-1.9l-0.3,0.2v1.7h-2.1v0.3h2.1V647.6"/>
<title>Artboard 10</title>
<g opacity="0.75">
	<path fill="#FFFFFF" d="M322.1,718.4c0,0,0.8-11.3-6.3-11.3c-7.1,0-23,0-23,0v53.3h40.3c0,0,0-29.5,0-36S322.1,718.4,322.1,718.4z"
		/>
	<g>
		
			<image overflow="visible" opacity="0.35" width="52" height="66" xlink:href="C9B3E07C78EE9042.png"  transform="matrix(1 0 0 1 288.2641 704.3249)">
		</image>
		<g>
			<path fill="#FAFAFA" d="M322.1,718.4c0,0,0.8-11.3-6.3-11.3c-7.1,0-23,0-23,0v53.3h40.3c0,0,0-29.5,0-36S322.1,718.4,322.1,718.4
				z"/>
			<path fill="none" stroke="#D9D9D9" stroke-width="0.1559" stroke-miterlimit="10" d="M322.1,718.4c0,0,0.8-11.3-6.3-11.3
				c-7.1,0-23,0-23,0v53.3h40.3c0,0,0-29.5,0-36S322.1,718.4,322.1,718.4z"/>
		</g>
	</g>
	<g>
		<path d="M305.3,751.8v3.5c0,0.2,0,0.4,0.1,0.5c0,0.2,0.1,0.4,0.2,0.5c0.1,0.2,0.3,0.3,0.4,0.4c0.2,0.1,0.4,0.2,0.7,0.2
			c0.3,0,0.5-0.1,0.7-0.2c0.2-0.1,0.3-0.2,0.4-0.4c0.1-0.2,0.2-0.3,0.2-0.5c0-0.2,0.1-0.4,0.1-0.5v-3.5h0.8v3.6
			c0,0.3-0.1,0.6-0.2,0.9c-0.1,0.3-0.3,0.5-0.5,0.7s-0.4,0.3-0.7,0.5c-0.3,0.1-0.6,0.2-0.9,0.2c-0.3,0-0.6-0.1-0.9-0.2
			c-0.3-0.1-0.5-0.3-0.7-0.5s-0.4-0.4-0.5-0.7c-0.1-0.3-0.2-0.6-0.2-0.9v-3.6H305.3z"/>
		<path d="M310.3,751.8h3.6v0.7h-2.8v1.8h2.6v0.7h-2.6v2.4h-0.8V751.8z"/>
		<path d="M317.5,757.6c-0.4,0-0.8-0.1-1.2-0.2c-0.4-0.2-0.7-0.4-0.9-0.6c-0.3-0.3-0.5-0.6-0.6-0.9c-0.1-0.4-0.2-0.8-0.2-1.2
			c0-0.4,0.1-0.8,0.2-1.2c0.1-0.4,0.3-0.7,0.6-0.9c0.3-0.3,0.6-0.5,0.9-0.6c0.4-0.2,0.8-0.2,1.2-0.2c0.4,0,0.8,0.1,1.2,0.2
			s0.7,0.4,0.9,0.6c0.3,0.3,0.5,0.6,0.6,0.9c0.1,0.4,0.2,0.8,0.2,1.2c0,0.4-0.1,0.8-0.2,1.2c-0.1,0.4-0.3,0.7-0.6,0.9
			c-0.3,0.3-0.6,0.5-0.9,0.6S317.9,757.6,317.5,757.6z M317.5,756.9c0.3,0,0.6-0.1,0.9-0.2c0.3-0.1,0.5-0.3,0.7-0.5
			c0.2-0.2,0.3-0.4,0.4-0.7c0.1-0.3,0.2-0.6,0.2-0.9c0-0.3-0.1-0.6-0.2-0.9c-0.1-0.3-0.2-0.5-0.4-0.7c-0.2-0.2-0.4-0.4-0.7-0.5
			c-0.3-0.1-0.6-0.2-0.9-0.2c-0.3,0-0.6,0.1-0.9,0.2c-0.3,0.1-0.5,0.3-0.7,0.5c-0.2,0.2-0.3,0.4-0.4,0.7c-0.1,0.3-0.2,0.6-0.2,0.9
			c0,0.3,0.1,0.6,0.2,0.9c0.1,0.3,0.2,0.5,0.4,0.7c0.2,0.2,0.4,0.4,0.7,0.5C316.9,756.8,317.2,756.9,317.5,756.9z"/>
	</g>
	<line fill="none" stroke="#999999" stroke-width="0.1559" x1="299.1" y1="718.2" x2="299.1" y2="748"/>
	<line fill="none" stroke="#999999" stroke-width="0.1559" x1="326.5" y1="718.7" x2="326.5" y2="748"/>
	<line fill="none" stroke="#999999" stroke-width="0.1559" x1="295.2" y1="743.8" x2="330.7" y2="743.8"/>
	<line fill="none" stroke="#999999" stroke-width="0.1559" x1="295.2" y1="729" x2="330.7" y2="729"/>
	<line fill="none" stroke="#999999" stroke-width="0.1559" x1="295.2" y1="721.4" x2="330.7" y2="721.4"/>
	<g>
		<path d="M322.8,734.9c0,1.5-0.2,2.8-0.7,4c-0.4,1.2-1.1,2.3-2,3.2c-0.9,0.9-1.9,1.6-3.2,2.1c-1.3,0.5-2.8,0.8-4.5,0.8
			c-1.7,0-3.2-0.3-4.5-0.8c-1.3-0.5-2.4-1.2-3.2-2.1c-0.9-0.9-1.5-2-2-3.2c-0.4-1.2-0.7-2.6-0.7-4v-13.5h5.4v13.3
			c0,0.8,0.1,1.5,0.4,2.1c0.2,0.6,0.6,1.2,1,1.7c0.4,0.5,1,0.8,1.6,1.1c0.6,0.3,1.3,0.4,2,0.4c0.7,0,1.4-0.1,2-0.4
			c0.6-0.3,1.1-0.6,1.6-1.1c0.4-0.5,0.8-1,1-1.7c0.2-0.6,0.4-1.4,0.4-2.1v-13.3h5.4V734.9z"/>
	</g>
</g>
<g id="Mouse">
	<rect x="286.7" y="704.2" fill="none" width="11.4" height="15.7"/>
	<g>
		<g>
			<g>
				<defs>
					<path id="SVGID_1_" d="M289.9,706.7l-0.3-0.3l0.3-0.1V706.7z M295.1,711.9l-0.3-0.3h0.4L295.1,711.9z M294.8,712.1h0.4
						l-0.1,0.3L294.8,712.1z M291.4,713L291.4,713h0.4l0.1,0.1l-2.1,2.1l-0.6,0.6v-0.9v-8.6v-0.9l0.6,0.6l5.7,5.7l0.6,0.6h-0.9H293
						c0-0.1-0.1-0.1-0.1-0.1l0.1-0.2h0.2c0.1,0.1,0.1,0.2,0.2,0.4c0.2,0.4,0.4,0.9,0.7,1.3c0.1,0.1,0.1,0.1,0.1,0.2
						c0.3,0.6,0.6,1.1,0.7,1.5c0.1,0.2,0.1,0.4-0.1,0.6c-0.1,0.1-0.1,0.2-0.1,0.3c-0.1,0.1-0.1,0.2-0.2,0.3l-0.1,0.1h-0.1h-0.7h-0.2
						l-0.1-0.2L291.4,713z M289.6,714.8l0.3-0.3v0.4L289.6,714.8z M289.6,714.4v0.4l-0.3-0.1L289.6,714.4z M289.6,706.5v0.4
						l-0.3-0.3L289.6,706.5z"/>
				</defs>
				<clipPath id="SVGID_2_">
					<use xlink:href="#SVGID_1_"  overflow="visible"/>
				</clipPath>
				<rect x="286" y="702.8" clip-path="url(#SVGID_2_)" width="12.9" height="17.2"/>
			</g>
		</g>
	</g>
	<g>
		<g>
			<g>
				<defs>
					<path id="SVGID_3_" d="M289.6,706.3v8.6l2.1-2.1l1.8,3.6h0.7c0,0,0.4-0.5,0.4-0.7c-0.5-1.2-1.8-3.6-1.8-3.6h2.5L289.6,706.3z
						 M281.7,698.5h21.5v25.8h-21.5V698.5z"/>
				</defs>
				<clipPath id="SVGID_4_">
					<use xlink:href="#SVGID_3_"  overflow="visible"/>
				</clipPath>
				<path clip-path="url(#SVGID_4_)" fill="none" stroke="#FFFFFF" stroke-width="1.4316" stroke-miterlimit="10" d="M289.6,706.3
					v8.6l2.1-2.1l1.8,3.6h0.7c0,0,0.4-0.5,0.4-0.7c-0.5-1.2-1.8-3.6-1.8-3.6h2.5L289.6,706.3z"/>
			</g>
		</g>
	</g>
</g>
</svg>
