<?xml version="1.0" encoding="utf-8"?>
<!-- Generator: Adobe Illustrator 18.0.0, SVG Export Plug-In . SVG Version: 6.00 Build 0)  -->
<!DOCTYPE svg PUBLIC "-//W3C//DTD SVG 1.1//EN" "http://www.w3.org/Graphics/SVG/1.1/DTD/svg11.dtd">
<svg version="1.1" id="Calque_1" xmlns:sketch="http://www.bohemiancoding.com/sketch/ns"
	 xmlns="http://www.w3.org/2000/svg" xmlns:xlink="http://www.w3.org/1999/xlink" x="0px" y="0px" viewBox="26.7 34 1108.3 589"
	 enable-background="new 26.7 34 1108.3 589" xml:space="preserve">
<title>Artboard 10</title>
<desc>Created with Sketch.</desc>
<g id="Welcome" sketch:type="MSPage">
	<g id="Artboard-10" sketch:type="MSArtboardGroup">
		<g id="Back" transform="translate(26.000000, 34.000000)" sketch:type="MSLayerGroup">
			<rect id="Rectangle-36" x="337" y="202" sketch:type="MSShapeGroup" fill="#333333" width="202" height="84">
			</rect>
			
				<rect id="Rectangle-36_1_" x="336" y="101" sketch:type="MSShapeGroup" opacity="0.1" fill="#333333" enable-background="new    " width="202" height="84">
			</rect>
			
				<rect id="Rectangle-36_2_" y="101" sketch:type="MSShapeGroup" opacity="0.1" fill="#333333" enable-background="new    " width="300.3" height="84">
			</rect>
			
				<rect id="Rectangle-36_3_" y="202" sketch:type="MSShapeGroup" opacity="0.1" fill="#333333" enable-background="new    " width="300.3" height="84">
			</rect>
			
				<rect id="Rectangle-36_4_" y="404" sketch:type="MSShapeGroup" opacity="0.1" fill="#333333" enable-background="new    " width="300.3" height="84">
			</rect>
			
				<rect id="Rectangle-36_5_" x="0.7" y="505" sketch:type="MSShapeGroup" opacity="0.1" fill="#333333" enable-background="new    " width="300.3" height="84">
			</rect>
			
				<rect id="Rectangle-36_6_" y="303" sketch:type="MSShapeGroup" opacity="0.1" fill="#333333" enable-background="new    " width="300.3" height="84">
			</rect>
			
				<rect id="Rectangle-36_7_" x="337" y="303" sketch:type="MSShapeGroup" opacity="0.1" fill="#333333" enable-background="new    " width="202" height="84">
			</rect>
			
				<rect id="Rectangle-36_8_" x="564" y="303" sketch:type="MSShapeGroup" opacity="0.1" fill="#333333" enable-background="new    " width="259.8" height="84">
			</rect>
			
				<rect id="Rectangle-36_9_" x="564" y="202" sketch:type="MSShapeGroup" opacity="0.1" fill="#333333" enable-background="new    " width="259.8" height="84">
			</rect>
			
				<rect id="Rectangle-36_10_" x="562" y="101" sketch:type="MSShapeGroup" opacity="0.1" fill="#333333" enable-background="new    " width="259.8" height="84">
			</rect>
			
				<rect id="Rectangle-36_11_" x="564" y="404" sketch:type="MSShapeGroup" opacity="0.1" fill="#333333" enable-background="new    " width="259.8" height="84">
			</rect>
			
				<rect id="Rectangle-36_12_" x="876" y="303" sketch:type="MSShapeGroup" opacity="0.1" fill="#333333" enable-background="new    " width="233" height="84">
			</rect>
			
				<rect id="Rectangle-36_13_" x="876" y="202" sketch:type="MSShapeGroup" opacity="0.1" fill="#333333" enable-background="new    " width="233" height="84">
			</rect>
			
				<rect id="Rectangle-36_14_" x="876" y="101" sketch:type="MSShapeGroup" opacity="0.1" fill="#333333" enable-background="new    " width="233" height="84">
			</rect>
			
				<rect id="Rectangle-36_15_" x="876" sketch:type="MSShapeGroup" opacity="0.1" fill="#333333" enable-background="new    " width="233" height="84">
			</rect>
			
				<rect id="Rectangle-36_16_" x="337" y="404" sketch:type="MSShapeGroup" opacity="0.1" fill="#333333" enable-background="new    " width="202" height="84">
			</rect>
			<g id="Imported-EPS-2" transform="translate(24.000000, 8.000000)" sketch:type="MSShapeGroup">
				<g id="Page-1">
					<path id="Fill-1" fill="#FFFFFF" d="M349.3,226.2c-1.4,0-2.4-0.3-3.8-1.2l-0.7-0.4l-1,1.8l0.6,0.4c1.4,0.9,2.8,1.4,4.8,1.4
						c3.7,0,6-1.9,6-4.8c0-3.2-2.7-4.5-4.9-5.6l-0.3-0.1c-2.2-1-3.4-1.7-3.4-3.4c0-1.6,1.1-2.6,3-2.6c1.4,0,2.4,0.3,3.8,1.1l0.6,0.4
						l1-1.7l-0.7-0.4c-1.5-0.9-2.9-1.5-4.8-1.5c-3,0-5,1.9-5,4.6c0,2.9,2.5,4.1,4.5,5.1l0.2,0.1c2.5,1.2,3.8,1.9,3.8,3.8
						C353.1,225.9,350.4,226.2,349.3,226.2"/>
					<path id="Fill-2" fill="#FFFFFF" d="M363.4,228.2c1.8,0,3.1-0.6,4.4-1.9l0.5-0.5l-1.4-1.5l-0.6,0.6c-0.9,0.9-1.8,1.3-2.9,1.3
						c-3.1,0-3.9-2.8-4.1-4.4h8.7v-1.3c0-3.9-2-6.4-5.2-6.4c-3.4,0-5.6,2.7-5.6,6.8C357.3,225.3,359.7,228.2,363.4,228.2
						L363.4,228.2z M362.8,216c2.7,0,3.2,2.4,3.3,3.7h-6.6C359.6,218.2,360.3,216,362.8,216L362.8,216z"/>
					<path id="Fill-3" fill="#FFFFFF" d="M375.3,219.4c-3.4,0.3-5.4,1.9-5.4,4.5c0,2.6,1.9,4.3,4.6,4.3c1.7,0,3-0.7,4-1.6v1.4h2
						v-8.7c0-3.2-2.2-5.3-5.4-5.3c-1.7,0-3.1,0.6-4.4,1.8l-0.5,0.5l1.3,1.5l0.6-0.5c1-0.9,1.9-1.3,3-1.3c2.1,0,3.4,1.3,3.4,3.3
						c-0.1,0-0.1,0-0.2,0C377.3,219.3,376.4,219.3,375.3,219.4L375.3,219.4z M378.5,221.2v2.4c-1.3,1.5-2.3,2.6-4,2.6
						c-1.3,0-2.7-0.6-2.7-2.3c0-1.4,1.2-2.3,3.5-2.5c1.1-0.1,2-0.1,3-0.2C378.4,221.2,378.5,221.2,378.5,221.2L378.5,221.2z"/>
					<path id="Fill-4" fill="#FFFFFF" d="M383.4,214.3V228h2v-9.8c0.7-1,1.8-2.1,3.7-2.1c1.9,0,2.8,1.1,2.8,3.4v8.5h2v-8.6
						c0-3.4-1.7-5.3-4.7-5.3c-1.4,0-2.7,0.4-3.8,1.2v-1H383.4"/>
					<path id="Fill-5" fill="#FFFFFF" d="M355.7,247.9c0-3-2.4-5-6-5h-4.7v18.1h2v-7.8h2.3c0.3,0,0.7,0,1,0l6.3,7.8h2.6l-6.7-8.3
						C354.5,251.8,355.7,250.1,355.7,247.9L355.7,247.9z M349.4,251.1H347v-6.3h2.6c1,0,4.1,0.2,4.1,3
						C353.6,250.9,350.4,251.1,349.4,251.1L349.4,251.1z"/>
					<path id="Fill-6" fill="#FFFFFF" d="M365.1,247c-3.4,0-5.6,2.7-5.6,6.8c0,4.5,2.4,7.4,6.1,7.4c1.8,0,3.1-0.6,4.4-1.9l0.5-0.5
						l-1.4-1.5l-0.6,0.6c-0.9,0.9-1.8,1.3-2.9,1.3c-3.1,0-3.9-2.8-4.1-4.4h8.7v-1.3C370.3,249.5,368.3,247,365.1,247L365.1,247z
						 M361.7,252.7c0.2-1.5,0.9-3.7,3.4-3.7c2.7,0,3.2,2.4,3.3,3.7H361.7L361.7,252.7z"/>
					<path id="Fill-7" fill="#FFFFFF" d="M377.9,247.1c-3.1,0-5,1.9-5,4.8c0,1.2,0.4,2.2,1,3c-0.6,0.6-0.9,1.4-0.9,2.4
						c0,0.7,0.2,1.4,0.6,1.9c-1.1,0.9-1.7,2.1-1.7,3.7c0,2.9,2.1,4.8,5.3,4.8c0.1,0,0.2,0,0.3,0c2.5,0,4.4-0.6,5.5-1.8
						c0.8-0.8,1.3-2,1.2-3.3c0-2.4-1.7-3.8-4.7-4c-0.6,0-1,0-1.5,0c-0.5,0-0.9,0-1.5,0c-1,0-1.5-0.5-1.5-1.4c0-0.6,0.2-0.9,0.5-1.1
						c0.7,0.3,1.6,0.5,2.4,0.5c3.1,0,5-1.9,5-4.7c0-0.5-0.1-1-0.2-1.4h2.3v-2h-3.5C380.6,247.5,379.4,247.1,377.9,247.1L377.9,247.1
						z M375.2,260.3c0.4,0.1,0.8,0.2,1.3,0.2c0.5,0,1,0,1.4,0c0.4,0,0.9,0,1.4,0c3,0.2,3,1.6,3,2.1c0,0.7,0,3-4.9,3
						c-1.1,0-3.5-0.3-3.5-2.9C373.9,261.6,374.3,260.8,375.2,260.3L375.2,260.3z M377.9,254.5c-1.9,0-2.9-1-2.9-2.7
						c0-1.8,1.1-2.8,3-2.8c1.9,0,2.9,1,2.9,2.7C380.9,253.5,379.8,254.5,377.9,254.5L377.9,254.5z"/>
					<path id="Fill-8" fill="#FFFFFF" d="M396.9,260.9v-13.7h-2v10.3c-0.6,1.1-1.7,1.6-3.2,1.6c-2,0-3.2-1.2-3.2-3.2v-8.7h-2v8.6
						c0,3.2,2.1,5.4,5.1,5.4c1.3,0,2.4-0.3,3.2-0.9v0.6H396.9"/>
					<path id="Fill-9" fill="#FFFFFF" d="M400.1,241.1h2v19.8h-2V241.1z"/>
					<path id="Fill-10" fill="#FFFFFF" d="M409.7,247c-1.7,0-3.1,0.6-4.4,1.8l-0.5,0.5l1.3,1.5l0.6-0.5c1-0.9,1.9-1.3,3-1.3
						c2.1,0,3.4,1.3,3.4,3.3c-0.1,0-0.1,0-0.2,0c-1,0-2,0.1-3.1,0.2c-3.4,0.3-5.4,1.9-5.4,4.5c0,2.6,1.9,4.3,4.6,4.3
						c1.7,0,3-0.7,4-1.6v1.4h2v-8.7C415.1,249.1,412.9,247,409.7,247L409.7,247z M413,256.6c-1.3,1.5-2.3,2.6-4,2.6
						c-1.3,0-2.7-0.6-2.7-2.3c0-1.4,1.2-2.3,3.5-2.5c1.1-0.1,2-0.1,3-0.2c0,0,0.1,0,0.1,0V256.6L413,256.6z"/>
					<path id="Fill-11" fill="#FFFFFF" d="M419.9,248v-0.8h-2v13.7h2v-10.2c0.8-1.2,2-1.8,3.8-1.8h0.6l0.4-2.1h-0.9
						C422.3,246.9,421,247.3,419.9,248"/>
					<path id="Fill-12" d="M349.2,330.1c3.9,0,6.4-2.1,6.4-5.3c0-3.5-2.9-4.9-5.2-6l-0.3-0.1c-2.2-1.1-3.1-1.6-3.1-2.9
						c0-2,1.8-2.2,2.5-2.2c1.3,0,2.2,0.3,3.6,1.1l1,0.6l1.5-2.4l-1.1-0.6c-1.6-0.9-3-1.5-5-1.5c-3.3,0-5.5,2-5.5,5.1
						c0,3.2,2.6,4.5,4.8,5.5l0.2,0.1c2.4,1.1,3.6,1.8,3.6,3.4c0,0.9-0.4,2.4-3.4,2.4c-1.3,0-2.3-0.3-3.6-1.1l-1.1-0.7l-1.5,2.6
						l1,0.6C345.6,329.5,347.1,330.1,349.2,330.1"/>
					<path id="Fill-13" d="M356.8,322.2c0,4.7,2.6,7.9,6.6,7.9c1.9,0,3.4-0.7,4.8-2.1l0.8-0.8l-2-2.1l-0.9,0.9
						c-0.8,0.8-1.6,1.2-2.6,1.2c-2.4,0-3.3-2-3.6-3.5h8.6v-1.8c0-4.1-2.2-6.8-5.7-6.8C359.2,314.9,356.8,317.8,356.8,322.2
						L356.8,322.2z M362.8,317.9c2,0,2.6,1.6,2.8,2.8h-5.6C360.2,319.3,361,317.9,362.8,317.9L362.8,317.9z"/>
					<path id="Fill-14" d="M381,329.8v-9.2c0-3.4-2.4-5.7-5.8-5.7c-1.9,0-3.3,0.6-4.8,2l-0.8,0.8l1.9,2.2l0.9-0.9
						c0.9-0.9,1.7-1.2,2.7-1.2c1.7,0,2.7,0.9,2.9,2.4c-0.9,0-1.8,0.1-2.8,0.2c-5.3,0.4-5.8,3.6-5.8,4.9c0,2.8,2.1,4.7,5.1,4.7
						c1.5,0,2.6-0.5,3.6-1.1v0.9H381L381,329.8z M374.6,327.2c-0.7,0-2.2-0.2-2.2-1.9c0-0.4,0-1.7,3.1-2c1-0.1,1.8-0.1,2.7-0.1v1.8
						C376.9,326.3,376,327.2,374.6,327.2L374.6,327.2z"/>
					<path id="Fill-15" d="M394.4,329.8v-9.1c0-3.6-1.9-5.8-5.2-5.8c-1.2,0-2.3,0.3-3.3,0.8v-0.6h-2.9v14.6h2.9v-10.2
						c0.8-1.2,1.9-1.7,3.2-1.7c1.1,0,2.4,0.3,2.4,2.9v9H394.4"/>
					<path id="Fill-16" d="M350.5,343.8h-5.4v19h5.4c2.2,0,4-0.7,5.2-1.9c1-1.1,1.5-2.5,1.5-4.1c0-2-0.9-3.6-2.4-4.6
						c0.9-0.8,1.3-2,1.3-3.3C356.1,345.8,353.9,343.8,350.5,343.8L350.5,343.8z M348.1,346.8h2.4c1.2,0,2.7,0.4,2.7,2.2
						c0,1.3-1,2-3,2h-2.1V346.8L348.1,346.8z M353.6,358.9c-0.6,0.7-1.8,1-3.1,1h-2.4v-6.1h2.1c3.6,0,4.1,1.9,4.1,3.1l0,0
						C354.3,357.7,354.1,358.4,353.6,358.9L353.6,358.9z"/>
					<path id="Fill-17" d="M364.9,348c-3.8,0-6.4,3-6.4,7.4c0,4.5,2.6,7.5,6.4,7.5c3.9,0,6.5-3,6.5-7.5
						C371.4,351,368.8,348,364.9,348L364.9,348z M365,360c-2.6,0-3.6-2.4-3.6-4.6c0-2.1,0.9-4.4,3.4-4.4c2.7,0,3.6,2.3,3.6,4.5
						C368.5,357.6,367.6,360,365,360L365,360z"/>
					<path id="Fill-18" d="M373.5,342h2.9v20.8h-2.9V342z"/>
					<path id="Fill-19" d="M388.3,362.3v0.5h3V342h-3v6.5c-1-0.5-2.1-0.7-3.4-0.7c-3.9,0-6.3,3-6.3,7.7c0,4.5,2.7,7.5,6.7,7.5
						C386.4,363.1,387.4,362.8,388.3,362.3L388.3,362.3z M381.5,355.4c0-1.1,0.3-4.7,3.5-4.7c1.4,0,2.4,0.3,3.3,1.1v6.5
						c-0.8,1.2-1.8,1.7-3.2,1.7C381.8,360.1,381.5,356.5,381.5,355.4L381.5,355.4z"/>
					<path id="Fill-20" d="M349.2,431.2c4.1,0,6.7-2.2,6.7-5.6c0-3.7-3.1-5.2-5.4-6.3l-0.3-0.1c-2.1-1-3-1.5-3-2.7
						c0-1.5,1.2-1.9,2.2-1.9c1.3,0,2.1,0.3,3.4,1l1.3,0.7l1.8-3l-1.4-0.8c-1.6-1-3.1-1.6-5.2-1.6c-3.5,0-5.8,2.2-5.8,5.4
						c0,3.4,2.8,4.8,4.9,5.8l0.2,0.1c2.5,1.2,3.4,1.7,3.4,3.1c0,0.8-0.4,2.1-3.1,2.1c-1.3,0-2.2-0.3-3.4-1.1l-1.4-0.9l-1.8,3.2
						l1.3,0.8C345.5,430.6,347,431.2,349.2,431.2"/>
					<path id="Fill-21" d="M363.4,431.2c2,0,3.5-0.7,5-2.2l1-1l-2.4-2.6l-1.1,1.1c-0.8,0.8-1.4,1.1-2.4,1.1c-2,0-2.9-1.5-3.2-2.9
						h8.6v-2.1c0-4.3-2.4-7.1-6-7.1c-3.8,0-6.4,3-6.4,7.5C356.5,427.9,359.3,431.2,363.4,431.2L363.4,431.2z M362.8,419
						c1.6,0,2.2,1.1,2.4,2.2h-4.9C360.6,420.1,361.3,419,362.8,419L362.8,419z"/>
					<path id="Fill-22" d="M381.3,431v-9.5c0-3.6-2.5-6-6.2-6c-1.9,0-3.5,0.7-5,2.1l-1.1,1l2.3,2.7l1.2-1.1c0.9-0.8,1.5-1.1,2.5-1.1
						c1.4,0,2.3,0.6,2.6,1.8c-0.8,0-1.6,0.1-2.5,0.1c-3.8,0.3-6.1,2.3-6.1,5.2c0,3,2.2,5.1,5.4,5.1c1.3,0,2.4-0.3,3.3-0.9v0.7H381.3
						L381.3,431z M374.6,427.7c-0.7,0-1.9-0.2-1.9-1.6c0-0.4,0-1.5,2.8-1.7c0.9-0.1,1.6-0.1,2.3-0.1v1.4
						C376.6,427,375.8,427.7,374.6,427.7L374.6,427.7z"/>
					<path id="Fill-23" d="M394.7,431v-9.4c0-3.8-2.1-6.1-5.5-6.1c-1.1,0-2.1,0.2-3,0.6v-0.4h-3.6V431h3.6v-10.4
						c0.8-1,1.7-1.5,2.9-1.5c1,0,2,0.3,2,2.6v9.3H394.7"/>
					<path id="Fill-24" d="M355.3,453c0.8-0.9,1.2-2,1.2-3.3c0-3.3-2.3-5.4-5.9-5.4h-5.7v8.8l-1.3,0.3l1.3,0.2v10.3h5.7
						c2.3,0,4.2-0.7,5.4-2c1.1-1.1,1.6-2.6,1.6-4.3C357.5,455.6,356.7,454,355.3,453L355.3,453z M348.4,447.9h2.1
						c0.8,0,1.5,0.2,1.9,0.5c0.4,0.3,0.5,0.7,0.5,1.4c0,0.4,0,1.7-2.7,1.7h-1.8V447.9L348.4,447.9z M353.4,459.5
						c-0.6,0.6-1.6,0.9-2.9,0.9h-2.1v-5.4h1.8c1.7,0,3.8,0.5,3.8,2.8l0,0.1C354,458.5,353.8,459,353.4,459.5L353.4,459.5z"/>
					<path id="Fill-25" d="M358.4,442.6h3.6v21.4h-3.6V442.6z"/>
					<path id="Fill-26" d="M368.8,448.4c-1.9,0-3.5,0.7-5,2.1l-1.1,1l2.3,2.7l1.2-1.1c0.9-0.8,1.5-1.1,2.5-1.1
						c1.4,0,2.3,0.6,2.6,1.8c-0.8,0-1.6,0.1-2.5,0.1c-3.8,0.3-6.1,2.3-6.1,5.2c0,3,2.2,5.1,5.4,5.1c1.3,0,2.4-0.3,3.3-0.9v0.7h3.6
						v-9.5C374.9,450.9,372.4,448.4,368.8,448.4L368.8,448.4z M371.4,458.6c-1.2,1.4-1.9,2.1-3.2,2.1c-0.7,0-1.9-0.2-1.9-1.6
						c0-0.4,0-1.5,2.8-1.7c0.9-0.1,1.6-0.1,2.3-0.1V458.6L371.4,458.6z"/>
					<path id="Fill-27" d="M384.6,459.4c-0.5,0.7-1.3,1.1-2.2,1.1c-2.7,0-3.1-2.7-3.1-4.2c0-3.9,2.5-4.2,3.2-4.2
						c0.8,0,1.4,0.3,2,0.8l1.3,1.2l2.1-2.9l-1-0.9c-1.2-1.1-2.7-1.7-4.3-1.7c-4.1,0-6.8,3.1-6.8,7.8c0,4.8,2.6,7.8,6.6,7.8
						c2,0,3.8-0.9,5-2.5l0.8-1.1l-2.5-2.5L384.6,459.4"/>
					<path id="Fill-28" d="M404,448.4h-5.8l-5.9,4.3v-10.1h-3.6v13.2l0,0l0,0v8.1h3.6v-4.9l6.5,4.9h5.7l-10.6-8.1L404,448.4"/>
					<path id="Fill-29" d="M354.4,122.5c0-2.6-2.1-3.7-4.5-4.9c-2.2-1-4.1-1.9-4.1-4.2c0-2.1,1.5-3.4,3.8-3.4c1.6,0,2.8,0.4,4.2,1.2
						l0.2-0.4c-1.5-0.9-2.7-1.4-4.4-1.4c-2.5,0-4.3,1.4-4.3,3.9c0,2.4,1.9,3.4,4.1,4.4c2.4,1.1,4.5,2,4.5,4.6c0,2.4-2,3.6-4.6,3.6
						c-1.7,0-2.8-0.4-4.2-1.3l-0.3,0.5c1.5,0.9,2.7,1.3,4.4,1.3C352.1,126.6,354.4,125.2,354.4,122.5"/>
					<path id="Fill-30" d="M363.4,126.6c1.6,0,2.8-0.5,3.9-1.7l-0.3-0.3c-1,1-2,1.5-3.5,1.5c-3.2,0-4.8-2.6-4.9-6h8.8v-0.6
						c0-3.2-1.5-5.6-4.4-5.6c-3.2,0-4.8,2.6-4.8,6C358,123.7,359.9,126.6,363.4,126.6L363.4,126.6z M362.8,114.4
						c2.7,0,4.1,2.1,4.1,5v0.3h-8.3C358.7,116.7,360,114.4,362.8,114.4L362.8,114.4z"/>
					<path id="Fill-31" d="M375.3,119.3c-2.6,0.2-4.7,1.3-4.7,3.7c0,2.2,1.6,3.5,3.9,3.5c2.2,0,3.5-1.2,4.8-2.9v2.7h0.5v-7.9
						c0-2.7-1.9-4.5-4.6-4.5c-1.6,0-2.8,0.5-3.9,1.6l0.3,0.4c1.1-1,2.1-1.5,3.5-1.5c2.5,0,4.2,1.6,4.2,4.2v0.6
						C377.9,119.2,376.8,119.2,375.3,119.3L375.3,119.3z M379.3,123.1c-1.4,1.7-2.6,3-4.7,3c-2,0-3.5-1.2-3.5-3.1
						c0-2.1,1.9-3,4.2-3.3c1.5-0.1,2.6-0.1,4-0.2V123.1L379.3,123.1z"/>
					<path id="Fill-32" d="M384.7,117c0.9-1.4,2.3-2.6,4.4-2.6c2.4,0,3.6,1.6,3.6,4.1v7.8h0.5v-7.9c0-2.8-1.3-4.6-4-4.6
						c-2.1,0-3.6,1-4.5,2.3v-2.1h-0.5v12.2h0.5V117"/>
					<path id="Fill-33" d="M346.9,142.8h-0.5v16.5h9.9v-0.5h-9.4V142.8"/>
					<path id="Fill-34" d="M360.3,147.1h0.5v12.2h-0.5V147.1z"/>
					<path id="Fill-35" d="M360.3,141.2h0.5v2.3h-0.5V141.2z"/>
					<path id="Fill-36" d="M365.4,151c0,1.4,0.5,2.5,1.5,3.1c-0.9,0.4-1.4,1.2-1.4,2.3c0,0.9,0.4,1.6,1.1,2
						c-1.5,0.7-2.2,1.9-2.2,3.5c0,2.6,1.8,4.1,4.6,4.1c3.5,0.1,6.3-1.1,6.3-4.3c0-2.2-1.7-3.1-4-3.2c-1.1,0-1.9,0-3-0.1
						c-1.4,0-2.2-0.8-2.2-2.2c0-1,0.4-1.6,1.2-1.9c0.7,0.4,1.5,0.6,2.4,0.6c2.6,0,4.3-1.5,4.3-4c0-0.9-0.2-1.6-0.6-2.2h2.7v-0.5h-3
						c-0.7-0.8-1.9-1.2-3.2-1.2C367.1,147,365.4,148.4,365.4,151L365.4,151z M368.3,158.8c1,0,1.8,0,2.8,0.1
						c2.1,0.1,3.7,0.9,3.7,2.9c0,2.8-2.5,3.7-5.6,3.7c-2.5,0-4.3-1.3-4.3-3.7c0-1.6,0.7-2.6,2-3.3
						C367.3,158.7,367.8,158.8,368.3,158.8L368.3,158.8z M369.7,147.4c2.2,0,3.7,1.3,3.7,3.5c0,2.2-1.5,3.5-3.8,3.5
						c-2.2,0-3.7-1.3-3.7-3.4C365.9,148.7,367.4,147.4,369.7,147.4L369.7,147.4z"/>
					<path id="Fill-37" d="M379.5,141H379v18.3h0.5v-9.7c0.8-1.6,2.2-2.3,4-2.3c2.4,0,4,1.6,4,4.1v7.9h0.5v-7.9
						c0-2.8-1.7-4.6-4.4-4.6c-1.8,0-3.2,0.7-4.1,2.1V141"/>
					<path id="Fill-38" d="M391.4,148.4h3.3v7.5c0,2.1,0.9,3.5,2.8,3.5c1,0,1.6-0.2,2.5-0.6l-0.2-0.4c-0.8,0.4-1.3,0.6-2.2,0.6
						c-1.7,0-2.4-1.3-2.4-3.1v-7.5h5.2v-0.5h-5.2v-3.5l-0.5,0.3v3.2h-3.3V148.4"/>
					<path id="Fill-39" d="M557.8,226.2c-1,0-1.7-0.3-2.7-1.1l-0.8-0.7l-0.8,2l0.5,0.4c1.1,0.9,2.2,1.5,3.8,1.5
						c2.8,0,4.7-1.9,4.7-4.8c0-3.1-2.1-4.5-3.7-5.5l-0.2-0.1c-1.5-1-2.5-1.6-2.5-3.4c0-1.6,0.8-2.6,2.1-2.6c1,0,1.7,0.3,2.7,1.1
						l0.8,0.6l0.8-1.8l-0.5-0.4c-1.2-0.9-2.2-1.5-3.8-1.5c-2.4,0-4,1.9-4,4.6c0,2.9,1.9,4.1,3.4,5.1l0.2,0.1c1.7,1,2.9,1.8,2.9,3.8
						C560.5,225.2,559.5,226.2,557.8,226.2"/>
					<path id="Fill-40" d="M568.4,228.2c1.4,0,2.5-0.6,3.5-2l0.3-0.4l-1.2-1.7l-0.6,0.8c-0.6,0.9-1.2,1.2-2,1.2
						c-1.8,0-2.7-2.2-2.9-4.4h6.5v-1.3c0-3.9-1.6-6.4-4.1-6.4c-2.7,0-4.4,2.7-4.4,6.8C563.6,225.3,565.5,228.2,568.4,228.2
						L568.4,228.2z M568,216c1.5,0,2.2,1.8,2.3,3.7h-4.6C565.8,218.3,566.3,216,568,216L568,216z"/>
					<path id="Fill-41" d="M573.1,223.9c0,2.6,1.5,4.3,3.7,4.3c1.2,0,2.1-0.5,2.8-1.3v1h1.9v-8.7c0-3.2-1.7-5.3-4.2-5.3
						c-1.4,0-2.5,0.6-3.5,1.9l-0.3,0.4l1.1,1.7l0.7-0.8c0.7-0.9,1.3-1.2,2-1.2c1.4,0,2.3,1.3,2.4,3.3c-0.8,0-1.4,0.1-2.3,0.2
						C574.6,219.7,573.1,221.4,573.1,223.9L573.1,223.9z M579.6,221.2v2.5c-0.9,1.5-1.6,2.5-2.8,2.5c-1.1,0-1.8-0.9-1.8-2.3
						c0-0.9,0.3-2.2,2.5-2.5C578.2,221.3,578.9,221.3,579.6,221.2L579.6,221.2z"/>
					<path id="Fill-42" d="M583.2,214.3V228h1.9v-9.9c0.5-0.9,1.3-2,2.6-2c1.3,0,1.9,1.1,1.9,3.4v8.5h1.9v-8.6
						c0-1.6-0.4-5.3-3.8-5.3c-1,0-1.9,0.3-2.6,0.9v-0.7H583.2"/>
					<path id="Fill-43" d="M554.6,252.3c0,5.5,2.3,8.8,5.9,8.8c2.1,0,3.6-0.8,5.1-2.7l0.3-0.4l-1.1-1.8l-0.7,0.9
						c-1.1,1.5-2.1,2-3.7,2c-0.9,0-4-0.5-4-6.9c0-1.8,0.3-7.6,4.3-7.6c1.4,0,2.3,0.4,3.5,1.5l0.7,0.7l0.9-1.9l-0.4-0.4
						c-1.5-1.4-2.8-2-4.7-2C557,242.7,554.6,246.4,554.6,252.3"/>
					<path id="Fill-44" d="M566.8,254c0,4.3,1.8,7.1,4.6,7.1c2.9,0,4.7-2.8,4.7-7.1c0-4.1-1.9-6.9-4.7-6.9
						C568.6,247.1,566.8,249.8,566.8,254L566.8,254z M574.3,254c0,2.5-0.8,5-2.7,5c-2,0-2.8-2.5-2.8-5.1c0-2.4,0.8-4.9,2.7-4.9
						C573.4,249.1,574.3,251.6,574.3,254L574.3,254z"/>
					<path id="Fill-45" d="M580.3,247.9v-0.7h-1.9v13.7h1.9V251c0.5-0.9,1.3-2,2.6-2c1.3,0,1.9,1.1,1.9,3.4v8.5h1.9v-8.6
						c0-1.6-0.4-5.3-3.8-5.3C581.9,247,581.1,247.3,580.3,247.9"/>
					<path id="Fill-46" d="M595.9,247.6c-0.8-0.5-1.7-0.8-2.7-0.8c-2.8,0-4.6,2.8-4.6,7.3c0,4.3,1.9,7.1,4.9,7.1
						c0.9,0,1.8-0.3,2.4-0.9v0.6h1.9v-19.8h-1.9V247.6L595.9,247.6z M595.9,257.2c-0.8,1.8-1.8,2-2.6,2c-2.1,0-2.8-2.8-2.8-5.1
						c0-2.4,0.7-5.1,2.8-5.1c1.1,0,1.9,0.4,2.6,1.3V257.2L595.9,257.2z"/>
					<path id="Fill-47" d="M604.3,261.2c1.4,0,2.5-0.6,3.5-2l0.3-0.4l-1.2-1.7l-0.6,0.8c-0.6,0.9-1.2,1.2-2,1.2
						c-1.8,0-2.7-2.2-2.9-4.4h6.5v-1.3c0-3.9-1.6-6.4-4.1-6.4c-2.7,0-4.4,2.7-4.4,6.8C599.5,258.3,601.4,261.2,604.3,261.2
						L604.3,261.2z M603.9,249c1.5,0,2.2,1.8,2.3,3.7h-4.6C601.7,251.3,602.2,249,603.9,249L603.9,249z"/>
					<path id="Fill-48" d="M611.9,251c0.5-0.9,1.3-2,2.6-2c1.3,0,1.9,1.1,1.9,3.4v8.5h1.9v-8.6c0-1.6-0.4-5.3-3.8-5.3
						c-1,0-1.9,0.3-2.6,0.9v-0.7H610v13.7h1.9V251"/>
					<path id="Fill-49" d="M623.7,259.2c-0.9,0-1.5-0.3-2.3-1.1l-0.7-0.6l-1,1.7l0.4,0.4c1.1,1.1,2.2,1.6,3.6,1.6
						c2.4,0,3.9-1.5,3.9-3.9c0-2.6-2-3.5-3.1-4c-1.4-0.7-2.1-1.2-2.1-2.5c0-1.1,0.6-1.8,1.6-1.8c0.6,0,1.1,0.2,1.9,0.8l0.8,0.6
						l0.8-1.9l-0.4-0.4c-0.8-0.6-1.7-1.2-3-1.2c-2.1,0-3.5,1.5-3.5,3.8c0,2.6,1.7,3.7,3,4.3l0.1,0c1.4,0.6,2,1,2,2.2
						C625.7,258.8,624.6,259.2,623.7,259.2"/>
					<path id="Fill-50" d="M633.6,261.2c1.4,0,2.5-0.6,3.5-2l0.3-0.4l-1.2-1.7l-0.6,0.8c-0.6,0.9-1.2,1.2-2,1.2
						c-1.8,0-2.7-2.2-2.9-4.4h6.5v-1.3c0-3.9-1.6-6.4-4.1-6.4c-2.7,0-4.4,2.7-4.4,6.8C628.9,258.3,630.7,261.2,633.6,261.2
						L633.6,261.2z M633.2,249c1.5,0,2.2,1.8,2.3,3.7h-4.6C631,251.3,631.5,249,633.2,249L633.2,249z"/>
					<path id="Fill-51" d="M643.8,261.2c0.9,0,1.8-0.3,2.4-0.9v0.6h1.9v-19.8h-1.9v6.5c-0.8-0.5-1.7-0.8-2.7-0.8
						c-2.8,0-4.6,2.8-4.6,7.3C638.9,258.5,640.8,261.2,643.8,261.2L643.8,261.2z M643.6,248.9c1.1,0,1.9,0.4,2.6,1.3v7
						c-0.8,1.8-1.8,2-2.6,2c-2.1,0-2.8-2.8-2.8-5.1C640.8,251.7,641.6,248.9,643.6,248.9L643.6,248.9z"/>
					<path id="Fill-52" d="M656.7,253.2h1.6c0.2,0,0.4,0,0.6,0l4.7,7.8h2.2l-5.1-8.4c1.6-0.9,2.5-2.5,2.5-4.7c0-3-1.8-5-4.7-5h-3.7
						v18.1h1.9V253.2L656.7,253.2z M656.7,244.9h1.7c1.8,0,2.9,1.1,2.9,3c0,2-1.1,3.2-3,3.2h-1.6V244.9L656.7,244.9z"/>
					<path id="Fill-53" d="M670.6,261.2c1.4,0,2.5-0.6,3.5-2l0.3-0.4l-1.2-1.7l-0.6,0.8c-0.6,0.9-1.2,1.2-2,1.2
						c-1.8,0-2.7-2.2-2.9-4.4h6.5v-1.3c0-3.9-1.6-6.4-4.1-6.4c-2.7,0-4.4,2.7-4.4,6.8C665.8,258.3,667.7,261.2,670.6,261.2
						L670.6,261.2z M670.1,249c1.5,0,2.2,1.8,2.3,3.7h-4.6C667.9,251.3,668.4,249,670.1,249L670.1,249z"/>
					<path id="Fill-54" d="M675.8,251.9c0,1.2,0.3,2.2,0.8,3c-0.5,0.6-0.7,1.4-0.7,2.4c0,0.8,0.2,1.5,0.5,1.9
						c-0.9,0.9-1.3,2.1-1.3,3.6c0,2.9,1.6,4.8,4.2,4.8h0c0.1,0,0.2,0,0.2,0c1.7,0,3-0.5,4-1.4c0.9-0.9,1.3-2.1,1.3-3.6
						c0-2.3-1.4-3.8-3.7-4c-0.4,0-0.8,0-1.2,0c-0.4,0-0.7,0-1.1,0c-0.6,0-1-0.5-1-1.4c0-0.3,0-0.7,0.2-1c0.5,0.3,1.1,0.4,1.8,0.4
						c2.4,0,4-1.9,4-4.7c0-0.5,0-1-0.1-1.4h1.7v-2h-2.7c-0.7-0.8-1.7-1.2-2.8-1.2C677.4,247.1,675.8,249,675.8,251.9L675.8,251.9z
						 M677.8,260.3c0.3,0.1,0.6,0.1,0.9,0.2c0.4,0,0.7,0,1.1,0c0.3,0,0.6,0,1,0c1.9,0.1,2.1,1.3,2.1,2.1c0,1.3-0.4,3-3.5,3
						c-1.5,0-2.4-1.1-2.4-2.9C676.9,261.6,677.2,260.9,677.8,260.3L677.8,260.3z M679.8,249.1c1.8,0,2,1.9,2,2.7
						c0,0.8-0.2,2.7-2.1,2.7c-1.8,0-2-1.9-2-2.7C677.7,251,677.9,249.1,679.8,249.1L679.8,249.1z"/>
					<path id="Fill-55" d="M686,247.2v8.6c0,3.2,1.6,5.4,4,5.4c0.9,0,1.6-0.2,2.2-0.7v0.4h1.9v-13.7h-1.9v10.3
						c-0.5,1.1-1.1,1.6-2.2,1.6c-1.3,0-2.2-1.3-2.2-3.2v-8.7H686"/>
					<path id="Fill-56" d="M696.2,241.1h1.9v19.8h-1.9V241.1z"/>
					<path id="Fill-57" d="M703.6,247c-1.4,0-2.5,0.6-3.5,1.9l-0.3,0.4l1.1,1.7l0.7-0.8c0.7-0.9,1.3-1.2,2-1.2
						c1.4,0,2.3,1.3,2.4,3.3c-0.8,0-1.4,0.1-2.3,0.2c-2.7,0.3-4.2,1.9-4.2,4.5c0,2.6,1.5,4.3,3.7,4.3c1.2,0,2.1-0.5,2.8-1.3v1h1.9
						v-8.7C707.8,249.1,706.1,247,703.6,247L703.6,247z M705.9,256.7c-0.9,1.5-1.6,2.5-2.8,2.5c-1.1,0-1.8-0.9-1.8-2.3
						c0-0.9,0.3-2.2,2.5-2.5c0.8-0.1,1.4-0.1,2.1-0.1V256.7L705.9,256.7z"/>
					<path id="Fill-58" d="M711.5,247.7v-0.5h-1.9v13.7h1.9v-10.3c0.6-1.2,1.4-1.7,2.6-1.7h0.7l0.3-2.1h-0.9
						C713.1,246.9,712.2,247.2,711.5,247.7"/>
					<path id="Fill-59" d="M557.8,330.1c3.1,0,5.1-2.1,5.1-5.3c0-3.4-2.2-4.8-3.9-5.9l-0.2-0.1c-1.6-1-2.3-1.5-2.3-3
						c0-0.7,0.2-2.2,1.6-2.2c0.9,0,1.5,0.2,2.4,1l1.2,0.9l1.2-2.6l-0.8-0.6c-1.2-1-2.4-1.6-4.1-1.6c-2.7,0-4.4,2-4.4,5.1
						c0,3.1,2.1,4.5,3.6,5.5l0.2,0.1c1.8,1.1,2.6,1.7,2.6,3.4c0,2-1.2,2.4-2.2,2.4c-0.9,0-1.5-0.3-2.4-1l-1.3-1.1l-1.2,2.9l0.7,0.6
						C554.7,329.3,555.9,330.1,557.8,330.1"/>
					<path id="Fill-60" d="M568.4,330.1c1.6,0,2.8-0.7,3.9-2.2l0.5-0.7l-1.7-2.4l-1,1.3c-0.6,0.9-1.1,1-1.6,1
						c-1.4,0-2.1-1.7-2.4-3.5h6.5v-1.8c0-4.1-1.8-6.8-4.6-6.8c-2.9,0-4.8,2.8-4.8,7.2C563.2,327,565.2,330.1,568.4,330.1
						L568.4,330.1z M568,317.9c1.1,0,1.6,1.4,1.8,2.8h-3.6C566.4,319.2,566.9,317.9,568,317.9L568,317.9z"/>
					<path id="Fill-61" d="M579.1,329.3v0.5h2.8v-9.2c0-3.4-1.9-5.7-4.7-5.7c-1.5,0-2.8,0.7-3.9,2.1l-0.5,0.7l1.6,2.5l1.1-1.3
						c0.7-0.9,1.2-1.1,1.7-1.1c1.2,0,1.8,1.2,1.9,2.4c-0.6,0-1.2,0.1-1.8,0.1c-2.9,0.3-4.6,2.1-4.6,4.9c0,2.8,1.7,4.7,4.1,4.7
						C577.7,330.1,578.5,329.8,579.1,329.3L579.1,329.3z M575.4,325.3c0-0.9,0.2-1.8,2.1-2c0.6-0.1,1.1-0.1,1.6-0.1v1.9
						c-0.9,1.5-1.5,2.2-2.3,2.2C575.6,327.2,575.4,325.8,575.4,325.3L575.4,325.3z"/>
					<path id="Fill-62" d="M589.2,320.9v9h2.8v-9.1c0-5.2-2.9-5.8-4.2-5.8c-0.8,0-1.5,0.2-2.2,0.5v-0.3h-2.8v14.6h2.8v-10.2
						c0.4-0.8,1.1-1.7,2.1-1.7C588.7,317.9,589.2,318.9,589.2,320.9"/>
					<path id="Fill-63" d="M554.2,353.7c0,5.7,2.4,9.3,6.4,9.3c2.3,0,3.8-0.8,5.5-2.8l0.6-0.7l-1.6-2.6l-1.1,1.4
						c-1.1,1.3-1.9,1.8-3.3,1.8c-3.3,0-3.6-4.9-3.6-6.4c0-1.7,0.3-7.1,3.9-7.1c1.3,0,2.1,0.3,3.1,1.4l1.2,1.2l1.4-2.7l-0.7-0.6
						c-1.6-1.5-3-2.1-5-2.1C556.7,343.6,554.2,347.5,554.2,353.7"/>
					<path id="Fill-64" d="M571.4,362.9c3.1,0,5.2-3,5.2-7.5c0-4.4-2.1-7.4-5.2-7.4c-3,0-5.1,3-5.1,7.4
						C566.3,360,568.3,362.9,571.4,362.9L571.4,362.9z M571.4,350.9c1.7,0,2.4,2.3,2.4,4.5c0,2.3-0.7,4.5-2.3,4.5
						c-1.6,0-2.4-2.3-2.4-4.6C569.1,353.2,569.8,350.9,571.4,350.9L571.4,350.9z"/>
					<path id="Fill-65" d="M587.1,362.8v-9.1c0-5.2-2.9-5.8-4.2-5.8c-0.8,0-1.5,0.2-2.2,0.5v-0.3h-2.8v14.6h2.8v-10.2
						c0.4-0.8,1.1-1.7,2.1-1.7c1,0,1.5,1,1.5,2.9v9H587.1"/>
					<path id="Fill-66" d="M598.3,362.8V342h-2.8v6.2c-0.7-0.3-1.4-0.5-2.3-0.5c-3.1,0-5.1,3-5.1,7.7c0,4.5,2.1,7.5,5.3,7.5
						c0.7,0,1.4-0.2,2-0.5v0.2H598.3L598.3,362.8z M593.4,360.1c-1.7,0-2.4-2.5-2.4-4.7c0-2.2,0.6-4.7,2.3-4.7c0.9,0,1.5,0.3,2.2,1
						v6.7C594.8,359.9,594,360.1,593.4,360.1L593.4,360.1z"/>
					<path id="Fill-67" d="M604.3,363c1.6,0,2.8-0.7,3.9-2.2l0.5-0.7l-1.7-2.4l-1,1.3c-0.6,0.9-1.1,1-1.6,1c-1.4,0-2.1-1.7-2.4-3.5
						h6.5v-1.8c0-4.1-1.8-6.8-4.6-6.8c-2.9,0-4.8,2.8-4.8,7.2C599.1,359.9,601.1,363,604.3,363L604.3,363z M603.9,350.9
						c1.1,0,1.6,1.4,1.8,2.8H602C602.3,352.1,602.8,350.9,603.9,350.9L603.9,350.9z"/>
					<path id="Fill-68" d="M612.3,352.6c0.4-0.8,1.1-1.7,2.1-1.7c1,0,1.5,1,1.5,2.9v9h2.8v-9.1c0-5.2-2.9-5.8-4.2-5.8
						c-0.8,0-1.5,0.2-2.2,0.5v-0.3h-2.8v14.6h2.8V352.6"/>
					<path id="Fill-69" d="M623.6,363c2.7,0,4.4-1.7,4.4-4.4c0-2.9-2.3-3.9-3.4-4.4c-1.4-0.7-1.8-1.1-1.8-2.1c0-0.9,0.4-1.3,1.1-1.3
						c0.5,0,0.9,0.2,1.6,0.7l1.3,1l1.2-2.8l-0.7-0.6c-0.9-0.7-1.8-1.3-3.3-1.3c-2.3,0-4,1.7-4,4.2c0,2.8,1.9,4,3.3,4.7l0.1,0
						c1.4,0.7,1.8,0.9,1.8,1.8c0,0.4,0,1.4-1.5,1.4c-0.8,0-1.3-0.2-2-0.9l-1.1-1l-1.5,2.5l0.7,0.7C620.9,362.5,622.1,363,623.6,363"
						/>
					<path id="Fill-70" d="M633.6,363c1.6,0,2.8-0.7,3.9-2.2l0.5-0.7l-1.7-2.4l-1,1.3c-0.6,0.9-1.1,1-1.6,1c-1.4,0-2.1-1.7-2.4-3.5
						h6.5v-1.8c0-4.1-1.8-6.8-4.6-6.8c-2.9,0-4.8,2.8-4.8,7.2C628.4,359.9,630.5,363,633.6,363L633.6,363z M633.2,350.9
						c1.1,0,1.6,1.4,1.8,2.8h-3.6C631.6,352.1,632.1,350.9,633.2,350.9L633.2,350.9z"/>
					<path id="Fill-71" d="M643.8,363.1c0.7,0,1.4-0.2,2-0.5v0.2h2.8V342h-2.8v6.2c-0.7-0.3-1.4-0.5-2.3-0.5c-3.1,0-5.1,3-5.1,7.7
						C638.4,360.1,640.6,363.1,643.8,363.1L643.8,363.1z M643.6,350.8c0.9,0,1.5,0.3,2.2,1v6.7c-0.7,1.4-1.4,1.6-2.1,1.6
						c-1.7,0-2.4-2.5-2.4-4.7C641.3,353.3,641.9,350.8,643.6,350.8L643.6,350.8z"/>
					<path id="Fill-72" d="M659.2,343.8h-4.4v19h4.3c1.5,0,2.8-0.5,3.8-1.5c1.1-1.1,1.6-2.6,1.5-4.5c0-2-0.7-3.6-1.9-4.6
						c0.7-0.8,1.1-2,1.1-3.3C663.7,345.8,662,343.8,659.2,343.8L659.2,343.8z M657.7,346.8h1.5c1.1,0,1.7,0.7,1.7,2.2
						c0,0.9-0.2,2-2,2h-1.3V346.8L657.7,346.8z M661,359.2c-0.5,0.5-1.3,0.7-1.8,0.7h-1.5v-6.1h1.3c1.8,0,2.8,1.1,2.8,3.1
						C661.7,357.9,661.5,358.7,661,359.2L661,359.2z"/>
					<path id="Fill-73" d="M670,348c-3,0-5.1,3-5.1,7.4c0,4.6,2,7.5,5.1,7.5c3.1,0,5.2-3,5.2-7.5C675.2,351,673.1,348,670,348
						L670,348z M670.1,360c-1.6,0-2.4-2.3-2.4-4.6c0-2.2,0.7-4.4,2.2-4.4c1.7,0,2.4,2.3,2.4,4.5C672.4,357.7,671.7,360,670.1,360
						L670.1,360z"/>
					<path id="Fill-74" d="M676.1,342h2.8v20.8h-2.8V342z"/>
					<path id="Fill-75" d="M690.1,362.8V342h-2.8v6.2c-0.7-0.3-1.4-0.5-2.3-0.5c-3.1,0-5.1,3-5.1,7.7c0,4.5,2.1,7.5,5.3,7.5
						c0.7,0,1.4-0.2,2-0.5v0.2H690.1L690.1,362.8z M685.1,360.1c-1.7,0-2.4-2.5-2.4-4.7c0-2.2,0.6-4.7,2.3-4.7c0.9,0,1.5,0.3,2.2,1
						v6.7C686.6,359.9,685.8,360.1,685.1,360.1L685.1,360.1z"/>
					<path id="Fill-76" d="M563.2,425.9c0.7,3.3,2.6,5.2,5.2,5.2c2.2,0,3.4-1.3,4.1-2.3l0.2-0.3c0.7,1.6,2.1,2.6,4,2.6
						c0.8,0,1.5-0.2,2.1-0.5v0.3h3.4v-9.5c0-3.6-2.1-6-5-6c-1.6,0-3,0.7-4.1,2.2l-0.7,0.9l2,3l1.3-1.6c0.7-0.9,1.1-0.9,1.5-0.9
						c1,0,1.4,1,1.5,1.8c-0.5,0-1,0.1-1.5,0.1c-2.1,0.2-3.5,1.2-4.3,2.7v-1c0-4.3-1.9-7.1-4.9-7.1c-3.1,0-5.1,3-5.1,7.5
						c0,0.2,0,0.4,0,0.6c-0.7-2.2-2.4-3.3-3.8-4.2l-0.2-0.1c-1.5-1-2.2-1.4-2.2-2.8c0-0.8,0.2-1.9,1.3-1.9c0.8,0,1.3,0.2,2.2,0.9
						l1.5,1.2l1.5-3.2l-1-0.7c-1.3-1-2.5-1.7-4.3-1.7c-2.8,0-4.7,2.2-4.7,5.4c0,3.3,2.2,4.7,3.8,5.7l0.2,0.1
						c1.7,1.1,2.5,1.6,2.5,3.2c0,1.4-0.6,2.1-1.9,2.1c-0.8,0-1.3-0.2-2.2-1l-1.6-1.3l-1.5,3.5l0.9,0.7c1.1,0.9,2.3,1.7,4.3,1.7
						C560.9,431.2,563,429.1,563.2,425.9L563.2,425.9z M577.5,424.4c0.5-0.1,0.9-0.1,1.3-0.1v1.5c-0.8,1.3-1.4,1.9-2,1.9
						c-0.9,0-1.1-1-1.1-1.6C575.7,425.4,575.9,424.6,577.5,424.4L577.5,424.4z M568,419c0.8,0,1.2,1,1.4,2.2h-2.9
						C566.7,420,567.2,419,568,419L568,419z M572.5,424.7c-0.1,0.5-0.2,0.9-0.2,1.4c0,0.2,0,0.4,0,0.6l-1.2-1.7l-1.3,1.7
						c-0.6,0.8-1,0.9-1.4,0.9c-1.1,0-1.8-1.4-2-2.9H572.5L572.5,424.7z"/>
					<path id="Fill-77" d="M588.9,421.7v9.3h3.4v-9.4c0-1.4-0.3-6.1-4.5-6.1c-0.7,0-1.3,0.1-1.9,0.4v-0.1h-3.4V431h3.4v-10.5
						c0.4-0.7,1-1.4,1.8-1.4C588.5,419.1,588.9,419.9,588.9,421.7"/>
					<path id="Fill-78" d="M571.4,448.5c-3.2,0-5.4,3.1-5.4,7.7c0,1.2,0.1,2.3,0.4,3.3l-1.5-2.4l-1.3,1.7c-1.1,1.4-1.9,1.7-3.1,1.7
						c-3,0-3.3-4.7-3.3-6.1c0-1.6,0.3-6.8,3.6-6.8c1.2,0,2,0.3,2.9,1.3l1.5,1.5l1.6-3.3l-0.8-0.8c-1.7-1.6-3.2-2.2-5.2-2.2
						c-4.3,0-7,4-7,10.4c0,5.9,2.6,9.6,6.7,9.6c2.3,0,4-0.9,5.7-2.9l0.5-0.6c0.9,2.2,2.5,3.5,4.7,3.5c3.3,0,5.5-3.2,5.5-7.8
						C576.9,451.6,574.7,448.5,571.4,448.5L571.4,448.5z M571.5,460.5c-1.4,0-2.1-2.2-2.1-4.3c0-2,0.6-4.1,1.9-4.1
						c1.4,0,2.1,2.2,2.1,4.2C573.5,458.3,572.9,460.5,571.5,460.5L571.5,460.5z"/>
					<path id="Fill-79" d="M582.9,448.4c-0.7,0-1.3,0.1-1.9,0.4v-0.1h-3.4v15.3h3.4v-10.5c0.4-0.7,1-1.4,1.8-1.4
						c0.8,0,1.2,0.9,1.2,2.6v9.3h3.4v-9.4C587.4,453.1,587.1,448.4,582.9,448.4"/>
					<path id="Fill-80" d="M595.2,448.7c-0.6-0.2-1.3-0.3-2-0.3c-3.3,0-5.4,3.2-5.4,8c0,4.7,2.3,7.8,5.6,7.8c0.5,0,1.1-0.1,1.7-0.3
						l3.4,0v-21.4h-3.4V448.7L595.2,448.7z M595.2,459.2c-0.6,1.2-1.2,1.4-1.8,1.4c-1.4,0-2.1-2.2-2.1-4.4c0-2.2,0.6-4.4,2-4.4
						c0.7,0,1.2,0.1,1.9,0.8V459.2L595.2,459.2z"/>
					<path id="Fill-81" d="M605.8,459.7c-0.6,0.8-1,0.9-1.4,0.9c-1.1,0-1.8-1.4-2-2.9h6.4v-2.1c0-4.3-1.9-7.1-4.9-7.1
						c-3.1,0-5.1,3-5.1,7.5c0,5,2.2,8.2,5.5,8.2c2.2,0,3.4-1.3,4.1-2.3l0.6-0.9l-2.1-3L605.8,459.7L605.8,459.7z M603.9,452
						c0.8,0,1.2,1,1.4,2.2h-2.9C602.6,452.9,603.1,452,603.9,452L603.9,452z"/>
					<path id="Fill-82" d="M624.8,454.8c-1.4-0.7-1.6-1-1.6-1.8c0-1,0.6-1,0.8-1c0.4,0,0.7,0.1,1.4,0.7l1.6,1.3l1.4-3.4l-0.9-0.7
						c-0.9-0.7-1.9-1.4-3.4-1.4c-2.5,0-4.3,1.9-4.3,4.5c0,3.3,2.6,4.6,3.5,5l0.1,0c1.4,0.6,1.6,0.8,1.6,1.5c0,0.5-0.1,1.1-1.2,1.1
						c-0.6,0-1-0.1-1.8-0.9l-1.4-1.3l-1.5,2.4v-6.3c0-1.4-0.3-6.1-4.5-6.1c-0.7,0-1.3,0.1-1.9,0.4v-0.1h-3.4v15.3h3.4v-10.5
						c0.4-0.7,1-1.4,1.8-1.4c0.8,0,1.2,0.9,1.2,2.6v9.3h3.4v-2.1l0.5,0.5c1.3,1.3,2.5,1.8,4.1,1.8c2.8,0,4.7-1.9,4.7-4.7
						C628.3,456.4,625.9,455.3,624.8,454.8"/>
					<path id="Fill-83" d="M635.1,459.7c-0.6,0.8-1,0.9-1.4,0.9c-1.1,0-1.8-1.4-2-2.9h6.4v-2.1c0-4.3-1.9-7.1-4.9-7.1
						c-3.1,0-5.1,3-5.1,7.5c0,5,2.2,8.2,5.5,8.2c2.2,0,3.4-1.3,4.1-2.3l0.6-0.9l-2.1-3L635.1,459.7L635.1,459.7z M633.2,452
						c0.8,0,1.2,1,1.4,2.2h-2.9C632,452.9,632.4,452,633.2,452L633.2,452z"/>
					<path id="Fill-84" d="M645.5,448.7c-0.6-0.2-1.3-0.3-2-0.3c-3.3,0-5.4,3.2-5.4,8c0,4.7,2.3,7.8,5.6,7.8c0.5,0,1.1-0.1,1.7-0.3
						l3.4,0v-21.4h-3.4V448.7L645.5,448.7z M645.5,459.2c-0.6,1.2-1.2,1.4-1.8,1.4c-1.4,0-2.1-2.2-2.1-4.4c0-2.2,0.6-4.4,2-4.4
						c0.7,0,1.2,0.1,1.9,0.8V459.2L645.5,459.2z"/>
					<path id="Fill-85" d="M699.5,448.4h-4.9l-3.8,3.7v-9.5h-3.4v8.5l-0.6-0.7c-1.3-1.5-2.7-1.9-3.7-1.9c-2.9,0-4.8,2.2-5.3,5.9
						c0-3.5-2.1-5.9-5-5.9c-1.6,0-3,0.7-4.1,2.2l-0.6,0.7v-8.8h-3.4v14c-0.2-1.4-0.8-2.6-1.7-3.5c0.6-0.9,1-2,1-3.3
						c0-3.2-1.9-5.4-4.8-5.4h-4.7v8.9l-0.6,0.2l0.6,0.1v10.4h4.6c1.6,0,3-0.5,4-1.6c0.8-0.9,1.4-2,1.6-3.3v4.9h3.4v-3.1
						c0.6,2,2.1,3.3,4.2,3.3c0.8,0,1.5-0.2,2.1-0.5v0.3h3.4v-5.7c0.5,3.6,2.4,5.8,5.2,5.8c1.7,0,3.2-1,4.2-2.6l0.2-0.4v2.8h3.4v-4.2
						l4.2,4.2h4.8l-8-8.1L699.5,448.4L699.5,448.4z M658,447.9h1.2c0.4,0,1.4,0,1.4,1.9c0,1.2-0.5,1.7-1.7,1.7H658V447.9L658,447.9z
						 M660.8,459.8c-0.5,0.5-1.1,0.6-1.6,0.6H658v-5.4h0.9c1.7,0,2.5,0.9,2.5,2.8l0,0C661.4,458.4,661.3,459.3,660.8,459.8
						L660.8,459.8z M668.2,457.4v-5.7l1.9,2.9l1.3-1.6c0.7-0.9,1.1-0.9,1.5-0.9c1,0,1.4,1,1.5,1.8c-0.5,0-1,0.1-1.5,0.1
						C670.4,454.1,668.8,455.4,668.2,457.4L668.2,457.4z M674.4,458.7c-0.8,1.3-1.4,1.9-2,1.9c-0.9,0-1.1-1-1.1-1.6
						c0-0.7,0.1-1.5,1.8-1.7c0.5-0.1,0.9-0.1,1.3-0.1V458.7L674.4,458.7z M687.5,460.2l-2-2.6l-1.2,2c-0.3,0.6-0.8,0.9-1.2,0.9
						c-0.4,0-0.9-0.1-1.3-0.9c-0.4-0.8-0.6-2-0.6-3.3c0-1.6,0.4-4.2,2-4.2c0.3,0,0.6,0.1,1.1,0.6l1.5,1.8l1.7-3.3V460.2L687.5,460.2
						z"/>
					<path id="Fill-86" d="M561.7,122.5c0-2.6-1.5-3.7-3.4-4.9c-1.6-1-3.1-1.9-3.1-4.2c0-2.1,1.2-3.4,2.8-3.4c1.2,0,2.1,0.4,3.2,1.2
						l0.2-0.4c-1.1-0.9-2-1.4-3.3-1.4c-1.9,0-3.2,1.4-3.2,3.9c0,2.4,1.4,3.4,3,4.4c1.8,1.1,3.4,2,3.4,4.6c0,2.4-1.5,3.6-3.5,3.6
						c-1.3,0-2.1-0.4-3.2-1.3l-0.2,0.5c1.1,0.9,2,1.3,3.3,1.3C560,126.6,561.7,125.2,561.7,122.5"/>
					<path id="Fill-87" d="M568.4,126.6c1.2,0,2.1-0.5,2.9-1.7l-0.2-0.3c-0.8,1-1.5,1.5-2.6,1.5c-2.4,0-3.6-2.6-3.7-6h6.6v-0.6
						c0-3.2-1.1-5.6-3.3-5.6c-2.4,0-3.6,2.6-3.6,6C564.4,123.7,565.8,126.6,568.4,126.6L568.4,126.6z M568,114.4c2,0,3,2.1,3,5v0.3
						h-6.2C564.9,116.7,565.9,114.4,568,114.4L568,114.4z"/>
					<path id="Fill-88" d="M577.4,119.3c-2,0.2-3.5,1.3-3.5,3.7c0,2.2,1.2,3.5,2.9,3.5c1.6,0,2.6-1.2,3.6-2.9v2.7h0.4v-7.9
						c0-2.7-1.4-4.5-3.5-4.5c-1.2,0-2.1,0.5-2.9,1.6l0.2,0.4c0.8-1,1.6-1.5,2.6-1.5c1.9,0,3.1,1.6,3.1,4.2v0.6
						C579.3,119.2,578.4,119.2,577.4,119.3L577.4,119.3z M580.3,123.1c-1,1.7-1.9,3-3.5,3c-1.5,0-2.6-1.2-2.6-3.1
						c0-2.1,1.4-3,3.1-3.3c1.1-0.1,1.9-0.1,3-0.2V123.1L580.3,123.1z"/>
					<path id="Fill-89" d="M584.4,117c0.7-1.4,1.8-2.6,3.3-2.6c1.8,0,2.7,1.6,2.7,4.1v7.8h0.4v-7.9c0-2.8-1-4.6-3-4.6
						c-1.6,0-2.7,1-3.4,2.3v-2.1H584v12.2h0.4V117"/>
					<path id="Fill-90" d="M560.8,143.1c1.6,0,2.7,0.5,4,1.7l0.2-0.4c-1.4-1.3-2.5-1.8-4.2-1.8c-3.6,0-5.5,3.7-5.5,8.8
						c0,4.7,1.8,8.1,5.2,8.1c1.9,0,3.2-0.7,4.6-2.4l-0.2-0.4c-1.3,1.6-2.5,2.3-4.3,2.3c-3.2,0-4.8-3.2-4.8-7.6
						C555.8,146.5,557.5,143.1,560.8,143.1"/>
					<path id="Fill-91" d="M567.6,153.1c0,3.6,1.4,6.3,3.9,6.3c2.5,0,3.9-2.7,3.9-6.3c0-3.5-1.4-6.2-3.9-6.2
						C569,147,567.6,149.6,567.6,153.1L567.6,153.1z M571.4,147.4c2.3,0,3.6,2.5,3.6,5.7c0,3.2-1.2,5.7-3.5,5.7
						c-2.3,0-3.6-2.5-3.6-5.8C567.9,149.9,569.2,147.4,571.4,147.4L571.4,147.4z"/>
					<path id="Fill-92" d="M579.5,149.2v-2.1h-0.4v12.2h0.4V150c0.7-1.4,1.8-2.6,3.3-2.6c1.8,0,2.7,1.6,2.7,4.1v7.8h0.4v-7.9
						c0-2.8-1-4.6-3-4.6C581.4,146.9,580.2,147.8,579.5,149.2"/>
					<path id="Fill-93" d="M593.5,159.6c1.4,0,2.5-0.8,3.2-2.4v2.2h0.4V141h-0.4v7.5c-1-1.2-2.1-1.7-3.5-1.7c-2.5,0-3.8,2.8-3.8,6.5
						C589.4,156.9,590.9,159.6,593.5,159.6L593.5,159.6z M593.3,147.3c1.4,0,2.4,0.5,3.4,1.8v7.4c-0.8,1.7-1.8,2.6-3.3,2.6
						c-2.3,0-3.6-2.5-3.6-5.9C589.8,149.8,591,147.3,593.3,147.3L593.3,147.3z"/>
					<path id="Fill-94" d="M604.3,159.5c1.2,0,2.1-0.5,2.9-1.7l-0.2-0.3c-0.8,1-1.5,1.5-2.6,1.5c-2.4,0-3.6-2.6-3.7-6h6.6v-0.6
						c0-3.2-1.1-5.6-3.3-5.6c-2.4,0-3.6,2.6-3.6,6C600.3,156.6,601.7,159.5,604.3,159.5L604.3,159.5z M603.9,147.3c2,0,3,2.1,3,5
						v0.3h-6.2C600.8,149.6,601.8,147.3,603.9,147.3L603.9,147.3z"/>
					<path id="Fill-95" d="M611.1,150c0.7-1.4,1.8-2.6,3.3-2.6c1.8,0,2.7,1.6,2.7,4.1v7.8h0.4v-7.9c0-2.8-1-4.6-3-4.6
						c-1.6,0-2.7,1-3.4,2.3v-2.1h-0.4v12.2h0.4V150"/>
					<path id="Fill-96" d="M626.8,156.4c0-1.9-1.2-2.7-2.7-3.3c-1.3-0.6-2.5-1.4-2.5-3.2c0-1.7,1-2.6,2.4-2.6c0.9,0,1.6,0.4,2.4,1
						l0.2-0.4c-0.8-0.7-1.5-1.1-2.5-1.1c-1.6,0-2.7,1.1-2.7,3c0,1.9,1.1,2.9,2.6,3.6c1.3,0.6,2.6,1.1,2.6,2.9c0,1.8-1.2,2.7-2.7,2.7
						c-1.1,0-1.9-0.4-2.9-1.3l-0.2,0.4c1,1,1.8,1.4,3,1.4C625.4,159.5,626.8,158.5,626.8,156.4"/>
					<path id="Fill-97" d="M633.6,159.5c1.2,0,2.1-0.5,2.9-1.7l-0.2-0.3c-0.8,1-1.5,1.5-2.6,1.5c-2.4,0-3.6-2.6-3.7-6h6.6v-0.6
						c0-3.2-1.1-5.6-3.3-5.6c-2.4,0-3.6,2.6-3.6,6C629.6,156.6,631,159.5,633.6,159.5L633.6,159.5z M633.2,147.3c2,0,3,2.1,3,5v0.3
						H630C630.1,149.6,631.1,147.3,633.2,147.3L633.2,147.3z"/>
					<path id="Fill-98" d="M643.8,159.6c1.4,0,2.5-0.8,3.2-2.4v2.2h0.4V141H647v7.5c-1-1.2-2.1-1.7-3.5-1.7c-2.5,0-3.8,2.8-3.8,6.5
						C639.7,156.9,641.2,159.6,643.8,159.6L643.8,159.6z M643.6,147.3c1.4,0,2.4,0.5,3.4,1.8v7.4c-0.8,1.7-1.8,2.6-3.3,2.6
						c-2.3,0-3.6-2.5-3.6-5.9C640.1,149.8,641.3,147.3,643.6,147.3L643.6,147.3z"/>
					<path id="Fill-99" d="M663.5,158.8h-7v-16h-0.4v16.5h7.4V158.8"/>
					<path id="Fill-100" d="M666.5,147.1h0.4v12.2h-0.4V147.1z"/>
					<path id="Fill-101" d="M666.5,141.2h0.4v2.3h-0.4V141.2z"/>
					<path id="Fill-102" d="M669.6,161.9c0,2.6,1.4,4.1,3.4,4.1c2.7,0.1,4.7-1.1,4.7-4.3c0-2.2-1.3-3.1-3-3.2c-0.8,0-1.4,0-2.3-0.1
						c-1,0-1.7-0.8-1.7-2.2c0-1,0.3-1.6,0.9-1.9c0.5,0.4,1.1,0.6,1.8,0.6c1.9,0,3.2-1.5,3.2-4c0-0.9-0.2-1.6-0.4-2.2h2v-0.5H676
						c-0.5-0.8-1.4-1.2-2.4-1.2c-1.9,0-3.2,1.5-3.2,4c0,1.4,0.4,2.5,1.1,3.1c-0.7,0.4-1.1,1.2-1.1,2.3c0,0.9,0.3,1.6,0.8,2
						C670.2,159.1,669.6,160.2,669.6,161.9L669.6,161.9z M670.8,151c0-2.2,1.1-3.5,2.8-3.5c1.7,0,2.8,1.3,2.8,3.5
						c0,2.2-1.1,3.5-2.8,3.5C671.9,154.4,670.8,153.1,670.8,151L670.8,151z M671.5,158.5c0.3,0.2,0.7,0.3,1,0.3c0.8,0,1.3,0,2.1,0.1
						c1.6,0.1,2.8,0.9,2.8,2.9c0,2.8-1.9,3.7-4.2,3.7c-1.9,0-3.2-1.3-3.2-3.7C670,160.3,670.5,159.2,671.5,158.5L671.5,158.5z"/>
					<path id="Fill-103" d="M680.9,149.6c0.6-1.6,1.6-2.3,3-2.3c1.8,0,3,1.6,3,4.1v7.9h0.4v-7.9c0-2.8-1.3-4.6-3.3-4.6
						c-1.4,0-2.4,0.7-3.1,2.1V141h-0.4v18.3h0.4V149.6"/>
					<path id="Fill-104" d="M692.3,155.9c0,2.1,0.7,3.5,2.1,3.5c0.7,0,1.2-0.2,1.9-0.6l-0.2-0.4c-0.6,0.4-1,0.6-1.6,0.6
						c-1.3,0-1.8-1.3-1.8-3.1v-7.5h3.9v-0.5h-3.9v-3.5l-0.4,0.3v3.2h-2.5v0.5h2.5V155.9"/>
					<path id="Fill-105" d="M880.5,226.2c-0.6,0-1.1-0.3-1.8-1.1l-0.9-1l-0.7,2.2l0.3,0.3c0.8,0.8,1.7,1.6,3.1,1.6
						c1.8,0,3.7-1.3,3.7-4.8c0-3.1-1.5-4.4-2.8-5.5l-0.1-0.1c-1.1-1-1.9-1.6-1.9-3.5c0-1.6,0.5-2.6,1.3-2.6c0.6,0,1.1,0.3,1.8,1
						l0.9,0.9l0.7-2l-0.3-0.3c-0.9-1-1.8-1.6-3-1.6c-1.9,0-3.2,1.8-3.2,4.6c0,2.8,1.4,4,2.6,5l0.1,0.1c1.2,1,2.1,1.8,2.1,3.9
						C882.3,224.2,882.1,226.2,880.5,226.2"/>
					<path id="Fill-106" d="M891.3,226.1l0.2-0.4l-1-1.9l-0.7,1.2c-0.6,1-0.9,1.1-1.3,1.1c-1,0-1.8-1.8-2-4.4h4.9v-1.3
						c0-4-1.2-6.4-3.3-6.4c-2.2,0-3.5,2.5-3.5,6.8c0,4.6,1.4,7.4,3.8,7.4C889.9,228.2,890.8,227,891.3,226.1L891.3,226.1z
						 M888.1,216c0.8,0,1.4,1.5,1.5,3.7h-3.1C886.7,217.5,887.3,216,888.1,216L888.1,216z"/>
					<path id="Fill-107" d="M896.6,227.3v0.7h1.8v-8.7c0-3.2-1.3-5.3-3.4-5.3c-1.5,0-2.4,1.1-2.9,2l-0.2,0.4l1,2l0.7-1.2
						c0.6-1,1-1.1,1.3-1.1c0.9,0,1.6,1.3,1.6,3.3c-0.5,0-1,0.1-1.6,0.2c-1,0.1-3.3,0.9-3.3,4.5c0,2.1,0.9,4.3,2.9,4.3
						C895.4,228.2,896.1,227.9,896.6,227.3L896.6,227.3z M893.5,223.9c0-2,1-2.4,1.7-2.5c0.5-0.1,0.9-0.1,1.4-0.1v2.5
						c-0.6,1.4-1.2,2.4-1.9,2.4C894,226.2,893.5,225.3,893.5,223.9L893.5,223.9z"/>
					<path id="Fill-108" d="M904.1,219.5v8.5h1.8v-8.6c0-4.6-1.9-5.3-3-5.3c-0.7,0-1.3,0.2-1.8,0.6v-0.4h-1.8V228h1.8V218
						c0.3-0.8,0.9-2,1.7-2C904,216.1,904.1,218.7,904.1,219.5"/>
					<path id="Fill-109" d="M882.7,244.7c0.8,0,1.5,0.2,2.4,1.4l0.8,1.1l0.8-2.1l-0.3-0.3c-1.2-1.5-2.2-2.1-3.7-2.1
						c-3.1,0-4.9,3.6-4.9,9.6c0,5.5,1.7,8.8,4.6,8.8c1.7,0,2.9-0.8,4.1-2.7l0.2-0.3l-1-2.1l-0.7,1.3c-0.9,1.6-1.7,1.9-2.5,1.9
						c-1.7,0-2.8-2.7-2.8-6.9C879.7,247.6,880.9,244.7,882.7,244.7"/>
					<path id="Fill-110" d="M890.7,261.1c2.3,0,3.7-2.7,3.7-7.1c0-4.2-1.5-6.9-3.7-6.9c-2.3,0-3.7,2.7-3.7,6.9
						C887,258.4,888.4,261.1,890.7,261.1L890.7,261.1z M890.6,249.1c1.1,0,2,2.1,2,5c0,2.9-0.8,5-1.9,5c-1.1,0-1.9-2.1-1.9-5.1
						C888.8,251.1,889.6,249.1,890.6,249.1L890.6,249.1z"/>
					<path id="Fill-111" d="M902.3,260.9v-8.6c0-4.6-1.9-5.3-3-5.3c-0.7,0-1.3,0.2-1.8,0.6v-0.4h-1.8v13.7h1.8V251
						c0.3-0.8,0.9-2,1.7-2c1.2,0,1.2,2.6,1.2,3.4v8.5H902.3"/>
					<path id="Fill-112" d="M910.7,260.9v-19.8h-1.8v6.3c-0.5-0.4-1.2-0.5-1.9-0.5c-2.3,0-3.6,2.7-3.6,7.3c0,4.4,1.5,7.1,3.9,7.1
						c0.6,0,1.2-0.2,1.6-0.6v0.3H910.7L910.7,260.9z M907.1,259.2c-1.1,0-1.9-2.1-1.9-5.1s0.8-5.1,1.9-5.1c0.6,0,1.2,0.2,1.8,1.2
						v7.1C908.2,259.2,907.4,259.2,907.1,259.2L907.1,259.2z"/>
					<path id="Fill-113" d="M915.3,261.2c1.5,0,2.4-1.2,2.9-2.1l0.2-0.4l-1-1.9l-0.7,1.2c-0.6,1-0.9,1.1-1.3,1.1c-1,0-1.8-1.8-2-4.4
						h4.9v-1.3c0-4-1.2-6.4-3.3-6.4c-2.2,0-3.5,2.5-3.5,6.8C911.6,258.3,913,261.2,915.3,261.2L915.3,261.2z M915,249
						c0.8,0,1.4,1.5,1.5,3.7h-3.1C913.6,250.5,914.2,249,915,249L915,249z"/>
					<path id="Fill-114" d="M921.2,251c0.3-0.8,0.9-2,1.7-2c1.2,0,1.2,2.6,1.2,3.4v8.5h1.8v-8.6c0-4.6-1.9-5.3-3-5.3
						c-0.7,0-1.3,0.2-1.8,0.6v-0.4h-1.8v13.7h1.8V251"/>
					<path id="Fill-115" d="M929.8,261.2c2.3,0,3.1-2.1,3.1-3.9c0-2.2-1.1-3.2-2.3-4c-0.9-0.6-1.5-1.1-1.5-2.5c0-0.9,0.3-1.8,1-1.8
						c0.3,0,0.6,0.1,1.2,0.8l0.9,1l0.7-2.1l-0.3-0.3c-0.6-0.7-1.4-1.3-2.4-1.3c-1.4,0-2.8,1.2-2.8,3.8c0,2.5,1.3,3.6,2.3,4.2l0.1,0
						c0.9,0.6,1.5,0.9,1.5,2.2c0,0.7-0.2,1.9-1.3,1.9c-0.5,0-0.9-0.2-1.6-1l-0.8-1l-0.9,1.9l0.3,0.4
						C927.8,260.7,928.7,261.2,929.8,261.2"/>
					<path id="Fill-116" d="M937.3,261.2c1.5,0,2.4-1.2,2.9-2.1l0.2-0.4l-1-1.9l-0.7,1.2c-0.6,1-0.9,1.1-1.3,1.1c-1,0-1.8-1.8-2-4.4
						h4.9v-1.3c0-4-1.2-6.4-3.3-6.4c-2.2,0-3.5,2.5-3.5,6.8C933.6,258.3,935,261.2,937.3,261.2L937.3,261.2z M937,249
						c0.8,0,1.4,1.5,1.5,3.7h-3.1C935.6,250.5,936.2,249,937,249L937,249z"/>
					<path id="Fill-117" d="M944.9,261.2c0.6,0,1.2-0.2,1.6-0.6v0.3h1.8v-19.8h-1.8v6.3c-0.5-0.4-1.2-0.5-1.9-0.5
						c-2.3,0-3.6,2.7-3.6,7.3C941.1,258.5,942.6,261.2,944.9,261.2L944.9,261.2z M944.8,248.9c0.6,0,1.2,0.2,1.8,1.2v7.1
						c-0.7,1.9-1.4,1.9-1.7,1.9c-1.1,0-1.9-2.1-1.9-5.1S943.7,248.9,944.8,248.9L944.8,248.9z"/>
					<path id="Fill-118" d="M954.8,253.2h1c0.1,0,0.2,0,0.3,0l3.5,7.8h2l-3.8-8.4c1.2-0.9,1.9-2.5,1.9-4.7c0-3.7-2-5-3.7-5h-3v18.1
						h1.8V253.2L954.8,253.2z M954.8,244.9h1.1c1.2,0,2,1.1,2,3c0,2-0.8,3.2-2.1,3.2h-1V244.9L954.8,244.9z"/>
					<path id="Fill-119" d="M965,261.2c1.5,0,2.4-1.2,2.9-2.1l0.2-0.4l-1-1.9l-0.7,1.2c-0.6,1-0.9,1.1-1.3,1.1c-1,0-1.8-1.8-2-4.4
						h4.9v-1.3c0-4-1.2-6.4-3.3-6.4c-2.2,0-3.5,2.5-3.5,6.8C961.3,258.3,962.7,261.2,965,261.2L965,261.2z M964.7,249
						c0.8,0,1.4,1.5,1.5,3.7h-3.1C963.3,250.5,963.9,249,964.7,249L964.7,249z"/>
					<path id="Fill-120" d="M975.8,262.6c0-3.4-2.1-3.9-3-4c-0.3,0-0.6,0-0.9,0c-0.3,0-0.5,0-0.8,0c-0.4,0-0.5-0.7-0.5-1.4
						c0-0.4,0-0.7,0.1-0.9c0.4,0.2,0.8,0.3,1.2,0.3c1.5,0,3.2-1.2,3.2-4.7c0-0.5,0-1-0.1-1.4h1.3v-2h-2c-0.5-0.8-1.3-1.2-2.2-1.2
						c-1.5,0-3.2,1.3-3.2,4.8c0,1.2,0.2,2.3,0.6,3c-0.3,0.5-0.6,1.2-0.6,2.4c0,0.8,0.1,1.4,0.4,1.9c-0.7,0.9-1,2-1,3.6
						c0,3.6,1.7,4.8,3.3,4.8c0,0,0,0,0,0c0.1,0,0.1,0,0.2,0c1.1,0,2.1-0.4,2.8-1.1C975.4,265.7,975.8,264.3,975.8,262.6L975.8,262.6
						z M971.9,249.1c1,0,1.3,1.5,1.3,2.7c0,1.3-0.4,2.7-1.4,2.7c-1,0-1.3-1.4-1.3-2.7C970.6,250.5,970.9,249.1,971.9,249.1
						L971.9,249.1z M971.6,265.6c-1.5,0-1.6-2.3-1.6-2.9c0-1,0.2-1.8,0.6-2.3c0.2,0.1,0.3,0.1,0.5,0.1c0.3,0,0.6,0,0.8,0
						c0.2,0,0.5,0,0.7,0c0.6,0.1,1.4,0.3,1.4,2.1C974,265.3,972.7,265.6,971.6,265.6L971.6,265.6z"/>
					<path id="Fill-121" d="M981.1,257.6c-0.5,1.6-1.2,1.6-1.4,1.6c-0.8,0-1.5-1.4-1.5-3.2v-8.7h-1.8v8.6c0,3.3,1.3,5.4,3.2,5.4
						c0.5,0,1-0.1,1.5-0.4v0.1h1.8v-13.7h-1.8V257.6"/>
					<path id="Fill-122" d="M984.1,241.1h1.8v19.8h-1.8V241.1z"/>
					<path id="Fill-123" d="M989.8,247c-1.5,0-2.4,1.1-2.9,2l-0.2,0.4l1,2l0.7-1.2c0.6-1,1-1.1,1.3-1.1c0.9,0,1.6,1.3,1.6,3.3
						c-0.5,0-1,0.1-1.6,0.2c-1,0.1-3.3,0.9-3.3,4.5c0,2.1,0.9,4.3,2.9,4.3c0.8,0,1.4-0.3,1.9-0.9v0.7h1.8v-8.7
						C993.1,249,991.8,247,989.8,247L989.8,247z M991.3,256.7c-0.6,1.4-1.2,2.4-1.9,2.4c-0.7,0-1.2-0.9-1.2-2.3c0-2,1-2.4,1.7-2.5
						c0.5-0.1,0.9-0.1,1.4-0.1V256.7L991.3,256.7z"/>
					<path id="Fill-124" d="M995.9,247.5v-0.3h-1.8v13.7h1.8v-10.3c0.5-1.5,1.2-1.7,1.8-1.7h0.7l0.2-2.1h-0.8
						C997.2,246.9,996.5,247,995.9,247.5"/>
					<path id="Fill-125" d="M884.5,325.7c0.6,2.8,2,4.4,3.9,4.4c1.8,0,2.7-1.3,3.3-2.3c0.6,1.6,1.8,2.3,3,2.3c0.6,0,1.1-0.2,1.5-0.4
						v0.2h2.7v-9.2c0-3.5-1.5-5.7-3.8-5.7c-1.7,0-2.7,1.3-3.3,2.2l-0.3,0.6l1.5,3l1.2-1.9c0.6-0.9,0.8-0.9,0.9-0.9
						c0.5,0,1,0.9,1.1,2.4c-0.4,0-0.7,0.1-1.2,0.1c-1.4,0.2-2.5,1-3.1,2.2v-0.8c0-4.3-1.4-6.8-3.7-6.8c-2.5,0-3.9,2.7-3.9,7.2
						c0,0,0,0.1,0,0.1c-0.5-1.5-1.5-2.4-2.6-3.3l-0.1-0.1c-1.1-0.9-1.7-1.5-1.7-3.1c0-1.3,0.4-2.2,0.9-2.2c0.4,0,0.8,0.1,1.5,0.9
						l1.4,1.4l1-2.9l-0.5-0.5c-0.8-0.8-1.8-1.7-3.4-1.7c-1.7,0-3.6,1.3-3.6,5.1c0,2.8,1.2,4.1,2.7,5.4l0.1,0.1c1.2,1,2,1.6,2,3.5
						c0,0.7-0.1,2.4-1.4,2.4c-0.4,0-0.8-0.1-1.5-0.9l-1.4-1.6l-1,3.2l0.5,0.5c0.8,0.9,1.8,1.7,3.4,1.7
						C883.1,330.1,884.3,327.9,884.5,325.7L884.5,325.7z M895.3,323.2c0.3-0.1,0.6-0.1,0.8-0.1v1.9c-0.4,0.8-1,2.1-1.4,2.1
						c-0.4,0-0.7-0.7-0.7-1.9C894,323.7,894.7,323.3,895.3,323.2L895.3,323.2z M888.1,317.9c0.3,0,0.9,0.9,1,2.8H887
						C887.2,318.7,887.8,317.9,888.1,317.9L888.1,317.9z M891.5,323.6c-0.1,0.5-0.2,1.1-0.2,1.8c0,0.2,0,0.3,0,0.5l-0.8-1.6l-1.1,2
						c-0.5,0.9-0.8,0.9-0.9,0.9c-0.5,0-1.3-1.1-1.5-3.5H891.5L891.5,323.6z"/>
					<path id="Fill-126" d="M903.7,320.9v9h2.7v-9.1c0-5-2.2-5.8-3.5-5.8c-0.4,0-0.8,0.1-1.3,0.3v-0.1h-2.7v14.6h2.7v-10.3
						c0.4-1,0.9-1.6,1.3-1.6C903.3,317.9,903.7,319,903.7,320.9"/>
					<path id="Fill-127" d="M890.7,348c-2.5,0-4.1,2.8-4.1,7.4c0,1.1,0.1,2.2,0.3,3.1l-1-2.1l-1.2,2c-0.9,1.6-1.5,1.7-2.2,1.7
						c-1.4,0-2.4-2.6-2.4-6.4c0-4.3,1-7.1,2.6-7.1c0.7,0,1.2,0.2,2,1.2l1.3,1.7l1.2-3.1l-0.4-0.5c-1.3-1.6-2.5-2.2-4.1-2.2
						c-3.4,0-5.4,3.8-5.4,10.1c0,5.8,1.9,9.3,5.1,9.3c2.3,0,3.6-1.5,4.5-3l0.2-0.3c0.7,2.1,1.9,3.2,3.5,3.2c2.6,0,4.2-2.9,4.2-7.5
						C894.9,350.9,893.2,348,890.7,348L890.7,348z M890.7,360c-0.6,0-1.5-1.6-1.5-4.6c0-2.9,0.8-4.4,1.4-4.4c0.6,0,1.5,1.6,1.5,4.5
						C892.1,358.4,891.3,360,890.7,360L890.7,360z"/>
					<path id="Fill-128" d="M899.3,347.9c-0.4,0-0.8,0.1-1.3,0.3v-0.1h-2.7v14.6h2.7v-10.3c0.4-1,0.9-1.6,1.3-1.6
						c0.4,0,0.8,1,0.8,2.9v9h2.7v-9.1C902.8,348.7,900.6,347.9,899.3,347.9"/>
					<path id="Fill-129" d="M916.3,359.2c-0.5,0.9-0.8,0.9-0.9,0.9c-0.5,0-1.2-1.1-1.5-3.5h4.9v-1.8c0-4.3-1.4-6.8-3.7-6.8
						c-2.3,0-3.7,2.4-3.9,6.4V342h-2.7v6c-0.4-0.2-0.9-0.2-1.4-0.2c-2.6,0-4.1,2.9-4.1,7.7c0,4.6,1.7,7.5,4.3,7.5
						c0.5,0,0.9-0.1,1.3-0.3h2.6v-6.7c0.2,4.4,1.7,6.9,4.2,6.9c1.8,0,2.7-1.3,3.3-2.3l0.3-0.6l-1.5-2.9L916.3,359.2L916.3,359.2z
						 M915,350.9c0.3,0,0.9,0.9,1,2.8h-2.1C914.1,351.7,914.7,350.9,915,350.9L915,350.9z M908.4,358.5c-0.5,1.6-1.1,1.6-1.3,1.6
						c-0.7,0-1.5-1.8-1.5-4.7c0-3.2,0.9-4.7,1.4-4.7c0.4,0,0.8,0.1,1.3,0.9V358.5L908.4,358.5z"/>
					<path id="Fill-130" d="M946.1,348.1c-0.4-0.2-0.9-0.2-1.4-0.2c-2.2,0-3.6,2.1-4,5.8c-0.2-3.6-1.6-5.7-3.7-5.7
						c-2.5,0-3.9,2.7-3.9,7.2c0,0.7,0,1.4,0.1,2c-0.4-1.4-1.4-2.2-2.4-2.8c-0.8-0.5-1.3-0.9-1.3-2.1c0-0.6,0.2-1.3,0.5-1.3
						c0.2,0,0.4,0,0.9,0.6l1.4,1.5l1-3.1l-0.5-0.5c-0.7-0.7-1.5-1.4-2.8-1.4c-1.6,0-3.3,1.3-3.3,4.2c0,2.7,1.4,3.9,2.5,4.6l0.1,0
						c0.9,0.6,1.3,0.8,1.3,1.9c0,1-0.3,1.4-0.8,1.4c-0.3,0-0.6-0.1-1.2-0.8l-1.2-1.6l-1,2.1v-6.2c0-5-2.2-5.8-3.5-5.8
						c-0.4,0-0.8,0.1-1.3,0.3v-0.1h-2.7v14.6h2.7v-10.3c0.4-1,0.9-1.6,1.3-1.6c0.4,0,0.8,1,0.8,2.9v9h2.7V361l0.1,0.1
						c0.6,0.9,1.6,1.9,3.3,1.9c1.7,0,3.6-1.1,3.6-4.4c0-0.1,0-0.1,0-0.2c0.6,2.9,2,4.5,3.9,4.5c1.8,0,2.7-1.3,3.3-2.3l0.3-0.6
						l-1.5-2.9l-1.1,2c-0.5,0.9-0.8,0.9-0.9,0.9c-0.5,0-1.3-1.1-1.5-3.5h4.8c0.2,4.1,1.8,6.6,4.3,6.6c0.5,0,0.9-0.1,1.3-0.3h2.6V342
						h-2.7V348.1L946.1,348.1z M935.9,353.7c0.2-2,0.8-2.8,1.1-2.8c0.3,0,0.9,0.9,1,2.8H935.9L935.9,353.7z M946.1,358.5
						c-0.5,1.6-1.1,1.6-1.3,1.6c-0.7,0-1.5-1.8-1.5-4.7c0-3.2,0.9-4.7,1.4-4.7c0.4,0,0.8,0.1,1.3,0.9V358.5L946.1,358.5z"/>
					<path id="Fill-131" d="M964.6,348c-2.4,0-3.9,2.4-4.1,6.5c-0.3-1-0.7-1.7-1.2-2.2c0.6-0.8,0.9-2,0.9-3.3c0-2.3-1-5.1-3.7-5.1
						h-3.6v19h3.6c1.1,0,2-0.4,2.8-1.2c0.8-0.8,1.3-2,1.5-3.4c0.5,2.9,1.9,4.7,3.9,4.7c2.6,0,4.2-2.9,4.2-7.5
						C968.8,350.9,967.1,348,964.6,348L964.6,348z M955.7,346.8h0.8c0.9,0,1,1.8,1,2.2c0,2-0.9,2-1.2,2h-0.6V346.8L955.7,346.8z
						 M957.4,359.5c-0.2,0.2-0.5,0.4-0.9,0.4h-0.8v-6.1h0.6c1.5,0,1.8,1.9,1.8,3.1C958.1,358.1,957.9,359,957.4,359.5L957.4,359.5z
						 M964.7,360c-0.6,0-1.5-1.6-1.5-4.6c0-2.9,0.8-4.4,1.4-4.4c0.6,0,1.5,1.6,1.5,4.5C966.1,358.4,965.3,360,964.7,360L964.7,360z"
						/>
					<path id="Fill-132" d="M968.9,342h2.7v20.8h-2.7V342z"/>
					<path id="Fill-133" d="M977.2,348.1c-0.4-0.2-0.9-0.2-1.4-0.2c-2.6,0-4.1,2.9-4.1,7.7c0,4.6,1.7,7.5,4.3,7.5
						c0.5,0,0.9-0.1,1.3-0.3h2.6V342h-2.7V348.1L977.2,348.1z M977.2,358.5c-0.5,1.6-1.1,1.6-1.3,1.6c-0.7,0-1.5-1.8-1.5-4.7
						c0-3.2,0.9-4.7,1.4-4.7c0.4,0,0.8,0.1,1.3,0.9V358.5L977.2,358.5z"/>
					<path id="Fill-134" d="M880.4,126.9c1.6,0,3.2-1.2,3.2-4.4c0-2.6-1.1-3.8-2.6-5.1l-0.1-0.1c-1.1-1-2-1.7-2-3.8
						c0-1.9,0.7-3.1,1.8-3.1c0.8,0,1.3,0.3,2.2,1.1l0.3,0.4l0.4-1l-0.1-0.1c-0.9-0.9-1.6-1.4-2.7-1.4c-1.6,0-2.7,1.6-2.7,4.2
						c0,2.4,1,3.5,2.4,4.7l0.1,0.1c1.3,1.1,2.3,1.9,2.3,4.2c0,2.1-0.9,3.3-2.3,3.3c-0.8,0-1.4-0.3-2.2-1.2l-0.4-0.4l-0.4,1.2
						l0.1,0.1C878.5,126.3,879.3,126.9,880.4,126.9"/>
					<path id="Fill-135" d="M890.9,119.5c0-3.6-1.1-5.9-2.8-5.9c-1.9,0-3,2.4-3,6.3c0,4.3,1.3,7,3.3,7c1,0,1.8-0.6,2.5-1.9l0.1-0.1
						l-0.5-1l-0.3,0.5c-0.5,0.9-1,1.4-1.7,1.4c-1.4,0-2.3-2-2.5-5.4h4.9V119.5L890.9,119.5z M886,119.3c0.1-2.9,0.9-4.6,2.1-4.6
						c1.2,0,2,1.8,2,4.6H886L886,119.3z"/>
					<path id="Fill-136" d="M896.8,118.9c-0.6,0-1.1,0.1-1.7,0.2c-1.9,0.3-2.9,1.7-2.9,4c0,2.3,1,3.8,2.5,3.8c1.1,0,1.8-0.8,2.4-1.9
						v1.6h0.9v-8.2c0-2.9-1.1-4.8-2.9-4.8c-1,0-1.7,0.5-2.5,1.8l-0.1,0.1l0.5,1l0.3-0.5c0.6-1,1.1-1.4,1.7-1.4
						c1.2,0,2.1,1.6,2.1,3.9v0.3C897,118.9,896.9,118.9,896.8,118.9L896.8,118.9z M897.1,123c-0.8,1.6-1.4,2.8-2.3,2.8
						c-1,0-1.6-1.1-1.6-2.8c0-1.7,0.7-2.7,2.1-2.9c0.6-0.1,1.1-0.1,1.7-0.2c0.1,0,0.1,0,0.2,0V123L897.1,123z"/>
					<path id="Fill-137" d="M899.8,113.8v12.8h0.9v-9.6c0.4-1.1,1.1-2.3,2.2-2.3c1.5,0,1.7,2.4,1.7,3.8v8.1h0.9v-8.2
						c0-4.2-1.6-4.9-2.5-4.9c-0.9,0-1.6,0.5-2.2,1.4v-1.1H899.8"/>
					<path id="Fill-138" d="M878.3,151.4c0,5.3,1.6,8.4,4.2,8.4c1.5,0,2.6-0.7,3.7-2.5l0.1-0.1l-0.5-1.1l-0.3,0.5
						c-0.9,1.5-1.7,2.1-2.9,2.1c-2,0-3.3-2.8-3.3-7.3c0-5,1.3-8,3.5-8c1.1,0,1.9,0.4,2.8,1.6l0.3,0.4l0.4-1.1l-0.1-0.1
						c-1.1-1.4-2-1.9-3.4-1.9C880,142.3,878.3,145.7,878.3,151.4"/>
					<path id="Fill-139" d="M887.5,153.1c0,4,1.3,6.6,3.2,6.6c2,0,3.3-2.6,3.3-6.6c0-3.9-1.3-6.5-3.3-6.5
						C888.7,146.6,887.5,149.2,887.5,153.1L887.5,153.1z M893.1,153.2c0,3.3-0.9,5.4-2.3,5.4c-1.4,0-2.4-2.2-2.4-5.5
						c0-3.2,0.9-5.3,2.3-5.3C892.1,147.7,893.1,149.9,893.1,153.2L893.1,153.2z"/>
					<path id="Fill-140" d="M897.1,147.9v-1.1h-0.9v12.8h0.9V150c0.4-1.1,1.1-2.3,2.2-2.3c1.5,0,1.7,2.4,1.7,3.8v8.1h0.9v-8.2
						c0-4.2-1.6-4.9-2.5-4.9C898.4,146.6,897.7,147,897.1,147.9"/>
					<path id="Fill-141" d="M909.3,147.6c-0.6-0.7-1.4-1.1-2.3-1.1c-2,0-3.2,2.6-3.2,6.8c0,4,1.3,6.6,3.4,6.6c0.9,0,1.6-0.4,2.1-1.3
						v1.1h0.9v-18.9h-0.9V147.6L909.3,147.6z M909.3,156.4c-0.7,2.1-1.6,2.3-2.2,2.3c-1.4,0-2.4-2.2-2.4-5.6c0-3.4,0.9-5.6,2.3-5.6
						c0.9,0,1.6,0.5,2.2,1.6V156.4L909.3,156.4z"/>
					<path id="Fill-142" d="M915.3,159.8c1,0,1.8-0.6,2.5-1.9l0.1-0.1l-0.5-1l-0.3,0.5c-0.5,0.9-1,1.4-1.7,1.4c-1.4,0-2.3-2-2.5-5.4
						h4.9v-0.9c0-3.6-1.1-5.9-2.8-5.9c-1.9,0-3,2.4-3,6.3C912,157.2,913.3,159.8,915.3,159.8L915.3,159.8z M915,147.6
						c1.2,0,2,1.8,2,4.6h-4C913.1,149.4,913.8,147.6,915,147.6L915,147.6z"/>
					<path id="Fill-143" d="M920.8,150c0.4-1.1,1.1-2.3,2.2-2.3c1.5,0,1.7,2.4,1.7,3.8v8.1h0.9v-8.2c0-4.2-1.6-4.9-2.5-4.9
						c-0.9,0-1.6,0.5-2.2,1.4v-1.1h-0.9v12.8h0.9V150"/>
					<path id="Fill-144" d="M929.8,159.8c1.3,0,2.7-0.9,2.7-3.4c0-2.1-1.1-3-2.1-3.6c-0.9-0.6-1.7-1.2-1.7-2.9
						c0-1.4,0.6-2.3,1.5-2.3c0.5,0,0.9,0.2,1.6,0.9l0.4,0.4l0.3-1.1l-0.1-0.1c-0.6-0.7-1.2-1.1-2.1-1.1c-1.4,0-2.4,1.3-2.4,3.3
						c0,2.2,1.1,3.2,2.1,3.9l0.1,0c1,0.6,1.7,1.1,1.7,2.6c0,1.5-0.6,2.3-1.7,2.3c-0.7,0-1.2-0.3-1.9-1.2l-0.3-0.4l-0.5,1l0.1,0.1
						C928.1,159.4,928.8,159.8,929.8,159.8"/>
					<path id="Fill-145" d="M937.3,159.8c1,0,1.8-0.6,2.5-1.9l0.1-0.1l-0.5-1l-0.3,0.5c-0.5,0.9-1,1.4-1.7,1.4c-1.4,0-2.3-2-2.5-5.4
						h4.9v-0.9c0-3.6-1.1-5.9-2.8-5.9c-1.9,0-3,2.4-3,6.3C934,157.2,935.3,159.8,937.3,159.8L937.3,159.8z M937,147.6
						c1.2,0,2,1.8,2,4.6h-4C935.1,149.4,935.8,147.6,937,147.6L937,147.6z"/>
					<path id="Fill-146" d="M944.9,159.9c0.9,0,1.6-0.4,2.1-1.3v1.1h0.9v-18.9H947v6.9c-0.6-0.7-1.4-1.1-2.3-1.1
						c-2,0-3.2,2.6-3.2,6.8C941.5,157.3,942.9,159.9,944.9,159.9L944.9,159.9z M944.8,147.6c0.9,0,1.6,0.5,2.2,1.6v7.3
						c-0.7,2.1-1.6,2.3-2.2,2.3c-1.4,0-2.4-2.2-2.4-5.6C942.5,149.8,943.4,147.6,944.8,147.6L944.8,147.6z"/>
					<path id="Fill-147" d="M960,158.5h-5.3v-16h-0.9v17.1h6.2V158.5"/>
					<path id="Fill-148" d="M961.7,140.9h0.9v2.9h-0.9V140.9z"/>
					<path id="Fill-149" d="M961.7,146.8h0.9v12.8h-0.9V146.8z"/>
					<path id="Fill-150" d="M964.6,156.4c0,0.8,0.2,1.5,0.5,2c-0.7,0.8-1.1,2-1.1,3.6c0,2.7,1.1,4.4,2.9,4.4c0.1,0,0.1,0,0.2,0
						c1,0,1.9-0.3,2.5-1c0.8-0.8,1.2-2,1.2-3.6c0-2.1-0.9-3.4-2.5-3.5c-0.3,0-0.6,0-0.9,0c-0.3,0-0.5,0-0.8,0c-0.6,0-1-0.7-1-1.9
						c0-0.7,0.1-1.2,0.4-1.5c0.4,0.3,0.9,0.5,1.4,0.5c1.7,0,2.7-1.6,2.7-4.3c0-0.7-0.1-1.3-0.2-1.9h1.4v-1.1h-1.8
						c-0.5-0.8-1.2-1.2-2-1.2c-1.7,0-2.7,1.7-2.7,4.3c0,1.3,0.3,2.3,0.7,3.1C964.9,154.5,964.6,155.3,964.6,156.4L964.6,156.4z
						 M965.8,158.9c0.2,0.1,0.4,0.2,0.7,0.2c0.3,0,0.5,0,0.8,0c0.2,0,0.5,0,0.8,0c1.2,0.1,1.8,1,1.8,2.6c0,2.3-1,3.4-2.9,3.4
						c-1.3,0-2.1-1.3-2.1-3.4C964.9,160.5,965.2,159.6,965.8,158.9L965.8,158.9z M967.3,147.7c1.1,0,1.8,1.2,1.8,3.2
						c0,2-0.7,3.2-1.8,3.2c-1.1,0-1.8-1.2-1.8-3.1C965.5,149,966.2,147.7,967.3,147.7L967.3,147.7z"/>
					<path id="Fill-151" d="M973.1,149.6c0.4-1.3,1-2,1.9-2c1.2,0,2,1.5,2,3.7v8.2h0.9v-8.2c0-3-1.1-5-2.8-5c-0.6,0-1.4,0.2-2,1.1
						v-6.9h-0.9v18.9h0.9V149.6"/>
					<path id="Fill-152" d="M984.7,158.9l-0.3-1.1l-0.4,0.4c-0.4,0.4-0.6,0.5-1,0.5c-0.7,0-1.1-1.1-1.1-2.8v-7.2h2.9v-1.1h-2.9v-4
						l-0.9,1v3h-1.8v1.1h1.8v7.2c0,2.4,0.7,3.9,1.9,3.9c0.7,0,1.1-0.3,1.6-0.7L984.7,158.9"/>
					<path id="Fill-153" d="M880.4,23.4c1.9,0,3.1-1.6,3.1-4.2c0-2.6-1.1-3.7-2.6-5l-0.1-0.1c-1.1-1-2.1-1.8-2.1-3.9
						c0-2,0.8-3.2,2-3.2c0.8,0,1.4,0.3,2.3,1.2l0.2,0.2l0.2-0.7l-0.1-0.1c-0.9-0.9-1.5-1.4-2.6-1.4c-1.6,0-2.6,1.6-2.6,4
						c0,2.3,1,3.4,2.3,4.6l0.1,0.1c1.3,1.1,2.4,2,2.4,4.4c0,2.2-0.9,3.5-2.4,3.5c-0.8,0-1.4-0.3-2.3-1.3l-0.2-0.2l-0.3,0.8l0.1,0.1
						C878.6,22.9,879.3,23.4,880.4,23.4"/>
					<path id="Fill-154" d="M888.4,23.4c0.9,0,1.6-0.5,2.3-1.8l0-0.1l-0.3-0.7l-0.1,0.2c-0.6,1-1.1,1.4-1.8,1.4
						c-1.5,0-2.5-2.2-2.6-5.7h4.9v-0.7c0-3.6-1-5.8-2.7-5.8c-1.8,0-2.9,2.4-2.9,6.2C885.3,20.8,886.5,23.4,888.4,23.4L888.4,23.4z
						 M888.1,11.2c1.3,0,2.1,1.9,2.1,4.8v0.1h-4.3C886,13.1,886.8,11.2,888.1,11.2L888.1,11.2z"/>
					<path id="Fill-155" d="M896.8,15.7c-0.6,0-1.1,0.1-1.7,0.2c-1,0.1-2.8,0.8-2.8,3.9c0,2.2,0.9,3.7,2.3,3.7
						c1.2,0,1.9-1.1,2.6-2.3v2.1h0.6v-8.1c0-2.8-1.1-4.7-2.8-4.7c-0.9,0-1.6,0.5-2.3,1.7l0,0.1l0.3,0.7l0.1-0.2
						c0.6-1,1.2-1.4,1.9-1.4c1.3,0,2.2,1.6,2.2,4v0.5C897.1,15.7,897,15.7,896.8,15.7L896.8,15.7z M897.2,19.7
						c-0.8,1.7-1.4,2.9-2.5,2.9c-1.1,0-1.8-1.2-1.8-3c0-1.8,0.7-2.8,2.2-3.1c0.6-0.1,1.1-0.1,1.7-0.2c0.1,0,0.2,0,0.4,0V19.7
						L897.2,19.7z"/>
					<path id="Fill-156" d="M900.5,13.7c0.4-1.1,1.1-2.5,2.3-2.5c1.6,0,1.9,2.5,1.9,4v7.9h0.6v-8c0-3-0.8-4.7-2.4-4.7
						c-1,0-1.8,0.6-2.4,1.8v-1.5h-0.6v12.5h0.6V13.7"/>
					<path id="Fill-157" d="M882.7,39.9c1.2,0,2,0.4,2.9,1.7l0.2,0.2l0.3-0.8L886,41c-1.1-1.3-2-1.8-3.2-1.8c-2.7,0-4.3,3.4-4.3,9
						c0,5.2,1.5,8.2,4,8.2c1.5,0,2.5-0.7,3.5-2.5l0-0.1l-0.3-0.7l-0.1,0.3c-0.9,1.6-1.8,2.2-3.1,2.2c-2.1,0-3.5-2.9-3.5-7.5
						C879.1,43,880.4,39.9,882.7,39.9"/>
					<path id="Fill-158" d="M887.6,49.8c0,3.9,1.2,6.5,3.1,6.5c1.9,0,3.1-2.5,3.1-6.5c0-3.8-1.2-6.3-3.1-6.3
						C888.8,43.5,887.6,46,887.6,49.8L887.6,49.8z M893.2,49.9c0,3.3-1,5.6-2.5,5.6c-1.5,0-2.5-2.3-2.5-5.7c0-3.3,1-5.5,2.4-5.5
						C892.2,44.3,893.2,46.5,893.2,49.9L893.2,49.9z"/>
					<path id="Fill-159" d="M896.9,45.2v-1.5h-0.6v12.5h0.6v-9.4c0.4-1.1,1.1-2.5,2.3-2.5c1.6,0,1.9,2.5,1.9,4v7.9h0.6v-8
						c0-3-0.8-4.7-2.4-4.7C898.3,43.4,897.5,44,896.9,45.2"/>
					<path id="Fill-160" d="M907.2,56.4c0.9,0,1.7-0.6,2.3-1.8v1.5h0.6V37.5h-0.6v7.2c-0.7-0.9-1.5-1.4-2.5-1.4c-1.9,0-3,2.5-3,6.7
						C904,53.9,905.2,56.4,907.2,56.4L907.2,56.4z M907.1,44.1c1,0,1.7,0.5,2.4,1.7v7.3c-0.6,1.7-1.3,2.5-2.3,2.5
						c-1.5,0-2.5-2.2-2.5-5.7C904.6,46.4,905.6,44.1,907.1,44.1L907.1,44.1z"/>
					<path id="Fill-161" d="M915.3,56.4c0.9,0,1.6-0.5,2.3-1.8l0-0.1l-0.3-0.7l-0.1,0.2c-0.6,1-1.1,1.4-1.8,1.4
						c-1.5,0-2.5-2.2-2.6-5.7h4.9v-0.7c0-3.6-1-5.8-2.7-5.8c-1.8,0-2.9,2.4-2.9,6.2C912.2,53.8,913.4,56.4,915.3,56.4L915.3,56.4z
						 M915,44.2c1.3,0,2.1,1.9,2.1,4.8v0.1h-4.3C912.9,46,913.7,44.2,915,44.2L915,44.2z"/>
					<path id="Fill-162" d="M920.6,46.7c0.4-1.1,1.1-2.5,2.3-2.5c1.6,0,1.9,2.5,1.9,4v7.9h0.6v-8c0-3-0.9-4.7-2.4-4.7
						c-1,0-1.8,0.6-2.4,1.8v-1.5H920v12.5h0.6V46.7"/>
					<path id="Fill-163" d="M929.8,56.4c1.6,0,2.5-1.2,2.5-3.3c0-2-1-2.8-2.1-3.4c-0.9-0.6-1.8-1.3-1.8-3.1c0-1.5,0.6-2.4,1.6-2.4
						c0.7,0,1.1,0.4,1.7,1l0.2,0.2l0.2-0.7l-0.1-0.1c-0.6-0.7-1.2-1.1-2-1.1c-1.3,0-2.2,1.2-2.2,3.2c0,2.2,1.1,3.1,2,3.7l0.1,0
						c1,0.6,1.8,1.1,1.8,2.8c0,1.6-0.7,2.5-1.9,2.5c-0.8,0-1.3-0.3-2-1.2l-0.2-0.2l-0.3,0.7l0.1,0.1
						C928.2,55.9,928.9,56.4,929.8,56.4"/>
					<path id="Fill-164" d="M937.3,56.4c0.9,0,1.6-0.5,2.3-1.8l0-0.1l-0.3-0.7l-0.1,0.2c-0.6,1-1.1,1.4-1.8,1.4
						c-1.5,0-2.5-2.2-2.6-5.7h4.9v-0.7c0-3.6-1-5.8-2.7-5.8c-1.8,0-2.9,2.4-2.9,6.2C934.2,53.8,935.4,56.4,937.3,56.4L937.3,56.4z
						 M937,44.2c1.3,0,2.1,1.9,2.1,4.8v0.1h-4.3C934.9,46,935.7,44.2,937,44.2L937,44.2z"/>
					<path id="Fill-165" d="M944.9,56.4c0.9,0,1.7-0.6,2.3-1.8v1.5h0.6V37.5h-0.6v7.2c-0.7-0.9-1.5-1.4-2.5-1.4c-1.9,0-3,2.5-3,6.7
						C941.7,53.9,943,56.4,944.9,56.4L944.9,56.4z M944.8,44.1c1,0,1.7,0.5,2.4,1.7v7.3c-0.6,1.7-1.3,2.5-2.3,2.5
						c-1.5,0-2.5-2.2-2.5-5.7C942.3,46.4,943.3,44.1,944.8,44.1L944.8,44.1z"/>
					<path id="Fill-166" d="M957.5,56.3c2.2,0,3.5-2.5,3.5-6.5V39.3h-0.6v10.5c0,3.5-1.1,5.6-2.8,5.6c-1.9,0-3-2.3-3-6V39.3H954
						v10.2C954,53.7,955.3,56.3,957.5,56.3"/>
					<path id="Fill-167" d="M963.5,37.5h0.6v18.6h-0.6V37.5z"/>
					<path id="Fill-168" d="M967.6,52.6c0,2.3,0.7,3.7,1.7,3.7c0.6,0,1-0.3,1.5-0.7l0.1-0.1l-0.2-0.7l-0.2,0.2
						c-0.4,0.4-0.7,0.6-1.1,0.6c-0.8,0-1.2-1.1-1.2-3v-7.3h2.9v-0.8h-2.9v-3.8l-0.6,0.6v3.1h-1.8v0.8h1.8V52.6"/>
					<path id="Fill-169" d="M973.7,46.4c0.5-1.5,1.3-2.2,2.4-2.2h0.1l0.1-0.8h-0.2c-1.1,0-1.9,0.6-2.4,1.7v-1.3h-0.6v12.5h0.6V46.4"
						/>
					<path id="Fill-170" d="M981.9,48.7c-0.6,0-1.1,0.1-1.7,0.2c-1,0.1-2.8,0.8-2.8,3.9c0,2.2,0.9,3.7,2.3,3.7
						c1.2,0,1.9-1.1,2.6-2.3v2.1h0.6V48c0-2.8-1.1-4.7-2.8-4.7c-0.9,0-1.6,0.5-2.3,1.7l0,0.1l0.3,0.7l0.1-0.2c0.6-1,1.2-1.4,1.9-1.4
						c1.3,0,2.2,1.6,2.2,4v0.5C982.1,48.7,982,48.7,981.9,48.7L981.9,48.7z M982.2,52.7c-0.8,1.7-1.4,2.9-2.5,2.9
						c-1.1,0-1.8-1.2-1.8-3c0-1.8,0.7-2.8,2.2-3.1c0.6-0.1,1.1-0.1,1.7-0.2c0.1,0,0.2,0,0.4,0V52.7L982.2,52.7z"/>
					<path id="Fill-171" d="M984.6,49.4h4.1v0.8h-4.1V49.4z"/>
					<path id="Fill-172" d="M996.9,55.3h-5.3v-16h-0.6v16.8h5.9V55.3"/>
					<path id="Fill-173" d="M998.9,43.6h0.6v12.5h-0.6V43.6z"/>
					<path id="Fill-174" d="M998.9,37.7h0.6v2.6h-0.6V37.7z"/>
					<path id="Fill-175" d="M1004.3,43.5c-1.6,0-2.6,1.6-2.6,4.2c0,1.3,0.3,2.4,0.8,3.1c-0.5,0.4-0.7,1.2-0.7,2.3
						c0,0.9,0.2,1.5,0.6,2c-0.8,0.7-1.2,1.9-1.2,3.6c0,2.6,1,4.2,2.7,4.2c0.1,0,0.1,0,0.2,0c1,0,1.8-0.3,2.4-0.9
						c0.8-0.8,1.1-1.9,1.1-3.5c0-2.8-1.5-3.3-2.4-3.4c-0.3,0-0.6,0-0.9,0c-0.3,0-0.5,0-0.8,0c-0.7,0-1.1-0.8-1.1-2
						c0-0.8,0.2-1.4,0.5-1.7c0.4,0.3,0.9,0.5,1.4,0.5c1.6,0,2.5-1.6,2.5-4.1c0-0.8-0.1-1.5-0.3-2h1.4v-0.8h-1.8
						C1005.8,43.9,1005.1,43.5,1004.3,43.5L1004.3,43.5z M1002.8,55.4c0.2,0.1,0.5,0.2,0.7,0.2c0.3,0,0.5,0,0.8,0c0.2,0,0.5,0,0.8,0
						c1.3,0.1,1.9,1.1,1.9,2.7c0,2.4-1,3.6-3,3.6c-1.4,0-2.2-1.4-2.2-3.6C1001.8,57.1,1002.1,56.1,1002.8,55.4L1002.8,55.4z
						 M1004.3,50.9c-1.2,0-1.9-1.3-1.9-3.3c0-2.1,0.8-3.4,2-3.4c1.2,0,1.9,1.3,1.9,3.3C1006.3,49.7,1005.5,50.9,1004.3,50.9
						L1004.3,50.9z"/>
					<path id="Fill-176" d="M1012.2,43.3c-0.7,0-1.5,0.3-2.1,1.5v-7.3h-0.6v18.6h0.6v-9.9c0.4-1.4,1.1-2.1,2.1-2.1
						c1.3,0,2.1,1.6,2.1,3.9v8.1h0.6v-8C1014.8,45.2,1013.8,43.3,1012.2,43.3"/>
					<path id="Fill-177" d="M1021.8,45.2v-0.8h-2.9v-3.8l-0.6,0.6v3.1h-1.8v0.8h1.8v7.3c0,2.3,0.7,3.7,1.7,3.7c0.6,0,1-0.3,1.5-0.7
						l0.1-0.1l-0.2-0.7l-0.2,0.2c-0.4,0.4-0.7,0.6-1.1,0.6c-0.8,0-1.2-1.1-1.2-3v-7.3H1021.8"/>
					<path id="Fill-178" d="M8.4,226.2c-1.7,0-3-0.3-4.7-1.2l-0.6-0.3l-1.2,1.8l0.8,0.4c1.7,0.8,3.3,1.4,5.7,1.4c4.3,0,7-1.9,7-4.8
						c0-3.2-3.1-4.5-5.9-5.6l-0.3-0.1c-2.5-1-4.1-1.7-4.1-3.3c0-1.9,1.9-2.6,3.7-2.6c1.9,0,3.2,0.4,4.7,1.2l0.6,0.3l1.2-1.6
						l-0.8-0.4c-1.8-0.9-3.4-1.4-5.6-1.4c-3.6,0-5.9,1.8-5.9,4.6c0,3,2.8,4.1,5.3,5.2l0.3,0.1c2.9,1.1,4.7,1.9,4.7,3.8
						C13.2,226,9.5,226.2,8.4,226.2"/>
					<path id="Fill-179" d="M25.4,228.2c2,0,3.6-0.6,5.2-1.9l0.7-0.6l-1.5-1.4l-0.5,0.4c-1.1,0.9-2.2,1.3-3.7,1.3
						c-2.8,0-4.7-1.6-5.1-4.4h10.4v-1.3c0-3.9-2.4-6.4-6.1-6.4c-4,0-6.6,2.7-6.6,6.8C18.2,225.3,21,228.2,25.4,228.2L25.4,228.2z
						 M24.6,216c2.4,0,3.9,1.4,4.1,3.7h-8.3C20.9,216.5,23.2,216,24.6,216L24.6,216z"/>
					<path id="Fill-180" d="M39.6,219.4c-5.5,0.4-6.4,3-6.4,4.5c0,2.6,2.2,4.3,5.4,4.3c2.2,0,3.7-0.8,5-1.8v1.6h2.1v-8.7
						c0-3.2-2.5-5.3-6.3-5.3c-2,0-3.6,0.6-5.2,1.8l-0.7,0.5l1.5,1.4l0.5-0.4c1.2-1,2.3-1.3,3.8-1.3c2.5,0,4.2,1.3,4.3,3.3
						c-0.1,0-0.2,0-0.3,0C42.1,219.3,41,219.3,39.6,219.4L39.6,219.4z M43.7,221.2v2.4c-1.5,1.6-2.8,2.6-4.9,2.6
						c-1.6,0-3.4-0.6-3.4-2.3c0-1.8,2.3-2.3,4.3-2.5c1.3-0.1,2.4-0.1,3.7-0.2C43.5,221.2,43.6,221.2,43.7,221.2L43.7,221.2z"/>
					<path id="Fill-181" d="M56.3,214c-1.8,0-3.4,0.5-4.7,1.4v-1.1h-2.1V228h2.1v-9.8c0.8-1,2.3-2.1,4.6-2.1c2.4,0,3.5,1.1,3.5,3.4
						v8.5h2.1v-8.6C61.9,216,59.9,214,56.3,214"/>
					<path id="Fill-182" d="M5.3,252.7h8.8v-2H5.3v-5.7h10.5v-2H3.2v18.1h13.6v-2H5.3V252.7"/>
					<path id="Fill-183" d="M20,260.9l5-5.7l5,5.7h2.7l-6.3-7.2l5.8-6.6h-2.7l-4.5,5.1l-4.5-5.1h-2.7l5.8,6.6l-6.4,7.2H20"/>
					<path id="Fill-184" d="M37,256.8c0,2.7,1.6,4.3,4.2,4.3c1.3,0,2.3-0.3,3.3-0.7l0.8-0.3l-1.1-1.7l-0.6,0.3
						c-0.9,0.4-1.5,0.5-2.3,0.5c-1.8,0-2.2-1.3-2.2-2.4V250h6.2v-2h-6.2v-4l-2.1,1.1v2.9H33v2H37V256.8"/>
					<path id="Fill-185" d="M55.2,261.2c2,0,3.6-0.6,5.2-1.9l0.7-0.6l-1.5-1.4l-0.5,0.4c-1.1,0.9-2.2,1.3-3.7,1.3
						c-2.8,0-4.7-1.6-5.1-4.4h10.4v-1.3c0-3.9-2.4-6.4-6.1-6.4c-4,0-6.6,2.7-6.6,6.8C48,258.3,50.8,261.2,55.2,261.2L55.2,261.2z
						 M54.4,249c2.4,0,3.9,1.4,4.1,3.7h-8.3C50.7,249.5,53,249,54.4,249L54.4,249z"/>
					<path id="Fill-186" d="M66.8,251.1c0.8-1,2.3-2.1,4.6-2.1c2.4,0,3.5,1.1,3.5,3.4v8.5h2.1v-8.6c0-3.4-2-5.3-5.5-5.3
						c-1.8,0-3.4,0.5-4.7,1.4v-1.1h-2.1v13.7h2.1V251.1"/>
					<path id="Fill-187" d="M88.4,261.2c1.7,0,3.2-0.4,4.4-1.3v1h2.2v-19.8h-2.2v6.9c-1.4-0.7-2.9-1.1-4.8-1.1
						c-4.2,0-6.9,2.9-6.9,7.3C81,258.4,84,261.2,88.4,261.2L88.4,261.2z M88.1,248.9c1.9,0,3.3,0.4,4.6,1.4v6.8
						c-1.1,1.4-2.5,2.1-4.6,2.1c-3.1,0-5-2-5-5.1C83.2,250.8,85,248.9,88.1,248.9L88.1,248.9z"/>
					<path id="Fill-188" d="M105.7,261.2c2,0,3.6-0.6,5.2-1.9l0.7-0.6l-1.5-1.4l-0.5,0.4c-1.1,0.9-2.2,1.3-3.7,1.3
						c-2.8,0-4.7-1.6-5.1-4.4h10.4v-1.3c0-3.9-2.4-6.4-6.1-6.4c-4,0-6.6,2.7-6.6,6.8C98.5,258.3,101.4,261.2,105.7,261.2
						L105.7,261.2z M105,249c2.4,0,3.9,1.4,4.1,3.7h-8.3C101.3,249.5,103.6,249,105,249L105,249z"/>
					<path id="Fill-189" d="M121.9,261.2c1.7,0,3.2-0.4,4.4-1.3v1h2.2v-19.8h-2.2v6.9c-1.4-0.7-2.9-1.1-4.8-1.1
						c-4.2,0-6.9,2.9-6.9,7.3C114.6,258.4,117.5,261.2,121.9,261.2L121.9,261.2z M121.7,248.9c1.9,0,3.3,0.4,4.6,1.4v6.8
						c-1.1,1.4-2.5,2.1-4.6,2.1c-3.1,0-5-2-5-5.1C116.8,250.8,118.6,248.9,121.7,248.9L121.7,248.9z"/>
					<path id="Fill-190" d="M142.2,253.2h2.9c0.5,0,0.9,0,1.3-0.1l7.6,7.8h2.9l-8-8.3c2.4-0.8,3.8-2.5,3.8-4.8c0-3-2.8-5-7.1-5h-5.5
						v18.1h2.1V253.2L142.2,253.2z M142.2,244.9h3.2c2.4,0,5,0.8,5,3c0,2.4-2.7,3.2-5.3,3.2h-3V244.9L142.2,244.9z"/>
					<path id="Fill-191" d="M164.8,261.2c2,0,3.6-0.6,5.2-1.9l0.7-0.6l-1.5-1.4l-0.5,0.4c-1.1,0.9-2.2,1.3-3.7,1.3
						c-2.8,0-4.7-1.6-5.1-4.4h10.4v-1.3c0-3.9-2.4-6.4-6.1-6.4c-4,0-6.6,2.7-6.6,6.8C157.6,258.3,160.4,261.2,164.8,261.2
						L164.8,261.2z M164.1,249c2.4,0,3.9,1.4,4.1,3.7h-8.3C160.4,249.5,162.7,249,164.1,249L164.1,249z"/>
					<path id="Fill-192" d="M173.6,251.9c0,1.2,0.4,2.2,1.2,3c-0.7,0.6-1.1,1.4-1.1,2.4c0,0.7,0.2,1.4,0.7,1.9c-1.3,0.9-2,2.1-2,3.7
						c0,3,2.4,4.8,6.2,4.8c0.1,0,0.2,0,0.4,0c3.1,0,5.5-0.7,6.7-2c0.8-0.8,1.2-1.8,1.2-3c0-2.4-2-3.8-5.5-4c-0.7,0-1.3,0-1.8,0
						c-0.6,0-1.1,0-1.8,0c-0.9,0-2-0.3-2-1.4c0-0.5,0.2-0.9,0.7-1.1c0.9,0.3,1.9,0.5,3,0.5c3.6,0,5.9-1.9,5.9-4.7
						c0-0.5-0.1-1-0.2-1.4h2.7v-2h-4.1c-1-0.8-2.4-1.2-4.2-1.2C175.9,247.1,173.6,249,173.6,251.9L173.6,251.9z M179.5,249.1
						c2.3,0,3.7,1,3.7,2.7c0,2.5-2.9,2.7-3.8,2.7c-3.4,0-3.7-2-3.7-2.7C175.8,251,176.1,249.1,179.5,249.1L179.5,249.1z
						 M176.2,260.2c0.5,0.1,1,0.2,1.6,0.2c0.6,0,1.2,0,1.7,0c0.5,0,1.1,0,1.7,0c1.7,0.1,3.7,0.5,3.7,2.1c0,2-2,3-6,3
						c-1,0-4.3-0.2-4.3-2.9C174.5,261.6,175,260.8,176.2,260.2L176.2,260.2z"/>
					<path id="Fill-193" d="M189.9,247.2v8.6c0,3.2,2.4,5.4,6,5.4c1.6,0,3-0.3,4-1v0.8h2.1v-13.7h-2.1v10.3
						c-0.8,1.1-2.1,1.7-3.9,1.7c-2.4,0-4-1.3-4-3.2v-8.7H189.9"/>
					<path id="Fill-194" d="M206.3,241.1h2.1v19.8h-2.1V241.1z"/>
					<path id="Fill-195" d="M221.8,260.9h2.1v-8.7c0-3.2-2.5-5.3-6.3-5.3c-2,0-3.6,0.6-5.2,1.8l-0.7,0.5l1.5,1.4l0.5-0.4
						c1.2-1,2.3-1.3,3.8-1.3c2.5,0,4.2,1.3,4.3,3.3c-0.1,0-0.2,0-0.3,0c-1.3,0-2.3,0.1-3.7,0.2c-5.5,0.4-6.4,3-6.4,4.5
						c0,2.6,2.2,4.3,5.4,4.3c2.2,0,3.7-0.8,5-1.8V260.9L221.8,260.9z M216.9,259.2c-1.6,0-3.4-0.6-3.4-2.3c0-1.8,2.3-2.3,4.3-2.5
						c1.3-0.1,2.4-0.1,3.7-0.2c0.1,0,0.2,0,0.3,0v2.4C220.2,258.2,219,259.2,216.9,259.2L216.9,259.2z"/>
					<path id="Fill-196" d="M229.8,250.8c1-1.2,2.5-1.8,4.7-1.8h0.6l0.4-2.1h-0.9c-1.9,0-3.5,0.4-4.8,1.3v-0.9h-2.1v13.7h2.1V250.8"
						/>
					<path id="Fill-197" d="M8.3,330.1c4.6,0,7.5-2,7.5-5.3c0-3.5-3.4-4.9-6.2-6l-0.3-0.1c-2.7-1.1-3.8-1.7-3.8-2.9
						c0-2,2.5-2.2,3.3-2.2c1.9,0,3.1,0.4,4.5,1.1l0.9,0.4l1.8-2.4l-1.3-0.6c-1.9-0.9-3.5-1.5-5.8-1.5c-3.8,0-6.4,2-6.4,5.1
						c0,3.3,3.1,4.5,5.6,5.6l0.3,0.1c2.8,1.1,4.4,1.8,4.4,3.3c0,2.2-3.3,2.4-4.3,2.4c-1.7,0-2.9-0.3-4.5-1.2l-1-0.5L1.2,328l1.3,0.6
						C4.2,329.5,5.9,330.1,8.3,330.1"/>
					<path id="Fill-198" d="M31.3,321.8c0-4.1-2.6-6.8-6.6-6.8c-4.3,0-7,2.8-7,7.2c0,4.7,3.1,7.9,7.6,7.9c2.2,0,3.8-0.6,5.5-2
						l1.1-0.9l-2.2-2l-0.8,0.7c-1,0.9-2,1.2-3.4,1.2c-3.1,0-4.2-2-4.5-3.5h10.3V321.8L31.3,321.8z M21,320.7
						c0.4-1.4,1.3-2.8,3.6-2.8c2.5,0,3.3,1.6,3.6,2.8H21L21,320.7z"/>
					<path id="Fill-199" d="M32.8,325.3c0,2.8,2.4,4.7,5.9,4.7c1.9,0,3.4-0.6,4.5-1.4v1.2h3v-9.2c0-3.4-2.7-5.7-6.8-5.7
						c-2.1,0-3.8,0.6-5.5,1.9l-1.1,0.9l2.2,2.1l0.8-0.6c1.2-0.9,2.1-1.3,3.5-1.3c1.7,0,3.4,0.6,3.8,2.4c-1.2,0-2.3,0.1-3.6,0.2
						C37.6,320.5,32.8,321.3,32.8,325.3L32.8,325.3z M43.2,323.1v1.8c-1.4,1.5-2.5,2.3-4.4,2.3c-1.4,0-2.9-0.5-2.9-1.9
						c0-1.4,2.1-1.9,3.9-2C41,323.1,42.1,323.1,43.2,323.1L43.2,323.1z"/>
					<path id="Fill-200" d="M56.3,315c-1.6,0-3,0.3-4.2,1v-0.8h-3v14.6h3v-10.1c0.8-0.9,2.1-1.8,4.1-1.8c2.1,0,3.1,0.9,3.1,2.9v9h3
						v-9.1C62.3,317.1,60.1,315,56.3,315"/>
					<path id="Fill-201" d="M17.2,361.7v-1.8H5.8v-5.3h8.8v-2.9H5.8v-4.8h10.5v-2.9H2.7v19h17.5l4.8-5.4l4.8,5.4h3.9l-6.7-7.6l6.3-7
						h-3.9L25,353l-4.3-4.8h-3.9l6.2,7L17.2,361.7"/>
					<path id="Fill-202" d="M36.5,346.2v2.8h-3.9v2.9h3.9v6.3c0,2.9,1.8,4.8,4.6,4.8c1.4,0,2.4-0.3,3.5-0.7l1.3-0.6l-1.6-2.5l-1,0.4
						c-0.8,0.4-1.3,0.5-2.1,0.5c-0.5,0-1.7,0-1.7-1.9v-6.2h6.2V349h-6.2v-4.3L36.5,346.2"/>
					<path id="Fill-203" d="M55.2,363c2.2,0,3.8-0.6,5.5-2l1.1-0.9l-2.2-2l-0.8,0.7c-1,0.9-2,1.2-3.4,1.2c-3.1,0-4.2-2-4.5-3.5h10.3
						v-1.8c0-4.1-2.6-6.8-6.6-6.8c-4.3,0-7,2.8-7,7.2C47.5,359.9,50.6,363,55.2,363L55.2,363z M54.4,350.9c2.5,0,3.3,1.6,3.6,2.8
						h-7.2C51.2,352.3,52.1,350.9,54.4,350.9L54.4,350.9z"/>
					<path id="Fill-204" d="M67.3,352.7c0.8-0.9,2.1-1.8,4.1-1.8c2.1,0,3.1,0.9,3.1,2.9v9h3v-9.1c0-3.6-2.2-5.8-6-5.8
						c-1.6,0-3,0.3-4.2,1v-0.8h-3v14.6h3V352.7"/>
					<path id="Fill-205" d="M88.4,363.1c1.5,0,2.8-0.3,3.9-1v0.7h3.1V342h-3.1v6.6c-1.3-0.5-2.7-0.8-4.4-0.8c-4.5,0-7.4,3-7.4,7.7
						C80.6,360.1,83.7,363.1,88.4,363.1L88.4,363.1z M88.1,350.8c1.7,0,3,0.4,4.2,1.2v6.4c-1,1.2-2.3,1.8-4.1,1.8
						c-2.8,0-4.5-1.7-4.5-4.7C83.7,352.5,85.3,350.8,88.1,350.8L88.1,350.8z"/>
					<path id="Fill-206" d="M105.7,363c2.2,0,3.8-0.6,5.5-2l1.1-0.9l-2.2-2l-0.8,0.7c-1,0.9-2,1.2-3.4,1.2c-3.1,0-4.2-2-4.5-3.5
						h10.3v-1.8c0-4.1-2.6-6.8-6.6-6.8c-4.3,0-7,2.8-7,7.2C98.1,359.9,101.2,363,105.7,363L105.7,363z M105,350.9
						c2.5,0,3.3,1.6,3.6,2.8h-7.2C101.7,352.3,102.6,350.9,105,350.9L105,350.9z"/>
					<path id="Fill-207" d="M121.9,363.1c1.5,0,2.8-0.3,3.9-1v0.7h3.1V342h-3.1v6.6c-1.3-0.5-2.7-0.8-4.4-0.8c-4.5,0-7.4,3-7.4,7.7
						C114.1,360.1,117.3,363.1,121.9,363.1L121.9,363.1z M121.7,350.8c1.7,0,3,0.4,4.2,1.2v6.4c-1,1.2-2.3,1.8-4.1,1.8
						c-2.8,0-4.5-1.7-4.5-4.7C117.2,352.5,118.9,350.8,121.7,350.8L121.7,350.8z"/>
					<path id="Fill-208" d="M146.6,362.8c2.8,0,5-0.8,6.4-2.2c1-1,1.5-2.3,1.4-3.8c0-2-1-3.6-2.8-4.6c1-0.8,1.5-1.9,1.5-3.3
						c0-3.1-2.5-5.1-6.5-5.1h-6.2v8.7l-0.1,0l0.1,0v10.2H146.6L146.6,362.8z M143.5,346.8h3.1c1.1,0,3.5,0.2,3.5,2.2
						c0,1.8-2.7,2-3.9,2h-2.7V346.8L143.5,346.8z M143.5,353.8h2.7c1.6,0,5.2,0.3,5.2,3.1l0,0c0,0.7-0.2,1.2-0.6,1.7
						c-0.8,0.8-2.3,1.3-4.2,1.3h-3.1V353.8L143.5,353.8z"/>
					<path id="Fill-209" d="M163.9,348c-4.4,0-7.4,3-7.4,7.4c0,4.5,3,7.5,7.4,7.5c4.5,0,7.5-3,7.5-7.5
						C171.4,351,168.4,348,163.9,348L163.9,348z M164,360c-3.3,0-4.5-2.4-4.5-4.6c0-2.1,1.1-4.4,4.3-4.4c2.8,0,4.6,1.7,4.6,4.5
						C168.4,357.6,167.3,360,164,360L164,360z"/>
					<path id="Fill-210" d="M174.4,342h3v20.8h-3V342z"/>
					<path id="Fill-211" d="M195.3,362.8V342h-3.1v6.6c-1.3-0.5-2.7-0.8-4.4-0.8c-4.5,0-7.4,3-7.4,7.7c0,4.5,3.1,7.5,7.8,7.5
						c1.5,0,2.8-0.3,3.9-1v0.7H195.3L195.3,362.8z M188.1,360.1c-2.8,0-4.5-1.7-4.5-4.7c0-2.9,1.7-4.7,4.4-4.7c1.7,0,3,0.4,4.2,1.2
						v6.4C191.2,359.6,190,360.1,188.1,360.1L188.1,360.1z"/>
					<path id="Fill-212" d="M8.3,431.2c4.8,0,7.8-2.1,7.8-5.6c0-3.7-3.5-5.2-6.3-6.3l-0.3-0.1c-2.5-1-3.6-1.6-3.6-2.6
						c0-1.7,2.3-1.9,3-1.9c1.6,0,2.7,0.3,4.4,1.1l1.1,0.5l2.1-2.9l-1.7-0.8c-1.9-0.9-3.6-1.5-6-1.5c-4,0-6.7,2.2-6.7,5.4
						c0,3.5,3.2,4.8,5.8,5.9l0.3,0.1c2.9,1.1,4.2,1.8,4.2,3c0,1.9-3.1,2.1-4,2.1c-1.6,0-2.8-0.3-4.4-1.1l-1.2-0.6l-2.1,3.1l1.6,0.8
						C4.1,430.6,5.8,431.2,8.3,431.2"/>
					<path id="Fill-213" d="M31.6,422.6c0-4.3-2.8-7.1-6.9-7.1c-4.4,0-7.3,3-7.3,7.5c0,4.9,3.2,8.2,7.9,8.2c2.2,0,4-0.6,5.7-2.1
						l1.3-1.1l-2.7-2.4l-1,0.8c-1,0.8-1.9,1.2-3.2,1.2c-1.3,0-3.4-0.4-4.2-2.9h10.3V422.6L31.6,422.6z M21.4,421.2
						c0.4-1.2,1.3-2.2,3.2-2.2c2.1,0,2.9,1.1,3.2,2.2H21.4L21.4,421.2z"/>
					<path id="Fill-214" d="M39.5,415.4c-2.2,0-4,0.6-5.7,2l-1.4,1.1l2.6,2.5l1-0.8c1.1-0.9,2-1.2,3.3-1.2c0.7,0,2.8,0.1,3.4,1.8
						c-1,0-2,0.1-3.2,0.1c-6.4,0.4-7.1,3.8-7.1,5.2c0,3,2.5,5.1,6.2,5.1c1.7,0,3.1-0.5,4.2-1.1v0.9h3.7v-9.5
						C46.6,417.9,43.7,415.4,39.5,415.4L39.5,415.4z M42.9,425.5c-1.3,1.3-2.4,2.1-4.1,2.1c-0.4,0-2.6-0.1-2.6-1.6
						c0-0.5,0.5-1.5,3.6-1.7c1.2-0.1,2.1-0.1,3.2-0.1V425.5L42.9,425.5z"/>
					<path id="Fill-215" d="M56.3,415.5c-1.4,0-2.8,0.3-3.9,0.8v-0.6h-3.7V431h3.7v-10.3c0.7-0.8,2-1.6,3.8-1.6
						c1.9,0,2.8,0.8,2.8,2.6v9.3h3.7v-9.4C62.7,417.7,60.3,415.5,56.3,415.5"/>
					<path id="Fill-216" d="M36.2,453v6c0,3.1,1.9,5.1,4.9,5.1c1.5,0,2.5-0.3,3.6-0.8l1.7-0.7l-1.9-3l-1.2,0.5
						c-0.8,0.4-1.2,0.5-2,0.5c-0.7,0-1.4-0.2-1.4-1.6V453h6.2v-3.5h-6.2V445l-3.6,1.9v2.6h-3l0.8-0.8h-4.7l-4.2,4.7l-4.1-4.7h-4.7
						l6.4,7.3l-5.1,5.7v-1.3H6.1v-4.7h8.8v-3.6H6.1v-4.2h10.5v-3.5H2.4v19.6h18l4.7-5.3l4.6,5.3h4.8l-7-7.9l4.8-5.5v2.5H36.2"/>
					<path id="Fill-217" d="M55.2,464.1c2.2,0,4-0.6,5.7-2.1l1.3-1.1l-2.7-2.4l-1,0.8c-1,0.8-1.9,1.2-3.2,1.2
						c-1.3,0-3.4-0.4-4.2-2.9h10.3v-2.1c0-4.3-2.8-7.1-6.9-7.1c-4.4,0-7.3,3-7.3,7.5C47.2,460.9,50.4,464.1,55.2,464.1L55.2,464.1z
						 M54.4,452c2.1,0,2.9,1.1,3.2,2.2h-6.4C51.6,453,52.5,452,54.4,452L54.4,452z"/>
					<path id="Fill-218" d="M77.8,463.9v-9.4c0-3.8-2.4-6.1-6.3-6.1c-1.4,0-2.8,0.3-3.9,0.8v-0.6h-3.7v15.3h3.7v-10.3
						c0.7-0.8,2-1.6,3.8-1.6c1.9,0,2.8,0.8,2.8,2.6v9.3H77.8"/>
					<path id="Fill-219" d="M95.7,463.9v-21.4H92v6.5c-1.2-0.4-2.5-0.7-4.1-0.7c-4.6,0-7.7,3.2-7.7,8c0,4.7,3.3,7.8,8.1,7.8
						c1.3,0,2.6-0.3,3.6-0.8v0.5H95.7L95.7,463.9z M88.2,460.6c-3.8,0-4.2-3-4.2-4.4c0-1.3,0.4-4.4,4.1-4.4c1.6,0,2.8,0.3,3.9,1v6.1
						C91.1,460.1,89.9,460.6,88.2,460.6L88.2,460.6z"/>
					<path id="Fill-220" d="M110,458.6l-1,0.8c-1,0.8-1.9,1.2-3.2,1.2c-1.3,0-3.4-0.4-4.2-2.9H112v-2.1c0-4.3-2.8-7.1-6.9-7.1
						c-4.4,0-7.3,3-7.3,7.5c0,4.9,3.2,8.2,7.9,8.2c2.2,0,4-0.6,5.7-2.1l1.3-1.1L110,458.6L110,458.6z M105,452
						c2.1,0,2.9,1.1,3.2,2.2h-6.4C102.2,453,103.1,452,105,452L105,452z"/>
					<path id="Fill-221" d="M125.6,449c-1.2-0.4-2.5-0.7-4.1-0.7c-4.6,0-7.7,3.2-7.7,8c0,4.7,3.3,7.8,8.1,7.8c1.3,0,2.6-0.3,3.6-0.8
						v0.5h3.7v-21.4h-3.7V449L125.6,449z M125.6,459c-0.9,1.1-2.1,1.6-3.8,1.6c-3.8,0-4.2-3-4.2-4.4c0-1.3,0.4-4.4,4.1-4.4
						c1.6,0,2.8,0.3,3.9,1V459L125.6,459z"/>
					<path id="Fill-222" d="M152.1,453c0.8-0.9,1.3-2,1.3-3.2c0-3.3-2.7-5.4-6.8-5.4h-6.6v8.7l-1.8,0.3l1.8,0.2v10.3h6.5
						c2.9,0,5.2-0.8,6.6-2.3c1-1.1,1.6-2.5,1.5-4C154.7,455.6,153.8,454,152.1,453L152.1,453z M143.8,447.9h2.8
						c2.9,0,3.2,1.3,3.2,1.9c0,0.5-0.3,1.7-3.6,1.7h-2.4V447.9L143.8,447.9z M150.6,459.2c-0.7,0.7-2.2,1.2-4,1.2h-2.8v-5.4h2.4
						c1.5,0,4.9,0.3,4.9,2.8l0,0.1C151.1,458.4,150.9,458.8,150.6,459.2L150.6,459.2z"/>
					<path id="Fill-223" d="M156.4,442.6h3.7v21.4h-3.7V442.6z"/>
					<path id="Fill-224" d="M168.5,448.4c-2.2,0-4,0.6-5.7,2l-1.4,1.1l2.6,2.5l1-0.8c1.1-0.9,2-1.2,3.3-1.2c0.7,0,2.8,0.1,3.4,1.8
						c-1,0-2,0.1-3.2,0.1c-6.4,0.4-7.1,3.8-7.1,5.2c0,3,2.5,5.1,6.2,5.1c1.7,0,3.1-0.5,4.2-1.1v0.9h3.7v-9.5
						C175.6,450.8,172.7,448.4,168.5,448.4L168.5,448.4z M171.9,458.5c-1.3,1.3-2.4,2.1-4.1,2.1c-0.4,0-2.6-0.1-2.6-1.6
						c0-0.5,0.5-1.5,3.6-1.7c1.2-0.1,2.1-0.1,3.2-0.1V458.5L171.9,458.5z"/>
					<path id="Fill-225" d="M184.8,464.1c2.2,0,4.3-0.9,5.7-2.4l1.1-1.2l-2.8-2.3l-1,1.1c-0.7,0.8-1.8,1.2-2.9,1.2
						c-3.5,0-4-2.7-4-4.2c0-1.3,0.4-4.2,4.2-4.2c1,0,1.9,0.3,2.7,0.9l1.2,0.9l2.3-2.7l-1.3-1c-1.4-1.1-3-1.6-4.9-1.6
						c-4.7,0-7.8,3.1-7.8,7.8C177.2,461,180.3,464.1,184.8,464.1"/>
					<path id="Fill-226" d="M203.9,448.4l-7.5,4.5v-10.4h-3.7v13.2l-0.2,0.1l0.2,0.1v8h3.7v-5.2l8.2,5.2h6.5l-12.8-8.1l12.2-7.5
						H203.9"/>
					<path id="Fill-227" d="M8.3,529.8c5,0,8.2-2.4,8.2-6.1c0-4.1-3.8-5.6-6.6-6.7l-0.3-0.1c-2.5-1-3.3-1.5-3.3-2.2
						c0-1.3,1.9-1.4,2.5-1.4c1.5,0,2.6,0.3,4.2,1l1.5,0.7l2.7-3.6l-2.2-1.1c-2-1-3.7-1.6-6.2-1.6c-4.3,0-7.1,2.4-7.1,5.9
						c0,3.8,3.5,5.2,6.1,6.3l0.3,0.1c2.7,1.1,3.9,1.6,3.9,2.6c0,1.6-3,1.6-3.6,1.6c-1.5,0-2.6-0.3-4.1-1.1l-1.6-0.8l-2.6,3.8l2,1
						C4,529.2,5.7,529.8,8.3,529.8"/>
					<path id="Fill-228" d="M33,520.7c0-4.5-2.9-7.6-7.3-7.6c-4.7,0-7.8,3.2-7.8,8c0,5.2,3.4,8.6,8.4,8.6c2.3,0,4.2-0.7,6-2.2
						l1.7-1.5l-3.2-2.9H33V520.7L33,520.7z M25.6,517.6c1.4,0,2.1,0.5,2.5,1.3h-5C23.5,518,24.4,517.6,25.6,517.6L25.6,517.6z
						 M29.3,524.2c-0.9,0.8-1.7,1.1-2.9,1.1c-2,0-3-0.9-3.5-2h7.5L29.3,524.2L29.3,524.2z"/>
					<path id="Fill-229" d="M50.1,529.6v-9.9c0-3.8-3.1-6.5-7.5-6.5c-2.3,0-4.2,0.6-5.9,2.1l-1.8,1.4l3.2,3.1c-2.6,1.3-3,3.5-3,4.6
						c0,3.2,2.7,5.5,6.6,5.5c1.5,0,2.7-0.3,3.8-0.8v0.6H50.1L50.1,529.6z M39.5,518.7c1-0.8,1.8-1.1,3-1.1c0.5,0,1.9,0.1,2.6,0.9
						c-0.8,0-1.5,0.1-2.4,0.1c-1.8,0.1-3.2,0.5-4.3,1L39.5,518.7L39.5,518.7z M41.8,525.4c-0.2,0-2.2,0-2.2-1.1
						c0-0.7,1.7-1.2,3.2-1.3c1-0.1,1.8-0.1,2.7-0.1v0.7C44.2,524.8,43.3,525.4,41.8,525.4L41.8,525.4z"/>
					<path id="Fill-230" d="M69.2,529.6v-9.9c0-4-2.6-6.5-6.8-6.5c-1.2,0-2.4,0.2-3.5,0.6v-0.4h-4.6v16.2H59V519
						c0.9-0.9,2-1.3,3.3-1.3c1.9,0,2.3,0.8,2.3,2.2v9.7H69.2"/>
					<path id="Fill-231" d="M6.5,554.2h8.8v-4.5H6.5v-3.3h10.5V542H1.9v20.5H18v-4.5H6.5V554.2"/>
					<path id="Fill-232" d="M40.5,546.3h-5.9l-4,4.4l-3.9-4.4h-5.9l6.8,7.8l-7.5,8.4h6l4.5-5l4.4,5h6l-7.4-8.4L40.5,546.3"/>
					<path id="Fill-233" d="M51.3,557.8c-0.7,0.3-1.1,0.4-1.8,0.4c-0.5,0-1,0-1-1.2v-5.5h6.2v-4.4h-6.2v-4.8l-4.5,2.3v2.5h-4.2v4.4
						H44v5.5c0,3.3,2.2,5.5,5.4,5.5c1.5,0,2.6-0.3,3.8-0.8l2.2-0.9l-2.4-3.8L51.3,557.8"/>
					<path id="Fill-234" d="M72.9,556.3v-2.6c0-4.5-2.9-7.6-7.3-7.6c-4.7,0-7.8,3.2-7.8,8c0,5.2,3.4,8.6,8.4,8.6
						c2.3,0,4.2-0.7,6-2.2l1.7-1.5l-3.2-2.9H72.9L72.9,556.3z M65.4,550.6c1.4,0,2.1,0.5,2.5,1.3h-5C63.4,551,64.3,550.6,65.4,550.6
						L65.4,550.6z M69.2,557.2c-0.9,0.8-1.7,1.1-2.9,1.1c-2,0-3-0.9-3.5-2h7.5L69.2,557.2L69.2,557.2z"/>
					<path id="Fill-235" d="M84.6,546.1c-1.2,0-2.4,0.2-3.5,0.6v-0.4h-4.6v16.2h4.6V552c0.9-0.9,2-1.3,3.3-1.3
						c1.9,0,2.3,0.8,2.3,2.2v9.7h4.6v-9.9C91.4,548.6,88.8,546.1,84.6,546.1"/>
					<path id="Fill-236" d="M105.6,546.5c-1.1-0.3-2.3-0.5-3.6-0.5c-4.9,0-8.1,3.4-8.1,8.5c0,5,3.4,8.3,8.6,8.3
						c1.1,0,2.2-0.2,3.2-0.5v0.2h4.6v-22.3h-4.6V546.5L105.6,546.5z M105.6,557c-0.8,0.9-1.8,1.3-3.3,1.3c-3.3,0-3.8-2.4-3.8-3.9
						c0-1.5,0.5-3.9,3.7-3.9c1.4,0,2.5,0.2,3.4,0.8V557L105.6,557z"/>
					<path id="Fill-237" d="M127.7,556.3v-2.6c0-4.5-2.9-7.6-7.3-7.6c-4.7,0-7.8,3.2-7.8,8c0,5.2,3.4,8.6,8.4,8.6
						c2.3,0,4.2-0.7,6-2.2l1.7-1.5l-3.2-2.9H127.7L127.7,556.3z M120.3,550.6c1.4,0,2.1,0.5,2.5,1.3h-5
						C118.2,551,119.1,550.6,120.3,550.6L120.3,550.6z M124,557.2c-0.9,0.8-1.7,1.1-2.9,1.1c-2,0-3-0.9-3.5-2h7.5L124,557.2
						L124,557.2z"/>
					<path id="Fill-238" d="M142.2,546.5c-1.1-0.3-2.3-0.5-3.6-0.5c-4.9,0-8.1,3.4-8.1,8.5c0,5,3.4,8.3,8.6,8.3
						c1.1,0,2.2-0.2,3.2-0.5v0.2h4.6v-22.3h-4.6V546.5L142.2,546.5z M142.2,557c-0.8,0.9-1.8,1.3-3.3,1.3c-3.3,0-3.8-2.4-3.8-3.9
						c0-1.5,0.5-3.9,3.7-3.9c1.4,0,2.5,0.2,3.4,0.8V557L142.2,557z"/>
					<path id="Fill-239" d="M173,550.9c0.6-0.9,1-1.9,1-3c0-3.6-2.8-5.9-7.2-5.9h-7v20.5h7c3,0,5.4-0.8,6.9-2.4
						c1.1-1.2,1.7-2.7,1.6-4.4C175.3,553.8,174.5,552.1,173,550.9L173,550.9z M164.4,546.5h2.3c0.8,0,2.7,0.1,2.7,1.4
						c0,1.2-2.6,1.2-3.1,1.2h-2V546.5L164.4,546.5z M170.4,557c-0.6,0.6-2,1-3.6,1h-2.4v-4.5h2c1.3,0,4.4,0.2,4.4,2.3l0,0.1
						C170.8,556.4,170.7,556.8,170.4,557L170.4,557z"/>
					<path id="Fill-240" d="M177.5,540.2h4.6v22.3h-4.6V540.2z"/>
					<path id="Fill-241" d="M192.3,546.1h-0.2c-1.8,0-3.8,0-6,1.3l-2.4,1.3l3.3,3.2l1.2-0.6c1.2-0.6,2.3-0.7,4-0.7
						c0.5,0,1.9,0.1,2.6,0.9c-0.8,0-1.5,0.1-2.4,0.1c-6.8,0.4-7.5,4.1-7.5,5.7c0,3.2,2.7,5.5,6.6,5.5c1.5,0,2.7-0.3,3.8-0.8v0.6h4.6
						v-9.9C199.9,548.8,196.8,546.1,192.3,546.1L192.3,546.1z M195.3,556.5c-1.3,1.3-2.2,1.9-3.7,1.9c-0.2,0-2.2,0-2.2-1.1
						c0-0.7,1.7-1.2,3.2-1.3c1-0.1,1.8-0.1,2.7-0.1V556.5L195.3,556.5z"/>
					<path id="Fill-242" d="M212,557.2c-0.6,0.7-1.6,1.1-2.6,1.1c-2.4,0-3.6-1.3-3.6-3.8c0-3.3,2.3-3.8,3.7-3.8
						c0.9,0,1.7,0.3,2.4,0.8l1.5,1.2l2.9-3.4l-1.6-1.3c-1.5-1.1-3.2-1.7-5.2-1.7c-5,0-8.3,3.3-8.3,8.2c0,5,3.2,8.3,8.1,8.3
						c2.3,0,4.5-0.9,6-2.5l1.4-1.5l-3.5-2.9L212,557.2"/>
					<path id="Fill-243" d="M238.5,546.1h-8.4l-6.9,4.2v-10h-4.6v22.3h4.6v-4.8l7.6,4.8h8.2l-13.5-8.5L238.5,546.1"/>
					<path id="Fill-244" d="M14.6,122.5c0-2.6-2.5-3.7-5.4-4.9c-2.6-1-4.9-1.9-4.9-4.2c0-2.1,1.8-3.4,4.5-3.4c2,0,3.4,0.4,5.1,1.2
						l0.3-0.4c-1.8-0.9-3.2-1.4-5.3-1.4c-3,0-5.1,1.4-5.1,3.9c0,2.4,2.2,3.4,4.9,4.4c2.9,1.1,5.4,2,5.4,4.6c0,2.4-2.4,3.6-5.5,3.6
						c-2,0-3.4-0.4-5.1-1.3L3,125.2c1.8,0.9,3.2,1.3,5.3,1.3C11.9,126.6,14.6,125.2,14.6,122.5"/>
					<path id="Fill-245" d="M25.4,126.6c1.9,0,3.3-0.5,4.7-1.7l-0.4-0.3c-1.2,1-2.4,1.5-4.1,1.5c-3.8,0-5.8-2.6-5.9-6h10.5v-0.6
						c0-3.2-1.8-5.6-5.3-5.6c-3.8,0-5.8,2.6-5.8,6C19,123.7,21.2,126.6,25.4,126.6L25.4,126.6z M24.6,114.4c3.2,0,4.9,2.1,4.9,5v0.3
						h-9.9C19.8,116.7,21.3,114.4,24.6,114.4L24.6,114.4z"/>
					<path id="Fill-246" d="M39.7,119.3c-3.2,0.2-5.7,1.3-5.7,3.7c0,2.2,1.9,3.5,4.6,3.5c2.6,0,4.2-1.2,5.8-2.9v2.7h0.6v-7.9
						c0-2.7-2.2-4.5-5.5-4.5c-1.9,0-3.3,0.5-4.7,1.6l0.4,0.4c1.3-1,2.5-1.5,4.2-1.5c3,0,5,1.6,5,4.2v0.6
						C42.7,119.2,41.4,119.2,39.7,119.3L39.7,119.3z M44.4,123.1c-1.6,1.7-3.1,3-5.7,3c-2.4,0-4.1-1.2-4.1-3.1c0-2.1,2.2-3,5-3.3
						c1.8-0.1,3.1-0.1,4.8-0.2V123.1L44.4,123.1z"/>
					<path id="Fill-247" d="M50.9,117c1.1-1.4,2.8-2.6,5.3-2.6c2.9,0,4.3,1.6,4.3,4.1v7.8h0.6v-7.9c0-2.8-1.5-4.6-4.8-4.6
						c-2.5,0-4.3,1-5.4,2.3v-2.1h-0.6v12.2h0.6V117"/>
					<path id="Fill-248" d="M15.1,143.2v-0.5H3.9v16.5H16v-0.5H4.5V151h8.8v-0.5H4.5v-7.3H15.1"/>
					<path id="Fill-249" d="M25,153.2l5.3,6H31l-5.7-6.4l5.2-5.8h-0.6l-4.9,5.4l-4.8-5.4h-0.6l5.1,5.8l-5.7,6.4h0.7L25,153.2"/>
					<path id="Fill-250" d="M37.7,155.9c0,2.1,1.1,3.5,3.4,3.5c1.2,0,2-0.2,3-0.6l-0.2-0.4c-0.9,0.4-1.6,0.6-2.6,0.6
						c-2,0-2.9-1.3-2.9-3.1v-7.5h6.2v-0.5h-6.2v-3.5l-0.6,0.3v3.2h-3.9v0.5h3.9V155.9"/>
					<path id="Fill-251" d="M55.2,159.5c1.9,0,3.3-0.5,4.7-1.7l-0.4-0.3c-1.2,1-2.4,1.5-4.1,1.5c-3.8,0-5.8-2.6-5.9-6h10.5v-0.6
						c0-3.2-1.8-5.6-5.3-5.6c-3.8,0-5.8,2.6-5.8,6C48.8,156.6,51,159.5,55.2,159.5L55.2,159.5z M54.4,147.3c3.2,0,4.9,2.1,4.9,5v0.3
						h-9.9C49.6,149.6,51.2,147.3,54.4,147.3L54.4,147.3z"/>
					<path id="Fill-252" d="M66.1,150c1.1-1.4,2.8-2.6,5.3-2.6c2.9,0,4.3,1.6,4.3,4.1v7.8h0.6v-7.9c0-2.8-1.5-4.6-4.8-4.6
						c-2.5,0-4.3,1-5.4,2.3v-2.1h-0.6v12.2h0.6V150"/>
					<path id="Fill-253" d="M88.4,159.6c2.3,0,4-0.8,5.1-2.4v2.2h0.6V141h-0.6v7.5c-1.6-1.2-3.3-1.7-5.6-1.7c-4.1,0-6.2,2.8-6.2,6.5
						C81.8,156.9,84.2,159.6,88.4,159.6L88.4,159.6z M88.1,147.3c2.2,0,3.9,0.5,5.4,1.8v7.4c-1.2,1.7-2.9,2.6-5.3,2.6
						c-3.7,0-5.7-2.5-5.7-5.9C82.4,149.8,84.4,147.3,88.1,147.3L88.1,147.3z"/>
					<path id="Fill-254" d="M105.7,159.5c1.9,0,3.3-0.5,4.7-1.7l-0.4-0.3c-1.2,1-2.4,1.5-4.1,1.5c-3.8,0-5.8-2.6-5.9-6h10.5v-0.6
						c0-3.2-1.8-5.6-5.3-5.6c-3.8,0-5.8,2.6-5.8,6C99.3,156.6,101.5,159.5,105.7,159.5L105.7,159.5z M105,147.3c3.2,0,4.9,2.1,4.9,5
						v0.3h-9.9C100.1,149.6,101.7,147.3,105,147.3L105,147.3z"/>
					<path id="Fill-255" d="M121.9,159.6c2.3,0,4-0.8,5.1-2.4v2.2h0.6V141h-0.6v7.5c-1.6-1.2-3.3-1.7-5.6-1.7
						c-4.1,0-6.2,2.8-6.2,6.5C115.4,156.9,117.8,159.6,121.9,159.6L121.9,159.6z M121.7,147.3c2.2,0,3.9,0.5,5.4,1.8v7.4
						c-1.2,1.7-2.9,2.6-5.3,2.6c-3.7,0-5.7-2.5-5.7-5.9C116,149.8,118,147.3,121.7,147.3L121.7,147.3z"/>
					<path id="Fill-256" d="M153.5,158.8h-11.3v-16h-0.6v16.5h11.9V158.8"/>
					<path id="Fill-257" d="M158.3,141.2h0.6v2.3h-0.6V141.2z"/>
					<path id="Fill-258" d="M158.3,147.1h0.6v12.2h-0.6V147.1z"/>
					<path id="Fill-259" d="M168.8,166c4.3,0.1,7.6-1.1,7.5-4.3c0-2.2-2-3.1-4.8-3.2c-1.3,0-2.3,0-3.6-0.1c-1.6,0-2.7-0.8-2.7-2.2
						c0-1,0.5-1.6,1.5-1.9c0.8,0.4,1.8,0.6,2.9,0.6c3.1,0,5.1-1.5,5.1-4c0-0.9-0.2-1.6-0.7-2.2h3.2v-0.5h-3.7
						c-0.9-0.8-2.2-1.2-3.9-1.2c-3.1,0-5.1,1.5-5.1,4c0,1.4,0.7,2.5,1.8,3.1c-1.1,0.4-1.7,1.2-1.7,2.3c0,0.9,0.5,1.6,1.3,2
						c-1.8,0.7-2.6,1.9-2.6,3.5C163.3,164.5,165.5,166,168.8,166L168.8,166z M165.1,151c0-2.2,1.8-3.5,4.5-3.5
						c2.7,0,4.5,1.3,4.5,3.5c0,2.2-1.8,3.5-4.5,3.5C166.9,154.4,165.1,153.1,165.1,151L165.1,151z M166.3,158.5
						c0.5,0.2,1,0.3,1.6,0.3c1.2,0,2.1,0,3.4,0.1c2.6,0.1,4.5,0.9,4.5,2.9c0,2.8-3,3.7-6.8,3.7c-3,0-5.1-1.3-5.1-3.7
						C163.9,160.3,164.7,159.2,166.3,158.5L166.3,158.5z"/>
					<path id="Fill-260" d="M181.4,149.6c1-1.6,2.6-2.3,4.8-2.3c2.9,0,4.8,1.6,4.8,4.1v7.9h0.6v-7.9c0-2.8-2.1-4.6-5.3-4.6
						c-2.2,0-3.9,0.7-4.9,2.1V141h-0.6v18.3h0.6V149.6"/>
					<path id="Fill-261" d="M199.6,155.9c0,2.1,1.1,3.5,3.4,3.5c1.2,0,2-0.2,3-0.6l-0.2-0.4c-0.9,0.4-1.6,0.6-2.6,0.6
						c-2,0-2.9-1.3-2.9-3.1v-7.5h6.2v-0.5h-6.2v-3.5l-0.6,0.3v3.2h-3.9v0.5h3.9V155.9"/>
				</g>
			</g>
		</g>
	</g>
</g>
</svg>
