<?xml version="1.0" encoding="UTF-8" standalone="no"?>
<svg width="600px" height="300px" viewBox="0 0 600 300" version="1.1" xmlns="http://www.w3.org/2000/svg" xmlns:xlink="http://www.w3.org/1999/xlink" xmlns:sketch="http://www.bohemiancoding.com/sketch/ns">
    <!-- Generator: Sketch 3.0.4 (8054) - http://www.bohemiancoding.com/sketch -->
    <title>Unknow</title>
    <desc>Created with Sketch.</desc>
    <defs></defs>
    <g id="The-CrossSkeletonPoint" stroke="none" stroke-width="1" fill="none" fill-rule="evenodd" sketch:type="MSPage">
        <g id="Unknow" sketch:type="MSArtboardGroup">
            <g id="Group" sketch:type="MSLayerGroup" transform="translate(64.000000, 61.500000)" stroke="#535353" stroke-width="2" stroke-linecap="square">
                <path d="M218.5,-1.66533454e-16 L218.5,146.013702" id="Line" sketch:type="MSShapeGroup"></path>
                <path d="M119.5,99 L317.540405,99" id="Line-2" sketch:type="MSShapeGroup"></path>
                <path d="M-0.5,99 L461.5,99" id="Line-5" stroke-dasharray="4,10" sketch:type="MSShapeGroup"></path>
                <path d="M106.674914,2.07638739 L330.367847,195.966249" id="Line-4" sketch:type="MSShapeGroup"></path>
                <path d="M168.189604,114.463868 L268.457436,83.6917311" id="Line-3" sketch:type="MSShapeGroup"></path>
            </g>
            <path d="M236.247169,160.104945 C236.247169,243.223175 257.061518,310.603814 282.737318,310.603814 C308.413118,310.603814 329.227467,243.223175 329.227467,160.104945 C329.227467,76.9867147 308.413118,9.60607586 282.737318,9.60607586 C257.061518,9.60607586 236.247169,76.9867147 236.247169,160.104945 Z" id="Oval-1" stroke="#979797" sketch:type="MSShapeGroup" transform="translate(282.448825, 160.134054) rotate(311.000000) translate(-282.448825, -160.134054) "></path>
            <text id="?" sketch:type="MSTextLayer" font-family="Optima" font-size="120" font-weight="normal" fill="#000000">
                <tspan x="482" y="149">?</tspan>
            </text>
            <text id="?" sketch:type="MSTextLayer" font-family="Helvetica Neue" font-size="12" font-weight="260" sketch:alignment="middle" fill="#000000">
                <tspan x="503.778" y="181.5">?</tspan>
            </text>
        </g>
    </g>
</svg>