<?xml version="1.0" encoding="utf-8"?>
<!-- Generator: Adobe Illustrator 16.0.0, SVG Export Plug-In . SVG Version: 6.00 Build 0)  -->
<svg version="1.2" baseProfile="tiny" xmlns="http://www.w3.org/2000/svg" xmlns:xlink="http://www.w3.org/1999/xlink" x="0px"
	 y="0px" width="630px" height="773.667px" viewBox="0 0 630 773.667" xml:space="preserve">
<g id="Background">
	<rect x="0" y="-0.446" fill="#F3F6F5" width="629.998" height="360"/>
	<rect x="483.998" y="629.167" fill="#F3F6F5" width="56.482" height="54.161"/>
	<rect x="544.457" y="629.167" fill="#DEE3F1" width="56.48" height="54.161"/>
	<rect x="483.998" y="687.04" fill="#FDD9D7" width="56.482" height="54.162"/>
	<rect x="544.457" y="687.04" fill="#FFF4CE" width="56.48" height="54.162"/>
</g>
<g id="Layer_2">
</g>
<g id="Layer_1">
	<image width="105" height="105" xlink:href="89F50FCE79DAC573.png"  transform="matrix(0.24 0 0 0.24 22.1665 467.499)">
	</image>
	<path fill="#58595B" d="M490.084,305.753c0,0,0-215.395,0-235.91c0-33.334-20.379-32.692-20.379-32.692s81.279-1.604,81.279,69.871
		c0,71.804,0,198.731,0,198.731H490.084z"/>
	<path fill="#58595B" d="M137.182,296.939c0,0-47.225-60.032,29.254-139.59c48.762-49.789,54.409-55.95,71.605-73.914
		c17.191-17.964,21.814-30.281,18.477-36.442c-3.338-6.159-12.576-8.212-16.684-8.212c0,0,18.785,0.162,30.322,13.839
		c14.379,17.04,20.812,51.213-4.145,80.604c-38.439,45.279-105.432,122.206-121.779,140.797
		C129.383,290.795,134.93,293.735,137.182,296.939z"/>
	<path fill="none" stroke="#000000" stroke-width="0.5" stroke-miterlimit="10" d="M124.68,107.021
		c28.207-28.847,78.852-67.95,113.469-67.95c16.668,0,31.412,10.259,31.412,22.438c0,21.155-3.846,31.412-59.617,92.312
		c-60.32,65.862-112.828,151.932-46.158,151.932c44.873,0,150.168-135.415,192.318-178.212
		c42.15-42.801,75.644-90.392,114.107-90.392c38.465,0,52.566,36.54,52.566,73.081c0,36.54,0,195.519,0,195.519"/>
	
		<line fill="none" stroke="#000000" stroke-width="0.5" stroke-miterlimit="10" x1="550.984" y1="105.102" x2="490.084" y2="69.843"/>
	
		<line fill="none" stroke="#000000" stroke-width="0.5" stroke-miterlimit="10" x1="550.984" y1="305.753" x2="490.084" y2="305.753"/>
	
		<line fill="none" stroke="#000000" stroke-width="0.5" stroke-miterlimit="10" x1="327.465" y1="437.218" x2="398.797" y2="437.218"/>
	
		<line fill="none" stroke="#000000" stroke-width="0.5" stroke-miterlimit="10" x1="362.333" y1="406.767" x2="362.333" y2="467.667"/>
	<image width="107" height="99" xlink:href="89F50FCE79DAC571.png"  transform="matrix(0.24 0 0 0.24 185.4009 173.3911)">
	</image>
	<image width="877" height="958" xlink:href="89F50FCE79DAC577.png"  transform="matrix(0.24 0 0 0.24 85.1421 60.7002)">
	</image>
	<image width="83" height="79" xlink:href="89F50FCE79DAC570.png"  transform="matrix(0.24 0 0 0.24 167.2256 156.187)">
	</image>
	<path fill="none" stroke="#FFFFFF" stroke-width="0.5244" stroke-miterlimit="10" d="M170.094,176.942"/>
	<rect x="324.543" y="182.901" fill="none" width="69.457" height="26.099"/>
	<text transform="matrix(1 0 0 1 324.5435 192.0454)" fill="#231F20" font-family="'Roboto-Regular'" font-size="12">S</text>
	<text transform="matrix(1 0 0 1 332.7241 192.0454)" fill="#231F20" font-family="'Roboto-Regular'" font-size="12">k</text>
	<text transform="matrix(1 0 0 1 339.3506 192.0454)" fill="#231F20" font-family="'Roboto-Regular'" font-size="12">e</text>
	<text transform="matrix(1 0 0 1 346.4595 192.0454)" fill="#231F20" font-family="'Roboto-Regular'" font-size="12">l</text>
	<text transform="matrix(1 0 0 1 350.1802 192.0454)" fill="#231F20" font-family="'Roboto-Regular'" font-size="12">e</text>
	<text transform="matrix(1 0 0 1 357.3022 192.0454)" fill="#231F20" font-family="'Roboto-Regular'" font-size="12">t</text>
	<text transform="matrix(1 0 0 1 361.8804 192.0454)" fill="#231F20" font-family="'Roboto-Regular'" font-size="12">o</text>
	<text transform="matrix(1 0 0 1 369.4448 192.0454)" fill="#231F20" font-family="'Roboto-Regular'" font-size="12">n</text>
	<rect x="296.819" y="28.015" fill="none" width="102.182" height="36.985"/>
	<text transform="matrix(1 0 0 1 296.8188 37.1587)" fill="#231F20" font-family="'Roboto-Regular'" font-size="12">P</text>
	<text transform="matrix(1 0 0 1 305.0869 37.1587)" fill="#231F20" font-family="'Roboto-Regular'" font-size="12">e</text>
	<text transform="matrix(1 0 0 1 312.2334 37.1587)" fill="#231F20" font-family="'Roboto-Regular'" font-size="12">n</text>
	<text transform="matrix(1 0 0 1 319.7734 37.1587)" fill="#231F20" font-family="'Roboto-Regular'" font-size="12"> </text>
	<text transform="matrix(1 0 0 1 323.4761 37.1587)" fill="#231F20" font-family="'Roboto-Regular'" font-size="12">o</text>
	<text transform="matrix(1 0 0 1 330.8545 37.1587)" fill="#231F20" font-family="'Roboto-Regular'" font-size="12">f</text>
	<text transform="matrix(1 0 0 1 335.9448 37.1587)" fill="#231F20" font-family="'Roboto-Regular'" font-size="12">f</text>
	<rect x="34.261" y="313.517" fill="none" width="91.239" height="37.482"/>
	<text transform="matrix(1 0 0 1 34.2612 322.6621)" fill="#231F20" font-family="'Roboto-Regular'" font-size="12">P</text>
	<text transform="matrix(1 0 0 1 42.5293 322.6621)" fill="#231F20" font-family="'Roboto-Regular'" font-size="12">e</text>
	<text transform="matrix(1 0 0 1 49.6758 322.6621)" fill="#231F20" font-family="'Roboto-Regular'" font-size="12">n</text>
	<text transform="matrix(1 0 0 1 57.2158 322.6621)" fill="#231F20" font-family="'Roboto-Regular'" font-size="12"> </text>
	<text transform="matrix(1 0 0 1 60.9185 322.6621)" fill="#231F20" font-family="'Roboto-Regular'" font-size="12">o</text>
	<text transform="matrix(1 0 0 1 68.4829 322.6621)" fill="#231F20" font-family="'Roboto-Regular'" font-size="12">n</text>
	<rect x="61.761" y="475.517" fill="none" width="91.239" height="37.482"/>
	<text transform="matrix(1 0 0 1 61.7612 484.6621)" fill="#231F20" font-family="'Roboto-Regular'" font-size="12">5</text>
	<text transform="matrix(1 0 0 1 69.2539 484.6621)" fill="#231F20" font-family="'Roboto-Regular'" font-size="12">0</text>
	<text transform="matrix(1 0 0 1 76.7427 484.6621)" fill="#231F20" font-family="'Roboto-Regular'" font-size="12">%</text>
	<rect x="501.76" y="528.851" fill="none" width="91.24" height="37.482"/>
	<text transform="matrix(1 0 0 1 501.7598 537.9961)" fill="#231F20" font-family="'Roboto-Regular'" font-size="12">0</text>
	<text transform="matrix(1 0 0 1 509.0469 537.9961)" fill="#231F20" font-family="'Roboto-Regular'" font-size="12">.</text>
	<text transform="matrix(1 0 0 1 512.6992 537.9961)" fill="#231F20" font-family="'Roboto-Regular'" font-size="12">5</text>
	<text transform="matrix(1 0 0 1 520.1504 537.9961)" fill="#231F20" font-family="'Roboto-Regular'" font-size="12">p</text>
	<text transform="matrix(1 0 0 1 527.625 537.9961)" fill="#231F20" font-family="'Roboto-Regular'" font-size="12">t</text>
	<rect x="18.261" y="256.018" fill="none" width="91.239" height="37.482"/>
	<text transform="matrix(1 0 0 1 18.2612 265.1616)" fill="#231F20" font-family="'Roboto-Regular'" font-size="12">a</text>
	<text transform="matrix(1 0 0 1 25.5537 265.1616)" fill="#231F20" font-family="'Roboto-Regular'" font-size="12">c</text>
	<text transform="matrix(1 0 0 1 32.7603 265.1616)" fill="#231F20" font-family="'Roboto-Regular'" font-size="12">t</text>
	<text transform="matrix(1 0 0 1 37.4707 265.1616)" fill="#231F20" font-family="'Roboto-Regular'" font-size="12">i</text>
	<text transform="matrix(1 0 0 1 41.1802 265.1616)" fill="#231F20" font-family="'Roboto-Regular'" font-size="12">v</text>
	<text transform="matrix(1 0 0 1 47.7339 265.1616)" fill="#231F20" font-family="'Roboto-Regular'" font-size="12">e</text>
	<text transform="matrix(1 0 0 1 54.7998 265.1616)" fill="#231F20" font-family="'Roboto-Regular'" font-size="12"> </text>
	<text transform="matrix(1 0 0 1 58.502 265.1616)" fill="#231F20" font-family="'Roboto-Regular'" font-size="12">p</text>
	<text transform="matrix(1 0 0 1 66.0688 265.1616)" fill="#231F20" font-family="'Roboto-Regular'" font-size="12">o</text>
	<text transform="matrix(1 0 0 1 73.5957 265.1616)" fill="#231F20" font-family="'Roboto-Regular'" font-size="12">i</text>
	<text transform="matrix(1 0 0 1 77.314 265.1616)" fill="#231F20" font-family="'Roboto-Regular'" font-size="12">n</text>
	<text transform="matrix(1 0 0 1 84.8062 265.1616)" fill="#231F20" font-family="'Roboto-Regular'" font-size="12">t</text>
	<rect x="22.094" y="517.35" fill="none" width="241.906" height="61.482"/>
	<text transform="matrix(1 0 0 1 22.0952 526.4941)" fill="#231F20" font-family="'Roboto-Regular'" font-size="12">a</text>
	<text transform="matrix(1 0 0 1 29.4189 526.4941)" fill="#231F20" font-family="'Roboto-Regular'" font-size="12">n</text>
	<text transform="matrix(1 0 0 1 36.9761 526.4941)" fill="#231F20" font-family="'Roboto-Regular'" font-size="12">n</text>
	<text transform="matrix(1 0 0 1 44.502 526.4941)" fill="#231F20" font-family="'Roboto-Regular'" font-size="12">o</text>
	<text transform="matrix(1 0 0 1 51.9463 526.4941)" fill="#231F20" font-family="'Roboto-Regular'" font-size="12">t</text>
	<text transform="matrix(1 0 0 1 56.6982 526.4941)" fill="#231F20" font-family="'Roboto-Regular'" font-size="12">a</text>
	<text transform="matrix(1 0 0 1 63.9761 526.4941)" fill="#231F20" font-family="'Roboto-Regular'" font-size="12">t</text>
	<text transform="matrix(1 0 0 1 68.6865 526.4941)" fill="#231F20" font-family="'Roboto-Regular'" font-size="12">i</text>
	<text transform="matrix(1 0 0 1 72.4131 526.4941)" fill="#231F20" font-family="'Roboto-Regular'" font-size="12">o</text>
	<text transform="matrix(1 0 0 1 79.9771 526.4941)" fill="#231F20" font-family="'Roboto-Regular'" font-size="12">n</text>
	<text transform="matrix(1 0 0 1 87.436 526.4941)" fill="#231F20" font-family="'Roboto-Regular'" font-size="12">s</text>
	<text transform="matrix(1 0 0 1 22.0952 540.8945)" fill="#231F20" font-family="'Roboto-Regular'" font-size="12">1</text>
	<text transform="matrix(1 0 0 1 28.5737 540.8945)" fill="#231F20" font-family="'Roboto-Regular'" font-size="12">2</text>
	<text transform="matrix(1 0 0 1 35.9873 540.8945)" fill="#231F20" font-family="'Roboto-Regular'" font-size="12">p</text>
	<text transform="matrix(1 0 0 1 43.4653 540.8945)" fill="#231F20" font-family="'Roboto-Regular'" font-size="12">t</text>
	<text transform="matrix(1 0 0 1 48.3335 540.8945)" fill="#231F20" font-family="'Roboto-Regular'" font-size="12"> </text>
	<text transform="matrix(1 0 0 1 52.0361 540.8945)" fill="#231F20" font-family="'Roboto-Regular'" font-size="12">R</text>
	<text transform="matrix(1 0 0 1 60.5884 540.8945)" fill="#231F20" font-family="'Roboto-Regular'" font-size="12">o</text>
	<text transform="matrix(1 0 0 1 68.1528 540.8945)" fill="#231F20" font-family="'Roboto-Regular'" font-size="12">b</text>
	<text transform="matrix(1 0 0 1 75.7173 540.8945)" fill="#231F20" font-family="'Roboto-Regular'" font-size="12">o</text>
	<text transform="matrix(1 0 0 1 83.1616 540.8945)" fill="#231F20" font-family="'Roboto-Regular'" font-size="12">t</text>
	<text transform="matrix(1 0 0 1 88.0298 540.8945)" fill="#231F20" font-family="'Roboto-Regular'" font-size="12"> </text>
	<text transform="matrix(1 0 0 1 91.7324 540.8945)" fill="#231F20" font-family="'Roboto-Regular'" font-size="12">R</text>
	<text transform="matrix(1 0 0 1 100.2788 540.8945)" fill="#231F20" font-family="'Roboto-Regular'" font-size="12">e</text>
	<text transform="matrix(1 0 0 1 107.3945 540.8945)" fill="#231F20" font-family="'Roboto-Regular'" font-size="12">g</text>
	<text transform="matrix(1 0 0 1 114.959 540.8945)" fill="#231F20" font-family="'Roboto-Regular'" font-size="12">u</text>
	<text transform="matrix(1 0 0 1 122.4775 540.8945)" fill="#231F20" font-family="'Roboto-Regular'" font-size="12">l</text>
	<text transform="matrix(1 0 0 1 126.1445 540.8945)" fill="#231F20" font-family="'Roboto-Regular'" font-size="12">a</text>
	<text transform="matrix(1 0 0 1 133.4683 540.8945)" fill="#231F20" font-family="'Roboto-Regular'" font-size="12">r</text>
	<rect x="22.094" y="610.016" fill="none" width="241.906" height="61.482"/>
	<text transform="matrix(1 0 0 1 22.0952 619.1602)" fill="#231F20" font-family="'Roboto-Regular'" font-size="12">f</text>
	<text transform="matrix(1 0 0 1 27.084 619.1602)" fill="#231F20" font-family="'Roboto-Regular'" font-size="12">i</text>
	<text transform="matrix(1 0 0 1 30.7515 619.1602)" fill="#231F20" font-family="'Roboto-Regular'" font-size="12">l</text>
	<text transform="matrix(1 0 0 1 34.4194 619.1602)" fill="#231F20" font-family="'Roboto-Regular'" font-size="12">l</text>
	<rect x="158.761" y="732.016" fill="none" width="241.906" height="61.482"/>
	<text transform="matrix(1 0 0 1 158.7617 741.1602)" fill="#231F20" font-family="'Roboto-Regular'" font-size="12">o</text>
	<text transform="matrix(1 0 0 1 166.062 741.1602)" fill="#231F20" font-family="'Roboto-Regular'" font-size="12">v</text>
	<text transform="matrix(1 0 0 1 172.6157 741.1602)" fill="#231F20" font-family="'Roboto-Regular'" font-size="12">e</text>
	<text transform="matrix(1 0 0 1 179.7617 741.1602)" fill="#231F20" font-family="'Roboto-Regular'" font-size="12">r</text>
	<text transform="matrix(1 0 0 1 184.6465 741.1602)" fill="#231F20" font-family="'Roboto-Regular'" font-size="12">l</text>
	<text transform="matrix(1 0 0 1 188.313 741.1602)" fill="#231F20" font-family="'Roboto-Regular'" font-size="12">a</text>
	<text transform="matrix(1 0 0 1 195.6367 741.1602)" fill="#231F20" font-family="'Roboto-Regular'" font-size="12">p</text>
	<text transform="matrix(1 0 0 1 203.2178 741.1602)" fill="#231F20" font-family="'Roboto-Regular'" font-size="12">p</text>
	<text transform="matrix(1 0 0 1 210.7451 741.1602)" fill="#231F20" font-family="'Roboto-Regular'" font-size="12">i</text>
	<text transform="matrix(1 0 0 1 214.4634 741.1602)" fill="#231F20" font-family="'Roboto-Regular'" font-size="12">n</text>
	<text transform="matrix(1 0 0 1 222.0034 741.1602)" fill="#231F20" font-family="'Roboto-Regular'" font-size="12">g</text>
	<text transform="matrix(1 0 0 1 229.5439 741.1602)" fill="#231F20" font-family="'Roboto-Regular'" font-size="12"> </text>
	<text transform="matrix(1 0 0 1 233.2466 741.1602)" fill="#231F20" font-family="'Roboto-Regular'" font-size="12">s</text>
	<text transform="matrix(1 0 0 1 240.2417 741.1602)" fill="#231F20" font-family="'Roboto-Regular'" font-size="12">h</text>
	<text transform="matrix(1 0 0 1 247.728 741.1602)" fill="#231F20" font-family="'Roboto-Regular'" font-size="12">a</text>
	<text transform="matrix(1 0 0 1 255.0518 741.1602)" fill="#231F20" font-family="'Roboto-Regular'" font-size="12">p</text>
	<text transform="matrix(1 0 0 1 262.6123 741.1602)" fill="#231F20" font-family="'Roboto-Regular'" font-size="12">e</text>
	<text transform="matrix(1 0 0 1 269.6255 741.1602)" fill="#231F20" font-family="'Roboto-Regular'" font-size="12">s</text>
	<text transform="matrix(1 0 0 1 276.4443 741.1602)" fill="#231F20" font-family="'Roboto-Regular'" font-size="12">:</text>
	<text transform="matrix(1 0 0 1 280.1938 741.1602)" fill="#231F20" font-family="'Roboto-Regular'" font-size="12"> </text>
	<text transform="matrix(1 0 0 1 283.896 741.1602)" fill="#231F20" font-family="'Roboto-Regular'" font-size="12">S</text>
	<text transform="matrix(1 0 0 1 292.0459 741.1602)" fill="#231F20" font-family="'Roboto-Regular'" font-size="12">V</text>
	<text transform="matrix(1 0 0 1 300.1699 741.1602)" fill="#231F20" font-family="'Roboto-Regular'" font-size="12">G</text>
	<text transform="matrix(1 0 0 1 309.0698 741.1602)" fill="#231F20" font-family="'Roboto-Regular'" font-size="12"> </text>
	<text transform="matrix(1 0 0 1 312.772 741.1602)" fill="#231F20" font-family="'Roboto-Regular'" font-size="12">d</text>
	<text transform="matrix(1 0 0 1 320.3125 741.1602)" fill="#231F20" font-family="'Roboto-Regular'" font-size="12">r</text>
	<text transform="matrix(1 0 0 1 325.0591 741.1602)" fill="#231F20" font-family="'Roboto-Regular'" font-size="12">o</text>
	<text transform="matrix(1 0 0 1 332.6235 741.1602)" fill="#231F20" font-family="'Roboto-Regular'" font-size="12">p</text>
	<text transform="matrix(1 0 0 1 340.1641 741.1602)" fill="#231F20" font-family="'Roboto-Regular'" font-size="12"> </text>
	<text transform="matrix(1 0 0 1 343.8662 741.1602)" fill="#231F20" font-family="'Roboto-Regular'" font-size="12">s</text>
	<text transform="matrix(1 0 0 1 350.8618 741.1602)" fill="#231F20" font-family="'Roboto-Regular'" font-size="12">h</text>
	<text transform="matrix(1 0 0 1 358.3481 741.1602)" fill="#231F20" font-family="'Roboto-Regular'" font-size="12">a</text>
	<text transform="matrix(1 0 0 1 365.6406 741.1602)" fill="#231F20" font-family="'Roboto-Regular'" font-size="12">d</text>
	<text transform="matrix(1 0 0 1 373.1807 741.1602)" fill="#231F20" font-family="'Roboto-Regular'" font-size="12">o</text>
	<text transform="matrix(1 0 0 1 380.5518 741.1602)" fill="#231F20" font-family="'Roboto-Regular'" font-size="12">w</text>
	<rect x="320.761" y="540.683" fill="none" width="241.906" height="61.482"/>
	<text transform="matrix(1 0 0 1 320.7617 549.8281)" fill="#231F20" font-family="'Roboto-Regular'" font-size="12">s</text>
	<text transform="matrix(1 0 0 1 327.8013 549.8281)" fill="#231F20" font-family="'Roboto-Regular'" font-size="12">t</text>
	<text transform="matrix(1 0 0 1 332.5596 549.8281)" fill="#231F20" font-family="'Roboto-Regular'" font-size="12">r</text>
	<text transform="matrix(1 0 0 1 337.3066 549.8281)" fill="#231F20" font-family="'Roboto-Regular'" font-size="12">o</text>
	<text transform="matrix(1 0 0 1 344.8647 549.8281)" fill="#231F20" font-family="'Roboto-Regular'" font-size="12">k</text>
	<text transform="matrix(1 0 0 1 351.4912 549.8281)" fill="#231F20" font-family="'Roboto-Regular'" font-size="12">e</text>
	<rect x="42.209" y="148.481" fill="none" width="143.165" height="38.019"/>
	<text transform="matrix(1 0 0 1 84.1445 157.6255)" fill="#231F20" font-family="'Roboto-Regular'" font-size="12">P</text>
	<text transform="matrix(1 0 0 1 92.4126 157.6255)" fill="#231F20" font-family="'Roboto-Regular'" font-size="12">e</text>
	<text transform="matrix(1 0 0 1 99.5591 157.6255)" fill="#231F20" font-family="'Roboto-Regular'" font-size="12">n</text>
	<text transform="matrix(1 0 0 1 107.0991 157.6255)" fill="#231F20" font-family="'Roboto-Regular'" font-size="12"> </text>
	<text transform="matrix(1 0 0 1 110.8018 157.6255)" fill="#231F20" font-family="'Roboto-Regular'" font-size="12">w</text>
	<text transform="matrix(1 0 0 1 120.564 157.6255)" fill="#231F20" font-family="'Roboto-Regular'" font-size="12">i</text>
	<text transform="matrix(1 0 0 1 124.2905 157.6255)" fill="#231F20" font-family="'Roboto-Regular'" font-size="12">d</text>
	<text transform="matrix(1 0 0 1 131.8608 157.6255)" fill="#231F20" font-family="'Roboto-Regular'" font-size="12">t</text>
	<text transform="matrix(1 0 0 1 136.6191 157.6255)" fill="#231F20" font-family="'Roboto-Regular'" font-size="12">h</text>
	<rect x="-9.708" y="181.981" fill="none" width="155.709" height="33.686"/>
	<text transform="matrix(1 0 0 1 50.2368 191.125)" fill="#231F20" font-family="'Roboto-Regular'" font-size="12">a</text>
	<text transform="matrix(1 0 0 1 57.5293 191.125)" fill="#231F20" font-family="'Roboto-Regular'" font-size="12">c</text>
	<text transform="matrix(1 0 0 1 64.7358 191.125)" fill="#231F20" font-family="'Roboto-Regular'" font-size="12">t</text>
	<text transform="matrix(1 0 0 1 69.4463 191.125)" fill="#231F20" font-family="'Roboto-Regular'" font-size="12">i</text>
	<text transform="matrix(1 0 0 1 73.1558 191.125)" fill="#231F20" font-family="'Roboto-Regular'" font-size="12">v</text>
	<text transform="matrix(1 0 0 1 79.7095 191.125)" fill="#231F20" font-family="'Roboto-Regular'" font-size="12">e</text>
	<text transform="matrix(1 0 0 1 86.7754 191.125)" fill="#231F20" font-family="'Roboto-Regular'" font-size="12"> </text>
	<text transform="matrix(1 0 0 1 28.2544 205.5249)" fill="#231F20" font-family="'Roboto-Regular'" font-size="12">p</text>
	<text transform="matrix(1 0 0 1 35.8149 205.5249)" fill="#231F20" font-family="'Roboto-Regular'" font-size="12">e</text>
	<text transform="matrix(1 0 0 1 42.9614 205.5249)" fill="#231F20" font-family="'Roboto-Regular'" font-size="12">n</text>
	<text transform="matrix(1 0 0 1 50.5015 205.5249)" fill="#231F20" font-family="'Roboto-Regular'" font-size="12"> </text>
	<text transform="matrix(1 0 0 1 54.2041 205.5249)" fill="#231F20" font-family="'Roboto-Regular'" font-size="12">c</text>
	<text transform="matrix(1 0 0 1 61.3267 205.5249)" fill="#231F20" font-family="'Roboto-Regular'" font-size="12">o</text>
	<text transform="matrix(1 0 0 1 68.8911 205.5249)" fill="#231F20" font-family="'Roboto-Regular'" font-size="12">m</text>
	<text transform="matrix(1 0 0 1 80.1172 205.5249)" fill="#231F20" font-family="'Roboto-Regular'" font-size="12">p</text>
	<text transform="matrix(1 0 0 1 87.5977 205.5249)" fill="#231F20" font-family="'Roboto-Regular'" font-size="12">a</text>
	<text transform="matrix(1 0 0 1 94.812 205.5249)" fill="#231F20" font-family="'Roboto-Regular'" font-size="12">s</text>
	<text transform="matrix(1 0 0 1 101.7617 205.5249)" fill="#231F20" font-family="'Roboto-Regular'" font-size="12">s</text>
	<rect x="202.475" y="214.852" fill="none" width="72.525" height="31.148"/>
	<text transform="matrix(1 0 0 1 202.4751 223.9956)" fill="#231F20" font-family="'Roboto-Regular'" font-size="12">P</text>
	<text transform="matrix(1 0 0 1 210.7432 223.9956)" fill="#231F20" font-family="'Roboto-Regular'" font-size="12">e</text>
	<text transform="matrix(1 0 0 1 217.8896 223.9956)" fill="#231F20" font-family="'Roboto-Regular'" font-size="12">n</text>
	<text transform="matrix(1 0 0 1 225.4297 223.9956)" fill="#231F20" font-family="'Roboto-Regular'" font-size="12"> </text>
	<text transform="matrix(1 0 0 1 229.1323 223.9956)" fill="#231F20" font-family="'Roboto-Regular'" font-size="12">a</text>
	<text transform="matrix(1 0 0 1 236.4561 223.9956)" fill="#231F20" font-family="'Roboto-Regular'" font-size="12">n</text>
	<text transform="matrix(1 0 0 1 243.9961 223.9956)" fill="#231F20" font-family="'Roboto-Regular'" font-size="12">g</text>
	<text transform="matrix(1 0 0 1 251.5151 223.9956)" fill="#231F20" font-family="'Roboto-Regular'" font-size="12">l</text>
	<text transform="matrix(1 0 0 1 255.2368 223.9956)" fill="#231F20" font-family="'Roboto-Regular'" font-size="12">e</text>
	<circle fill="#F44336" cx="34.667" cy="479.999" r="5"/>
	<circle fill="#FFC709" cx="295.204" cy="60.869" r="5"/>
	<circle fill="#5C72B7" cx="167.398" cy="156.368" r="5"/>
	<circle fill="#C4D1CE" cx="210.804" cy="196.763" r="5"/>
	<circle fill="#FFC709" cx="189.5" cy="177" r="5"/>
	<circle fill="#FFC709" cx="522.777" cy="305.749" r="5"/>
	<circle fill="#FFC709" cx="520.998" cy="88" r="5"/>
	<circle fill="#F44336" cx="34.5" cy="391.999" r="12.5"/>
	<circle fill="#FFC709" cx="73.167" cy="391.999" r="12.5"/>
	<image width="105" height="105" xlink:href="89F50FCE79DAC57E.png"  transform="matrix(0.24 0 0 0.24 177.0005 164.5)">
	</image>
	<circle fill="#5C72B7" cx="111.834" cy="391.999" r="12.5"/>
	<circle fill="#C4D1CE" cx="150.501" cy="391.999" r="12.5"/>
	<circle fill="none" stroke="#231F20" stroke-width="0.5" stroke-miterlimit="10" cx="509.464" cy="437.218" r="12.5"/>
	<circle fill="#F44336" cx="34.5" cy="435.999" r="5"/>
	<circle fill="#F44336" cx="398.797" cy="437.218" r="5"/>
	<circle fill="#FFC709" cx="73.167" cy="435.999" r="5"/>
	<circle fill="#5C72B7" cx="111.834" cy="435.999" r="5"/>
	<circle fill="#5C72B7" cx="362.333" cy="467.667" r="5"/>
	<circle fill="#C4D1CE" cx="150.501" cy="435.999" r="5"/>
	<circle fill="#C4D1CE" cx="362.333" cy="406.767" r="5"/>
	<image width="105" height="105" xlink:href="89F50FCE79DAC57F.png"  transform="matrix(0.24 0 0 0.24 72.8267 277.833)">
	</image>
	<circle fill="#F44336" cx="85.327" cy="290.333" r="5"/>
	<rect x="21.167" y="637.664" fill="#58595B" width="340.667" height="55.334"/>
	<path fill="none" stroke="#000000" stroke-width="0.5" stroke-miterlimit="10" d="M354.666,565.498c33.334,0,30,34,75.334,34
		c45.333,0,45.332-48,83.332-48s54,25.334,102.668,25.334"/>
	<circle fill="#FFC709" cx="327.465" cy="437.218" r="5"/>
	
		<line fill="none" stroke="#231F20" stroke-width="0.5" stroke-miterlimit="10" x1="438.132" y1="437.218" x2="509.464" y2="437.218"/>
	<line fill="none" stroke="#231F20" stroke-width="0.5" stroke-miterlimit="10" x1="473" y1="406.767" x2="473" y2="467.667"/>
	<circle fill="none" stroke="#231F20" stroke-width="0.5" stroke-miterlimit="10" cx="509.464" cy="437.218" r="5"/>
	<circle fill="none" stroke="#231F20" stroke-width="0.5" stroke-miterlimit="10" cx="473" cy="467.667" r="5"/>
	<circle fill="none" stroke="#231F20" stroke-width="0.5" stroke-miterlimit="10" cx="473" cy="406.767" r="5"/>
	<circle fill="none" stroke="#231F20" stroke-width="0.5" stroke-miterlimit="10" cx="438.132" cy="437.218" r="5"/>
	<g>
		
			<image opacity="0.5" width="678" height="684" xlink:href="89F50FCE79DAC572.png"  transform="matrix(0.24 0 0 0.24 141.9058 562.6123)">
		</image>
		<g>
			
				<rect x="141.833" y="614.998" transform="matrix(0.6994 0.7147 -0.7147 0.6994 525.8058 35.1059)" fill="#58595B" width="158.668" height="55.334"/>
		</g>
	</g>
	<g>
		
			<image opacity="0.5" width="380" height="380" xlink:href="89F50FCE79DAC575.png"  transform="matrix(0.24 0 0 0.24 295.7354 592.7344)">
		</image>
		<g>
			<circle fill="#58595B" cx="339.333" cy="636.332" r="39.598"/>
		</g>
	</g>
</g>
</svg>
